G04 #@! TF.GenerationSoftware,KiCad,Pcbnew,7.0.9-7.0.9~ubuntu22.04.1*
G04 #@! TF.CreationDate,2024-02-01T16:34:57+01:00*
G04 #@! TF.ProjectId,v7-kaleido,76372d6b-616c-4656-9964-6f2e6b696361,1.0*
G04 #@! TF.SameCoordinates,Original*
G04 #@! TF.FileFunction,Profile,NP*
%FSLAX46Y46*%
G04 Gerber Fmt 4.6, Leading zero omitted, Abs format (unit mm)*
G04 Created by KiCad (PCBNEW 7.0.9-7.0.9~ubuntu22.04.1) date 2024-02-01 16:34:57*
%MOMM*%
%LPD*%
G01*
G04 APERTURE LIST*
G04 #@! TA.AperFunction,Profile*
%ADD10C,0.050000*%
G04 #@! TD*
G04 APERTURE END LIST*
D10*
X59879500Y-148606000D02*
X59879500Y-44000000D01*
X59879500Y-148600000D02*
X115650000Y-148600000D01*
X198000000Y-44000000D02*
X198000000Y-135000000D01*
X59879500Y-44000000D02*
X139200000Y-44000000D01*
X119650000Y-141500000D02*
G75*
G03*
X117650000Y-143500000I0J-2000000D01*
G01*
X198000000Y-141220000D02*
X198000000Y-148606000D01*
X194300000Y-135000000D02*
X194300000Y-141230000D01*
X117650000Y-146602893D02*
X117650000Y-143500000D01*
X115650000Y-148602900D02*
G75*
G03*
X117650000Y-146602893I0J2000000D01*
G01*
X145016207Y-146602893D02*
G75*
G03*
X147016214Y-148602893I1999993J-7D01*
G01*
X169200000Y-44000000D02*
X198000000Y-44000000D01*
X139200000Y-44000000D02*
X139200000Y-49450000D01*
X145016214Y-146602893D02*
X145035791Y-143504216D01*
X147016214Y-148602893D02*
X198000000Y-148606000D01*
X145035784Y-143504216D02*
G75*
G03*
X143035791Y-141504216I-1999984J16D01*
G01*
X194300000Y-141230000D02*
X198000000Y-141220000D01*
X143035791Y-141500000D02*
X119650000Y-141500000D01*
X169200000Y-49450000D02*
X169200000Y-44000000D01*
X198000000Y-135000000D02*
X194300000Y-135000000D01*
X139200000Y-49450000D02*
X169200000Y-49450000D01*
M02*
