G04 #@! TF.GenerationSoftware,KiCad,Pcbnew,7.0.9-7.0.9~ubuntu22.04.1*
G04 #@! TF.CreationDate,2024-02-01T16:34:56+01:00*
G04 #@! TF.ProjectId,v7-kaleido,76372d6b-616c-4656-9964-6f2e6b696361,1.0*
G04 #@! TF.SameCoordinates,Original*
G04 #@! TF.FileFunction,Copper,L1,Top*
G04 #@! TF.FilePolarity,Positive*
%FSLAX46Y46*%
G04 Gerber Fmt 4.6, Leading zero omitted, Abs format (unit mm)*
G04 Created by KiCad (PCBNEW 7.0.9-7.0.9~ubuntu22.04.1) date 2024-02-01 16:34:56*
%MOMM*%
%LPD*%
G01*
G04 APERTURE LIST*
G04 Aperture macros list*
%AMRoundRect*
0 Rectangle with rounded corners*
0 $1 Rounding radius*
0 $2 $3 $4 $5 $6 $7 $8 $9 X,Y pos of 4 corners*
0 Add a 4 corners polygon primitive as box body*
4,1,4,$2,$3,$4,$5,$6,$7,$8,$9,$2,$3,0*
0 Add four circle primitives for the rounded corners*
1,1,$1+$1,$2,$3*
1,1,$1+$1,$4,$5*
1,1,$1+$1,$6,$7*
1,1,$1+$1,$8,$9*
0 Add four rect primitives between the rounded corners*
20,1,$1+$1,$2,$3,$4,$5,0*
20,1,$1+$1,$4,$5,$6,$7,0*
20,1,$1+$1,$6,$7,$8,$9,0*
20,1,$1+$1,$8,$9,$2,$3,0*%
G04 Aperture macros list end*
G04 #@! TA.AperFunction,SMDPad,CuDef*
%ADD10RoundRect,0.200000X-0.200000X-0.275000X0.200000X-0.275000X0.200000X0.275000X-0.200000X0.275000X0*%
G04 #@! TD*
G04 #@! TA.AperFunction,SMDPad,CuDef*
%ADD11RoundRect,0.150000X0.150000X-0.587500X0.150000X0.587500X-0.150000X0.587500X-0.150000X-0.587500X0*%
G04 #@! TD*
G04 #@! TA.AperFunction,SMDPad,CuDef*
%ADD12RoundRect,0.200000X-0.275000X0.200000X-0.275000X-0.200000X0.275000X-0.200000X0.275000X0.200000X0*%
G04 #@! TD*
G04 #@! TA.AperFunction,SMDPad,CuDef*
%ADD13RoundRect,0.200000X0.275000X-0.200000X0.275000X0.200000X-0.275000X0.200000X-0.275000X-0.200000X0*%
G04 #@! TD*
G04 #@! TA.AperFunction,SMDPad,CuDef*
%ADD14RoundRect,0.150000X-0.150000X0.587500X-0.150000X-0.587500X0.150000X-0.587500X0.150000X0.587500X0*%
G04 #@! TD*
G04 #@! TA.AperFunction,SMDPad,CuDef*
%ADD15RoundRect,0.250000X0.250000X0.475000X-0.250000X0.475000X-0.250000X-0.475000X0.250000X-0.475000X0*%
G04 #@! TD*
G04 #@! TA.AperFunction,SMDPad,CuDef*
%ADD16RoundRect,0.250000X-0.475000X0.250000X-0.475000X-0.250000X0.475000X-0.250000X0.475000X0.250000X0*%
G04 #@! TD*
G04 #@! TA.AperFunction,SMDPad,CuDef*
%ADD17RoundRect,0.243750X-0.456250X0.243750X-0.456250X-0.243750X0.456250X-0.243750X0.456250X0.243750X0*%
G04 #@! TD*
G04 #@! TA.AperFunction,SMDPad,CuDef*
%ADD18RoundRect,0.250000X0.475000X-0.250000X0.475000X0.250000X-0.475000X0.250000X-0.475000X-0.250000X0*%
G04 #@! TD*
G04 #@! TA.AperFunction,SMDPad,CuDef*
%ADD19RoundRect,0.250000X0.650000X-0.325000X0.650000X0.325000X-0.650000X0.325000X-0.650000X-0.325000X0*%
G04 #@! TD*
G04 #@! TA.AperFunction,SMDPad,CuDef*
%ADD20RoundRect,0.250000X-0.250000X-0.475000X0.250000X-0.475000X0.250000X0.475000X-0.250000X0.475000X0*%
G04 #@! TD*
G04 #@! TA.AperFunction,SMDPad,CuDef*
%ADD21RoundRect,0.250000X-0.325000X-0.650000X0.325000X-0.650000X0.325000X0.650000X-0.325000X0.650000X0*%
G04 #@! TD*
G04 #@! TA.AperFunction,SMDPad,CuDef*
%ADD22RoundRect,0.200000X0.200000X0.275000X-0.200000X0.275000X-0.200000X-0.275000X0.200000X-0.275000X0*%
G04 #@! TD*
G04 #@! TA.AperFunction,SMDPad,CuDef*
%ADD23RoundRect,0.100000X-0.100000X0.637500X-0.100000X-0.637500X0.100000X-0.637500X0.100000X0.637500X0*%
G04 #@! TD*
G04 #@! TA.AperFunction,SMDPad,CuDef*
%ADD24RoundRect,0.250000X0.925000X-0.412500X0.925000X0.412500X-0.925000X0.412500X-0.925000X-0.412500X0*%
G04 #@! TD*
G04 #@! TA.AperFunction,SMDPad,CuDef*
%ADD25R,3.900000X2.200000*%
G04 #@! TD*
G04 #@! TA.AperFunction,SMDPad,CuDef*
%ADD26R,4.200000X2.400000*%
G04 #@! TD*
G04 #@! TA.AperFunction,SMDPad,CuDef*
%ADD27R,0.850000X0.200000*%
G04 #@! TD*
G04 #@! TA.AperFunction,SMDPad,CuDef*
%ADD28R,0.200000X0.850000*%
G04 #@! TD*
G04 #@! TA.AperFunction,ComponentPad*
%ADD29C,0.508000*%
G04 #@! TD*
G04 #@! TA.AperFunction,SMDPad,CuDef*
%ADD30R,4.399999X4.399999*%
G04 #@! TD*
G04 #@! TA.AperFunction,SMDPad,CuDef*
%ADD31RoundRect,0.225000X-0.375000X0.225000X-0.375000X-0.225000X0.375000X-0.225000X0.375000X0.225000X0*%
G04 #@! TD*
G04 #@! TA.AperFunction,SMDPad,CuDef*
%ADD32RoundRect,0.225000X0.375000X-0.225000X0.375000X0.225000X-0.375000X0.225000X-0.375000X-0.225000X0*%
G04 #@! TD*
G04 #@! TA.AperFunction,SMDPad,CuDef*
%ADD33C,2.500000*%
G04 #@! TD*
G04 #@! TA.AperFunction,SMDPad,CuDef*
%ADD34R,0.650000X1.500000*%
G04 #@! TD*
G04 #@! TA.AperFunction,SMDPad,CuDef*
%ADD35R,3.600000X2.700000*%
G04 #@! TD*
G04 #@! TA.AperFunction,ComponentPad*
%ADD36R,1.700000X1.700000*%
G04 #@! TD*
G04 #@! TA.AperFunction,ComponentPad*
%ADD37O,1.700000X1.700000*%
G04 #@! TD*
G04 #@! TA.AperFunction,SMDPad,CuDef*
%ADD38RoundRect,0.150000X0.512500X0.150000X-0.512500X0.150000X-0.512500X-0.150000X0.512500X-0.150000X0*%
G04 #@! TD*
G04 #@! TA.AperFunction,SMDPad,CuDef*
%ADD39R,0.500000X0.375000*%
G04 #@! TD*
G04 #@! TA.AperFunction,SMDPad,CuDef*
%ADD40R,0.650000X0.300000*%
G04 #@! TD*
G04 #@! TA.AperFunction,SMDPad,CuDef*
%ADD41R,1.600000X2.800000*%
G04 #@! TD*
G04 #@! TA.AperFunction,SMDPad,CuDef*
%ADD42R,0.250000X1.300000*%
G04 #@! TD*
G04 #@! TA.AperFunction,SMDPad,CuDef*
%ADD43RoundRect,0.150000X-0.587500X-0.150000X0.587500X-0.150000X0.587500X0.150000X-0.587500X0.150000X0*%
G04 #@! TD*
G04 #@! TA.AperFunction,SMDPad,CuDef*
%ADD44R,1.500000X1.000000*%
G04 #@! TD*
G04 #@! TA.AperFunction,SMDPad,CuDef*
%ADD45R,0.355600X0.838200*%
G04 #@! TD*
G04 #@! TA.AperFunction,SMDPad,CuDef*
%ADD46R,0.406400X0.838200*%
G04 #@! TD*
G04 #@! TA.AperFunction,SMDPad,CuDef*
%ADD47RoundRect,0.150000X-0.150000X0.825000X-0.150000X-0.825000X0.150000X-0.825000X0.150000X0.825000X0*%
G04 #@! TD*
G04 #@! TA.AperFunction,SMDPad,CuDef*
%ADD48R,0.800000X0.300000*%
G04 #@! TD*
G04 #@! TA.AperFunction,SMDPad,CuDef*
%ADD49R,0.800000X0.400000*%
G04 #@! TD*
G04 #@! TA.AperFunction,SMDPad,CuDef*
%ADD50RoundRect,0.150000X-0.150000X0.512500X-0.150000X-0.512500X0.150000X-0.512500X0.150000X0.512500X0*%
G04 #@! TD*
G04 #@! TA.AperFunction,SMDPad,CuDef*
%ADD51R,1.500000X0.900000*%
G04 #@! TD*
G04 #@! TA.AperFunction,SMDPad,CuDef*
%ADD52R,0.900000X1.500000*%
G04 #@! TD*
G04 #@! TA.AperFunction,SMDPad,CuDef*
%ADD53R,0.900000X0.900000*%
G04 #@! TD*
G04 #@! TA.AperFunction,SMDPad,CuDef*
%ADD54RoundRect,0.150000X-0.825000X-0.150000X0.825000X-0.150000X0.825000X0.150000X-0.825000X0.150000X0*%
G04 #@! TD*
G04 #@! TA.AperFunction,SMDPad,CuDef*
%ADD55R,1.450000X0.600000*%
G04 #@! TD*
G04 #@! TA.AperFunction,SMDPad,CuDef*
%ADD56R,1.450000X0.300000*%
G04 #@! TD*
G04 #@! TA.AperFunction,ComponentPad*
%ADD57O,2.100000X1.000000*%
G04 #@! TD*
G04 #@! TA.AperFunction,ComponentPad*
%ADD58O,1.600000X1.000000*%
G04 #@! TD*
G04 #@! TA.AperFunction,SMDPad,CuDef*
%ADD59R,1.257300X4.013200*%
G04 #@! TD*
G04 #@! TA.AperFunction,SMDPad,CuDef*
%ADD60RoundRect,0.150000X0.587500X0.150000X-0.587500X0.150000X-0.587500X-0.150000X0.587500X-0.150000X0*%
G04 #@! TD*
G04 #@! TA.AperFunction,SMDPad,CuDef*
%ADD61RoundRect,0.225000X0.225000X0.375000X-0.225000X0.375000X-0.225000X-0.375000X0.225000X-0.375000X0*%
G04 #@! TD*
G04 #@! TA.AperFunction,SMDPad,CuDef*
%ADD62R,1.000000X1.800000*%
G04 #@! TD*
G04 #@! TA.AperFunction,ViaPad*
%ADD63C,0.800000*%
G04 #@! TD*
G04 #@! TA.AperFunction,ViaPad*
%ADD64C,0.450000*%
G04 #@! TD*
G04 #@! TA.AperFunction,ViaPad*
%ADD65C,0.500000*%
G04 #@! TD*
G04 #@! TA.AperFunction,Conductor*
%ADD66C,0.500000*%
G04 #@! TD*
G04 #@! TA.AperFunction,Conductor*
%ADD67C,1.000000*%
G04 #@! TD*
G04 #@! TA.AperFunction,Conductor*
%ADD68C,0.300000*%
G04 #@! TD*
G04 #@! TA.AperFunction,Conductor*
%ADD69C,0.200000*%
G04 #@! TD*
G04 #@! TA.AperFunction,Conductor*
%ADD70C,0.250000*%
G04 #@! TD*
G04 #@! TA.AperFunction,Conductor*
%ADD71C,0.750000*%
G04 #@! TD*
G04 APERTURE END LIST*
G04 #@! TA.AperFunction,EtchedComponent*
G36*
X116468500Y-138965693D02*
G01*
X116068500Y-138965693D01*
X116068500Y-138465693D01*
X116468500Y-138465693D01*
X116468500Y-138965693D01*
G37*
G04 #@! TD.AperFunction*
G04 #@! TA.AperFunction,EtchedComponent*
G36*
X115668500Y-138965693D02*
G01*
X115268500Y-138965693D01*
X115268500Y-138465693D01*
X115668500Y-138465693D01*
X115668500Y-138965693D01*
G37*
G04 #@! TD.AperFunction*
G04 #@! TA.AperFunction,EtchedComponent*
G36*
X118196500Y-134593693D02*
G01*
X117796500Y-134593693D01*
X117796500Y-134093693D01*
X118196500Y-134093693D01*
X118196500Y-134593693D01*
G37*
G04 #@! TD.AperFunction*
G04 #@! TA.AperFunction,EtchedComponent*
G36*
X117396500Y-134593693D02*
G01*
X116996500Y-134593693D01*
X116996500Y-134093693D01*
X117396500Y-134093693D01*
X117396500Y-134593693D01*
G37*
G04 #@! TD.AperFunction*
D10*
X108171500Y-108443693D03*
X109821500Y-108443693D03*
D11*
X85946500Y-106506193D03*
X87846500Y-106506193D03*
X86896500Y-104631193D03*
D12*
X85996500Y-108243693D03*
X85996500Y-109893693D03*
D13*
X87596500Y-109893693D03*
X87596500Y-108243693D03*
D14*
X87746500Y-111606193D03*
X85846500Y-111606193D03*
X86796500Y-113481193D03*
D15*
X114796500Y-130143693D03*
X112896500Y-130143693D03*
D16*
X69696500Y-139143693D03*
X69696500Y-141043693D03*
D17*
X74554500Y-143005693D03*
X74554500Y-144880693D03*
D12*
X72246500Y-139518693D03*
X72246500Y-141168693D03*
X74554500Y-139518693D03*
X74554500Y-141168693D03*
D17*
X72141500Y-143005693D03*
X72141500Y-144880693D03*
D18*
X148296500Y-144193693D03*
X148296500Y-142293693D03*
X69696500Y-144843693D03*
X69696500Y-142943693D03*
D15*
X109706500Y-135413693D03*
X107806500Y-135413693D03*
D18*
X166690000Y-132880000D03*
X166690000Y-130980000D03*
D19*
X194955000Y-130750000D03*
X194955000Y-127800000D03*
D20*
X170062000Y-124520000D03*
X171962000Y-124520000D03*
D21*
X172890000Y-116490000D03*
X175840000Y-116490000D03*
D20*
X194030000Y-117880000D03*
X195930000Y-117880000D03*
D22*
X95321500Y-106743693D03*
X93671500Y-106743693D03*
D13*
X107177700Y-140015293D03*
X107177700Y-138365293D03*
X196955000Y-130100000D03*
X196955000Y-128450000D03*
D10*
X170365000Y-122590000D03*
X172015000Y-122590000D03*
X172840000Y-118690000D03*
X174490000Y-118690000D03*
X194405000Y-115848000D03*
X196055000Y-115848000D03*
D12*
X109209700Y-138365293D03*
X109209700Y-140015293D03*
D23*
X105321500Y-106443693D03*
X104671500Y-106443693D03*
X104021500Y-106443693D03*
X103371500Y-106443693D03*
X102721500Y-106443693D03*
X102071500Y-106443693D03*
X101421500Y-106443693D03*
X100771500Y-106443693D03*
X100121500Y-106443693D03*
X99471500Y-106443693D03*
X98821500Y-106443693D03*
X98171500Y-106443693D03*
X98171500Y-112168693D03*
X98821500Y-112168693D03*
X99471500Y-112168693D03*
X100121500Y-112168693D03*
X100771500Y-112168693D03*
X101421500Y-112168693D03*
X102071500Y-112168693D03*
X102721500Y-112168693D03*
X103371500Y-112168693D03*
X104021500Y-112168693D03*
X104671500Y-112168693D03*
X105321500Y-112168693D03*
D16*
X106216500Y-120239693D03*
X106216500Y-122139693D03*
D24*
X150596500Y-140081193D03*
X150596500Y-137006193D03*
D20*
X107806500Y-123983693D03*
X109706500Y-123983693D03*
D22*
X88753500Y-129825693D03*
X87103500Y-129825693D03*
D25*
X95802500Y-140996693D03*
X95802500Y-137196693D03*
D26*
X92754500Y-122677693D03*
X92754500Y-118177693D03*
D22*
X85451500Y-132111693D03*
X83801500Y-132111693D03*
X88753500Y-132111693D03*
X87103500Y-132111693D03*
X85451500Y-129825693D03*
X83801500Y-129825693D03*
D18*
X99358500Y-143602693D03*
X99358500Y-141702693D03*
X104184500Y-138649693D03*
X104184500Y-136749693D03*
D15*
X92434500Y-128809693D03*
X90534500Y-128809693D03*
D20*
X90534500Y-131603693D03*
X92434500Y-131603693D03*
D16*
X147796500Y-137793693D03*
X147796500Y-139693693D03*
D27*
X103095500Y-131771694D03*
X103095500Y-131371692D03*
X103095500Y-130971693D03*
X103095500Y-130571694D03*
X103095500Y-130171692D03*
X103095500Y-129771693D03*
X103095500Y-129371693D03*
X103095500Y-128971694D03*
X103095500Y-128571692D03*
X103095500Y-128171693D03*
X103095500Y-127771694D03*
X103095500Y-127371692D03*
D28*
X102320501Y-126596693D03*
X101920499Y-126596693D03*
X101520500Y-126596693D03*
X101120501Y-126596693D03*
X100720499Y-126596693D03*
X100320500Y-126596693D03*
X99920500Y-126596693D03*
X99520501Y-126596693D03*
X99120499Y-126596693D03*
X98720500Y-126596693D03*
X98320501Y-126596693D03*
X97920499Y-126596693D03*
D27*
X97145500Y-127371692D03*
X97145500Y-127771694D03*
X97145500Y-128171693D03*
X97145500Y-128571692D03*
X97145500Y-128971694D03*
X97145500Y-129371693D03*
X97145500Y-129771693D03*
X97145500Y-130171692D03*
X97145500Y-130571694D03*
X97145500Y-130971693D03*
X97145500Y-131371692D03*
X97145500Y-131771694D03*
D28*
X97920499Y-132546693D03*
X98320501Y-132546693D03*
X98720500Y-132546693D03*
X99120499Y-132546693D03*
X99520501Y-132546693D03*
X99920500Y-132546693D03*
X100320500Y-132546693D03*
X100720499Y-132546693D03*
X101120501Y-132546693D03*
X101520500Y-132546693D03*
X101920499Y-132546693D03*
X102320501Y-132546693D03*
D29*
X101695300Y-131146493D03*
X101695300Y-130359093D03*
X101695300Y-129571693D03*
X101695300Y-128784293D03*
X101695300Y-127996893D03*
X100907900Y-131146493D03*
X100907900Y-130359093D03*
X100907900Y-129571693D03*
X100907900Y-128784293D03*
X100907900Y-127996893D03*
X100120500Y-131146493D03*
X100120500Y-130359093D03*
X100120500Y-129571693D03*
D30*
X100120500Y-129571693D03*
D29*
X100120500Y-128784293D03*
X100120500Y-127996893D03*
X99333100Y-131146493D03*
X99333100Y-130359093D03*
X99333100Y-129571693D03*
X99333100Y-128784293D03*
X99333100Y-127996893D03*
X98545700Y-131146493D03*
X98545700Y-130359093D03*
X98545700Y-129571693D03*
X98545700Y-128784293D03*
X98545700Y-127996893D03*
D15*
X109706500Y-133127693D03*
X107806500Y-133127693D03*
D18*
X96818500Y-123155693D03*
X96818500Y-121255693D03*
D15*
X109706500Y-126269693D03*
X107806500Y-126269693D03*
D31*
X85896500Y-134017693D03*
X85896500Y-137317693D03*
D32*
X88436500Y-137317693D03*
X88436500Y-134017693D03*
D31*
X85896500Y-124873693D03*
X85896500Y-128173693D03*
D32*
X88436500Y-128173693D03*
X88436500Y-124873693D03*
D20*
X81644500Y-127793693D03*
X83544500Y-127793693D03*
D18*
X101644500Y-122139693D03*
X101644500Y-120239693D03*
D20*
X107806500Y-130841693D03*
X109706500Y-130841693D03*
X90534500Y-126396693D03*
X92434500Y-126396693D03*
D18*
X103930500Y-122139693D03*
X103930500Y-120239693D03*
D20*
X90534500Y-134016693D03*
X92434500Y-134016693D03*
D15*
X83544500Y-134143693D03*
X81644500Y-134143693D03*
X109706500Y-128568393D03*
X107806500Y-128568393D03*
D18*
X102025500Y-138649693D03*
X102025500Y-136749693D03*
D32*
X99485500Y-139984693D03*
X99485500Y-136684693D03*
D20*
X112946500Y-123243693D03*
X114846500Y-123243693D03*
X186280000Y-114330000D03*
X188180000Y-114330000D03*
D10*
X186630000Y-112430000D03*
X188280000Y-112430000D03*
D31*
X99358500Y-119031693D03*
X99358500Y-122331693D03*
D12*
X67717500Y-143018693D03*
X67717500Y-144668693D03*
X67717500Y-139744693D03*
X67717500Y-141394693D03*
D16*
X86846500Y-118393693D03*
X86846500Y-120293693D03*
D18*
X91738500Y-138649693D03*
X91738500Y-136749693D03*
D33*
X87096500Y-143843693D03*
X79096500Y-143843693D03*
X91096500Y-143843693D03*
X105096500Y-143843693D03*
D20*
X108046500Y-113943693D03*
X109946500Y-113943693D03*
D12*
X145796500Y-138118693D03*
X145796500Y-139768693D03*
D22*
X109821500Y-111943693D03*
X108171500Y-111943693D03*
X109821500Y-110143693D03*
X108171500Y-110143693D03*
D10*
X93671500Y-109943693D03*
X95321500Y-109943693D03*
X93671500Y-108343693D03*
X95321500Y-108343693D03*
D33*
X83096500Y-143843693D03*
D34*
X72401500Y-130784693D03*
X71131500Y-130784693D03*
X69861500Y-130784693D03*
X68591500Y-130784693D03*
X68591500Y-136184693D03*
X69861500Y-136184693D03*
X71131500Y-136184693D03*
X72401500Y-136184693D03*
D35*
X70496500Y-133484693D03*
D32*
X70796500Y-126193693D03*
X70796500Y-122893693D03*
D22*
X72271500Y-128493693D03*
X70621500Y-128493693D03*
D36*
X62446500Y-132618693D03*
D37*
X62446500Y-135158693D03*
D38*
X78434000Y-123093693D03*
X78434000Y-121193693D03*
X76159000Y-122143693D03*
D39*
X72646500Y-111806193D03*
D40*
X72571500Y-112343693D03*
D39*
X72646500Y-112881193D03*
X74346500Y-112881193D03*
D40*
X74421500Y-112343693D03*
D39*
X74346500Y-111806193D03*
D20*
X72546500Y-115843693D03*
X74446500Y-115843693D03*
D41*
X174700000Y-123710000D03*
X195200000Y-123710000D03*
D42*
X176700000Y-120710000D03*
X177200000Y-120710000D03*
X177700000Y-120710000D03*
X178200000Y-120710000D03*
X178700000Y-120710000D03*
X179200000Y-120710000D03*
X179700000Y-120710000D03*
X180200000Y-120710000D03*
X180700000Y-120710000D03*
X181200000Y-120710000D03*
X181700000Y-120710000D03*
X182200000Y-120710000D03*
X182700000Y-120710000D03*
X183200000Y-120710000D03*
X183700000Y-120710000D03*
X184200000Y-120710000D03*
X184700000Y-120710000D03*
X185200000Y-120710000D03*
X185700000Y-120710000D03*
X186200000Y-120710000D03*
X186700000Y-120710000D03*
X187200000Y-120710000D03*
X187700000Y-120710000D03*
X188200000Y-120710000D03*
X188700000Y-120710000D03*
X189200000Y-120710000D03*
X189700000Y-120710000D03*
X190200000Y-120710000D03*
X190700000Y-120710000D03*
X191200000Y-120710000D03*
X191700000Y-120710000D03*
X192200000Y-120710000D03*
X192700000Y-120710000D03*
X193200000Y-120710000D03*
D43*
X66109000Y-124843693D03*
X66109000Y-126743693D03*
X67984000Y-125793693D03*
D44*
X115868500Y-138065693D03*
X115868500Y-139365693D03*
D16*
X123396500Y-104393693D03*
X123396500Y-106293693D03*
D36*
X62196500Y-103718693D03*
D37*
X62196500Y-101178693D03*
D45*
X144899496Y-70240000D03*
X145399622Y-70240000D03*
X145899748Y-70240000D03*
X146399874Y-70240000D03*
X146900000Y-70240000D03*
X147400126Y-70240000D03*
X147900252Y-70240000D03*
X148400378Y-70240000D03*
D46*
X149399937Y-67780000D03*
X143899937Y-67780000D03*
D47*
X122151500Y-109468693D03*
X120881500Y-109468693D03*
X119611500Y-109468693D03*
X118341500Y-109468693D03*
X118341500Y-114418693D03*
X119611500Y-114418693D03*
X120881500Y-114418693D03*
X122151500Y-114418693D03*
D13*
X72696500Y-109168693D03*
X72696500Y-107518693D03*
D48*
X171870000Y-130270000D03*
X171870000Y-129770000D03*
X171870000Y-129270000D03*
X171870000Y-128770000D03*
X171870000Y-128270000D03*
X171870000Y-127770000D03*
D49*
X174370000Y-126770000D03*
X174370000Y-131270000D03*
D22*
X66171500Y-122243693D03*
X64521500Y-122243693D03*
X109821500Y-106693693D03*
X108171500Y-106693693D03*
D50*
X114846500Y-125606193D03*
X113896500Y-125606193D03*
X112946500Y-125606193D03*
X112946500Y-127881193D03*
X114846500Y-127881193D03*
D12*
X169492500Y-90585000D03*
X169492500Y-92235000D03*
D10*
X158835000Y-115210000D03*
X160485000Y-115210000D03*
D16*
X116896500Y-104393693D03*
X116896500Y-106293693D03*
D38*
X165580000Y-94150000D03*
X165580000Y-93200000D03*
X165580000Y-92250000D03*
X163305000Y-92250000D03*
X163305000Y-93200000D03*
X163305000Y-94150000D03*
D12*
X116596500Y-110993693D03*
X116596500Y-112643693D03*
D15*
X78346500Y-125043693D03*
X76446500Y-125043693D03*
D18*
X65696500Y-141743693D03*
X65696500Y-139843693D03*
D44*
X117596500Y-133693693D03*
X117596500Y-134993693D03*
D12*
X72696500Y-118818693D03*
X72696500Y-120468693D03*
D10*
X151620000Y-115210000D03*
X153270000Y-115210000D03*
D36*
X101640000Y-46650000D03*
D37*
X104180000Y-46650000D03*
X106720000Y-46650000D03*
X109260000Y-46650000D03*
X111800000Y-46650000D03*
X114340000Y-46650000D03*
X116880000Y-46650000D03*
X119420000Y-46650000D03*
X121960000Y-46650000D03*
X124500000Y-46650000D03*
X127040000Y-46650000D03*
X129580000Y-46650000D03*
D51*
X140571500Y-140053693D03*
X140571500Y-138783693D03*
X140571500Y-137513693D03*
X140571500Y-136243693D03*
X140571500Y-134973693D03*
X140571500Y-133703693D03*
X140571500Y-132433693D03*
X140571500Y-131163693D03*
X140571500Y-129893693D03*
X140571500Y-128623693D03*
X140571500Y-127353693D03*
X140571500Y-126083693D03*
X140571500Y-124813693D03*
X140571500Y-123543693D03*
D52*
X138806500Y-122293693D03*
X137536500Y-122293693D03*
X136266500Y-122293693D03*
X134996500Y-122293693D03*
X133726500Y-122293693D03*
X132456500Y-122293693D03*
X131186500Y-122293693D03*
X129916500Y-122293693D03*
X128646500Y-122293693D03*
X127376500Y-122293693D03*
X126106500Y-122293693D03*
X124836500Y-122293693D03*
D51*
X123071500Y-123543693D03*
X123071500Y-124813693D03*
X123071500Y-126083693D03*
X123071500Y-127353693D03*
X123071500Y-128623693D03*
X123071500Y-129893693D03*
X123071500Y-131163693D03*
X123071500Y-132433693D03*
X123071500Y-133703693D03*
X123071500Y-134973693D03*
X123071500Y-136243693D03*
X123071500Y-137513693D03*
X123071500Y-138783693D03*
X123071500Y-140053693D03*
D53*
X134721500Y-133733693D03*
X134721500Y-132333693D03*
X134721500Y-130933693D03*
X133321500Y-133733693D03*
X133321500Y-132333693D03*
X133321500Y-130933693D03*
X131921500Y-133733693D03*
X131921500Y-132333693D03*
X131921500Y-130933693D03*
D12*
X169492500Y-95065000D03*
X169492500Y-96715000D03*
D22*
X157195000Y-116960000D03*
X155545000Y-116960000D03*
X157165000Y-115210000D03*
X155515000Y-115210000D03*
D36*
X67515000Y-46650000D03*
D37*
X70055000Y-46650000D03*
X72595000Y-46650000D03*
X75135000Y-46650000D03*
X77675000Y-46650000D03*
X80215000Y-46650000D03*
X82755000Y-46650000D03*
X85295000Y-46650000D03*
X87835000Y-46650000D03*
X90375000Y-46650000D03*
X92915000Y-46650000D03*
X95455000Y-46650000D03*
X97995000Y-46650000D03*
D10*
X146075000Y-75650000D03*
X147725000Y-75650000D03*
D22*
X149895000Y-115210000D03*
X148245000Y-115210000D03*
D36*
X189190000Y-46650000D03*
D37*
X186650000Y-46650000D03*
X184110000Y-46650000D03*
X181570000Y-46650000D03*
X179030000Y-46650000D03*
X176490000Y-46650000D03*
X173950000Y-46650000D03*
D16*
X124496500Y-112793693D03*
X124496500Y-114693693D03*
D54*
X77521500Y-106098693D03*
X77521500Y-107368693D03*
X77521500Y-108638693D03*
X77521500Y-109908693D03*
X77521500Y-111178693D03*
X77521500Y-112448693D03*
X77521500Y-113718693D03*
X77521500Y-114988693D03*
X82471500Y-114988693D03*
X82471500Y-113718693D03*
X82471500Y-112448693D03*
X82471500Y-111178693D03*
X82471500Y-109908693D03*
X82471500Y-108638693D03*
X82471500Y-107368693D03*
X82471500Y-106098693D03*
D55*
X68281500Y-110393693D03*
X68281500Y-111193693D03*
D56*
X68281500Y-112393693D03*
X68281500Y-113393693D03*
X68281500Y-113893693D03*
X68281500Y-114893693D03*
D55*
X68281500Y-116093693D03*
X68281500Y-116893693D03*
X68281500Y-116893693D03*
X68281500Y-116093693D03*
D56*
X68281500Y-115393693D03*
X68281500Y-114393693D03*
X68281500Y-112893693D03*
X68281500Y-111893693D03*
D55*
X68281500Y-111193693D03*
X68281500Y-110393693D03*
D57*
X67366500Y-109323693D03*
D58*
X63186500Y-109323693D03*
D57*
X67366500Y-117963693D03*
D58*
X63186500Y-117963693D03*
D59*
X165557350Y-98640000D03*
X161607650Y-98640000D03*
D20*
X76346500Y-119243693D03*
X78246500Y-119243693D03*
D60*
X160110000Y-112440000D03*
X160110000Y-110540000D03*
X158235000Y-111490000D03*
D61*
X169510000Y-88530000D03*
X166210000Y-88530000D03*
D60*
X152300000Y-112440000D03*
X152300000Y-110540000D03*
X150425000Y-111490000D03*
D32*
X63596500Y-127593693D03*
X63596500Y-124293693D03*
D22*
X149895000Y-116960000D03*
X148245000Y-116960000D03*
D16*
X171852500Y-90410000D03*
X171852500Y-92310000D03*
D15*
X160100000Y-93210000D03*
X158200000Y-93210000D03*
D62*
X121396500Y-105893693D03*
X118896500Y-105893693D03*
D63*
X188300000Y-135060000D03*
X148061529Y-139795403D03*
X104056000Y-104943693D03*
X103755499Y-139843693D03*
X111096500Y-132093693D03*
X105096500Y-105043693D03*
X69696500Y-110143693D03*
X96296500Y-116743693D03*
X72696500Y-121543693D03*
X111096500Y-127593693D03*
X106089500Y-129365693D03*
X116996500Y-103243693D03*
X102846500Y-119093693D03*
X100596500Y-143593693D03*
X173190000Y-92290000D03*
D64*
X179690000Y-119490000D03*
D63*
X72596500Y-114443693D03*
X196210000Y-127800000D03*
X103168500Y-125507693D03*
X63596500Y-122143693D03*
X109596500Y-129593693D03*
X93896500Y-115343693D03*
X106470500Y-127745693D03*
X124196500Y-105143693D03*
X156540000Y-93110000D03*
X103596500Y-119093693D03*
D65*
X192420000Y-121900000D03*
D63*
X172563000Y-123500000D03*
X75296500Y-119143693D03*
X124896500Y-111643693D03*
X113896500Y-126443693D03*
X93696500Y-105643693D03*
X111398781Y-123366052D03*
X89496500Y-115343693D03*
X170480000Y-96700000D03*
X65696500Y-142843693D03*
X68746500Y-138343693D03*
X135496500Y-130143693D03*
X80496500Y-127843693D03*
X102346500Y-141843693D03*
X89493186Y-128947792D03*
X117092000Y-108343693D03*
X92896500Y-114743693D03*
X90346500Y-138343693D03*
X91896500Y-115343693D03*
X79696500Y-123243693D03*
X71805082Y-112651705D03*
X112096500Y-133093693D03*
X103548243Y-132874950D03*
X90534500Y-130155693D03*
D65*
X189190000Y-121850000D03*
D63*
X188930000Y-115309000D03*
X115636500Y-130093693D03*
X103040500Y-138649693D03*
X142696500Y-139943693D03*
X115596500Y-129093693D03*
X135796500Y-133743693D03*
X153870000Y-113100000D03*
X97896500Y-104943693D03*
X177910000Y-122030000D03*
X88896500Y-118943693D03*
D64*
X180710000Y-119510000D03*
D63*
X108096500Y-140383693D03*
X121096500Y-139943693D03*
X93593277Y-130438096D03*
X89496500Y-117743693D03*
X150596500Y-144343693D03*
X101846500Y-139843693D03*
X111096500Y-129843693D03*
X87346500Y-117343693D03*
X90346500Y-139343693D03*
X66746500Y-144593693D03*
X99463781Y-134928356D03*
X84346500Y-132843693D03*
X144540000Y-71490000D03*
X148296500Y-145143693D03*
X196430000Y-119023000D03*
X175830000Y-115135000D03*
X80596500Y-134093693D03*
X77496500Y-105043693D03*
X95696500Y-117943693D03*
X161720000Y-113100000D03*
X166930000Y-93200000D03*
X102846500Y-140843693D03*
X99096500Y-121093693D03*
X102700500Y-120239693D03*
X107596500Y-120843693D03*
X90696500Y-114743693D03*
X188930000Y-113209000D03*
X149596500Y-146343693D03*
X130796500Y-133743693D03*
X72696500Y-106443693D03*
X70746500Y-145343693D03*
X110802000Y-114277708D03*
X69396500Y-117243693D03*
X172780000Y-120160000D03*
X196530000Y-116623000D03*
X97112034Y-120109227D03*
X115896500Y-123443693D03*
X98950500Y-120239693D03*
X79496500Y-125043693D03*
X88896500Y-116543693D03*
X69696500Y-129243693D03*
X97846500Y-143593693D03*
X86096500Y-117343693D03*
X109596500Y-131843693D03*
X111096500Y-125343693D03*
X131196500Y-130243693D03*
X73196500Y-130743693D03*
X109480000Y-127343693D03*
X84346500Y-130593693D03*
X106396500Y-119343693D03*
X111096500Y-133843693D03*
X165250000Y-131930000D03*
X95548500Y-131984693D03*
X88596500Y-133007691D03*
X112410000Y-143290000D03*
X158542922Y-130322922D03*
X88096500Y-129183695D03*
X95373246Y-128680722D03*
X114296500Y-141340000D03*
X154069310Y-133635000D03*
X111862622Y-138518814D03*
X194120000Y-119280000D03*
X89096500Y-142593693D03*
X100220490Y-124364693D03*
X110121992Y-141941992D03*
X128381228Y-134575066D03*
X90248193Y-113295386D03*
X178540000Y-115580000D03*
X98160000Y-110680000D03*
X108180000Y-137080000D03*
X107380000Y-122130000D03*
X185540000Y-129100000D03*
X99296500Y-110643693D03*
X102996500Y-108343693D03*
X74896500Y-107343693D03*
X111696500Y-116043693D03*
X75696500Y-108643693D03*
X110896500Y-116643693D03*
X110545395Y-139593693D03*
X155947922Y-132917922D03*
X70796500Y-111143693D03*
X75562837Y-112210030D03*
X70796500Y-116143693D03*
X70730440Y-144008136D03*
X113836500Y-144643693D03*
X186180000Y-110060000D03*
D65*
X190950000Y-118120000D03*
D63*
X103346500Y-121343693D03*
X106089500Y-130841693D03*
X95422757Y-126903436D03*
X103636500Y-122794693D03*
X107096500Y-101443693D03*
X104694807Y-114345386D03*
X107196500Y-105643693D03*
X100924161Y-123571352D03*
X106996500Y-110843693D03*
X139505000Y-104362699D03*
X140970000Y-102390000D03*
X101891748Y-123536440D03*
X104096500Y-115343693D03*
X102096500Y-114143693D03*
X98024294Y-122216930D03*
X105610156Y-116335158D03*
X106196500Y-132743693D03*
X125396500Y-124943693D03*
X120500000Y-97750000D03*
X115638557Y-99510000D03*
X116796500Y-118043693D03*
X107064129Y-129685937D03*
X104796500Y-116843693D03*
X103996500Y-117543693D03*
X106293592Y-125329363D03*
X99972856Y-123437697D03*
X100096500Y-114843693D03*
X108596500Y-121843693D03*
X106484444Y-126269693D03*
X100596500Y-141593693D03*
X95846500Y-122343693D03*
X92096500Y-140343693D03*
X107188759Y-123290140D03*
X94596500Y-142593693D03*
X93346500Y-142343693D03*
X106196500Y-105943693D03*
X95596500Y-123093693D03*
X108996500Y-116543693D03*
X93346500Y-140343693D03*
X97346500Y-142593693D03*
X93346500Y-141343693D03*
X98096500Y-141843693D03*
X87096500Y-121343693D03*
X96846500Y-122343693D03*
X88096500Y-120843693D03*
X92096500Y-141343693D03*
X158030000Y-102390000D03*
X98096500Y-140593693D03*
X95846500Y-142593693D03*
X113996500Y-127543693D03*
X103041500Y-134676693D03*
X112332870Y-137580000D03*
X92696500Y-108343693D03*
X92696500Y-109943693D03*
X124781000Y-115590000D03*
X110796500Y-111943693D03*
X110802000Y-110143693D03*
X150574097Y-139790000D03*
X115596500Y-127543693D03*
X107196500Y-113143693D03*
X114812000Y-112743693D03*
X109131000Y-108443693D03*
X146996500Y-142243693D03*
X110096500Y-105743693D03*
X150596500Y-138943693D03*
X171330000Y-87360000D03*
X177010000Y-125960000D03*
X126667732Y-126614925D03*
X125925268Y-125872461D03*
X113556000Y-118643693D03*
X114269737Y-119284961D03*
X124796500Y-123943693D03*
X120830000Y-60980000D03*
X119777470Y-123700645D03*
X120713235Y-123488543D03*
X121645234Y-123260457D03*
X124996500Y-108943693D03*
X117096500Y-109943693D03*
X118396500Y-129434193D03*
X89096500Y-113643693D03*
X114196500Y-115128193D03*
X103996500Y-108943693D03*
X116376500Y-102218193D03*
X113596500Y-109443693D03*
X187210000Y-110860000D03*
D65*
X190320000Y-117620000D03*
D64*
X172710000Y-135690000D03*
X173850000Y-134590000D03*
D63*
X165270000Y-125950000D03*
X150440000Y-112600000D03*
X167700000Y-125910000D03*
X158250000Y-112680000D03*
X145287961Y-74657963D03*
X144640000Y-113940000D03*
D65*
X129360000Y-132450000D03*
X181950000Y-126290000D03*
D63*
X129690366Y-134541013D03*
D65*
X180825000Y-127600000D03*
D63*
X93697500Y-129444693D03*
X87725776Y-130391312D03*
X87846500Y-131343693D03*
X94411205Y-130940687D03*
X159160000Y-97630000D03*
X146300000Y-110510000D03*
X144440000Y-110310000D03*
X142540000Y-110160000D03*
X140570000Y-110080000D03*
X138730000Y-110080000D03*
D66*
X192610000Y-130750000D02*
X194955000Y-130750000D01*
X188300000Y-135060000D02*
X192610000Y-130750000D01*
D67*
X98950500Y-120239693D02*
X102700500Y-120239693D01*
X102700500Y-120239693D02*
X106216500Y-120239693D01*
D66*
X103040500Y-138649693D02*
X104184500Y-138649693D01*
X101644500Y-119529691D02*
X101644500Y-120239693D01*
D68*
X134721500Y-133733693D02*
X135786500Y-133733693D01*
D69*
X102384499Y-125507693D02*
X103168500Y-125507693D01*
D66*
X91738500Y-138649693D02*
X91040500Y-138649693D01*
D70*
X192200000Y-120710000D02*
X192200000Y-121680000D01*
D66*
X102025500Y-138649693D02*
X102025500Y-139664693D01*
D69*
X101920499Y-126596693D02*
X101920499Y-125971693D01*
X102320501Y-133030565D02*
X102544629Y-133254693D01*
D68*
X114846500Y-123243693D02*
X115696500Y-123243693D01*
X68281500Y-110393693D02*
X69446500Y-110393693D01*
X72546500Y-114493693D02*
X72596500Y-114443693D01*
X150846500Y-146343693D02*
X149596500Y-146343693D01*
D66*
X106216500Y-120239693D02*
X107200500Y-120239693D01*
X83801500Y-132111693D02*
X83801500Y-132298693D01*
D70*
X153870000Y-112110000D02*
X153870000Y-113100000D01*
D68*
X142586500Y-140053693D02*
X142696500Y-139943693D01*
D66*
X80646500Y-134143693D02*
X80596500Y-134093693D01*
X107728100Y-140015293D02*
X108096500Y-140383693D01*
X66821500Y-144668693D02*
X66746500Y-144593693D01*
D70*
X179700000Y-119500000D02*
X179690000Y-119490000D01*
D66*
X96296500Y-116743693D02*
X96706510Y-117153703D01*
X86846500Y-118393693D02*
X86846500Y-118093693D01*
X114796500Y-130143693D02*
X115586500Y-130143693D01*
X69546500Y-139143693D02*
X68746500Y-138343693D01*
D68*
X121206500Y-140053693D02*
X121096500Y-139943693D01*
D69*
X102544629Y-133254693D02*
X103168500Y-133254693D01*
D66*
X99358500Y-143602693D02*
X97855500Y-143602693D01*
D69*
X93859681Y-130171692D02*
X93593277Y-130438096D01*
D68*
X131921500Y-132333693D02*
X134721500Y-132333693D01*
D66*
X171852500Y-92310000D02*
X173170000Y-92310000D01*
D68*
X109946500Y-113943693D02*
X110467985Y-113943693D01*
D70*
X144899496Y-70240000D02*
X144899496Y-71130504D01*
D66*
X90534500Y-131603693D02*
X90534500Y-130155693D01*
D68*
X188180000Y-114559000D02*
X188930000Y-115309000D01*
X131921500Y-133733693D02*
X131921500Y-130933693D01*
D66*
X150596500Y-137260432D02*
X148061529Y-139795403D01*
D68*
X131921500Y-130933693D02*
X134721500Y-130933693D01*
X135786500Y-133733693D02*
X135796500Y-133743693D01*
X124496500Y-112793693D02*
X124496500Y-112043693D01*
X133321500Y-133733693D02*
X133321500Y-130933693D01*
D66*
X90534500Y-128809693D02*
X89631285Y-128809693D01*
D69*
X99530509Y-132556701D02*
X99530509Y-134861628D01*
D68*
X196055000Y-116148000D02*
X196530000Y-116623000D01*
D70*
X144899496Y-71130504D02*
X144540000Y-71490000D01*
X171913000Y-122800000D02*
X171913000Y-122850000D01*
D68*
X78434000Y-123093693D02*
X79546500Y-123093693D01*
X93671500Y-105668693D02*
X93696500Y-105643693D01*
D66*
X104184500Y-139414692D02*
X103755499Y-139843693D01*
D68*
X77521500Y-105068693D02*
X77496500Y-105043693D01*
D66*
X102025500Y-139664693D02*
X101846500Y-139843693D01*
X196955000Y-128450000D02*
X196860000Y-128450000D01*
X172015000Y-122590000D02*
X172015000Y-122952000D01*
X156640000Y-93210000D02*
X156540000Y-93110000D01*
X106216500Y-119523693D02*
X106216500Y-120239693D01*
X89631285Y-128809693D02*
X89493186Y-128947792D01*
D68*
X130806500Y-133733693D02*
X130796500Y-133743693D01*
X104021500Y-104978193D02*
X104056000Y-104943693D01*
D70*
X189200000Y-121840000D02*
X189190000Y-121850000D01*
D66*
X103596500Y-119905693D02*
X103930500Y-120239693D01*
X69696500Y-139143693D02*
X69546500Y-139143693D01*
D70*
X160110000Y-110540000D02*
X161720000Y-112150000D01*
D66*
X108096500Y-140383693D02*
X108149700Y-140383693D01*
X86846500Y-118093693D02*
X86096500Y-117343693D01*
D69*
X105924237Y-127745693D02*
X106470500Y-127745693D01*
D70*
X177700000Y-121820000D02*
X177910000Y-122030000D01*
D66*
X108149700Y-140383693D02*
X108518100Y-140015293D01*
D68*
X123396500Y-104393693D02*
X123446500Y-104393693D01*
D70*
X161230000Y-115210000D02*
X160485000Y-115210000D01*
D68*
X188280000Y-112559000D02*
X188930000Y-113209000D01*
D66*
X150596500Y-137006193D02*
X150596500Y-137260432D01*
X91040500Y-138649693D02*
X90346500Y-139343693D01*
D70*
X180700000Y-119520000D02*
X180710000Y-119510000D01*
X161720000Y-113100000D02*
X161720000Y-114720000D01*
D66*
X102025500Y-138649693D02*
X103040500Y-138649693D01*
X90534500Y-130155693D02*
X90534500Y-128809693D01*
D70*
X153870000Y-114610000D02*
X153270000Y-115210000D01*
D68*
X76346500Y-119243693D02*
X75396500Y-119243693D01*
X110467985Y-113943693D02*
X110802000Y-114277708D01*
D66*
X96818500Y-120402761D02*
X97112034Y-120109227D01*
D70*
X161720000Y-112150000D02*
X161720000Y-113100000D01*
X179700000Y-120710000D02*
X179700000Y-119500000D01*
X174250000Y-118690000D02*
X172780000Y-120160000D01*
D66*
X83801500Y-129825693D02*
X83801500Y-130048693D01*
X86846500Y-117843693D02*
X87346500Y-117343693D01*
D68*
X134721500Y-133733693D02*
X131921500Y-133733693D01*
D66*
X106216500Y-120239693D02*
X106992500Y-120239693D01*
X69696500Y-144843693D02*
X70246500Y-144843693D01*
X83801500Y-132298693D02*
X84346500Y-132843693D01*
D67*
X96818500Y-121255693D02*
X97834500Y-120239693D01*
D66*
X114796500Y-130143693D02*
X114796500Y-129893693D01*
X170465000Y-96715000D02*
X170480000Y-96700000D01*
D68*
X104021500Y-106443693D02*
X104021500Y-104978193D01*
D70*
X175840000Y-115145000D02*
X175830000Y-115135000D01*
D68*
X104671500Y-106443693D02*
X104671500Y-105468693D01*
D66*
X158200000Y-93210000D02*
X156640000Y-93210000D01*
D70*
X152300000Y-110540000D02*
X153870000Y-112110000D01*
D66*
X165580000Y-93200000D02*
X166930000Y-93200000D01*
X104184500Y-138649693D02*
X104184500Y-139414692D01*
D68*
X69046500Y-116893693D02*
X69396500Y-117243693D01*
D66*
X169492500Y-96715000D02*
X170465000Y-96715000D01*
X106992500Y-120239693D02*
X107596500Y-120843693D01*
D67*
X97834500Y-120239693D02*
X98950500Y-120239693D01*
D68*
X123446500Y-104393693D02*
X124196500Y-105143693D01*
D66*
X196860000Y-128450000D02*
X196210000Y-127800000D01*
D68*
X147796500Y-139693693D02*
X147898210Y-139795403D01*
D66*
X172015000Y-122952000D02*
X172563000Y-123500000D01*
D69*
X72113094Y-112343693D02*
X71805082Y-112651705D01*
D68*
X98171500Y-106443693D02*
X98171500Y-105218693D01*
D66*
X102700500Y-119239693D02*
X102846500Y-119093693D01*
D68*
X140571500Y-140053693D02*
X142586500Y-140053693D01*
D69*
X103095500Y-128971694D02*
X104698236Y-128971694D01*
D68*
X123071500Y-140053693D02*
X121206500Y-140053693D01*
D66*
X96706510Y-117153703D02*
X99268512Y-117153703D01*
D68*
X195930000Y-117880000D02*
X195930000Y-118523000D01*
X124496500Y-112043693D02*
X124896500Y-111643693D01*
D69*
X99530509Y-134861628D02*
X99463781Y-134928356D01*
D66*
X72401500Y-128623693D02*
X72271500Y-128493693D01*
D68*
X64521500Y-122243693D02*
X63696500Y-122243693D01*
D70*
X171860000Y-124730000D02*
X171860000Y-124897000D01*
D66*
X72401500Y-130784693D02*
X72401500Y-128623693D01*
D68*
X77521500Y-106098693D02*
X77521500Y-105068693D01*
D66*
X173170000Y-92310000D02*
X173190000Y-92290000D01*
X171962000Y-124101000D02*
X172563000Y-123500000D01*
D68*
X151496500Y-144343693D02*
X150596500Y-144343693D01*
D66*
X102700500Y-120239693D02*
X102700500Y-119239693D01*
D68*
X188180000Y-114330000D02*
X188180000Y-114559000D01*
D69*
X99520501Y-132546693D02*
X99530509Y-132556701D01*
D68*
X115696500Y-123243693D02*
X115896500Y-123443693D01*
X148296500Y-144193693D02*
X148296500Y-145143693D01*
D69*
X105673492Y-129781701D02*
X106089500Y-129365693D01*
D68*
X135496500Y-130143693D02*
X134721500Y-130918693D01*
D69*
X97145500Y-130171692D02*
X93859681Y-130171692D01*
D68*
X118341500Y-109468693D02*
X118217000Y-109468693D01*
D66*
X106396500Y-119343693D02*
X106216500Y-119523693D01*
D68*
X72696500Y-107518693D02*
X72696500Y-106443693D01*
D66*
X109209700Y-140015293D02*
X108518100Y-140015293D01*
D68*
X116896500Y-104393693D02*
X116896500Y-103343693D01*
X65696500Y-141743693D02*
X65696500Y-142843693D01*
X79546500Y-123093693D02*
X79696500Y-123243693D01*
D66*
X86846500Y-118393693D02*
X86846500Y-117843693D01*
D68*
X196055000Y-115848000D02*
X196055000Y-116148000D01*
D69*
X101920499Y-125971693D02*
X102384499Y-125507693D01*
X103168500Y-133254693D02*
X103548243Y-132874950D01*
D68*
X134721500Y-130933693D02*
X134721500Y-133733693D01*
X188280000Y-112430000D02*
X188280000Y-112559000D01*
D66*
X115586500Y-130143693D02*
X115636500Y-130093693D01*
D68*
X131231500Y-130243693D02*
X131921500Y-130933693D01*
D70*
X180700000Y-120710000D02*
X180700000Y-119520000D01*
D66*
X96818500Y-121255693D02*
X96818500Y-120402761D01*
D68*
X68281500Y-116893693D02*
X69046500Y-116893693D01*
D66*
X103596500Y-119093693D02*
X103596500Y-119905693D01*
D68*
X72546500Y-115843693D02*
X72546500Y-114493693D01*
D70*
X192200000Y-121680000D02*
X192420000Y-121900000D01*
D66*
X107177700Y-140015293D02*
X107728100Y-140015293D01*
X67717500Y-144668693D02*
X66821500Y-144668693D01*
D68*
X134721500Y-130918693D02*
X134721500Y-130933693D01*
D66*
X91738500Y-138649693D02*
X90652500Y-138649693D01*
D68*
X195930000Y-118523000D02*
X196430000Y-119023000D01*
D66*
X80496500Y-127843693D02*
X80546500Y-127793693D01*
X90652500Y-138649693D02*
X90346500Y-138343693D01*
X73155500Y-130784693D02*
X73196500Y-130743693D01*
D69*
X102320501Y-132546693D02*
X102320501Y-133030565D01*
D70*
X177700000Y-120710000D02*
X177700000Y-121820000D01*
D69*
X72571500Y-112343693D02*
X72113094Y-112343693D01*
D68*
X104671500Y-105468693D02*
X105096500Y-105043693D01*
X69446500Y-110393693D02*
X69696500Y-110143693D01*
D69*
X104698236Y-128971694D02*
X105924237Y-127745693D01*
D66*
X100587500Y-143602693D02*
X100596500Y-143593693D01*
D68*
X93671500Y-106743693D02*
X93671500Y-105668693D01*
X116896500Y-103343693D02*
X116996500Y-103243693D01*
D66*
X171962000Y-124520000D02*
X171962000Y-124101000D01*
X69861500Y-129408693D02*
X69696500Y-129243693D01*
X194955000Y-127800000D02*
X196210000Y-127800000D01*
X97855500Y-143602693D02*
X97846500Y-143593693D01*
D68*
X118217000Y-109468693D02*
X117092000Y-108343693D01*
D70*
X189200000Y-120710000D02*
X189200000Y-121840000D01*
D68*
X113896500Y-125606193D02*
X113896500Y-126443693D01*
D66*
X72401500Y-130784693D02*
X73155500Y-130784693D01*
X81644500Y-134143693D02*
X80646500Y-134143693D01*
X90534500Y-130155693D02*
X92658500Y-130155693D01*
D70*
X153870000Y-113100000D02*
X153870000Y-114610000D01*
D66*
X166690000Y-130980000D02*
X165740000Y-131930000D01*
X92940903Y-130438096D02*
X93593277Y-130438096D01*
X99268512Y-117153703D02*
X101644500Y-119529691D01*
X92658500Y-130155693D02*
X92940903Y-130438096D01*
D70*
X174490000Y-118690000D02*
X174250000Y-118690000D01*
D68*
X72696500Y-120468693D02*
X72696500Y-121543693D01*
D66*
X99358500Y-143602693D02*
X100587500Y-143602693D01*
D68*
X147898210Y-139795403D02*
X148061529Y-139795403D01*
X131921500Y-133733693D02*
X130806500Y-133733693D01*
D69*
X103105508Y-129781701D02*
X105673492Y-129781701D01*
X103095500Y-129771693D02*
X103105508Y-129781701D01*
D66*
X69861500Y-130784693D02*
X69861500Y-129408693D01*
X80546500Y-127793693D02*
X81644500Y-127793693D01*
D68*
X78346500Y-125043693D02*
X79496500Y-125043693D01*
D66*
X114796500Y-129893693D02*
X115596500Y-129093693D01*
X83801500Y-130048693D02*
X84346500Y-130593693D01*
D70*
X175840000Y-116490000D02*
X175840000Y-115145000D01*
D68*
X98171500Y-105218693D02*
X97896500Y-104943693D01*
D66*
X70246500Y-144843693D02*
X70746500Y-145343693D01*
D68*
X131196500Y-130243693D02*
X131231500Y-130243693D01*
D70*
X161720000Y-114720000D02*
X161230000Y-115210000D01*
D68*
X75396500Y-119243693D02*
X75296500Y-119143693D01*
X63696500Y-122243693D02*
X63596500Y-122143693D01*
D69*
X103095500Y-129371693D02*
X104892500Y-129371693D01*
D68*
X105708500Y-128555693D02*
X104892500Y-129371693D01*
D66*
X107793800Y-128555693D02*
X107806500Y-128568393D01*
D68*
X105835500Y-128555693D02*
X105708500Y-128555693D01*
D66*
X105835500Y-128555693D02*
X107793800Y-128555693D01*
X109536307Y-146163693D02*
X112410000Y-143290000D01*
D69*
X97145500Y-131371692D02*
X96161501Y-131371692D01*
D66*
X87707501Y-133157692D02*
X88059000Y-132806193D01*
D69*
X96161501Y-131371692D02*
X95548500Y-131984693D01*
D70*
X193200000Y-120710000D02*
X193200000Y-121970000D01*
X193200000Y-121970000D02*
X193180000Y-121990000D01*
D66*
X83096500Y-134591693D02*
X83544500Y-134143693D01*
X88059000Y-132806193D02*
X88753500Y-132111693D01*
X193180000Y-128975000D02*
X193180000Y-121990000D01*
X86756501Y-133157692D02*
X87707501Y-133157692D01*
X85896500Y-134017693D02*
X86756501Y-133157692D01*
X85416500Y-146163693D02*
X109536307Y-146163693D01*
D68*
X88059000Y-132806193D02*
X88395002Y-132806193D01*
D71*
X83544500Y-134143693D02*
X85770500Y-134143693D01*
D66*
X83096500Y-143843693D02*
X85416500Y-146163693D01*
X83096500Y-143843693D02*
X83096500Y-134591693D01*
X196305000Y-130750000D02*
X196955000Y-130100000D01*
D68*
X88395002Y-132806193D02*
X88596500Y-133007691D01*
D71*
X85770500Y-134143693D02*
X85896500Y-134017693D01*
D66*
X194955000Y-130750000D02*
X196305000Y-130750000D01*
X194955000Y-130750000D02*
X193180000Y-128975000D01*
X170175844Y-118690000D02*
X158542922Y-130322922D01*
X79096500Y-143843693D02*
X79096500Y-132241693D01*
X88441186Y-129825693D02*
X88027843Y-129412350D01*
D69*
X95664218Y-128971694D02*
X95373246Y-128680722D01*
D70*
X172890000Y-116490000D02*
X173880000Y-116490000D01*
D66*
X82296500Y-147043693D02*
X109896500Y-147043693D01*
D68*
X172840000Y-118690000D02*
X172840000Y-116540000D01*
D70*
X177200000Y-119810000D02*
X177200000Y-120710000D01*
D69*
X95664218Y-128971694D02*
X97145500Y-128971694D01*
D68*
X88027843Y-129252352D02*
X88096500Y-129183695D01*
X88027843Y-129412350D02*
X88027843Y-129252352D01*
D71*
X85516500Y-127793693D02*
X85896500Y-128173693D01*
D66*
X86789186Y-128173693D02*
X85896500Y-128173693D01*
D70*
X173880000Y-116490000D02*
X177200000Y-119810000D01*
D66*
X88027843Y-129412350D02*
X86789186Y-128173693D01*
X172840000Y-118690000D02*
X170175844Y-118690000D01*
X79096500Y-132241693D02*
X83544500Y-127793693D01*
D71*
X83544500Y-127793693D02*
X85516500Y-127793693D01*
D66*
X114296500Y-142643693D02*
X114296500Y-141340000D01*
X79096500Y-143843693D02*
X82296500Y-147043693D01*
X88753500Y-129825693D02*
X88441186Y-129825693D01*
X109896500Y-147043693D02*
X114296500Y-142643693D01*
X158915715Y-131222922D02*
X156481388Y-131222922D01*
D70*
X108756500Y-132873693D02*
X108502500Y-133127693D01*
X176700000Y-120710000D02*
X176700000Y-121252000D01*
D66*
X171395000Y-121560000D02*
X176392000Y-121560000D01*
D69*
X103095500Y-130971693D02*
X104314500Y-130971693D01*
D66*
X164894318Y-125074318D02*
X159442922Y-130525715D01*
D69*
X107403190Y-127583383D02*
X108303112Y-127583383D01*
D66*
X164894318Y-125074318D02*
X165238636Y-124730000D01*
X105125596Y-131857693D02*
X104769606Y-131501703D01*
D69*
X104589108Y-128571692D02*
X106075108Y-127085692D01*
D66*
X88756500Y-145503693D02*
X108936500Y-145503693D01*
D70*
X176700000Y-121252000D02*
X176392000Y-121560000D01*
D66*
X106488499Y-131809692D02*
X107806500Y-133127693D01*
X165238636Y-124730000D02*
X169960000Y-124730000D01*
X111757287Y-138413479D02*
X111862622Y-138518814D01*
X87096500Y-143843693D02*
X88756500Y-145503693D01*
X108796500Y-134117693D02*
X108796500Y-136169001D01*
X108936500Y-145503693D02*
X110061500Y-144378693D01*
X159442922Y-130525715D02*
X159442922Y-130695715D01*
X170365000Y-122590000D02*
X171395000Y-121560000D01*
X104769606Y-131501703D02*
X104698048Y-131430145D01*
X170062000Y-124520000D02*
X170062000Y-122893000D01*
D70*
X108756500Y-128036771D02*
X108756500Y-132873693D01*
D66*
X156481388Y-131222922D02*
X154069310Y-133635000D01*
X108796500Y-136169001D02*
X109176192Y-136548693D01*
D70*
X108502500Y-133127693D02*
X107806500Y-133127693D01*
D66*
X159442922Y-130695715D02*
X158915715Y-131222922D01*
X105446699Y-131809692D02*
X106488499Y-131809692D01*
X111757287Y-138277210D02*
X111757287Y-138413479D01*
D69*
X106075108Y-127085692D02*
X106905499Y-127085692D01*
X104314500Y-130971693D02*
X104735500Y-131392693D01*
D66*
X110061500Y-144378693D02*
X110077911Y-144378693D01*
X111866306Y-142590298D02*
X111866306Y-138522498D01*
D69*
X108303112Y-127583383D02*
X108756500Y-128036771D01*
D70*
X176700000Y-120710000D02*
X176700000Y-121360000D01*
D69*
X103095500Y-128571692D02*
X104589108Y-128571692D01*
D66*
X111866306Y-138522498D02*
X111862622Y-138518814D01*
X110077911Y-144378693D02*
X111866306Y-142590298D01*
X107806500Y-133127693D02*
X108796500Y-134117693D01*
X105125596Y-131857693D02*
X105398698Y-131857693D01*
D69*
X106905499Y-127085692D02*
X107403190Y-127583383D01*
D66*
X109176192Y-136548693D02*
X110028770Y-136548693D01*
X110028770Y-136548693D02*
X111757287Y-138277210D01*
X105398698Y-131857693D02*
X105446699Y-131809692D01*
X91852807Y-144600000D02*
X91096500Y-143843693D01*
X194120000Y-119280000D02*
X194120000Y-117970000D01*
D69*
X99920500Y-126596693D02*
X99920500Y-124664683D01*
X100720499Y-132546693D02*
X100720499Y-133854692D01*
D66*
X102406500Y-135540693D02*
X102975500Y-135540693D01*
X194120000Y-117970000D02*
X194030000Y-117880000D01*
D68*
X101009500Y-134143693D02*
X102406500Y-135540693D01*
X194030000Y-116223000D02*
X194405000Y-115848000D01*
D66*
X109823984Y-142240000D02*
X110121992Y-141941992D01*
X105319500Y-137884693D02*
X105319500Y-140960500D01*
D68*
X89846500Y-142593693D02*
X91096500Y-143843693D01*
D66*
X101136500Y-134270693D02*
X102406500Y-135540693D01*
X104184500Y-136749693D02*
X105319500Y-137884693D01*
D68*
X89096500Y-142593693D02*
X89846500Y-142593693D01*
D70*
X192700000Y-119210000D02*
X194030000Y-117880000D01*
D66*
X105319500Y-140960500D02*
X101680000Y-144600000D01*
D69*
X100720499Y-133854692D02*
X101009500Y-134143693D01*
D66*
X106599000Y-142240000D02*
X109823984Y-142240000D01*
X102975500Y-135540693D02*
X104184500Y-136749693D01*
D69*
X99920500Y-124664683D02*
X100220490Y-124364693D01*
D70*
X192700000Y-120710000D02*
X192700000Y-119210000D01*
D68*
X194030000Y-117880000D02*
X194030000Y-116223000D01*
D66*
X101680000Y-144600000D02*
X91852807Y-144600000D01*
D69*
X101009500Y-134143693D02*
X101136500Y-134270693D01*
D66*
X105319500Y-140960500D02*
X106599000Y-142240000D01*
D68*
X140571500Y-137513693D02*
X131319855Y-137513693D01*
D70*
X142646500Y-136718693D02*
X144396500Y-136718693D01*
X144396500Y-136718693D02*
X145796500Y-138118693D01*
D68*
X90248193Y-107495386D02*
X86896500Y-104143693D01*
D70*
X147471500Y-138118693D02*
X147796500Y-137793693D01*
D68*
X131319855Y-137513693D02*
X128381228Y-134575066D01*
X90248193Y-113295386D02*
X90248193Y-107495386D01*
D70*
X145796500Y-138118693D02*
X147471500Y-138118693D01*
X140571500Y-137513693D02*
X141851500Y-137513693D01*
X141851500Y-137513693D02*
X142646500Y-136718693D01*
X180540000Y-115580000D02*
X181700000Y-116740000D01*
X98171500Y-112168693D02*
X98171500Y-110691500D01*
X178540000Y-115580000D02*
X180540000Y-115580000D01*
X181700000Y-116740000D02*
X181700000Y-120710000D01*
X98171500Y-110691500D02*
X98160000Y-110680000D01*
X109316307Y-143843693D02*
X111230395Y-141929605D01*
D71*
X107370307Y-122139693D02*
X107380000Y-122130000D01*
D69*
X101520500Y-125862562D02*
X102386369Y-124996693D01*
D68*
X186280000Y-114330000D02*
X186280000Y-112780000D01*
X102724000Y-124809193D02*
X103295500Y-124237693D01*
D69*
X102536500Y-124996693D02*
X102724000Y-124809193D01*
D70*
X108183693Y-137083693D02*
X108180000Y-137080000D01*
D71*
X106216500Y-122139693D02*
X107370307Y-122139693D01*
X103518000Y-124015193D02*
X104341000Y-124015193D01*
D70*
X186700000Y-127940000D02*
X185540000Y-129100000D01*
X186700000Y-120710000D02*
X186700000Y-127940000D01*
X186700000Y-120710000D02*
X186700000Y-114750000D01*
D69*
X101520500Y-126596693D02*
X101520500Y-125862562D01*
D71*
X104341000Y-124015193D02*
X106216500Y-122139693D01*
D69*
X102724000Y-124809193D02*
X102914500Y-124618693D01*
D70*
X111230395Y-141929605D02*
X111230395Y-138982603D01*
X111230395Y-138982603D02*
X109331485Y-137083693D01*
X109331485Y-137083693D02*
X108183693Y-137083693D01*
X186700000Y-114750000D02*
X186280000Y-114330000D01*
D68*
X186280000Y-112780000D02*
X186630000Y-112430000D01*
D70*
X105096500Y-143843693D02*
X109316307Y-143843693D01*
D66*
X102914500Y-124618693D02*
X103518000Y-124015193D01*
D69*
X102386369Y-124996693D02*
X102536500Y-124996693D01*
D70*
X111015815Y-106665815D02*
X110227936Y-107453693D01*
X189700000Y-112310000D02*
X180977699Y-103587699D01*
X111015815Y-105416934D02*
X111015815Y-106665815D01*
X110227936Y-107453693D02*
X110222394Y-107453693D01*
X180977699Y-103587699D02*
X138869732Y-103587699D01*
X99296500Y-110643693D02*
X98821500Y-111118693D01*
X98821500Y-111118693D02*
X98821500Y-112168693D01*
X189700000Y-120710000D02*
X189700000Y-112310000D01*
X136675589Y-101393556D02*
X115039193Y-101393556D01*
X115039193Y-101393556D02*
X111015815Y-105416934D01*
X110222394Y-107453693D02*
X109992394Y-107683693D01*
X138869732Y-103587699D02*
X136675589Y-101393556D01*
X103656500Y-107683693D02*
X102996500Y-108343693D01*
X109992394Y-107683693D02*
X103656500Y-107683693D01*
D66*
X104057500Y-132238693D02*
X107232500Y-135413693D01*
X107232500Y-135413693D02*
X107806500Y-135413693D01*
D69*
X103590501Y-131771694D02*
X104057500Y-132238693D01*
X103095500Y-131771694D02*
X103590501Y-131771694D01*
D70*
X111737000Y-116243693D02*
X112137000Y-116643693D01*
X113216672Y-116643693D02*
X117862469Y-121289490D01*
X111737000Y-116243693D02*
X111737000Y-116084193D01*
X117862469Y-126109662D02*
X121096500Y-129343693D01*
X121926500Y-134973693D02*
X123071500Y-134973693D01*
X112137000Y-116643693D02*
X113216672Y-116643693D01*
X111737000Y-116084193D02*
X111696500Y-116043693D01*
X77496500Y-107343693D02*
X77521500Y-107368693D01*
X74896500Y-107343693D02*
X77496500Y-107343693D01*
X117862469Y-121289490D02*
X117862469Y-126109662D01*
X121096500Y-134143693D02*
X121926500Y-134973693D01*
X121096500Y-129343693D02*
X121096500Y-134143693D01*
X77516500Y-108643693D02*
X77521500Y-108638693D01*
X117452469Y-121499662D02*
X113196500Y-117243693D01*
X123071500Y-136243693D02*
X122071500Y-136243693D01*
X111496500Y-117243693D02*
X110896500Y-116643693D01*
X117452469Y-126299662D02*
X117452469Y-121499662D01*
X75696500Y-108643693D02*
X77516500Y-108643693D01*
X120596500Y-134768693D02*
X120596500Y-129443693D01*
X113196500Y-117243693D02*
X111496500Y-117243693D01*
X120596500Y-129443693D02*
X117452469Y-126299662D01*
X122071500Y-136243693D02*
X120596500Y-134768693D01*
D71*
X85896500Y-124873693D02*
X88436500Y-124873693D01*
X88436500Y-124873693D02*
X89011500Y-124873693D01*
X89011500Y-124873693D02*
X90534500Y-126396693D01*
D69*
X102288368Y-134016693D02*
X103421370Y-134016693D01*
X103421370Y-134016693D02*
X104172435Y-134767758D01*
D66*
X179170000Y-128500000D02*
X179170000Y-122140000D01*
X174752078Y-132917922D02*
X179170000Y-128500000D01*
X106196500Y-138721763D02*
X106196500Y-136791823D01*
X106680030Y-139205293D02*
X106196500Y-138721763D01*
X110545395Y-139593693D02*
X110156995Y-139205293D01*
X155947922Y-132917922D02*
X174752078Y-132917922D01*
D69*
X101520500Y-133248825D02*
X102288368Y-134016693D01*
X101520500Y-132546693D02*
X101520500Y-133248825D01*
D70*
X179200000Y-120710000D02*
X179200000Y-122110000D01*
D66*
X106196500Y-136791823D02*
X104172435Y-134767758D01*
X110156995Y-139205293D02*
X106680030Y-139205293D01*
D70*
X87846500Y-107993693D02*
X87596500Y-108243693D01*
X82471500Y-108638693D02*
X84091500Y-108638693D01*
X87846500Y-106568693D02*
X87846500Y-107993693D01*
X86911500Y-108928693D02*
X87596500Y-108243693D01*
X84091500Y-108638693D02*
X84381500Y-108928693D01*
X84381500Y-108928693D02*
X86911500Y-108928693D01*
D69*
X95690047Y-128020721D02*
X96241018Y-128571692D01*
X95167500Y-127793693D02*
X95394528Y-128020721D01*
D66*
X93770500Y-126396693D02*
X92434500Y-126396693D01*
D69*
X95394528Y-128020721D02*
X95690047Y-128020721D01*
D66*
X95167500Y-127793693D02*
X93770500Y-126396693D01*
D69*
X96241018Y-128571692D02*
X97145500Y-128571692D01*
D70*
X85981500Y-109908693D02*
X85996500Y-109893693D01*
X82471500Y-109908693D02*
X85981500Y-109908693D01*
X85996500Y-109893693D02*
X85996500Y-111393693D01*
X85996500Y-111393693D02*
X85846500Y-111543693D01*
X122151500Y-109468693D02*
X122151500Y-106648693D01*
X123396500Y-106293693D02*
X121796500Y-106293693D01*
X121796500Y-106293693D02*
X121396500Y-105893693D01*
X122151500Y-106648693D02*
X121396500Y-105893693D01*
D66*
X69016500Y-141043693D02*
X67717500Y-139744693D01*
X67296500Y-133163693D02*
X67296500Y-134889693D01*
X67717500Y-139744693D02*
X65795500Y-139744693D01*
X62296500Y-126743693D02*
X62296500Y-128163693D01*
X67296500Y-134889693D02*
X68591500Y-136184693D01*
X62296500Y-128163693D02*
X67296500Y-133163693D01*
X65696500Y-139843693D02*
X65696500Y-138408693D01*
X69696500Y-141043693D02*
X69016500Y-141043693D01*
X67717500Y-137058693D02*
X67717500Y-139744693D01*
X67984000Y-125793693D02*
X63246500Y-125793693D01*
X65696500Y-138408693D02*
X62446500Y-135158693D01*
X65795500Y-139744693D02*
X65696500Y-139843693D01*
X63246500Y-125793693D02*
X62296500Y-126743693D01*
X68591500Y-136184693D02*
X67717500Y-137058693D01*
X66821500Y-124131193D02*
X66109000Y-124843693D01*
X70746500Y-111193693D02*
X70796500Y-111143693D01*
X76446500Y-125043693D02*
X76446500Y-123931193D01*
X70796500Y-122893693D02*
X75409000Y-122893693D01*
X76446500Y-123931193D02*
X75409000Y-122893693D01*
X70796500Y-116143693D02*
X70796500Y-122893693D01*
X68281500Y-116093693D02*
X70746500Y-116093693D01*
D68*
X75429174Y-112343693D02*
X75562837Y-112210030D01*
D66*
X64146500Y-124843693D02*
X63596500Y-124293693D01*
X66109000Y-124843693D02*
X64146500Y-124843693D01*
X75409000Y-122893693D02*
X76159000Y-122143693D01*
X70796500Y-122893693D02*
X66821500Y-122893693D01*
X70746500Y-116093693D02*
X70796500Y-116143693D01*
X66821500Y-122893693D02*
X66171500Y-122243693D01*
D68*
X74421500Y-112343693D02*
X75429174Y-112343693D01*
D66*
X68281500Y-111193693D02*
X70746500Y-111193693D01*
X66821500Y-122893693D02*
X66821500Y-124131193D01*
D70*
X116146500Y-139643693D02*
X116146500Y-142333693D01*
D68*
X70730440Y-144008136D02*
X70730440Y-143977633D01*
D66*
X69621500Y-143018693D02*
X69696500Y-142943693D01*
X67717500Y-143018693D02*
X67717500Y-141394693D01*
D68*
X113836500Y-144643693D02*
X116146500Y-142333693D01*
D70*
X115868500Y-139365693D02*
X116146500Y-139643693D01*
D66*
X67717500Y-143018693D02*
X69621500Y-143018693D01*
D68*
X70730440Y-143977633D02*
X69696500Y-142943693D01*
D71*
X90534500Y-135219693D02*
X88436500Y-137317693D01*
X85896500Y-137317693D02*
X88436500Y-137317693D01*
X90534500Y-134016693D02*
X90534500Y-135219693D01*
D66*
X78246500Y-118093693D02*
X79996500Y-116343693D01*
X77521500Y-109908693D02*
X79931500Y-109908693D01*
X79996500Y-109843693D02*
X79996500Y-107043693D01*
X78434000Y-121193693D02*
X78434000Y-119431193D01*
X80941500Y-106098693D02*
X82471500Y-106098693D01*
X78246500Y-118093693D02*
X75996500Y-115843693D01*
X79996500Y-107043693D02*
X80941500Y-106098693D01*
X75996500Y-115843693D02*
X74446500Y-115843693D01*
X79996500Y-116343693D02*
X79996500Y-109843693D01*
X79931500Y-109908693D02*
X79996500Y-109843693D01*
X78246500Y-119243693D02*
X78246500Y-118093693D01*
X78434000Y-119431193D02*
X78246500Y-119243693D01*
D68*
X95695099Y-132854094D02*
X95655901Y-132854094D01*
D66*
X92434500Y-134016693D02*
X93897500Y-134016693D01*
D69*
X96523499Y-131771694D02*
X96208501Y-132086692D01*
X97145500Y-131771694D02*
X96523499Y-131771694D01*
D68*
X96208501Y-132340692D02*
X95695099Y-132854094D01*
D66*
X93897500Y-134016693D02*
X95060099Y-132854094D01*
D68*
X96208501Y-132301494D02*
X96208501Y-132340692D01*
D66*
X95060099Y-132854094D02*
X95655901Y-132854094D01*
D69*
X96208501Y-132086692D02*
X96208501Y-132301494D01*
D66*
X94723000Y-135223193D02*
X95802500Y-134143693D01*
D69*
X102025500Y-136048693D02*
X102025500Y-136749693D01*
X100320500Y-134343693D02*
X102025500Y-136048693D01*
X97793499Y-133594692D02*
X97602999Y-133785192D01*
D66*
X97793499Y-133676694D02*
X97793499Y-133594692D01*
X97326500Y-134143693D02*
X97517000Y-133953193D01*
D67*
X101578500Y-136749693D02*
X102025500Y-136749693D01*
D66*
X91738500Y-136048693D02*
X92564000Y-135223193D01*
D71*
X98597500Y-139096693D02*
X99485500Y-139984693D01*
X99231500Y-139096693D02*
X99485500Y-138842693D01*
D67*
X99485500Y-138842693D02*
X101578500Y-136749693D01*
D69*
X97602999Y-133785192D02*
X97498498Y-133889693D01*
D71*
X93317499Y-138328692D02*
X93317499Y-138724694D01*
D66*
X97517000Y-133953193D02*
X97793499Y-133676694D01*
D71*
X91738500Y-136749693D02*
X93317499Y-138328692D01*
D69*
X97920499Y-132546693D02*
X97920499Y-133467692D01*
D67*
X99485500Y-139984693D02*
X99485500Y-138842693D01*
D66*
X91738500Y-136749693D02*
X91738500Y-136048693D01*
X92564000Y-135223193D02*
X94723000Y-135223193D01*
D69*
X99920500Y-134451693D02*
X102025500Y-136556693D01*
X97920499Y-133467692D02*
X97793499Y-133594692D01*
D71*
X93317499Y-138724694D02*
X93689498Y-139096693D01*
D69*
X102025500Y-136556693D02*
X102025500Y-136749693D01*
D66*
X95802500Y-134143693D02*
X97326500Y-134143693D01*
D69*
X100320500Y-132546693D02*
X100320500Y-134343693D01*
D71*
X93689498Y-139096693D02*
X98597500Y-139096693D01*
D69*
X99920500Y-132546693D02*
X99920500Y-134451693D01*
D71*
X98597500Y-139096693D02*
X99231500Y-139096693D01*
D66*
X92434500Y-131857693D02*
X94476698Y-131857693D01*
D69*
X97145500Y-130971693D02*
X95545500Y-130971693D01*
D66*
X88875102Y-134017693D02*
X90154092Y-132738703D01*
X88436500Y-134017693D02*
X88875102Y-134017693D01*
D69*
X95545500Y-130971693D02*
X95167500Y-131349693D01*
X95258901Y-131258292D02*
X95545500Y-130971693D01*
D68*
X94659500Y-131857693D02*
X95167500Y-131349693D01*
D66*
X91299490Y-132738703D02*
X92434500Y-131603693D01*
D68*
X92434500Y-131857693D02*
X94659500Y-131857693D01*
D66*
X90154092Y-132738703D02*
X91299490Y-132738703D01*
D69*
X94967500Y-129371693D02*
X94659500Y-129063693D01*
D66*
X89078490Y-127531703D02*
X88935510Y-127674683D01*
X88436500Y-128173693D02*
X88935510Y-127674683D01*
X91156510Y-127531703D02*
X89078490Y-127531703D01*
D69*
X94967500Y-129371693D02*
X97145500Y-129371693D01*
D66*
X94151500Y-128555693D02*
X94659500Y-129063693D01*
X92434500Y-128555693D02*
X94151500Y-128555693D01*
X92434500Y-128809693D02*
X91156510Y-127531703D01*
D70*
X190700000Y-118370000D02*
X190950000Y-118120000D01*
X124836500Y-120483672D02*
X137122172Y-108198000D01*
X124836500Y-122293693D02*
X124836500Y-120483672D01*
X137122172Y-108198000D02*
X184318000Y-108198000D01*
X190700000Y-120710000D02*
X190700000Y-118370000D01*
X184318000Y-108198000D02*
X186180000Y-110060000D01*
D68*
X102608501Y-124107532D02*
X102608501Y-123019692D01*
D70*
X98977500Y-125380693D02*
X98977500Y-124237693D01*
D68*
X96145949Y-127771694D02*
X96216660Y-127771694D01*
D69*
X101120501Y-130571694D02*
X100120500Y-129571693D01*
D66*
X98977500Y-124872693D02*
X98977500Y-123983693D01*
D69*
X98720500Y-126596693D02*
X98720500Y-128171693D01*
X97145500Y-128171693D02*
X96616659Y-128171693D01*
X96616659Y-128171693D02*
X96216660Y-127771694D01*
X104819500Y-130587693D02*
X105073500Y-130841693D01*
D68*
X101898500Y-124817533D02*
X102608501Y-124107532D01*
D67*
X99550500Y-122139693D02*
X99358500Y-122331693D01*
D70*
X98720500Y-125885693D02*
X98720500Y-126596693D01*
D71*
X103636500Y-122794693D02*
X103636500Y-122433693D01*
D69*
X103533501Y-130571694D02*
X103549500Y-130587693D01*
D70*
X100120500Y-129571693D02*
X98545700Y-127996893D01*
D71*
X98977500Y-123475693D02*
X98977500Y-122712693D01*
D69*
X103095500Y-130571694D02*
X103533501Y-130571694D01*
X98977500Y-124237693D02*
X98977500Y-123983693D01*
D67*
X102467500Y-122139693D02*
X103930500Y-122139693D01*
D69*
X101120501Y-126596693D02*
X101120501Y-125650692D01*
D70*
X98720500Y-125637693D02*
X98720500Y-125885693D01*
D69*
X98320501Y-127771694D02*
X100120500Y-129571693D01*
D67*
X101644500Y-122139693D02*
X99550500Y-122139693D01*
D68*
X95422757Y-127048502D02*
X96145949Y-127771694D01*
D69*
X98720500Y-128171693D02*
X100120500Y-129571693D01*
D68*
X102608501Y-122280694D02*
X102467500Y-122139693D01*
X101898500Y-124872693D02*
X101898500Y-124817533D01*
D70*
X101120501Y-128571692D02*
X100120500Y-129571693D01*
D66*
X107806500Y-130841693D02*
X105042991Y-130841693D01*
X102608501Y-123019692D02*
X102608501Y-122280694D01*
D69*
X97145500Y-127771694D02*
X96216660Y-127771694D01*
D68*
X95422757Y-126903436D02*
X95422757Y-127048502D01*
D71*
X103930500Y-121927693D02*
X103346500Y-121343693D01*
D69*
X98977500Y-123983693D02*
X98977500Y-123856693D01*
X98977500Y-124743640D02*
X98977500Y-124364693D01*
X98977500Y-124364693D02*
X98977500Y-124237693D01*
D68*
X98977500Y-124364693D02*
X98977500Y-123475693D01*
D69*
X98977500Y-125380693D02*
X98977500Y-124743640D01*
D66*
X105042991Y-130841693D02*
X106089500Y-130841693D01*
X98977500Y-125380693D02*
X98977500Y-124872693D01*
X98977500Y-123983693D02*
X98977500Y-122712693D01*
D71*
X98977500Y-122712693D02*
X99358500Y-122331693D01*
D70*
X98720500Y-125637693D02*
X98977500Y-125380693D01*
D69*
X103549500Y-130587693D02*
X104819500Y-130587693D01*
D66*
X105042991Y-130841693D02*
X104883000Y-130681702D01*
D69*
X101120501Y-125650692D02*
X101898500Y-124872693D01*
D71*
X103930500Y-122139693D02*
X103930500Y-121927693D01*
X103636500Y-122433693D02*
X103930500Y-122139693D01*
D67*
X101644500Y-122139693D02*
X102467500Y-122139693D01*
D70*
X118496500Y-106293693D02*
X118896500Y-105893693D01*
X116896500Y-106293693D02*
X118496500Y-106293693D01*
X120881500Y-107878693D02*
X118896500Y-105893693D01*
X120881500Y-109468693D02*
X120881500Y-107878693D01*
D67*
X92754500Y-122677693D02*
X93552500Y-122677693D01*
X94024500Y-122205693D02*
X94024500Y-121697693D01*
D70*
X97145500Y-127371692D02*
X96396499Y-127371692D01*
D67*
X92754500Y-122677693D02*
X93806500Y-122677693D01*
D66*
X96183500Y-126523693D02*
X96183500Y-125634693D01*
D67*
X93552500Y-122677693D02*
X94024500Y-122205693D01*
D71*
X93226500Y-122677693D02*
X92754500Y-122677693D01*
X96183500Y-125634693D02*
X93226500Y-122677693D01*
D67*
X92754500Y-122677693D02*
X93480500Y-122677693D01*
D68*
X96183500Y-127158693D02*
X96183500Y-126523693D01*
D70*
X96396499Y-127371692D02*
X96183500Y-127158693D01*
D67*
X96690500Y-119031693D02*
X99358500Y-119031693D01*
X94024500Y-121697693D02*
X96690500Y-119031693D01*
D68*
X99120499Y-133492694D02*
X98977500Y-133635693D01*
D67*
X97072500Y-135677693D02*
X98478500Y-135677693D01*
D68*
X99120499Y-133365694D02*
X99120499Y-133492694D01*
D71*
X98478500Y-134134693D02*
X98478500Y-134896693D01*
D67*
X99120499Y-136319692D02*
X99485500Y-136684693D01*
D66*
X98231499Y-135430692D02*
X98478500Y-135677693D01*
D71*
X97072500Y-135677693D02*
X97697500Y-135677693D01*
D68*
X98977500Y-133635693D02*
X98850500Y-133762693D01*
D67*
X95802500Y-137196693D02*
X95802500Y-136947693D01*
D71*
X98478500Y-134896693D02*
X98478500Y-135677693D01*
D66*
X98850500Y-133762693D02*
X98478500Y-134134693D01*
D67*
X95802500Y-136947693D02*
X97072500Y-135677693D01*
X98478500Y-135677693D02*
X99485500Y-136684693D01*
D71*
X97697500Y-135677693D02*
X98478500Y-134896693D01*
D69*
X99120499Y-132546693D02*
X99120499Y-133365694D01*
D66*
X72246500Y-141168693D02*
X72246500Y-142900693D01*
X72246500Y-142900693D02*
X72141500Y-143005693D01*
X74554500Y-144880693D02*
X72141500Y-144880693D01*
X74055500Y-136184693D02*
X72401500Y-136184693D01*
X68591500Y-128398693D02*
X70796500Y-126193693D01*
X75296500Y-129593693D02*
X75296500Y-134943693D01*
X76096500Y-135743693D02*
X75296500Y-134943693D01*
X74554500Y-144880693D02*
X76096500Y-143338693D01*
X75296500Y-134943693D02*
X74055500Y-136184693D01*
X76096500Y-143338693D02*
X76096500Y-135743693D01*
X71896500Y-126193693D02*
X75296500Y-129593693D01*
X70796500Y-126193693D02*
X71896500Y-126193693D01*
X68591500Y-130784693D02*
X68591500Y-128398693D01*
X74554500Y-141168693D02*
X74554500Y-143005693D01*
D68*
X70286500Y-111853693D02*
X71090592Y-111853693D01*
X68281500Y-112393693D02*
X69746500Y-112393693D01*
X69746500Y-112393693D02*
X70286500Y-111853693D01*
X72696500Y-110247785D02*
X72696500Y-109168693D01*
X71090592Y-111853693D02*
X72696500Y-110247785D01*
X71050592Y-115393693D02*
X71596500Y-115939601D01*
X71596500Y-117718693D02*
X72696500Y-118818693D01*
X71596500Y-115939601D02*
X71596500Y-117718693D01*
X68281500Y-115393693D02*
X71050592Y-115393693D01*
D70*
X106896500Y-110743693D02*
X106996500Y-110843693D01*
X108171500Y-111943693D02*
X108096500Y-111943693D01*
X112196500Y-114443693D02*
X112096500Y-114443693D01*
X112096500Y-114443693D02*
X110356500Y-112703693D01*
X105096500Y-110743693D02*
X104671500Y-111168693D01*
X112296500Y-114443693D02*
X116111500Y-118258693D01*
X107196500Y-101543693D02*
X107096500Y-101443693D01*
X108931500Y-112703693D02*
X108171500Y-111943693D01*
X106896500Y-110743693D02*
X105096500Y-110743693D01*
X118682469Y-125529662D02*
X122036500Y-128883693D01*
X118686500Y-120833693D02*
X118686500Y-123243050D01*
X122036500Y-129358693D02*
X122571500Y-129893693D01*
D69*
X104694807Y-112192000D02*
X104671500Y-112168693D01*
X100320500Y-125319693D02*
X100320500Y-126596693D01*
X100924161Y-123571352D02*
X100896500Y-123599013D01*
X104694807Y-114345386D02*
X104694807Y-112192000D01*
D70*
X124933499Y-98836501D02*
X146900000Y-76870000D01*
D69*
X100896500Y-123599013D02*
X100896500Y-124743693D01*
D70*
X122036500Y-128883693D02*
X122036500Y-129358693D01*
X107096500Y-101443693D02*
X109703692Y-98836501D01*
X110356500Y-112703693D02*
X108931500Y-112703693D01*
X146900000Y-76870000D02*
X146900000Y-70240000D01*
X116111500Y-118327430D02*
X116512763Y-118728693D01*
X107196500Y-105643693D02*
X107196500Y-101543693D01*
X118316500Y-114443693D02*
X118341500Y-114418693D01*
X116512763Y-118728693D02*
X116581500Y-118728693D01*
X112196500Y-114443693D02*
X118316500Y-114443693D01*
X104671500Y-111168693D02*
X104671500Y-112168693D01*
X116581500Y-118728693D02*
X118686500Y-120833693D01*
X112196500Y-114443693D02*
X112296500Y-114443693D01*
X122571500Y-129893693D02*
X123071500Y-129893693D01*
D69*
X100896500Y-124743693D02*
X100320500Y-125319693D01*
D70*
X108096500Y-111943693D02*
X106996500Y-110843693D01*
X109703692Y-98836501D02*
X124933499Y-98836501D01*
X118682469Y-123247081D02*
X118682469Y-125529662D01*
X118686500Y-123243050D02*
X118682469Y-123247081D01*
X116111500Y-118258693D02*
X116111500Y-118327430D01*
D69*
X101357442Y-124904635D02*
X100720499Y-125541578D01*
D70*
X148140000Y-68870000D02*
X149180000Y-68870000D01*
X119611500Y-114418693D02*
X119611500Y-114098510D01*
X147400126Y-70240000D02*
X147400126Y-69609874D01*
X121626499Y-130218692D02*
X121626499Y-129273692D01*
X119611500Y-114418693D02*
X119611500Y-115393692D01*
D69*
X104021500Y-115268693D02*
X104096500Y-115343693D01*
D70*
X149310000Y-69000000D02*
X149310000Y-93980000D01*
X126617699Y-117250000D02*
X139505000Y-104362699D01*
X102046500Y-108543693D02*
X98896500Y-108543693D01*
X119611500Y-114098510D02*
X117356683Y-111843693D01*
X104396500Y-110143693D02*
X108171500Y-110143693D01*
X119611500Y-115393692D02*
X121467808Y-117250000D01*
X117356683Y-111843693D02*
X112896500Y-111843693D01*
X104021500Y-110518693D02*
X104396500Y-110143693D01*
X149310000Y-93980000D02*
X140970000Y-102320000D01*
D69*
X100720499Y-125541578D02*
X100720499Y-126596693D01*
D70*
X121626499Y-129273692D02*
X118272469Y-125919662D01*
X122571500Y-131163693D02*
X121626499Y-130218692D01*
X108931500Y-110903693D02*
X108171500Y-110143693D01*
D69*
X101357442Y-124070746D02*
X101357442Y-124904635D01*
D70*
X118272469Y-125919662D02*
X118272469Y-123077253D01*
X112896500Y-111843693D02*
X111956500Y-110903693D01*
X118276500Y-123073222D02*
X118276500Y-121123693D01*
X82531500Y-100043693D02*
X77675000Y-95187193D01*
X121467808Y-117250000D02*
X126617699Y-117250000D01*
X90396500Y-100043693D02*
X82531500Y-100043693D01*
X149180000Y-68870000D02*
X149310000Y-69000000D01*
X98896500Y-108543693D02*
X90396500Y-100043693D01*
X77675000Y-95187193D02*
X77675000Y-46650000D01*
X118276500Y-121123693D02*
X112496500Y-115343693D01*
X147400126Y-69609874D02*
X148140000Y-68870000D01*
X112496500Y-115343693D02*
X104096500Y-115343693D01*
X140970000Y-102320000D02*
X140970000Y-102390000D01*
X104021500Y-110518693D02*
X102046500Y-108543693D01*
X123071500Y-131163693D02*
X122571500Y-131163693D01*
D69*
X104021500Y-112168693D02*
X104021500Y-115268693D01*
X101891748Y-123536440D02*
X101357442Y-124070746D01*
D70*
X111956500Y-110903693D02*
X108931500Y-110903693D01*
X104021500Y-110918693D02*
X104021500Y-110518693D01*
X104021500Y-110918693D02*
X104021500Y-112168693D01*
X118272469Y-123077253D02*
X118276500Y-123073222D01*
D69*
X102096500Y-114143693D02*
X102096500Y-112790310D01*
D70*
X101396500Y-109943693D02*
X95321500Y-109943693D01*
X102071500Y-110618693D02*
X101396500Y-109943693D01*
D69*
X98330500Y-126586694D02*
X98330500Y-122523136D01*
X102071500Y-112765310D02*
X102071500Y-112168693D01*
X98330500Y-122523136D02*
X98024294Y-122216930D01*
X102096500Y-112790310D02*
X102071500Y-112765310D01*
X98320501Y-126596693D02*
X98330500Y-126586694D01*
D70*
X102071500Y-112168693D02*
X102071500Y-110618693D01*
X105303691Y-116028693D02*
X103812763Y-116028693D01*
D69*
X103918347Y-131371692D02*
X105290348Y-132743693D01*
D70*
X101586500Y-109533693D02*
X96511500Y-109533693D01*
X102781500Y-112228693D02*
X102721500Y-112168693D01*
X103812763Y-116028693D02*
X102781500Y-114997430D01*
X102721500Y-112168693D02*
X102721500Y-110668693D01*
X102721500Y-110668693D02*
X101586500Y-109533693D01*
X102781500Y-114997430D02*
X102781500Y-112228693D01*
D69*
X103095500Y-131371692D02*
X103918347Y-131371692D01*
X105290348Y-132743693D02*
X106196500Y-132743693D01*
D70*
X96511500Y-109533693D02*
X95321500Y-108343693D01*
X105610156Y-116335158D02*
X105303691Y-116028693D01*
X125396500Y-124943693D02*
X126086500Y-124253693D01*
X126086500Y-124253693D02*
X138086500Y-124253693D01*
X145080000Y-65120000D02*
X113500000Y-65120000D01*
X106720000Y-58340000D02*
X106720000Y-46650000D01*
X146420252Y-66460252D02*
X146399874Y-66480630D01*
X120500000Y-72120000D02*
X113500000Y-65120000D01*
X146399874Y-66480630D02*
X146399874Y-70240000D01*
X146399874Y-75325126D02*
X146075000Y-75650000D01*
X146399874Y-70240000D02*
X146399874Y-75325126D01*
X138806500Y-123533693D02*
X138806500Y-122293693D01*
X138086500Y-124253693D02*
X138806500Y-123533693D01*
X113500000Y-65120000D02*
X106720000Y-58340000D01*
X145080000Y-65120000D02*
X146420252Y-66460252D01*
X120500000Y-97750000D02*
X120500000Y-72120000D01*
X108171500Y-106693693D02*
X105571500Y-106693693D01*
X108171500Y-106693693D02*
X108171500Y-105223318D01*
X108171500Y-105223318D02*
X113884818Y-99510000D01*
X113884818Y-99510000D02*
X115638557Y-99510000D01*
X122676500Y-128623693D02*
X123071500Y-128623693D01*
X119092470Y-123416908D02*
X119092470Y-125039663D01*
X119096500Y-120343693D02*
X119096500Y-123412878D01*
X119092470Y-125039663D02*
X122676500Y-128623693D01*
X105571500Y-106693693D02*
X105321500Y-106443693D01*
X116796500Y-118043693D02*
X119096500Y-120343693D01*
X119096500Y-123412878D02*
X119092470Y-123416908D01*
D69*
X106578374Y-130171692D02*
X107064129Y-129685937D01*
X103863119Y-116843693D02*
X101421500Y-114402074D01*
X104796500Y-116843693D02*
X103863119Y-116843693D01*
X101421500Y-114402074D02*
X101421500Y-112168693D01*
X103095500Y-130171692D02*
X106578374Y-130171692D01*
X105296500Y-126043693D02*
X106010830Y-125329363D01*
X103768501Y-127371692D02*
X103968501Y-127371692D01*
X100771500Y-114318693D02*
X100771500Y-112168693D01*
X103996500Y-117543693D02*
X100771500Y-114318693D01*
X103095500Y-127371692D02*
X103768501Y-127371692D01*
X106010830Y-125329363D02*
X106293592Y-125329363D01*
X103968501Y-127371692D02*
X105296500Y-126043693D01*
X99105500Y-125973942D02*
X99560490Y-125518952D01*
X99560490Y-123850063D02*
X99972856Y-123437697D01*
X100096500Y-114843693D02*
X100096500Y-112193693D01*
X99560490Y-125518952D02*
X99560490Y-123850063D01*
X99105500Y-126581694D02*
X99105500Y-125973942D01*
X99120499Y-126596693D02*
X99105500Y-126581694D01*
X100096500Y-112193693D02*
X100121500Y-112168693D01*
D66*
X163295000Y-93210000D02*
X163305000Y-93200000D01*
X96096500Y-123093693D02*
X96846500Y-122343693D01*
X66109000Y-126743693D02*
X64446500Y-126743693D01*
X86846500Y-120293693D02*
X86846500Y-121093693D01*
X106286500Y-105853693D02*
X106196500Y-105943693D01*
X158030000Y-102390000D02*
X158060000Y-102390000D01*
D71*
X112946500Y-124393693D02*
X112946500Y-125606193D01*
X112096500Y-121843693D02*
X108596500Y-121843693D01*
D66*
X114138460Y-124393693D02*
X112946500Y-124393693D01*
X95846500Y-122343693D02*
X95846500Y-122843693D01*
D71*
X96818500Y-123155693D02*
X96818500Y-124491693D01*
D70*
X104060500Y-128171693D02*
X104311500Y-127920693D01*
D71*
X108596500Y-121843693D02*
X108596500Y-123193693D01*
D66*
X107806500Y-126269693D02*
X106484444Y-126269693D01*
X107188759Y-123290140D02*
X107188759Y-123365952D01*
X95596500Y-123093693D02*
X96096500Y-123093693D01*
X114846500Y-125101733D02*
X114138460Y-124393693D01*
X73296500Y-124943693D02*
X75146500Y-126793693D01*
X106286500Y-99899896D02*
X101640000Y-95253396D01*
X158060000Y-102390000D02*
X161607650Y-98842350D01*
X69496500Y-125443693D02*
X69996500Y-124943693D01*
D68*
X97920499Y-125593692D02*
X97580500Y-125253693D01*
D66*
X85546500Y-120293693D02*
X86846500Y-120293693D01*
X95658500Y-123155693D02*
X95596500Y-123093693D01*
X108996500Y-121443693D02*
X108596500Y-121843693D01*
X96818500Y-123155693D02*
X95658500Y-123155693D01*
X66109000Y-126743693D02*
X68796500Y-126743693D01*
D71*
X99358500Y-141702693D02*
X96508500Y-141702693D01*
D66*
X69496500Y-126043693D02*
X69496500Y-125443693D01*
D70*
X103095500Y-128171693D02*
X104060500Y-128171693D01*
D66*
X161607650Y-98842350D02*
X161607650Y-98640000D01*
X96818500Y-122371693D02*
X96846500Y-122343693D01*
X86846500Y-121093693D02*
X87096500Y-121343693D01*
X114846500Y-125606193D02*
X114846500Y-125101733D01*
D70*
X97920499Y-126596693D02*
X97920499Y-125720692D01*
D71*
X96818500Y-124491693D02*
X97326500Y-124999693D01*
D66*
X105962500Y-126269693D02*
X107806500Y-126269693D01*
X101640000Y-95253396D02*
X101640000Y-46650000D01*
X75146500Y-126793693D02*
X79046500Y-126793693D01*
X160100000Y-93210000D02*
X163295000Y-93210000D01*
D71*
X108596500Y-123193693D02*
X107806500Y-123983693D01*
D66*
X86846500Y-120293693D02*
X87546500Y-120293693D01*
X108996500Y-116543693D02*
X108996500Y-121443693D01*
X79046500Y-126793693D02*
X85546500Y-120293693D01*
X95846500Y-122343693D02*
X96846500Y-122343693D01*
D71*
X112946500Y-123243693D02*
X112946500Y-122693693D01*
X96508500Y-141702693D02*
X95802500Y-140996693D01*
X100487500Y-141702693D02*
X100596500Y-141593693D01*
D66*
X107806500Y-126269693D02*
X107806500Y-123983693D01*
X96658500Y-123155693D02*
X95846500Y-122343693D01*
X64446500Y-126743693D02*
X63596500Y-127593693D01*
X161607650Y-98640000D02*
X161607650Y-94234851D01*
X104565500Y-127666693D02*
X105962500Y-126269693D01*
D71*
X112946500Y-122693693D02*
X112096500Y-121843693D01*
D66*
X162642501Y-93200000D02*
X163305000Y-93200000D01*
X68796500Y-126743693D02*
X69496500Y-126043693D01*
X96818500Y-123155693D02*
X96658500Y-123155693D01*
X69996500Y-124943693D02*
X73296500Y-124943693D01*
X97580500Y-125253693D02*
X97326500Y-124999693D01*
X161607650Y-94234851D02*
X162642501Y-93200000D01*
X96818500Y-123155693D02*
X96818500Y-122371693D01*
X87546500Y-120293693D02*
X88096500Y-120843693D01*
D70*
X97920499Y-125720692D02*
X97920499Y-125593692D01*
D71*
X99358500Y-141702693D02*
X100487500Y-141702693D01*
X112946500Y-123243693D02*
X112946500Y-124393693D01*
D66*
X95846500Y-122843693D02*
X95596500Y-123093693D01*
X106286500Y-99899896D02*
X106286500Y-105853693D01*
X107188759Y-123365952D02*
X107806500Y-123983693D01*
D70*
X104311500Y-127920693D02*
X104565500Y-127666693D01*
D69*
X76244500Y-111791693D02*
X75482500Y-111029693D01*
X72646500Y-111806193D02*
X74346500Y-111806193D01*
X66296500Y-113543693D02*
X66646500Y-113893693D01*
X66646500Y-112893693D02*
X66296500Y-113243693D01*
X70456328Y-112263693D02*
X71260420Y-112263693D01*
X75123000Y-111029693D02*
X74346500Y-111806193D01*
X66296500Y-113243693D02*
X66296500Y-113543693D01*
X68281500Y-112893693D02*
X66646500Y-112893693D01*
X71260420Y-112263693D02*
X71717920Y-111806193D01*
X69826328Y-112893693D02*
X70456328Y-112263693D01*
X75482500Y-111029693D02*
X75123000Y-111029693D01*
X77521500Y-112448693D02*
X76864500Y-111791693D01*
X76864500Y-111791693D02*
X76244500Y-111791693D01*
X68281500Y-112893693D02*
X69826328Y-112893693D01*
X66646500Y-113893693D02*
X68281500Y-113893693D01*
X71717920Y-111806193D02*
X72646500Y-111806193D01*
X72134000Y-113393693D02*
X71134000Y-114393693D01*
X78516328Y-113008693D02*
X79038500Y-112486521D01*
X72134000Y-113393693D02*
X72646500Y-112881193D01*
X78425500Y-111178693D02*
X79038500Y-111791693D01*
X74474000Y-113008693D02*
X78516328Y-113008693D01*
X68281500Y-113393693D02*
X72134000Y-113393693D01*
X71134000Y-114393693D02*
X68281500Y-114393693D01*
X79038500Y-112486521D02*
X79038500Y-111791693D01*
X77521500Y-111178693D02*
X78425500Y-111178693D01*
X74346500Y-112881193D02*
X74474000Y-113008693D01*
X72646500Y-112881193D02*
X74346500Y-112881193D01*
D68*
X109821500Y-108443693D02*
X109131000Y-108443693D01*
D66*
X115259000Y-127881193D02*
X115596500Y-127543693D01*
X145796500Y-139768693D02*
X145871500Y-139768693D01*
D68*
X107096500Y-113943693D02*
X108046500Y-113943693D01*
D66*
X112896500Y-130143693D02*
X113396438Y-130643631D01*
X122151500Y-114418693D02*
X124221500Y-114418693D01*
D70*
X148400441Y-75650000D02*
X147725000Y-75650000D01*
X148760441Y-76010000D02*
X148400441Y-75650000D01*
D66*
X112896500Y-129831193D02*
X114846500Y-127881193D01*
X113396438Y-130643631D02*
X113396438Y-134543755D01*
X144811500Y-138783693D02*
X140571500Y-138783693D01*
D69*
X101120501Y-132546693D02*
X101120501Y-133357957D01*
D68*
X108046500Y-113943693D02*
X107996500Y-113943693D01*
D70*
X148400378Y-75649937D02*
X148760441Y-76010000D01*
D66*
X150596500Y-140081193D02*
X150596500Y-138943693D01*
D68*
X148760441Y-78269559D02*
X148760441Y-76010000D01*
D66*
X114846500Y-127881193D02*
X115259000Y-127881193D01*
D69*
X101120501Y-133357957D02*
X102439237Y-134676693D01*
D66*
X150574097Y-140058790D02*
X150574097Y-139790000D01*
X114846500Y-127881193D02*
X114334000Y-127881193D01*
X112896500Y-130143693D02*
X112896500Y-129831193D01*
X113396438Y-134543755D02*
X112896500Y-135043693D01*
D68*
X93671500Y-109943693D02*
X92696500Y-109943693D01*
D66*
X145796500Y-139768693D02*
X144811500Y-138783693D01*
D68*
X126720000Y-100310000D02*
X148760441Y-78269559D01*
D66*
X147196500Y-142443693D02*
X148446500Y-142443693D01*
D68*
X115530193Y-100310000D02*
X126720000Y-100310000D01*
X107996500Y-113943693D02*
X107196500Y-113143693D01*
D66*
X112896500Y-137016370D02*
X112332870Y-137580000D01*
D68*
X109821500Y-106018693D02*
X110096500Y-105743693D01*
D66*
X148446500Y-142443693D02*
X148446500Y-142343693D01*
D70*
X148400378Y-70240000D02*
X148400378Y-75649937D01*
D66*
X124496500Y-115305500D02*
X124781000Y-115590000D01*
X150596500Y-140193693D02*
X148446500Y-142343693D01*
X150596500Y-140081193D02*
X150596500Y-140193693D01*
D68*
X114912000Y-112643693D02*
X114812000Y-112743693D01*
D66*
X145871500Y-139768693D02*
X148446500Y-142343693D01*
D68*
X109821500Y-111943693D02*
X110796500Y-111943693D01*
D66*
X124221500Y-114418693D02*
X124496500Y-114693693D01*
X112896500Y-135043693D02*
X112896500Y-137016370D01*
D68*
X93671500Y-108343693D02*
X92696500Y-108343693D01*
D69*
X102439237Y-134676693D02*
X103041500Y-134676693D01*
D66*
X124496500Y-114693693D02*
X124496500Y-115305500D01*
D68*
X105321500Y-112168693D02*
X107096500Y-113943693D01*
X109821500Y-106693693D02*
X109821500Y-106018693D01*
X110096500Y-105743693D02*
X115530193Y-100310000D01*
D66*
X150596500Y-140081193D02*
X150574097Y-140058790D01*
D68*
X109821500Y-110143693D02*
X110802000Y-110143693D01*
X116596500Y-112643693D02*
X114912000Y-112643693D01*
D66*
X114334000Y-127881193D02*
X113996500Y-127543693D01*
X146996500Y-142243693D02*
X147196500Y-142443693D01*
D70*
X169480000Y-129270000D02*
X169000000Y-129270000D01*
D66*
X177010000Y-126580000D02*
X177010000Y-125960000D01*
D70*
X171870000Y-130270000D02*
X169230000Y-130270000D01*
D68*
X170160000Y-88530000D02*
X171330000Y-87360000D01*
D66*
X168560000Y-130240000D02*
X168560000Y-130680000D01*
X172660000Y-130930000D02*
X177010000Y-126580000D01*
X171677500Y-90585000D02*
X171852500Y-90410000D01*
X168810000Y-130930000D02*
X172660000Y-130930000D01*
D70*
X169030000Y-129770000D02*
X168560000Y-130240000D01*
D66*
X169492500Y-90585000D02*
X171677500Y-90585000D01*
D70*
X171870000Y-129270000D02*
X169480000Y-129270000D01*
D66*
X169492500Y-90585000D02*
X169492500Y-88547500D01*
D70*
X168560000Y-130680000D02*
X168690000Y-130810000D01*
D66*
X169492500Y-88547500D02*
X169510000Y-88530000D01*
D70*
X169230000Y-130270000D02*
X168690000Y-130810000D01*
D68*
X169510000Y-88530000D02*
X170160000Y-88530000D01*
D66*
X168560000Y-129710000D02*
X168560000Y-130240000D01*
X168690000Y-130810000D02*
X168810000Y-130930000D01*
D70*
X169000000Y-129270000D02*
X168560000Y-129710000D01*
X171870000Y-129770000D02*
X169030000Y-129770000D01*
X191700000Y-119120000D02*
X191680000Y-119100000D01*
D66*
X131810000Y-44840000D02*
X191680000Y-104710000D01*
X191680000Y-104710000D02*
X191680000Y-109480000D01*
X72595000Y-46650000D02*
X74405000Y-44840000D01*
X191680000Y-109480000D02*
X191680000Y-119100000D01*
X74405000Y-44840000D02*
X131810000Y-44840000D01*
D70*
X191700000Y-120710000D02*
X191700000Y-119120000D01*
D69*
X139754700Y-124403693D02*
X138689700Y-125468693D01*
X139861500Y-124403693D02*
X139754700Y-124403693D01*
X138689700Y-125468693D02*
X127389699Y-125468693D01*
X127389699Y-125468693D02*
X126667732Y-126190660D01*
X126667732Y-126190660D02*
X126667732Y-126614925D01*
X140271500Y-124813693D02*
X139861500Y-124403693D01*
X140571500Y-124813693D02*
X140271500Y-124813693D01*
X140271500Y-123543693D02*
X139861500Y-123953693D01*
X140571500Y-123543693D02*
X140271500Y-123543693D01*
X127203301Y-125018693D02*
X126349533Y-125872461D01*
X139861500Y-123953693D02*
X139568300Y-123953693D01*
X138503300Y-125018693D02*
X127203301Y-125018693D01*
X139568300Y-123953693D02*
X138503300Y-125018693D01*
X126349533Y-125872461D02*
X125925268Y-125872461D01*
D70*
X116667500Y-135884693D02*
X119566500Y-138783693D01*
X116686500Y-126693349D02*
X116686500Y-130012430D01*
X115868500Y-136683693D02*
X116667500Y-135884693D01*
X115868500Y-138065693D02*
X115868500Y-136683693D01*
X120056500Y-138783693D02*
X119656500Y-138783693D01*
X119566500Y-138783693D02*
X120056500Y-138783693D01*
X115896500Y-135113693D02*
X116667500Y-135884693D01*
X116632469Y-121879662D02*
X116632469Y-126639318D01*
X116632469Y-126639318D02*
X116686500Y-126693349D01*
X123071500Y-138783693D02*
X120056500Y-138783693D01*
X113986000Y-119969961D02*
X114722768Y-119969961D01*
X113556000Y-118643693D02*
X113556000Y-119539961D01*
X116686500Y-130012430D02*
X115896500Y-130802430D01*
X113556000Y-119539961D02*
X113986000Y-119969961D01*
X115896500Y-130802430D02*
X115896500Y-135113693D01*
X114722768Y-119969961D02*
X116632469Y-121879662D01*
X117076500Y-134993693D02*
X117596500Y-134993693D01*
X114657940Y-119284961D02*
X117042469Y-121669490D01*
X123071500Y-137513693D02*
X120116500Y-137513693D01*
X117042469Y-126469490D02*
X117096500Y-126523521D01*
X120116500Y-137513693D02*
X117596500Y-134993693D01*
X116396500Y-134313693D02*
X117076500Y-134993693D01*
X117096500Y-130182258D02*
X116396500Y-130882258D01*
X114269737Y-119284961D02*
X114657940Y-119284961D01*
X116396500Y-130882258D02*
X116396500Y-134313693D01*
X117042469Y-121669490D02*
X117042469Y-126469490D01*
X117096500Y-126523521D02*
X117096500Y-130182258D01*
X137536500Y-123103693D02*
X137536500Y-122293693D01*
X136796500Y-123843693D02*
X137536500Y-123103693D01*
X120830000Y-53140000D02*
X114340000Y-46650000D01*
X120830000Y-60980000D02*
X120830000Y-53140000D01*
X124896500Y-123843693D02*
X136796500Y-123843693D01*
X124796500Y-123943693D02*
X124896500Y-123843693D01*
D66*
X165580000Y-94150000D02*
X164917501Y-94150000D01*
X164917501Y-94150000D02*
X164440000Y-93672499D01*
X164440000Y-93672499D02*
X164440000Y-90300000D01*
X165557350Y-98640000D02*
X165557350Y-94172650D01*
X164440000Y-90300000D02*
X166210000Y-88530000D01*
X165557350Y-94172650D02*
X165580000Y-94150000D01*
D70*
X119777470Y-123700645D02*
X119777470Y-124524663D01*
X122606500Y-127353693D02*
X123071500Y-127353693D01*
X119777470Y-124524663D02*
X122606500Y-127353693D01*
X120713235Y-124225428D02*
X122571500Y-126083693D01*
X120713235Y-123488543D02*
X120713235Y-124225428D01*
X122571500Y-126083693D02*
X123071500Y-126083693D01*
X121645234Y-123260457D02*
X121645234Y-123887427D01*
X122571500Y-124813693D02*
X123071500Y-124813693D01*
X121645234Y-123887427D02*
X122571500Y-124813693D01*
X120881500Y-114418693D02*
X120881500Y-113458693D01*
X120881500Y-113458693D02*
X124996500Y-109343693D01*
X124996500Y-109343693D02*
X124996500Y-108943693D01*
X118396500Y-132893693D02*
X117596500Y-133693693D01*
X118396500Y-129434193D02*
X118396500Y-132893693D01*
X116596500Y-110993693D02*
X116646500Y-111043693D01*
X117096500Y-110493693D02*
X116596500Y-110993693D01*
X119611500Y-110228693D02*
X119611500Y-109468693D01*
X118796500Y-111043693D02*
X119611500Y-110228693D01*
X117096500Y-109943693D02*
X117096500Y-110493693D01*
X116646500Y-111043693D02*
X118796500Y-111043693D01*
D68*
X108171500Y-108718693D02*
X108171500Y-108443693D01*
X89096500Y-113643693D02*
X86896500Y-113643693D01*
X86896500Y-113643693D02*
X86796500Y-113543693D01*
X108696500Y-109243693D02*
X108171500Y-108718693D01*
X113396500Y-109243693D02*
X108696500Y-109243693D01*
X119721500Y-119868693D02*
X123071500Y-123218693D01*
X114196500Y-115128193D02*
X114981000Y-115128193D01*
X114981000Y-115128193D02*
X119721500Y-119868693D01*
X113596500Y-104998193D02*
X116376500Y-102218193D01*
X104496500Y-108443693D02*
X103996500Y-108943693D01*
X108171500Y-108443693D02*
X104496500Y-108443693D01*
X123071500Y-123218693D02*
X123071500Y-123543693D01*
X113596500Y-109443693D02*
X113596500Y-104998193D01*
X113596500Y-109443693D02*
X113396500Y-109243693D01*
D70*
X85996500Y-108243693D02*
X85996500Y-106618693D01*
X85996500Y-106618693D02*
X85946500Y-106568693D01*
X87746500Y-111543693D02*
X87746500Y-110043693D01*
X87746500Y-110043693D02*
X87596500Y-109893693D01*
X137308000Y-108592000D02*
X183512000Y-108592000D01*
X126106500Y-119793500D02*
X137308000Y-108592000D01*
X183512000Y-108592000D02*
X185780000Y-110860000D01*
X190200000Y-120710000D02*
X190200000Y-117740000D01*
X126106500Y-122293693D02*
X126106500Y-119793500D01*
X190200000Y-117740000D02*
X190320000Y-117620000D01*
X185780000Y-110860000D02*
X187210000Y-110860000D01*
X174740000Y-134590000D02*
X180200000Y-129130000D01*
X180200000Y-129130000D02*
X180200000Y-120710000D01*
X173850000Y-134590000D02*
X174740000Y-134590000D01*
X148466307Y-136243693D02*
X149020000Y-135690000D01*
X147706307Y-136243693D02*
X148466307Y-136243693D01*
X140571500Y-136243693D02*
X147706307Y-136243693D01*
X149020000Y-135690000D02*
X172710000Y-135690000D01*
X140571500Y-134973693D02*
X173385164Y-134973693D01*
X173601471Y-135190000D02*
X175100000Y-135190000D01*
X182700000Y-127590000D02*
X182700000Y-120710000D01*
X173385164Y-134973693D02*
X173601471Y-135190000D01*
X175100000Y-135190000D02*
X182700000Y-127590000D01*
X169428968Y-114360000D02*
X179990516Y-114360000D01*
X179990516Y-114360000D02*
X183200000Y-117569484D01*
X150085275Y-133703693D02*
X169428968Y-114360000D01*
X140571500Y-133703693D02*
X150085275Y-133703693D01*
X183200000Y-117569484D02*
X183200000Y-120710000D01*
X180160344Y-113950000D02*
X169259140Y-113950000D01*
X183700000Y-120710000D02*
X183700000Y-117489656D01*
X169259140Y-113950000D02*
X150775447Y-132433693D01*
X183700000Y-117489656D02*
X180160344Y-113950000D01*
X150775447Y-132433693D02*
X140571500Y-132433693D01*
X184200000Y-117409828D02*
X180330172Y-113540000D01*
X184200000Y-120710000D02*
X184200000Y-117409828D01*
X169089312Y-113540000D02*
X151465619Y-131163693D01*
X151465619Y-131163693D02*
X140571500Y-131163693D01*
X180330172Y-113540000D02*
X169089312Y-113540000D01*
X180750000Y-113130000D02*
X168919484Y-113130000D01*
X168919484Y-113130000D02*
X152155791Y-129893693D01*
X184700000Y-117080000D02*
X180750000Y-113130000D01*
X184700000Y-120710000D02*
X184700000Y-117080000D01*
X152155791Y-129893693D02*
X140571500Y-129893693D01*
X185200000Y-120710000D02*
X185200000Y-116720000D01*
X152845963Y-128623693D02*
X140571500Y-128623693D01*
X181200000Y-112720000D02*
X168749656Y-112720000D01*
X168749656Y-112720000D02*
X152845963Y-128623693D01*
X185200000Y-116720000D02*
X181200000Y-112720000D01*
X181340172Y-112140000D02*
X185700000Y-116499828D01*
X153536135Y-127353693D02*
X168749828Y-112140000D01*
X140571500Y-127353693D02*
X153536135Y-127353693D01*
X185700000Y-116499828D02*
X185700000Y-120710000D01*
X168749828Y-112140000D02*
X181340172Y-112140000D01*
X186200000Y-116190000D02*
X186200000Y-120710000D01*
X169040000Y-111270000D02*
X181280000Y-111270000D01*
X140571500Y-126083693D02*
X154226307Y-126083693D01*
X181280000Y-111270000D02*
X186200000Y-116190000D01*
X154226307Y-126083693D02*
X169040000Y-111270000D01*
X150440000Y-112600000D02*
X150440000Y-111505000D01*
X150440000Y-111505000D02*
X150425000Y-111490000D01*
X168090000Y-128770000D02*
X165270000Y-125950000D01*
X171870000Y-128770000D02*
X168090000Y-128770000D01*
X171870000Y-128270000D02*
X169330000Y-128270000D01*
X171870000Y-127770000D02*
X169560000Y-127770000D01*
X169560000Y-127770000D02*
X168975000Y-127185000D01*
X168975000Y-127185000D02*
X167700000Y-125910000D01*
X168975000Y-127915000D02*
X168975000Y-127185000D01*
X158250000Y-111505000D02*
X158235000Y-111490000D01*
X169330000Y-128270000D02*
X168975000Y-127915000D01*
X158250000Y-112680000D02*
X158250000Y-111505000D01*
X136266500Y-122293693D02*
X136266500Y-121293693D01*
X145899748Y-74046176D02*
X145287961Y-74657963D01*
X137670000Y-120910000D02*
X144640000Y-113940000D01*
X137040000Y-120910000D02*
X137670000Y-120910000D01*
X136650193Y-120910000D02*
X137040000Y-120910000D01*
X145899748Y-70240000D02*
X145899748Y-74046176D01*
X136266500Y-121293693D02*
X136650193Y-120910000D01*
X129343693Y-132433693D02*
X129360000Y-132450000D01*
X123071500Y-132433693D02*
X129343693Y-132433693D01*
X182200000Y-126040000D02*
X181950000Y-126290000D01*
X182200000Y-120710000D02*
X182200000Y-126040000D01*
X181200000Y-120710000D02*
X181200000Y-127225000D01*
X128853046Y-133703693D02*
X129690366Y-134541013D01*
X181200000Y-127225000D02*
X180825000Y-127600000D01*
X123071500Y-133703693D02*
X128853046Y-133703693D01*
D68*
X69861500Y-137133693D02*
X72246500Y-139518693D01*
X69861500Y-136184693D02*
X69861500Y-137133693D01*
D70*
X98401500Y-109123693D02*
X101876500Y-109123693D01*
X103371500Y-110618693D02*
X103371500Y-112168693D01*
X95321500Y-106743693D02*
X96021500Y-106743693D01*
X101876500Y-109123693D02*
X103371500Y-110618693D01*
X96021500Y-106743693D02*
X98401500Y-109123693D01*
D68*
X73696500Y-138143693D02*
X74554500Y-139001693D01*
X72196500Y-138143693D02*
X73696500Y-138143693D01*
X74554500Y-139001693D02*
X74554500Y-139518693D01*
X71131500Y-137078693D02*
X72196500Y-138143693D01*
X71131500Y-136184693D02*
X71131500Y-137078693D01*
D66*
X71131500Y-129003693D02*
X70621500Y-128493693D01*
X71131500Y-130784693D02*
X71131500Y-129003693D01*
D69*
X102416499Y-133635693D02*
X104054500Y-133635693D01*
X101920499Y-132546693D02*
X101920499Y-133139693D01*
D68*
X104054500Y-133635693D02*
X104138500Y-133635693D01*
D69*
X101920499Y-133139693D02*
X102416499Y-133635693D01*
D68*
X104138500Y-133635693D02*
X107177700Y-136674893D01*
X107177700Y-136674893D02*
X107177700Y-138365293D01*
X109209700Y-138365293D02*
X107177700Y-138365293D01*
D70*
X94283882Y-129444693D02*
X94586500Y-129747311D01*
X93697500Y-129444693D02*
X94283882Y-129444693D01*
D68*
X87103500Y-129825693D02*
X85451500Y-129825693D01*
X87103500Y-129825693D02*
X87160157Y-129825693D01*
D69*
X97145500Y-129771693D02*
X94586500Y-129771693D01*
D68*
X87160157Y-129825693D02*
X87725776Y-130391312D01*
X87103500Y-132086693D02*
X87846500Y-131343693D01*
D69*
X97145500Y-130571694D02*
X94780198Y-130571694D01*
D68*
X85451500Y-132111693D02*
X87103500Y-132111693D01*
X87103500Y-132111693D02*
X87103500Y-132086693D01*
D69*
X94780198Y-130571694D02*
X94411205Y-130940687D01*
D70*
X97995000Y-94125000D02*
X97995000Y-46650000D01*
X103371500Y-99501500D02*
X97995000Y-94125000D01*
X103371500Y-106443693D02*
X103371500Y-99501500D01*
X102721500Y-106443693D02*
X102721500Y-101111500D01*
X102721500Y-101111500D02*
X95455000Y-93845000D01*
X95455000Y-93845000D02*
X95455000Y-46650000D01*
X95726672Y-96353693D02*
X95716672Y-96343693D01*
X102071500Y-102218693D02*
X96206500Y-96353693D01*
X93896500Y-96343693D02*
X92915000Y-95362193D01*
X96206500Y-96353693D02*
X95726672Y-96353693D01*
X95716672Y-96343693D02*
X93896500Y-96343693D01*
X92915000Y-95362193D02*
X92915000Y-46650000D01*
X102071500Y-106443693D02*
X102071500Y-102218693D01*
X95996500Y-96943693D02*
X92131500Y-96943693D01*
X101421500Y-102368693D02*
X95996500Y-96943693D01*
X101421500Y-106443693D02*
X101421500Y-102368693D01*
X90375000Y-95187193D02*
X90375000Y-46650000D01*
X92131500Y-96943693D02*
X90375000Y-95187193D01*
X100771500Y-106443693D02*
X100771500Y-102518693D01*
X100771500Y-102518693D02*
X95796500Y-97543693D01*
X87835000Y-95187193D02*
X87835000Y-46650000D01*
X90191500Y-97543693D02*
X95796500Y-97543693D01*
X90191500Y-97543693D02*
X87835000Y-95187193D01*
X88251500Y-98143693D02*
X85295000Y-95187193D01*
X100121500Y-102668693D02*
X95596500Y-98143693D01*
X95596500Y-98143693D02*
X88251500Y-98143693D01*
X85295000Y-95187193D02*
X85295000Y-46650000D01*
X100121500Y-106443693D02*
X100121500Y-102668693D01*
X95396500Y-98843693D02*
X86450000Y-98843693D01*
X86450000Y-98843693D02*
X82755000Y-95148693D01*
X99471500Y-106443693D02*
X99471500Y-102918693D01*
X82755000Y-95148693D02*
X82755000Y-46650000D01*
X99471500Y-102918693D02*
X95396500Y-98843693D01*
X86450000Y-98843693D02*
X86411500Y-98843693D01*
X98821500Y-103068693D02*
X95196500Y-99443693D01*
X80215000Y-95187193D02*
X80215000Y-46650000D01*
X95196500Y-99443693D02*
X84471500Y-99443693D01*
X98821500Y-106443693D02*
X98821500Y-103068693D01*
X84471500Y-99443693D02*
X80215000Y-95187193D01*
D68*
X163005001Y-91950001D02*
X159579999Y-91950001D01*
X159150000Y-92380000D02*
X159150000Y-97620000D01*
D70*
X134996500Y-121813500D02*
X134996500Y-122293693D01*
X146300000Y-110510000D02*
X134996500Y-121813500D01*
D68*
X159579999Y-91950001D02*
X159150000Y-92380000D01*
X159150000Y-97620000D02*
X159160000Y-97630000D01*
X163305000Y-92250000D02*
X163005001Y-91950001D01*
D70*
X152655000Y-118070000D02*
X147810000Y-118070000D01*
X133726500Y-122293693D02*
X133726500Y-121023500D01*
X147810000Y-118070000D02*
X147380000Y-117640000D01*
X155515000Y-115210000D02*
X152655000Y-118070000D01*
X147380000Y-117640000D02*
X147380000Y-109900000D01*
X155545000Y-116960000D02*
X155545000Y-115240000D01*
X155545000Y-115240000D02*
X155515000Y-115210000D01*
X147380000Y-109900000D02*
X146980000Y-109500000D01*
X146980000Y-109500000D02*
X145250000Y-109500000D01*
X133726500Y-121023500D02*
X144440000Y-110310000D01*
X145250000Y-109500000D02*
X144440000Y-110310000D01*
X132456500Y-120243500D02*
X142540000Y-110160000D01*
X132456500Y-122293693D02*
X132456500Y-120243500D01*
X148245000Y-115210000D02*
X148245000Y-116960000D01*
X148245000Y-109847800D02*
X148245000Y-115210000D01*
X147503200Y-109106000D02*
X148245000Y-109847800D01*
X142540000Y-110160000D02*
X143594000Y-109106000D01*
X143594000Y-109106000D02*
X147503200Y-109106000D01*
X131186500Y-119463500D02*
X140570000Y-110080000D01*
X131186500Y-122293693D02*
X131186500Y-119463500D01*
X129916500Y-118893500D02*
X138730000Y-110080000D01*
X129916500Y-122293693D02*
X129916500Y-119163500D01*
X129916500Y-119163500D02*
X129916500Y-118893500D01*
X157195000Y-115240000D02*
X157165000Y-115210000D01*
X157195000Y-116960000D02*
X157195000Y-115240000D01*
X157165000Y-115210000D02*
X158835000Y-115210000D01*
X160110000Y-112440000D02*
X158835000Y-113715000D01*
X158835000Y-113715000D02*
X158835000Y-115210000D01*
X149895000Y-115210000D02*
X149895000Y-116960000D01*
X149895000Y-115210000D02*
X151620000Y-115210000D01*
X151620000Y-115210000D02*
X151620000Y-113120000D01*
X151620000Y-113120000D02*
X152300000Y-112440000D01*
D66*
X169492500Y-92235000D02*
X169492500Y-95065000D01*
X169477500Y-92250000D02*
X169492500Y-92235000D01*
X165580000Y-92250000D02*
X169477500Y-92250000D01*
G04 #@! TA.AperFunction,Conductor*
G36*
X111537931Y-122539195D02*
G01*
X111558905Y-122556098D01*
X111809595Y-122806788D01*
X111843621Y-122869100D01*
X111846500Y-122895883D01*
X111846500Y-131343693D01*
X112096500Y-131343693D01*
X112309595Y-131556788D01*
X112343621Y-131619100D01*
X112346500Y-131645883D01*
X112346500Y-134960076D01*
X112346000Y-134967389D01*
X112346000Y-135012240D01*
X112345669Y-135018688D01*
X112341147Y-135062662D01*
X112344168Y-135080180D01*
X112346000Y-135101588D01*
X112346000Y-136292003D01*
X112325998Y-136360124D01*
X112309095Y-136381098D01*
X111883405Y-136806788D01*
X111821093Y-136840814D01*
X111794310Y-136843693D01*
X111154485Y-136843693D01*
X111086364Y-136823691D01*
X111065391Y-136806790D01*
X110424677Y-136166075D01*
X110418633Y-136159603D01*
X110379453Y-136117651D01*
X110379452Y-136117650D01*
X110371081Y-136112559D01*
X110341669Y-136094673D01*
X110336345Y-136091049D01*
X110301109Y-136064330D01*
X110284576Y-136057810D01*
X110265338Y-136048255D01*
X110250153Y-136039021D01*
X110250150Y-136039020D01*
X110229182Y-136033145D01*
X110207572Y-136027090D01*
X110201465Y-136025036D01*
X110160336Y-136008817D01*
X110148226Y-136007571D01*
X110142643Y-136006997D01*
X110121554Y-136002989D01*
X110104435Y-135998193D01*
X110104432Y-135998193D01*
X110060223Y-135998193D01*
X110053775Y-135997862D01*
X110009799Y-135993340D01*
X109992281Y-135996361D01*
X109970874Y-135998193D01*
X109473000Y-135998193D01*
X109404879Y-135978191D01*
X109358386Y-135924535D01*
X109347000Y-135872193D01*
X109347000Y-134127089D01*
X109347891Y-134100990D01*
X109349262Y-134060867D01*
X109338795Y-134017918D01*
X109337590Y-134011578D01*
X109334761Y-133990993D01*
X109331570Y-133967773D01*
X109324488Y-133951471D01*
X109317637Y-133931096D01*
X109313434Y-133913846D01*
X109313433Y-133913841D01*
X109291758Y-133875291D01*
X109288901Y-133869541D01*
X109271280Y-133828973D01*
X109260061Y-133815184D01*
X109247974Y-133797424D01*
X109239265Y-133781934D01*
X109208001Y-133750670D01*
X109203686Y-133745888D01*
X109175777Y-133711584D01*
X109161256Y-133701334D01*
X109144822Y-133687491D01*
X108933731Y-133476399D01*
X108899706Y-133414087D01*
X108904771Y-133343271D01*
X108933732Y-133298209D01*
X109081053Y-133150888D01*
X109105028Y-133126913D01*
X109115929Y-133105517D01*
X109126244Y-133088686D01*
X109140349Y-133069274D01*
X109147760Y-133046460D01*
X109155327Y-133028193D01*
X109166219Y-133006819D01*
X109169971Y-132983121D01*
X109174588Y-132963895D01*
X109182000Y-132941086D01*
X109182000Y-128003286D01*
X109182000Y-128003283D01*
X109166219Y-127903645D01*
X109105028Y-127783551D01*
X109009720Y-127688243D01*
X108955414Y-127660572D01*
X108923523Y-127637401D01*
X108839268Y-127553146D01*
X108805242Y-127490834D01*
X108802368Y-127462965D01*
X108832531Y-123964066D01*
X108853118Y-123896125D01*
X108869420Y-123876072D01*
X109058398Y-123687094D01*
X109061128Y-123684524D01*
X109105832Y-123644922D01*
X109139767Y-123595755D01*
X109141989Y-123592736D01*
X109178826Y-123545721D01*
X109182599Y-123537335D01*
X109193795Y-123517485D01*
X109199018Y-123509919D01*
X109220196Y-123454075D01*
X109221636Y-123450599D01*
X109246150Y-123396132D01*
X109247805Y-123387094D01*
X109253930Y-123365125D01*
X109257188Y-123356538D01*
X109264388Y-123297235D01*
X109264952Y-123293527D01*
X109275719Y-123234778D01*
X109272114Y-123175192D01*
X109272000Y-123171390D01*
X109272000Y-122645193D01*
X109292002Y-122577072D01*
X109345658Y-122530579D01*
X109398000Y-122519193D01*
X111469810Y-122519193D01*
X111537931Y-122539195D01*
G37*
G04 #@! TD.AperFunction*
G04 #@! TA.AperFunction,Conductor*
G36*
X102846500Y-137918693D02*
G01*
X104296080Y-137973052D01*
X104363397Y-137995591D01*
X104382097Y-138011549D01*
X104733749Y-138376635D01*
X104766601Y-138439573D01*
X104769000Y-138464044D01*
X104769000Y-139912348D01*
X104759926Y-139959298D01*
X104509788Y-140582248D01*
X104483873Y-140622436D01*
X102873664Y-142304209D01*
X102832133Y-142332949D01*
X102295254Y-142562199D01*
X102224751Y-142570555D01*
X102161742Y-142540207D01*
X101840967Y-142253100D01*
X101803548Y-142192765D01*
X101799770Y-142173128D01*
X101651717Y-140840639D01*
X101651714Y-140840625D01*
X101596500Y-140343693D01*
X101045834Y-138508142D01*
X101045419Y-138437148D01*
X101077423Y-138382847D01*
X101549870Y-137910400D01*
X101612178Y-137876377D01*
X101643671Y-137873587D01*
X102846500Y-137918693D01*
G37*
G04 #@! TD.AperFunction*
G04 #@! TA.AperFunction,Conductor*
G36*
X93249261Y-139613695D02*
G01*
X93252715Y-139615996D01*
X93287403Y-139639939D01*
X93290470Y-139642196D01*
X93337470Y-139679019D01*
X93345850Y-139682791D01*
X93365709Y-139693990D01*
X93373272Y-139699211D01*
X93429106Y-139720386D01*
X93432614Y-139721840D01*
X93455512Y-139732145D01*
X93487059Y-139746343D01*
X93487060Y-139746343D01*
X93487062Y-139746344D01*
X93496092Y-139747999D01*
X93518059Y-139754121D01*
X93526653Y-139757381D01*
X93585959Y-139764582D01*
X93589658Y-139765144D01*
X93648413Y-139775912D01*
X93707999Y-139772307D01*
X93711800Y-139772193D01*
X97972810Y-139772193D01*
X98040931Y-139792195D01*
X98061905Y-139809098D01*
X98309595Y-140056788D01*
X98343621Y-140119100D01*
X98346500Y-140145883D01*
X98346500Y-140843693D01*
X100544310Y-140843693D01*
X100612431Y-140863695D01*
X100633405Y-140880598D01*
X101059595Y-141306788D01*
X101093621Y-141369100D01*
X101096500Y-141395883D01*
X101096500Y-142291503D01*
X101076498Y-142359624D01*
X101059595Y-142380598D01*
X100633405Y-142806788D01*
X100571093Y-142840814D01*
X100544310Y-142843693D01*
X100067309Y-142843693D01*
X100021086Y-142834908D01*
X99992641Y-142823691D01*
X99965063Y-142812815D01*
X99876605Y-142802193D01*
X99876602Y-142802193D01*
X98840398Y-142802193D01*
X98840394Y-142802193D01*
X98751936Y-142812815D01*
X98712901Y-142828209D01*
X98695913Y-142834908D01*
X98649691Y-142843693D01*
X92339548Y-142843693D01*
X92271427Y-142823691D01*
X92243737Y-142799523D01*
X92196259Y-142743933D01*
X92010682Y-142585436D01*
X92010680Y-142585435D01*
X92010679Y-142585434D01*
X91802589Y-142457916D01*
X91713827Y-142421150D01*
X91674281Y-142404769D01*
X91619001Y-142360220D01*
X91596580Y-142292857D01*
X91596500Y-142288360D01*
X91596500Y-140145883D01*
X91616502Y-140077762D01*
X91633405Y-140056788D01*
X92059595Y-139630598D01*
X92121907Y-139596572D01*
X92148690Y-139593693D01*
X93181140Y-139593693D01*
X93249261Y-139613695D01*
G37*
G04 #@! TD.AperFunction*
G04 #@! TA.AperFunction,Conductor*
G36*
X94012431Y-114363695D02*
G01*
X94033405Y-114380598D01*
X94459595Y-114806788D01*
X94493621Y-114869100D01*
X94496500Y-114895883D01*
X94496500Y-116343693D01*
X96544310Y-116343693D01*
X96612431Y-116363695D01*
X96633405Y-116380598D01*
X97035768Y-116782961D01*
X97069794Y-116845273D01*
X97064729Y-116916088D01*
X97062169Y-116922420D01*
X96740607Y-117659830D01*
X96710848Y-117701798D01*
X94680375Y-119587237D01*
X94640693Y-119612186D01*
X93818703Y-119934974D01*
X93772648Y-119943693D01*
X89048690Y-119943693D01*
X88980569Y-119923691D01*
X88959595Y-119906788D01*
X88533405Y-119480598D01*
X88499379Y-119418286D01*
X88496500Y-119391503D01*
X88496500Y-114895883D01*
X88516502Y-114827762D01*
X88533405Y-114806788D01*
X88959095Y-114381098D01*
X89021407Y-114347072D01*
X89048190Y-114344193D01*
X89181557Y-114344193D01*
X89181886Y-114344153D01*
X89189487Y-114343693D01*
X93944310Y-114343693D01*
X94012431Y-114363695D01*
G37*
G04 #@! TD.AperFunction*
M02*
