G04 #@! TF.GenerationSoftware,KiCad,Pcbnew,7.0.9-7.0.9~ubuntu22.04.1*
G04 #@! TF.CreationDate,2024-02-01T16:34:56+01:00*
G04 #@! TF.ProjectId,v7-kaleido,76372d6b-616c-4656-9964-6f2e6b696361,1.0*
G04 #@! TF.SameCoordinates,Original*
G04 #@! TF.FileFunction,Copper,L2,Inr*
G04 #@! TF.FilePolarity,Positive*
%FSLAX46Y46*%
G04 Gerber Fmt 4.6, Leading zero omitted, Abs format (unit mm)*
G04 Created by KiCad (PCBNEW 7.0.9-7.0.9~ubuntu22.04.1) date 2024-02-01 16:34:56*
%MOMM*%
%LPD*%
G01*
G04 APERTURE LIST*
G04 #@! TA.AperFunction,ComponentPad*
%ADD10C,0.508000*%
G04 #@! TD*
G04 #@! TA.AperFunction,ComponentPad*
%ADD11R,1.700000X1.700000*%
G04 #@! TD*
G04 #@! TA.AperFunction,ComponentPad*
%ADD12O,1.700000X1.700000*%
G04 #@! TD*
G04 #@! TA.AperFunction,ComponentPad*
%ADD13O,2.100000X1.000000*%
G04 #@! TD*
G04 #@! TA.AperFunction,ComponentPad*
%ADD14O,1.600000X1.000000*%
G04 #@! TD*
G04 #@! TA.AperFunction,ViaPad*
%ADD15C,0.800000*%
G04 #@! TD*
G04 #@! TA.AperFunction,ViaPad*
%ADD16C,0.450000*%
G04 #@! TD*
G04 #@! TA.AperFunction,ViaPad*
%ADD17C,0.500000*%
G04 #@! TD*
G04 #@! TA.AperFunction,Conductor*
%ADD18C,0.250000*%
G04 #@! TD*
G04 #@! TA.AperFunction,Conductor*
%ADD19C,0.500000*%
G04 #@! TD*
G04 APERTURE END LIST*
D10*
X101695300Y-131146493D03*
X101695300Y-130359093D03*
X101695300Y-129571693D03*
X101695300Y-128784293D03*
X101695300Y-127996893D03*
X100907900Y-131146493D03*
X100907900Y-130359093D03*
X100907900Y-129571693D03*
X100907900Y-128784293D03*
X100907900Y-127996893D03*
X100120500Y-131146493D03*
X100120500Y-130359093D03*
X100120500Y-129571693D03*
X100120500Y-128784293D03*
X100120500Y-127996893D03*
X99333100Y-131146493D03*
X99333100Y-130359093D03*
X99333100Y-129571693D03*
X99333100Y-128784293D03*
X99333100Y-127996893D03*
X98545700Y-131146493D03*
X98545700Y-130359093D03*
X98545700Y-129571693D03*
X98545700Y-128784293D03*
X98545700Y-127996893D03*
D11*
X62446500Y-132618693D03*
D12*
X62446500Y-135158693D03*
D11*
X62196500Y-103718693D03*
D12*
X62196500Y-101178693D03*
D11*
X101640000Y-46650000D03*
D12*
X104180000Y-46650000D03*
X106720000Y-46650000D03*
X109260000Y-46650000D03*
X111800000Y-46650000D03*
X114340000Y-46650000D03*
X116880000Y-46650000D03*
X119420000Y-46650000D03*
X121960000Y-46650000D03*
X124500000Y-46650000D03*
X127040000Y-46650000D03*
X129580000Y-46650000D03*
D11*
X67515000Y-46650000D03*
D12*
X70055000Y-46650000D03*
X72595000Y-46650000D03*
X75135000Y-46650000D03*
X77675000Y-46650000D03*
X80215000Y-46650000D03*
X82755000Y-46650000D03*
X85295000Y-46650000D03*
X87835000Y-46650000D03*
X90375000Y-46650000D03*
X92915000Y-46650000D03*
X95455000Y-46650000D03*
X97995000Y-46650000D03*
D11*
X189190000Y-46650000D03*
D12*
X186650000Y-46650000D03*
X184110000Y-46650000D03*
X181570000Y-46650000D03*
X179030000Y-46650000D03*
X176490000Y-46650000D03*
X173950000Y-46650000D03*
D13*
X67366500Y-109323693D03*
D14*
X63186500Y-109323693D03*
D13*
X67366500Y-117963693D03*
D14*
X63186500Y-117963693D03*
D15*
X188300000Y-135060000D03*
X148061529Y-139795403D03*
X104056000Y-104943693D03*
X103755499Y-139843693D03*
X111096500Y-132093693D03*
X105096500Y-105043693D03*
X69696500Y-110143693D03*
X96296500Y-116743693D03*
X72696500Y-121543693D03*
X111096500Y-127593693D03*
X106089500Y-129365693D03*
X116996500Y-103243693D03*
X102846500Y-119093693D03*
X100596500Y-143593693D03*
X173190000Y-92290000D03*
D16*
X179690000Y-119490000D03*
D15*
X72596500Y-114443693D03*
X196210000Y-127800000D03*
X103168500Y-125507693D03*
X63596500Y-122143693D03*
X109596500Y-129593693D03*
X93896500Y-115343693D03*
X106470500Y-127745693D03*
X124196500Y-105143693D03*
X156540000Y-93110000D03*
X103596500Y-119093693D03*
D17*
X192420000Y-121900000D03*
D15*
X172563000Y-123500000D03*
X75296500Y-119143693D03*
X124896500Y-111643693D03*
X113896500Y-126443693D03*
X93696500Y-105643693D03*
X111398781Y-123366052D03*
X89496500Y-115343693D03*
X170480000Y-96700000D03*
X65696500Y-142843693D03*
X68746500Y-138343693D03*
X135496500Y-130143693D03*
X80496500Y-127843693D03*
X102346500Y-141843693D03*
X89493186Y-128947792D03*
X117092000Y-108343693D03*
X92896500Y-114743693D03*
X90346500Y-138343693D03*
X91896500Y-115343693D03*
X79696500Y-123243693D03*
X71805082Y-112651705D03*
X112096500Y-133093693D03*
X103548243Y-132874950D03*
X90534500Y-130155693D03*
D17*
X189190000Y-121850000D03*
D15*
X188930000Y-115309000D03*
X115636500Y-130093693D03*
X103040500Y-138649693D03*
X142696500Y-139943693D03*
X115596500Y-129093693D03*
X135796500Y-133743693D03*
X153870000Y-113100000D03*
X97896500Y-104943693D03*
X177910000Y-122030000D03*
X88896500Y-118943693D03*
D16*
X180710000Y-119510000D03*
D15*
X108096500Y-140383693D03*
X121096500Y-139943693D03*
X93593277Y-130438096D03*
X89496500Y-117743693D03*
X150596500Y-144343693D03*
X101846500Y-139843693D03*
X111096500Y-129843693D03*
X87346500Y-117343693D03*
X90346500Y-139343693D03*
X66746500Y-144593693D03*
X99463781Y-134928356D03*
X84346500Y-132843693D03*
X144540000Y-71490000D03*
X148296500Y-145143693D03*
X196430000Y-119023000D03*
X175830000Y-115135000D03*
X80596500Y-134093693D03*
X77496500Y-105043693D03*
X95696500Y-117943693D03*
X161720000Y-113100000D03*
X166930000Y-93200000D03*
X102846500Y-140843693D03*
X99096500Y-121093693D03*
X102700500Y-120239693D03*
X107596500Y-120843693D03*
X90696500Y-114743693D03*
X188930000Y-113209000D03*
X149596500Y-146343693D03*
X130796500Y-133743693D03*
X72696500Y-106443693D03*
X70746500Y-145343693D03*
X110802000Y-114277708D03*
X69396500Y-117243693D03*
X172780000Y-120160000D03*
X196530000Y-116623000D03*
X97112034Y-120109227D03*
X115896500Y-123443693D03*
X98950500Y-120239693D03*
X79496500Y-125043693D03*
X88896500Y-116543693D03*
X69696500Y-129243693D03*
X97846500Y-143593693D03*
X86096500Y-117343693D03*
X109596500Y-131843693D03*
X111096500Y-125343693D03*
X131196500Y-130243693D03*
X73196500Y-130743693D03*
X109480000Y-127343693D03*
X84346500Y-130593693D03*
X106396500Y-119343693D03*
X111096500Y-133843693D03*
X165250000Y-131930000D03*
X95548500Y-131984693D03*
X88596500Y-133007691D03*
X112410000Y-143290000D03*
X158542922Y-130322922D03*
X88096500Y-129183695D03*
X95373246Y-128680722D03*
X114296500Y-141340000D03*
X154069310Y-133635000D03*
X111862622Y-138518814D03*
X194120000Y-119280000D03*
X89096500Y-142593693D03*
X100220490Y-124364693D03*
X110121992Y-141941992D03*
X128381228Y-134575066D03*
X90248193Y-113295386D03*
X178540000Y-115580000D03*
X98160000Y-110680000D03*
X108180000Y-137080000D03*
X107380000Y-122130000D03*
X185540000Y-129100000D03*
X99296500Y-110643693D03*
X102996500Y-108343693D03*
X74896500Y-107343693D03*
X111696500Y-116043693D03*
X75696500Y-108643693D03*
X110896500Y-116643693D03*
X110545395Y-139593693D03*
X155947922Y-132917922D03*
X70796500Y-111143693D03*
X75562837Y-112210030D03*
X70796500Y-116143693D03*
X70730440Y-144008136D03*
X113836500Y-144643693D03*
X186180000Y-110060000D03*
D17*
X190950000Y-118120000D03*
D15*
X103346500Y-121343693D03*
X106089500Y-130841693D03*
X95422757Y-126903436D03*
X103636500Y-122794693D03*
X107096500Y-101443693D03*
X104694807Y-114345386D03*
X107196500Y-105643693D03*
X100924161Y-123571352D03*
X106996500Y-110843693D03*
X139505000Y-104362699D03*
X140970000Y-102390000D03*
X101891748Y-123536440D03*
X104096500Y-115343693D03*
X102096500Y-114143693D03*
X98024294Y-122216930D03*
X105610156Y-116335158D03*
X106196500Y-132743693D03*
X125396500Y-124943693D03*
X120500000Y-97750000D03*
X115638557Y-99510000D03*
X116796500Y-118043693D03*
X107064129Y-129685937D03*
X104796500Y-116843693D03*
X103996500Y-117543693D03*
X106293592Y-125329363D03*
X99972856Y-123437697D03*
X100096500Y-114843693D03*
X108596500Y-121843693D03*
X106484444Y-126269693D03*
X100596500Y-141593693D03*
X95846500Y-122343693D03*
X92096500Y-140343693D03*
X107188759Y-123290140D03*
X94596500Y-142593693D03*
X93346500Y-142343693D03*
X106196500Y-105943693D03*
X95596500Y-123093693D03*
X108996500Y-116543693D03*
X93346500Y-140343693D03*
X97346500Y-142593693D03*
X93346500Y-141343693D03*
X98096500Y-141843693D03*
X87096500Y-121343693D03*
X96846500Y-122343693D03*
X88096500Y-120843693D03*
X92096500Y-141343693D03*
X158030000Y-102390000D03*
X98096500Y-140593693D03*
X95846500Y-142593693D03*
X113996500Y-127543693D03*
X103041500Y-134676693D03*
X112332870Y-137580000D03*
X92696500Y-108343693D03*
X92696500Y-109943693D03*
X124781000Y-115590000D03*
X110796500Y-111943693D03*
X110802000Y-110143693D03*
X150574097Y-139790000D03*
X115596500Y-127543693D03*
X107196500Y-113143693D03*
X114812000Y-112743693D03*
X109131000Y-108443693D03*
X146996500Y-142243693D03*
X110096500Y-105743693D03*
X150596500Y-138943693D03*
X171330000Y-87360000D03*
X177010000Y-125960000D03*
X126667732Y-126614925D03*
X125925268Y-125872461D03*
X113556000Y-118643693D03*
X114269737Y-119284961D03*
X124796500Y-123943693D03*
X120830000Y-60980000D03*
X119777470Y-123700645D03*
X120713235Y-123488543D03*
X121645234Y-123260457D03*
X124996500Y-108943693D03*
X117096500Y-109943693D03*
X118396500Y-129434193D03*
X89096500Y-113643693D03*
X114196500Y-115128193D03*
X103996500Y-108943693D03*
X116376500Y-102218193D03*
X113596500Y-109443693D03*
X187210000Y-110860000D03*
D17*
X190320000Y-117620000D03*
D16*
X172710000Y-135690000D03*
X173850000Y-134590000D03*
D15*
X165270000Y-125950000D03*
X150440000Y-112600000D03*
X167700000Y-125910000D03*
X158250000Y-112680000D03*
X145287961Y-74657963D03*
X144640000Y-113940000D03*
D17*
X129360000Y-132450000D03*
X181950000Y-126290000D03*
D15*
X129690366Y-134541013D03*
D17*
X180825000Y-127600000D03*
D15*
X93697500Y-129444693D03*
X87725776Y-130391312D03*
X87846500Y-131343693D03*
X94411205Y-130940687D03*
X159160000Y-97630000D03*
X146300000Y-110510000D03*
X144440000Y-110310000D03*
X142540000Y-110160000D03*
X140570000Y-110080000D03*
X138730000Y-110080000D03*
D18*
X98160000Y-114430000D02*
X102020000Y-118290000D01*
X113865024Y-117189000D02*
X176931000Y-117189000D01*
X102020000Y-118290000D02*
X112764024Y-118290000D01*
X176931000Y-117189000D02*
X178540000Y-115580000D01*
X112764024Y-118290000D02*
X113865024Y-117189000D01*
X98160000Y-110680000D02*
X98160000Y-114430000D01*
D19*
X113190000Y-115740000D02*
X114120000Y-116670000D01*
X111140307Y-115249693D02*
X112699693Y-115249693D01*
X114120000Y-116670000D02*
X143750000Y-116670000D01*
X109776307Y-116523693D02*
X109866307Y-116523693D01*
X109776307Y-116543693D02*
X109776307Y-116523693D01*
X143750000Y-116670000D02*
X158030000Y-102390000D01*
X112699693Y-115249693D02*
X113190000Y-115740000D01*
X108996500Y-116543693D02*
X109776307Y-116543693D01*
X109866307Y-116523693D02*
X111140307Y-115249693D01*
G04 #@! TA.AperFunction,Conductor*
G36*
X138741431Y-44045502D02*
G01*
X138762405Y-44062405D01*
X139137595Y-44437595D01*
X139171621Y-44499907D01*
X139174500Y-44526690D01*
X139174500Y-49419867D01*
X139172398Y-49430435D01*
X139172399Y-49450000D01*
X139174500Y-49455073D01*
X139180482Y-49469517D01*
X139200000Y-49477601D01*
X139219575Y-49477601D01*
X139230137Y-49475500D01*
X169169863Y-49475500D01*
X169180425Y-49477601D01*
X169200000Y-49477601D01*
X169219517Y-49469517D01*
X169225500Y-49455072D01*
X169227601Y-49450000D01*
X169227600Y-49449997D01*
X169227601Y-49430435D01*
X169225500Y-49419867D01*
X169225500Y-46650003D01*
X172894417Y-46650003D01*
X172914698Y-46855927D01*
X172974768Y-47053954D01*
X173023651Y-47145408D01*
X173072315Y-47236450D01*
X173203590Y-47396410D01*
X173363550Y-47527685D01*
X173546046Y-47625232D01*
X173744066Y-47685300D01*
X173744070Y-47685300D01*
X173744072Y-47685301D01*
X173949997Y-47705583D01*
X173950000Y-47705583D01*
X173950003Y-47705583D01*
X174155927Y-47685301D01*
X174155928Y-47685300D01*
X174155934Y-47685300D01*
X174353954Y-47625232D01*
X174536450Y-47527685D01*
X174696410Y-47396410D01*
X174827685Y-47236450D01*
X174925232Y-47053954D01*
X174985300Y-46855934D01*
X175003162Y-46674588D01*
X175005583Y-46650003D01*
X175434417Y-46650003D01*
X175454698Y-46855927D01*
X175514768Y-47053954D01*
X175563651Y-47145408D01*
X175612315Y-47236450D01*
X175743590Y-47396410D01*
X175903550Y-47527685D01*
X176086046Y-47625232D01*
X176284066Y-47685300D01*
X176284070Y-47685300D01*
X176284072Y-47685301D01*
X176489997Y-47705583D01*
X176490000Y-47705583D01*
X176490003Y-47705583D01*
X176695927Y-47685301D01*
X176695928Y-47685300D01*
X176695934Y-47685300D01*
X176893954Y-47625232D01*
X177076450Y-47527685D01*
X177236410Y-47396410D01*
X177367685Y-47236450D01*
X177465232Y-47053954D01*
X177525300Y-46855934D01*
X177543162Y-46674588D01*
X177545583Y-46650003D01*
X177974417Y-46650003D01*
X177994698Y-46855927D01*
X178054768Y-47053954D01*
X178103651Y-47145408D01*
X178152315Y-47236450D01*
X178283590Y-47396410D01*
X178443550Y-47527685D01*
X178626046Y-47625232D01*
X178824066Y-47685300D01*
X178824070Y-47685300D01*
X178824072Y-47685301D01*
X179029997Y-47705583D01*
X179030000Y-47705583D01*
X179030003Y-47705583D01*
X179235927Y-47685301D01*
X179235928Y-47685300D01*
X179235934Y-47685300D01*
X179433954Y-47625232D01*
X179616450Y-47527685D01*
X179776410Y-47396410D01*
X179907685Y-47236450D01*
X180005232Y-47053954D01*
X180065300Y-46855934D01*
X180083162Y-46674588D01*
X180085583Y-46650003D01*
X180514417Y-46650003D01*
X180534698Y-46855927D01*
X180594768Y-47053954D01*
X180643651Y-47145408D01*
X180692315Y-47236450D01*
X180823590Y-47396410D01*
X180983550Y-47527685D01*
X181166046Y-47625232D01*
X181364066Y-47685300D01*
X181364070Y-47685300D01*
X181364072Y-47685301D01*
X181569997Y-47705583D01*
X181570000Y-47705583D01*
X181570003Y-47705583D01*
X181775927Y-47685301D01*
X181775928Y-47685300D01*
X181775934Y-47685300D01*
X181973954Y-47625232D01*
X182156450Y-47527685D01*
X182316410Y-47396410D01*
X182447685Y-47236450D01*
X182545232Y-47053954D01*
X182605300Y-46855934D01*
X182623162Y-46674588D01*
X182625583Y-46650003D01*
X183054417Y-46650003D01*
X183074698Y-46855927D01*
X183134768Y-47053954D01*
X183183651Y-47145408D01*
X183232315Y-47236450D01*
X183363590Y-47396410D01*
X183523550Y-47527685D01*
X183706046Y-47625232D01*
X183904066Y-47685300D01*
X183904070Y-47685300D01*
X183904072Y-47685301D01*
X184109997Y-47705583D01*
X184110000Y-47705583D01*
X184110003Y-47705583D01*
X184315927Y-47685301D01*
X184315928Y-47685300D01*
X184315934Y-47685300D01*
X184513954Y-47625232D01*
X184696450Y-47527685D01*
X184856410Y-47396410D01*
X184987685Y-47236450D01*
X185085232Y-47053954D01*
X185145300Y-46855934D01*
X185163162Y-46674588D01*
X185165583Y-46650003D01*
X185594417Y-46650003D01*
X185614698Y-46855927D01*
X185674768Y-47053954D01*
X185723651Y-47145408D01*
X185772315Y-47236450D01*
X185903590Y-47396410D01*
X186063550Y-47527685D01*
X186246046Y-47625232D01*
X186444066Y-47685300D01*
X186444070Y-47685300D01*
X186444072Y-47685301D01*
X186649997Y-47705583D01*
X186650000Y-47705583D01*
X186650003Y-47705583D01*
X186855927Y-47685301D01*
X186855928Y-47685300D01*
X186855934Y-47685300D01*
X187053954Y-47625232D01*
X187236450Y-47527685D01*
X187246119Y-47519750D01*
X188139500Y-47519750D01*
X188141078Y-47527685D01*
X188151133Y-47578231D01*
X188195448Y-47644552D01*
X188261769Y-47688867D01*
X188320252Y-47700500D01*
X188320253Y-47700500D01*
X190059747Y-47700500D01*
X190059748Y-47700500D01*
X190118231Y-47688867D01*
X190184552Y-47644552D01*
X190228867Y-47578231D01*
X190240500Y-47519748D01*
X190240500Y-46910000D01*
X193644341Y-46910000D01*
X193664937Y-47145411D01*
X193726096Y-47373661D01*
X193726098Y-47373665D01*
X193825966Y-47587832D01*
X193961498Y-47781392D01*
X193961502Y-47781397D01*
X193961505Y-47781401D01*
X194128599Y-47948495D01*
X194128603Y-47948498D01*
X194128607Y-47948501D01*
X194322167Y-48084033D01*
X194322166Y-48084033D01*
X194398304Y-48119537D01*
X194536337Y-48183903D01*
X194764592Y-48245063D01*
X194941034Y-48260500D01*
X194941035Y-48260500D01*
X195058965Y-48260500D01*
X195058966Y-48260500D01*
X195235408Y-48245063D01*
X195463663Y-48183903D01*
X195677829Y-48084035D01*
X195871401Y-47948495D01*
X196038495Y-47781401D01*
X196174035Y-47587830D01*
X196273903Y-47373663D01*
X196335063Y-47145408D01*
X196355659Y-46910000D01*
X196335063Y-46674592D01*
X196328474Y-46650003D01*
X196273903Y-46446338D01*
X196273903Y-46446337D01*
X196174035Y-46232171D01*
X196174034Y-46232169D01*
X196174033Y-46232167D01*
X196038501Y-46038607D01*
X196038497Y-46038602D01*
X196038495Y-46038599D01*
X195871401Y-45871505D01*
X195871397Y-45871502D01*
X195871392Y-45871498D01*
X195677832Y-45735966D01*
X195677833Y-45735966D01*
X195463665Y-45636098D01*
X195463661Y-45636096D01*
X195235411Y-45574937D01*
X195103076Y-45563359D01*
X195058966Y-45559500D01*
X194941034Y-45559500D01*
X194905745Y-45562587D01*
X194764588Y-45574937D01*
X194536338Y-45636096D01*
X194536334Y-45636098D01*
X194322167Y-45735966D01*
X194128607Y-45871498D01*
X194128596Y-45871507D01*
X193961507Y-46038596D01*
X193961502Y-46038602D01*
X193825965Y-46232169D01*
X193726098Y-46446334D01*
X193726096Y-46446338D01*
X193664937Y-46674588D01*
X193644341Y-46910000D01*
X190240500Y-46910000D01*
X190240500Y-45780252D01*
X190228867Y-45721769D01*
X190184552Y-45655448D01*
X190118231Y-45611133D01*
X190118228Y-45611132D01*
X190059750Y-45599500D01*
X190059748Y-45599500D01*
X188320252Y-45599500D01*
X188320249Y-45599500D01*
X188261771Y-45611132D01*
X188261768Y-45611133D01*
X188195448Y-45655448D01*
X188151133Y-45721768D01*
X188151132Y-45721771D01*
X188139500Y-45780249D01*
X188139500Y-47519750D01*
X187246119Y-47519750D01*
X187396410Y-47396410D01*
X187527685Y-47236450D01*
X187625232Y-47053954D01*
X187685300Y-46855934D01*
X187703162Y-46674588D01*
X187705583Y-46650003D01*
X187705583Y-46649996D01*
X187685301Y-46444072D01*
X187685300Y-46444070D01*
X187685300Y-46444066D01*
X187625232Y-46246046D01*
X187527685Y-46063550D01*
X187396410Y-45903590D01*
X187236450Y-45772315D01*
X187236448Y-45772314D01*
X187236447Y-45772313D01*
X187053954Y-45674768D01*
X186990264Y-45655448D01*
X186855934Y-45614700D01*
X186855933Y-45614699D01*
X186855927Y-45614698D01*
X186650003Y-45594417D01*
X186649997Y-45594417D01*
X186444072Y-45614698D01*
X186246045Y-45674768D01*
X186063552Y-45772313D01*
X185903590Y-45903590D01*
X185772313Y-46063552D01*
X185674768Y-46246045D01*
X185614698Y-46444072D01*
X185594417Y-46649996D01*
X185594417Y-46650003D01*
X185165583Y-46650003D01*
X185165583Y-46649996D01*
X185145301Y-46444072D01*
X185145300Y-46444070D01*
X185145300Y-46444066D01*
X185085232Y-46246046D01*
X184987685Y-46063550D01*
X184856410Y-45903590D01*
X184696450Y-45772315D01*
X184696448Y-45772314D01*
X184696447Y-45772313D01*
X184513954Y-45674768D01*
X184450264Y-45655448D01*
X184315934Y-45614700D01*
X184315933Y-45614699D01*
X184315927Y-45614698D01*
X184110003Y-45594417D01*
X184109997Y-45594417D01*
X183904072Y-45614698D01*
X183706045Y-45674768D01*
X183523552Y-45772313D01*
X183363590Y-45903590D01*
X183232313Y-46063552D01*
X183134768Y-46246045D01*
X183074698Y-46444072D01*
X183054417Y-46649996D01*
X183054417Y-46650003D01*
X182625583Y-46650003D01*
X182625583Y-46649996D01*
X182605301Y-46444072D01*
X182605300Y-46444070D01*
X182605300Y-46444066D01*
X182545232Y-46246046D01*
X182447685Y-46063550D01*
X182316410Y-45903590D01*
X182156450Y-45772315D01*
X182156448Y-45772314D01*
X182156447Y-45772313D01*
X181973954Y-45674768D01*
X181910264Y-45655448D01*
X181775934Y-45614700D01*
X181775933Y-45614699D01*
X181775927Y-45614698D01*
X181570003Y-45594417D01*
X181569997Y-45594417D01*
X181364072Y-45614698D01*
X181166045Y-45674768D01*
X180983552Y-45772313D01*
X180823590Y-45903590D01*
X180692313Y-46063552D01*
X180594768Y-46246045D01*
X180534698Y-46444072D01*
X180514417Y-46649996D01*
X180514417Y-46650003D01*
X180085583Y-46650003D01*
X180085583Y-46649996D01*
X180065301Y-46444072D01*
X180065300Y-46444070D01*
X180065300Y-46444066D01*
X180005232Y-46246046D01*
X179907685Y-46063550D01*
X179776410Y-45903590D01*
X179616450Y-45772315D01*
X179616448Y-45772314D01*
X179616447Y-45772313D01*
X179433954Y-45674768D01*
X179370264Y-45655448D01*
X179235934Y-45614700D01*
X179235933Y-45614699D01*
X179235927Y-45614698D01*
X179030003Y-45594417D01*
X179029997Y-45594417D01*
X178824072Y-45614698D01*
X178626045Y-45674768D01*
X178443552Y-45772313D01*
X178283590Y-45903590D01*
X178152313Y-46063552D01*
X178054768Y-46246045D01*
X177994698Y-46444072D01*
X177974417Y-46649996D01*
X177974417Y-46650003D01*
X177545583Y-46650003D01*
X177545583Y-46649996D01*
X177525301Y-46444072D01*
X177525300Y-46444070D01*
X177525300Y-46444066D01*
X177465232Y-46246046D01*
X177367685Y-46063550D01*
X177236410Y-45903590D01*
X177076450Y-45772315D01*
X177076448Y-45772314D01*
X177076447Y-45772313D01*
X176893954Y-45674768D01*
X176830264Y-45655448D01*
X176695934Y-45614700D01*
X176695933Y-45614699D01*
X176695927Y-45614698D01*
X176490003Y-45594417D01*
X176489997Y-45594417D01*
X176284072Y-45614698D01*
X176086045Y-45674768D01*
X175903552Y-45772313D01*
X175743590Y-45903590D01*
X175612313Y-46063552D01*
X175514768Y-46246045D01*
X175454698Y-46444072D01*
X175434417Y-46649996D01*
X175434417Y-46650003D01*
X175005583Y-46650003D01*
X175005583Y-46649996D01*
X174985301Y-46444072D01*
X174985300Y-46444070D01*
X174985300Y-46444066D01*
X174925232Y-46246046D01*
X174827685Y-46063550D01*
X174696410Y-45903590D01*
X174536450Y-45772315D01*
X174536448Y-45772314D01*
X174536447Y-45772313D01*
X174353954Y-45674768D01*
X174290264Y-45655448D01*
X174155934Y-45614700D01*
X174155933Y-45614699D01*
X174155927Y-45614698D01*
X173950003Y-45594417D01*
X173949997Y-45594417D01*
X173744072Y-45614698D01*
X173546045Y-45674768D01*
X173363552Y-45772313D01*
X173203590Y-45903590D01*
X173072313Y-46063552D01*
X172974768Y-46246045D01*
X172914698Y-46444072D01*
X172894417Y-46649996D01*
X172894417Y-46650003D01*
X169225500Y-46650003D01*
X169225500Y-44526690D01*
X169245502Y-44458569D01*
X169262405Y-44437595D01*
X169637595Y-44062405D01*
X169699907Y-44028379D01*
X169726690Y-44025500D01*
X197473310Y-44025500D01*
X197541431Y-44045502D01*
X197562405Y-44062405D01*
X197937595Y-44437595D01*
X197971621Y-44499907D01*
X197974500Y-44526690D01*
X197974500Y-134473310D01*
X197954498Y-134541431D01*
X197937595Y-134562405D01*
X197562405Y-134937595D01*
X197500093Y-134971621D01*
X197473310Y-134974500D01*
X194330136Y-134974500D01*
X194319574Y-134972399D01*
X194299999Y-134972399D01*
X194294927Y-134974500D01*
X194280482Y-134980482D01*
X194272399Y-134999999D01*
X194272399Y-135019575D01*
X194274500Y-135030136D01*
X194274500Y-141200080D01*
X194272348Y-141210978D01*
X194272399Y-141230076D01*
X194276482Y-141239859D01*
X194280482Y-141249516D01*
X194280535Y-141249569D01*
X194280536Y-141249570D01*
X194290341Y-141253600D01*
X194300000Y-141257601D01*
X194300002Y-141257599D01*
X194319114Y-141257599D01*
X194329992Y-141255418D01*
X197473213Y-141246922D01*
X197541385Y-141266740D01*
X197562524Y-141283704D01*
X197937477Y-141657645D01*
X197971584Y-141719908D01*
X197974500Y-141746858D01*
X197974500Y-148079304D01*
X197954498Y-148147425D01*
X197937593Y-148168402D01*
X197562407Y-148543564D01*
X197500093Y-148577587D01*
X197473306Y-148580466D01*
X147024500Y-148577393D01*
X147024499Y-148577393D01*
X147018272Y-148577393D01*
X147014157Y-148577258D01*
X146762605Y-148560772D01*
X146754438Y-148559697D01*
X146643347Y-148537600D01*
X146509223Y-148510921D01*
X146501259Y-148508787D01*
X146264513Y-148428424D01*
X146256898Y-148425270D01*
X146032667Y-148314693D01*
X146025522Y-148310568D01*
X145817645Y-148171670D01*
X145811103Y-148166650D01*
X145623136Y-148001808D01*
X145617303Y-147995975D01*
X145452453Y-147808002D01*
X145447436Y-147801464D01*
X145308535Y-147593582D01*
X145304410Y-147586438D01*
X145262116Y-147500674D01*
X145193830Y-147362204D01*
X145190677Y-147354590D01*
X145190676Y-147354588D01*
X145110311Y-147117841D01*
X145108178Y-147109878D01*
X145086103Y-146998898D01*
X145059401Y-146864655D01*
X145058327Y-146856490D01*
X145041859Y-146605224D01*
X145041727Y-146600762D01*
X145049669Y-145343693D01*
X193644341Y-145343693D01*
X193664937Y-145579104D01*
X193726096Y-145807354D01*
X193726098Y-145807358D01*
X193825966Y-146021525D01*
X193961498Y-146215085D01*
X193961502Y-146215090D01*
X193961505Y-146215094D01*
X194128599Y-146382188D01*
X194128603Y-146382191D01*
X194128607Y-146382194D01*
X194322167Y-146517726D01*
X194322166Y-146517726D01*
X194398304Y-146553230D01*
X194536337Y-146617596D01*
X194764592Y-146678756D01*
X194941034Y-146694193D01*
X194941035Y-146694193D01*
X195058965Y-146694193D01*
X195058966Y-146694193D01*
X195235408Y-146678756D01*
X195463663Y-146617596D01*
X195677829Y-146517728D01*
X195871401Y-146382188D01*
X196038495Y-146215094D01*
X196174035Y-146021523D01*
X196273903Y-145807356D01*
X196335063Y-145579101D01*
X196355659Y-145343693D01*
X196335063Y-145108285D01*
X196273903Y-144880030D01*
X196174035Y-144665864D01*
X196174034Y-144665862D01*
X196174033Y-144665860D01*
X196038501Y-144472300D01*
X196038497Y-144472295D01*
X196038495Y-144472292D01*
X195871401Y-144305198D01*
X195871397Y-144305195D01*
X195871392Y-144305191D01*
X195677832Y-144169659D01*
X195677833Y-144169659D01*
X195463665Y-144069791D01*
X195463661Y-144069789D01*
X195235411Y-144008630D01*
X195103076Y-143997052D01*
X195058966Y-143993193D01*
X194941034Y-143993193D01*
X194905745Y-143996280D01*
X194764588Y-144008630D01*
X194536338Y-144069789D01*
X194536334Y-144069791D01*
X194322167Y-144169659D01*
X194128607Y-144305191D01*
X194128596Y-144305200D01*
X193961507Y-144472289D01*
X193961502Y-144472295D01*
X193825965Y-144665862D01*
X193726098Y-144880027D01*
X193726096Y-144880031D01*
X193664937Y-145108281D01*
X193644341Y-145343693D01*
X145049669Y-145343693D01*
X145061114Y-143532334D01*
X145061291Y-143531248D01*
X145061291Y-143504368D01*
X145061393Y-143488257D01*
X145061284Y-143487107D01*
X145061284Y-143446760D01*
X145061285Y-143371458D01*
X145060730Y-143367239D01*
X145026631Y-143108218D01*
X144995807Y-142993177D01*
X144957911Y-142851743D01*
X144957909Y-142851738D01*
X144856305Y-142606441D01*
X144856303Y-142606437D01*
X144723546Y-142376492D01*
X144621646Y-142243693D01*
X146390818Y-142243693D01*
X146411455Y-142400453D01*
X146463888Y-142527036D01*
X146471964Y-142546534D01*
X146568218Y-142671975D01*
X146693659Y-142768229D01*
X146839738Y-142828737D01*
X146996500Y-142849375D01*
X147153262Y-142828737D01*
X147299341Y-142768229D01*
X147424782Y-142671975D01*
X147521036Y-142546534D01*
X147581544Y-142400455D01*
X147602182Y-142243693D01*
X147596347Y-142199375D01*
X147583767Y-142103818D01*
X147581544Y-142086931D01*
X147521036Y-141940852D01*
X147424782Y-141815411D01*
X147299341Y-141719157D01*
X147221544Y-141686932D01*
X147153260Y-141658648D01*
X146996500Y-141638011D01*
X146839739Y-141658648D01*
X146693660Y-141719156D01*
X146693657Y-141719158D01*
X146568218Y-141815411D01*
X146471965Y-141940850D01*
X146471963Y-141940853D01*
X146411455Y-142086932D01*
X146390818Y-142243692D01*
X146390818Y-142243693D01*
X144621646Y-142243693D01*
X144561910Y-142165844D01*
X144374162Y-141978095D01*
X144374160Y-141978093D01*
X144374153Y-141978087D01*
X144163518Y-141816460D01*
X143933581Y-141683706D01*
X143933573Y-141683702D01*
X143933569Y-141683700D01*
X143688264Y-141582092D01*
X143431794Y-141513371D01*
X143431792Y-141513370D01*
X143431786Y-141513369D01*
X143168552Y-141478715D01*
X143168549Y-141478715D01*
X143074466Y-141478715D01*
X143049890Y-141476295D01*
X143040864Y-141474500D01*
X143040863Y-141474500D01*
X119658285Y-141474500D01*
X119650000Y-141474500D01*
X119517242Y-141474500D01*
X119517239Y-141474500D01*
X119254004Y-141509155D01*
X119238270Y-141513371D01*
X118997527Y-141577878D01*
X118802528Y-141658649D01*
X118752220Y-141679487D01*
X118752210Y-141679492D01*
X118522281Y-141812242D01*
X118522274Y-141812247D01*
X118311635Y-141973876D01*
X118311614Y-141973895D01*
X118123895Y-142161614D01*
X118123876Y-142161635D01*
X117962247Y-142372274D01*
X117962242Y-142372281D01*
X117829492Y-142602210D01*
X117829487Y-142602220D01*
X117829486Y-142602222D01*
X117735661Y-142828737D01*
X117727878Y-142847527D01*
X117659155Y-143104004D01*
X117624500Y-143367239D01*
X117624500Y-146600834D01*
X117624365Y-146604955D01*
X117607879Y-146856490D01*
X117606803Y-146864670D01*
X117558027Y-147109881D01*
X117555892Y-147117849D01*
X117475531Y-147354588D01*
X117472374Y-147362210D01*
X117361796Y-147586442D01*
X117357674Y-147593580D01*
X117288224Y-147697521D01*
X117218777Y-147801456D01*
X117213755Y-147808001D01*
X117048913Y-147995968D01*
X117043080Y-148001801D01*
X116855107Y-148166650D01*
X116848562Y-148171672D01*
X116640688Y-148310570D01*
X116633548Y-148314692D01*
X116521431Y-148369982D01*
X116409318Y-148425270D01*
X116401696Y-148428427D01*
X116164953Y-148508790D01*
X116156985Y-148510925D01*
X115911776Y-148559702D01*
X115903601Y-148560778D01*
X115839765Y-148564962D01*
X115681328Y-148575345D01*
X115667477Y-148574438D01*
X115667477Y-148574500D01*
X60400238Y-148574500D01*
X60332117Y-148554498D01*
X60311147Y-148537600D01*
X59941909Y-148168402D01*
X59907881Y-148106092D01*
X59905000Y-148079302D01*
X59905000Y-145343693D01*
X61240841Y-145343693D01*
X61261437Y-145579104D01*
X61322596Y-145807354D01*
X61322598Y-145807358D01*
X61422466Y-146021525D01*
X61557998Y-146215085D01*
X61558002Y-146215090D01*
X61558005Y-146215094D01*
X61725099Y-146382188D01*
X61725103Y-146382191D01*
X61725107Y-146382194D01*
X61918667Y-146517726D01*
X61918666Y-146517726D01*
X61994804Y-146553230D01*
X62132837Y-146617596D01*
X62361092Y-146678756D01*
X62537534Y-146694193D01*
X62537535Y-146694193D01*
X62655465Y-146694193D01*
X62655466Y-146694193D01*
X62831908Y-146678756D01*
X63060163Y-146617596D01*
X63274329Y-146517728D01*
X63467901Y-146382188D01*
X63634995Y-146215094D01*
X63770535Y-146021523D01*
X63870403Y-145807356D01*
X63931563Y-145579101D01*
X63952159Y-145343693D01*
X63931563Y-145108285D01*
X63870403Y-144880030D01*
X63770535Y-144665864D01*
X63770534Y-144665862D01*
X63770533Y-144665860D01*
X63755012Y-144643693D01*
X113230818Y-144643693D01*
X113251455Y-144800453D01*
X113284418Y-144880031D01*
X113311964Y-144946534D01*
X113408218Y-145071975D01*
X113533659Y-145168229D01*
X113679738Y-145228737D01*
X113836500Y-145249375D01*
X113993262Y-145228737D01*
X114139341Y-145168229D01*
X114264782Y-145071975D01*
X114361036Y-144946534D01*
X114421544Y-144800455D01*
X114442182Y-144643693D01*
X114421544Y-144486931D01*
X114361036Y-144340852D01*
X114264782Y-144215411D01*
X114139341Y-144119157D01*
X114020162Y-144069791D01*
X113993260Y-144058648D01*
X113836500Y-144038011D01*
X113679739Y-144058648D01*
X113533660Y-144119156D01*
X113533657Y-144119158D01*
X113408218Y-144215411D01*
X113311965Y-144340850D01*
X113311963Y-144340853D01*
X113251455Y-144486932D01*
X113230818Y-144643692D01*
X113230818Y-144643693D01*
X63755012Y-144643693D01*
X63635001Y-144472300D01*
X63634997Y-144472295D01*
X63634995Y-144472292D01*
X63467901Y-144305198D01*
X63467897Y-144305195D01*
X63467892Y-144305191D01*
X63274332Y-144169659D01*
X63274333Y-144169659D01*
X63060165Y-144069791D01*
X63060161Y-144069789D01*
X62831911Y-144008630D01*
X62826265Y-144008136D01*
X70124758Y-144008136D01*
X70145395Y-144164896D01*
X70147368Y-144169658D01*
X70205904Y-144310977D01*
X70302158Y-144436418D01*
X70427599Y-144532672D01*
X70573678Y-144593180D01*
X70730440Y-144613818D01*
X70887202Y-144593180D01*
X71033281Y-144532672D01*
X71158722Y-144436418D01*
X71254976Y-144310977D01*
X71315484Y-144164898D01*
X71336122Y-144008136D01*
X71315484Y-143851374D01*
X71254976Y-143705295D01*
X71158722Y-143579854D01*
X71033281Y-143483600D01*
X70944347Y-143446762D01*
X70887200Y-143423091D01*
X70730440Y-143402454D01*
X70573679Y-143423091D01*
X70427600Y-143483599D01*
X70427597Y-143483601D01*
X70302158Y-143579854D01*
X70205905Y-143705293D01*
X70205903Y-143705296D01*
X70145395Y-143851375D01*
X70124758Y-144008135D01*
X70124758Y-144008136D01*
X62826265Y-144008136D01*
X62699576Y-143997052D01*
X62655466Y-143993193D01*
X62537534Y-143993193D01*
X62502245Y-143996280D01*
X62361088Y-144008630D01*
X62132838Y-144069789D01*
X62132834Y-144069791D01*
X61918667Y-144169659D01*
X61725107Y-144305191D01*
X61725096Y-144305200D01*
X61558007Y-144472289D01*
X61558002Y-144472295D01*
X61422465Y-144665862D01*
X61322598Y-144880027D01*
X61322596Y-144880031D01*
X61261437Y-145108281D01*
X61240841Y-145343693D01*
X59905000Y-145343693D01*
X59905000Y-143290000D01*
X111804318Y-143290000D01*
X111824955Y-143446760D01*
X111880085Y-143579854D01*
X111885464Y-143592841D01*
X111981718Y-143718282D01*
X112107159Y-143814536D01*
X112253238Y-143875044D01*
X112410000Y-143895682D01*
X112566762Y-143875044D01*
X112712841Y-143814536D01*
X112838282Y-143718282D01*
X112934536Y-143592841D01*
X112995044Y-143446762D01*
X113015682Y-143290000D01*
X112995044Y-143133238D01*
X112934536Y-142987159D01*
X112838282Y-142861718D01*
X112712841Y-142765464D01*
X112676607Y-142750455D01*
X112566760Y-142704955D01*
X112410000Y-142684318D01*
X112253239Y-142704955D01*
X112107160Y-142765463D01*
X112107157Y-142765465D01*
X111981718Y-142861718D01*
X111885465Y-142987157D01*
X111885463Y-142987160D01*
X111824955Y-143133239D01*
X111804318Y-143289999D01*
X111804318Y-143290000D01*
X59905000Y-143290000D01*
X59905000Y-142593693D01*
X88490818Y-142593693D01*
X88511455Y-142750453D01*
X88560240Y-142868229D01*
X88571964Y-142896534D01*
X88668218Y-143021975D01*
X88793659Y-143118229D01*
X88939738Y-143178737D01*
X89096500Y-143199375D01*
X89253262Y-143178737D01*
X89399341Y-143118229D01*
X89524782Y-143021975D01*
X89621036Y-142896534D01*
X89681544Y-142750455D01*
X89702182Y-142593693D01*
X89693406Y-142527036D01*
X89683123Y-142448928D01*
X89681544Y-142436931D01*
X89621036Y-142290852D01*
X89524782Y-142165411D01*
X89399341Y-142069157D01*
X89331010Y-142040853D01*
X89253260Y-142008648D01*
X89096500Y-141988011D01*
X88939739Y-142008648D01*
X88793660Y-142069156D01*
X88793657Y-142069158D01*
X88668218Y-142165411D01*
X88571965Y-142290850D01*
X88571963Y-142290853D01*
X88511455Y-142436932D01*
X88490818Y-142593692D01*
X88490818Y-142593693D01*
X59905000Y-142593693D01*
X59905000Y-141343693D01*
X91490818Y-141343693D01*
X91511455Y-141500453D01*
X91571694Y-141645881D01*
X91571964Y-141646534D01*
X91668218Y-141771975D01*
X91793659Y-141868229D01*
X91939738Y-141928737D01*
X92096500Y-141949375D01*
X92253262Y-141928737D01*
X92399341Y-141868229D01*
X92524782Y-141771975D01*
X92621036Y-141646534D01*
X92621036Y-141646531D01*
X92621537Y-141645880D01*
X92678875Y-141604013D01*
X92749746Y-141599791D01*
X92811649Y-141634555D01*
X92821463Y-141645881D01*
X92914392Y-141766990D01*
X92939992Y-141833210D01*
X92925727Y-141902759D01*
X92914392Y-141920396D01*
X92821968Y-142040846D01*
X92821963Y-142040853D01*
X92761455Y-142186932D01*
X92740818Y-142343692D01*
X92740818Y-142343693D01*
X92761455Y-142500453D01*
X92803609Y-142602220D01*
X92821964Y-142646534D01*
X92918218Y-142771975D01*
X93043659Y-142868229D01*
X93189738Y-142928737D01*
X93346500Y-142949375D01*
X93503262Y-142928737D01*
X93649341Y-142868229D01*
X93774782Y-142771975D01*
X93801419Y-142737260D01*
X93858754Y-142695394D01*
X93929625Y-142691170D01*
X93991529Y-142725933D01*
X94017789Y-142765744D01*
X94071964Y-142896534D01*
X94168218Y-143021975D01*
X94293659Y-143118229D01*
X94439738Y-143178737D01*
X94596500Y-143199375D01*
X94753262Y-143178737D01*
X94899341Y-143118229D01*
X95024782Y-143021975D01*
X95121036Y-142896534D01*
X95121036Y-142896531D01*
X95121537Y-142895880D01*
X95178875Y-142854013D01*
X95249746Y-142849791D01*
X95311649Y-142884555D01*
X95321463Y-142895880D01*
X95321963Y-142896531D01*
X95321964Y-142896534D01*
X95418218Y-143021975D01*
X95543659Y-143118229D01*
X95689738Y-143178737D01*
X95846500Y-143199375D01*
X96003262Y-143178737D01*
X96149341Y-143118229D01*
X96274782Y-143021975D01*
X96371036Y-142896534D01*
X96431544Y-142750455D01*
X96452182Y-142593693D01*
X96740818Y-142593693D01*
X96761455Y-142750453D01*
X96810240Y-142868229D01*
X96821964Y-142896534D01*
X96918218Y-143021975D01*
X97043659Y-143118229D01*
X97189738Y-143178737D01*
X97346500Y-143199375D01*
X97503262Y-143178737D01*
X97649341Y-143118229D01*
X97774782Y-143021975D01*
X97871036Y-142896534D01*
X97931544Y-142750455D01*
X97952182Y-142593693D01*
X97951735Y-142590300D01*
X97952182Y-142587434D01*
X97952182Y-142585435D01*
X97952494Y-142585435D01*
X97962670Y-142520153D01*
X98009795Y-142467052D01*
X98078148Y-142447858D01*
X98093099Y-142448927D01*
X98096500Y-142449375D01*
X98253262Y-142428737D01*
X98399341Y-142368229D01*
X98524782Y-142271975D01*
X98621036Y-142146534D01*
X98681544Y-142000455D01*
X98702182Y-141843693D01*
X98698596Y-141816458D01*
X98681544Y-141686932D01*
X98680206Y-141683700D01*
X98642924Y-141593693D01*
X99990818Y-141593693D01*
X100011455Y-141750453D01*
X100060240Y-141868229D01*
X100071964Y-141896534D01*
X100168218Y-142021975D01*
X100293659Y-142118229D01*
X100439738Y-142178737D01*
X100596500Y-142199375D01*
X100753262Y-142178737D01*
X100899341Y-142118229D01*
X101024782Y-142021975D01*
X101086155Y-141941992D01*
X109516310Y-141941992D01*
X109536947Y-142098752D01*
X109596280Y-142241993D01*
X109597456Y-142244833D01*
X109693710Y-142370274D01*
X109819151Y-142466528D01*
X109965230Y-142527036D01*
X110121992Y-142547674D01*
X110278754Y-142527036D01*
X110424833Y-142466528D01*
X110550274Y-142370274D01*
X110646528Y-142244833D01*
X110707036Y-142098754D01*
X110727674Y-141941992D01*
X110707036Y-141785230D01*
X110646528Y-141639151D01*
X110550274Y-141513710D01*
X110424833Y-141417456D01*
X110278754Y-141356948D01*
X110278752Y-141356947D01*
X110150021Y-141340000D01*
X113690818Y-141340000D01*
X113711455Y-141496760D01*
X113770436Y-141639151D01*
X113771964Y-141642841D01*
X113868218Y-141768282D01*
X113993659Y-141864536D01*
X114139738Y-141925044D01*
X114296500Y-141945682D01*
X114453262Y-141925044D01*
X114599341Y-141864536D01*
X114724782Y-141768282D01*
X114821036Y-141642841D01*
X114881544Y-141496762D01*
X114902182Y-141340000D01*
X114881544Y-141183238D01*
X114821036Y-141037159D01*
X114724782Y-140911718D01*
X114599341Y-140815464D01*
X114524897Y-140784628D01*
X114453260Y-140754955D01*
X114296500Y-140734318D01*
X114139739Y-140754955D01*
X113993660Y-140815463D01*
X113993657Y-140815465D01*
X113868218Y-140911718D01*
X113771965Y-141037157D01*
X113771963Y-141037160D01*
X113711455Y-141183239D01*
X113690818Y-141339999D01*
X113690818Y-141340000D01*
X110150021Y-141340000D01*
X110121992Y-141336310D01*
X109965231Y-141356947D01*
X109819152Y-141417455D01*
X109819149Y-141417457D01*
X109693710Y-141513710D01*
X109597457Y-141639149D01*
X109597455Y-141639152D01*
X109536947Y-141785231D01*
X109516310Y-141941991D01*
X109516310Y-141941992D01*
X101086155Y-141941992D01*
X101121036Y-141896534D01*
X101181544Y-141750455D01*
X101202182Y-141593693D01*
X101181544Y-141436931D01*
X101121036Y-141290852D01*
X101024782Y-141165411D01*
X100899341Y-141069157D01*
X100859925Y-141052830D01*
X100753260Y-141008648D01*
X100596500Y-140988011D01*
X100439739Y-141008648D01*
X100293660Y-141069156D01*
X100293657Y-141069158D01*
X100168218Y-141165411D01*
X100071965Y-141290850D01*
X100071963Y-141290853D01*
X100011455Y-141436932D01*
X99990818Y-141593692D01*
X99990818Y-141593693D01*
X98642924Y-141593693D01*
X98621036Y-141540852D01*
X98524782Y-141415411D01*
X98399341Y-141319157D01*
X98399338Y-141319156D01*
X98398687Y-141318656D01*
X98356820Y-141261318D01*
X98352598Y-141190447D01*
X98387362Y-141128544D01*
X98398687Y-141118730D01*
X98399338Y-141118229D01*
X98399341Y-141118229D01*
X98524782Y-141021975D01*
X98621036Y-140896534D01*
X98681544Y-140750455D01*
X98702182Y-140593693D01*
X98681544Y-140436931D01*
X98621036Y-140290852D01*
X98524782Y-140165411D01*
X98399341Y-140069157D01*
X98359925Y-140052830D01*
X98253260Y-140008648D01*
X98096500Y-139988011D01*
X97939739Y-140008648D01*
X97793660Y-140069156D01*
X97793657Y-140069158D01*
X97668218Y-140165411D01*
X97571965Y-140290850D01*
X97571963Y-140290853D01*
X97511455Y-140436932D01*
X97490818Y-140593692D01*
X97490818Y-140593693D01*
X97511455Y-140750453D01*
X97550077Y-140843693D01*
X97571964Y-140896534D01*
X97668217Y-141021974D01*
X97668220Y-141021977D01*
X97794312Y-141118731D01*
X97836179Y-141176069D01*
X97840401Y-141246940D01*
X97805637Y-141308842D01*
X97794312Y-141318655D01*
X97668220Y-141415408D01*
X97571965Y-141540850D01*
X97571963Y-141540853D01*
X97511455Y-141686932D01*
X97490818Y-141843692D01*
X97490818Y-141843696D01*
X97491265Y-141847092D01*
X97490818Y-141849958D01*
X97490818Y-141851951D01*
X97490507Y-141851951D01*
X97480325Y-141917240D01*
X97433196Y-141970338D01*
X97364842Y-141989527D01*
X97349899Y-141988458D01*
X97346503Y-141988011D01*
X97346500Y-141988011D01*
X97189739Y-142008648D01*
X97043660Y-142069156D01*
X97043657Y-142069158D01*
X96918218Y-142165411D01*
X96821965Y-142290850D01*
X96821963Y-142290853D01*
X96761455Y-142436932D01*
X96740818Y-142593692D01*
X96740818Y-142593693D01*
X96452182Y-142593693D01*
X96443406Y-142527036D01*
X96433123Y-142448928D01*
X96431544Y-142436931D01*
X96371036Y-142290852D01*
X96274782Y-142165411D01*
X96149341Y-142069157D01*
X96081010Y-142040853D01*
X96003260Y-142008648D01*
X95846500Y-141988011D01*
X95689739Y-142008648D01*
X95543660Y-142069156D01*
X95543657Y-142069158D01*
X95418215Y-142165413D01*
X95321462Y-142291505D01*
X95264124Y-142333372D01*
X95193253Y-142337594D01*
X95131351Y-142302830D01*
X95121538Y-142291505D01*
X95024784Y-142165413D01*
X95024782Y-142165412D01*
X95024782Y-142165411D01*
X94899341Y-142069157D01*
X94831010Y-142040853D01*
X94753260Y-142008648D01*
X94596500Y-141988011D01*
X94439739Y-142008648D01*
X94293660Y-142069156D01*
X94293657Y-142069158D01*
X94168217Y-142165411D01*
X94141580Y-142200126D01*
X94084242Y-142241993D01*
X94013371Y-142246214D01*
X93951468Y-142211449D01*
X93925211Y-142171642D01*
X93871036Y-142040852D01*
X93871032Y-142040847D01*
X93871031Y-142040845D01*
X93778608Y-141920397D01*
X93753007Y-141854177D01*
X93767272Y-141784628D01*
X93778608Y-141766989D01*
X93815310Y-141719158D01*
X93871036Y-141646534D01*
X93931544Y-141500455D01*
X93952182Y-141343693D01*
X93931544Y-141186931D01*
X93871036Y-141040852D01*
X93871032Y-141040847D01*
X93871031Y-141040845D01*
X93778608Y-140920397D01*
X93753007Y-140854177D01*
X93767272Y-140784628D01*
X93778608Y-140766989D01*
X93871031Y-140646540D01*
X93871032Y-140646539D01*
X93871036Y-140646534D01*
X93931544Y-140500455D01*
X93952182Y-140343693D01*
X93948343Y-140314536D01*
X93931544Y-140186932D01*
X93903087Y-140118229D01*
X93871036Y-140040852D01*
X93774782Y-139915411D01*
X93649341Y-139819157D01*
X93578948Y-139789999D01*
X93503260Y-139758648D01*
X93346500Y-139738011D01*
X93189739Y-139758648D01*
X93043660Y-139819156D01*
X93043657Y-139819158D01*
X92918215Y-139915413D01*
X92821462Y-140041505D01*
X92764124Y-140083372D01*
X92693253Y-140087594D01*
X92631351Y-140052830D01*
X92621538Y-140041505D01*
X92524784Y-139915413D01*
X92524782Y-139915412D01*
X92524782Y-139915411D01*
X92399341Y-139819157D01*
X92328948Y-139789999D01*
X92253260Y-139758648D01*
X92096500Y-139738011D01*
X91939739Y-139758648D01*
X91793660Y-139819156D01*
X91793657Y-139819158D01*
X91668218Y-139915411D01*
X91571965Y-140040850D01*
X91571963Y-140040853D01*
X91511455Y-140186932D01*
X91490818Y-140343692D01*
X91490818Y-140343693D01*
X91511455Y-140500453D01*
X91571963Y-140646532D01*
X91571968Y-140646539D01*
X91664392Y-140766990D01*
X91689992Y-140833210D01*
X91675727Y-140902759D01*
X91664392Y-140920396D01*
X91571968Y-141040846D01*
X91571963Y-141040853D01*
X91511455Y-141186932D01*
X91490818Y-141343692D01*
X91490818Y-141343693D01*
X59905000Y-141343693D01*
X59905000Y-139593693D01*
X109939713Y-139593693D01*
X109960350Y-139750453D01*
X109963745Y-139758648D01*
X110020859Y-139896534D01*
X110117113Y-140021975D01*
X110242554Y-140118229D01*
X110388633Y-140178737D01*
X110545395Y-140199375D01*
X110702157Y-140178737D01*
X110848236Y-140118229D01*
X110973677Y-140021975D01*
X111069931Y-139896534D01*
X111114059Y-139790000D01*
X149968415Y-139790000D01*
X149989052Y-139946760D01*
X150047388Y-140087594D01*
X150049561Y-140092841D01*
X150145815Y-140218282D01*
X150271256Y-140314536D01*
X150417335Y-140375044D01*
X150574097Y-140395682D01*
X150730859Y-140375044D01*
X150876938Y-140314536D01*
X151002379Y-140218282D01*
X151098633Y-140092841D01*
X151159141Y-139946762D01*
X151179779Y-139790000D01*
X151175651Y-139758648D01*
X151159141Y-139633239D01*
X151142761Y-139593693D01*
X151098633Y-139487159D01*
X151098628Y-139487152D01*
X151076372Y-139458147D01*
X151050772Y-139391927D01*
X151065037Y-139322378D01*
X151076373Y-139304740D01*
X151121031Y-139246540D01*
X151121036Y-139246534D01*
X151181544Y-139100455D01*
X151202182Y-138943693D01*
X151181544Y-138786931D01*
X151121036Y-138640852D01*
X151024782Y-138515411D01*
X150899341Y-138419157D01*
X150753262Y-138358649D01*
X150753260Y-138358648D01*
X150596500Y-138338011D01*
X150439739Y-138358648D01*
X150293660Y-138419156D01*
X150293657Y-138419158D01*
X150168218Y-138515411D01*
X150071965Y-138640850D01*
X150071963Y-138640853D01*
X150011455Y-138786932D01*
X149990818Y-138943692D01*
X149990818Y-138943693D01*
X150011455Y-139100453D01*
X150071963Y-139246532D01*
X150071968Y-139246540D01*
X150094224Y-139275545D01*
X150119824Y-139341766D01*
X150105559Y-139411314D01*
X150094225Y-139428951D01*
X150049562Y-139487157D01*
X150049560Y-139487160D01*
X149989052Y-139633239D01*
X149968415Y-139789999D01*
X149968415Y-139790000D01*
X111114059Y-139790000D01*
X111130439Y-139750455D01*
X111151077Y-139593693D01*
X111130439Y-139436931D01*
X111069931Y-139290852D01*
X110973677Y-139165411D01*
X110848236Y-139069157D01*
X110785933Y-139043350D01*
X110702155Y-139008648D01*
X110545395Y-138988011D01*
X110388634Y-139008648D01*
X110242555Y-139069156D01*
X110242552Y-139069158D01*
X110117113Y-139165411D01*
X110020860Y-139290850D01*
X110020858Y-139290853D01*
X109960350Y-139436932D01*
X109939713Y-139593692D01*
X109939713Y-139593693D01*
X59905000Y-139593693D01*
X59905000Y-138518814D01*
X111256940Y-138518814D01*
X111277577Y-138675574D01*
X111277578Y-138675576D01*
X111338086Y-138821655D01*
X111434340Y-138947096D01*
X111559781Y-139043350D01*
X111705860Y-139103858D01*
X111862622Y-139124496D01*
X112019384Y-139103858D01*
X112165463Y-139043350D01*
X112290904Y-138947096D01*
X112387158Y-138821655D01*
X112447666Y-138675576D01*
X112468304Y-138518814D01*
X112447666Y-138362052D01*
X112432375Y-138325138D01*
X112424787Y-138254551D01*
X112456566Y-138191064D01*
X112500563Y-138160515D01*
X112635711Y-138104536D01*
X112761152Y-138008282D01*
X112857406Y-137882841D01*
X112917914Y-137736762D01*
X112938552Y-137580000D01*
X112917914Y-137423238D01*
X112857406Y-137277159D01*
X112761152Y-137151718D01*
X112635711Y-137055464D01*
X112489632Y-136994956D01*
X112489630Y-136994955D01*
X112332870Y-136974318D01*
X112176109Y-136994955D01*
X112030030Y-137055463D01*
X112030027Y-137055465D01*
X111904588Y-137151718D01*
X111808335Y-137277157D01*
X111808333Y-137277160D01*
X111747825Y-137423239D01*
X111727188Y-137579999D01*
X111727188Y-137580000D01*
X111747826Y-137736762D01*
X111763115Y-137773674D01*
X111770704Y-137844264D01*
X111738924Y-137907751D01*
X111694924Y-137938300D01*
X111559782Y-137994277D01*
X111559779Y-137994279D01*
X111434340Y-138090532D01*
X111338087Y-138215971D01*
X111338085Y-138215974D01*
X111277577Y-138362053D01*
X111256940Y-138518813D01*
X111256940Y-138518814D01*
X59905000Y-138518814D01*
X59905000Y-137080000D01*
X107574318Y-137080000D01*
X107594955Y-137236760D01*
X107594956Y-137236762D01*
X107655464Y-137382841D01*
X107751718Y-137508282D01*
X107877159Y-137604536D01*
X108023238Y-137665044D01*
X108180000Y-137685682D01*
X108336762Y-137665044D01*
X108482841Y-137604536D01*
X108608282Y-137508282D01*
X108704536Y-137382841D01*
X108765044Y-137236762D01*
X108785682Y-137080000D01*
X108765044Y-136923238D01*
X108704536Y-136777159D01*
X108608282Y-136651718D01*
X108482841Y-136555464D01*
X108336762Y-136494956D01*
X108336760Y-136494955D01*
X108180000Y-136474318D01*
X108023239Y-136494955D01*
X107877160Y-136555463D01*
X107877157Y-136555465D01*
X107751718Y-136651718D01*
X107655465Y-136777157D01*
X107655463Y-136777160D01*
X107594955Y-136923239D01*
X107574318Y-137079999D01*
X107574318Y-137080000D01*
X59905000Y-137080000D01*
X59905000Y-135158696D01*
X61390917Y-135158696D01*
X61411198Y-135364620D01*
X61471268Y-135562647D01*
X61515310Y-135645044D01*
X61568815Y-135745143D01*
X61700090Y-135905103D01*
X61860050Y-136036378D01*
X62042546Y-136133925D01*
X62240566Y-136193993D01*
X62240570Y-136193993D01*
X62240572Y-136193994D01*
X62446497Y-136214276D01*
X62446500Y-136214276D01*
X62446503Y-136214276D01*
X62652427Y-136193994D01*
X62652428Y-136193993D01*
X62652434Y-136193993D01*
X62850454Y-136133925D01*
X63032950Y-136036378D01*
X63192910Y-135905103D01*
X63324185Y-135745143D01*
X63353660Y-135690000D01*
X172279196Y-135690000D01*
X172300281Y-135823126D01*
X172361472Y-135943220D01*
X172456780Y-136038528D01*
X172576874Y-136099719D01*
X172710000Y-136120804D01*
X172843126Y-136099719D01*
X172963220Y-136038528D01*
X173058528Y-135943220D01*
X173119719Y-135823126D01*
X173140804Y-135690000D01*
X173119719Y-135556874D01*
X173058528Y-135436780D01*
X172963220Y-135341472D01*
X172963219Y-135341471D01*
X172903173Y-135310876D01*
X172843126Y-135280281D01*
X172710000Y-135259196D01*
X172576874Y-135280281D01*
X172576872Y-135280281D01*
X172576872Y-135280282D01*
X172456780Y-135341471D01*
X172361471Y-135436780D01*
X172335230Y-135488282D01*
X172300281Y-135556874D01*
X172279196Y-135690000D01*
X63353660Y-135690000D01*
X63421732Y-135562647D01*
X63481800Y-135364627D01*
X63489902Y-135282375D01*
X63502083Y-135158696D01*
X63502083Y-135158689D01*
X63481801Y-134952765D01*
X63481800Y-134952763D01*
X63481800Y-134952759D01*
X63421732Y-134754739D01*
X63380015Y-134676693D01*
X102435818Y-134676693D01*
X102456455Y-134833453D01*
X102514009Y-134972399D01*
X102516964Y-134979534D01*
X102613218Y-135104975D01*
X102738659Y-135201229D01*
X102884738Y-135261737D01*
X103041500Y-135282375D01*
X103198262Y-135261737D01*
X103344341Y-135201229D01*
X103469782Y-135104975D01*
X103566036Y-134979534D01*
X103626544Y-134833455D01*
X103647182Y-134676693D01*
X103633803Y-134575066D01*
X127775546Y-134575066D01*
X127796183Y-134731826D01*
X127838279Y-134833453D01*
X127856692Y-134877907D01*
X127952946Y-135003348D01*
X128078387Y-135099602D01*
X128224466Y-135160110D01*
X128381228Y-135180748D01*
X128537990Y-135160110D01*
X128684069Y-135099602D01*
X128809510Y-135003348D01*
X128905764Y-134877907D01*
X128926441Y-134827987D01*
X128970987Y-134772708D01*
X129038351Y-134750286D01*
X129107142Y-134767844D01*
X129155521Y-134819805D01*
X129159255Y-134827981D01*
X129165830Y-134843854D01*
X129262084Y-134969295D01*
X129387525Y-135065549D01*
X129533604Y-135126057D01*
X129690366Y-135146695D01*
X129847128Y-135126057D01*
X129993207Y-135065549D01*
X130000439Y-135060000D01*
X187694318Y-135060000D01*
X187714955Y-135216760D01*
X187766613Y-135341472D01*
X187775464Y-135362841D01*
X187871718Y-135488282D01*
X187997159Y-135584536D01*
X188143238Y-135645044D01*
X188300000Y-135665682D01*
X188456762Y-135645044D01*
X188602841Y-135584536D01*
X188728282Y-135488282D01*
X188824536Y-135362841D01*
X188885044Y-135216762D01*
X188905682Y-135060000D01*
X188885044Y-134903238D01*
X188824536Y-134757159D01*
X188728282Y-134631718D01*
X188602841Y-134535464D01*
X188565344Y-134519932D01*
X188456760Y-134474955D01*
X188300000Y-134454318D01*
X188143239Y-134474955D01*
X187997160Y-134535463D01*
X187997157Y-134535465D01*
X187871718Y-134631718D01*
X187775465Y-134757157D01*
X187775463Y-134757160D01*
X187714955Y-134903239D01*
X187694318Y-135059999D01*
X187694318Y-135060000D01*
X130000439Y-135060000D01*
X130118648Y-134969295D01*
X130214902Y-134843854D01*
X130275410Y-134697775D01*
X130289599Y-134590000D01*
X173419196Y-134590000D01*
X173440281Y-134723126D01*
X173501472Y-134843220D01*
X173596780Y-134938528D01*
X173716874Y-134999719D01*
X173850000Y-135020804D01*
X173983126Y-134999719D01*
X174103220Y-134938528D01*
X174198528Y-134843220D01*
X174259719Y-134723126D01*
X174280804Y-134590000D01*
X174259719Y-134456874D01*
X174198528Y-134336780D01*
X174103220Y-134241472D01*
X174103219Y-134241471D01*
X174043173Y-134210876D01*
X173983126Y-134180281D01*
X173850000Y-134159196D01*
X173716874Y-134180281D01*
X173716872Y-134180281D01*
X173716872Y-134180282D01*
X173596780Y-134241471D01*
X173501471Y-134336780D01*
X173463001Y-134412283D01*
X173440281Y-134456874D01*
X173419196Y-134590000D01*
X130289599Y-134590000D01*
X130296048Y-134541013D01*
X130295317Y-134535464D01*
X130275410Y-134384252D01*
X130271103Y-134373852D01*
X130214902Y-134238172D01*
X130118648Y-134112731D01*
X129993207Y-134016477D01*
X129847128Y-133955969D01*
X129847126Y-133955968D01*
X129690366Y-133935331D01*
X129533605Y-133955968D01*
X129387526Y-134016476D01*
X129387523Y-134016478D01*
X129262084Y-134112731D01*
X129165831Y-134238170D01*
X129165828Y-134238175D01*
X129145152Y-134288092D01*
X129100603Y-134343372D01*
X129033240Y-134365792D01*
X128964449Y-134348233D01*
X128916071Y-134296270D01*
X128912336Y-134288092D01*
X128905764Y-134272225D01*
X128809510Y-134146784D01*
X128684069Y-134050530D01*
X128601861Y-134016478D01*
X128537988Y-133990021D01*
X128381228Y-133969384D01*
X128224467Y-133990021D01*
X128078388Y-134050529D01*
X128078385Y-134050531D01*
X127952946Y-134146784D01*
X127856693Y-134272223D01*
X127856691Y-134272226D01*
X127796183Y-134418305D01*
X127775546Y-134575065D01*
X127775546Y-134575066D01*
X103633803Y-134575066D01*
X103626544Y-134519931D01*
X103566036Y-134373852D01*
X103469782Y-134248411D01*
X103344341Y-134152157D01*
X103331370Y-134146784D01*
X103198260Y-134091648D01*
X103041500Y-134071011D01*
X102884739Y-134091648D01*
X102738660Y-134152156D01*
X102738657Y-134152158D01*
X102613218Y-134248411D01*
X102516965Y-134373850D01*
X102516963Y-134373853D01*
X102456455Y-134519932D01*
X102435818Y-134676692D01*
X102435818Y-134676693D01*
X63380015Y-134676693D01*
X63324185Y-134572243D01*
X63192910Y-134412283D01*
X63032950Y-134281008D01*
X63032948Y-134281007D01*
X63032947Y-134281006D01*
X62850454Y-134183461D01*
X62770462Y-134159196D01*
X62652434Y-134123393D01*
X62652433Y-134123392D01*
X62652427Y-134123391D01*
X62446503Y-134103110D01*
X62446497Y-134103110D01*
X62240572Y-134123391D01*
X62042545Y-134183461D01*
X61860052Y-134281006D01*
X61700090Y-134412283D01*
X61568813Y-134572245D01*
X61471268Y-134754738D01*
X61411198Y-134952765D01*
X61390917Y-135158689D01*
X61390917Y-135158696D01*
X59905000Y-135158696D01*
X59905000Y-133635000D01*
X153463628Y-133635000D01*
X153484265Y-133791760D01*
X153484266Y-133791762D01*
X153544774Y-133937841D01*
X153641028Y-134063282D01*
X153766469Y-134159536D01*
X153912548Y-134220044D01*
X154069310Y-134240682D01*
X154226072Y-134220044D01*
X154372151Y-134159536D01*
X154497592Y-134063282D01*
X154593846Y-133937841D01*
X154654354Y-133791762D01*
X154674992Y-133635000D01*
X154654354Y-133478238D01*
X154593846Y-133332159D01*
X154497592Y-133206718D01*
X154372151Y-133110464D01*
X154226072Y-133049956D01*
X154226070Y-133049955D01*
X154069310Y-133029318D01*
X153912549Y-133049955D01*
X153766470Y-133110463D01*
X153766467Y-133110465D01*
X153641028Y-133206718D01*
X153544775Y-133332157D01*
X153544773Y-133332160D01*
X153484265Y-133478239D01*
X153463628Y-133634999D01*
X153463628Y-133635000D01*
X59905000Y-133635000D01*
X59905000Y-133007691D01*
X87990818Y-133007691D01*
X88011455Y-133164451D01*
X88054441Y-133268227D01*
X88071964Y-133310532D01*
X88168218Y-133435973D01*
X88293659Y-133532227D01*
X88439738Y-133592735D01*
X88596500Y-133613373D01*
X88753262Y-133592735D01*
X88899341Y-133532227D01*
X89024782Y-133435973D01*
X89121036Y-133310532D01*
X89181544Y-133164453D01*
X89202182Y-133007691D01*
X89181544Y-132850929D01*
X89137125Y-132743693D01*
X105590818Y-132743693D01*
X105611455Y-132900453D01*
X105618691Y-132917921D01*
X105671964Y-133046534D01*
X105768218Y-133171975D01*
X105893659Y-133268229D01*
X106039738Y-133328737D01*
X106196500Y-133349375D01*
X106353262Y-133328737D01*
X106499341Y-133268229D01*
X106624782Y-133171975D01*
X106721036Y-133046534D01*
X106774309Y-132917922D01*
X155342240Y-132917922D01*
X155362877Y-133074682D01*
X155400062Y-133164453D01*
X155423386Y-133220763D01*
X155519640Y-133346204D01*
X155645081Y-133442458D01*
X155791160Y-133502966D01*
X155947922Y-133523604D01*
X156104684Y-133502966D01*
X156250763Y-133442458D01*
X156376204Y-133346204D01*
X156472458Y-133220763D01*
X156532966Y-133074684D01*
X156553604Y-132917922D01*
X156551304Y-132900455D01*
X156532966Y-132761161D01*
X156525731Y-132743692D01*
X156472458Y-132615081D01*
X156376204Y-132489640D01*
X156250763Y-132393386D01*
X156104684Y-132332878D01*
X156104682Y-132332877D01*
X155947922Y-132312240D01*
X155791161Y-132332877D01*
X155645082Y-132393385D01*
X155645079Y-132393387D01*
X155519640Y-132489640D01*
X155423387Y-132615079D01*
X155423385Y-132615082D01*
X155362877Y-132761161D01*
X155342240Y-132917921D01*
X155342240Y-132917922D01*
X106774309Y-132917922D01*
X106781544Y-132900455D01*
X106802182Y-132743693D01*
X106781544Y-132586931D01*
X106724825Y-132450000D01*
X128904867Y-132450000D01*
X128923303Y-132578226D01*
X128977118Y-132696063D01*
X129061951Y-132793967D01*
X129170931Y-132864004D01*
X129295228Y-132900500D01*
X129295232Y-132900500D01*
X129424768Y-132900500D01*
X129424772Y-132900500D01*
X129549069Y-132864004D01*
X129658049Y-132793967D01*
X129742882Y-132696063D01*
X129796697Y-132578226D01*
X129815133Y-132450000D01*
X129796697Y-132321774D01*
X129742882Y-132203937D01*
X129658049Y-132106033D01*
X129658048Y-132106032D01*
X129549073Y-132035998D01*
X129549070Y-132035996D01*
X129549069Y-132035996D01*
X129549066Y-132035995D01*
X129424776Y-131999501D01*
X129424774Y-131999500D01*
X129424772Y-131999500D01*
X129295228Y-131999500D01*
X129295225Y-131999500D01*
X129295223Y-131999501D01*
X129170933Y-132035995D01*
X129170926Y-132035998D01*
X129061951Y-132106032D01*
X128977118Y-132203937D01*
X128923303Y-132321774D01*
X128904867Y-132450000D01*
X106724825Y-132450000D01*
X106721036Y-132440852D01*
X106624782Y-132315411D01*
X106499341Y-132219157D01*
X106353262Y-132158649D01*
X106353260Y-132158648D01*
X106196500Y-132138011D01*
X106039739Y-132158648D01*
X105893660Y-132219156D01*
X105893657Y-132219158D01*
X105768218Y-132315411D01*
X105671965Y-132440850D01*
X105671963Y-132440853D01*
X105611455Y-132586932D01*
X105590818Y-132743692D01*
X105590818Y-132743693D01*
X89137125Y-132743693D01*
X89121036Y-132704850D01*
X89024782Y-132579409D01*
X88899341Y-132483155D01*
X88797216Y-132440853D01*
X88753260Y-132422646D01*
X88596500Y-132402009D01*
X88439739Y-132422646D01*
X88293660Y-132483154D01*
X88293657Y-132483156D01*
X88168218Y-132579409D01*
X88071965Y-132704848D01*
X88071963Y-132704851D01*
X88011455Y-132850930D01*
X87990818Y-133007690D01*
X87990818Y-133007691D01*
X59905000Y-133007691D01*
X59905000Y-131984693D01*
X94942818Y-131984693D01*
X94963455Y-132141453D01*
X94970578Y-132158648D01*
X95023964Y-132287534D01*
X95120218Y-132412975D01*
X95245659Y-132509229D01*
X95391738Y-132569737D01*
X95548500Y-132590375D01*
X95705262Y-132569737D01*
X95851341Y-132509229D01*
X95976782Y-132412975D01*
X96073036Y-132287534D01*
X96133544Y-132141455D01*
X96154182Y-131984693D01*
X96133544Y-131827931D01*
X96073036Y-131681852D01*
X95976782Y-131556411D01*
X95851341Y-131460157D01*
X95845381Y-131457688D01*
X95705260Y-131399648D01*
X95548500Y-131379011D01*
X95391739Y-131399648D01*
X95245660Y-131460156D01*
X95245657Y-131460158D01*
X95120218Y-131556411D01*
X95023965Y-131681850D01*
X95023963Y-131681853D01*
X94963455Y-131827932D01*
X94942818Y-131984692D01*
X94942818Y-131984693D01*
X59905000Y-131984693D01*
X59905000Y-130391312D01*
X87120094Y-130391312D01*
X87140731Y-130548072D01*
X87197421Y-130684932D01*
X87201240Y-130694153D01*
X87270125Y-130783925D01*
X87297495Y-130819595D01*
X87319791Y-130836703D01*
X87361659Y-130894040D01*
X87365881Y-130964911D01*
X87343052Y-131013368D01*
X87321968Y-131040846D01*
X87321963Y-131040853D01*
X87261455Y-131186932D01*
X87240818Y-131343692D01*
X87240818Y-131343693D01*
X87261455Y-131500453D01*
X87261456Y-131500455D01*
X87321964Y-131646534D01*
X87418218Y-131771975D01*
X87543659Y-131868229D01*
X87689738Y-131928737D01*
X87846500Y-131949375D01*
X88003262Y-131928737D01*
X88149341Y-131868229D01*
X88274782Y-131771975D01*
X88371036Y-131646534D01*
X88431544Y-131500455D01*
X88452182Y-131343693D01*
X88431544Y-131186931D01*
X88371036Y-131040852D01*
X88294177Y-130940687D01*
X93805523Y-130940687D01*
X93826160Y-131097447D01*
X93826161Y-131097449D01*
X93886669Y-131243528D01*
X93982923Y-131368969D01*
X94108364Y-131465223D01*
X94254443Y-131525731D01*
X94411205Y-131546369D01*
X94567967Y-131525731D01*
X94714046Y-131465223D01*
X94839487Y-131368969D01*
X94935741Y-131243528D01*
X94975933Y-131146496D01*
X98086526Y-131146496D01*
X98105124Y-131275850D01*
X98105126Y-131275857D01*
X98152234Y-131379011D01*
X98159420Y-131394745D01*
X98245002Y-131493512D01*
X98245006Y-131493515D01*
X98295136Y-131525731D01*
X98354950Y-131564171D01*
X98354949Y-131564171D01*
X98480349Y-131600992D01*
X98480350Y-131600992D01*
X98480353Y-131600993D01*
X98480356Y-131600993D01*
X98611044Y-131600993D01*
X98611047Y-131600993D01*
X98736448Y-131564172D01*
X98846395Y-131493514D01*
X98846397Y-131493511D01*
X98853204Y-131487614D01*
X98854684Y-131489322D01*
X98903891Y-131457694D01*
X98974888Y-131457688D01*
X99024117Y-131489319D01*
X99025596Y-131487614D01*
X99032406Y-131493515D01*
X99082536Y-131525731D01*
X99142350Y-131564171D01*
X99142349Y-131564171D01*
X99267749Y-131600992D01*
X99267750Y-131600992D01*
X99267753Y-131600993D01*
X99267756Y-131600993D01*
X99398444Y-131600993D01*
X99398447Y-131600993D01*
X99523848Y-131564172D01*
X99633795Y-131493514D01*
X99633797Y-131493511D01*
X99640604Y-131487614D01*
X99642084Y-131489322D01*
X99691291Y-131457694D01*
X99762288Y-131457688D01*
X99811517Y-131489319D01*
X99812996Y-131487614D01*
X99819806Y-131493515D01*
X99869936Y-131525731D01*
X99929750Y-131564171D01*
X99929749Y-131564171D01*
X100055149Y-131600992D01*
X100055150Y-131600992D01*
X100055153Y-131600993D01*
X100055156Y-131600993D01*
X100185844Y-131600993D01*
X100185847Y-131600993D01*
X100311248Y-131564172D01*
X100421195Y-131493514D01*
X100421197Y-131493511D01*
X100428004Y-131487614D01*
X100429484Y-131489322D01*
X100478691Y-131457694D01*
X100549688Y-131457688D01*
X100598917Y-131489319D01*
X100600396Y-131487614D01*
X100607206Y-131493515D01*
X100657336Y-131525731D01*
X100717150Y-131564171D01*
X100717149Y-131564171D01*
X100842549Y-131600992D01*
X100842550Y-131600992D01*
X100842553Y-131600993D01*
X100842556Y-131600993D01*
X100973244Y-131600993D01*
X100973247Y-131600993D01*
X101098648Y-131564172D01*
X101208595Y-131493514D01*
X101208597Y-131493511D01*
X101215404Y-131487614D01*
X101216884Y-131489322D01*
X101266091Y-131457694D01*
X101337088Y-131457688D01*
X101386317Y-131489319D01*
X101387796Y-131487614D01*
X101394606Y-131493515D01*
X101444736Y-131525731D01*
X101504550Y-131564171D01*
X101504549Y-131564171D01*
X101629949Y-131600992D01*
X101629950Y-131600992D01*
X101629953Y-131600993D01*
X101629956Y-131600993D01*
X101760644Y-131600993D01*
X101760647Y-131600993D01*
X101886048Y-131564172D01*
X101995995Y-131493514D01*
X101995997Y-131493512D01*
X102081579Y-131394745D01*
X102081579Y-131394743D01*
X102081582Y-131394741D01*
X102135874Y-131275857D01*
X102154474Y-131146493D01*
X102154474Y-131146489D01*
X102135875Y-131017135D01*
X102135874Y-131017134D01*
X102135874Y-131017129D01*
X102081582Y-130898245D01*
X102032579Y-130841693D01*
X105483818Y-130841693D01*
X105504455Y-130998453D01*
X105522017Y-131040850D01*
X105564964Y-131144534D01*
X105661218Y-131269975D01*
X105786659Y-131366229D01*
X105932738Y-131426737D01*
X106089500Y-131447375D01*
X106246262Y-131426737D01*
X106392341Y-131366229D01*
X106517782Y-131269975D01*
X106614036Y-131144534D01*
X106674544Y-130998455D01*
X106695182Y-130841693D01*
X106674544Y-130684931D01*
X106614036Y-130538852D01*
X106517782Y-130413411D01*
X106399854Y-130322922D01*
X157937240Y-130322922D01*
X157957877Y-130479682D01*
X157982387Y-130538853D01*
X158018386Y-130625763D01*
X158114640Y-130751204D01*
X158240081Y-130847458D01*
X158386160Y-130907966D01*
X158542922Y-130928604D01*
X158699684Y-130907966D01*
X158845763Y-130847458D01*
X158971204Y-130751204D01*
X159067458Y-130625763D01*
X159127966Y-130479684D01*
X159148604Y-130322922D01*
X159127966Y-130166160D01*
X159067458Y-130020081D01*
X158971204Y-129894640D01*
X158845763Y-129798386D01*
X158825528Y-129790004D01*
X158699682Y-129737877D01*
X158542922Y-129717240D01*
X158386161Y-129737877D01*
X158240082Y-129798385D01*
X158240079Y-129798387D01*
X158114640Y-129894640D01*
X158018387Y-130020079D01*
X158018385Y-130020082D01*
X157957877Y-130166161D01*
X157937240Y-130322921D01*
X157937240Y-130322922D01*
X106399854Y-130322922D01*
X106392341Y-130317157D01*
X106280863Y-130270981D01*
X106246260Y-130256648D01*
X106089500Y-130236011D01*
X105932739Y-130256648D01*
X105786660Y-130317156D01*
X105786657Y-130317158D01*
X105661218Y-130413411D01*
X105564965Y-130538850D01*
X105564963Y-130538853D01*
X105504455Y-130684932D01*
X105483818Y-130841692D01*
X105483818Y-130841693D01*
X102032579Y-130841693D01*
X102027044Y-130835305D01*
X101997552Y-130770725D01*
X102007655Y-130700451D01*
X102027045Y-130670280D01*
X102055149Y-130637846D01*
X102081582Y-130607341D01*
X102135874Y-130488457D01*
X102146270Y-130416151D01*
X102154474Y-130359096D01*
X102154474Y-130359089D01*
X102135875Y-130229735D01*
X102135874Y-130229734D01*
X102135874Y-130229729D01*
X102081582Y-130110845D01*
X102027044Y-130047905D01*
X101997552Y-129983325D01*
X102007655Y-129913051D01*
X102027045Y-129882880D01*
X102035628Y-129872975D01*
X102081582Y-129819941D01*
X102135874Y-129701057D01*
X102138048Y-129685937D01*
X106458447Y-129685937D01*
X106479084Y-129842697D01*
X106531496Y-129969229D01*
X106539593Y-129988778D01*
X106635847Y-130114219D01*
X106761288Y-130210473D01*
X106907367Y-130270981D01*
X107064129Y-130291619D01*
X107220891Y-130270981D01*
X107366970Y-130210473D01*
X107492411Y-130114219D01*
X107588665Y-129988778D01*
X107649173Y-129842699D01*
X107669811Y-129685937D01*
X107669693Y-129685044D01*
X107649173Y-129529176D01*
X107648803Y-129528281D01*
X107609830Y-129434193D01*
X117790818Y-129434193D01*
X117811455Y-129590953D01*
X117860033Y-129708229D01*
X117871964Y-129737034D01*
X117968218Y-129862475D01*
X118093659Y-129958729D01*
X118239738Y-130019237D01*
X118396500Y-130039875D01*
X118553262Y-130019237D01*
X118699341Y-129958729D01*
X118824782Y-129862475D01*
X118921036Y-129737034D01*
X118981544Y-129590955D01*
X119002182Y-129434193D01*
X118998054Y-129402841D01*
X118981544Y-129277432D01*
X118972983Y-129256762D01*
X118921036Y-129131352D01*
X118896979Y-129100000D01*
X184934318Y-129100000D01*
X184954955Y-129256760D01*
X185007285Y-129383094D01*
X185015464Y-129402841D01*
X185111718Y-129528282D01*
X185237159Y-129624536D01*
X185383238Y-129685044D01*
X185540000Y-129705682D01*
X185696762Y-129685044D01*
X185842841Y-129624536D01*
X185968282Y-129528282D01*
X186064536Y-129402841D01*
X186125044Y-129256762D01*
X186145682Y-129100000D01*
X186125044Y-128943238D01*
X186064536Y-128797159D01*
X185968282Y-128671718D01*
X185842841Y-128575464D01*
X185786890Y-128552288D01*
X185696760Y-128514955D01*
X185540000Y-128494318D01*
X185383239Y-128514955D01*
X185237160Y-128575463D01*
X185237157Y-128575465D01*
X185111718Y-128671718D01*
X185015465Y-128797157D01*
X185015463Y-128797160D01*
X184954955Y-128943239D01*
X184934318Y-129099999D01*
X184934318Y-129100000D01*
X118896979Y-129100000D01*
X118824782Y-129005911D01*
X118699341Y-128909657D01*
X118578612Y-128859649D01*
X118553260Y-128849148D01*
X118396500Y-128828511D01*
X118239739Y-128849148D01*
X118093660Y-128909656D01*
X118093657Y-128909658D01*
X117968218Y-129005911D01*
X117871965Y-129131350D01*
X117871963Y-129131353D01*
X117811455Y-129277432D01*
X117790818Y-129434192D01*
X117790818Y-129434193D01*
X107609830Y-129434193D01*
X107588665Y-129383096D01*
X107492411Y-129257655D01*
X107366970Y-129161401D01*
X107363738Y-129160062D01*
X107220889Y-129100892D01*
X107064129Y-129080255D01*
X106907368Y-129100892D01*
X106761289Y-129161400D01*
X106761286Y-129161402D01*
X106635847Y-129257655D01*
X106539594Y-129383094D01*
X106539592Y-129383097D01*
X106479084Y-129529176D01*
X106458447Y-129685936D01*
X106458447Y-129685937D01*
X102138048Y-129685937D01*
X102154474Y-129571693D01*
X102154474Y-129571689D01*
X102135875Y-129442335D01*
X102135874Y-129442334D01*
X102135874Y-129442329D01*
X102081582Y-129323445D01*
X102027044Y-129260505D01*
X101997552Y-129195925D01*
X102007655Y-129125651D01*
X102027045Y-129095480D01*
X102081582Y-129032541D01*
X102135874Y-128913657D01*
X102140590Y-128880855D01*
X102154474Y-128784296D01*
X102154474Y-128784289D01*
X102135875Y-128654935D01*
X102135874Y-128654934D01*
X102135874Y-128654929D01*
X102081582Y-128536045D01*
X102027044Y-128473105D01*
X101997552Y-128408525D01*
X102007655Y-128338251D01*
X102027045Y-128308080D01*
X102081582Y-128245141D01*
X102135874Y-128126257D01*
X102144218Y-128068227D01*
X102154474Y-127996896D01*
X102154474Y-127996889D01*
X102135875Y-127867535D01*
X102135874Y-127867534D01*
X102135874Y-127867529D01*
X102081582Y-127748645D01*
X102081580Y-127748643D01*
X102081579Y-127748640D01*
X101995997Y-127649873D01*
X101995993Y-127649870D01*
X101886048Y-127579214D01*
X101886050Y-127579214D01*
X101765077Y-127543693D01*
X113390818Y-127543693D01*
X113411455Y-127700453D01*
X113411456Y-127700455D01*
X113471964Y-127846534D01*
X113568218Y-127971975D01*
X113693659Y-128068229D01*
X113839738Y-128128737D01*
X113996500Y-128149375D01*
X114153262Y-128128737D01*
X114299341Y-128068229D01*
X114424782Y-127971975D01*
X114521036Y-127846534D01*
X114581544Y-127700455D01*
X114602182Y-127543693D01*
X114990818Y-127543693D01*
X115011455Y-127700453D01*
X115011456Y-127700455D01*
X115071964Y-127846534D01*
X115168218Y-127971975D01*
X115293659Y-128068229D01*
X115439738Y-128128737D01*
X115596500Y-128149375D01*
X115753262Y-128128737D01*
X115899341Y-128068229D01*
X116024782Y-127971975D01*
X116121036Y-127846534D01*
X116181544Y-127700455D01*
X116194769Y-127600000D01*
X180369867Y-127600000D01*
X180388303Y-127728226D01*
X180442118Y-127846063D01*
X180526951Y-127943967D01*
X180609305Y-127996893D01*
X180635931Y-128014004D01*
X180760228Y-128050500D01*
X180760232Y-128050500D01*
X180889768Y-128050500D01*
X180889772Y-128050500D01*
X181014069Y-128014004D01*
X181123049Y-127943967D01*
X181207882Y-127846063D01*
X181261697Y-127728226D01*
X181280133Y-127600000D01*
X181261697Y-127471774D01*
X181207882Y-127353937D01*
X181123049Y-127256033D01*
X181123048Y-127256032D01*
X181014073Y-127185998D01*
X181014070Y-127185996D01*
X181014069Y-127185996D01*
X181014066Y-127185995D01*
X180889776Y-127149501D01*
X180889774Y-127149500D01*
X180889772Y-127149500D01*
X180760228Y-127149500D01*
X180760225Y-127149500D01*
X180760223Y-127149501D01*
X180635933Y-127185995D01*
X180635926Y-127185998D01*
X180526951Y-127256032D01*
X180442118Y-127353937D01*
X180388303Y-127471774D01*
X180369867Y-127600000D01*
X116194769Y-127600000D01*
X116202182Y-127543693D01*
X116181544Y-127386931D01*
X116121036Y-127240852D01*
X116024782Y-127115411D01*
X115899341Y-127019157D01*
X115753262Y-126958649D01*
X115753260Y-126958648D01*
X115596500Y-126938011D01*
X115439739Y-126958648D01*
X115293660Y-127019156D01*
X115293657Y-127019158D01*
X115168218Y-127115411D01*
X115071965Y-127240850D01*
X115071963Y-127240853D01*
X115011455Y-127386932D01*
X114990818Y-127543692D01*
X114990818Y-127543693D01*
X114602182Y-127543693D01*
X114581544Y-127386931D01*
X114521036Y-127240852D01*
X114424782Y-127115411D01*
X114299341Y-127019157D01*
X114153262Y-126958649D01*
X114153260Y-126958648D01*
X113996500Y-126938011D01*
X113839739Y-126958648D01*
X113693660Y-127019156D01*
X113693657Y-127019158D01*
X113568218Y-127115411D01*
X113471965Y-127240850D01*
X113471963Y-127240853D01*
X113411455Y-127386932D01*
X113390818Y-127543692D01*
X113390818Y-127543693D01*
X101765077Y-127543693D01*
X101760650Y-127542393D01*
X101760647Y-127542393D01*
X101629953Y-127542393D01*
X101629949Y-127542393D01*
X101504550Y-127579214D01*
X101394606Y-127649870D01*
X101387796Y-127655772D01*
X101386316Y-127654064D01*
X101337095Y-127685695D01*
X101266098Y-127685693D01*
X101216883Y-127654064D01*
X101215404Y-127655772D01*
X101208593Y-127649870D01*
X101098648Y-127579214D01*
X101098650Y-127579214D01*
X100973250Y-127542393D01*
X100973247Y-127542393D01*
X100842553Y-127542393D01*
X100842549Y-127542393D01*
X100717150Y-127579214D01*
X100607206Y-127649870D01*
X100600396Y-127655772D01*
X100598916Y-127654064D01*
X100549695Y-127685695D01*
X100478698Y-127685693D01*
X100429483Y-127654064D01*
X100428004Y-127655772D01*
X100421193Y-127649870D01*
X100311248Y-127579214D01*
X100311250Y-127579214D01*
X100185850Y-127542393D01*
X100185847Y-127542393D01*
X100055153Y-127542393D01*
X100055149Y-127542393D01*
X99929750Y-127579214D01*
X99819806Y-127649870D01*
X99812996Y-127655772D01*
X99811516Y-127654064D01*
X99762295Y-127685695D01*
X99691298Y-127685693D01*
X99642083Y-127654064D01*
X99640604Y-127655772D01*
X99633793Y-127649870D01*
X99523848Y-127579214D01*
X99523850Y-127579214D01*
X99398450Y-127542393D01*
X99398447Y-127542393D01*
X99267753Y-127542393D01*
X99267749Y-127542393D01*
X99142350Y-127579214D01*
X99032406Y-127649870D01*
X99025596Y-127655772D01*
X99024116Y-127654064D01*
X98974895Y-127685695D01*
X98903898Y-127685693D01*
X98854683Y-127654064D01*
X98853204Y-127655772D01*
X98846393Y-127649870D01*
X98736448Y-127579214D01*
X98736450Y-127579214D01*
X98611050Y-127542393D01*
X98611047Y-127542393D01*
X98480353Y-127542393D01*
X98480349Y-127542393D01*
X98354950Y-127579214D01*
X98245006Y-127649870D01*
X98245002Y-127649873D01*
X98159420Y-127748640D01*
X98105126Y-127867528D01*
X98105124Y-127867535D01*
X98086526Y-127996889D01*
X98086526Y-127996896D01*
X98105124Y-128126250D01*
X98105126Y-128126257D01*
X98159418Y-128245141D01*
X98159419Y-128245142D01*
X98213955Y-128308081D01*
X98243448Y-128372662D01*
X98233343Y-128442936D01*
X98213955Y-128473105D01*
X98159419Y-128536043D01*
X98105126Y-128654928D01*
X98105124Y-128654935D01*
X98086526Y-128784289D01*
X98086526Y-128784296D01*
X98105124Y-128913650D01*
X98105126Y-128913657D01*
X98159418Y-129032541D01*
X98159419Y-129032542D01*
X98213955Y-129095481D01*
X98243448Y-129160062D01*
X98233343Y-129230336D01*
X98213955Y-129260505D01*
X98159419Y-129323443D01*
X98105126Y-129442328D01*
X98105124Y-129442335D01*
X98086526Y-129571689D01*
X98086526Y-129571696D01*
X98105124Y-129701050D01*
X98105126Y-129701057D01*
X98159418Y-129819941D01*
X98159419Y-129819942D01*
X98213955Y-129882881D01*
X98243448Y-129947462D01*
X98233343Y-130017736D01*
X98213955Y-130047905D01*
X98159419Y-130110843D01*
X98105126Y-130229728D01*
X98105124Y-130229735D01*
X98086526Y-130359089D01*
X98086526Y-130359096D01*
X98105124Y-130488450D01*
X98105126Y-130488457D01*
X98159418Y-130607341D01*
X98159419Y-130607342D01*
X98213955Y-130670281D01*
X98243448Y-130734862D01*
X98233343Y-130805136D01*
X98213955Y-130835305D01*
X98159419Y-130898243D01*
X98159418Y-130898244D01*
X98159418Y-130898245D01*
X98154979Y-130907966D01*
X98105126Y-131017128D01*
X98105124Y-131017135D01*
X98086526Y-131146489D01*
X98086526Y-131146496D01*
X94975933Y-131146496D01*
X94996249Y-131097449D01*
X95016887Y-130940687D01*
X94996249Y-130783925D01*
X94935741Y-130637846D01*
X94839487Y-130512405D01*
X94714046Y-130416151D01*
X94654080Y-130391312D01*
X94567965Y-130355642D01*
X94411205Y-130335005D01*
X94254444Y-130355642D01*
X94108365Y-130416150D01*
X94108362Y-130416152D01*
X93982923Y-130512405D01*
X93886670Y-130637844D01*
X93886668Y-130637847D01*
X93826160Y-130783926D01*
X93805523Y-130940686D01*
X93805523Y-130940687D01*
X88294177Y-130940687D01*
X88274782Y-130915411D01*
X88252482Y-130898299D01*
X88210616Y-130840963D01*
X88206394Y-130770092D01*
X88229223Y-130721636D01*
X88250312Y-130694153D01*
X88310820Y-130548074D01*
X88331458Y-130391312D01*
X88310820Y-130234550D01*
X88250312Y-130088471D01*
X88160607Y-129971565D01*
X88135008Y-129905347D01*
X88149273Y-129835798D01*
X88198874Y-129785002D01*
X88244125Y-129769941D01*
X88253262Y-129768739D01*
X88399341Y-129708231D01*
X88524782Y-129611977D01*
X88621036Y-129486536D01*
X88638368Y-129444693D01*
X93091818Y-129444693D01*
X93112455Y-129601453D01*
X93153713Y-129701057D01*
X93172964Y-129747534D01*
X93269218Y-129872975D01*
X93394659Y-129969229D01*
X93540738Y-130029737D01*
X93697500Y-130050375D01*
X93854262Y-130029737D01*
X94000341Y-129969229D01*
X94125782Y-129872975D01*
X94222036Y-129747534D01*
X94282544Y-129601455D01*
X94303182Y-129444693D01*
X94282544Y-129287931D01*
X94222036Y-129141852D01*
X94125782Y-129016411D01*
X94000341Y-128920157D01*
X93974995Y-128909658D01*
X93854260Y-128859648D01*
X93697500Y-128839011D01*
X93540739Y-128859648D01*
X93394660Y-128920156D01*
X93394657Y-128920158D01*
X93269218Y-129016411D01*
X93172965Y-129141850D01*
X93172963Y-129141853D01*
X93112455Y-129287932D01*
X93091818Y-129444692D01*
X93091818Y-129444693D01*
X88638368Y-129444693D01*
X88681544Y-129340457D01*
X88702182Y-129183695D01*
X88681544Y-129026933D01*
X88621036Y-128880854D01*
X88524782Y-128755413D01*
X88427443Y-128680722D01*
X94767564Y-128680722D01*
X94788201Y-128837482D01*
X94818097Y-128909656D01*
X94848710Y-128983563D01*
X94944964Y-129109004D01*
X95070405Y-129205258D01*
X95216484Y-129265766D01*
X95373246Y-129286404D01*
X95530008Y-129265766D01*
X95676087Y-129205258D01*
X95801528Y-129109004D01*
X95897782Y-128983563D01*
X95958290Y-128837484D01*
X95978928Y-128680722D01*
X95958290Y-128523960D01*
X95897782Y-128377881D01*
X95801528Y-128252440D01*
X95676087Y-128156186D01*
X95609820Y-128128737D01*
X95530006Y-128095677D01*
X95373246Y-128075040D01*
X95216485Y-128095677D01*
X95070406Y-128156185D01*
X95070403Y-128156187D01*
X94944964Y-128252440D01*
X94848711Y-128377879D01*
X94848709Y-128377882D01*
X94788201Y-128523961D01*
X94767564Y-128680721D01*
X94767564Y-128680722D01*
X88427443Y-128680722D01*
X88399341Y-128659159D01*
X88389144Y-128654935D01*
X88253260Y-128598650D01*
X88096500Y-128578013D01*
X87939739Y-128598650D01*
X87793660Y-128659158D01*
X87793657Y-128659160D01*
X87668218Y-128755413D01*
X87571965Y-128880852D01*
X87571963Y-128880855D01*
X87511455Y-129026934D01*
X87490818Y-129183694D01*
X87490818Y-129183695D01*
X87511455Y-129340455D01*
X87554632Y-129444692D01*
X87571964Y-129486536D01*
X87660144Y-129601455D01*
X87661667Y-129603439D01*
X87687267Y-129669660D01*
X87673002Y-129739208D01*
X87623401Y-129790004D01*
X87578152Y-129805064D01*
X87569014Y-129806268D01*
X87508507Y-129831330D01*
X87422936Y-129866775D01*
X87422933Y-129866777D01*
X87297494Y-129963030D01*
X87201241Y-130088469D01*
X87201239Y-130088472D01*
X87140731Y-130234551D01*
X87120094Y-130391311D01*
X87120094Y-130391312D01*
X59905000Y-130391312D01*
X59905000Y-126903436D01*
X94817075Y-126903436D01*
X94837712Y-127060196D01*
X94874704Y-127149501D01*
X94898221Y-127206277D01*
X94994475Y-127331718D01*
X95119916Y-127427972D01*
X95265995Y-127488480D01*
X95422757Y-127509118D01*
X95579519Y-127488480D01*
X95725598Y-127427972D01*
X95851039Y-127331718D01*
X95947293Y-127206277D01*
X96007801Y-127060198D01*
X96028439Y-126903436D01*
X96007801Y-126746674D01*
X95947293Y-126600595D01*
X95851039Y-126475154D01*
X95725598Y-126378900D01*
X95627536Y-126338281D01*
X95579517Y-126318391D01*
X95422757Y-126297754D01*
X95265996Y-126318391D01*
X95119917Y-126378899D01*
X95119914Y-126378901D01*
X94994475Y-126475154D01*
X94898222Y-126600593D01*
X94898220Y-126600596D01*
X94837712Y-126746675D01*
X94817075Y-126903435D01*
X94817075Y-126903436D01*
X59905000Y-126903436D01*
X59905000Y-125329363D01*
X105687910Y-125329363D01*
X105708547Y-125486123D01*
X105738419Y-125558239D01*
X105769056Y-125632204D01*
X105865310Y-125757645D01*
X105926905Y-125804908D01*
X105968771Y-125862245D01*
X105972993Y-125933116D01*
X105962771Y-125959099D01*
X105963068Y-125959222D01*
X105899399Y-126112932D01*
X105878762Y-126269692D01*
X105878762Y-126269693D01*
X105899399Y-126426453D01*
X105952928Y-126555682D01*
X105959908Y-126572534D01*
X106056162Y-126697975D01*
X106181603Y-126794229D01*
X106327682Y-126854737D01*
X106484444Y-126875375D01*
X106641206Y-126854737D01*
X106787285Y-126794229D01*
X106912726Y-126697975D01*
X107008980Y-126572534D01*
X107069488Y-126426455D01*
X107090126Y-126269693D01*
X107087907Y-126252841D01*
X107069488Y-126112932D01*
X107066933Y-126106762D01*
X107008980Y-125966852D01*
X106912726Y-125841411D01*
X106851130Y-125794147D01*
X106809264Y-125736810D01*
X106805042Y-125665939D01*
X106815264Y-125639957D01*
X106814967Y-125639834D01*
X106818126Y-125632205D01*
X106818128Y-125632204D01*
X106878636Y-125486125D01*
X106899274Y-125329363D01*
X106878636Y-125172601D01*
X106818128Y-125026522D01*
X106721874Y-124901081D01*
X106596433Y-124804827D01*
X106567818Y-124792974D01*
X106450352Y-124744318D01*
X106293592Y-124723681D01*
X106136831Y-124744318D01*
X105990752Y-124804826D01*
X105990749Y-124804828D01*
X105865310Y-124901081D01*
X105769057Y-125026520D01*
X105769055Y-125026523D01*
X105708547Y-125172602D01*
X105687910Y-125329362D01*
X105687910Y-125329363D01*
X59905000Y-125329363D01*
X59905000Y-123093693D01*
X94990818Y-123093693D01*
X95011455Y-123250453D01*
X95024082Y-123280936D01*
X95071964Y-123396534D01*
X95168218Y-123521975D01*
X95293659Y-123618229D01*
X95439738Y-123678737D01*
X95596500Y-123699375D01*
X95753262Y-123678737D01*
X95899341Y-123618229D01*
X96024782Y-123521975D01*
X96089451Y-123437697D01*
X99367174Y-123437697D01*
X99387811Y-123594457D01*
X99442140Y-123725617D01*
X99448320Y-123740538D01*
X99537996Y-123857407D01*
X99544576Y-123865981D01*
X99644305Y-123942506D01*
X99686172Y-123999844D01*
X99690394Y-124070715D01*
X99684010Y-124090685D01*
X99635446Y-124207930D01*
X99614808Y-124364692D01*
X99614808Y-124364693D01*
X99635445Y-124521453D01*
X99655892Y-124570815D01*
X99695954Y-124667534D01*
X99792208Y-124792975D01*
X99917649Y-124889229D01*
X100063728Y-124949737D01*
X100220490Y-124970375D01*
X100377252Y-124949737D01*
X100523331Y-124889229D01*
X100648772Y-124792975D01*
X100745026Y-124667534D01*
X100805534Y-124521455D01*
X100826172Y-124364693D01*
X100820002Y-124317831D01*
X100830941Y-124247686D01*
X100878068Y-124194587D01*
X100928475Y-124176466D01*
X101080923Y-124156396D01*
X101227002Y-124095888D01*
X101352443Y-123999634D01*
X101352443Y-123999633D01*
X101353999Y-123998440D01*
X101420219Y-123972839D01*
X101489768Y-123987104D01*
X101507406Y-123998439D01*
X101526486Y-124013079D01*
X101588907Y-124060976D01*
X101734986Y-124121484D01*
X101891748Y-124142122D01*
X102048510Y-124121484D01*
X102194589Y-124060976D01*
X102320030Y-123964722D01*
X102416284Y-123839281D01*
X102476792Y-123693202D01*
X102497430Y-123536440D01*
X102494661Y-123515411D01*
X102476792Y-123379679D01*
X102439704Y-123290139D01*
X102416284Y-123233599D01*
X102320030Y-123108158D01*
X102194589Y-123011904D01*
X102188583Y-123009416D01*
X102048508Y-122951395D01*
X101891748Y-122930758D01*
X101734987Y-122951395D01*
X101588908Y-123011903D01*
X101588900Y-123011908D01*
X101461908Y-123109352D01*
X101395688Y-123134952D01*
X101326139Y-123120687D01*
X101308502Y-123109352D01*
X101227008Y-123046820D01*
X101227000Y-123046815D01*
X101080921Y-122986307D01*
X100924161Y-122965670D01*
X100767400Y-122986307D01*
X100621322Y-123046814D01*
X100600759Y-123062593D01*
X100534538Y-123088192D01*
X100464990Y-123073926D01*
X100424094Y-123039332D01*
X100401139Y-123009416D01*
X100372316Y-122987299D01*
X100275697Y-122913161D01*
X100252369Y-122903498D01*
X100129616Y-122852652D01*
X99972856Y-122832015D01*
X99816095Y-122852652D01*
X99670016Y-122913160D01*
X99670013Y-122913162D01*
X99544574Y-123009415D01*
X99448321Y-123134854D01*
X99448319Y-123134857D01*
X99387811Y-123280936D01*
X99367174Y-123437696D01*
X99367174Y-123437697D01*
X96089451Y-123437697D01*
X96121036Y-123396534D01*
X96181544Y-123250455D01*
X96202182Y-123093693D01*
X96196010Y-123046815D01*
X96180466Y-122928743D01*
X96182868Y-122928426D01*
X96184258Y-122869808D01*
X96224045Y-122811008D01*
X96227576Y-122808197D01*
X96250180Y-122790853D01*
X96269797Y-122775799D01*
X96336017Y-122750200D01*
X96405566Y-122764465D01*
X96423204Y-122775801D01*
X96540816Y-122866048D01*
X96543659Y-122868229D01*
X96689738Y-122928737D01*
X96846500Y-122949375D01*
X97003262Y-122928737D01*
X97149341Y-122868229D01*
X97274782Y-122771975D01*
X97371036Y-122646534D01*
X97371038Y-122646530D01*
X97373779Y-122641783D01*
X97425160Y-122592788D01*
X97494873Y-122579349D01*
X97560785Y-122605734D01*
X97582863Y-122628076D01*
X97593380Y-122641783D01*
X97596012Y-122645212D01*
X97721453Y-122741466D01*
X97867532Y-122801974D01*
X98024294Y-122822612D01*
X98181056Y-122801974D01*
X98198634Y-122794693D01*
X103030818Y-122794693D01*
X103051455Y-122951453D01*
X103110373Y-123093692D01*
X103111964Y-123097534D01*
X103208218Y-123222975D01*
X103333659Y-123319229D01*
X103479738Y-123379737D01*
X103636500Y-123400375D01*
X103793262Y-123379737D01*
X103939341Y-123319229D01*
X103977251Y-123290140D01*
X106583077Y-123290140D01*
X106603714Y-123446900D01*
X106603715Y-123446902D01*
X106664223Y-123592981D01*
X106760477Y-123718422D01*
X106885918Y-123814676D01*
X107031997Y-123875184D01*
X107188759Y-123895822D01*
X107345521Y-123875184D01*
X107491600Y-123814676D01*
X107617041Y-123718422D01*
X107630682Y-123700645D01*
X119171788Y-123700645D01*
X119192425Y-123857405D01*
X119240240Y-123972839D01*
X119252934Y-124003486D01*
X119349188Y-124128927D01*
X119474629Y-124225181D01*
X119620708Y-124285689D01*
X119777470Y-124306327D01*
X119934232Y-124285689D01*
X120080311Y-124225181D01*
X120205752Y-124128927D01*
X120263704Y-124053401D01*
X120321042Y-124011534D01*
X120391913Y-124007312D01*
X120411878Y-124013693D01*
X120556473Y-124073587D01*
X120713235Y-124094225D01*
X120869997Y-124073587D01*
X121016076Y-124013079D01*
X121106502Y-123943693D01*
X124190818Y-123943693D01*
X124211455Y-124100453D01*
X124241154Y-124172151D01*
X124271964Y-124246534D01*
X124368218Y-124371975D01*
X124493659Y-124468229D01*
X124639738Y-124528737D01*
X124741192Y-124542093D01*
X124806118Y-124570815D01*
X124845210Y-124630080D01*
X124846055Y-124701072D01*
X124841154Y-124715232D01*
X124811456Y-124786930D01*
X124790818Y-124943692D01*
X124790818Y-124943693D01*
X124811455Y-125100453D01*
X124822721Y-125127650D01*
X124871964Y-125246534D01*
X124968218Y-125371975D01*
X125093659Y-125468229D01*
X125239738Y-125528737D01*
X125245663Y-125529517D01*
X125310590Y-125558239D01*
X125349682Y-125617504D01*
X125350527Y-125688496D01*
X125345627Y-125702654D01*
X125340224Y-125715698D01*
X125319586Y-125872460D01*
X125319586Y-125872461D01*
X125340223Y-126029221D01*
X125395129Y-126161774D01*
X125400732Y-126175302D01*
X125496986Y-126300743D01*
X125622427Y-126396997D01*
X125768506Y-126457505D01*
X125925268Y-126478143D01*
X125933526Y-126478143D01*
X125933526Y-126480952D01*
X125990118Y-126489770D01*
X126043224Y-126536890D01*
X126062423Y-126605242D01*
X126062050Y-126610472D01*
X126062050Y-126614925D01*
X126082687Y-126771685D01*
X126082688Y-126771687D01*
X126143196Y-126917766D01*
X126239450Y-127043207D01*
X126364891Y-127139461D01*
X126510970Y-127199969D01*
X126667732Y-127220607D01*
X126824494Y-127199969D01*
X126970573Y-127139461D01*
X127096014Y-127043207D01*
X127192268Y-126917766D01*
X127252776Y-126771687D01*
X127273414Y-126614925D01*
X127271527Y-126600595D01*
X127255013Y-126475154D01*
X127252776Y-126458163D01*
X127192268Y-126312084D01*
X127096014Y-126186643D01*
X126970573Y-126090389D01*
X126913533Y-126066762D01*
X126824492Y-126029880D01*
X126667732Y-126009243D01*
X126659474Y-126009243D01*
X126659474Y-126006441D01*
X126602837Y-125997595D01*
X126549750Y-125950454D01*
X126549623Y-125950000D01*
X164664318Y-125950000D01*
X164684955Y-126106760D01*
X164728895Y-126212839D01*
X164745464Y-126252841D01*
X164841718Y-126378282D01*
X164967159Y-126474536D01*
X165113238Y-126535044D01*
X165270000Y-126555682D01*
X165426762Y-126535044D01*
X165572841Y-126474536D01*
X165698282Y-126378282D01*
X165794536Y-126252841D01*
X165855044Y-126106762D01*
X165875682Y-125950000D01*
X165870416Y-125910000D01*
X167094318Y-125910000D01*
X167114955Y-126066760D01*
X167131525Y-126106762D01*
X167175464Y-126212841D01*
X167271718Y-126338282D01*
X167397159Y-126434536D01*
X167543238Y-126495044D01*
X167700000Y-126515682D01*
X167856762Y-126495044D01*
X168002841Y-126434536D01*
X168128282Y-126338282D01*
X168224536Y-126212841D01*
X168285044Y-126066762D01*
X168299099Y-125960000D01*
X176404318Y-125960000D01*
X176424955Y-126116760D01*
X176449205Y-126175303D01*
X176485464Y-126262841D01*
X176581718Y-126388282D01*
X176707159Y-126484536D01*
X176853238Y-126545044D01*
X177010000Y-126565682D01*
X177166762Y-126545044D01*
X177312841Y-126484536D01*
X177438282Y-126388282D01*
X177513696Y-126290000D01*
X181494867Y-126290000D01*
X181513303Y-126418226D01*
X181567118Y-126536063D01*
X181635451Y-126614925D01*
X181651951Y-126633967D01*
X181751549Y-126697975D01*
X181760931Y-126704004D01*
X181885228Y-126740500D01*
X181885232Y-126740500D01*
X182014768Y-126740500D01*
X182014772Y-126740500D01*
X182139069Y-126704004D01*
X182248049Y-126633967D01*
X182332882Y-126536063D01*
X182386697Y-126418226D01*
X182405133Y-126290000D01*
X182386697Y-126161774D01*
X182332882Y-126043937D01*
X182248049Y-125946033D01*
X182248048Y-125946032D01*
X182139073Y-125875998D01*
X182139070Y-125875996D01*
X182139069Y-125875996D01*
X182127030Y-125872461D01*
X182014776Y-125839501D01*
X182014774Y-125839500D01*
X182014772Y-125839500D01*
X181885228Y-125839500D01*
X181885225Y-125839500D01*
X181885223Y-125839501D01*
X181760933Y-125875995D01*
X181760926Y-125875998D01*
X181651951Y-125946032D01*
X181579298Y-126029880D01*
X181567118Y-126043937D01*
X181513303Y-126161774D01*
X181494867Y-126290000D01*
X177513696Y-126290000D01*
X177534536Y-126262841D01*
X177595044Y-126116762D01*
X177615682Y-125960000D01*
X177615563Y-125959099D01*
X177601714Y-125853899D01*
X177595044Y-125803238D01*
X177534536Y-125657159D01*
X177438282Y-125531718D01*
X177312841Y-125435464D01*
X177288702Y-125425465D01*
X177166760Y-125374955D01*
X177010000Y-125354318D01*
X176853239Y-125374955D01*
X176707160Y-125435463D01*
X176707157Y-125435465D01*
X176581718Y-125531718D01*
X176485465Y-125657157D01*
X176485463Y-125657160D01*
X176424955Y-125803239D01*
X176404318Y-125959999D01*
X176404318Y-125960000D01*
X168299099Y-125960000D01*
X168305682Y-125910000D01*
X168285044Y-125753238D01*
X168224536Y-125607159D01*
X168128282Y-125481718D01*
X168002841Y-125385464D01*
X167977473Y-125374956D01*
X167856760Y-125324955D01*
X167700000Y-125304318D01*
X167543239Y-125324955D01*
X167397160Y-125385463D01*
X167397157Y-125385465D01*
X167271718Y-125481718D01*
X167175465Y-125607157D01*
X167175463Y-125607160D01*
X167114955Y-125753239D01*
X167094318Y-125909999D01*
X167094318Y-125910000D01*
X165870416Y-125910000D01*
X165855044Y-125793238D01*
X165794536Y-125647159D01*
X165698282Y-125521718D01*
X165572841Y-125425464D01*
X165476271Y-125385463D01*
X165426760Y-125364955D01*
X165270000Y-125344318D01*
X165113239Y-125364955D01*
X164967160Y-125425463D01*
X164967157Y-125425465D01*
X164841718Y-125521718D01*
X164745465Y-125647157D01*
X164745463Y-125647160D01*
X164684955Y-125793239D01*
X164664318Y-125949999D01*
X164664318Y-125950000D01*
X126549623Y-125950000D01*
X126530576Y-125882095D01*
X126530950Y-125876879D01*
X126530950Y-125872460D01*
X126510312Y-125715700D01*
X126510312Y-125715698D01*
X126449804Y-125569620D01*
X126353550Y-125444179D01*
X126228109Y-125347925D01*
X126082030Y-125287417D01*
X126082027Y-125287416D01*
X126082026Y-125287416D01*
X126076096Y-125286635D01*
X126011171Y-125257909D01*
X125972083Y-125198641D01*
X125971242Y-125127650D01*
X125976138Y-125113505D01*
X125981544Y-125100455D01*
X126002182Y-124943693D01*
X125981544Y-124786931D01*
X125921036Y-124640852D01*
X125824782Y-124515411D01*
X125699341Y-124419157D01*
X125585432Y-124371974D01*
X125553260Y-124358648D01*
X125451807Y-124345292D01*
X125386880Y-124316569D01*
X125347789Y-124257304D01*
X125346944Y-124186312D01*
X125351846Y-124172151D01*
X125358372Y-124156396D01*
X125381544Y-124100455D01*
X125402182Y-123943693D01*
X125381544Y-123786931D01*
X125321036Y-123640852D01*
X125224782Y-123515411D01*
X125099341Y-123419157D01*
X125094663Y-123417219D01*
X124953260Y-123358648D01*
X124796500Y-123338011D01*
X124639739Y-123358648D01*
X124493660Y-123419156D01*
X124493657Y-123419158D01*
X124368218Y-123515411D01*
X124271965Y-123640850D01*
X124271963Y-123640853D01*
X124211455Y-123786932D01*
X124190818Y-123943692D01*
X124190818Y-123943693D01*
X121106502Y-123943693D01*
X121141517Y-123916825D01*
X121207870Y-123830351D01*
X121265204Y-123788486D01*
X121336075Y-123784264D01*
X121356033Y-123790642D01*
X121488472Y-123845501D01*
X121645234Y-123866139D01*
X121801996Y-123845501D01*
X121948075Y-123784993D01*
X122073516Y-123688739D01*
X122169770Y-123563298D01*
X122230278Y-123417219D01*
X122250916Y-123260457D01*
X122248424Y-123241532D01*
X122234393Y-123134952D01*
X122230278Y-123103695D01*
X122169770Y-122957616D01*
X122073516Y-122832175D01*
X121948075Y-122735921D01*
X121833326Y-122688390D01*
X121801994Y-122675412D01*
X121645234Y-122654775D01*
X121488473Y-122675412D01*
X121342394Y-122735920D01*
X121342391Y-122735922D01*
X121256311Y-122801974D01*
X121216952Y-122832175D01*
X121154810Y-122913161D01*
X121150601Y-122918646D01*
X121093263Y-122960513D01*
X121022392Y-122964735D01*
X121002425Y-122958352D01*
X120869997Y-122903499D01*
X120869995Y-122903498D01*
X120713235Y-122882861D01*
X120556474Y-122903498D01*
X120410395Y-122964006D01*
X120410392Y-122964008D01*
X120284952Y-123060261D01*
X120226999Y-123135787D01*
X120169661Y-123177654D01*
X120098790Y-123181875D01*
X120078819Y-123175491D01*
X119934230Y-123115600D01*
X119777470Y-123094963D01*
X119620709Y-123115600D01*
X119474630Y-123176108D01*
X119474627Y-123176110D01*
X119349188Y-123272363D01*
X119252935Y-123397802D01*
X119252933Y-123397805D01*
X119192425Y-123543884D01*
X119171788Y-123700644D01*
X119171788Y-123700645D01*
X107630682Y-123700645D01*
X107713295Y-123592981D01*
X107773803Y-123446902D01*
X107794441Y-123290140D01*
X107773803Y-123133378D01*
X107713295Y-122987299D01*
X107695423Y-122964008D01*
X107612157Y-122855493D01*
X107586556Y-122789273D01*
X107600821Y-122719724D01*
X107650422Y-122668928D01*
X107663883Y-122662388D01*
X107682841Y-122654536D01*
X107808282Y-122558282D01*
X107904536Y-122432841D01*
X107956733Y-122306824D01*
X108001279Y-122251547D01*
X108068642Y-122229125D01*
X108137433Y-122246683D01*
X108160965Y-122267548D01*
X108162378Y-122266136D01*
X108168211Y-122271969D01*
X108168216Y-122271973D01*
X108168218Y-122271975D01*
X108293659Y-122368229D01*
X108439738Y-122428737D01*
X108596500Y-122449375D01*
X108753262Y-122428737D01*
X108899341Y-122368229D01*
X109024782Y-122271975D01*
X109121036Y-122146534D01*
X109181544Y-122000455D01*
X109202182Y-121843693D01*
X109200005Y-121827160D01*
X109181544Y-121686932D01*
X109158744Y-121631886D01*
X109121036Y-121540852D01*
X109024782Y-121415411D01*
X108899341Y-121319157D01*
X108835964Y-121292905D01*
X108753260Y-121258648D01*
X108596500Y-121238011D01*
X108439739Y-121258648D01*
X108293660Y-121319156D01*
X108293657Y-121319158D01*
X108168218Y-121415411D01*
X108071965Y-121540850D01*
X108071963Y-121540853D01*
X108070264Y-121544955D01*
X108034257Y-121631886D01*
X108019768Y-121666865D01*
X107975219Y-121722146D01*
X107907856Y-121744567D01*
X107839065Y-121727009D01*
X107815543Y-121706135D01*
X107814122Y-121707557D01*
X107808288Y-121701723D01*
X107808282Y-121701718D01*
X107682841Y-121605464D01*
X107536762Y-121544956D01*
X107536760Y-121544955D01*
X107380000Y-121524318D01*
X107223239Y-121544955D01*
X107077160Y-121605463D01*
X107077157Y-121605465D01*
X106951718Y-121701718D01*
X106855465Y-121827157D01*
X106855463Y-121827160D01*
X106794955Y-121973239D01*
X106774318Y-122129999D01*
X106774318Y-122130000D01*
X106794955Y-122286760D01*
X106837780Y-122390147D01*
X106855464Y-122432841D01*
X106951718Y-122558282D01*
X106951719Y-122558283D01*
X106956602Y-122564646D01*
X106982202Y-122630866D01*
X106967937Y-122700415D01*
X106918336Y-122751211D01*
X106904860Y-122757758D01*
X106885919Y-122765603D01*
X106885916Y-122765605D01*
X106760477Y-122861858D01*
X106664224Y-122987297D01*
X106664222Y-122987300D01*
X106603714Y-123133379D01*
X106583077Y-123290139D01*
X106583077Y-123290140D01*
X103977251Y-123290140D01*
X104064782Y-123222975D01*
X104161036Y-123097534D01*
X104221544Y-122951455D01*
X104242182Y-122794693D01*
X104241676Y-122790853D01*
X104224763Y-122662379D01*
X104221544Y-122637931D01*
X104161036Y-122491852D01*
X104064782Y-122366411D01*
X103939341Y-122270157D01*
X103933043Y-122267548D01*
X103793260Y-122209648D01*
X103636500Y-122189011D01*
X103479739Y-122209648D01*
X103333660Y-122270156D01*
X103333657Y-122270158D01*
X103208218Y-122366411D01*
X103111965Y-122491850D01*
X103111963Y-122491853D01*
X103051455Y-122637932D01*
X103030818Y-122794692D01*
X103030818Y-122794693D01*
X98198634Y-122794693D01*
X98327135Y-122741466D01*
X98452576Y-122645212D01*
X98548830Y-122519771D01*
X98609338Y-122373692D01*
X98629976Y-122216930D01*
X98629017Y-122209649D01*
X98619657Y-122138549D01*
X98609338Y-122060168D01*
X98548830Y-121914089D01*
X98452576Y-121788648D01*
X98327135Y-121692394D01*
X98313947Y-121686931D01*
X98181054Y-121631885D01*
X98024294Y-121611248D01*
X97867533Y-121631885D01*
X97721454Y-121692393D01*
X97721451Y-121692395D01*
X97596012Y-121788648D01*
X97499753Y-121914095D01*
X97497008Y-121918850D01*
X97445622Y-121967840D01*
X97375908Y-121981272D01*
X97309998Y-121954880D01*
X97287930Y-121932546D01*
X97274783Y-121915412D01*
X97273057Y-121914087D01*
X97149341Y-121819157D01*
X97035432Y-121771974D01*
X97003260Y-121758648D01*
X96846500Y-121738011D01*
X96689739Y-121758648D01*
X96543660Y-121819156D01*
X96543653Y-121819161D01*
X96423203Y-121911585D01*
X96356983Y-121937185D01*
X96287434Y-121922920D01*
X96269797Y-121911585D01*
X96149346Y-121819161D01*
X96149342Y-121819158D01*
X96149341Y-121819157D01*
X96035432Y-121771974D01*
X96003260Y-121758648D01*
X95846500Y-121738011D01*
X95689739Y-121758648D01*
X95543660Y-121819156D01*
X95543657Y-121819158D01*
X95418218Y-121915411D01*
X95321965Y-122040850D01*
X95321963Y-122040853D01*
X95261455Y-122186932D01*
X95248313Y-122286760D01*
X95240818Y-122343693D01*
X95252554Y-122432841D01*
X95262534Y-122508643D01*
X95260133Y-122508959D01*
X95258735Y-122567597D01*
X95218938Y-122626390D01*
X95215425Y-122629187D01*
X95168218Y-122665410D01*
X95071965Y-122790850D01*
X95071963Y-122790853D01*
X95011455Y-122936932D01*
X94990818Y-123093692D01*
X94990818Y-123093693D01*
X59905000Y-123093693D01*
X59905000Y-121343693D01*
X86490818Y-121343693D01*
X86511455Y-121500453D01*
X86565897Y-121631886D01*
X86571964Y-121646534D01*
X86668218Y-121771975D01*
X86793659Y-121868229D01*
X86939738Y-121928737D01*
X87096500Y-121949375D01*
X87253262Y-121928737D01*
X87399341Y-121868229D01*
X87524782Y-121771975D01*
X87621036Y-121646534D01*
X87681544Y-121500455D01*
X87682416Y-121493830D01*
X87711138Y-121428904D01*
X87770402Y-121389811D01*
X87841394Y-121388966D01*
X87855546Y-121393863D01*
X87939738Y-121428737D01*
X88096500Y-121449375D01*
X88253262Y-121428737D01*
X88399341Y-121368229D01*
X88431317Y-121343693D01*
X102740818Y-121343693D01*
X102761455Y-121500453D01*
X102815897Y-121631886D01*
X102821964Y-121646534D01*
X102918218Y-121771975D01*
X103043659Y-121868229D01*
X103189738Y-121928737D01*
X103346500Y-121949375D01*
X103503262Y-121928737D01*
X103649341Y-121868229D01*
X103774782Y-121771975D01*
X103871036Y-121646534D01*
X103931544Y-121500455D01*
X103952182Y-121343693D01*
X103931544Y-121186931D01*
X103871036Y-121040852D01*
X103774782Y-120915411D01*
X103649341Y-120819157D01*
X103599271Y-120798417D01*
X103503260Y-120758648D01*
X103346500Y-120738011D01*
X103189739Y-120758648D01*
X103043660Y-120819156D01*
X103043657Y-120819158D01*
X102918218Y-120915411D01*
X102821965Y-121040850D01*
X102821963Y-121040853D01*
X102761455Y-121186932D01*
X102740818Y-121343692D01*
X102740818Y-121343693D01*
X88431317Y-121343693D01*
X88524782Y-121271975D01*
X88621036Y-121146534D01*
X88681544Y-121000455D01*
X88702182Y-120843693D01*
X88681544Y-120686931D01*
X88621036Y-120540852D01*
X88524782Y-120415411D01*
X88399341Y-120319157D01*
X88253262Y-120258649D01*
X88253260Y-120258648D01*
X88096500Y-120238011D01*
X87939739Y-120258648D01*
X87793660Y-120319156D01*
X87793657Y-120319158D01*
X87668218Y-120415411D01*
X87571965Y-120540850D01*
X87571963Y-120540853D01*
X87511455Y-120686934D01*
X87510582Y-120693563D01*
X87481855Y-120758489D01*
X87422588Y-120797576D01*
X87351596Y-120798417D01*
X87337443Y-120793518D01*
X87253260Y-120758648D01*
X87096500Y-120738011D01*
X86939739Y-120758648D01*
X86793660Y-120819156D01*
X86793657Y-120819158D01*
X86668218Y-120915411D01*
X86571965Y-121040850D01*
X86571963Y-121040853D01*
X86511455Y-121186932D01*
X86490818Y-121343692D01*
X86490818Y-121343693D01*
X59905000Y-121343693D01*
X59905000Y-116533693D01*
X66256034Y-116533693D01*
X66275812Y-116683927D01*
X66333801Y-116823924D01*
X66333806Y-116823932D01*
X66426048Y-116944144D01*
X66546260Y-117036386D01*
X66546267Y-117036391D01*
X66686264Y-117094380D01*
X66798780Y-117109193D01*
X66798787Y-117109193D01*
X66874213Y-117109193D01*
X66874220Y-117109193D01*
X66986736Y-117094380D01*
X67126733Y-117036391D01*
X67246951Y-116944144D01*
X67339198Y-116823926D01*
X67397187Y-116683929D01*
X67416966Y-116533693D01*
X67411466Y-116491920D01*
X67397187Y-116383458D01*
X67381893Y-116346534D01*
X67339198Y-116243460D01*
X67337197Y-116240852D01*
X67262644Y-116143693D01*
X70190818Y-116143693D01*
X70211455Y-116300453D01*
X70247276Y-116386931D01*
X70271964Y-116446534D01*
X70368218Y-116571975D01*
X70493659Y-116668229D01*
X70639738Y-116728737D01*
X70796500Y-116749375D01*
X70953262Y-116728737D01*
X71099341Y-116668229D01*
X71224782Y-116571975D01*
X71321036Y-116446534D01*
X71381544Y-116300455D01*
X71402182Y-116143693D01*
X71399489Y-116123241D01*
X71381544Y-115986932D01*
X71375776Y-115973005D01*
X71321036Y-115840852D01*
X71224782Y-115715411D01*
X71099341Y-115619157D01*
X71028948Y-115589999D01*
X70953260Y-115558648D01*
X70796500Y-115538011D01*
X70639739Y-115558648D01*
X70493660Y-115619156D01*
X70493657Y-115619158D01*
X70368218Y-115715411D01*
X70271965Y-115840850D01*
X70271963Y-115840853D01*
X70211455Y-115986932D01*
X70190818Y-116143692D01*
X70190818Y-116143693D01*
X67262644Y-116143693D01*
X67246951Y-116123241D01*
X67126739Y-116030999D01*
X67126731Y-116030994D01*
X66986734Y-115973005D01*
X66874222Y-115958193D01*
X66874220Y-115958193D01*
X66798780Y-115958193D01*
X66798777Y-115958193D01*
X66686265Y-115973005D01*
X66546268Y-116030994D01*
X66546260Y-116030999D01*
X66426048Y-116123241D01*
X66333806Y-116243453D01*
X66333801Y-116243461D01*
X66275812Y-116383458D01*
X66256034Y-116533692D01*
X66256034Y-116533693D01*
X59905000Y-116533693D01*
X59905000Y-113643693D01*
X88490818Y-113643693D01*
X88511455Y-113800453D01*
X88569258Y-113940000D01*
X88571964Y-113946534D01*
X88668218Y-114071975D01*
X88793659Y-114168229D01*
X88939738Y-114228737D01*
X89096500Y-114249375D01*
X89253262Y-114228737D01*
X89399341Y-114168229D01*
X89524782Y-114071975D01*
X89621036Y-113946534D01*
X89676212Y-113813325D01*
X89720759Y-113758047D01*
X89788123Y-113735626D01*
X89856914Y-113753184D01*
X89869324Y-113761584D01*
X89936758Y-113813328D01*
X89945352Y-113819922D01*
X90091431Y-113880430D01*
X90248193Y-113901068D01*
X90404955Y-113880430D01*
X90551034Y-113819922D01*
X90676475Y-113723668D01*
X90772729Y-113598227D01*
X90833237Y-113452148D01*
X90853875Y-113295386D01*
X90852597Y-113285682D01*
X90833237Y-113138625D01*
X90827905Y-113125751D01*
X90772729Y-112992545D01*
X90676475Y-112867104D01*
X90551034Y-112770850D01*
X90485472Y-112743693D01*
X90404953Y-112710341D01*
X90248193Y-112689704D01*
X90091432Y-112710341D01*
X89945353Y-112770849D01*
X89945350Y-112770851D01*
X89819911Y-112867104D01*
X89723658Y-112992543D01*
X89723654Y-112992550D01*
X89668480Y-113125751D01*
X89623932Y-113181032D01*
X89556568Y-113203452D01*
X89487777Y-113185893D01*
X89475374Y-113177499D01*
X89399341Y-113119157D01*
X89373087Y-113108282D01*
X89253260Y-113058648D01*
X89096500Y-113038011D01*
X88939739Y-113058648D01*
X88793660Y-113119156D01*
X88793657Y-113119158D01*
X88668218Y-113215411D01*
X88571965Y-113340850D01*
X88571963Y-113340853D01*
X88511455Y-113486932D01*
X88490818Y-113643692D01*
X88490818Y-113643693D01*
X59905000Y-113643693D01*
X59905000Y-112210030D01*
X74957155Y-112210030D01*
X74977792Y-112366790D01*
X75019810Y-112468229D01*
X75038301Y-112512871D01*
X75134555Y-112638312D01*
X75259996Y-112734566D01*
X75406075Y-112795074D01*
X75562837Y-112815712D01*
X75719599Y-112795074D01*
X75865678Y-112734566D01*
X75991119Y-112638312D01*
X76087373Y-112512871D01*
X76147881Y-112366792D01*
X76168519Y-112210030D01*
X76161754Y-112158648D01*
X76147881Y-112053269D01*
X76132012Y-112014956D01*
X76087373Y-111907189D01*
X75991119Y-111781748D01*
X75865678Y-111685494D01*
X75757906Y-111640853D01*
X75719597Y-111624985D01*
X75562837Y-111604348D01*
X75406076Y-111624985D01*
X75259997Y-111685493D01*
X75259994Y-111685495D01*
X75134555Y-111781748D01*
X75038302Y-111907187D01*
X75038300Y-111907190D01*
X74977792Y-112053269D01*
X74957155Y-112210029D01*
X74957155Y-112210030D01*
X59905000Y-112210030D01*
X59905000Y-110753693D01*
X66256034Y-110753693D01*
X66275812Y-110903927D01*
X66333801Y-111043924D01*
X66333806Y-111043932D01*
X66426048Y-111164144D01*
X66546260Y-111256386D01*
X66546267Y-111256391D01*
X66686264Y-111314380D01*
X66798780Y-111329193D01*
X66798787Y-111329193D01*
X66874213Y-111329193D01*
X66874220Y-111329193D01*
X66986736Y-111314380D01*
X67126733Y-111256391D01*
X67246951Y-111164144D01*
X67262644Y-111143693D01*
X70190818Y-111143693D01*
X70211455Y-111300453D01*
X70260624Y-111419156D01*
X70271964Y-111446534D01*
X70368218Y-111571975D01*
X70493659Y-111668229D01*
X70639738Y-111728737D01*
X70796500Y-111749375D01*
X70953262Y-111728737D01*
X71099341Y-111668229D01*
X71224782Y-111571975D01*
X71321036Y-111446534D01*
X71381544Y-111300455D01*
X71402182Y-111143693D01*
X71381544Y-110986931D01*
X71321036Y-110840852D01*
X71224782Y-110715411D01*
X71178633Y-110680000D01*
X97554318Y-110680000D01*
X97574955Y-110836760D01*
X97620426Y-110946535D01*
X97635464Y-110982841D01*
X97731718Y-111108282D01*
X97781569Y-111146534D01*
X97785203Y-111149322D01*
X97827071Y-111206659D01*
X97834500Y-111249285D01*
X97834500Y-114413039D01*
X97834260Y-114418532D01*
X97830736Y-114458804D01*
X97830736Y-114458806D01*
X97841203Y-114497872D01*
X97842393Y-114503240D01*
X97849412Y-114543047D01*
X97851505Y-114548796D01*
X97857866Y-114564152D01*
X97860445Y-114569683D01*
X97883634Y-114602800D01*
X97886587Y-114607436D01*
X97906806Y-114642455D01*
X97937787Y-114668451D01*
X97941829Y-114672155D01*
X101777849Y-118508176D01*
X101781554Y-118512219D01*
X101807544Y-118543193D01*
X101807546Y-118543195D01*
X101821538Y-118551273D01*
X101842566Y-118563413D01*
X101847183Y-118566354D01*
X101880316Y-118589554D01*
X101880320Y-118589555D01*
X101885876Y-118592146D01*
X101901182Y-118598486D01*
X101906949Y-118600585D01*
X101906955Y-118600588D01*
X101946784Y-118607610D01*
X101952131Y-118608796D01*
X101991193Y-118619263D01*
X102016539Y-118617045D01*
X102031470Y-118615740D01*
X102036962Y-118615500D01*
X112747064Y-118615500D01*
X112752549Y-118615739D01*
X112792831Y-118619264D01*
X112803059Y-118616523D01*
X112874035Y-118618209D01*
X112932833Y-118658000D01*
X112960598Y-118721781D01*
X112970955Y-118800453D01*
X112970956Y-118800455D01*
X113031464Y-118946534D01*
X113127718Y-119071975D01*
X113253159Y-119168229D01*
X113399238Y-119228737D01*
X113556000Y-119249375D01*
X113564188Y-119250453D01*
X113563754Y-119253745D01*
X113616992Y-119269377D01*
X113663485Y-119323033D01*
X113673793Y-119358929D01*
X113684692Y-119441721D01*
X113684693Y-119441723D01*
X113745201Y-119587802D01*
X113841455Y-119713243D01*
X113966896Y-119809497D01*
X114112975Y-119870005D01*
X114269737Y-119890643D01*
X114426499Y-119870005D01*
X114572578Y-119809497D01*
X114698019Y-119713243D01*
X114794273Y-119587802D01*
X114854781Y-119441723D01*
X114875419Y-119284961D01*
X114874766Y-119280000D01*
X193514318Y-119280000D01*
X193534955Y-119436760D01*
X193534956Y-119436762D01*
X193595464Y-119582841D01*
X193691718Y-119708282D01*
X193817159Y-119804536D01*
X193963238Y-119865044D01*
X194120000Y-119885682D01*
X194276762Y-119865044D01*
X194422841Y-119804536D01*
X194548282Y-119708282D01*
X194644536Y-119582841D01*
X194705044Y-119436762D01*
X194725682Y-119280000D01*
X194724283Y-119269377D01*
X194705044Y-119123239D01*
X194683810Y-119071974D01*
X194644536Y-118977159D01*
X194548282Y-118851718D01*
X194422841Y-118755464D01*
X194341524Y-118721781D01*
X194276760Y-118694955D01*
X194120000Y-118674318D01*
X193963239Y-118694955D01*
X193817160Y-118755463D01*
X193817157Y-118755465D01*
X193691718Y-118851718D01*
X193595465Y-118977157D01*
X193595463Y-118977160D01*
X193534955Y-119123239D01*
X193514318Y-119279999D01*
X193514318Y-119280000D01*
X114874766Y-119280000D01*
X114854781Y-119128199D01*
X114794273Y-118982120D01*
X114698019Y-118856679D01*
X114572578Y-118760425D01*
X114560602Y-118755464D01*
X114426497Y-118699916D01*
X114261550Y-118678201D01*
X114261983Y-118674909D01*
X114208745Y-118659277D01*
X114162252Y-118605621D01*
X114151944Y-118569725D01*
X114141044Y-118486932D01*
X114134849Y-118471974D01*
X114080536Y-118340852D01*
X113984282Y-118215411D01*
X113858841Y-118119157D01*
X113712762Y-118058649D01*
X113712761Y-118058648D01*
X113705210Y-118055521D01*
X113649929Y-118010972D01*
X113627508Y-117943609D01*
X113645066Y-117874818D01*
X113664333Y-117850016D01*
X113738317Y-117776033D01*
X113962946Y-117551404D01*
X114025258Y-117517379D01*
X114052041Y-117514500D01*
X116190147Y-117514500D01*
X116258268Y-117534502D01*
X116304761Y-117588158D01*
X116314865Y-117658432D01*
X116290110Y-117717203D01*
X116271968Y-117740845D01*
X116271963Y-117740853D01*
X116211455Y-117886932D01*
X116190818Y-118043692D01*
X116190818Y-118043693D01*
X116211455Y-118200453D01*
X116269610Y-118340850D01*
X116271964Y-118346534D01*
X116368218Y-118471975D01*
X116493659Y-118568229D01*
X116639738Y-118628737D01*
X116796500Y-118649375D01*
X116953262Y-118628737D01*
X117099341Y-118568229D01*
X117224782Y-118471975D01*
X117321036Y-118346534D01*
X117381544Y-118200455D01*
X117402182Y-118043693D01*
X117400906Y-118034004D01*
X117381544Y-117886932D01*
X117376527Y-117874818D01*
X117321036Y-117740852D01*
X117302890Y-117717203D01*
X117277290Y-117650983D01*
X117283645Y-117620000D01*
X189864867Y-117620000D01*
X189883303Y-117748226D01*
X189937118Y-117866063D01*
X190021951Y-117963967D01*
X190130931Y-118034004D01*
X190255228Y-118070500D01*
X190255232Y-118070500D01*
X190378570Y-118070500D01*
X190446691Y-118090502D01*
X190493184Y-118144158D01*
X190503287Y-118178568D01*
X190513301Y-118248219D01*
X190513302Y-118248223D01*
X190513302Y-118248224D01*
X190513303Y-118248226D01*
X190567118Y-118366063D01*
X190651951Y-118463967D01*
X190723763Y-118510118D01*
X190760931Y-118534004D01*
X190885228Y-118570500D01*
X190885232Y-118570500D01*
X191014768Y-118570500D01*
X191014772Y-118570500D01*
X191139069Y-118534004D01*
X191248049Y-118463967D01*
X191332882Y-118366063D01*
X191386697Y-118248226D01*
X191405133Y-118120000D01*
X191386697Y-117991774D01*
X191332882Y-117873937D01*
X191248049Y-117776033D01*
X191248048Y-117776032D01*
X191139073Y-117705998D01*
X191139070Y-117705996D01*
X191139069Y-117705996D01*
X191139066Y-117705995D01*
X191014776Y-117669501D01*
X191014774Y-117669500D01*
X191014772Y-117669500D01*
X190891430Y-117669500D01*
X190823309Y-117649498D01*
X190776816Y-117595842D01*
X190766713Y-117561432D01*
X190756698Y-117491780D01*
X190756697Y-117491776D01*
X190756697Y-117491775D01*
X190756697Y-117491774D01*
X190702882Y-117373937D01*
X190618049Y-117276033D01*
X190618048Y-117276032D01*
X190509073Y-117205998D01*
X190509070Y-117205996D01*
X190509069Y-117205996D01*
X190509066Y-117205995D01*
X190384776Y-117169501D01*
X190384774Y-117169500D01*
X190384772Y-117169500D01*
X190255228Y-117169500D01*
X190255225Y-117169500D01*
X190255223Y-117169501D01*
X190130933Y-117205995D01*
X190130926Y-117205998D01*
X190021951Y-117276032D01*
X189942066Y-117368227D01*
X189937118Y-117373937D01*
X189883303Y-117491774D01*
X189864867Y-117620000D01*
X117283645Y-117620000D01*
X117291555Y-117581434D01*
X117341157Y-117530638D01*
X117402853Y-117514500D01*
X176914040Y-117514500D01*
X176919525Y-117514739D01*
X176959807Y-117518264D01*
X176998870Y-117507796D01*
X177004231Y-117506607D01*
X177044045Y-117499588D01*
X177044047Y-117499586D01*
X177049838Y-117497479D01*
X177065101Y-117491157D01*
X177070681Y-117488555D01*
X177070681Y-117488554D01*
X177070684Y-117488554D01*
X177103817Y-117465352D01*
X177108428Y-117462415D01*
X177143455Y-117442194D01*
X177169453Y-117411209D01*
X177173146Y-117407178D01*
X178367618Y-116212706D01*
X178429928Y-116178682D01*
X178473154Y-116176881D01*
X178540000Y-116185682D01*
X178696762Y-116165044D01*
X178842841Y-116104536D01*
X178968282Y-116008282D01*
X179064536Y-115882841D01*
X179125044Y-115736762D01*
X179145682Y-115580000D01*
X179125044Y-115423238D01*
X179064536Y-115277159D01*
X178968282Y-115151718D01*
X178842841Y-115055464D01*
X178720905Y-115004956D01*
X178696760Y-114994955D01*
X178540000Y-114974318D01*
X178383239Y-114994955D01*
X178237160Y-115055463D01*
X178237157Y-115055465D01*
X178111718Y-115151718D01*
X178015465Y-115277157D01*
X178015463Y-115277160D01*
X177954955Y-115423239D01*
X177934318Y-115579999D01*
X177934318Y-115580001D01*
X177943117Y-115646842D01*
X177932177Y-115716991D01*
X177907290Y-115752382D01*
X176833077Y-116826596D01*
X176770767Y-116860620D01*
X176743984Y-116863500D01*
X144497794Y-116863500D01*
X144429673Y-116843498D01*
X144383180Y-116789842D01*
X144373076Y-116719568D01*
X144402570Y-116654988D01*
X144408699Y-116648405D01*
X146679109Y-114377995D01*
X148457104Y-112600000D01*
X149834318Y-112600000D01*
X149854955Y-112756760D01*
X149854956Y-112756762D01*
X149915464Y-112902841D01*
X150011718Y-113028282D01*
X150137159Y-113124536D01*
X150283238Y-113185044D01*
X150440000Y-113205682D01*
X150596762Y-113185044D01*
X150742841Y-113124536D01*
X150868282Y-113028282D01*
X150964536Y-112902841D01*
X151025044Y-112756762D01*
X151035150Y-112680000D01*
X157644318Y-112680000D01*
X157664955Y-112836760D01*
X157691339Y-112900455D01*
X157725464Y-112982841D01*
X157821718Y-113108282D01*
X157947159Y-113204536D01*
X158093238Y-113265044D01*
X158250000Y-113285682D01*
X158406762Y-113265044D01*
X158552841Y-113204536D01*
X158678282Y-113108282D01*
X158774536Y-112982841D01*
X158835044Y-112836762D01*
X158855682Y-112680000D01*
X158835044Y-112523238D01*
X158774536Y-112377159D01*
X158678282Y-112251718D01*
X158552841Y-112155464D01*
X158406762Y-112094956D01*
X158406760Y-112094955D01*
X158250000Y-112074318D01*
X158093239Y-112094955D01*
X157947160Y-112155463D01*
X157947157Y-112155465D01*
X157821718Y-112251718D01*
X157725465Y-112377157D01*
X157725463Y-112377160D01*
X157664955Y-112523239D01*
X157644318Y-112679999D01*
X157644318Y-112680000D01*
X151035150Y-112680000D01*
X151045682Y-112600000D01*
X151043961Y-112586931D01*
X151025044Y-112443239D01*
X151024056Y-112440852D01*
X150964536Y-112297159D01*
X150868282Y-112171718D01*
X150742841Y-112075464D01*
X150740075Y-112074318D01*
X150596760Y-112014955D01*
X150440000Y-111994318D01*
X150283239Y-112014955D01*
X150137160Y-112075463D01*
X150137157Y-112075465D01*
X150011718Y-112171718D01*
X149915465Y-112297157D01*
X149915463Y-112297160D01*
X149854955Y-112443239D01*
X149834318Y-112599999D01*
X149834318Y-112600000D01*
X148457104Y-112600000D01*
X150997103Y-110060000D01*
X185574318Y-110060000D01*
X185594955Y-110216760D01*
X185644124Y-110335463D01*
X185655464Y-110362841D01*
X185751718Y-110488282D01*
X185877159Y-110584536D01*
X186023238Y-110645044D01*
X186180000Y-110665682D01*
X186336762Y-110645044D01*
X186448058Y-110598943D01*
X186518643Y-110591354D01*
X186582131Y-110623132D01*
X186618359Y-110684190D01*
X186621195Y-110731797D01*
X186604318Y-110859998D01*
X186604318Y-110860000D01*
X186624955Y-111016760D01*
X186678709Y-111146532D01*
X186685464Y-111162841D01*
X186781718Y-111288282D01*
X186907159Y-111384536D01*
X187053238Y-111445044D01*
X187210000Y-111465682D01*
X187366762Y-111445044D01*
X187512841Y-111384536D01*
X187638282Y-111288282D01*
X187734536Y-111162841D01*
X187795044Y-111016762D01*
X187815682Y-110860000D01*
X187812622Y-110836760D01*
X187798401Y-110728737D01*
X187795044Y-110703238D01*
X187734536Y-110557159D01*
X187638282Y-110431718D01*
X187512841Y-110335464D01*
X187493779Y-110327568D01*
X187366760Y-110274955D01*
X187210000Y-110254318D01*
X187053239Y-110274955D01*
X186999961Y-110297024D01*
X186941942Y-110321056D01*
X186871354Y-110328645D01*
X186807867Y-110296866D01*
X186771640Y-110235808D01*
X186768804Y-110188201D01*
X186785682Y-110060000D01*
X186785682Y-110059999D01*
X186765044Y-109903239D01*
X186745958Y-109857160D01*
X186704536Y-109757159D01*
X186608282Y-109631718D01*
X186482841Y-109535464D01*
X186385047Y-109494956D01*
X186336760Y-109474955D01*
X186180000Y-109454318D01*
X186023239Y-109474955D01*
X185877160Y-109535463D01*
X185877157Y-109535465D01*
X185751718Y-109631718D01*
X185655465Y-109757157D01*
X185655463Y-109757160D01*
X185594955Y-109903239D01*
X185574318Y-110059999D01*
X185574318Y-110060000D01*
X150997103Y-110060000D01*
X158035941Y-103021160D01*
X158098251Y-102987136D01*
X158108579Y-102985336D01*
X158186762Y-102975044D01*
X158332841Y-102914536D01*
X158458282Y-102818282D01*
X158554536Y-102692841D01*
X158615044Y-102546762D01*
X158635682Y-102390000D01*
X158615044Y-102233238D01*
X158554536Y-102087159D01*
X158458282Y-101961718D01*
X158332841Y-101865464D01*
X158186762Y-101804956D01*
X158186760Y-101804955D01*
X158030000Y-101784318D01*
X157873239Y-101804955D01*
X157727160Y-101865463D01*
X157727157Y-101865465D01*
X157601718Y-101961718D01*
X157505465Y-102087157D01*
X157505463Y-102087160D01*
X157444956Y-102233238D01*
X157434663Y-102311412D01*
X157405939Y-102376339D01*
X157398836Y-102384059D01*
X145285449Y-114497447D01*
X145224456Y-114530752D01*
X145210112Y-114570657D01*
X145197447Y-114585449D01*
X143600302Y-116182595D01*
X143537990Y-116216620D01*
X143511207Y-116219500D01*
X125310385Y-116219500D01*
X125242264Y-116199498D01*
X125195771Y-116145842D01*
X125185667Y-116075568D01*
X125210422Y-116016796D01*
X125215224Y-116010538D01*
X125305536Y-115892841D01*
X125366044Y-115746762D01*
X125386682Y-115590000D01*
X125385365Y-115580000D01*
X125366044Y-115433239D01*
X125364180Y-115428737D01*
X125305536Y-115287159D01*
X125209282Y-115161718D01*
X125083841Y-115065464D01*
X125059702Y-115055465D01*
X124937760Y-115004955D01*
X124781000Y-114984318D01*
X124624239Y-115004955D01*
X124478160Y-115065463D01*
X124478157Y-115065465D01*
X124352718Y-115161718D01*
X124256465Y-115287157D01*
X124256463Y-115287160D01*
X124195955Y-115433239D01*
X124175318Y-115589999D01*
X124175318Y-115590000D01*
X124195955Y-115746760D01*
X124246269Y-115868227D01*
X124256464Y-115892841D01*
X124346774Y-116010536D01*
X124351578Y-116016796D01*
X124377178Y-116083017D01*
X124362913Y-116152565D01*
X124313312Y-116203361D01*
X124251615Y-116219500D01*
X114358793Y-116219500D01*
X114290672Y-116199498D01*
X114269698Y-116182595D01*
X114026510Y-115939407D01*
X113992484Y-115877095D01*
X113997549Y-115806280D01*
X114040096Y-115749444D01*
X114106616Y-115724633D01*
X114132049Y-115725389D01*
X114196500Y-115733875D01*
X114353262Y-115713237D01*
X114499341Y-115652729D01*
X114624782Y-115556475D01*
X114721036Y-115431034D01*
X114781544Y-115284955D01*
X114802182Y-115128193D01*
X114800659Y-115116628D01*
X114783305Y-114984805D01*
X114781544Y-114971431D01*
X114721036Y-114825352D01*
X114624782Y-114699911D01*
X114499341Y-114603657D01*
X114424004Y-114572451D01*
X114353260Y-114543148D01*
X114196500Y-114522511D01*
X114039739Y-114543148D01*
X113893660Y-114603656D01*
X113893657Y-114603658D01*
X113768218Y-114699911D01*
X113671965Y-114825350D01*
X113671963Y-114825353D01*
X113611455Y-114971432D01*
X113590818Y-115128192D01*
X113590818Y-115128193D01*
X113599302Y-115192639D01*
X113588362Y-115262788D01*
X113541234Y-115315886D01*
X113472880Y-115335076D01*
X113405002Y-115314264D01*
X113385285Y-115298181D01*
X113038640Y-114951537D01*
X113033928Y-114946264D01*
X113009573Y-114915724D01*
X113009574Y-114915724D01*
X112960421Y-114882212D01*
X112912572Y-114846897D01*
X112905023Y-114842907D01*
X112897367Y-114839221D01*
X112840515Y-114821685D01*
X112784389Y-114802046D01*
X112776013Y-114800460D01*
X112767598Y-114799193D01*
X112767595Y-114799193D01*
X112708119Y-114799193D01*
X112648683Y-114796969D01*
X112648682Y-114796969D01*
X112639303Y-114798026D01*
X112639205Y-114797164D01*
X112623796Y-114799193D01*
X111169150Y-114799193D01*
X111162095Y-114798797D01*
X111123272Y-114794423D01*
X111123271Y-114794423D01*
X111123270Y-114794423D01*
X111123269Y-114794423D01*
X111082982Y-114802046D01*
X111064827Y-114805481D01*
X111006020Y-114814345D01*
X111006018Y-114814346D01*
X110997832Y-114816870D01*
X110989835Y-114819669D01*
X110937233Y-114847470D01*
X110883669Y-114873265D01*
X110876600Y-114878084D01*
X110869769Y-114883126D01*
X110827707Y-114925188D01*
X110784115Y-114965634D01*
X110778230Y-114973015D01*
X110777554Y-114972476D01*
X110768089Y-114984805D01*
X109696697Y-116056198D01*
X109644948Y-116087441D01*
X109644658Y-116087531D01*
X109607312Y-116093193D01*
X109438599Y-116093193D01*
X109370478Y-116073191D01*
X109361896Y-116067156D01*
X109299347Y-116019161D01*
X109299339Y-116019156D01*
X109153260Y-115958648D01*
X108996500Y-115938011D01*
X108839739Y-115958648D01*
X108693660Y-116019156D01*
X108693657Y-116019158D01*
X108568218Y-116115411D01*
X108471965Y-116240850D01*
X108471963Y-116240853D01*
X108411455Y-116386932D01*
X108390818Y-116543692D01*
X108390818Y-116543693D01*
X108411455Y-116700453D01*
X108462599Y-116823924D01*
X108471964Y-116846534D01*
X108568218Y-116971975D01*
X108693659Y-117068229D01*
X108839738Y-117128737D01*
X108996500Y-117149375D01*
X109153262Y-117128737D01*
X109299341Y-117068229D01*
X109317922Y-117053971D01*
X109361896Y-117020230D01*
X109428116Y-116994630D01*
X109438599Y-116994193D01*
X109711350Y-116994193D01*
X109739386Y-116997352D01*
X109740446Y-116997593D01*
X109742261Y-116998008D01*
X109787336Y-116994630D01*
X109790820Y-116994369D01*
X109795529Y-116994193D01*
X109810063Y-116994193D01*
X109810069Y-116994193D01*
X109824458Y-116992023D01*
X109829111Y-116991498D01*
X109877685Y-116987859D01*
X109880420Y-116986785D01*
X109907684Y-116979479D01*
X109910594Y-116979041D01*
X109912934Y-116977913D01*
X109948823Y-116966843D01*
X110000594Y-116959041D01*
X110000602Y-116959036D01*
X110008779Y-116956514D01*
X110016779Y-116953716D01*
X110069380Y-116925915D01*
X110086791Y-116917529D01*
X110122949Y-116900118D01*
X110122953Y-116900114D01*
X110129992Y-116895315D01*
X110136835Y-116890264D01*
X110136845Y-116890259D01*
X110153275Y-116873828D01*
X110215585Y-116839803D01*
X110286401Y-116844866D01*
X110343238Y-116887412D01*
X110358779Y-116914704D01*
X110369605Y-116940839D01*
X110371964Y-116946534D01*
X110468218Y-117071975D01*
X110593659Y-117168229D01*
X110739738Y-117228737D01*
X110896500Y-117249375D01*
X111053262Y-117228737D01*
X111199341Y-117168229D01*
X111324782Y-117071975D01*
X111421036Y-116946534D01*
X111481544Y-116800455D01*
X111488311Y-116749052D01*
X111517033Y-116684126D01*
X111576298Y-116645034D01*
X111629675Y-116640577D01*
X111696500Y-116649375D01*
X111853262Y-116628737D01*
X111999341Y-116568229D01*
X112124782Y-116471975D01*
X112221036Y-116346534D01*
X112281544Y-116200455D01*
X112302182Y-116043693D01*
X112300684Y-116032318D01*
X112281544Y-115886932D01*
X112276357Y-115874409D01*
X112268769Y-115803819D01*
X112300550Y-115740333D01*
X112361608Y-115704106D01*
X112392767Y-115700193D01*
X112460898Y-115700193D01*
X112529019Y-115720195D01*
X112549993Y-115737097D01*
X112816248Y-116003351D01*
X112816251Y-116003355D01*
X112823433Y-116010537D01*
X112823434Y-116010538D01*
X113259431Y-116446535D01*
X113614201Y-116801304D01*
X113648226Y-116863617D01*
X113643162Y-116934432D01*
X113614201Y-116979495D01*
X112666101Y-117927596D01*
X112603791Y-117961620D01*
X112577008Y-117964500D01*
X104660745Y-117964500D01*
X104592624Y-117944498D01*
X104546131Y-117890842D01*
X104536027Y-117820568D01*
X104544336Y-117790282D01*
X104581544Y-117700455D01*
X104601252Y-117550755D01*
X104629973Y-117485830D01*
X104689238Y-117446738D01*
X104742617Y-117442281D01*
X104796500Y-117449375D01*
X104953262Y-117428737D01*
X105099341Y-117368229D01*
X105224782Y-117271975D01*
X105321036Y-117146534D01*
X105379784Y-117004702D01*
X105424330Y-116949424D01*
X105491693Y-116927003D01*
X105512631Y-116928000D01*
X105610156Y-116940840D01*
X105766918Y-116920202D01*
X105912997Y-116859694D01*
X106038438Y-116763440D01*
X106134692Y-116637999D01*
X106195200Y-116491920D01*
X106215838Y-116335158D01*
X106213731Y-116319157D01*
X106195200Y-116178397D01*
X106193812Y-116175044D01*
X106134692Y-116032317D01*
X106038438Y-115906876D01*
X105912997Y-115810622D01*
X105896574Y-115803819D01*
X105766916Y-115750113D01*
X105610156Y-115729476D01*
X105453395Y-115750113D01*
X105307316Y-115810621D01*
X105307313Y-115810623D01*
X105181874Y-115906876D01*
X105085621Y-116032315D01*
X105085619Y-116032318D01*
X105026873Y-116174145D01*
X104982324Y-116229426D01*
X104914961Y-116251847D01*
X104894018Y-116250849D01*
X104796500Y-116238011D01*
X104639739Y-116258648D01*
X104493660Y-116319156D01*
X104493657Y-116319158D01*
X104368218Y-116415411D01*
X104271965Y-116540850D01*
X104271963Y-116540853D01*
X104211455Y-116686932D01*
X104191748Y-116836628D01*
X104163026Y-116901555D01*
X104103760Y-116940647D01*
X104050381Y-116945104D01*
X103996502Y-116938011D01*
X103996500Y-116938011D01*
X103839739Y-116958648D01*
X103693660Y-117019156D01*
X103693657Y-117019158D01*
X103568218Y-117115411D01*
X103471965Y-117240850D01*
X103471963Y-117240853D01*
X103411455Y-117386932D01*
X103390818Y-117543692D01*
X103390818Y-117543693D01*
X103411455Y-117700453D01*
X103413751Y-117705995D01*
X103442761Y-117776033D01*
X103448664Y-117790282D01*
X103456253Y-117860872D01*
X103424474Y-117924359D01*
X103363416Y-117960586D01*
X103332255Y-117964500D01*
X102207017Y-117964500D01*
X102138896Y-117944498D01*
X102117922Y-117927595D01*
X99832911Y-115642584D01*
X99798885Y-115580272D01*
X99803950Y-115509457D01*
X99846497Y-115452621D01*
X99913017Y-115427810D01*
X99938453Y-115428567D01*
X99939735Y-115428735D01*
X99939738Y-115428737D01*
X100096500Y-115449375D01*
X100253262Y-115428737D01*
X100399341Y-115368229D01*
X100431317Y-115343693D01*
X103490818Y-115343693D01*
X103511455Y-115500453D01*
X103560624Y-115619156D01*
X103571964Y-115646534D01*
X103668218Y-115771975D01*
X103793659Y-115868229D01*
X103939738Y-115928737D01*
X104096500Y-115949375D01*
X104253262Y-115928737D01*
X104399341Y-115868229D01*
X104524782Y-115771975D01*
X104621036Y-115646534D01*
X104681544Y-115500455D01*
X104702182Y-115343693D01*
X104681544Y-115186931D01*
X104652422Y-115116626D01*
X104644833Y-115046038D01*
X104676612Y-114982551D01*
X104737669Y-114946323D01*
X104752375Y-114943488D01*
X104851569Y-114930430D01*
X104997648Y-114869922D01*
X105123089Y-114773668D01*
X105219343Y-114648227D01*
X105279851Y-114502148D01*
X105300489Y-114345386D01*
X105294573Y-114300453D01*
X105286989Y-114242841D01*
X105279851Y-114188624D01*
X105219343Y-114042545D01*
X105140658Y-113940000D01*
X144034318Y-113940000D01*
X144054955Y-114096760D01*
X144093007Y-114188624D01*
X144115464Y-114242841D01*
X144211718Y-114368282D01*
X144337159Y-114464536D01*
X144483238Y-114525044D01*
X144640000Y-114545682D01*
X144796762Y-114525044D01*
X144942841Y-114464536D01*
X145031648Y-114396391D01*
X145079233Y-114377995D01*
X145085766Y-114347967D01*
X145096392Y-114331648D01*
X145105977Y-114319157D01*
X145164536Y-114242841D01*
X145225044Y-114096762D01*
X145245682Y-113940000D01*
X145225044Y-113783238D01*
X145164536Y-113637159D01*
X145068282Y-113511718D01*
X144942841Y-113415464D01*
X144796762Y-113354956D01*
X144796760Y-113354955D01*
X144640000Y-113334318D01*
X144483239Y-113354955D01*
X144337160Y-113415463D01*
X144337157Y-113415465D01*
X144211718Y-113511718D01*
X144115465Y-113637157D01*
X144115463Y-113637160D01*
X144054955Y-113783239D01*
X144034318Y-113939999D01*
X144034318Y-113940000D01*
X105140658Y-113940000D01*
X105123089Y-113917104D01*
X104997648Y-113820850D01*
X104979489Y-113813328D01*
X104851567Y-113760341D01*
X104694807Y-113739704D01*
X104538046Y-113760341D01*
X104391967Y-113820849D01*
X104391964Y-113820851D01*
X104266525Y-113917104D01*
X104170272Y-114042543D01*
X104170270Y-114042546D01*
X104109762Y-114188625D01*
X104089125Y-114345385D01*
X104089125Y-114345386D01*
X104109762Y-114502146D01*
X104109763Y-114502148D01*
X104138686Y-114571975D01*
X104138884Y-114572451D01*
X104146473Y-114643041D01*
X104114694Y-114706528D01*
X104053636Y-114742755D01*
X104038922Y-114745591D01*
X103939739Y-114758648D01*
X103793660Y-114819156D01*
X103793657Y-114819158D01*
X103668218Y-114915411D01*
X103571965Y-115040850D01*
X103571963Y-115040853D01*
X103511455Y-115186932D01*
X103490818Y-115343692D01*
X103490818Y-115343693D01*
X100431317Y-115343693D01*
X100524782Y-115271975D01*
X100621036Y-115146534D01*
X100681544Y-115000455D01*
X100702182Y-114843693D01*
X100696323Y-114799193D01*
X100681544Y-114686932D01*
X100673797Y-114668227D01*
X100621036Y-114540852D01*
X100524782Y-114415411D01*
X100399341Y-114319157D01*
X100354191Y-114300455D01*
X100253260Y-114258648D01*
X100096500Y-114238011D01*
X99939739Y-114258648D01*
X99793660Y-114319156D01*
X99793657Y-114319158D01*
X99668218Y-114415411D01*
X99571965Y-114540850D01*
X99571963Y-114540853D01*
X99511455Y-114686932D01*
X99490818Y-114843692D01*
X99490818Y-114843693D01*
X99511625Y-115001740D01*
X99500686Y-115071889D01*
X99453557Y-115124987D01*
X99385203Y-115144177D01*
X99317326Y-115123366D01*
X99297608Y-115107281D01*
X98522405Y-114332078D01*
X98488379Y-114269766D01*
X98485500Y-114242983D01*
X98485500Y-114143693D01*
X101490818Y-114143693D01*
X101511455Y-114300453D01*
X101530067Y-114345385D01*
X101571964Y-114446534D01*
X101668218Y-114571975D01*
X101793659Y-114668229D01*
X101939738Y-114728737D01*
X102096500Y-114749375D01*
X102253262Y-114728737D01*
X102399341Y-114668229D01*
X102524782Y-114571975D01*
X102621036Y-114446534D01*
X102681544Y-114300455D01*
X102702182Y-114143693D01*
X102696003Y-114096762D01*
X102681544Y-113986932D01*
X102662105Y-113940000D01*
X102621036Y-113840852D01*
X102524782Y-113715411D01*
X102399341Y-113619157D01*
X102285432Y-113571974D01*
X102253260Y-113558648D01*
X102096500Y-113538011D01*
X101939739Y-113558648D01*
X101793660Y-113619156D01*
X101793657Y-113619158D01*
X101668218Y-113715411D01*
X101571965Y-113840850D01*
X101571963Y-113840853D01*
X101511455Y-113986932D01*
X101490818Y-114143692D01*
X101490818Y-114143693D01*
X98485500Y-114143693D01*
X98485500Y-113143693D01*
X106590818Y-113143693D01*
X106611455Y-113300453D01*
X106625483Y-113334318D01*
X106671964Y-113446534D01*
X106768218Y-113571975D01*
X106893659Y-113668229D01*
X107039738Y-113728737D01*
X107196500Y-113749375D01*
X107353262Y-113728737D01*
X107499341Y-113668229D01*
X107624782Y-113571975D01*
X107721036Y-113446534D01*
X107781544Y-113300455D01*
X107802182Y-113143693D01*
X107781544Y-112986931D01*
X107721036Y-112840852D01*
X107646483Y-112743693D01*
X114206318Y-112743693D01*
X114226955Y-112900453D01*
X114283934Y-113038011D01*
X114287464Y-113046534D01*
X114383718Y-113171975D01*
X114509159Y-113268229D01*
X114655238Y-113328737D01*
X114812000Y-113349375D01*
X114968762Y-113328737D01*
X115114841Y-113268229D01*
X115240282Y-113171975D01*
X115336536Y-113046534D01*
X115397044Y-112900455D01*
X115417682Y-112743693D01*
X115416480Y-112734566D01*
X115401286Y-112619156D01*
X115397044Y-112586931D01*
X115336536Y-112440852D01*
X115240282Y-112315411D01*
X115114841Y-112219157D01*
X115092805Y-112210029D01*
X114968760Y-112158648D01*
X114812000Y-112138011D01*
X114655239Y-112158648D01*
X114509160Y-112219156D01*
X114509157Y-112219158D01*
X114383718Y-112315411D01*
X114287465Y-112440850D01*
X114287463Y-112440853D01*
X114226955Y-112586932D01*
X114206318Y-112743692D01*
X114206318Y-112743693D01*
X107646483Y-112743693D01*
X107624782Y-112715411D01*
X107499341Y-112619157D01*
X107421544Y-112586932D01*
X107353260Y-112558648D01*
X107196500Y-112538011D01*
X107039739Y-112558648D01*
X106893660Y-112619156D01*
X106893657Y-112619158D01*
X106768218Y-112715411D01*
X106671965Y-112840850D01*
X106671963Y-112840853D01*
X106611455Y-112986932D01*
X106590818Y-113143692D01*
X106590818Y-113143693D01*
X98485500Y-113143693D01*
X98485500Y-111943693D01*
X110190818Y-111943693D01*
X110211455Y-112100453D01*
X110260624Y-112219156D01*
X110271964Y-112246534D01*
X110368218Y-112371975D01*
X110493659Y-112468229D01*
X110639738Y-112528737D01*
X110796500Y-112549375D01*
X110953262Y-112528737D01*
X111099341Y-112468229D01*
X111224782Y-112371975D01*
X111321036Y-112246534D01*
X111381544Y-112100455D01*
X111402182Y-111943693D01*
X111381544Y-111786931D01*
X111321036Y-111640852D01*
X111224782Y-111515411D01*
X111099341Y-111419157D01*
X110976391Y-111368229D01*
X110953260Y-111358648D01*
X110796500Y-111338011D01*
X110639739Y-111358648D01*
X110493660Y-111419156D01*
X110493657Y-111419158D01*
X110368218Y-111515411D01*
X110271965Y-111640850D01*
X110271963Y-111640853D01*
X110211455Y-111786932D01*
X110190818Y-111943692D01*
X110190818Y-111943693D01*
X98485500Y-111943693D01*
X98485500Y-111249285D01*
X98505502Y-111181164D01*
X98534797Y-111149322D01*
X98538431Y-111146534D01*
X98588282Y-111108282D01*
X98642217Y-111037992D01*
X98699554Y-110996125D01*
X98770424Y-110991903D01*
X98832328Y-111026666D01*
X98842141Y-111037991D01*
X98868218Y-111071975D01*
X98993659Y-111168229D01*
X99139738Y-111228737D01*
X99296500Y-111249375D01*
X99453262Y-111228737D01*
X99599341Y-111168229D01*
X99724782Y-111071975D01*
X99821036Y-110946534D01*
X99863634Y-110843693D01*
X106390818Y-110843693D01*
X106411455Y-111000453D01*
X106459185Y-111115682D01*
X106471964Y-111146534D01*
X106568218Y-111271975D01*
X106693659Y-111368229D01*
X106839738Y-111428737D01*
X106996500Y-111449375D01*
X107153262Y-111428737D01*
X107299341Y-111368229D01*
X107424782Y-111271975D01*
X107521036Y-111146534D01*
X107581544Y-111000455D01*
X107602182Y-110843693D01*
X107600976Y-110834536D01*
X107581544Y-110686932D01*
X107581027Y-110685682D01*
X107521036Y-110540852D01*
X107424782Y-110415411D01*
X107299341Y-110319157D01*
X107293555Y-110316760D01*
X107153260Y-110258648D01*
X106996500Y-110238011D01*
X106839739Y-110258648D01*
X106693660Y-110319156D01*
X106693657Y-110319158D01*
X106568218Y-110415411D01*
X106471965Y-110540850D01*
X106471963Y-110540853D01*
X106411455Y-110686932D01*
X106390818Y-110843692D01*
X106390818Y-110843693D01*
X99863634Y-110843693D01*
X99881544Y-110800455D01*
X99902182Y-110643693D01*
X99895291Y-110591354D01*
X99888643Y-110540852D01*
X99881544Y-110486931D01*
X99821036Y-110340852D01*
X99724782Y-110215411D01*
X99631317Y-110143693D01*
X110196318Y-110143693D01*
X110216955Y-110300453D01*
X110251081Y-110382839D01*
X110277464Y-110446534D01*
X110373718Y-110571975D01*
X110499159Y-110668229D01*
X110645238Y-110728737D01*
X110802000Y-110749375D01*
X110958762Y-110728737D01*
X111104841Y-110668229D01*
X111230282Y-110571975D01*
X111326536Y-110446534D01*
X111387044Y-110300455D01*
X111407682Y-110143693D01*
X111387044Y-109986931D01*
X111326536Y-109840852D01*
X111230282Y-109715411D01*
X111104841Y-109619157D01*
X111059691Y-109600455D01*
X110958760Y-109558648D01*
X110802000Y-109538011D01*
X110645239Y-109558648D01*
X110499160Y-109619156D01*
X110499157Y-109619158D01*
X110373718Y-109715411D01*
X110277465Y-109840850D01*
X110277463Y-109840853D01*
X110216955Y-109986932D01*
X110196318Y-110143692D01*
X110196318Y-110143693D01*
X99631317Y-110143693D01*
X99599341Y-110119157D01*
X99554191Y-110100455D01*
X99453260Y-110058648D01*
X99296500Y-110038011D01*
X99139739Y-110058648D01*
X98993660Y-110119156D01*
X98993657Y-110119158D01*
X98868217Y-110215411D01*
X98814282Y-110285701D01*
X98756944Y-110327568D01*
X98686073Y-110331789D01*
X98624170Y-110297024D01*
X98614358Y-110285700D01*
X98588284Y-110251720D01*
X98588282Y-110251719D01*
X98588282Y-110251718D01*
X98462841Y-110155464D01*
X98457470Y-110153239D01*
X98316760Y-110094955D01*
X98160000Y-110074318D01*
X98003239Y-110094955D01*
X97857160Y-110155463D01*
X97857157Y-110155465D01*
X97731718Y-110251718D01*
X97635465Y-110377157D01*
X97635463Y-110377160D01*
X97574955Y-110523239D01*
X97554318Y-110679999D01*
X97554318Y-110680000D01*
X71178633Y-110680000D01*
X71099341Y-110619157D01*
X71084096Y-110612842D01*
X70953260Y-110558648D01*
X70796500Y-110538011D01*
X70639739Y-110558648D01*
X70493660Y-110619156D01*
X70493657Y-110619158D01*
X70368218Y-110715411D01*
X70271965Y-110840850D01*
X70271963Y-110840853D01*
X70211455Y-110986932D01*
X70190818Y-111143692D01*
X70190818Y-111143693D01*
X67262644Y-111143693D01*
X67339198Y-111043926D01*
X67397187Y-110903929D01*
X67416966Y-110753693D01*
X67413680Y-110728737D01*
X67399254Y-110619156D01*
X67397187Y-110603457D01*
X67339198Y-110463460D01*
X67338723Y-110462841D01*
X67246951Y-110343241D01*
X67126739Y-110250999D01*
X67126731Y-110250994D01*
X66986734Y-110193005D01*
X66874222Y-110178193D01*
X66874220Y-110178193D01*
X66798780Y-110178193D01*
X66798777Y-110178193D01*
X66686265Y-110193005D01*
X66546268Y-110250994D01*
X66546260Y-110250999D01*
X66426048Y-110343241D01*
X66333806Y-110463453D01*
X66333801Y-110463461D01*
X66275812Y-110603458D01*
X66256034Y-110753692D01*
X66256034Y-110753693D01*
X59905000Y-110753693D01*
X59905000Y-109943693D01*
X92090818Y-109943693D01*
X92111455Y-110100453D01*
X92168434Y-110238011D01*
X92171964Y-110246534D01*
X92268218Y-110371975D01*
X92393659Y-110468229D01*
X92539738Y-110528737D01*
X92696500Y-110549375D01*
X92853262Y-110528737D01*
X92999341Y-110468229D01*
X93124782Y-110371975D01*
X93221036Y-110246534D01*
X93281544Y-110100455D01*
X93302182Y-109943693D01*
X93281544Y-109786931D01*
X93221036Y-109640852D01*
X93124782Y-109515411D01*
X92999341Y-109419157D01*
X92885432Y-109371974D01*
X92853260Y-109358648D01*
X92696500Y-109338011D01*
X92539739Y-109358648D01*
X92393660Y-109419156D01*
X92393657Y-109419158D01*
X92268218Y-109515411D01*
X92171965Y-109640850D01*
X92171963Y-109640853D01*
X92111455Y-109786932D01*
X92090818Y-109943692D01*
X92090818Y-109943693D01*
X59905000Y-109943693D01*
X59905000Y-108643693D01*
X75090818Y-108643693D01*
X75111455Y-108800453D01*
X75160624Y-108919156D01*
X75171964Y-108946534D01*
X75268218Y-109071975D01*
X75393659Y-109168229D01*
X75539738Y-109228737D01*
X75696500Y-109249375D01*
X75853262Y-109228737D01*
X75999341Y-109168229D01*
X76124782Y-109071975D01*
X76221036Y-108946534D01*
X76281544Y-108800455D01*
X76302182Y-108643693D01*
X76281544Y-108486931D01*
X76222213Y-108343693D01*
X92090818Y-108343693D01*
X92111455Y-108500453D01*
X92169610Y-108640850D01*
X92171964Y-108646534D01*
X92268218Y-108771975D01*
X92393659Y-108868229D01*
X92539738Y-108928737D01*
X92696500Y-108949375D01*
X92853262Y-108928737D01*
X92999341Y-108868229D01*
X93124782Y-108771975D01*
X93221036Y-108646534D01*
X93281544Y-108500455D01*
X93302182Y-108343693D01*
X102390818Y-108343693D01*
X102411455Y-108500453D01*
X102469610Y-108640850D01*
X102471964Y-108646534D01*
X102568218Y-108771975D01*
X102693659Y-108868229D01*
X102839738Y-108928737D01*
X102996500Y-108949375D01*
X103153262Y-108928737D01*
X103224959Y-108899038D01*
X103295548Y-108891449D01*
X103359035Y-108923228D01*
X103395263Y-108984285D01*
X103398099Y-108999000D01*
X103411455Y-109100453D01*
X103411456Y-109100455D01*
X103471964Y-109246534D01*
X103568218Y-109371975D01*
X103693659Y-109468229D01*
X103839738Y-109528737D01*
X103996500Y-109549375D01*
X104153262Y-109528737D01*
X104299341Y-109468229D01*
X104331317Y-109443693D01*
X112990818Y-109443693D01*
X113011455Y-109600453D01*
X113063026Y-109724955D01*
X113071964Y-109746534D01*
X113168218Y-109871975D01*
X113293659Y-109968229D01*
X113439738Y-110028737D01*
X113596500Y-110049375D01*
X113753262Y-110028737D01*
X113899341Y-109968229D01*
X113931317Y-109943693D01*
X116490818Y-109943693D01*
X116511455Y-110100453D01*
X116568434Y-110238011D01*
X116571964Y-110246534D01*
X116668218Y-110371975D01*
X116793659Y-110468229D01*
X116939738Y-110528737D01*
X117096500Y-110549375D01*
X117253262Y-110528737D01*
X117399341Y-110468229D01*
X117524782Y-110371975D01*
X117621036Y-110246534D01*
X117681544Y-110100455D01*
X117684237Y-110080000D01*
X138124318Y-110080000D01*
X138144955Y-110236760D01*
X138203110Y-110377157D01*
X138205464Y-110382841D01*
X138301718Y-110508282D01*
X138427159Y-110604536D01*
X138573238Y-110665044D01*
X138730000Y-110685682D01*
X138886762Y-110665044D01*
X139032841Y-110604536D01*
X139158282Y-110508282D01*
X139254536Y-110382841D01*
X139315044Y-110236762D01*
X139335682Y-110080000D01*
X139964318Y-110080000D01*
X139984955Y-110236760D01*
X140043110Y-110377157D01*
X140045464Y-110382841D01*
X140141718Y-110508282D01*
X140267159Y-110604536D01*
X140413238Y-110665044D01*
X140570000Y-110685682D01*
X140726762Y-110665044D01*
X140872841Y-110604536D01*
X140998282Y-110508282D01*
X141094536Y-110382841D01*
X141155044Y-110236762D01*
X141165150Y-110160000D01*
X141934318Y-110160000D01*
X141954955Y-110316760D01*
X142008709Y-110446532D01*
X142015464Y-110462841D01*
X142111718Y-110588282D01*
X142237159Y-110684536D01*
X142383238Y-110745044D01*
X142540000Y-110765682D01*
X142696762Y-110745044D01*
X142842841Y-110684536D01*
X142968282Y-110588282D01*
X143064536Y-110462841D01*
X143125044Y-110316762D01*
X143125934Y-110310000D01*
X143834318Y-110310000D01*
X143854955Y-110466760D01*
X143909708Y-110598944D01*
X143915464Y-110612841D01*
X144011718Y-110738282D01*
X144137159Y-110834536D01*
X144283238Y-110895044D01*
X144440000Y-110915682D01*
X144596762Y-110895044D01*
X144742841Y-110834536D01*
X144868282Y-110738282D01*
X144964536Y-110612841D01*
X145007134Y-110510000D01*
X145694318Y-110510000D01*
X145714955Y-110666760D01*
X145770334Y-110800455D01*
X145775464Y-110812841D01*
X145871718Y-110938282D01*
X145997159Y-111034536D01*
X146143238Y-111095044D01*
X146300000Y-111115682D01*
X146456762Y-111095044D01*
X146602841Y-111034536D01*
X146728282Y-110938282D01*
X146824536Y-110812841D01*
X146885044Y-110666762D01*
X146905682Y-110510000D01*
X146885044Y-110353238D01*
X146824536Y-110207159D01*
X146728282Y-110081718D01*
X146602841Y-109985464D01*
X146561233Y-109968229D01*
X146456760Y-109924955D01*
X146300000Y-109904318D01*
X146143239Y-109924955D01*
X145997160Y-109985463D01*
X145997157Y-109985465D01*
X145871718Y-110081718D01*
X145775465Y-110207157D01*
X145775463Y-110207160D01*
X145714955Y-110353239D01*
X145694318Y-110509999D01*
X145694318Y-110510000D01*
X145007134Y-110510000D01*
X145025044Y-110466762D01*
X145045682Y-110310000D01*
X145025044Y-110153238D01*
X144964536Y-110007159D01*
X144868282Y-109881718D01*
X144742841Y-109785464D01*
X144722794Y-109777160D01*
X144596760Y-109724955D01*
X144440000Y-109704318D01*
X144283239Y-109724955D01*
X144137160Y-109785463D01*
X144137157Y-109785465D01*
X144011718Y-109881718D01*
X143915465Y-110007157D01*
X143915463Y-110007160D01*
X143854955Y-110153239D01*
X143834318Y-110309999D01*
X143834318Y-110310000D01*
X143125934Y-110310000D01*
X143145682Y-110160000D01*
X143125044Y-110003238D01*
X143064536Y-109857159D01*
X142968282Y-109731718D01*
X142842841Y-109635464D01*
X142833798Y-109631718D01*
X142696760Y-109574955D01*
X142540000Y-109554318D01*
X142383239Y-109574955D01*
X142237160Y-109635463D01*
X142237157Y-109635465D01*
X142111718Y-109731718D01*
X142015465Y-109857157D01*
X142015463Y-109857160D01*
X141954955Y-110003239D01*
X141934318Y-110159999D01*
X141934318Y-110160000D01*
X141165150Y-110160000D01*
X141175682Y-110080000D01*
X141155044Y-109923238D01*
X141094536Y-109777159D01*
X140998282Y-109651718D01*
X140872841Y-109555464D01*
X140870075Y-109554318D01*
X140726760Y-109494955D01*
X140570000Y-109474318D01*
X140413239Y-109494955D01*
X140267160Y-109555463D01*
X140267157Y-109555465D01*
X140141718Y-109651718D01*
X140045465Y-109777157D01*
X140045463Y-109777160D01*
X139984955Y-109923239D01*
X139964318Y-110079999D01*
X139964318Y-110080000D01*
X139335682Y-110080000D01*
X139315044Y-109923238D01*
X139254536Y-109777159D01*
X139158282Y-109651718D01*
X139032841Y-109555464D01*
X139030075Y-109554318D01*
X138886760Y-109494955D01*
X138730000Y-109474318D01*
X138573239Y-109494955D01*
X138427160Y-109555463D01*
X138427157Y-109555465D01*
X138301718Y-109651718D01*
X138205465Y-109777157D01*
X138205463Y-109777160D01*
X138144955Y-109923239D01*
X138124318Y-110079999D01*
X138124318Y-110080000D01*
X117684237Y-110080000D01*
X117702182Y-109943693D01*
X117681544Y-109786931D01*
X117621036Y-109640852D01*
X117524782Y-109515411D01*
X117399341Y-109419157D01*
X117285432Y-109371974D01*
X117253260Y-109358648D01*
X117096500Y-109338011D01*
X116939739Y-109358648D01*
X116793660Y-109419156D01*
X116793657Y-109419158D01*
X116668218Y-109515411D01*
X116571965Y-109640850D01*
X116571963Y-109640853D01*
X116511455Y-109786932D01*
X116490818Y-109943692D01*
X116490818Y-109943693D01*
X113931317Y-109943693D01*
X114024782Y-109871975D01*
X114121036Y-109746534D01*
X114181544Y-109600455D01*
X114202182Y-109443693D01*
X114181544Y-109286931D01*
X114121036Y-109140852D01*
X114024782Y-109015411D01*
X113931317Y-108943693D01*
X124390818Y-108943693D01*
X124411455Y-109100453D01*
X124411456Y-109100455D01*
X124471964Y-109246534D01*
X124568218Y-109371975D01*
X124693659Y-109468229D01*
X124839738Y-109528737D01*
X124996500Y-109549375D01*
X125153262Y-109528737D01*
X125299341Y-109468229D01*
X125424782Y-109371975D01*
X125521036Y-109246534D01*
X125581544Y-109100455D01*
X125602182Y-108943693D01*
X125581544Y-108786931D01*
X125521036Y-108640852D01*
X125424782Y-108515411D01*
X125299341Y-108419157D01*
X125224960Y-108388347D01*
X125153260Y-108358648D01*
X124996500Y-108338011D01*
X124839739Y-108358648D01*
X124693660Y-108419156D01*
X124693657Y-108419158D01*
X124568218Y-108515411D01*
X124471965Y-108640850D01*
X124471963Y-108640853D01*
X124411455Y-108786932D01*
X124390818Y-108943692D01*
X124390818Y-108943693D01*
X113931317Y-108943693D01*
X113899341Y-108919157D01*
X113785432Y-108871974D01*
X113753260Y-108858648D01*
X113596500Y-108838011D01*
X113439739Y-108858648D01*
X113293660Y-108919156D01*
X113293657Y-108919158D01*
X113168218Y-109015411D01*
X113071965Y-109140850D01*
X113071963Y-109140853D01*
X113011455Y-109286932D01*
X112990818Y-109443692D01*
X112990818Y-109443693D01*
X104331317Y-109443693D01*
X104424782Y-109371975D01*
X104521036Y-109246534D01*
X104581544Y-109100455D01*
X104602182Y-108943693D01*
X104581544Y-108786931D01*
X104521036Y-108640852D01*
X104424782Y-108515411D01*
X104331317Y-108443693D01*
X108525318Y-108443693D01*
X108545955Y-108600453D01*
X108565043Y-108646534D01*
X108606464Y-108746534D01*
X108702718Y-108871975D01*
X108828159Y-108968229D01*
X108974238Y-109028737D01*
X109131000Y-109049375D01*
X109287762Y-109028737D01*
X109433841Y-108968229D01*
X109559282Y-108871975D01*
X109655536Y-108746534D01*
X109716044Y-108600455D01*
X109736682Y-108443693D01*
X109716044Y-108286931D01*
X109655536Y-108140852D01*
X109559282Y-108015411D01*
X109433841Y-107919157D01*
X109424798Y-107915411D01*
X109287760Y-107858648D01*
X109131000Y-107838011D01*
X108974239Y-107858648D01*
X108828160Y-107919156D01*
X108828157Y-107919158D01*
X108702718Y-108015411D01*
X108606465Y-108140850D01*
X108606463Y-108140853D01*
X108545955Y-108286932D01*
X108525318Y-108443692D01*
X108525318Y-108443693D01*
X104331317Y-108443693D01*
X104299341Y-108419157D01*
X104224960Y-108388347D01*
X104153260Y-108358648D01*
X103996500Y-108338011D01*
X103839737Y-108358649D01*
X103768039Y-108388347D01*
X103697449Y-108395936D01*
X103633963Y-108364156D01*
X103597736Y-108303098D01*
X103594900Y-108288384D01*
X103581544Y-108186932D01*
X103562458Y-108140853D01*
X103521036Y-108040852D01*
X103424782Y-107915411D01*
X103299341Y-107819157D01*
X103185432Y-107771974D01*
X103153260Y-107758648D01*
X102996500Y-107738011D01*
X102839739Y-107758648D01*
X102693660Y-107819156D01*
X102693657Y-107819158D01*
X102568218Y-107915411D01*
X102471965Y-108040850D01*
X102471963Y-108040853D01*
X102411455Y-108186932D01*
X102390818Y-108343692D01*
X102390818Y-108343693D01*
X93302182Y-108343693D01*
X93294900Y-108288384D01*
X93281544Y-108186932D01*
X93262458Y-108140853D01*
X93221036Y-108040852D01*
X93124782Y-107915411D01*
X92999341Y-107819157D01*
X92885432Y-107771974D01*
X92853260Y-107758648D01*
X92696500Y-107738011D01*
X92539739Y-107758648D01*
X92393660Y-107819156D01*
X92393657Y-107819158D01*
X92268218Y-107915411D01*
X92171965Y-108040850D01*
X92171963Y-108040853D01*
X92111455Y-108186932D01*
X92090818Y-108343692D01*
X92090818Y-108343693D01*
X76222213Y-108343693D01*
X76221036Y-108340852D01*
X76124782Y-108215411D01*
X75999341Y-108119157D01*
X75853262Y-108058649D01*
X75853260Y-108058648D01*
X75696500Y-108038011D01*
X75539739Y-108058648D01*
X75393660Y-108119156D01*
X75393657Y-108119158D01*
X75268218Y-108215411D01*
X75171965Y-108340850D01*
X75171963Y-108340853D01*
X75111455Y-108486932D01*
X75090818Y-108643692D01*
X75090818Y-108643693D01*
X59905000Y-108643693D01*
X59905000Y-107343693D01*
X74290818Y-107343693D01*
X74311455Y-107500453D01*
X74311456Y-107500455D01*
X74371964Y-107646534D01*
X74468218Y-107771975D01*
X74593659Y-107868229D01*
X74739738Y-107928737D01*
X74896500Y-107949375D01*
X75053262Y-107928737D01*
X75199341Y-107868229D01*
X75324782Y-107771975D01*
X75421036Y-107646534D01*
X75481544Y-107500455D01*
X75502182Y-107343693D01*
X75481544Y-107186931D01*
X75421036Y-107040852D01*
X75324782Y-106915411D01*
X75199341Y-106819157D01*
X75053262Y-106758649D01*
X75053260Y-106758648D01*
X74896500Y-106738011D01*
X74739739Y-106758648D01*
X74593660Y-106819156D01*
X74593657Y-106819158D01*
X74468218Y-106915411D01*
X74371965Y-107040850D01*
X74371963Y-107040853D01*
X74311455Y-107186932D01*
X74290818Y-107343692D01*
X74290818Y-107343693D01*
X59905000Y-107343693D01*
X59905000Y-105943693D01*
X105590818Y-105943693D01*
X105611455Y-106100453D01*
X105641081Y-106171975D01*
X105671964Y-106246534D01*
X105768218Y-106371975D01*
X105893659Y-106468229D01*
X106039738Y-106528737D01*
X106196500Y-106549375D01*
X106353262Y-106528737D01*
X106499341Y-106468229D01*
X106624782Y-106371975D01*
X106721036Y-106246534D01*
X106725782Y-106235075D01*
X106770327Y-106179794D01*
X106837690Y-106157371D01*
X106890409Y-106166882D01*
X106893656Y-106168227D01*
X106893659Y-106168229D01*
X107039738Y-106228737D01*
X107196500Y-106249375D01*
X107353262Y-106228737D01*
X107499341Y-106168229D01*
X107624782Y-106071975D01*
X107721036Y-105946534D01*
X107781544Y-105800455D01*
X107789017Y-105743693D01*
X109490818Y-105743693D01*
X109511455Y-105900453D01*
X109530543Y-105946534D01*
X109571964Y-106046534D01*
X109668218Y-106171975D01*
X109793659Y-106268229D01*
X109939738Y-106328737D01*
X110096500Y-106349375D01*
X110253262Y-106328737D01*
X110399341Y-106268229D01*
X110524782Y-106171975D01*
X110621036Y-106046534D01*
X110681544Y-105900455D01*
X110702182Y-105743693D01*
X110681544Y-105586931D01*
X110621036Y-105440852D01*
X110524782Y-105315411D01*
X110399341Y-105219157D01*
X110390298Y-105215411D01*
X110253260Y-105158648D01*
X110096500Y-105138011D01*
X109939739Y-105158648D01*
X109793660Y-105219156D01*
X109793657Y-105219158D01*
X109668218Y-105315411D01*
X109571965Y-105440850D01*
X109571963Y-105440853D01*
X109511455Y-105586932D01*
X109490818Y-105743692D01*
X109490818Y-105743693D01*
X107789017Y-105743693D01*
X107802182Y-105643693D01*
X107781544Y-105486931D01*
X107721036Y-105340852D01*
X107624782Y-105215411D01*
X107499341Y-105119157D01*
X107353262Y-105058649D01*
X107353260Y-105058648D01*
X107196500Y-105038011D01*
X107039739Y-105058648D01*
X106893660Y-105119156D01*
X106893657Y-105119158D01*
X106768218Y-105215411D01*
X106671965Y-105340850D01*
X106671961Y-105340857D01*
X106667215Y-105352316D01*
X106622666Y-105407595D01*
X106555302Y-105430014D01*
X106502590Y-105420503D01*
X106499341Y-105419157D01*
X106353262Y-105358649D01*
X106353260Y-105358648D01*
X106196500Y-105338011D01*
X106039739Y-105358648D01*
X105893660Y-105419156D01*
X105893657Y-105419158D01*
X105768218Y-105515411D01*
X105671965Y-105640850D01*
X105671963Y-105640853D01*
X105611455Y-105786932D01*
X105590818Y-105943692D01*
X105590818Y-105943693D01*
X59905000Y-105943693D01*
X59905000Y-104588441D01*
X61146000Y-104588441D01*
X61157633Y-104646924D01*
X61201948Y-104713245D01*
X61268269Y-104757560D01*
X61326752Y-104769193D01*
X61326753Y-104769193D01*
X63066247Y-104769193D01*
X63066248Y-104769193D01*
X63124731Y-104757560D01*
X63191052Y-104713245D01*
X63235367Y-104646924D01*
X63247000Y-104588441D01*
X63247000Y-104362699D01*
X138899318Y-104362699D01*
X138919955Y-104519459D01*
X138948528Y-104588439D01*
X138980464Y-104665540D01*
X139076718Y-104790981D01*
X139202159Y-104887235D01*
X139348238Y-104947743D01*
X139505000Y-104968381D01*
X139661762Y-104947743D01*
X139807841Y-104887235D01*
X139933282Y-104790981D01*
X140029536Y-104665540D01*
X140090044Y-104519461D01*
X140110682Y-104362699D01*
X140090044Y-104205937D01*
X140029536Y-104059858D01*
X139933282Y-103934417D01*
X139807841Y-103838163D01*
X139661762Y-103777655D01*
X139661760Y-103777654D01*
X139505000Y-103757017D01*
X139348239Y-103777654D01*
X139202160Y-103838162D01*
X139202157Y-103838164D01*
X139076718Y-103934417D01*
X138980465Y-104059856D01*
X138980463Y-104059859D01*
X138919955Y-104205938D01*
X138899318Y-104362698D01*
X138899318Y-104362699D01*
X63247000Y-104362699D01*
X63247000Y-102848945D01*
X63235367Y-102790462D01*
X63191052Y-102724141D01*
X63124731Y-102679826D01*
X63124728Y-102679825D01*
X63066250Y-102668193D01*
X63066248Y-102668193D01*
X61326752Y-102668193D01*
X61326749Y-102668193D01*
X61268271Y-102679825D01*
X61268268Y-102679826D01*
X61201948Y-102724141D01*
X61157633Y-102790461D01*
X61157632Y-102790464D01*
X61146000Y-102848942D01*
X61146000Y-102848945D01*
X61146000Y-104588441D01*
X59905000Y-104588441D01*
X59905000Y-101178696D01*
X61140917Y-101178696D01*
X61161198Y-101384620D01*
X61221268Y-101582647D01*
X61308868Y-101746535D01*
X61318815Y-101765143D01*
X61450090Y-101925103D01*
X61610050Y-102056378D01*
X61792546Y-102153925D01*
X61990566Y-102213993D01*
X61990570Y-102213993D01*
X61990572Y-102213994D01*
X62196497Y-102234276D01*
X62196500Y-102234276D01*
X62196503Y-102234276D01*
X62359794Y-102218193D01*
X115770818Y-102218193D01*
X115791455Y-102374953D01*
X115791456Y-102374955D01*
X115851964Y-102521034D01*
X115948218Y-102646475D01*
X116073659Y-102742729D01*
X116219738Y-102803237D01*
X116376500Y-102823875D01*
X116533262Y-102803237D01*
X116679341Y-102742729D01*
X116804782Y-102646475D01*
X116901036Y-102521034D01*
X116955312Y-102390000D01*
X140364318Y-102390000D01*
X140384955Y-102546760D01*
X140440073Y-102679825D01*
X140445464Y-102692841D01*
X140541718Y-102818282D01*
X140667159Y-102914536D01*
X140813238Y-102975044D01*
X140970000Y-102995682D01*
X141126762Y-102975044D01*
X141272841Y-102914536D01*
X141398282Y-102818282D01*
X141494536Y-102692841D01*
X141555044Y-102546762D01*
X141575682Y-102390000D01*
X141555044Y-102233238D01*
X141494536Y-102087159D01*
X141398282Y-101961718D01*
X141272841Y-101865464D01*
X141126762Y-101804956D01*
X141126760Y-101804955D01*
X140970000Y-101784318D01*
X140813239Y-101804955D01*
X140667160Y-101865463D01*
X140667157Y-101865465D01*
X140541718Y-101961718D01*
X140445465Y-102087157D01*
X140445463Y-102087160D01*
X140384955Y-102233239D01*
X140364318Y-102389999D01*
X140364318Y-102390000D01*
X116955312Y-102390000D01*
X116961544Y-102374955D01*
X116982182Y-102218193D01*
X116961544Y-102061431D01*
X116901036Y-101915352D01*
X116804782Y-101789911D01*
X116679341Y-101693657D01*
X116533262Y-101633149D01*
X116533260Y-101633148D01*
X116376500Y-101612511D01*
X116219739Y-101633148D01*
X116073660Y-101693656D01*
X116073657Y-101693658D01*
X115948218Y-101789911D01*
X115851965Y-101915350D01*
X115851963Y-101915353D01*
X115791455Y-102061432D01*
X115770818Y-102218192D01*
X115770818Y-102218193D01*
X62359794Y-102218193D01*
X62402427Y-102213994D01*
X62402428Y-102213993D01*
X62402434Y-102213993D01*
X62600454Y-102153925D01*
X62782950Y-102056378D01*
X62942910Y-101925103D01*
X63074185Y-101765143D01*
X63171732Y-101582647D01*
X63213883Y-101443693D01*
X106490818Y-101443693D01*
X106511455Y-101600453D01*
X106550062Y-101693657D01*
X106571964Y-101746534D01*
X106668218Y-101871975D01*
X106793659Y-101968229D01*
X106939738Y-102028737D01*
X107096500Y-102049375D01*
X107253262Y-102028737D01*
X107399341Y-101968229D01*
X107524782Y-101871975D01*
X107621036Y-101746534D01*
X107681544Y-101600455D01*
X107702182Y-101443693D01*
X107681544Y-101286931D01*
X107621036Y-101140852D01*
X107524782Y-101015411D01*
X107399341Y-100919157D01*
X107253262Y-100858649D01*
X107253260Y-100858648D01*
X107096500Y-100838011D01*
X106939739Y-100858648D01*
X106793660Y-100919156D01*
X106793657Y-100919158D01*
X106668218Y-101015411D01*
X106571965Y-101140850D01*
X106571963Y-101140853D01*
X106511455Y-101286932D01*
X106490818Y-101443692D01*
X106490818Y-101443693D01*
X63213883Y-101443693D01*
X63231800Y-101384627D01*
X63241423Y-101286932D01*
X63252083Y-101178696D01*
X63252083Y-101178689D01*
X63231801Y-100972765D01*
X63231800Y-100972763D01*
X63231800Y-100972759D01*
X63171732Y-100774739D01*
X63074185Y-100592243D01*
X62942910Y-100432283D01*
X62782950Y-100301008D01*
X62782948Y-100301007D01*
X62782947Y-100301006D01*
X62600454Y-100203461D01*
X62402427Y-100143391D01*
X62196503Y-100123110D01*
X62196497Y-100123110D01*
X61990572Y-100143391D01*
X61792545Y-100203461D01*
X61610052Y-100301006D01*
X61450090Y-100432283D01*
X61318813Y-100592245D01*
X61221268Y-100774738D01*
X61161198Y-100972765D01*
X61140917Y-101178689D01*
X61140917Y-101178696D01*
X59905000Y-101178696D01*
X59905000Y-99510000D01*
X115032875Y-99510000D01*
X115053512Y-99666760D01*
X115053513Y-99666762D01*
X115114021Y-99812841D01*
X115210275Y-99938282D01*
X115335716Y-100034536D01*
X115481795Y-100095044D01*
X115638557Y-100115682D01*
X115795319Y-100095044D01*
X115941398Y-100034536D01*
X116066839Y-99938282D01*
X116163093Y-99812841D01*
X116223601Y-99666762D01*
X116244239Y-99510000D01*
X116223601Y-99353238D01*
X116163093Y-99207159D01*
X116066839Y-99081718D01*
X115941398Y-98985464D01*
X115795319Y-98924956D01*
X115795317Y-98924955D01*
X115638557Y-98904318D01*
X115481796Y-98924955D01*
X115335717Y-98985463D01*
X115335714Y-98985465D01*
X115210275Y-99081718D01*
X115114022Y-99207157D01*
X115114020Y-99207160D01*
X115053512Y-99353239D01*
X115032875Y-99509999D01*
X115032875Y-99510000D01*
X59905000Y-99510000D01*
X59905000Y-97750000D01*
X119894318Y-97750000D01*
X119914955Y-97906760D01*
X119914956Y-97906762D01*
X119975464Y-98052841D01*
X120071718Y-98178282D01*
X120197159Y-98274536D01*
X120343238Y-98335044D01*
X120500000Y-98355682D01*
X120656762Y-98335044D01*
X120802841Y-98274536D01*
X120928282Y-98178282D01*
X121024536Y-98052841D01*
X121085044Y-97906762D01*
X121105682Y-97750000D01*
X121089884Y-97630000D01*
X158554318Y-97630000D01*
X158574955Y-97786760D01*
X158574956Y-97786762D01*
X158635464Y-97932841D01*
X158731718Y-98058282D01*
X158857159Y-98154536D01*
X159003238Y-98215044D01*
X159160000Y-98235682D01*
X159316762Y-98215044D01*
X159462841Y-98154536D01*
X159588282Y-98058282D01*
X159684536Y-97932841D01*
X159745044Y-97786762D01*
X159765682Y-97630000D01*
X159745044Y-97473238D01*
X159684536Y-97327159D01*
X159588282Y-97201718D01*
X159462841Y-97105464D01*
X159316762Y-97044956D01*
X159316760Y-97044955D01*
X159160000Y-97024318D01*
X159003239Y-97044955D01*
X158857160Y-97105463D01*
X158857157Y-97105465D01*
X158731718Y-97201718D01*
X158635465Y-97327157D01*
X158635463Y-97327160D01*
X158574955Y-97473239D01*
X158554318Y-97629999D01*
X158554318Y-97630000D01*
X121089884Y-97630000D01*
X121085044Y-97593238D01*
X121024536Y-97447159D01*
X120928282Y-97321718D01*
X120802841Y-97225464D01*
X120745514Y-97201718D01*
X120656760Y-97164955D01*
X120500000Y-97144318D01*
X120343239Y-97164955D01*
X120197160Y-97225463D01*
X120197157Y-97225465D01*
X120071718Y-97321718D01*
X119975465Y-97447157D01*
X119975463Y-97447160D01*
X119914955Y-97593239D01*
X119894318Y-97749999D01*
X119894318Y-97750000D01*
X59905000Y-97750000D01*
X59905000Y-87360000D01*
X170724318Y-87360000D01*
X170744955Y-87516760D01*
X170744956Y-87516762D01*
X170805464Y-87662841D01*
X170901718Y-87788282D01*
X171027159Y-87884536D01*
X171173238Y-87945044D01*
X171330000Y-87965682D01*
X171486762Y-87945044D01*
X171632841Y-87884536D01*
X171758282Y-87788282D01*
X171854536Y-87662841D01*
X171915044Y-87516762D01*
X171935682Y-87360000D01*
X171915044Y-87203238D01*
X171854536Y-87057159D01*
X171758282Y-86931718D01*
X171632841Y-86835464D01*
X171486762Y-86774956D01*
X171486760Y-86774955D01*
X171330000Y-86754318D01*
X171173239Y-86774955D01*
X171027160Y-86835463D01*
X171027157Y-86835465D01*
X170901718Y-86931718D01*
X170805465Y-87057157D01*
X170805463Y-87057160D01*
X170744955Y-87203239D01*
X170724318Y-87359999D01*
X170724318Y-87360000D01*
X59905000Y-87360000D01*
X59905000Y-74657963D01*
X144682279Y-74657963D01*
X144702916Y-74814723D01*
X144702917Y-74814725D01*
X144763425Y-74960804D01*
X144859679Y-75086245D01*
X144985120Y-75182499D01*
X145131199Y-75243007D01*
X145287961Y-75263645D01*
X145444723Y-75243007D01*
X145590802Y-75182499D01*
X145716243Y-75086245D01*
X145812497Y-74960804D01*
X145873005Y-74814725D01*
X145893643Y-74657963D01*
X145873005Y-74501201D01*
X145812497Y-74355122D01*
X145716243Y-74229681D01*
X145590802Y-74133427D01*
X145444723Y-74072919D01*
X145444721Y-74072918D01*
X145287961Y-74052281D01*
X145131200Y-74072918D01*
X144985121Y-74133426D01*
X144985118Y-74133428D01*
X144859679Y-74229681D01*
X144763426Y-74355120D01*
X144763424Y-74355123D01*
X144702916Y-74501202D01*
X144682279Y-74657962D01*
X144682279Y-74657963D01*
X59905000Y-74657963D01*
X59905000Y-60980000D01*
X120224318Y-60980000D01*
X120244955Y-61136760D01*
X120244956Y-61136762D01*
X120305464Y-61282841D01*
X120401718Y-61408282D01*
X120527159Y-61504536D01*
X120673238Y-61565044D01*
X120830000Y-61585682D01*
X120986762Y-61565044D01*
X121132841Y-61504536D01*
X121258282Y-61408282D01*
X121354536Y-61282841D01*
X121415044Y-61136762D01*
X121435682Y-60980000D01*
X121415044Y-60823238D01*
X121354536Y-60677159D01*
X121258282Y-60551718D01*
X121132841Y-60455464D01*
X120986762Y-60394956D01*
X120986760Y-60394955D01*
X120830000Y-60374318D01*
X120673239Y-60394955D01*
X120527160Y-60455463D01*
X120527157Y-60455465D01*
X120401718Y-60551718D01*
X120305465Y-60677157D01*
X120305463Y-60677160D01*
X120244955Y-60823239D01*
X120224318Y-60979999D01*
X120224318Y-60980000D01*
X59905000Y-60980000D01*
X59905000Y-46910000D01*
X61314341Y-46910000D01*
X61334937Y-47145411D01*
X61396096Y-47373661D01*
X61396098Y-47373665D01*
X61495966Y-47587832D01*
X61631498Y-47781392D01*
X61631502Y-47781397D01*
X61631505Y-47781401D01*
X61798599Y-47948495D01*
X61798603Y-47948498D01*
X61798607Y-47948501D01*
X61992167Y-48084033D01*
X61992166Y-48084033D01*
X62068304Y-48119537D01*
X62206337Y-48183903D01*
X62434592Y-48245063D01*
X62611034Y-48260500D01*
X62611035Y-48260500D01*
X62728965Y-48260500D01*
X62728966Y-48260500D01*
X62905408Y-48245063D01*
X63133663Y-48183903D01*
X63347829Y-48084035D01*
X63541401Y-47948495D01*
X63708495Y-47781401D01*
X63844035Y-47587830D01*
X63875781Y-47519750D01*
X66464500Y-47519750D01*
X66466078Y-47527685D01*
X66476133Y-47578231D01*
X66520448Y-47644552D01*
X66586769Y-47688867D01*
X66645252Y-47700500D01*
X66645253Y-47700500D01*
X68384747Y-47700500D01*
X68384748Y-47700500D01*
X68443231Y-47688867D01*
X68509552Y-47644552D01*
X68553867Y-47578231D01*
X68565500Y-47519748D01*
X68565500Y-46650003D01*
X71539417Y-46650003D01*
X71559698Y-46855927D01*
X71619768Y-47053954D01*
X71668651Y-47145408D01*
X71717315Y-47236450D01*
X71848590Y-47396410D01*
X72008550Y-47527685D01*
X72191046Y-47625232D01*
X72389066Y-47685300D01*
X72389070Y-47685300D01*
X72389072Y-47685301D01*
X72594997Y-47705583D01*
X72595000Y-47705583D01*
X72595003Y-47705583D01*
X72800927Y-47685301D01*
X72800928Y-47685300D01*
X72800934Y-47685300D01*
X72998954Y-47625232D01*
X73181450Y-47527685D01*
X73341410Y-47396410D01*
X73472685Y-47236450D01*
X73570232Y-47053954D01*
X73630300Y-46855934D01*
X73648162Y-46674588D01*
X73650583Y-46650003D01*
X74079417Y-46650003D01*
X74099698Y-46855927D01*
X74159768Y-47053954D01*
X74208651Y-47145408D01*
X74257315Y-47236450D01*
X74388590Y-47396410D01*
X74548550Y-47527685D01*
X74731046Y-47625232D01*
X74929066Y-47685300D01*
X74929070Y-47685300D01*
X74929072Y-47685301D01*
X75134997Y-47705583D01*
X75135000Y-47705583D01*
X75135003Y-47705583D01*
X75340927Y-47685301D01*
X75340928Y-47685300D01*
X75340934Y-47685300D01*
X75538954Y-47625232D01*
X75721450Y-47527685D01*
X75881410Y-47396410D01*
X76012685Y-47236450D01*
X76110232Y-47053954D01*
X76170300Y-46855934D01*
X76188162Y-46674588D01*
X76190583Y-46650003D01*
X76619417Y-46650003D01*
X76639698Y-46855927D01*
X76699768Y-47053954D01*
X76748651Y-47145408D01*
X76797315Y-47236450D01*
X76928590Y-47396410D01*
X77088550Y-47527685D01*
X77271046Y-47625232D01*
X77469066Y-47685300D01*
X77469070Y-47685300D01*
X77469072Y-47685301D01*
X77674997Y-47705583D01*
X77675000Y-47705583D01*
X77675003Y-47705583D01*
X77880927Y-47685301D01*
X77880928Y-47685300D01*
X77880934Y-47685300D01*
X78078954Y-47625232D01*
X78261450Y-47527685D01*
X78421410Y-47396410D01*
X78552685Y-47236450D01*
X78650232Y-47053954D01*
X78710300Y-46855934D01*
X78728162Y-46674588D01*
X78730583Y-46650003D01*
X79159417Y-46650003D01*
X79179698Y-46855927D01*
X79239768Y-47053954D01*
X79288651Y-47145408D01*
X79337315Y-47236450D01*
X79468590Y-47396410D01*
X79628550Y-47527685D01*
X79811046Y-47625232D01*
X80009066Y-47685300D01*
X80009070Y-47685300D01*
X80009072Y-47685301D01*
X80214997Y-47705583D01*
X80215000Y-47705583D01*
X80215003Y-47705583D01*
X80420927Y-47685301D01*
X80420928Y-47685300D01*
X80420934Y-47685300D01*
X80618954Y-47625232D01*
X80801450Y-47527685D01*
X80961410Y-47396410D01*
X81092685Y-47236450D01*
X81190232Y-47053954D01*
X81250300Y-46855934D01*
X81268162Y-46674588D01*
X81270583Y-46650003D01*
X81699417Y-46650003D01*
X81719698Y-46855927D01*
X81779768Y-47053954D01*
X81828651Y-47145408D01*
X81877315Y-47236450D01*
X82008590Y-47396410D01*
X82168550Y-47527685D01*
X82351046Y-47625232D01*
X82549066Y-47685300D01*
X82549070Y-47685300D01*
X82549072Y-47685301D01*
X82754997Y-47705583D01*
X82755000Y-47705583D01*
X82755003Y-47705583D01*
X82960927Y-47685301D01*
X82960928Y-47685300D01*
X82960934Y-47685300D01*
X83158954Y-47625232D01*
X83341450Y-47527685D01*
X83501410Y-47396410D01*
X83632685Y-47236450D01*
X83730232Y-47053954D01*
X83790300Y-46855934D01*
X83808162Y-46674588D01*
X83810583Y-46650003D01*
X84239417Y-46650003D01*
X84259698Y-46855927D01*
X84319768Y-47053954D01*
X84368651Y-47145408D01*
X84417315Y-47236450D01*
X84548590Y-47396410D01*
X84708550Y-47527685D01*
X84891046Y-47625232D01*
X85089066Y-47685300D01*
X85089070Y-47685300D01*
X85089072Y-47685301D01*
X85294997Y-47705583D01*
X85295000Y-47705583D01*
X85295003Y-47705583D01*
X85500927Y-47685301D01*
X85500928Y-47685300D01*
X85500934Y-47685300D01*
X85698954Y-47625232D01*
X85881450Y-47527685D01*
X86041410Y-47396410D01*
X86172685Y-47236450D01*
X86270232Y-47053954D01*
X86330300Y-46855934D01*
X86348162Y-46674588D01*
X86350583Y-46650003D01*
X86779417Y-46650003D01*
X86799698Y-46855927D01*
X86859768Y-47053954D01*
X86908651Y-47145408D01*
X86957315Y-47236450D01*
X87088590Y-47396410D01*
X87248550Y-47527685D01*
X87431046Y-47625232D01*
X87629066Y-47685300D01*
X87629070Y-47685300D01*
X87629072Y-47685301D01*
X87834997Y-47705583D01*
X87835000Y-47705583D01*
X87835003Y-47705583D01*
X88040927Y-47685301D01*
X88040928Y-47685300D01*
X88040934Y-47685300D01*
X88238954Y-47625232D01*
X88421450Y-47527685D01*
X88581410Y-47396410D01*
X88712685Y-47236450D01*
X88810232Y-47053954D01*
X88870300Y-46855934D01*
X88888162Y-46674588D01*
X88890583Y-46650003D01*
X89319417Y-46650003D01*
X89339698Y-46855927D01*
X89399768Y-47053954D01*
X89448651Y-47145408D01*
X89497315Y-47236450D01*
X89628590Y-47396410D01*
X89788550Y-47527685D01*
X89971046Y-47625232D01*
X90169066Y-47685300D01*
X90169070Y-47685300D01*
X90169072Y-47685301D01*
X90374997Y-47705583D01*
X90375000Y-47705583D01*
X90375003Y-47705583D01*
X90580927Y-47685301D01*
X90580928Y-47685300D01*
X90580934Y-47685300D01*
X90778954Y-47625232D01*
X90961450Y-47527685D01*
X91121410Y-47396410D01*
X91252685Y-47236450D01*
X91350232Y-47053954D01*
X91410300Y-46855934D01*
X91428162Y-46674588D01*
X91430583Y-46650003D01*
X91859417Y-46650003D01*
X91879698Y-46855927D01*
X91939768Y-47053954D01*
X91988651Y-47145408D01*
X92037315Y-47236450D01*
X92168590Y-47396410D01*
X92328550Y-47527685D01*
X92511046Y-47625232D01*
X92709066Y-47685300D01*
X92709070Y-47685300D01*
X92709072Y-47685301D01*
X92914997Y-47705583D01*
X92915000Y-47705583D01*
X92915003Y-47705583D01*
X93120927Y-47685301D01*
X93120928Y-47685300D01*
X93120934Y-47685300D01*
X93318954Y-47625232D01*
X93501450Y-47527685D01*
X93661410Y-47396410D01*
X93792685Y-47236450D01*
X93890232Y-47053954D01*
X93950300Y-46855934D01*
X93968162Y-46674588D01*
X93970583Y-46650003D01*
X94399417Y-46650003D01*
X94419698Y-46855927D01*
X94479768Y-47053954D01*
X94528651Y-47145408D01*
X94577315Y-47236450D01*
X94708590Y-47396410D01*
X94868550Y-47527685D01*
X95051046Y-47625232D01*
X95249066Y-47685300D01*
X95249070Y-47685300D01*
X95249072Y-47685301D01*
X95454997Y-47705583D01*
X95455000Y-47705583D01*
X95455003Y-47705583D01*
X95660927Y-47685301D01*
X95660928Y-47685300D01*
X95660934Y-47685300D01*
X95858954Y-47625232D01*
X96041450Y-47527685D01*
X96201410Y-47396410D01*
X96332685Y-47236450D01*
X96430232Y-47053954D01*
X96490300Y-46855934D01*
X96508162Y-46674588D01*
X96510583Y-46650003D01*
X96939417Y-46650003D01*
X96959698Y-46855927D01*
X97019768Y-47053954D01*
X97068651Y-47145408D01*
X97117315Y-47236450D01*
X97248590Y-47396410D01*
X97408550Y-47527685D01*
X97591046Y-47625232D01*
X97789066Y-47685300D01*
X97789070Y-47685300D01*
X97789072Y-47685301D01*
X97994997Y-47705583D01*
X97995000Y-47705583D01*
X97995003Y-47705583D01*
X98200927Y-47685301D01*
X98200928Y-47685300D01*
X98200934Y-47685300D01*
X98398954Y-47625232D01*
X98581450Y-47527685D01*
X98591119Y-47519750D01*
X100589500Y-47519750D01*
X100591078Y-47527685D01*
X100601133Y-47578231D01*
X100645448Y-47644552D01*
X100711769Y-47688867D01*
X100770252Y-47700500D01*
X100770253Y-47700500D01*
X102509747Y-47700500D01*
X102509748Y-47700500D01*
X102568231Y-47688867D01*
X102634552Y-47644552D01*
X102678867Y-47578231D01*
X102690500Y-47519748D01*
X102690500Y-46650003D01*
X103124417Y-46650003D01*
X103144698Y-46855927D01*
X103204768Y-47053954D01*
X103253651Y-47145408D01*
X103302315Y-47236450D01*
X103433590Y-47396410D01*
X103593550Y-47527685D01*
X103776046Y-47625232D01*
X103974066Y-47685300D01*
X103974070Y-47685300D01*
X103974072Y-47685301D01*
X104179997Y-47705583D01*
X104180000Y-47705583D01*
X104180003Y-47705583D01*
X104385927Y-47685301D01*
X104385928Y-47685300D01*
X104385934Y-47685300D01*
X104583954Y-47625232D01*
X104766450Y-47527685D01*
X104926410Y-47396410D01*
X105057685Y-47236450D01*
X105155232Y-47053954D01*
X105215300Y-46855934D01*
X105233162Y-46674588D01*
X105235583Y-46650003D01*
X105664417Y-46650003D01*
X105684698Y-46855927D01*
X105744768Y-47053954D01*
X105793651Y-47145408D01*
X105842315Y-47236450D01*
X105973590Y-47396410D01*
X106133550Y-47527685D01*
X106316046Y-47625232D01*
X106514066Y-47685300D01*
X106514070Y-47685300D01*
X106514072Y-47685301D01*
X106719997Y-47705583D01*
X106720000Y-47705583D01*
X106720003Y-47705583D01*
X106925927Y-47685301D01*
X106925928Y-47685300D01*
X106925934Y-47685300D01*
X107123954Y-47625232D01*
X107306450Y-47527685D01*
X107466410Y-47396410D01*
X107597685Y-47236450D01*
X107695232Y-47053954D01*
X107755300Y-46855934D01*
X107773162Y-46674588D01*
X107775583Y-46650003D01*
X108204417Y-46650003D01*
X108224698Y-46855927D01*
X108284768Y-47053954D01*
X108333651Y-47145408D01*
X108382315Y-47236450D01*
X108513590Y-47396410D01*
X108673550Y-47527685D01*
X108856046Y-47625232D01*
X109054066Y-47685300D01*
X109054070Y-47685300D01*
X109054072Y-47685301D01*
X109259997Y-47705583D01*
X109260000Y-47705583D01*
X109260003Y-47705583D01*
X109465927Y-47685301D01*
X109465928Y-47685300D01*
X109465934Y-47685300D01*
X109663954Y-47625232D01*
X109846450Y-47527685D01*
X110006410Y-47396410D01*
X110137685Y-47236450D01*
X110235232Y-47053954D01*
X110295300Y-46855934D01*
X110313162Y-46674588D01*
X110315583Y-46650003D01*
X110744417Y-46650003D01*
X110764698Y-46855927D01*
X110824768Y-47053954D01*
X110873651Y-47145408D01*
X110922315Y-47236450D01*
X111053590Y-47396410D01*
X111213550Y-47527685D01*
X111396046Y-47625232D01*
X111594066Y-47685300D01*
X111594070Y-47685300D01*
X111594072Y-47685301D01*
X111799997Y-47705583D01*
X111800000Y-47705583D01*
X111800003Y-47705583D01*
X112005927Y-47685301D01*
X112005928Y-47685300D01*
X112005934Y-47685300D01*
X112203954Y-47625232D01*
X112386450Y-47527685D01*
X112546410Y-47396410D01*
X112677685Y-47236450D01*
X112775232Y-47053954D01*
X112835300Y-46855934D01*
X112853162Y-46674588D01*
X112855583Y-46650003D01*
X113284417Y-46650003D01*
X113304698Y-46855927D01*
X113364768Y-47053954D01*
X113413651Y-47145408D01*
X113462315Y-47236450D01*
X113593590Y-47396410D01*
X113753550Y-47527685D01*
X113936046Y-47625232D01*
X114134066Y-47685300D01*
X114134070Y-47685300D01*
X114134072Y-47685301D01*
X114339997Y-47705583D01*
X114340000Y-47705583D01*
X114340003Y-47705583D01*
X114545927Y-47685301D01*
X114545928Y-47685300D01*
X114545934Y-47685300D01*
X114743954Y-47625232D01*
X114926450Y-47527685D01*
X115086410Y-47396410D01*
X115217685Y-47236450D01*
X115315232Y-47053954D01*
X115375300Y-46855934D01*
X115393162Y-46674588D01*
X115395583Y-46650003D01*
X115824417Y-46650003D01*
X115844698Y-46855927D01*
X115904768Y-47053954D01*
X115953651Y-47145408D01*
X116002315Y-47236450D01*
X116133590Y-47396410D01*
X116293550Y-47527685D01*
X116476046Y-47625232D01*
X116674066Y-47685300D01*
X116674070Y-47685300D01*
X116674072Y-47685301D01*
X116879997Y-47705583D01*
X116880000Y-47705583D01*
X116880003Y-47705583D01*
X117085927Y-47685301D01*
X117085928Y-47685300D01*
X117085934Y-47685300D01*
X117283954Y-47625232D01*
X117466450Y-47527685D01*
X117626410Y-47396410D01*
X117757685Y-47236450D01*
X117855232Y-47053954D01*
X117915300Y-46855934D01*
X117933162Y-46674588D01*
X117935583Y-46650003D01*
X118364417Y-46650003D01*
X118384698Y-46855927D01*
X118444768Y-47053954D01*
X118493651Y-47145408D01*
X118542315Y-47236450D01*
X118673590Y-47396410D01*
X118833550Y-47527685D01*
X119016046Y-47625232D01*
X119214066Y-47685300D01*
X119214070Y-47685300D01*
X119214072Y-47685301D01*
X119419997Y-47705583D01*
X119420000Y-47705583D01*
X119420003Y-47705583D01*
X119625927Y-47685301D01*
X119625928Y-47685300D01*
X119625934Y-47685300D01*
X119823954Y-47625232D01*
X120006450Y-47527685D01*
X120166410Y-47396410D01*
X120297685Y-47236450D01*
X120395232Y-47053954D01*
X120455300Y-46855934D01*
X120473162Y-46674588D01*
X120475583Y-46650003D01*
X120904417Y-46650003D01*
X120924698Y-46855927D01*
X120984768Y-47053954D01*
X121033651Y-47145408D01*
X121082315Y-47236450D01*
X121213590Y-47396410D01*
X121373550Y-47527685D01*
X121556046Y-47625232D01*
X121754066Y-47685300D01*
X121754070Y-47685300D01*
X121754072Y-47685301D01*
X121959997Y-47705583D01*
X121960000Y-47705583D01*
X121960003Y-47705583D01*
X122165927Y-47685301D01*
X122165928Y-47685300D01*
X122165934Y-47685300D01*
X122363954Y-47625232D01*
X122546450Y-47527685D01*
X122706410Y-47396410D01*
X122837685Y-47236450D01*
X122935232Y-47053954D01*
X122995300Y-46855934D01*
X123013162Y-46674588D01*
X123015583Y-46650003D01*
X123444417Y-46650003D01*
X123464698Y-46855927D01*
X123524768Y-47053954D01*
X123573651Y-47145408D01*
X123622315Y-47236450D01*
X123753590Y-47396410D01*
X123913550Y-47527685D01*
X124096046Y-47625232D01*
X124294066Y-47685300D01*
X124294070Y-47685300D01*
X124294072Y-47685301D01*
X124499997Y-47705583D01*
X124500000Y-47705583D01*
X124500003Y-47705583D01*
X124705927Y-47685301D01*
X124705928Y-47685300D01*
X124705934Y-47685300D01*
X124903954Y-47625232D01*
X125086450Y-47527685D01*
X125246410Y-47396410D01*
X125377685Y-47236450D01*
X125475232Y-47053954D01*
X125535300Y-46855934D01*
X125553162Y-46674588D01*
X125555583Y-46650003D01*
X125984417Y-46650003D01*
X126004698Y-46855927D01*
X126064768Y-47053954D01*
X126113651Y-47145408D01*
X126162315Y-47236450D01*
X126293590Y-47396410D01*
X126453550Y-47527685D01*
X126636046Y-47625232D01*
X126834066Y-47685300D01*
X126834070Y-47685300D01*
X126834072Y-47685301D01*
X127039997Y-47705583D01*
X127040000Y-47705583D01*
X127040003Y-47705583D01*
X127245927Y-47685301D01*
X127245928Y-47685300D01*
X127245934Y-47685300D01*
X127443954Y-47625232D01*
X127626450Y-47527685D01*
X127786410Y-47396410D01*
X127917685Y-47236450D01*
X128015232Y-47053954D01*
X128075300Y-46855934D01*
X128093162Y-46674588D01*
X128095583Y-46650003D01*
X128095583Y-46649996D01*
X128075301Y-46444072D01*
X128075300Y-46444070D01*
X128075300Y-46444066D01*
X128015232Y-46246046D01*
X127917685Y-46063550D01*
X127786410Y-45903590D01*
X127626450Y-45772315D01*
X127626448Y-45772314D01*
X127626447Y-45772313D01*
X127443954Y-45674768D01*
X127380264Y-45655448D01*
X127245934Y-45614700D01*
X127245933Y-45614699D01*
X127245927Y-45614698D01*
X127040003Y-45594417D01*
X127039997Y-45594417D01*
X126834072Y-45614698D01*
X126636045Y-45674768D01*
X126453552Y-45772313D01*
X126293590Y-45903590D01*
X126162313Y-46063552D01*
X126064768Y-46246045D01*
X126004698Y-46444072D01*
X125984417Y-46649996D01*
X125984417Y-46650003D01*
X125555583Y-46650003D01*
X125555583Y-46649996D01*
X125535301Y-46444072D01*
X125535300Y-46444070D01*
X125535300Y-46444066D01*
X125475232Y-46246046D01*
X125377685Y-46063550D01*
X125246410Y-45903590D01*
X125086450Y-45772315D01*
X125086448Y-45772314D01*
X125086447Y-45772313D01*
X124903954Y-45674768D01*
X124840264Y-45655448D01*
X124705934Y-45614700D01*
X124705933Y-45614699D01*
X124705927Y-45614698D01*
X124500003Y-45594417D01*
X124499997Y-45594417D01*
X124294072Y-45614698D01*
X124096045Y-45674768D01*
X123913552Y-45772313D01*
X123753590Y-45903590D01*
X123622313Y-46063552D01*
X123524768Y-46246045D01*
X123464698Y-46444072D01*
X123444417Y-46649996D01*
X123444417Y-46650003D01*
X123015583Y-46650003D01*
X123015583Y-46649996D01*
X122995301Y-46444072D01*
X122995300Y-46444070D01*
X122995300Y-46444066D01*
X122935232Y-46246046D01*
X122837685Y-46063550D01*
X122706410Y-45903590D01*
X122546450Y-45772315D01*
X122546448Y-45772314D01*
X122546447Y-45772313D01*
X122363954Y-45674768D01*
X122300264Y-45655448D01*
X122165934Y-45614700D01*
X122165933Y-45614699D01*
X122165927Y-45614698D01*
X121960003Y-45594417D01*
X121959997Y-45594417D01*
X121754072Y-45614698D01*
X121556045Y-45674768D01*
X121373552Y-45772313D01*
X121213590Y-45903590D01*
X121082313Y-46063552D01*
X120984768Y-46246045D01*
X120924698Y-46444072D01*
X120904417Y-46649996D01*
X120904417Y-46650003D01*
X120475583Y-46650003D01*
X120475583Y-46649996D01*
X120455301Y-46444072D01*
X120455300Y-46444070D01*
X120455300Y-46444066D01*
X120395232Y-46246046D01*
X120297685Y-46063550D01*
X120166410Y-45903590D01*
X120006450Y-45772315D01*
X120006448Y-45772314D01*
X120006447Y-45772313D01*
X119823954Y-45674768D01*
X119760264Y-45655448D01*
X119625934Y-45614700D01*
X119625933Y-45614699D01*
X119625927Y-45614698D01*
X119420003Y-45594417D01*
X119419997Y-45594417D01*
X119214072Y-45614698D01*
X119016045Y-45674768D01*
X118833552Y-45772313D01*
X118673590Y-45903590D01*
X118542313Y-46063552D01*
X118444768Y-46246045D01*
X118384698Y-46444072D01*
X118364417Y-46649996D01*
X118364417Y-46650003D01*
X117935583Y-46650003D01*
X117935583Y-46649996D01*
X117915301Y-46444072D01*
X117915300Y-46444070D01*
X117915300Y-46444066D01*
X117855232Y-46246046D01*
X117757685Y-46063550D01*
X117626410Y-45903590D01*
X117466450Y-45772315D01*
X117466448Y-45772314D01*
X117466447Y-45772313D01*
X117283954Y-45674768D01*
X117220264Y-45655448D01*
X117085934Y-45614700D01*
X117085933Y-45614699D01*
X117085927Y-45614698D01*
X116880003Y-45594417D01*
X116879997Y-45594417D01*
X116674072Y-45614698D01*
X116476045Y-45674768D01*
X116293552Y-45772313D01*
X116133590Y-45903590D01*
X116002313Y-46063552D01*
X115904768Y-46246045D01*
X115844698Y-46444072D01*
X115824417Y-46649996D01*
X115824417Y-46650003D01*
X115395583Y-46650003D01*
X115395583Y-46649996D01*
X115375301Y-46444072D01*
X115375300Y-46444070D01*
X115375300Y-46444066D01*
X115315232Y-46246046D01*
X115217685Y-46063550D01*
X115086410Y-45903590D01*
X114926450Y-45772315D01*
X114926448Y-45772314D01*
X114926447Y-45772313D01*
X114743954Y-45674768D01*
X114680264Y-45655448D01*
X114545934Y-45614700D01*
X114545933Y-45614699D01*
X114545927Y-45614698D01*
X114340003Y-45594417D01*
X114339997Y-45594417D01*
X114134072Y-45614698D01*
X113936045Y-45674768D01*
X113753552Y-45772313D01*
X113593590Y-45903590D01*
X113462313Y-46063552D01*
X113364768Y-46246045D01*
X113304698Y-46444072D01*
X113284417Y-46649996D01*
X113284417Y-46650003D01*
X112855583Y-46650003D01*
X112855583Y-46649996D01*
X112835301Y-46444072D01*
X112835300Y-46444070D01*
X112835300Y-46444066D01*
X112775232Y-46246046D01*
X112677685Y-46063550D01*
X112546410Y-45903590D01*
X112386450Y-45772315D01*
X112386448Y-45772314D01*
X112386447Y-45772313D01*
X112203954Y-45674768D01*
X112140264Y-45655448D01*
X112005934Y-45614700D01*
X112005933Y-45614699D01*
X112005927Y-45614698D01*
X111800003Y-45594417D01*
X111799997Y-45594417D01*
X111594072Y-45614698D01*
X111396045Y-45674768D01*
X111213552Y-45772313D01*
X111053590Y-45903590D01*
X110922313Y-46063552D01*
X110824768Y-46246045D01*
X110764698Y-46444072D01*
X110744417Y-46649996D01*
X110744417Y-46650003D01*
X110315583Y-46650003D01*
X110315583Y-46649996D01*
X110295301Y-46444072D01*
X110295300Y-46444070D01*
X110295300Y-46444066D01*
X110235232Y-46246046D01*
X110137685Y-46063550D01*
X110006410Y-45903590D01*
X109846450Y-45772315D01*
X109846448Y-45772314D01*
X109846447Y-45772313D01*
X109663954Y-45674768D01*
X109600264Y-45655448D01*
X109465934Y-45614700D01*
X109465933Y-45614699D01*
X109465927Y-45614698D01*
X109260003Y-45594417D01*
X109259997Y-45594417D01*
X109054072Y-45614698D01*
X108856045Y-45674768D01*
X108673552Y-45772313D01*
X108513590Y-45903590D01*
X108382313Y-46063552D01*
X108284768Y-46246045D01*
X108224698Y-46444072D01*
X108204417Y-46649996D01*
X108204417Y-46650003D01*
X107775583Y-46650003D01*
X107775583Y-46649996D01*
X107755301Y-46444072D01*
X107755300Y-46444070D01*
X107755300Y-46444066D01*
X107695232Y-46246046D01*
X107597685Y-46063550D01*
X107466410Y-45903590D01*
X107306450Y-45772315D01*
X107306448Y-45772314D01*
X107306447Y-45772313D01*
X107123954Y-45674768D01*
X107060264Y-45655448D01*
X106925934Y-45614700D01*
X106925933Y-45614699D01*
X106925927Y-45614698D01*
X106720003Y-45594417D01*
X106719997Y-45594417D01*
X106514072Y-45614698D01*
X106316045Y-45674768D01*
X106133552Y-45772313D01*
X105973590Y-45903590D01*
X105842313Y-46063552D01*
X105744768Y-46246045D01*
X105684698Y-46444072D01*
X105664417Y-46649996D01*
X105664417Y-46650003D01*
X105235583Y-46650003D01*
X105235583Y-46649996D01*
X105215301Y-46444072D01*
X105215300Y-46444070D01*
X105215300Y-46444066D01*
X105155232Y-46246046D01*
X105057685Y-46063550D01*
X104926410Y-45903590D01*
X104766450Y-45772315D01*
X104766448Y-45772314D01*
X104766447Y-45772313D01*
X104583954Y-45674768D01*
X104520264Y-45655448D01*
X104385934Y-45614700D01*
X104385933Y-45614699D01*
X104385927Y-45614698D01*
X104180003Y-45594417D01*
X104179997Y-45594417D01*
X103974072Y-45614698D01*
X103776045Y-45674768D01*
X103593552Y-45772313D01*
X103433590Y-45903590D01*
X103302313Y-46063552D01*
X103204768Y-46246045D01*
X103144698Y-46444072D01*
X103124417Y-46649996D01*
X103124417Y-46650003D01*
X102690500Y-46650003D01*
X102690500Y-45780252D01*
X102678867Y-45721769D01*
X102634552Y-45655448D01*
X102568231Y-45611133D01*
X102568228Y-45611132D01*
X102509750Y-45599500D01*
X102509748Y-45599500D01*
X100770252Y-45599500D01*
X100770249Y-45599500D01*
X100711771Y-45611132D01*
X100711768Y-45611133D01*
X100645448Y-45655448D01*
X100601133Y-45721768D01*
X100601132Y-45721771D01*
X100589500Y-45780249D01*
X100589500Y-47519750D01*
X98591119Y-47519750D01*
X98741410Y-47396410D01*
X98872685Y-47236450D01*
X98970232Y-47053954D01*
X99030300Y-46855934D01*
X99048162Y-46674588D01*
X99050583Y-46650003D01*
X99050583Y-46649996D01*
X99030301Y-46444072D01*
X99030300Y-46444070D01*
X99030300Y-46444066D01*
X98970232Y-46246046D01*
X98872685Y-46063550D01*
X98741410Y-45903590D01*
X98581450Y-45772315D01*
X98581448Y-45772314D01*
X98581447Y-45772313D01*
X98398954Y-45674768D01*
X98335264Y-45655448D01*
X98200934Y-45614700D01*
X98200933Y-45614699D01*
X98200927Y-45614698D01*
X97995003Y-45594417D01*
X97994997Y-45594417D01*
X97789072Y-45614698D01*
X97591045Y-45674768D01*
X97408552Y-45772313D01*
X97248590Y-45903590D01*
X97117313Y-46063552D01*
X97019768Y-46246045D01*
X96959698Y-46444072D01*
X96939417Y-46649996D01*
X96939417Y-46650003D01*
X96510583Y-46650003D01*
X96510583Y-46649996D01*
X96490301Y-46444072D01*
X96490300Y-46444070D01*
X96490300Y-46444066D01*
X96430232Y-46246046D01*
X96332685Y-46063550D01*
X96201410Y-45903590D01*
X96041450Y-45772315D01*
X96041448Y-45772314D01*
X96041447Y-45772313D01*
X95858954Y-45674768D01*
X95795264Y-45655448D01*
X95660934Y-45614700D01*
X95660933Y-45614699D01*
X95660927Y-45614698D01*
X95455003Y-45594417D01*
X95454997Y-45594417D01*
X95249072Y-45614698D01*
X95051045Y-45674768D01*
X94868552Y-45772313D01*
X94708590Y-45903590D01*
X94577313Y-46063552D01*
X94479768Y-46246045D01*
X94419698Y-46444072D01*
X94399417Y-46649996D01*
X94399417Y-46650003D01*
X93970583Y-46650003D01*
X93970583Y-46649996D01*
X93950301Y-46444072D01*
X93950300Y-46444070D01*
X93950300Y-46444066D01*
X93890232Y-46246046D01*
X93792685Y-46063550D01*
X93661410Y-45903590D01*
X93501450Y-45772315D01*
X93501448Y-45772314D01*
X93501447Y-45772313D01*
X93318954Y-45674768D01*
X93255264Y-45655448D01*
X93120934Y-45614700D01*
X93120933Y-45614699D01*
X93120927Y-45614698D01*
X92915003Y-45594417D01*
X92914997Y-45594417D01*
X92709072Y-45614698D01*
X92511045Y-45674768D01*
X92328552Y-45772313D01*
X92168590Y-45903590D01*
X92037313Y-46063552D01*
X91939768Y-46246045D01*
X91879698Y-46444072D01*
X91859417Y-46649996D01*
X91859417Y-46650003D01*
X91430583Y-46650003D01*
X91430583Y-46649996D01*
X91410301Y-46444072D01*
X91410300Y-46444070D01*
X91410300Y-46444066D01*
X91350232Y-46246046D01*
X91252685Y-46063550D01*
X91121410Y-45903590D01*
X90961450Y-45772315D01*
X90961448Y-45772314D01*
X90961447Y-45772313D01*
X90778954Y-45674768D01*
X90715264Y-45655448D01*
X90580934Y-45614700D01*
X90580933Y-45614699D01*
X90580927Y-45614698D01*
X90375003Y-45594417D01*
X90374997Y-45594417D01*
X90169072Y-45614698D01*
X89971045Y-45674768D01*
X89788552Y-45772313D01*
X89628590Y-45903590D01*
X89497313Y-46063552D01*
X89399768Y-46246045D01*
X89339698Y-46444072D01*
X89319417Y-46649996D01*
X89319417Y-46650003D01*
X88890583Y-46650003D01*
X88890583Y-46649996D01*
X88870301Y-46444072D01*
X88870300Y-46444070D01*
X88870300Y-46444066D01*
X88810232Y-46246046D01*
X88712685Y-46063550D01*
X88581410Y-45903590D01*
X88421450Y-45772315D01*
X88421448Y-45772314D01*
X88421447Y-45772313D01*
X88238954Y-45674768D01*
X88175264Y-45655448D01*
X88040934Y-45614700D01*
X88040933Y-45614699D01*
X88040927Y-45614698D01*
X87835003Y-45594417D01*
X87834997Y-45594417D01*
X87629072Y-45614698D01*
X87431045Y-45674768D01*
X87248552Y-45772313D01*
X87088590Y-45903590D01*
X86957313Y-46063552D01*
X86859768Y-46246045D01*
X86799698Y-46444072D01*
X86779417Y-46649996D01*
X86779417Y-46650003D01*
X86350583Y-46650003D01*
X86350583Y-46649996D01*
X86330301Y-46444072D01*
X86330300Y-46444070D01*
X86330300Y-46444066D01*
X86270232Y-46246046D01*
X86172685Y-46063550D01*
X86041410Y-45903590D01*
X85881450Y-45772315D01*
X85881448Y-45772314D01*
X85881447Y-45772313D01*
X85698954Y-45674768D01*
X85635264Y-45655448D01*
X85500934Y-45614700D01*
X85500933Y-45614699D01*
X85500927Y-45614698D01*
X85295003Y-45594417D01*
X85294997Y-45594417D01*
X85089072Y-45614698D01*
X84891045Y-45674768D01*
X84708552Y-45772313D01*
X84548590Y-45903590D01*
X84417313Y-46063552D01*
X84319768Y-46246045D01*
X84259698Y-46444072D01*
X84239417Y-46649996D01*
X84239417Y-46650003D01*
X83810583Y-46650003D01*
X83810583Y-46649996D01*
X83790301Y-46444072D01*
X83790300Y-46444070D01*
X83790300Y-46444066D01*
X83730232Y-46246046D01*
X83632685Y-46063550D01*
X83501410Y-45903590D01*
X83341450Y-45772315D01*
X83341448Y-45772314D01*
X83341447Y-45772313D01*
X83158954Y-45674768D01*
X83095264Y-45655448D01*
X82960934Y-45614700D01*
X82960933Y-45614699D01*
X82960927Y-45614698D01*
X82755003Y-45594417D01*
X82754997Y-45594417D01*
X82549072Y-45614698D01*
X82351045Y-45674768D01*
X82168552Y-45772313D01*
X82008590Y-45903590D01*
X81877313Y-46063552D01*
X81779768Y-46246045D01*
X81719698Y-46444072D01*
X81699417Y-46649996D01*
X81699417Y-46650003D01*
X81270583Y-46650003D01*
X81270583Y-46649996D01*
X81250301Y-46444072D01*
X81250300Y-46444070D01*
X81250300Y-46444066D01*
X81190232Y-46246046D01*
X81092685Y-46063550D01*
X80961410Y-45903590D01*
X80801450Y-45772315D01*
X80801448Y-45772314D01*
X80801447Y-45772313D01*
X80618954Y-45674768D01*
X80555264Y-45655448D01*
X80420934Y-45614700D01*
X80420933Y-45614699D01*
X80420927Y-45614698D01*
X80215003Y-45594417D01*
X80214997Y-45594417D01*
X80009072Y-45614698D01*
X79811045Y-45674768D01*
X79628552Y-45772313D01*
X79468590Y-45903590D01*
X79337313Y-46063552D01*
X79239768Y-46246045D01*
X79179698Y-46444072D01*
X79159417Y-46649996D01*
X79159417Y-46650003D01*
X78730583Y-46650003D01*
X78730583Y-46649996D01*
X78710301Y-46444072D01*
X78710300Y-46444070D01*
X78710300Y-46444066D01*
X78650232Y-46246046D01*
X78552685Y-46063550D01*
X78421410Y-45903590D01*
X78261450Y-45772315D01*
X78261448Y-45772314D01*
X78261447Y-45772313D01*
X78078954Y-45674768D01*
X78015264Y-45655448D01*
X77880934Y-45614700D01*
X77880933Y-45614699D01*
X77880927Y-45614698D01*
X77675003Y-45594417D01*
X77674997Y-45594417D01*
X77469072Y-45614698D01*
X77271045Y-45674768D01*
X77088552Y-45772313D01*
X76928590Y-45903590D01*
X76797313Y-46063552D01*
X76699768Y-46246045D01*
X76639698Y-46444072D01*
X76619417Y-46649996D01*
X76619417Y-46650003D01*
X76190583Y-46650003D01*
X76190583Y-46649996D01*
X76170301Y-46444072D01*
X76170300Y-46444070D01*
X76170300Y-46444066D01*
X76110232Y-46246046D01*
X76012685Y-46063550D01*
X75881410Y-45903590D01*
X75721450Y-45772315D01*
X75721448Y-45772314D01*
X75721447Y-45772313D01*
X75538954Y-45674768D01*
X75475264Y-45655448D01*
X75340934Y-45614700D01*
X75340933Y-45614699D01*
X75340927Y-45614698D01*
X75135003Y-45594417D01*
X75134997Y-45594417D01*
X74929072Y-45614698D01*
X74731045Y-45674768D01*
X74548552Y-45772313D01*
X74388590Y-45903590D01*
X74257313Y-46063552D01*
X74159768Y-46246045D01*
X74099698Y-46444072D01*
X74079417Y-46649996D01*
X74079417Y-46650003D01*
X73650583Y-46650003D01*
X73650583Y-46649996D01*
X73630301Y-46444072D01*
X73630300Y-46444070D01*
X73630300Y-46444066D01*
X73570232Y-46246046D01*
X73472685Y-46063550D01*
X73341410Y-45903590D01*
X73181450Y-45772315D01*
X73181448Y-45772314D01*
X73181447Y-45772313D01*
X72998954Y-45674768D01*
X72935264Y-45655448D01*
X72800934Y-45614700D01*
X72800933Y-45614699D01*
X72800927Y-45614698D01*
X72595003Y-45594417D01*
X72594997Y-45594417D01*
X72389072Y-45614698D01*
X72191045Y-45674768D01*
X72008552Y-45772313D01*
X71848590Y-45903590D01*
X71717313Y-46063552D01*
X71619768Y-46246045D01*
X71559698Y-46444072D01*
X71539417Y-46649996D01*
X71539417Y-46650003D01*
X68565500Y-46650003D01*
X68565500Y-45780252D01*
X68553867Y-45721769D01*
X68509552Y-45655448D01*
X68443231Y-45611133D01*
X68443228Y-45611132D01*
X68384750Y-45599500D01*
X68384748Y-45599500D01*
X66645252Y-45599500D01*
X66645249Y-45599500D01*
X66586771Y-45611132D01*
X66586768Y-45611133D01*
X66520448Y-45655448D01*
X66476133Y-45721768D01*
X66476132Y-45721771D01*
X66464500Y-45780249D01*
X66464500Y-47519750D01*
X63875781Y-47519750D01*
X63943903Y-47373663D01*
X64005063Y-47145408D01*
X64025659Y-46910000D01*
X64005063Y-46674592D01*
X63998474Y-46650003D01*
X63943903Y-46446338D01*
X63943903Y-46446337D01*
X63844035Y-46232171D01*
X63844034Y-46232169D01*
X63844033Y-46232167D01*
X63708501Y-46038607D01*
X63708497Y-46038602D01*
X63708495Y-46038599D01*
X63541401Y-45871505D01*
X63541397Y-45871502D01*
X63541392Y-45871498D01*
X63347832Y-45735966D01*
X63347833Y-45735966D01*
X63133665Y-45636098D01*
X63133661Y-45636096D01*
X62905411Y-45574937D01*
X62773076Y-45563359D01*
X62728966Y-45559500D01*
X62611034Y-45559500D01*
X62575745Y-45562587D01*
X62434588Y-45574937D01*
X62206338Y-45636096D01*
X62206334Y-45636098D01*
X61992167Y-45735966D01*
X61798607Y-45871498D01*
X61798596Y-45871507D01*
X61631507Y-46038596D01*
X61631502Y-46038602D01*
X61495965Y-46232169D01*
X61396098Y-46446334D01*
X61396096Y-46446338D01*
X61334937Y-46674588D01*
X61314341Y-46910000D01*
X59905000Y-46910000D01*
X59905000Y-44526690D01*
X59925002Y-44458569D01*
X59941905Y-44437595D01*
X60317095Y-44062405D01*
X60379407Y-44028379D01*
X60406190Y-44025500D01*
X138673310Y-44025500D01*
X138741431Y-44045502D01*
G37*
G04 #@! TD.AperFunction*
M02*
