M48
; DRILL file {KiCad 7.0.9-7.0.9~ubuntu22.04.1} date Sat 13 Apr 2024 14:39:46 CEST
; FORMAT={-:-/ absolute / metric / decimal}
; #@! TF.CreationDate,2024-04-13T14:39:46+02:00
; #@! TF.GenerationSoftware,Kicad,Pcbnew,7.0.9-7.0.9~ubuntu22.04.1
; #@! TF.FileFunction,Plated,1,4,PTH
FMAT,2
METRIC
; #@! TA.AperFunction,Plated,PTH,ComponentDrill
T1C0.254
; #@! TA.AperFunction,Plated,PTH,ViaDrill
T2C0.300
; #@! TA.AperFunction,Plated,PTH,ViaDrill
T3C0.400
; #@! TA.AperFunction,Plated,PTH,ComponentDrill
T4C0.600
; #@! TA.AperFunction,Plated,PTH,ComponentDrill
T5C1.000
%
G90
G05
T1
X98.546Y-127.997
X98.546Y-128.784
X98.546Y-129.572
X98.546Y-130.359
X98.546Y-131.146
X99.333Y-127.997
X99.333Y-128.784
X99.333Y-129.572
X99.333Y-130.359
X99.333Y-131.146
X100.12Y-127.997
X100.12Y-128.784
X100.12Y-129.572
X100.12Y-130.359
X100.12Y-131.146
X100.908Y-127.997
X100.908Y-128.784
X100.908Y-129.572
X100.908Y-130.359
X100.908Y-131.146
X101.695Y-127.997
X101.695Y-128.784
X101.695Y-129.572
X101.695Y-130.359
X101.695Y-131.146
T2
X129.36Y-132.45
X172.71Y-135.69
X173.85Y-134.59
X179.69Y-119.49
X180.71Y-119.51
X180.825Y-127.6
X181.95Y-126.29
X189.19Y-121.85
X190.32Y-117.62
X190.95Y-118.12
X192.42Y-121.9
T3
X63.596Y-122.144
X65.697Y-142.844
X66.37Y-71.87
X66.746Y-144.594
X68.746Y-138.344
X69.397Y-117.244
X69.697Y-110.144
X69.697Y-129.244
X70.05Y-83.57
X70.73Y-144.008
X70.746Y-145.344
X70.796Y-111.144
X70.796Y-116.144
X71.0Y-88.18
X71.805Y-112.652
X72.36Y-89.22
X72.596Y-114.444
X72.697Y-106.444
X72.697Y-121.544
X73.197Y-130.744
X73.36Y-88.21
X74.897Y-107.344
X75.296Y-119.144
X75.563Y-112.21
X75.697Y-108.644
X76.81Y-85.21
X76.91Y-87.53
X77.496Y-105.044
X78.47Y-104.36
X79.496Y-125.044
X79.697Y-123.244
X80.496Y-127.844
X80.55Y-82.06
X80.596Y-134.094
X81.735Y-84.43
X84.346Y-130.594
X84.346Y-132.844
X86.096Y-117.344
X87.096Y-121.344
X87.346Y-117.344
X87.726Y-130.391
X87.846Y-131.344
X88.096Y-120.844
X88.096Y-129.184
X88.596Y-133.008
X88.896Y-116.544
X88.896Y-118.944
X89.096Y-113.644
X89.096Y-142.594
X89.493Y-128.948
X89.496Y-115.344
X89.496Y-117.744
X90.346Y-138.344
X90.346Y-139.344
X90.425Y-113.164
X90.534Y-130.156
X90.697Y-114.744
X91.896Y-115.344
X92.096Y-140.344
X92.096Y-141.344
X92.697Y-108.344
X92.697Y-109.944
X92.896Y-114.744
X93.346Y-140.344
X93.346Y-141.344
X93.346Y-142.344
X93.593Y-130.438
X93.697Y-105.644
X93.697Y-129.445
X93.896Y-115.344
X94.38Y-104.36
X94.411Y-130.941
X94.596Y-142.594
X95.373Y-128.681
X95.423Y-126.903
X95.548Y-131.985
X95.596Y-123.094
X95.697Y-117.944
X95.846Y-122.344
X95.846Y-142.594
X96.296Y-116.744
X96.846Y-122.344
X97.112Y-120.109
X97.346Y-142.594
X97.846Y-143.594
X97.896Y-104.944
X98.024Y-122.217
X98.096Y-140.594
X98.096Y-141.844
X98.16Y-110.68
X98.95Y-120.24
X99.096Y-121.094
X99.296Y-110.644
X99.464Y-134.928
X99.973Y-123.438
X100.096Y-114.844
X100.22Y-124.365
X100.596Y-141.594
X100.596Y-143.594
X100.924Y-123.571
X101.846Y-139.844
X101.892Y-123.536
X102.096Y-114.144
X102.346Y-141.844
X102.7Y-120.24
X102.846Y-119.094
X102.846Y-140.844
X102.996Y-108.344
X103.04Y-138.65
X103.041Y-134.677
X103.168Y-125.508
X103.346Y-121.344
X103.548Y-132.875
X103.596Y-119.094
X103.636Y-122.795
X103.755Y-139.844
X103.996Y-108.944
X103.996Y-117.544
X104.056Y-104.944
X104.096Y-115.344
X104.695Y-114.345
X104.796Y-116.844
X105.096Y-105.044
X105.61Y-116.335
X106.09Y-129.366
X106.09Y-130.842
X106.197Y-105.944
X106.197Y-132.744
X106.294Y-125.329
X106.396Y-119.344
X106.471Y-127.746
X106.484Y-126.27
X106.996Y-110.844
X107.064Y-129.686
X107.096Y-101.444
X107.189Y-123.29
X107.197Y-105.644
X107.197Y-113.144
X107.38Y-122.13
X107.596Y-120.844
X108.096Y-140.384
X108.18Y-137.08
X108.596Y-121.844
X108.996Y-116.544
X109.131Y-108.444
X109.26Y-96.09
X109.48Y-127.344
X109.596Y-129.594
X109.596Y-131.844
X110.096Y-105.744
X110.122Y-141.942
X110.545Y-139.594
X110.796Y-111.944
X110.802Y-110.144
X110.802Y-114.278
X110.896Y-116.644
X111.096Y-125.344
X111.096Y-127.594
X111.096Y-129.844
X111.096Y-132.094
X111.096Y-133.844
X111.399Y-123.366
X111.697Y-116.044
X111.863Y-138.519
X112.096Y-133.094
X112.333Y-137.58
X112.41Y-143.29
X113.556Y-118.644
X113.596Y-109.444
X113.837Y-144.644
X113.896Y-126.444
X113.996Y-127.544
X114.197Y-115.128
X114.27Y-119.285
X114.296Y-141.34
X114.812Y-112.744
X115.596Y-127.544
X115.596Y-129.094
X115.636Y-130.094
X115.639Y-99.51
X115.896Y-123.444
X116.376Y-102.218
X116.796Y-118.044
X116.996Y-103.244
X117.092Y-108.344
X117.096Y-109.944
X118.396Y-129.434
X119.777Y-123.701
X120.5Y-97.75
X120.713Y-123.489
X120.83Y-60.98
X121.096Y-139.944
X121.645Y-123.26
X124.197Y-105.144
X124.781Y-115.59
X124.796Y-123.944
X124.896Y-111.644
X124.996Y-108.944
X125.396Y-124.944
X125.925Y-125.872
X126.668Y-126.615
X128.381Y-134.575
X129.69Y-134.541
X130.796Y-133.744
X131.196Y-130.244
X135.496Y-130.144
X135.796Y-133.744
X138.73Y-110.08
X139.505Y-104.363
X140.57Y-110.08
X140.97Y-102.39
X142.54Y-110.16
X142.696Y-139.944
X144.44Y-110.31
X144.54Y-71.49
X144.64Y-113.94
X145.288Y-74.658
X146.41Y-110.27
X146.996Y-142.244
X148.062Y-139.795
X148.296Y-145.144
X148.4Y-69.33
X148.97Y-65.46
X149.747Y-66.161
X150.574Y-139.79
X150.596Y-138.944
X150.7Y-65.72
X153.7Y-102.84
X154.069Y-133.635
X155.948Y-132.918
X156.557Y-98.877
X158.37Y-100.21
X158.543Y-130.323
X159.8Y-88.9
X165.25Y-131.93
X165.883Y-92.583
X166.54Y-86.15
X166.94Y-100.81
X167.66Y-91.93
X168.14Y-126.15
X168.51Y-86.15
X169.46Y-126.11
X170.54Y-99.54
X171.95Y-99.84
X172.563Y-123.5
X172.66Y-126.17
X172.78Y-120.16
X173.01Y-88.9
X173.69Y-126.01
X175.83Y-115.135
X177.91Y-122.03
X178.54Y-115.58
X179.58Y-92.41
X180.47Y-100.52
X185.54Y-129.1
X186.18Y-110.06
X187.21Y-110.86
X187.39Y-86.1
X188.3Y-135.06
X188.93Y-113.209
X188.93Y-115.309
X189.47Y-84.05
X191.84Y-87.05
X194.12Y-119.28
X196.21Y-127.8
X196.43Y-119.023
X196.53Y-116.623
T5
X62.197Y-101.179
X62.197Y-103.719
X62.447Y-132.619
X62.447Y-135.159
X67.515Y-46.65
X70.055Y-46.65
X72.595Y-46.65
X75.135Y-46.65
X77.675Y-46.65
X80.215Y-46.65
X82.755Y-46.65
X85.295Y-46.65
X87.835Y-46.65
X90.375Y-46.65
X92.915Y-46.65
X95.455Y-46.65
X97.995Y-46.65
X101.64Y-46.65
X104.18Y-46.65
X106.72Y-46.65
X109.26Y-46.65
X111.8Y-46.65
X114.34Y-46.65
X116.88Y-46.65
X119.42Y-46.65
X121.96Y-46.65
X124.5Y-46.65
X127.04Y-46.65
X129.58Y-46.65
X175.06Y-46.78
X177.6Y-46.78
X180.14Y-46.78
X182.68Y-46.78
X185.22Y-46.78
T4
X63.486Y-109.324G85X62.886Y-109.324
G05
X63.486Y-117.964G85X62.886Y-117.964
G05
X67.916Y-109.324G85X66.816Y-109.324
G05
X67.916Y-117.964G85X66.816Y-117.964
G05
T0
M30
