%TF.GenerationSoftware,KiCad,Pcbnew,7.0.9-7.0.9~ubuntu22.04.1*%
%TF.CreationDate,2024-04-13T14:39:48+02:00*%
%TF.ProjectId,v7-kaleido,76372d6b-616c-4656-9964-6f2e6b696361,1.1*%
%TF.SameCoordinates,Original*%
%TF.FileFunction,Drillmap*%
%TF.FilePolarity,Positive*%
%FSLAX45Y45*%
G04 Gerber Fmt 4.5, Leading zero omitted, Abs format (unit mm)*
G04 Created by KiCad (PCBNEW 7.0.9-7.0.9~ubuntu22.04.1) date 2024-04-13 14:39:48*
%MOMM*%
%LPD*%
G01*
G04 APERTURE LIST*
%ADD10C,0.050000*%
%ADD11C,0.200000*%
%ADD12C,0.100000*%
%ADD13C,0.220000*%
G04 APERTURE END LIST*
D10*
X5987950Y-14860600D02*
X5987950Y-4400000D01*
X5987950Y-14860000D02*
X11565000Y-14860000D01*
X19800000Y-4400000D02*
X19800000Y-13500000D01*
X5987950Y-4400000D02*
X13920000Y-4400000D01*
X11965000Y-14150000D02*
G75*
G03*
X11765000Y-14350000I0J-200000D01*
G01*
X17318000Y-4945000D02*
X17240000Y-4945000D01*
X19800000Y-14122000D02*
X19800000Y-14860000D01*
X17240000Y-4945000D02*
X17240000Y-4400000D01*
X19430000Y-13500000D02*
X19430000Y-14123000D01*
X11765000Y-14660289D02*
X11765000Y-14350000D01*
X11565000Y-14860290D02*
G75*
G03*
X11765000Y-14660289I0J200000D01*
G01*
X14501620Y-14660000D02*
G75*
G03*
X14701621Y-14860000I200000J0D01*
G01*
X17318000Y-4400000D02*
X19800000Y-4400000D01*
X13920000Y-4400000D02*
X13920000Y-4945000D01*
X14501621Y-14660289D02*
X14503579Y-14350422D01*
X14701621Y-14860000D02*
X17600000Y-14860000D01*
X14503578Y-14350422D02*
G75*
G03*
X14303579Y-14150422I-199998J2D01*
G01*
X19420000Y-14776000D02*
X17600000Y-14776000D01*
X19430000Y-14123000D02*
X19800000Y-14122000D01*
X19420000Y-14860000D02*
X19800000Y-14860000D01*
X14303579Y-14150000D02*
X11965000Y-14150000D01*
X17318000Y-4945000D02*
X17318000Y-4400000D01*
X16920000Y-4945000D02*
X16920000Y-4400000D01*
X19420000Y-14860000D02*
X19420000Y-14776000D01*
X17600000Y-14776000D02*
X17600000Y-14860000D01*
X19800000Y-13500000D02*
X19430000Y-13500000D01*
X17240000Y-4400000D02*
X16920000Y-4400000D01*
X13920000Y-4945000D02*
X16920000Y-4945000D01*
D11*
D12*
X6651150Y-11042869D02*
X6716150Y-11107869D01*
X6716150Y-11042869D02*
X6651150Y-11107869D01*
X6651150Y-11620869D02*
X6716150Y-11685869D01*
X6716150Y-11620869D02*
X6651150Y-11685869D01*
X6477000Y-8352000D02*
G75*
G03*
X6477000Y-8352000I-50000J0D01*
G01*
X6477000Y-9152000D02*
G75*
G03*
X6477000Y-9152000I-50000J0D01*
G01*
D13*
X6259650Y-14424369D02*
X6259650Y-14644369D01*
X6149650Y-14534369D02*
X6369650Y-14534369D01*
X6267000Y-4581000D02*
X6267000Y-4801000D01*
X6157000Y-4691000D02*
X6377000Y-4691000D01*
X19500000Y-4581000D02*
X19500000Y-4801000D01*
X19390000Y-4691000D02*
X19610000Y-4691000D01*
X19500000Y-14424369D02*
X19500000Y-14644369D01*
X19390000Y-14534369D02*
X19610000Y-14534369D01*
D11*
X6246227Y-15174584D02*
X6246227Y-14974584D01*
X6246227Y-14974584D02*
X6293846Y-14974584D01*
X6293846Y-14974584D02*
X6322417Y-14984108D01*
X6322417Y-14984108D02*
X6341465Y-15003155D01*
X6341465Y-15003155D02*
X6350989Y-15022203D01*
X6350989Y-15022203D02*
X6360512Y-15060298D01*
X6360512Y-15060298D02*
X6360512Y-15088869D01*
X6360512Y-15088869D02*
X6350989Y-15126965D01*
X6350989Y-15126965D02*
X6341465Y-15146012D01*
X6341465Y-15146012D02*
X6322417Y-15165060D01*
X6322417Y-15165060D02*
X6293846Y-15174584D01*
X6293846Y-15174584D02*
X6246227Y-15174584D01*
X6446227Y-15174584D02*
X6446227Y-15041250D01*
X6446227Y-15079346D02*
X6455751Y-15060298D01*
X6455751Y-15060298D02*
X6465274Y-15050774D01*
X6465274Y-15050774D02*
X6484322Y-15041250D01*
X6484322Y-15041250D02*
X6503370Y-15041250D01*
X6570036Y-15174584D02*
X6570036Y-15041250D01*
X6570036Y-14974584D02*
X6560512Y-14984108D01*
X6560512Y-14984108D02*
X6570036Y-14993631D01*
X6570036Y-14993631D02*
X6579560Y-14984108D01*
X6579560Y-14984108D02*
X6570036Y-14974584D01*
X6570036Y-14974584D02*
X6570036Y-14993631D01*
X6693846Y-15174584D02*
X6674798Y-15165060D01*
X6674798Y-15165060D02*
X6665274Y-15146012D01*
X6665274Y-15146012D02*
X6665274Y-14974584D01*
X6798608Y-15174584D02*
X6779560Y-15165060D01*
X6779560Y-15165060D02*
X6770036Y-15146012D01*
X6770036Y-15146012D02*
X6770036Y-14974584D01*
X7027179Y-15174584D02*
X7027179Y-14974584D01*
X7027179Y-14974584D02*
X7093846Y-15117441D01*
X7093846Y-15117441D02*
X7160512Y-14974584D01*
X7160512Y-14974584D02*
X7160512Y-15174584D01*
X7341465Y-15174584D02*
X7341465Y-15069822D01*
X7341465Y-15069822D02*
X7331941Y-15050774D01*
X7331941Y-15050774D02*
X7312893Y-15041250D01*
X7312893Y-15041250D02*
X7274798Y-15041250D01*
X7274798Y-15041250D02*
X7255751Y-15050774D01*
X7341465Y-15165060D02*
X7322417Y-15174584D01*
X7322417Y-15174584D02*
X7274798Y-15174584D01*
X7274798Y-15174584D02*
X7255751Y-15165060D01*
X7255751Y-15165060D02*
X7246227Y-15146012D01*
X7246227Y-15146012D02*
X7246227Y-15126965D01*
X7246227Y-15126965D02*
X7255751Y-15107917D01*
X7255751Y-15107917D02*
X7274798Y-15098393D01*
X7274798Y-15098393D02*
X7322417Y-15098393D01*
X7322417Y-15098393D02*
X7341465Y-15088869D01*
X7436703Y-15041250D02*
X7436703Y-15241250D01*
X7436703Y-15050774D02*
X7455751Y-15041250D01*
X7455751Y-15041250D02*
X7493846Y-15041250D01*
X7493846Y-15041250D02*
X7512893Y-15050774D01*
X7512893Y-15050774D02*
X7522417Y-15060298D01*
X7522417Y-15060298D02*
X7531941Y-15079346D01*
X7531941Y-15079346D02*
X7531941Y-15136488D01*
X7531941Y-15136488D02*
X7522417Y-15155536D01*
X7522417Y-15155536D02*
X7512893Y-15165060D01*
X7512893Y-15165060D02*
X7493846Y-15174584D01*
X7493846Y-15174584D02*
X7455751Y-15174584D01*
X7455751Y-15174584D02*
X7436703Y-15165060D01*
X7617655Y-15155536D02*
X7627179Y-15165060D01*
X7627179Y-15165060D02*
X7617655Y-15174584D01*
X7617655Y-15174584D02*
X7608132Y-15165060D01*
X7608132Y-15165060D02*
X7617655Y-15155536D01*
X7617655Y-15155536D02*
X7617655Y-15174584D01*
X7617655Y-15050774D02*
X7627179Y-15060298D01*
X7627179Y-15060298D02*
X7617655Y-15069822D01*
X7617655Y-15069822D02*
X7608132Y-15060298D01*
X7608132Y-15060298D02*
X7617655Y-15050774D01*
X7617655Y-15050774D02*
X7617655Y-15069822D01*
D12*
X5920450Y-15470600D02*
X5985450Y-15535600D01*
X5985450Y-15470600D02*
X5920450Y-15535600D01*
D11*
X6284322Y-15394584D02*
X6303370Y-15394584D01*
X6303370Y-15394584D02*
X6322417Y-15404108D01*
X6322417Y-15404108D02*
X6331941Y-15413631D01*
X6331941Y-15413631D02*
X6341465Y-15432679D01*
X6341465Y-15432679D02*
X6350989Y-15470774D01*
X6350989Y-15470774D02*
X6350989Y-15518393D01*
X6350989Y-15518393D02*
X6341465Y-15556488D01*
X6341465Y-15556488D02*
X6331941Y-15575536D01*
X6331941Y-15575536D02*
X6322417Y-15585060D01*
X6322417Y-15585060D02*
X6303370Y-15594584D01*
X6303370Y-15594584D02*
X6284322Y-15594584D01*
X6284322Y-15594584D02*
X6265274Y-15585060D01*
X6265274Y-15585060D02*
X6255751Y-15575536D01*
X6255751Y-15575536D02*
X6246227Y-15556488D01*
X6246227Y-15556488D02*
X6236703Y-15518393D01*
X6236703Y-15518393D02*
X6236703Y-15470774D01*
X6236703Y-15470774D02*
X6246227Y-15432679D01*
X6246227Y-15432679D02*
X6255751Y-15413631D01*
X6255751Y-15413631D02*
X6265274Y-15404108D01*
X6265274Y-15404108D02*
X6284322Y-15394584D01*
X6436703Y-15575536D02*
X6446227Y-15585060D01*
X6446227Y-15585060D02*
X6436703Y-15594584D01*
X6436703Y-15594584D02*
X6427179Y-15585060D01*
X6427179Y-15585060D02*
X6436703Y-15575536D01*
X6436703Y-15575536D02*
X6436703Y-15594584D01*
X6617655Y-15394584D02*
X6579560Y-15394584D01*
X6579560Y-15394584D02*
X6560512Y-15404108D01*
X6560512Y-15404108D02*
X6550989Y-15413631D01*
X6550989Y-15413631D02*
X6531941Y-15442203D01*
X6531941Y-15442203D02*
X6522417Y-15480298D01*
X6522417Y-15480298D02*
X6522417Y-15556488D01*
X6522417Y-15556488D02*
X6531941Y-15575536D01*
X6531941Y-15575536D02*
X6541465Y-15585060D01*
X6541465Y-15585060D02*
X6560512Y-15594584D01*
X6560512Y-15594584D02*
X6598608Y-15594584D01*
X6598608Y-15594584D02*
X6617655Y-15585060D01*
X6617655Y-15585060D02*
X6627179Y-15575536D01*
X6627179Y-15575536D02*
X6636703Y-15556488D01*
X6636703Y-15556488D02*
X6636703Y-15508869D01*
X6636703Y-15508869D02*
X6627179Y-15489822D01*
X6627179Y-15489822D02*
X6617655Y-15480298D01*
X6617655Y-15480298D02*
X6598608Y-15470774D01*
X6598608Y-15470774D02*
X6560512Y-15470774D01*
X6560512Y-15470774D02*
X6541465Y-15480298D01*
X6541465Y-15480298D02*
X6531941Y-15489822D01*
X6531941Y-15489822D02*
X6522417Y-15508869D01*
X6817655Y-15394584D02*
X6722417Y-15394584D01*
X6722417Y-15394584D02*
X6712893Y-15489822D01*
X6712893Y-15489822D02*
X6722417Y-15480298D01*
X6722417Y-15480298D02*
X6741465Y-15470774D01*
X6741465Y-15470774D02*
X6789084Y-15470774D01*
X6789084Y-15470774D02*
X6808132Y-15480298D01*
X6808132Y-15480298D02*
X6817655Y-15489822D01*
X6817655Y-15489822D02*
X6827179Y-15508869D01*
X6827179Y-15508869D02*
X6827179Y-15556488D01*
X6827179Y-15556488D02*
X6817655Y-15575536D01*
X6817655Y-15575536D02*
X6808132Y-15585060D01*
X6808132Y-15585060D02*
X6789084Y-15594584D01*
X6789084Y-15594584D02*
X6741465Y-15594584D01*
X6741465Y-15594584D02*
X6722417Y-15585060D01*
X6722417Y-15585060D02*
X6712893Y-15575536D01*
X6950989Y-15394584D02*
X6970036Y-15394584D01*
X6970036Y-15394584D02*
X6989084Y-15404108D01*
X6989084Y-15404108D02*
X6998608Y-15413631D01*
X6998608Y-15413631D02*
X7008132Y-15432679D01*
X7008132Y-15432679D02*
X7017655Y-15470774D01*
X7017655Y-15470774D02*
X7017655Y-15518393D01*
X7017655Y-15518393D02*
X7008132Y-15556488D01*
X7008132Y-15556488D02*
X6998608Y-15575536D01*
X6998608Y-15575536D02*
X6989084Y-15585060D01*
X6989084Y-15585060D02*
X6970036Y-15594584D01*
X6970036Y-15594584D02*
X6950989Y-15594584D01*
X6950989Y-15594584D02*
X6931941Y-15585060D01*
X6931941Y-15585060D02*
X6922417Y-15575536D01*
X6922417Y-15575536D02*
X6912893Y-15556488D01*
X6912893Y-15556488D02*
X6903370Y-15518393D01*
X6903370Y-15518393D02*
X6903370Y-15470774D01*
X6903370Y-15470774D02*
X6912893Y-15432679D01*
X6912893Y-15432679D02*
X6922417Y-15413631D01*
X6922417Y-15413631D02*
X6931941Y-15404108D01*
X6931941Y-15404108D02*
X6950989Y-15394584D01*
X7103370Y-15594584D02*
X7103370Y-15461250D01*
X7103370Y-15480298D02*
X7112893Y-15470774D01*
X7112893Y-15470774D02*
X7131941Y-15461250D01*
X7131941Y-15461250D02*
X7160513Y-15461250D01*
X7160513Y-15461250D02*
X7179560Y-15470774D01*
X7179560Y-15470774D02*
X7189084Y-15489822D01*
X7189084Y-15489822D02*
X7189084Y-15594584D01*
X7189084Y-15489822D02*
X7198608Y-15470774D01*
X7198608Y-15470774D02*
X7217655Y-15461250D01*
X7217655Y-15461250D02*
X7246227Y-15461250D01*
X7246227Y-15461250D02*
X7265274Y-15470774D01*
X7265274Y-15470774D02*
X7274798Y-15489822D01*
X7274798Y-15489822D02*
X7274798Y-15594584D01*
X7370036Y-15594584D02*
X7370036Y-15461250D01*
X7370036Y-15480298D02*
X7379560Y-15470774D01*
X7379560Y-15470774D02*
X7398608Y-15461250D01*
X7398608Y-15461250D02*
X7427179Y-15461250D01*
X7427179Y-15461250D02*
X7446227Y-15470774D01*
X7446227Y-15470774D02*
X7455751Y-15489822D01*
X7455751Y-15489822D02*
X7455751Y-15594584D01*
X7455751Y-15489822D02*
X7465274Y-15470774D01*
X7465274Y-15470774D02*
X7484322Y-15461250D01*
X7484322Y-15461250D02*
X7512893Y-15461250D01*
X7512893Y-15461250D02*
X7531941Y-15470774D01*
X7531941Y-15470774D02*
X7541465Y-15489822D01*
X7541465Y-15489822D02*
X7541465Y-15594584D01*
X7931941Y-15385060D02*
X7760513Y-15642203D01*
X8189084Y-15394584D02*
X8208132Y-15394584D01*
X8208132Y-15394584D02*
X8227179Y-15404108D01*
X8227179Y-15404108D02*
X8236703Y-15413631D01*
X8236703Y-15413631D02*
X8246227Y-15432679D01*
X8246227Y-15432679D02*
X8255751Y-15470774D01*
X8255751Y-15470774D02*
X8255751Y-15518393D01*
X8255751Y-15518393D02*
X8246227Y-15556488D01*
X8246227Y-15556488D02*
X8236703Y-15575536D01*
X8236703Y-15575536D02*
X8227179Y-15585060D01*
X8227179Y-15585060D02*
X8208132Y-15594584D01*
X8208132Y-15594584D02*
X8189084Y-15594584D01*
X8189084Y-15594584D02*
X8170036Y-15585060D01*
X8170036Y-15585060D02*
X8160513Y-15575536D01*
X8160513Y-15575536D02*
X8150989Y-15556488D01*
X8150989Y-15556488D02*
X8141465Y-15518393D01*
X8141465Y-15518393D02*
X8141465Y-15470774D01*
X8141465Y-15470774D02*
X8150989Y-15432679D01*
X8150989Y-15432679D02*
X8160513Y-15413631D01*
X8160513Y-15413631D02*
X8170036Y-15404108D01*
X8170036Y-15404108D02*
X8189084Y-15394584D01*
X8341465Y-15575536D02*
X8350989Y-15585060D01*
X8350989Y-15585060D02*
X8341465Y-15594584D01*
X8341465Y-15594584D02*
X8331941Y-15585060D01*
X8331941Y-15585060D02*
X8341465Y-15575536D01*
X8341465Y-15575536D02*
X8341465Y-15594584D01*
X8474798Y-15394584D02*
X8493846Y-15394584D01*
X8493846Y-15394584D02*
X8512894Y-15404108D01*
X8512894Y-15404108D02*
X8522418Y-15413631D01*
X8522418Y-15413631D02*
X8531941Y-15432679D01*
X8531941Y-15432679D02*
X8541465Y-15470774D01*
X8541465Y-15470774D02*
X8541465Y-15518393D01*
X8541465Y-15518393D02*
X8531941Y-15556488D01*
X8531941Y-15556488D02*
X8522418Y-15575536D01*
X8522418Y-15575536D02*
X8512894Y-15585060D01*
X8512894Y-15585060D02*
X8493846Y-15594584D01*
X8493846Y-15594584D02*
X8474798Y-15594584D01*
X8474798Y-15594584D02*
X8455751Y-15585060D01*
X8455751Y-15585060D02*
X8446227Y-15575536D01*
X8446227Y-15575536D02*
X8436703Y-15556488D01*
X8436703Y-15556488D02*
X8427179Y-15518393D01*
X8427179Y-15518393D02*
X8427179Y-15470774D01*
X8427179Y-15470774D02*
X8436703Y-15432679D01*
X8436703Y-15432679D02*
X8446227Y-15413631D01*
X8446227Y-15413631D02*
X8455751Y-15404108D01*
X8455751Y-15404108D02*
X8474798Y-15394584D01*
X8617656Y-15413631D02*
X8627179Y-15404108D01*
X8627179Y-15404108D02*
X8646227Y-15394584D01*
X8646227Y-15394584D02*
X8693846Y-15394584D01*
X8693846Y-15394584D02*
X8712894Y-15404108D01*
X8712894Y-15404108D02*
X8722418Y-15413631D01*
X8722418Y-15413631D02*
X8731941Y-15432679D01*
X8731941Y-15432679D02*
X8731941Y-15451727D01*
X8731941Y-15451727D02*
X8722418Y-15480298D01*
X8722418Y-15480298D02*
X8608132Y-15594584D01*
X8608132Y-15594584D02*
X8731941Y-15594584D01*
X8912894Y-15394584D02*
X8817656Y-15394584D01*
X8817656Y-15394584D02*
X8808132Y-15489822D01*
X8808132Y-15489822D02*
X8817656Y-15480298D01*
X8817656Y-15480298D02*
X8836703Y-15470774D01*
X8836703Y-15470774D02*
X8884322Y-15470774D01*
X8884322Y-15470774D02*
X8903370Y-15480298D01*
X8903370Y-15480298D02*
X8912894Y-15489822D01*
X8912894Y-15489822D02*
X8922418Y-15508869D01*
X8922418Y-15508869D02*
X8922418Y-15556488D01*
X8922418Y-15556488D02*
X8912894Y-15575536D01*
X8912894Y-15575536D02*
X8903370Y-15585060D01*
X8903370Y-15585060D02*
X8884322Y-15594584D01*
X8884322Y-15594584D02*
X8836703Y-15594584D01*
X8836703Y-15594584D02*
X8817656Y-15585060D01*
X8817656Y-15585060D02*
X8808132Y-15575536D01*
X9093846Y-15394584D02*
X9055751Y-15394584D01*
X9055751Y-15394584D02*
X9036703Y-15404108D01*
X9036703Y-15404108D02*
X9027179Y-15413631D01*
X9027179Y-15413631D02*
X9008132Y-15442203D01*
X9008132Y-15442203D02*
X8998608Y-15480298D01*
X8998608Y-15480298D02*
X8998608Y-15556488D01*
X8998608Y-15556488D02*
X9008132Y-15575536D01*
X9008132Y-15575536D02*
X9017656Y-15585060D01*
X9017656Y-15585060D02*
X9036703Y-15594584D01*
X9036703Y-15594584D02*
X9074799Y-15594584D01*
X9074799Y-15594584D02*
X9093846Y-15585060D01*
X9093846Y-15585060D02*
X9103370Y-15575536D01*
X9103370Y-15575536D02*
X9112894Y-15556488D01*
X9112894Y-15556488D02*
X9112894Y-15508869D01*
X9112894Y-15508869D02*
X9103370Y-15489822D01*
X9103370Y-15489822D02*
X9093846Y-15480298D01*
X9093846Y-15480298D02*
X9074799Y-15470774D01*
X9074799Y-15470774D02*
X9036703Y-15470774D01*
X9036703Y-15470774D02*
X9017656Y-15480298D01*
X9017656Y-15480298D02*
X9008132Y-15489822D01*
X9008132Y-15489822D02*
X8998608Y-15508869D01*
X9189084Y-15394584D02*
X9189084Y-15432679D01*
X9265275Y-15394584D02*
X9265275Y-15432679D01*
X9560513Y-15670774D02*
X9550989Y-15661250D01*
X9550989Y-15661250D02*
X9531941Y-15632679D01*
X9531941Y-15632679D02*
X9522418Y-15613631D01*
X9522418Y-15613631D02*
X9512894Y-15585060D01*
X9512894Y-15585060D02*
X9503370Y-15537441D01*
X9503370Y-15537441D02*
X9503370Y-15499346D01*
X9503370Y-15499346D02*
X9512894Y-15451727D01*
X9512894Y-15451727D02*
X9522418Y-15423155D01*
X9522418Y-15423155D02*
X9531941Y-15404108D01*
X9531941Y-15404108D02*
X9550989Y-15375536D01*
X9550989Y-15375536D02*
X9560513Y-15366012D01*
X9627180Y-15413631D02*
X9636703Y-15404108D01*
X9636703Y-15404108D02*
X9655751Y-15394584D01*
X9655751Y-15394584D02*
X9703370Y-15394584D01*
X9703370Y-15394584D02*
X9722418Y-15404108D01*
X9722418Y-15404108D02*
X9731941Y-15413631D01*
X9731941Y-15413631D02*
X9741465Y-15432679D01*
X9741465Y-15432679D02*
X9741465Y-15451727D01*
X9741465Y-15451727D02*
X9731941Y-15480298D01*
X9731941Y-15480298D02*
X9617656Y-15594584D01*
X9617656Y-15594584D02*
X9741465Y-15594584D01*
X9979561Y-15594584D02*
X9979561Y-15394584D01*
X10065275Y-15594584D02*
X10065275Y-15489822D01*
X10065275Y-15489822D02*
X10055751Y-15470774D01*
X10055751Y-15470774D02*
X10036703Y-15461250D01*
X10036703Y-15461250D02*
X10008132Y-15461250D01*
X10008132Y-15461250D02*
X9989084Y-15470774D01*
X9989084Y-15470774D02*
X9979561Y-15480298D01*
X10189084Y-15594584D02*
X10170037Y-15585060D01*
X10170037Y-15585060D02*
X10160513Y-15575536D01*
X10160513Y-15575536D02*
X10150989Y-15556488D01*
X10150989Y-15556488D02*
X10150989Y-15499346D01*
X10150989Y-15499346D02*
X10160513Y-15480298D01*
X10160513Y-15480298D02*
X10170037Y-15470774D01*
X10170037Y-15470774D02*
X10189084Y-15461250D01*
X10189084Y-15461250D02*
X10217656Y-15461250D01*
X10217656Y-15461250D02*
X10236703Y-15470774D01*
X10236703Y-15470774D02*
X10246227Y-15480298D01*
X10246227Y-15480298D02*
X10255751Y-15499346D01*
X10255751Y-15499346D02*
X10255751Y-15556488D01*
X10255751Y-15556488D02*
X10246227Y-15575536D01*
X10246227Y-15575536D02*
X10236703Y-15585060D01*
X10236703Y-15585060D02*
X10217656Y-15594584D01*
X10217656Y-15594584D02*
X10189084Y-15594584D01*
X10370037Y-15594584D02*
X10350989Y-15585060D01*
X10350989Y-15585060D02*
X10341465Y-15566012D01*
X10341465Y-15566012D02*
X10341465Y-15394584D01*
X10522418Y-15585060D02*
X10503370Y-15594584D01*
X10503370Y-15594584D02*
X10465275Y-15594584D01*
X10465275Y-15594584D02*
X10446227Y-15585060D01*
X10446227Y-15585060D02*
X10436703Y-15566012D01*
X10436703Y-15566012D02*
X10436703Y-15489822D01*
X10436703Y-15489822D02*
X10446227Y-15470774D01*
X10446227Y-15470774D02*
X10465275Y-15461250D01*
X10465275Y-15461250D02*
X10503370Y-15461250D01*
X10503370Y-15461250D02*
X10522418Y-15470774D01*
X10522418Y-15470774D02*
X10531942Y-15489822D01*
X10531942Y-15489822D02*
X10531942Y-15508869D01*
X10531942Y-15508869D02*
X10436703Y-15527917D01*
X10608132Y-15585060D02*
X10627180Y-15594584D01*
X10627180Y-15594584D02*
X10665275Y-15594584D01*
X10665275Y-15594584D02*
X10684323Y-15585060D01*
X10684323Y-15585060D02*
X10693846Y-15566012D01*
X10693846Y-15566012D02*
X10693846Y-15556488D01*
X10693846Y-15556488D02*
X10684323Y-15537441D01*
X10684323Y-15537441D02*
X10665275Y-15527917D01*
X10665275Y-15527917D02*
X10636703Y-15527917D01*
X10636703Y-15527917D02*
X10617656Y-15518393D01*
X10617656Y-15518393D02*
X10608132Y-15499346D01*
X10608132Y-15499346D02*
X10608132Y-15489822D01*
X10608132Y-15489822D02*
X10617656Y-15470774D01*
X10617656Y-15470774D02*
X10636703Y-15461250D01*
X10636703Y-15461250D02*
X10665275Y-15461250D01*
X10665275Y-15461250D02*
X10684323Y-15470774D01*
X10760513Y-15670774D02*
X10770037Y-15661250D01*
X10770037Y-15661250D02*
X10789084Y-15632679D01*
X10789084Y-15632679D02*
X10798608Y-15613631D01*
X10798608Y-15613631D02*
X10808132Y-15585060D01*
X10808132Y-15585060D02*
X10817656Y-15537441D01*
X10817656Y-15537441D02*
X10817656Y-15499346D01*
X10817656Y-15499346D02*
X10808132Y-15451727D01*
X10808132Y-15451727D02*
X10798608Y-15423155D01*
X10798608Y-15423155D02*
X10789084Y-15404108D01*
X10789084Y-15404108D02*
X10770037Y-15375536D01*
X10770037Y-15375536D02*
X10760513Y-15366012D01*
X11122418Y-15670774D02*
X11112894Y-15661250D01*
X11112894Y-15661250D02*
X11093846Y-15632679D01*
X11093846Y-15632679D02*
X11084323Y-15613631D01*
X11084323Y-15613631D02*
X11074799Y-15585060D01*
X11074799Y-15585060D02*
X11065275Y-15537441D01*
X11065275Y-15537441D02*
X11065275Y-15499346D01*
X11065275Y-15499346D02*
X11074799Y-15451727D01*
X11074799Y-15451727D02*
X11084323Y-15423155D01*
X11084323Y-15423155D02*
X11093846Y-15404108D01*
X11093846Y-15404108D02*
X11112894Y-15375536D01*
X11112894Y-15375536D02*
X11122418Y-15366012D01*
X11198608Y-15461250D02*
X11198608Y-15594584D01*
X11198608Y-15480298D02*
X11208132Y-15470774D01*
X11208132Y-15470774D02*
X11227180Y-15461250D01*
X11227180Y-15461250D02*
X11255751Y-15461250D01*
X11255751Y-15461250D02*
X11274799Y-15470774D01*
X11274799Y-15470774D02*
X11284322Y-15489822D01*
X11284322Y-15489822D02*
X11284322Y-15594584D01*
X11408132Y-15594584D02*
X11389084Y-15585060D01*
X11389084Y-15585060D02*
X11379561Y-15575536D01*
X11379561Y-15575536D02*
X11370037Y-15556488D01*
X11370037Y-15556488D02*
X11370037Y-15499346D01*
X11370037Y-15499346D02*
X11379561Y-15480298D01*
X11379561Y-15480298D02*
X11389084Y-15470774D01*
X11389084Y-15470774D02*
X11408132Y-15461250D01*
X11408132Y-15461250D02*
X11436703Y-15461250D01*
X11436703Y-15461250D02*
X11455751Y-15470774D01*
X11455751Y-15470774D02*
X11465275Y-15480298D01*
X11465275Y-15480298D02*
X11474799Y-15499346D01*
X11474799Y-15499346D02*
X11474799Y-15556488D01*
X11474799Y-15556488D02*
X11465275Y-15575536D01*
X11465275Y-15575536D02*
X11455751Y-15585060D01*
X11455751Y-15585060D02*
X11436703Y-15594584D01*
X11436703Y-15594584D02*
X11408132Y-15594584D01*
X11531942Y-15461250D02*
X11608132Y-15461250D01*
X11560513Y-15394584D02*
X11560513Y-15566012D01*
X11560513Y-15566012D02*
X11570037Y-15585060D01*
X11570037Y-15585060D02*
X11589084Y-15594584D01*
X11589084Y-15594584D02*
X11608132Y-15594584D01*
X11827180Y-15461250D02*
X11827180Y-15661250D01*
X11827180Y-15470774D02*
X11846227Y-15461250D01*
X11846227Y-15461250D02*
X11884323Y-15461250D01*
X11884323Y-15461250D02*
X11903370Y-15470774D01*
X11903370Y-15470774D02*
X11912894Y-15480298D01*
X11912894Y-15480298D02*
X11922418Y-15499346D01*
X11922418Y-15499346D02*
X11922418Y-15556488D01*
X11922418Y-15556488D02*
X11912894Y-15575536D01*
X11912894Y-15575536D02*
X11903370Y-15585060D01*
X11903370Y-15585060D02*
X11884323Y-15594584D01*
X11884323Y-15594584D02*
X11846227Y-15594584D01*
X11846227Y-15594584D02*
X11827180Y-15585060D01*
X12036703Y-15594584D02*
X12017656Y-15585060D01*
X12017656Y-15585060D02*
X12008132Y-15566012D01*
X12008132Y-15566012D02*
X12008132Y-15394584D01*
X12198608Y-15594584D02*
X12198608Y-15489822D01*
X12198608Y-15489822D02*
X12189084Y-15470774D01*
X12189084Y-15470774D02*
X12170037Y-15461250D01*
X12170037Y-15461250D02*
X12131942Y-15461250D01*
X12131942Y-15461250D02*
X12112894Y-15470774D01*
X12198608Y-15585060D02*
X12179561Y-15594584D01*
X12179561Y-15594584D02*
X12131942Y-15594584D01*
X12131942Y-15594584D02*
X12112894Y-15585060D01*
X12112894Y-15585060D02*
X12103370Y-15566012D01*
X12103370Y-15566012D02*
X12103370Y-15546965D01*
X12103370Y-15546965D02*
X12112894Y-15527917D01*
X12112894Y-15527917D02*
X12131942Y-15518393D01*
X12131942Y-15518393D02*
X12179561Y-15518393D01*
X12179561Y-15518393D02*
X12198608Y-15508869D01*
X12265275Y-15461250D02*
X12341465Y-15461250D01*
X12293846Y-15394584D02*
X12293846Y-15566012D01*
X12293846Y-15566012D02*
X12303370Y-15585060D01*
X12303370Y-15585060D02*
X12322418Y-15594584D01*
X12322418Y-15594584D02*
X12341465Y-15594584D01*
X12484323Y-15585060D02*
X12465275Y-15594584D01*
X12465275Y-15594584D02*
X12427180Y-15594584D01*
X12427180Y-15594584D02*
X12408132Y-15585060D01*
X12408132Y-15585060D02*
X12398608Y-15566012D01*
X12398608Y-15566012D02*
X12398608Y-15489822D01*
X12398608Y-15489822D02*
X12408132Y-15470774D01*
X12408132Y-15470774D02*
X12427180Y-15461250D01*
X12427180Y-15461250D02*
X12465275Y-15461250D01*
X12465275Y-15461250D02*
X12484323Y-15470774D01*
X12484323Y-15470774D02*
X12493846Y-15489822D01*
X12493846Y-15489822D02*
X12493846Y-15508869D01*
X12493846Y-15508869D02*
X12398608Y-15527917D01*
X12665275Y-15594584D02*
X12665275Y-15394584D01*
X12665275Y-15585060D02*
X12646227Y-15594584D01*
X12646227Y-15594584D02*
X12608132Y-15594584D01*
X12608132Y-15594584D02*
X12589084Y-15585060D01*
X12589084Y-15585060D02*
X12579561Y-15575536D01*
X12579561Y-15575536D02*
X12570037Y-15556488D01*
X12570037Y-15556488D02*
X12570037Y-15499346D01*
X12570037Y-15499346D02*
X12579561Y-15480298D01*
X12579561Y-15480298D02*
X12589084Y-15470774D01*
X12589084Y-15470774D02*
X12608132Y-15461250D01*
X12608132Y-15461250D02*
X12646227Y-15461250D01*
X12646227Y-15461250D02*
X12665275Y-15470774D01*
X12741465Y-15670774D02*
X12750989Y-15661250D01*
X12750989Y-15661250D02*
X12770037Y-15632679D01*
X12770037Y-15632679D02*
X12779561Y-15613631D01*
X12779561Y-15613631D02*
X12789084Y-15585060D01*
X12789084Y-15585060D02*
X12798608Y-15537441D01*
X12798608Y-15537441D02*
X12798608Y-15499346D01*
X12798608Y-15499346D02*
X12789084Y-15451727D01*
X12789084Y-15451727D02*
X12779561Y-15423155D01*
X12779561Y-15423155D02*
X12770037Y-15404108D01*
X12770037Y-15404108D02*
X12750989Y-15375536D01*
X12750989Y-15375536D02*
X12741465Y-15366012D01*
D12*
X5985450Y-15767100D02*
G75*
G03*
X5985450Y-15767100I-50000J0D01*
G01*
D11*
X6350989Y-15858584D02*
X6236703Y-15858584D01*
X6293846Y-15858584D02*
X6293846Y-15658584D01*
X6293846Y-15658584D02*
X6274798Y-15687155D01*
X6274798Y-15687155D02*
X6255751Y-15706203D01*
X6255751Y-15706203D02*
X6236703Y-15715727D01*
X6436703Y-15839536D02*
X6446227Y-15849060D01*
X6446227Y-15849060D02*
X6436703Y-15858584D01*
X6436703Y-15858584D02*
X6427179Y-15849060D01*
X6427179Y-15849060D02*
X6436703Y-15839536D01*
X6436703Y-15839536D02*
X6436703Y-15858584D01*
X6570036Y-15658584D02*
X6589084Y-15658584D01*
X6589084Y-15658584D02*
X6608132Y-15668108D01*
X6608132Y-15668108D02*
X6617655Y-15677631D01*
X6617655Y-15677631D02*
X6627179Y-15696679D01*
X6627179Y-15696679D02*
X6636703Y-15734774D01*
X6636703Y-15734774D02*
X6636703Y-15782393D01*
X6636703Y-15782393D02*
X6627179Y-15820488D01*
X6627179Y-15820488D02*
X6617655Y-15839536D01*
X6617655Y-15839536D02*
X6608132Y-15849060D01*
X6608132Y-15849060D02*
X6589084Y-15858584D01*
X6589084Y-15858584D02*
X6570036Y-15858584D01*
X6570036Y-15858584D02*
X6550989Y-15849060D01*
X6550989Y-15849060D02*
X6541465Y-15839536D01*
X6541465Y-15839536D02*
X6531941Y-15820488D01*
X6531941Y-15820488D02*
X6522417Y-15782393D01*
X6522417Y-15782393D02*
X6522417Y-15734774D01*
X6522417Y-15734774D02*
X6531941Y-15696679D01*
X6531941Y-15696679D02*
X6541465Y-15677631D01*
X6541465Y-15677631D02*
X6550989Y-15668108D01*
X6550989Y-15668108D02*
X6570036Y-15658584D01*
X6760512Y-15658584D02*
X6779560Y-15658584D01*
X6779560Y-15658584D02*
X6798608Y-15668108D01*
X6798608Y-15668108D02*
X6808132Y-15677631D01*
X6808132Y-15677631D02*
X6817655Y-15696679D01*
X6817655Y-15696679D02*
X6827179Y-15734774D01*
X6827179Y-15734774D02*
X6827179Y-15782393D01*
X6827179Y-15782393D02*
X6817655Y-15820488D01*
X6817655Y-15820488D02*
X6808132Y-15839536D01*
X6808132Y-15839536D02*
X6798608Y-15849060D01*
X6798608Y-15849060D02*
X6779560Y-15858584D01*
X6779560Y-15858584D02*
X6760512Y-15858584D01*
X6760512Y-15858584D02*
X6741465Y-15849060D01*
X6741465Y-15849060D02*
X6731941Y-15839536D01*
X6731941Y-15839536D02*
X6722417Y-15820488D01*
X6722417Y-15820488D02*
X6712893Y-15782393D01*
X6712893Y-15782393D02*
X6712893Y-15734774D01*
X6712893Y-15734774D02*
X6722417Y-15696679D01*
X6722417Y-15696679D02*
X6731941Y-15677631D01*
X6731941Y-15677631D02*
X6741465Y-15668108D01*
X6741465Y-15668108D02*
X6760512Y-15658584D01*
X6950989Y-15658584D02*
X6970036Y-15658584D01*
X6970036Y-15658584D02*
X6989084Y-15668108D01*
X6989084Y-15668108D02*
X6998608Y-15677631D01*
X6998608Y-15677631D02*
X7008132Y-15696679D01*
X7008132Y-15696679D02*
X7017655Y-15734774D01*
X7017655Y-15734774D02*
X7017655Y-15782393D01*
X7017655Y-15782393D02*
X7008132Y-15820488D01*
X7008132Y-15820488D02*
X6998608Y-15839536D01*
X6998608Y-15839536D02*
X6989084Y-15849060D01*
X6989084Y-15849060D02*
X6970036Y-15858584D01*
X6970036Y-15858584D02*
X6950989Y-15858584D01*
X6950989Y-15858584D02*
X6931941Y-15849060D01*
X6931941Y-15849060D02*
X6922417Y-15839536D01*
X6922417Y-15839536D02*
X6912893Y-15820488D01*
X6912893Y-15820488D02*
X6903370Y-15782393D01*
X6903370Y-15782393D02*
X6903370Y-15734774D01*
X6903370Y-15734774D02*
X6912893Y-15696679D01*
X6912893Y-15696679D02*
X6922417Y-15677631D01*
X6922417Y-15677631D02*
X6931941Y-15668108D01*
X6931941Y-15668108D02*
X6950989Y-15658584D01*
X7103370Y-15858584D02*
X7103370Y-15725250D01*
X7103370Y-15744298D02*
X7112893Y-15734774D01*
X7112893Y-15734774D02*
X7131941Y-15725250D01*
X7131941Y-15725250D02*
X7160513Y-15725250D01*
X7160513Y-15725250D02*
X7179560Y-15734774D01*
X7179560Y-15734774D02*
X7189084Y-15753822D01*
X7189084Y-15753822D02*
X7189084Y-15858584D01*
X7189084Y-15753822D02*
X7198608Y-15734774D01*
X7198608Y-15734774D02*
X7217655Y-15725250D01*
X7217655Y-15725250D02*
X7246227Y-15725250D01*
X7246227Y-15725250D02*
X7265274Y-15734774D01*
X7265274Y-15734774D02*
X7274798Y-15753822D01*
X7274798Y-15753822D02*
X7274798Y-15858584D01*
X7370036Y-15858584D02*
X7370036Y-15725250D01*
X7370036Y-15744298D02*
X7379560Y-15734774D01*
X7379560Y-15734774D02*
X7398608Y-15725250D01*
X7398608Y-15725250D02*
X7427179Y-15725250D01*
X7427179Y-15725250D02*
X7446227Y-15734774D01*
X7446227Y-15734774D02*
X7455751Y-15753822D01*
X7455751Y-15753822D02*
X7455751Y-15858584D01*
X7455751Y-15753822D02*
X7465274Y-15734774D01*
X7465274Y-15734774D02*
X7484322Y-15725250D01*
X7484322Y-15725250D02*
X7512893Y-15725250D01*
X7512893Y-15725250D02*
X7531941Y-15734774D01*
X7531941Y-15734774D02*
X7541465Y-15753822D01*
X7541465Y-15753822D02*
X7541465Y-15858584D01*
X7931941Y-15649060D02*
X7760513Y-15906203D01*
X8189084Y-15658584D02*
X8208132Y-15658584D01*
X8208132Y-15658584D02*
X8227179Y-15668108D01*
X8227179Y-15668108D02*
X8236703Y-15677631D01*
X8236703Y-15677631D02*
X8246227Y-15696679D01*
X8246227Y-15696679D02*
X8255751Y-15734774D01*
X8255751Y-15734774D02*
X8255751Y-15782393D01*
X8255751Y-15782393D02*
X8246227Y-15820488D01*
X8246227Y-15820488D02*
X8236703Y-15839536D01*
X8236703Y-15839536D02*
X8227179Y-15849060D01*
X8227179Y-15849060D02*
X8208132Y-15858584D01*
X8208132Y-15858584D02*
X8189084Y-15858584D01*
X8189084Y-15858584D02*
X8170036Y-15849060D01*
X8170036Y-15849060D02*
X8160513Y-15839536D01*
X8160513Y-15839536D02*
X8150989Y-15820488D01*
X8150989Y-15820488D02*
X8141465Y-15782393D01*
X8141465Y-15782393D02*
X8141465Y-15734774D01*
X8141465Y-15734774D02*
X8150989Y-15696679D01*
X8150989Y-15696679D02*
X8160513Y-15677631D01*
X8160513Y-15677631D02*
X8170036Y-15668108D01*
X8170036Y-15668108D02*
X8189084Y-15658584D01*
X8341465Y-15839536D02*
X8350989Y-15849060D01*
X8350989Y-15849060D02*
X8341465Y-15858584D01*
X8341465Y-15858584D02*
X8331941Y-15849060D01*
X8331941Y-15849060D02*
X8341465Y-15839536D01*
X8341465Y-15839536D02*
X8341465Y-15858584D01*
X8474798Y-15658584D02*
X8493846Y-15658584D01*
X8493846Y-15658584D02*
X8512894Y-15668108D01*
X8512894Y-15668108D02*
X8522418Y-15677631D01*
X8522418Y-15677631D02*
X8531941Y-15696679D01*
X8531941Y-15696679D02*
X8541465Y-15734774D01*
X8541465Y-15734774D02*
X8541465Y-15782393D01*
X8541465Y-15782393D02*
X8531941Y-15820488D01*
X8531941Y-15820488D02*
X8522418Y-15839536D01*
X8522418Y-15839536D02*
X8512894Y-15849060D01*
X8512894Y-15849060D02*
X8493846Y-15858584D01*
X8493846Y-15858584D02*
X8474798Y-15858584D01*
X8474798Y-15858584D02*
X8455751Y-15849060D01*
X8455751Y-15849060D02*
X8446227Y-15839536D01*
X8446227Y-15839536D02*
X8436703Y-15820488D01*
X8436703Y-15820488D02*
X8427179Y-15782393D01*
X8427179Y-15782393D02*
X8427179Y-15734774D01*
X8427179Y-15734774D02*
X8436703Y-15696679D01*
X8436703Y-15696679D02*
X8446227Y-15677631D01*
X8446227Y-15677631D02*
X8455751Y-15668108D01*
X8455751Y-15668108D02*
X8474798Y-15658584D01*
X8608132Y-15658584D02*
X8731941Y-15658584D01*
X8731941Y-15658584D02*
X8665275Y-15734774D01*
X8665275Y-15734774D02*
X8693846Y-15734774D01*
X8693846Y-15734774D02*
X8712894Y-15744298D01*
X8712894Y-15744298D02*
X8722418Y-15753822D01*
X8722418Y-15753822D02*
X8731941Y-15772869D01*
X8731941Y-15772869D02*
X8731941Y-15820488D01*
X8731941Y-15820488D02*
X8722418Y-15839536D01*
X8722418Y-15839536D02*
X8712894Y-15849060D01*
X8712894Y-15849060D02*
X8693846Y-15858584D01*
X8693846Y-15858584D02*
X8636703Y-15858584D01*
X8636703Y-15858584D02*
X8617656Y-15849060D01*
X8617656Y-15849060D02*
X8608132Y-15839536D01*
X8827179Y-15858584D02*
X8865275Y-15858584D01*
X8865275Y-15858584D02*
X8884322Y-15849060D01*
X8884322Y-15849060D02*
X8893846Y-15839536D01*
X8893846Y-15839536D02*
X8912894Y-15810965D01*
X8912894Y-15810965D02*
X8922418Y-15772869D01*
X8922418Y-15772869D02*
X8922418Y-15696679D01*
X8922418Y-15696679D02*
X8912894Y-15677631D01*
X8912894Y-15677631D02*
X8903370Y-15668108D01*
X8903370Y-15668108D02*
X8884322Y-15658584D01*
X8884322Y-15658584D02*
X8846227Y-15658584D01*
X8846227Y-15658584D02*
X8827179Y-15668108D01*
X8827179Y-15668108D02*
X8817656Y-15677631D01*
X8817656Y-15677631D02*
X8808132Y-15696679D01*
X8808132Y-15696679D02*
X8808132Y-15744298D01*
X8808132Y-15744298D02*
X8817656Y-15763346D01*
X8817656Y-15763346D02*
X8827179Y-15772869D01*
X8827179Y-15772869D02*
X8846227Y-15782393D01*
X8846227Y-15782393D02*
X8884322Y-15782393D01*
X8884322Y-15782393D02*
X8903370Y-15772869D01*
X8903370Y-15772869D02*
X8912894Y-15763346D01*
X8912894Y-15763346D02*
X8922418Y-15744298D01*
X9093846Y-15725250D02*
X9093846Y-15858584D01*
X9046227Y-15649060D02*
X8998608Y-15791917D01*
X8998608Y-15791917D02*
X9122418Y-15791917D01*
X9189084Y-15658584D02*
X9189084Y-15696679D01*
X9265275Y-15658584D02*
X9265275Y-15696679D01*
X9560513Y-15934774D02*
X9550989Y-15925250D01*
X9550989Y-15925250D02*
X9531941Y-15896679D01*
X9531941Y-15896679D02*
X9522418Y-15877631D01*
X9522418Y-15877631D02*
X9512894Y-15849060D01*
X9512894Y-15849060D02*
X9503370Y-15801441D01*
X9503370Y-15801441D02*
X9503370Y-15763346D01*
X9503370Y-15763346D02*
X9512894Y-15715727D01*
X9512894Y-15715727D02*
X9522418Y-15687155D01*
X9522418Y-15687155D02*
X9531941Y-15668108D01*
X9531941Y-15668108D02*
X9550989Y-15639536D01*
X9550989Y-15639536D02*
X9560513Y-15630012D01*
X9627180Y-15677631D02*
X9636703Y-15668108D01*
X9636703Y-15668108D02*
X9655751Y-15658584D01*
X9655751Y-15658584D02*
X9703370Y-15658584D01*
X9703370Y-15658584D02*
X9722418Y-15668108D01*
X9722418Y-15668108D02*
X9731941Y-15677631D01*
X9731941Y-15677631D02*
X9741465Y-15696679D01*
X9741465Y-15696679D02*
X9741465Y-15715727D01*
X9741465Y-15715727D02*
X9731941Y-15744298D01*
X9731941Y-15744298D02*
X9617656Y-15858584D01*
X9617656Y-15858584D02*
X9741465Y-15858584D01*
X9979561Y-15858584D02*
X9979561Y-15658584D01*
X10065275Y-15858584D02*
X10065275Y-15753822D01*
X10065275Y-15753822D02*
X10055751Y-15734774D01*
X10055751Y-15734774D02*
X10036703Y-15725250D01*
X10036703Y-15725250D02*
X10008132Y-15725250D01*
X10008132Y-15725250D02*
X9989084Y-15734774D01*
X9989084Y-15734774D02*
X9979561Y-15744298D01*
X10189084Y-15858584D02*
X10170037Y-15849060D01*
X10170037Y-15849060D02*
X10160513Y-15839536D01*
X10160513Y-15839536D02*
X10150989Y-15820488D01*
X10150989Y-15820488D02*
X10150989Y-15763346D01*
X10150989Y-15763346D02*
X10160513Y-15744298D01*
X10160513Y-15744298D02*
X10170037Y-15734774D01*
X10170037Y-15734774D02*
X10189084Y-15725250D01*
X10189084Y-15725250D02*
X10217656Y-15725250D01*
X10217656Y-15725250D02*
X10236703Y-15734774D01*
X10236703Y-15734774D02*
X10246227Y-15744298D01*
X10246227Y-15744298D02*
X10255751Y-15763346D01*
X10255751Y-15763346D02*
X10255751Y-15820488D01*
X10255751Y-15820488D02*
X10246227Y-15839536D01*
X10246227Y-15839536D02*
X10236703Y-15849060D01*
X10236703Y-15849060D02*
X10217656Y-15858584D01*
X10217656Y-15858584D02*
X10189084Y-15858584D01*
X10370037Y-15858584D02*
X10350989Y-15849060D01*
X10350989Y-15849060D02*
X10341465Y-15830012D01*
X10341465Y-15830012D02*
X10341465Y-15658584D01*
X10522418Y-15849060D02*
X10503370Y-15858584D01*
X10503370Y-15858584D02*
X10465275Y-15858584D01*
X10465275Y-15858584D02*
X10446227Y-15849060D01*
X10446227Y-15849060D02*
X10436703Y-15830012D01*
X10436703Y-15830012D02*
X10436703Y-15753822D01*
X10436703Y-15753822D02*
X10446227Y-15734774D01*
X10446227Y-15734774D02*
X10465275Y-15725250D01*
X10465275Y-15725250D02*
X10503370Y-15725250D01*
X10503370Y-15725250D02*
X10522418Y-15734774D01*
X10522418Y-15734774D02*
X10531942Y-15753822D01*
X10531942Y-15753822D02*
X10531942Y-15772869D01*
X10531942Y-15772869D02*
X10436703Y-15791917D01*
X10608132Y-15849060D02*
X10627180Y-15858584D01*
X10627180Y-15858584D02*
X10665275Y-15858584D01*
X10665275Y-15858584D02*
X10684323Y-15849060D01*
X10684323Y-15849060D02*
X10693846Y-15830012D01*
X10693846Y-15830012D02*
X10693846Y-15820488D01*
X10693846Y-15820488D02*
X10684323Y-15801441D01*
X10684323Y-15801441D02*
X10665275Y-15791917D01*
X10665275Y-15791917D02*
X10636703Y-15791917D01*
X10636703Y-15791917D02*
X10617656Y-15782393D01*
X10617656Y-15782393D02*
X10608132Y-15763346D01*
X10608132Y-15763346D02*
X10608132Y-15753822D01*
X10608132Y-15753822D02*
X10617656Y-15734774D01*
X10617656Y-15734774D02*
X10636703Y-15725250D01*
X10636703Y-15725250D02*
X10665275Y-15725250D01*
X10665275Y-15725250D02*
X10684323Y-15734774D01*
X10760513Y-15934774D02*
X10770037Y-15925250D01*
X10770037Y-15925250D02*
X10789084Y-15896679D01*
X10789084Y-15896679D02*
X10798608Y-15877631D01*
X10798608Y-15877631D02*
X10808132Y-15849060D01*
X10808132Y-15849060D02*
X10817656Y-15801441D01*
X10817656Y-15801441D02*
X10817656Y-15763346D01*
X10817656Y-15763346D02*
X10808132Y-15715727D01*
X10808132Y-15715727D02*
X10798608Y-15687155D01*
X10798608Y-15687155D02*
X10789084Y-15668108D01*
X10789084Y-15668108D02*
X10770037Y-15639536D01*
X10770037Y-15639536D02*
X10760513Y-15630012D01*
X11122418Y-15934774D02*
X11112894Y-15925250D01*
X11112894Y-15925250D02*
X11093846Y-15896679D01*
X11093846Y-15896679D02*
X11084323Y-15877631D01*
X11084323Y-15877631D02*
X11074799Y-15849060D01*
X11074799Y-15849060D02*
X11065275Y-15801441D01*
X11065275Y-15801441D02*
X11065275Y-15763346D01*
X11065275Y-15763346D02*
X11074799Y-15715727D01*
X11074799Y-15715727D02*
X11084323Y-15687155D01*
X11084323Y-15687155D02*
X11093846Y-15668108D01*
X11093846Y-15668108D02*
X11112894Y-15639536D01*
X11112894Y-15639536D02*
X11122418Y-15630012D01*
X11198608Y-15725250D02*
X11198608Y-15858584D01*
X11198608Y-15744298D02*
X11208132Y-15734774D01*
X11208132Y-15734774D02*
X11227180Y-15725250D01*
X11227180Y-15725250D02*
X11255751Y-15725250D01*
X11255751Y-15725250D02*
X11274799Y-15734774D01*
X11274799Y-15734774D02*
X11284322Y-15753822D01*
X11284322Y-15753822D02*
X11284322Y-15858584D01*
X11408132Y-15858584D02*
X11389084Y-15849060D01*
X11389084Y-15849060D02*
X11379561Y-15839536D01*
X11379561Y-15839536D02*
X11370037Y-15820488D01*
X11370037Y-15820488D02*
X11370037Y-15763346D01*
X11370037Y-15763346D02*
X11379561Y-15744298D01*
X11379561Y-15744298D02*
X11389084Y-15734774D01*
X11389084Y-15734774D02*
X11408132Y-15725250D01*
X11408132Y-15725250D02*
X11436703Y-15725250D01*
X11436703Y-15725250D02*
X11455751Y-15734774D01*
X11455751Y-15734774D02*
X11465275Y-15744298D01*
X11465275Y-15744298D02*
X11474799Y-15763346D01*
X11474799Y-15763346D02*
X11474799Y-15820488D01*
X11474799Y-15820488D02*
X11465275Y-15839536D01*
X11465275Y-15839536D02*
X11455751Y-15849060D01*
X11455751Y-15849060D02*
X11436703Y-15858584D01*
X11436703Y-15858584D02*
X11408132Y-15858584D01*
X11531942Y-15725250D02*
X11608132Y-15725250D01*
X11560513Y-15658584D02*
X11560513Y-15830012D01*
X11560513Y-15830012D02*
X11570037Y-15849060D01*
X11570037Y-15849060D02*
X11589084Y-15858584D01*
X11589084Y-15858584D02*
X11608132Y-15858584D01*
X11827180Y-15725250D02*
X11827180Y-15925250D01*
X11827180Y-15734774D02*
X11846227Y-15725250D01*
X11846227Y-15725250D02*
X11884323Y-15725250D01*
X11884323Y-15725250D02*
X11903370Y-15734774D01*
X11903370Y-15734774D02*
X11912894Y-15744298D01*
X11912894Y-15744298D02*
X11922418Y-15763346D01*
X11922418Y-15763346D02*
X11922418Y-15820488D01*
X11922418Y-15820488D02*
X11912894Y-15839536D01*
X11912894Y-15839536D02*
X11903370Y-15849060D01*
X11903370Y-15849060D02*
X11884323Y-15858584D01*
X11884323Y-15858584D02*
X11846227Y-15858584D01*
X11846227Y-15858584D02*
X11827180Y-15849060D01*
X12036703Y-15858584D02*
X12017656Y-15849060D01*
X12017656Y-15849060D02*
X12008132Y-15830012D01*
X12008132Y-15830012D02*
X12008132Y-15658584D01*
X12198608Y-15858584D02*
X12198608Y-15753822D01*
X12198608Y-15753822D02*
X12189084Y-15734774D01*
X12189084Y-15734774D02*
X12170037Y-15725250D01*
X12170037Y-15725250D02*
X12131942Y-15725250D01*
X12131942Y-15725250D02*
X12112894Y-15734774D01*
X12198608Y-15849060D02*
X12179561Y-15858584D01*
X12179561Y-15858584D02*
X12131942Y-15858584D01*
X12131942Y-15858584D02*
X12112894Y-15849060D01*
X12112894Y-15849060D02*
X12103370Y-15830012D01*
X12103370Y-15830012D02*
X12103370Y-15810965D01*
X12103370Y-15810965D02*
X12112894Y-15791917D01*
X12112894Y-15791917D02*
X12131942Y-15782393D01*
X12131942Y-15782393D02*
X12179561Y-15782393D01*
X12179561Y-15782393D02*
X12198608Y-15772869D01*
X12265275Y-15725250D02*
X12341465Y-15725250D01*
X12293846Y-15658584D02*
X12293846Y-15830012D01*
X12293846Y-15830012D02*
X12303370Y-15849060D01*
X12303370Y-15849060D02*
X12322418Y-15858584D01*
X12322418Y-15858584D02*
X12341465Y-15858584D01*
X12484323Y-15849060D02*
X12465275Y-15858584D01*
X12465275Y-15858584D02*
X12427180Y-15858584D01*
X12427180Y-15858584D02*
X12408132Y-15849060D01*
X12408132Y-15849060D02*
X12398608Y-15830012D01*
X12398608Y-15830012D02*
X12398608Y-15753822D01*
X12398608Y-15753822D02*
X12408132Y-15734774D01*
X12408132Y-15734774D02*
X12427180Y-15725250D01*
X12427180Y-15725250D02*
X12465275Y-15725250D01*
X12465275Y-15725250D02*
X12484323Y-15734774D01*
X12484323Y-15734774D02*
X12493846Y-15753822D01*
X12493846Y-15753822D02*
X12493846Y-15772869D01*
X12493846Y-15772869D02*
X12398608Y-15791917D01*
X12665275Y-15858584D02*
X12665275Y-15658584D01*
X12665275Y-15849060D02*
X12646227Y-15858584D01*
X12646227Y-15858584D02*
X12608132Y-15858584D01*
X12608132Y-15858584D02*
X12589084Y-15849060D01*
X12589084Y-15849060D02*
X12579561Y-15839536D01*
X12579561Y-15839536D02*
X12570037Y-15820488D01*
X12570037Y-15820488D02*
X12570037Y-15763346D01*
X12570037Y-15763346D02*
X12579561Y-15744298D01*
X12579561Y-15744298D02*
X12589084Y-15734774D01*
X12589084Y-15734774D02*
X12608132Y-15725250D01*
X12608132Y-15725250D02*
X12646227Y-15725250D01*
X12646227Y-15725250D02*
X12665275Y-15734774D01*
X12741465Y-15934774D02*
X12750989Y-15925250D01*
X12750989Y-15925250D02*
X12770037Y-15896679D01*
X12770037Y-15896679D02*
X12779561Y-15877631D01*
X12779561Y-15877631D02*
X12789084Y-15849060D01*
X12789084Y-15849060D02*
X12798608Y-15801441D01*
X12798608Y-15801441D02*
X12798608Y-15763346D01*
X12798608Y-15763346D02*
X12789084Y-15715727D01*
X12789084Y-15715727D02*
X12779561Y-15687155D01*
X12779561Y-15687155D02*
X12770037Y-15668108D01*
X12770037Y-15668108D02*
X12750989Y-15639536D01*
X12750989Y-15639536D02*
X12741465Y-15630012D01*
X5885450Y-15931100D02*
X5885450Y-16131100D01*
X5785450Y-16031100D02*
X5985450Y-16031100D01*
X6236703Y-15941631D02*
X6246227Y-15932108D01*
X6246227Y-15932108D02*
X6265274Y-15922584D01*
X6265274Y-15922584D02*
X6312893Y-15922584D01*
X6312893Y-15922584D02*
X6331941Y-15932108D01*
X6331941Y-15932108D02*
X6341465Y-15941631D01*
X6341465Y-15941631D02*
X6350989Y-15960679D01*
X6350989Y-15960679D02*
X6350989Y-15979727D01*
X6350989Y-15979727D02*
X6341465Y-16008298D01*
X6341465Y-16008298D02*
X6227179Y-16122584D01*
X6227179Y-16122584D02*
X6350989Y-16122584D01*
X6436703Y-16103536D02*
X6446227Y-16113060D01*
X6446227Y-16113060D02*
X6436703Y-16122584D01*
X6436703Y-16122584D02*
X6427179Y-16113060D01*
X6427179Y-16113060D02*
X6436703Y-16103536D01*
X6436703Y-16103536D02*
X6436703Y-16122584D01*
X6522417Y-15941631D02*
X6531941Y-15932108D01*
X6531941Y-15932108D02*
X6550989Y-15922584D01*
X6550989Y-15922584D02*
X6598608Y-15922584D01*
X6598608Y-15922584D02*
X6617655Y-15932108D01*
X6617655Y-15932108D02*
X6627179Y-15941631D01*
X6627179Y-15941631D02*
X6636703Y-15960679D01*
X6636703Y-15960679D02*
X6636703Y-15979727D01*
X6636703Y-15979727D02*
X6627179Y-16008298D01*
X6627179Y-16008298D02*
X6512893Y-16122584D01*
X6512893Y-16122584D02*
X6636703Y-16122584D01*
X6760512Y-15922584D02*
X6779560Y-15922584D01*
X6779560Y-15922584D02*
X6798608Y-15932108D01*
X6798608Y-15932108D02*
X6808132Y-15941631D01*
X6808132Y-15941631D02*
X6817655Y-15960679D01*
X6817655Y-15960679D02*
X6827179Y-15998774D01*
X6827179Y-15998774D02*
X6827179Y-16046393D01*
X6827179Y-16046393D02*
X6817655Y-16084488D01*
X6817655Y-16084488D02*
X6808132Y-16103536D01*
X6808132Y-16103536D02*
X6798608Y-16113060D01*
X6798608Y-16113060D02*
X6779560Y-16122584D01*
X6779560Y-16122584D02*
X6760512Y-16122584D01*
X6760512Y-16122584D02*
X6741465Y-16113060D01*
X6741465Y-16113060D02*
X6731941Y-16103536D01*
X6731941Y-16103536D02*
X6722417Y-16084488D01*
X6722417Y-16084488D02*
X6712893Y-16046393D01*
X6712893Y-16046393D02*
X6712893Y-15998774D01*
X6712893Y-15998774D02*
X6722417Y-15960679D01*
X6722417Y-15960679D02*
X6731941Y-15941631D01*
X6731941Y-15941631D02*
X6741465Y-15932108D01*
X6741465Y-15932108D02*
X6760512Y-15922584D01*
X6950989Y-15922584D02*
X6970036Y-15922584D01*
X6970036Y-15922584D02*
X6989084Y-15932108D01*
X6989084Y-15932108D02*
X6998608Y-15941631D01*
X6998608Y-15941631D02*
X7008132Y-15960679D01*
X7008132Y-15960679D02*
X7017655Y-15998774D01*
X7017655Y-15998774D02*
X7017655Y-16046393D01*
X7017655Y-16046393D02*
X7008132Y-16084488D01*
X7008132Y-16084488D02*
X6998608Y-16103536D01*
X6998608Y-16103536D02*
X6989084Y-16113060D01*
X6989084Y-16113060D02*
X6970036Y-16122584D01*
X6970036Y-16122584D02*
X6950989Y-16122584D01*
X6950989Y-16122584D02*
X6931941Y-16113060D01*
X6931941Y-16113060D02*
X6922417Y-16103536D01*
X6922417Y-16103536D02*
X6912893Y-16084488D01*
X6912893Y-16084488D02*
X6903370Y-16046393D01*
X6903370Y-16046393D02*
X6903370Y-15998774D01*
X6903370Y-15998774D02*
X6912893Y-15960679D01*
X6912893Y-15960679D02*
X6922417Y-15941631D01*
X6922417Y-15941631D02*
X6931941Y-15932108D01*
X6931941Y-15932108D02*
X6950989Y-15922584D01*
X7103370Y-16122584D02*
X7103370Y-15989250D01*
X7103370Y-16008298D02*
X7112893Y-15998774D01*
X7112893Y-15998774D02*
X7131941Y-15989250D01*
X7131941Y-15989250D02*
X7160513Y-15989250D01*
X7160513Y-15989250D02*
X7179560Y-15998774D01*
X7179560Y-15998774D02*
X7189084Y-16017822D01*
X7189084Y-16017822D02*
X7189084Y-16122584D01*
X7189084Y-16017822D02*
X7198608Y-15998774D01*
X7198608Y-15998774D02*
X7217655Y-15989250D01*
X7217655Y-15989250D02*
X7246227Y-15989250D01*
X7246227Y-15989250D02*
X7265274Y-15998774D01*
X7265274Y-15998774D02*
X7274798Y-16017822D01*
X7274798Y-16017822D02*
X7274798Y-16122584D01*
X7370036Y-16122584D02*
X7370036Y-15989250D01*
X7370036Y-16008298D02*
X7379560Y-15998774D01*
X7379560Y-15998774D02*
X7398608Y-15989250D01*
X7398608Y-15989250D02*
X7427179Y-15989250D01*
X7427179Y-15989250D02*
X7446227Y-15998774D01*
X7446227Y-15998774D02*
X7455751Y-16017822D01*
X7455751Y-16017822D02*
X7455751Y-16122584D01*
X7455751Y-16017822D02*
X7465274Y-15998774D01*
X7465274Y-15998774D02*
X7484322Y-15989250D01*
X7484322Y-15989250D02*
X7512893Y-15989250D01*
X7512893Y-15989250D02*
X7531941Y-15998774D01*
X7531941Y-15998774D02*
X7541465Y-16017822D01*
X7541465Y-16017822D02*
X7541465Y-16122584D01*
X7931941Y-15913060D02*
X7760513Y-16170203D01*
X8189084Y-15922584D02*
X8208132Y-15922584D01*
X8208132Y-15922584D02*
X8227179Y-15932108D01*
X8227179Y-15932108D02*
X8236703Y-15941631D01*
X8236703Y-15941631D02*
X8246227Y-15960679D01*
X8246227Y-15960679D02*
X8255751Y-15998774D01*
X8255751Y-15998774D02*
X8255751Y-16046393D01*
X8255751Y-16046393D02*
X8246227Y-16084488D01*
X8246227Y-16084488D02*
X8236703Y-16103536D01*
X8236703Y-16103536D02*
X8227179Y-16113060D01*
X8227179Y-16113060D02*
X8208132Y-16122584D01*
X8208132Y-16122584D02*
X8189084Y-16122584D01*
X8189084Y-16122584D02*
X8170036Y-16113060D01*
X8170036Y-16113060D02*
X8160513Y-16103536D01*
X8160513Y-16103536D02*
X8150989Y-16084488D01*
X8150989Y-16084488D02*
X8141465Y-16046393D01*
X8141465Y-16046393D02*
X8141465Y-15998774D01*
X8141465Y-15998774D02*
X8150989Y-15960679D01*
X8150989Y-15960679D02*
X8160513Y-15941631D01*
X8160513Y-15941631D02*
X8170036Y-15932108D01*
X8170036Y-15932108D02*
X8189084Y-15922584D01*
X8341465Y-16103536D02*
X8350989Y-16113060D01*
X8350989Y-16113060D02*
X8341465Y-16122584D01*
X8341465Y-16122584D02*
X8331941Y-16113060D01*
X8331941Y-16113060D02*
X8341465Y-16103536D01*
X8341465Y-16103536D02*
X8341465Y-16122584D01*
X8474798Y-15922584D02*
X8493846Y-15922584D01*
X8493846Y-15922584D02*
X8512894Y-15932108D01*
X8512894Y-15932108D02*
X8522418Y-15941631D01*
X8522418Y-15941631D02*
X8531941Y-15960679D01*
X8531941Y-15960679D02*
X8541465Y-15998774D01*
X8541465Y-15998774D02*
X8541465Y-16046393D01*
X8541465Y-16046393D02*
X8531941Y-16084488D01*
X8531941Y-16084488D02*
X8522418Y-16103536D01*
X8522418Y-16103536D02*
X8512894Y-16113060D01*
X8512894Y-16113060D02*
X8493846Y-16122584D01*
X8493846Y-16122584D02*
X8474798Y-16122584D01*
X8474798Y-16122584D02*
X8455751Y-16113060D01*
X8455751Y-16113060D02*
X8446227Y-16103536D01*
X8446227Y-16103536D02*
X8436703Y-16084488D01*
X8436703Y-16084488D02*
X8427179Y-16046393D01*
X8427179Y-16046393D02*
X8427179Y-15998774D01*
X8427179Y-15998774D02*
X8436703Y-15960679D01*
X8436703Y-15960679D02*
X8446227Y-15941631D01*
X8446227Y-15941631D02*
X8455751Y-15932108D01*
X8455751Y-15932108D02*
X8474798Y-15922584D01*
X8655751Y-16008298D02*
X8636703Y-15998774D01*
X8636703Y-15998774D02*
X8627179Y-15989250D01*
X8627179Y-15989250D02*
X8617656Y-15970203D01*
X8617656Y-15970203D02*
X8617656Y-15960679D01*
X8617656Y-15960679D02*
X8627179Y-15941631D01*
X8627179Y-15941631D02*
X8636703Y-15932108D01*
X8636703Y-15932108D02*
X8655751Y-15922584D01*
X8655751Y-15922584D02*
X8693846Y-15922584D01*
X8693846Y-15922584D02*
X8712894Y-15932108D01*
X8712894Y-15932108D02*
X8722418Y-15941631D01*
X8722418Y-15941631D02*
X8731941Y-15960679D01*
X8731941Y-15960679D02*
X8731941Y-15970203D01*
X8731941Y-15970203D02*
X8722418Y-15989250D01*
X8722418Y-15989250D02*
X8712894Y-15998774D01*
X8712894Y-15998774D02*
X8693846Y-16008298D01*
X8693846Y-16008298D02*
X8655751Y-16008298D01*
X8655751Y-16008298D02*
X8636703Y-16017822D01*
X8636703Y-16017822D02*
X8627179Y-16027346D01*
X8627179Y-16027346D02*
X8617656Y-16046393D01*
X8617656Y-16046393D02*
X8617656Y-16084488D01*
X8617656Y-16084488D02*
X8627179Y-16103536D01*
X8627179Y-16103536D02*
X8636703Y-16113060D01*
X8636703Y-16113060D02*
X8655751Y-16122584D01*
X8655751Y-16122584D02*
X8693846Y-16122584D01*
X8693846Y-16122584D02*
X8712894Y-16113060D01*
X8712894Y-16113060D02*
X8722418Y-16103536D01*
X8722418Y-16103536D02*
X8731941Y-16084488D01*
X8731941Y-16084488D02*
X8731941Y-16046393D01*
X8731941Y-16046393D02*
X8722418Y-16027346D01*
X8722418Y-16027346D02*
X8712894Y-16017822D01*
X8712894Y-16017822D02*
X8693846Y-16008298D01*
X8903370Y-15922584D02*
X8865275Y-15922584D01*
X8865275Y-15922584D02*
X8846227Y-15932108D01*
X8846227Y-15932108D02*
X8836703Y-15941631D01*
X8836703Y-15941631D02*
X8817656Y-15970203D01*
X8817656Y-15970203D02*
X8808132Y-16008298D01*
X8808132Y-16008298D02*
X8808132Y-16084488D01*
X8808132Y-16084488D02*
X8817656Y-16103536D01*
X8817656Y-16103536D02*
X8827179Y-16113060D01*
X8827179Y-16113060D02*
X8846227Y-16122584D01*
X8846227Y-16122584D02*
X8884322Y-16122584D01*
X8884322Y-16122584D02*
X8903370Y-16113060D01*
X8903370Y-16113060D02*
X8912894Y-16103536D01*
X8912894Y-16103536D02*
X8922418Y-16084488D01*
X8922418Y-16084488D02*
X8922418Y-16036869D01*
X8922418Y-16036869D02*
X8912894Y-16017822D01*
X8912894Y-16017822D02*
X8903370Y-16008298D01*
X8903370Y-16008298D02*
X8884322Y-15998774D01*
X8884322Y-15998774D02*
X8846227Y-15998774D01*
X8846227Y-15998774D02*
X8827179Y-16008298D01*
X8827179Y-16008298D02*
X8817656Y-16017822D01*
X8817656Y-16017822D02*
X8808132Y-16036869D01*
X9093846Y-15922584D02*
X9055751Y-15922584D01*
X9055751Y-15922584D02*
X9036703Y-15932108D01*
X9036703Y-15932108D02*
X9027179Y-15941631D01*
X9027179Y-15941631D02*
X9008132Y-15970203D01*
X9008132Y-15970203D02*
X8998608Y-16008298D01*
X8998608Y-16008298D02*
X8998608Y-16084488D01*
X8998608Y-16084488D02*
X9008132Y-16103536D01*
X9008132Y-16103536D02*
X9017656Y-16113060D01*
X9017656Y-16113060D02*
X9036703Y-16122584D01*
X9036703Y-16122584D02*
X9074799Y-16122584D01*
X9074799Y-16122584D02*
X9093846Y-16113060D01*
X9093846Y-16113060D02*
X9103370Y-16103536D01*
X9103370Y-16103536D02*
X9112894Y-16084488D01*
X9112894Y-16084488D02*
X9112894Y-16036869D01*
X9112894Y-16036869D02*
X9103370Y-16017822D01*
X9103370Y-16017822D02*
X9093846Y-16008298D01*
X9093846Y-16008298D02*
X9074799Y-15998774D01*
X9074799Y-15998774D02*
X9036703Y-15998774D01*
X9036703Y-15998774D02*
X9017656Y-16008298D01*
X9017656Y-16008298D02*
X9008132Y-16017822D01*
X9008132Y-16017822D02*
X8998608Y-16036869D01*
X9189084Y-15922584D02*
X9189084Y-15960679D01*
X9265275Y-15922584D02*
X9265275Y-15960679D01*
X9560513Y-16198774D02*
X9550989Y-16189250D01*
X9550989Y-16189250D02*
X9531941Y-16160679D01*
X9531941Y-16160679D02*
X9522418Y-16141631D01*
X9522418Y-16141631D02*
X9512894Y-16113060D01*
X9512894Y-16113060D02*
X9503370Y-16065441D01*
X9503370Y-16065441D02*
X9503370Y-16027346D01*
X9503370Y-16027346D02*
X9512894Y-15979727D01*
X9512894Y-15979727D02*
X9522418Y-15951155D01*
X9522418Y-15951155D02*
X9531941Y-15932108D01*
X9531941Y-15932108D02*
X9550989Y-15903536D01*
X9550989Y-15903536D02*
X9560513Y-15894012D01*
X9722418Y-15989250D02*
X9722418Y-16122584D01*
X9674799Y-15913060D02*
X9627180Y-16055917D01*
X9627180Y-16055917D02*
X9750989Y-16055917D01*
X9979561Y-16122584D02*
X9979561Y-15922584D01*
X10065275Y-16122584D02*
X10065275Y-16017822D01*
X10065275Y-16017822D02*
X10055751Y-15998774D01*
X10055751Y-15998774D02*
X10036703Y-15989250D01*
X10036703Y-15989250D02*
X10008132Y-15989250D01*
X10008132Y-15989250D02*
X9989084Y-15998774D01*
X9989084Y-15998774D02*
X9979561Y-16008298D01*
X10189084Y-16122584D02*
X10170037Y-16113060D01*
X10170037Y-16113060D02*
X10160513Y-16103536D01*
X10160513Y-16103536D02*
X10150989Y-16084488D01*
X10150989Y-16084488D02*
X10150989Y-16027346D01*
X10150989Y-16027346D02*
X10160513Y-16008298D01*
X10160513Y-16008298D02*
X10170037Y-15998774D01*
X10170037Y-15998774D02*
X10189084Y-15989250D01*
X10189084Y-15989250D02*
X10217656Y-15989250D01*
X10217656Y-15989250D02*
X10236703Y-15998774D01*
X10236703Y-15998774D02*
X10246227Y-16008298D01*
X10246227Y-16008298D02*
X10255751Y-16027346D01*
X10255751Y-16027346D02*
X10255751Y-16084488D01*
X10255751Y-16084488D02*
X10246227Y-16103536D01*
X10246227Y-16103536D02*
X10236703Y-16113060D01*
X10236703Y-16113060D02*
X10217656Y-16122584D01*
X10217656Y-16122584D02*
X10189084Y-16122584D01*
X10370037Y-16122584D02*
X10350989Y-16113060D01*
X10350989Y-16113060D02*
X10341465Y-16094012D01*
X10341465Y-16094012D02*
X10341465Y-15922584D01*
X10522418Y-16113060D02*
X10503370Y-16122584D01*
X10503370Y-16122584D02*
X10465275Y-16122584D01*
X10465275Y-16122584D02*
X10446227Y-16113060D01*
X10446227Y-16113060D02*
X10436703Y-16094012D01*
X10436703Y-16094012D02*
X10436703Y-16017822D01*
X10436703Y-16017822D02*
X10446227Y-15998774D01*
X10446227Y-15998774D02*
X10465275Y-15989250D01*
X10465275Y-15989250D02*
X10503370Y-15989250D01*
X10503370Y-15989250D02*
X10522418Y-15998774D01*
X10522418Y-15998774D02*
X10531942Y-16017822D01*
X10531942Y-16017822D02*
X10531942Y-16036869D01*
X10531942Y-16036869D02*
X10436703Y-16055917D01*
X10608132Y-16113060D02*
X10627180Y-16122584D01*
X10627180Y-16122584D02*
X10665275Y-16122584D01*
X10665275Y-16122584D02*
X10684323Y-16113060D01*
X10684323Y-16113060D02*
X10693846Y-16094012D01*
X10693846Y-16094012D02*
X10693846Y-16084488D01*
X10693846Y-16084488D02*
X10684323Y-16065441D01*
X10684323Y-16065441D02*
X10665275Y-16055917D01*
X10665275Y-16055917D02*
X10636703Y-16055917D01*
X10636703Y-16055917D02*
X10617656Y-16046393D01*
X10617656Y-16046393D02*
X10608132Y-16027346D01*
X10608132Y-16027346D02*
X10608132Y-16017822D01*
X10608132Y-16017822D02*
X10617656Y-15998774D01*
X10617656Y-15998774D02*
X10636703Y-15989250D01*
X10636703Y-15989250D02*
X10665275Y-15989250D01*
X10665275Y-15989250D02*
X10684323Y-15998774D01*
X10760513Y-16198774D02*
X10770037Y-16189250D01*
X10770037Y-16189250D02*
X10789084Y-16160679D01*
X10789084Y-16160679D02*
X10798608Y-16141631D01*
X10798608Y-16141631D02*
X10808132Y-16113060D01*
X10808132Y-16113060D02*
X10817656Y-16065441D01*
X10817656Y-16065441D02*
X10817656Y-16027346D01*
X10817656Y-16027346D02*
X10808132Y-15979727D01*
X10808132Y-15979727D02*
X10798608Y-15951155D01*
X10798608Y-15951155D02*
X10789084Y-15932108D01*
X10789084Y-15932108D02*
X10770037Y-15903536D01*
X10770037Y-15903536D02*
X10760513Y-15894012D01*
X11122418Y-16198774D02*
X11112894Y-16189250D01*
X11112894Y-16189250D02*
X11093846Y-16160679D01*
X11093846Y-16160679D02*
X11084323Y-16141631D01*
X11084323Y-16141631D02*
X11074799Y-16113060D01*
X11074799Y-16113060D02*
X11065275Y-16065441D01*
X11065275Y-16065441D02*
X11065275Y-16027346D01*
X11065275Y-16027346D02*
X11074799Y-15979727D01*
X11074799Y-15979727D02*
X11084323Y-15951155D01*
X11084323Y-15951155D02*
X11093846Y-15932108D01*
X11093846Y-15932108D02*
X11112894Y-15903536D01*
X11112894Y-15903536D02*
X11122418Y-15894012D01*
X11198608Y-15989250D02*
X11198608Y-16122584D01*
X11198608Y-16008298D02*
X11208132Y-15998774D01*
X11208132Y-15998774D02*
X11227180Y-15989250D01*
X11227180Y-15989250D02*
X11255751Y-15989250D01*
X11255751Y-15989250D02*
X11274799Y-15998774D01*
X11274799Y-15998774D02*
X11284322Y-16017822D01*
X11284322Y-16017822D02*
X11284322Y-16122584D01*
X11408132Y-16122584D02*
X11389084Y-16113060D01*
X11389084Y-16113060D02*
X11379561Y-16103536D01*
X11379561Y-16103536D02*
X11370037Y-16084488D01*
X11370037Y-16084488D02*
X11370037Y-16027346D01*
X11370037Y-16027346D02*
X11379561Y-16008298D01*
X11379561Y-16008298D02*
X11389084Y-15998774D01*
X11389084Y-15998774D02*
X11408132Y-15989250D01*
X11408132Y-15989250D02*
X11436703Y-15989250D01*
X11436703Y-15989250D02*
X11455751Y-15998774D01*
X11455751Y-15998774D02*
X11465275Y-16008298D01*
X11465275Y-16008298D02*
X11474799Y-16027346D01*
X11474799Y-16027346D02*
X11474799Y-16084488D01*
X11474799Y-16084488D02*
X11465275Y-16103536D01*
X11465275Y-16103536D02*
X11455751Y-16113060D01*
X11455751Y-16113060D02*
X11436703Y-16122584D01*
X11436703Y-16122584D02*
X11408132Y-16122584D01*
X11531942Y-15989250D02*
X11608132Y-15989250D01*
X11560513Y-15922584D02*
X11560513Y-16094012D01*
X11560513Y-16094012D02*
X11570037Y-16113060D01*
X11570037Y-16113060D02*
X11589084Y-16122584D01*
X11589084Y-16122584D02*
X11608132Y-16122584D01*
X11827180Y-15989250D02*
X11827180Y-16189250D01*
X11827180Y-15998774D02*
X11846227Y-15989250D01*
X11846227Y-15989250D02*
X11884323Y-15989250D01*
X11884323Y-15989250D02*
X11903370Y-15998774D01*
X11903370Y-15998774D02*
X11912894Y-16008298D01*
X11912894Y-16008298D02*
X11922418Y-16027346D01*
X11922418Y-16027346D02*
X11922418Y-16084488D01*
X11922418Y-16084488D02*
X11912894Y-16103536D01*
X11912894Y-16103536D02*
X11903370Y-16113060D01*
X11903370Y-16113060D02*
X11884323Y-16122584D01*
X11884323Y-16122584D02*
X11846227Y-16122584D01*
X11846227Y-16122584D02*
X11827180Y-16113060D01*
X12036703Y-16122584D02*
X12017656Y-16113060D01*
X12017656Y-16113060D02*
X12008132Y-16094012D01*
X12008132Y-16094012D02*
X12008132Y-15922584D01*
X12198608Y-16122584D02*
X12198608Y-16017822D01*
X12198608Y-16017822D02*
X12189084Y-15998774D01*
X12189084Y-15998774D02*
X12170037Y-15989250D01*
X12170037Y-15989250D02*
X12131942Y-15989250D01*
X12131942Y-15989250D02*
X12112894Y-15998774D01*
X12198608Y-16113060D02*
X12179561Y-16122584D01*
X12179561Y-16122584D02*
X12131942Y-16122584D01*
X12131942Y-16122584D02*
X12112894Y-16113060D01*
X12112894Y-16113060D02*
X12103370Y-16094012D01*
X12103370Y-16094012D02*
X12103370Y-16074965D01*
X12103370Y-16074965D02*
X12112894Y-16055917D01*
X12112894Y-16055917D02*
X12131942Y-16046393D01*
X12131942Y-16046393D02*
X12179561Y-16046393D01*
X12179561Y-16046393D02*
X12198608Y-16036869D01*
X12265275Y-15989250D02*
X12341465Y-15989250D01*
X12293846Y-15922584D02*
X12293846Y-16094012D01*
X12293846Y-16094012D02*
X12303370Y-16113060D01*
X12303370Y-16113060D02*
X12322418Y-16122584D01*
X12322418Y-16122584D02*
X12341465Y-16122584D01*
X12484323Y-16113060D02*
X12465275Y-16122584D01*
X12465275Y-16122584D02*
X12427180Y-16122584D01*
X12427180Y-16122584D02*
X12408132Y-16113060D01*
X12408132Y-16113060D02*
X12398608Y-16094012D01*
X12398608Y-16094012D02*
X12398608Y-16017822D01*
X12398608Y-16017822D02*
X12408132Y-15998774D01*
X12408132Y-15998774D02*
X12427180Y-15989250D01*
X12427180Y-15989250D02*
X12465275Y-15989250D01*
X12465275Y-15989250D02*
X12484323Y-15998774D01*
X12484323Y-15998774D02*
X12493846Y-16017822D01*
X12493846Y-16017822D02*
X12493846Y-16036869D01*
X12493846Y-16036869D02*
X12398608Y-16055917D01*
X12665275Y-16122584D02*
X12665275Y-15922584D01*
X12665275Y-16113060D02*
X12646227Y-16122584D01*
X12646227Y-16122584D02*
X12608132Y-16122584D01*
X12608132Y-16122584D02*
X12589084Y-16113060D01*
X12589084Y-16113060D02*
X12579561Y-16103536D01*
X12579561Y-16103536D02*
X12570037Y-16084488D01*
X12570037Y-16084488D02*
X12570037Y-16027346D01*
X12570037Y-16027346D02*
X12579561Y-16008298D01*
X12579561Y-16008298D02*
X12589084Y-15998774D01*
X12589084Y-15998774D02*
X12608132Y-15989250D01*
X12608132Y-15989250D02*
X12646227Y-15989250D01*
X12646227Y-15989250D02*
X12665275Y-15998774D01*
X12741465Y-16198774D02*
X12750989Y-16189250D01*
X12750989Y-16189250D02*
X12770037Y-16160679D01*
X12770037Y-16160679D02*
X12779561Y-16141631D01*
X12779561Y-16141631D02*
X12789084Y-16113060D01*
X12789084Y-16113060D02*
X12798608Y-16065441D01*
X12798608Y-16065441D02*
X12798608Y-16027346D01*
X12798608Y-16027346D02*
X12789084Y-15979727D01*
X12789084Y-15979727D02*
X12779561Y-15951155D01*
X12779561Y-15951155D02*
X12770037Y-15932108D01*
X12770037Y-15932108D02*
X12750989Y-15903536D01*
X12750989Y-15903536D02*
X12741465Y-15894012D01*
M02*
