G04 #@! TF.GenerationSoftware,KiCad,Pcbnew,7.0.9-7.0.9~ubuntu22.04.1*
G04 #@! TF.CreationDate,2024-04-13T14:40:37+02:00*
G04 #@! TF.ProjectId,v7-kaleido,76372d6b-616c-4656-9964-6f2e6b696361,1.1*
G04 #@! TF.SameCoordinates,Original*
G04 #@! TF.FileFunction,Copper,L4,Bot*
G04 #@! TF.FilePolarity,Positive*
%FSLAX46Y46*%
G04 Gerber Fmt 4.6, Leading zero omitted, Abs format (unit mm)*
G04 Created by KiCad (PCBNEW 7.0.9-7.0.9~ubuntu22.04.1) date 2024-04-13 14:40:37*
%MOMM*%
%LPD*%
G01*
G04 APERTURE LIST*
G04 #@! TA.AperFunction,ComponentPad*
%ADD10C,0.508000*%
G04 #@! TD*
G04 #@! TA.AperFunction,ComponentPad*
%ADD11R,1.700000X1.700000*%
G04 #@! TD*
G04 #@! TA.AperFunction,ComponentPad*
%ADD12O,1.700000X1.700000*%
G04 #@! TD*
G04 #@! TA.AperFunction,ComponentPad*
%ADD13O,2.100000X1.000000*%
G04 #@! TD*
G04 #@! TA.AperFunction,ComponentPad*
%ADD14O,1.600000X1.000000*%
G04 #@! TD*
G04 #@! TA.AperFunction,ViaPad*
%ADD15C,0.800000*%
G04 #@! TD*
G04 #@! TA.AperFunction,ViaPad*
%ADD16C,0.450000*%
G04 #@! TD*
G04 #@! TA.AperFunction,ViaPad*
%ADD17C,0.500000*%
G04 #@! TD*
G04 #@! TA.AperFunction,Conductor*
%ADD18C,0.500000*%
G04 #@! TD*
G04 #@! TA.AperFunction,Conductor*
%ADD19C,0.300000*%
G04 #@! TD*
G04 #@! TA.AperFunction,Conductor*
%ADD20C,0.750000*%
G04 #@! TD*
G04 #@! TA.AperFunction,Conductor*
%ADD21C,0.250000*%
G04 #@! TD*
G04 #@! TA.AperFunction,Conductor*
%ADD22C,0.200000*%
G04 #@! TD*
G04 APERTURE END LIST*
D10*
X101695300Y-131146493D03*
X101695300Y-130359093D03*
X101695300Y-129571693D03*
X101695300Y-128784293D03*
X101695300Y-127996893D03*
X100907900Y-131146493D03*
X100907900Y-130359093D03*
X100907900Y-129571693D03*
X100907900Y-128784293D03*
X100907900Y-127996893D03*
X100120500Y-131146493D03*
X100120500Y-130359093D03*
X100120500Y-129571693D03*
X100120500Y-128784293D03*
X100120500Y-127996893D03*
X99333100Y-131146493D03*
X99333100Y-130359093D03*
X99333100Y-129571693D03*
X99333100Y-128784293D03*
X99333100Y-127996893D03*
X98545700Y-131146493D03*
X98545700Y-130359093D03*
X98545700Y-129571693D03*
X98545700Y-128784293D03*
X98545700Y-127996893D03*
D11*
X62446500Y-132618693D03*
D12*
X62446500Y-135158693D03*
D11*
X62196500Y-103718693D03*
D12*
X62196500Y-101178693D03*
D11*
X185220000Y-46780000D03*
D12*
X182680000Y-46780000D03*
X180140000Y-46780000D03*
X177600000Y-46780000D03*
X175060000Y-46780000D03*
D11*
X101640000Y-46650000D03*
D12*
X104180000Y-46650000D03*
X106720000Y-46650000D03*
X109260000Y-46650000D03*
X111800000Y-46650000D03*
X114340000Y-46650000D03*
X116880000Y-46650000D03*
X119420000Y-46650000D03*
X121960000Y-46650000D03*
X124500000Y-46650000D03*
X127040000Y-46650000D03*
X129580000Y-46650000D03*
D11*
X67515000Y-46650000D03*
D12*
X70055000Y-46650000D03*
X72595000Y-46650000D03*
X75135000Y-46650000D03*
X77675000Y-46650000D03*
X80215000Y-46650000D03*
X82755000Y-46650000D03*
X85295000Y-46650000D03*
X87835000Y-46650000D03*
X90375000Y-46650000D03*
X92915000Y-46650000D03*
X95455000Y-46650000D03*
X97995000Y-46650000D03*
D13*
X67366500Y-109323693D03*
D14*
X63186500Y-109323693D03*
D13*
X67366500Y-117963693D03*
D14*
X63186500Y-117963693D03*
D15*
X170540000Y-99540000D03*
X148061529Y-139795403D03*
X104056000Y-104943693D03*
X103755499Y-139843693D03*
X111096500Y-132093693D03*
X105096500Y-105043693D03*
X69696500Y-110143693D03*
X96296500Y-116743693D03*
X72696500Y-121543693D03*
X111096500Y-127593693D03*
X106089500Y-129365693D03*
X116996500Y-103243693D03*
X102846500Y-119093693D03*
X100596500Y-143593693D03*
D16*
X179690000Y-119490000D03*
D15*
X72596500Y-114443693D03*
X196210000Y-127800000D03*
X103168500Y-125507693D03*
X63596500Y-122143693D03*
X109596500Y-129593693D03*
X93896500Y-115343693D03*
X106470500Y-127745693D03*
X124196500Y-105143693D03*
X103596500Y-119093693D03*
D17*
X192420000Y-121900000D03*
D15*
X172563000Y-123500000D03*
X75296500Y-119143693D03*
X124896500Y-111643693D03*
X113896500Y-126443693D03*
X93696500Y-105643693D03*
X111398781Y-123366052D03*
X89496500Y-115343693D03*
X65696500Y-142843693D03*
X68746500Y-138343693D03*
X135496500Y-130143693D03*
X80496500Y-127843693D03*
X66370000Y-71870000D03*
X102346500Y-141843693D03*
X89493186Y-128947792D03*
X117092000Y-108343693D03*
X92896500Y-114743693D03*
X90346500Y-138343693D03*
X156556992Y-98876992D03*
X91896500Y-115343693D03*
X79696500Y-123243693D03*
X71805082Y-112651705D03*
X112096500Y-133093693D03*
X103548243Y-132874950D03*
X90534500Y-130155693D03*
X173010000Y-88900000D03*
D17*
X189190000Y-121850000D03*
D15*
X148970000Y-65460000D03*
X188930000Y-115309000D03*
X115636500Y-130093693D03*
X103040500Y-138649693D03*
X142696500Y-139943693D03*
X115596500Y-129093693D03*
X135796500Y-133743693D03*
X97896500Y-104943693D03*
X177910000Y-122030000D03*
X88896500Y-118943693D03*
D16*
X180710000Y-119510000D03*
D15*
X108096500Y-140383693D03*
X121096500Y-139943693D03*
X93593277Y-130438096D03*
X89496500Y-117743693D03*
X101846500Y-139843693D03*
X111096500Y-129843693D03*
X87346500Y-117343693D03*
X90346500Y-139343693D03*
X179580000Y-92410000D03*
X66746500Y-144593693D03*
X99463781Y-134928356D03*
X165883008Y-92583008D03*
X84346500Y-132843693D03*
X144540000Y-71490000D03*
X148296500Y-145143693D03*
X196430000Y-119023000D03*
X175830000Y-115135000D03*
X80596500Y-134093693D03*
X77496500Y-105043693D03*
X95696500Y-117943693D03*
X102846500Y-140843693D03*
X99096500Y-121093693D03*
X102700500Y-120239693D03*
X107596500Y-120843693D03*
X90696500Y-114743693D03*
X188930000Y-113209000D03*
X130796500Y-133743693D03*
X72696500Y-106443693D03*
X70746500Y-145343693D03*
X110802000Y-114277708D03*
X69396500Y-117243693D03*
X172780000Y-120160000D03*
X76810000Y-85210000D03*
X196530000Y-116623000D03*
X97112034Y-120109227D03*
X115896500Y-123443693D03*
X98950500Y-120239693D03*
X159800000Y-88900000D03*
X79496500Y-125043693D03*
X88896500Y-116543693D03*
X69696500Y-129243693D03*
X97846500Y-143593693D03*
X86096500Y-117343693D03*
X109596500Y-131843693D03*
X111096500Y-125343693D03*
X131196500Y-130243693D03*
X73196500Y-130743693D03*
X109480000Y-127343693D03*
X84346500Y-130593693D03*
X106396500Y-119343693D03*
X111096500Y-133843693D03*
X165250000Y-131930000D03*
X95548500Y-131984693D03*
X88596500Y-133007691D03*
X188300000Y-135060000D03*
X112410000Y-143290000D03*
X158542922Y-130322922D03*
X88096500Y-129183695D03*
X95373246Y-128680722D03*
X114296500Y-141340000D03*
X154069310Y-133635000D03*
X111862622Y-138518814D03*
X194120000Y-119280000D03*
X89096500Y-142593693D03*
X100220490Y-124364693D03*
X110121992Y-141941992D03*
X128381228Y-134575066D03*
X90425135Y-113163763D03*
X178540000Y-115580000D03*
X98160000Y-110680000D03*
X108180000Y-137080000D03*
X107380000Y-122130000D03*
X185540000Y-129100000D03*
X99296500Y-110643693D03*
X102996500Y-108343693D03*
X74896500Y-107343693D03*
X111696500Y-116043693D03*
X75696500Y-108643693D03*
X110896500Y-116643693D03*
X110545395Y-139593693D03*
X155947922Y-132917922D03*
X70796500Y-111143693D03*
X75562837Y-112210030D03*
X70796500Y-116143693D03*
X70730440Y-144008136D03*
X113836500Y-144643693D03*
X186180000Y-110060000D03*
D17*
X190950000Y-118120000D03*
D15*
X103346500Y-121343693D03*
X106089500Y-130841693D03*
X95422757Y-126903436D03*
X103636500Y-122794693D03*
X70050000Y-83570000D03*
X107096500Y-101443693D03*
X104694807Y-114345386D03*
X107196500Y-105643693D03*
X100924161Y-123571352D03*
X106996500Y-110843693D03*
X78470000Y-104360000D03*
X139505000Y-104362699D03*
X140970000Y-102390000D03*
X101891748Y-123536440D03*
X94380000Y-104360000D03*
X104096500Y-115343693D03*
X102096500Y-114143693D03*
X98024294Y-122216930D03*
X105610156Y-116335158D03*
X106196500Y-132743693D03*
X125396500Y-124943693D03*
X120500000Y-97750000D03*
X115638557Y-99510000D03*
X116796500Y-118043693D03*
X107064129Y-129685937D03*
X104796500Y-116843693D03*
X103996500Y-117543693D03*
X106293592Y-125329363D03*
X99972856Y-123437697D03*
X100096500Y-114843693D03*
X108596500Y-121843693D03*
X106484444Y-126269693D03*
X100596500Y-141593693D03*
X95846500Y-122343693D03*
X92096500Y-140343693D03*
X107188759Y-123290140D03*
X94596500Y-142593693D03*
X93346500Y-142343693D03*
X106196500Y-105943693D03*
X95596500Y-123093693D03*
X108996500Y-116543693D03*
X93346500Y-140343693D03*
X158370000Y-100210000D03*
X97346500Y-142593693D03*
X93346500Y-141343693D03*
X171950000Y-99840000D03*
X98096500Y-141843693D03*
X87096500Y-121343693D03*
X96846500Y-122343693D03*
X88096500Y-120843693D03*
X92096500Y-141343693D03*
X98096500Y-140593693D03*
X95846500Y-142593693D03*
X113996500Y-127543693D03*
X103041500Y-134676693D03*
X112332870Y-137580000D03*
X92696500Y-108343693D03*
X92696500Y-109943693D03*
X148400000Y-69330000D03*
X124781000Y-115590000D03*
X110796500Y-111943693D03*
X110802000Y-110143693D03*
X150574097Y-139790000D03*
X81735000Y-84430000D03*
X115596500Y-127543693D03*
X107196500Y-113143693D03*
X114812000Y-112743693D03*
X109131000Y-108443693D03*
X146996500Y-142243693D03*
X149746990Y-66160767D03*
X110096500Y-105743693D03*
X150596500Y-138943693D03*
X187390000Y-86100000D03*
X166940000Y-100810000D03*
X189470000Y-84050000D03*
X169460000Y-126110000D03*
X126667732Y-126614925D03*
X125925268Y-125872461D03*
X80550000Y-82060000D03*
X109260000Y-96090000D03*
X113556000Y-118643693D03*
X114269737Y-119284961D03*
X72360000Y-89220000D03*
X124796500Y-123943693D03*
X120830000Y-60980000D03*
X119777470Y-123700645D03*
X120713235Y-123488543D03*
X121645234Y-123260457D03*
X124996500Y-108943693D03*
X117096500Y-109943693D03*
X118396500Y-129434193D03*
X89096500Y-113643693D03*
X114196500Y-115128193D03*
X103996500Y-108943693D03*
X116376500Y-102218193D03*
X113596500Y-109443693D03*
X187210000Y-110860000D03*
D17*
X190320000Y-117620000D03*
D16*
X172710000Y-135690000D03*
X173850000Y-134590000D03*
D15*
X153700000Y-102840000D03*
X168140000Y-126150000D03*
X145287961Y-74657963D03*
X144640000Y-113940000D03*
X150700000Y-65720000D03*
D17*
X129360000Y-132450000D03*
X181950000Y-126290000D03*
D15*
X129690366Y-134541013D03*
D17*
X180825000Y-127600000D03*
D15*
X93697500Y-129444693D03*
X87725776Y-130391312D03*
X87846500Y-131343693D03*
X94411205Y-130940687D03*
X168510000Y-86150000D03*
X144440000Y-110310000D03*
X142540000Y-110160000D03*
X166540000Y-86150000D03*
X140570000Y-110080000D03*
X73360000Y-88210000D03*
X76910000Y-87530000D03*
X138730000Y-110080000D03*
X172660000Y-126170000D03*
X167660000Y-91930000D03*
X191840000Y-87050000D03*
X173690000Y-126010000D03*
X180470000Y-100520000D03*
X146410000Y-110270000D03*
X71000000Y-88180000D03*
D18*
X98950500Y-120947693D02*
X99096500Y-121093693D01*
X98950500Y-120239693D02*
X98950500Y-120947693D01*
D19*
X94525502Y-133007691D02*
X95548500Y-131984693D01*
D18*
X147390000Y-141460000D02*
X146890000Y-140960000D01*
X181640000Y-141460000D02*
X181900000Y-141460000D01*
X181900000Y-141460000D02*
X188300000Y-135060000D01*
D19*
X88596500Y-133007691D02*
X94525502Y-133007691D01*
D18*
X117650000Y-140960000D02*
X115320000Y-143290000D01*
X181640000Y-141460000D02*
X147390000Y-141460000D01*
X115320000Y-143290000D02*
X112410000Y-143290000D01*
X146890000Y-140960000D02*
X117650000Y-140960000D01*
X118682927Y-138043693D02*
X117592807Y-138043693D01*
X119276620Y-137450000D02*
X118682927Y-138043693D01*
D19*
X89186502Y-128093693D02*
X94786217Y-128093693D01*
D18*
X158542922Y-130322922D02*
X158542922Y-132067078D01*
X117592807Y-138043693D02*
X114296500Y-141340000D01*
D19*
X94786217Y-128093693D02*
X95373246Y-128680722D01*
D18*
X153160000Y-137450000D02*
X119276620Y-137450000D01*
X158542922Y-132067078D02*
X153160000Y-137450000D01*
D19*
X88096500Y-129183695D02*
X89186502Y-128093693D01*
D18*
X115055663Y-136130000D02*
X151574310Y-136130000D01*
X111862622Y-138518814D02*
X111901436Y-138480000D01*
X111901436Y-138480000D02*
X112705663Y-138480000D01*
X151574310Y-136130000D02*
X154069310Y-133635000D01*
X112705663Y-138480000D02*
X115055663Y-136130000D01*
X194120000Y-126110000D02*
X194120000Y-119280000D01*
D19*
X86846500Y-128593693D02*
X86846500Y-140343693D01*
D18*
X119526307Y-138133693D02*
X182096307Y-138133693D01*
D19*
X99565490Y-124312683D02*
X99096500Y-123843693D01*
X100220490Y-124364693D02*
X100168480Y-124312683D01*
D18*
X110336992Y-142156992D02*
X115503008Y-142156992D01*
D19*
X91596500Y-123843693D02*
X99096500Y-123843693D01*
D18*
X110121992Y-141941992D02*
X110336992Y-142156992D01*
X182096307Y-138133693D02*
X194120000Y-126110000D01*
X115503008Y-142156992D02*
X119526307Y-138133693D01*
D19*
X91596500Y-123843693D02*
X86846500Y-128593693D01*
X100168480Y-124312683D02*
X99565490Y-124312683D01*
X86846500Y-140343693D02*
X89096500Y-142593693D01*
X105404807Y-114051294D02*
X104517276Y-113163763D01*
X105404807Y-114752000D02*
X105404807Y-114051294D01*
X121227026Y-134575066D02*
X116396500Y-129744540D01*
X128381228Y-134575066D02*
X121227026Y-134575066D01*
X104517276Y-113163763D02*
X90425135Y-113163763D01*
X116396500Y-129744540D02*
X116396500Y-125743693D01*
X116396500Y-125743693D02*
X105404807Y-114752000D01*
D18*
X181330000Y-133310000D02*
X185540000Y-129100000D01*
X160330000Y-129100000D02*
X164540000Y-133310000D01*
X151094934Y-135385066D02*
X157380000Y-129100000D01*
X108580000Y-136680000D02*
X109874934Y-135385066D01*
X108580000Y-123330000D02*
X108580000Y-136680000D01*
X109874934Y-135385066D02*
X151094934Y-135385066D01*
X107380000Y-122130000D02*
X108580000Y-123330000D01*
X108580000Y-136680000D02*
X108180000Y-137080000D01*
X157380000Y-129100000D02*
X160330000Y-129100000D01*
D20*
X107380000Y-122130000D02*
X107420000Y-122130000D01*
D18*
X164540000Y-133310000D02*
X181330000Y-133310000D01*
D21*
X102996500Y-108343693D02*
X101596500Y-108343693D01*
X101596500Y-108343693D02*
X99296500Y-110643693D01*
X111896500Y-105543693D02*
X111896500Y-115843693D01*
X74896500Y-105143693D02*
X76896500Y-103143693D01*
X111896500Y-115843693D02*
X111696500Y-116043693D01*
X76896500Y-103143693D02*
X109496500Y-103143693D01*
X109496500Y-103143693D02*
X111896500Y-105543693D01*
X74896500Y-107343693D02*
X74896500Y-105143693D01*
X75696500Y-105243693D02*
X75696500Y-108643693D01*
X111486500Y-106033693D02*
X109006500Y-103553693D01*
X110896500Y-115243693D02*
X111486500Y-114653693D01*
X111486500Y-114653693D02*
X111486500Y-106033693D01*
X109006500Y-103553693D02*
X77386500Y-103553693D01*
X110896500Y-116643693D02*
X110896500Y-115243693D01*
X77386500Y-103553693D02*
X75696500Y-105243693D01*
D18*
X110545395Y-139593693D02*
X112525350Y-139593693D01*
X152773880Y-136083880D02*
X155939839Y-132917922D01*
X112525350Y-139593693D02*
X115329043Y-136790000D01*
X155939839Y-132917922D02*
X155947922Y-132917922D01*
X115329043Y-136790000D02*
X152067760Y-136790000D01*
X152187761Y-136670000D02*
X152773880Y-136083880D01*
X152067760Y-136790000D02*
X152773880Y-136083880D01*
X74496500Y-111143693D02*
X75562837Y-112210030D01*
X70796500Y-111143693D02*
X74496500Y-111143693D01*
X70796500Y-111143693D02*
X70796500Y-116143693D01*
D19*
X113826500Y-144633693D02*
X71355997Y-144633693D01*
X113836500Y-144643693D02*
X113826500Y-144633693D01*
X71355997Y-144633693D02*
X70730440Y-144008136D01*
D21*
X190945000Y-118115000D02*
X190950000Y-118120000D01*
X186180000Y-110060000D02*
X188690000Y-110060000D01*
X188690000Y-110060000D02*
X190945000Y-112315000D01*
X190945000Y-112315000D02*
X190945000Y-118115000D01*
D18*
X105200500Y-124999693D02*
X105200500Y-129952693D01*
X95422757Y-125379436D02*
X95929500Y-124872693D01*
D20*
X103346500Y-122504693D02*
X103636500Y-122794693D01*
D18*
X99529688Y-124872693D02*
X99831689Y-125174694D01*
X103695500Y-122853693D02*
X103636500Y-122794693D01*
D20*
X103346500Y-121343693D02*
X103346500Y-122504693D01*
D18*
X95929500Y-124872693D02*
X99529688Y-124872693D01*
X95422757Y-126903436D02*
X95422757Y-125379436D01*
X103636500Y-122936495D02*
X103636500Y-122794693D01*
X103695500Y-123494693D02*
X103695500Y-122853693D01*
X105200500Y-129952693D02*
X106089500Y-130841693D01*
X103695500Y-123494693D02*
X105200500Y-124999693D01*
X101398301Y-125174694D02*
X103636500Y-122936495D01*
X99831689Y-125174694D02*
X101398301Y-125174694D01*
D22*
X104094807Y-114345386D02*
X101296500Y-117143693D01*
X101296500Y-122815854D02*
X100924161Y-123188193D01*
X101296500Y-117143693D02*
X101296500Y-122815854D01*
X104694807Y-114345386D02*
X104094807Y-114345386D01*
D21*
X107096500Y-101443693D02*
X81560000Y-101443693D01*
X70055000Y-89938693D02*
X70055000Y-83575000D01*
X107196500Y-110643693D02*
X107196500Y-105643693D01*
X81560000Y-101443693D02*
X70055000Y-89938693D01*
X106996500Y-110843693D02*
X107196500Y-110643693D01*
X70055000Y-83575000D02*
X70050000Y-83570000D01*
D22*
X100924161Y-123188193D02*
X100924161Y-123571352D01*
D21*
X139505000Y-103785000D02*
X140900000Y-102390000D01*
X140900000Y-102390000D02*
X140970000Y-102390000D01*
D22*
X101740497Y-123385189D02*
X101740497Y-117699696D01*
D21*
X94380000Y-104360000D02*
X78470000Y-104360000D01*
D22*
X101891748Y-123536440D02*
X101740497Y-123385189D01*
X101740497Y-117699696D02*
X104096500Y-115343693D01*
D21*
X139505000Y-103785000D02*
X139505000Y-104362699D01*
D22*
X100296500Y-121243693D02*
X99323263Y-122216930D01*
X99323263Y-122216930D02*
X98024294Y-122216930D01*
X99823119Y-114183693D02*
X99436500Y-114570312D01*
X102056500Y-114183693D02*
X99823119Y-114183693D01*
X100296500Y-115977074D02*
X100296500Y-121243693D01*
X102096500Y-114143693D02*
X102056500Y-114183693D01*
X99436500Y-115117074D02*
X100296500Y-115977074D01*
X99436500Y-114570312D02*
X99436500Y-115117074D01*
X105596500Y-122743693D02*
X107796500Y-124943693D01*
X105596500Y-116348814D02*
X105596500Y-122743693D01*
X105610156Y-116335158D02*
X105596500Y-116348814D01*
X107796500Y-124943693D02*
X107796500Y-131143693D01*
X107796500Y-131143693D02*
X106196500Y-132743693D01*
D21*
X120511403Y-97761403D02*
X120500000Y-97750000D01*
X120511403Y-108158596D02*
X120511403Y-99843693D01*
X124296500Y-124943693D02*
X121996500Y-122643693D01*
X121996500Y-109643693D02*
X120511403Y-108158596D01*
X121996500Y-122643693D02*
X121996500Y-109643693D01*
X120511403Y-99843693D02*
X120511403Y-97761403D01*
X125396500Y-124943693D02*
X124296500Y-124943693D01*
X116796500Y-110643693D02*
X115496500Y-109343693D01*
X116796500Y-118043693D02*
X116796500Y-110643693D01*
X115496500Y-99652057D02*
X115638557Y-99510000D01*
X115496500Y-109343693D02*
X115496500Y-99652057D01*
D22*
X105996500Y-124043693D02*
X105096500Y-123143693D01*
X105096500Y-117143693D02*
X104796500Y-116843693D01*
X107144444Y-129605622D02*
X107144444Y-125191637D01*
X105096500Y-123143693D02*
X105096500Y-117143693D01*
X107064129Y-129685937D02*
X107144444Y-129605622D01*
X107144444Y-125191637D02*
X105996500Y-124043693D01*
X103996500Y-117543693D02*
X104596500Y-118143693D01*
X104596500Y-123632271D02*
X106293592Y-125329363D01*
X104596500Y-118143693D02*
X104596500Y-123632271D01*
X100096500Y-114843693D02*
X100796500Y-115543693D01*
X100796500Y-115543693D02*
X100796500Y-122614053D01*
X100796500Y-122614053D02*
X99972856Y-123437697D01*
D18*
X106096500Y-106043693D02*
X106096500Y-113643693D01*
X106096500Y-113643693D02*
X108996500Y-116543693D01*
X106196500Y-105943693D02*
X106096500Y-106043693D01*
X111423381Y-137340000D02*
X112092870Y-137340000D01*
X103041500Y-134676693D02*
X106374807Y-138010000D01*
D21*
X148710000Y-69330000D02*
X149746990Y-68293010D01*
X149746990Y-68293010D02*
X149746990Y-66160767D01*
D18*
X110753381Y-138010000D02*
X111423381Y-137340000D01*
X106374807Y-138010000D02*
X110753381Y-138010000D01*
D21*
X148400000Y-69330000D02*
X148710000Y-69330000D01*
D18*
X112092870Y-137340000D02*
X112332870Y-137580000D01*
X189470000Y-84050000D02*
X189440000Y-84050000D01*
X169460000Y-126110000D02*
X166940000Y-123590000D01*
X189440000Y-84050000D02*
X187390000Y-86100000D01*
X166940000Y-123590000D02*
X166940000Y-100810000D01*
D22*
X109926501Y-102673694D02*
X63241499Y-102673694D01*
X116971500Y-129736893D02*
X116971500Y-123527809D01*
X118103300Y-130868693D02*
X116971500Y-129736893D01*
X112396500Y-105143693D02*
X109926501Y-102673694D01*
X121989699Y-130868693D02*
X118103300Y-130868693D01*
X112396500Y-118952809D02*
X112396500Y-105143693D01*
X116971500Y-123527809D02*
X112396500Y-118952809D01*
X126667732Y-126614925D02*
X126243467Y-126614925D01*
X126243467Y-126614925D02*
X121989699Y-130868693D01*
X63241499Y-102673694D02*
X62196500Y-103718693D01*
X118289700Y-130418693D02*
X117421500Y-129550493D01*
X125925268Y-126296726D02*
X121803301Y-130418693D01*
X63241499Y-102223692D02*
X62196500Y-101178693D01*
X112896500Y-104943693D02*
X110176499Y-102223692D01*
X117421500Y-123468693D02*
X112896500Y-118943693D01*
X125925268Y-125872461D02*
X125925268Y-126296726D01*
X121803301Y-130418693D02*
X118289700Y-130418693D01*
X110176499Y-102223692D02*
X63241499Y-102223692D01*
X112896500Y-118943693D02*
X112896500Y-104943693D01*
X117421500Y-129550493D02*
X117421500Y-123468693D01*
D21*
X114281500Y-101111500D02*
X114281500Y-101390000D01*
X113556000Y-118643693D02*
X115496500Y-116703193D01*
X115496500Y-116703193D02*
X115496500Y-110723521D01*
X109260000Y-96090000D02*
X95230000Y-82060000D01*
X95230000Y-82060000D02*
X80550000Y-82060000D01*
X109260000Y-96090000D02*
X114281500Y-101111500D01*
X114281500Y-109508521D02*
X114281500Y-101390000D01*
X115496500Y-110723521D02*
X114281500Y-109508521D01*
X116046500Y-117508198D02*
X116046500Y-110693693D01*
X114896500Y-100243693D02*
X111800000Y-97147193D01*
X111800000Y-97147193D02*
X94852807Y-80200000D01*
X116046500Y-110693693D02*
X114896500Y-109543693D01*
X114269737Y-119284961D02*
X116046500Y-117508198D01*
X94852807Y-80200000D02*
X75350000Y-80200000D01*
X111800000Y-97147193D02*
X111800000Y-46650000D01*
X114896500Y-109543693D02*
X114896500Y-100243693D01*
X75350000Y-80200000D02*
X72360000Y-83190000D01*
X72360000Y-83190000D02*
X72360000Y-89220000D01*
X120930001Y-98416015D02*
X121275000Y-98071016D01*
X122996500Y-122143693D02*
X122996500Y-109343693D01*
X121275000Y-98071016D02*
X121275000Y-61425000D01*
X122996500Y-109343693D02*
X120930001Y-107277194D01*
X121275000Y-61425000D02*
X120830000Y-60980000D01*
X124796500Y-123943693D02*
X122996500Y-122143693D01*
X120930001Y-107277194D02*
X120930001Y-98416015D01*
X118996500Y-122919675D02*
X118996500Y-110243693D01*
X118570000Y-47500000D02*
X119420000Y-46650000D01*
X119777470Y-123700645D02*
X118996500Y-122919675D01*
X118570000Y-109817193D02*
X118570000Y-47500000D01*
X118996500Y-110243693D02*
X118570000Y-109817193D01*
X121960000Y-56550000D02*
X119186500Y-59323500D01*
X119186500Y-59323500D02*
X119186500Y-109233693D01*
X120713235Y-123488543D02*
X119996500Y-122771808D01*
X121960000Y-46650000D02*
X121960000Y-56550000D01*
X119996500Y-110043693D02*
X119186500Y-109233693D01*
X119996500Y-122771808D02*
X119996500Y-110043693D01*
X121645234Y-123260457D02*
X121096500Y-122711723D01*
X121096500Y-122711723D02*
X121096500Y-109843693D01*
X124500000Y-56106500D02*
X119736403Y-60870097D01*
X124500000Y-46650000D02*
X124500000Y-56106500D01*
X121096500Y-109843693D02*
X119736403Y-108483597D01*
X119736403Y-60870097D02*
X119736403Y-108483597D01*
X127040000Y-94500193D02*
X127040000Y-46650000D01*
X122996500Y-98543693D02*
X127040000Y-94500193D01*
X122996500Y-106943693D02*
X122996500Y-98543693D01*
X124996500Y-108943693D02*
X122996500Y-106943693D01*
X118296500Y-129334193D02*
X118396500Y-129434193D01*
X117796500Y-120643693D02*
X118296500Y-121143693D01*
X117096500Y-109943693D02*
X117796500Y-110643693D01*
X117796500Y-110643693D02*
X117796500Y-120643693D01*
X118296500Y-121143693D02*
X118296500Y-129334193D01*
D19*
X114196500Y-115128193D02*
X114196500Y-114543693D01*
X116376500Y-102218193D02*
X116880000Y-101714693D01*
X90796500Y-111743693D02*
X89096500Y-113443693D01*
X103796500Y-109143693D02*
X101896500Y-109143693D01*
X103996500Y-108943693D02*
X103796500Y-109143693D01*
X116880000Y-101714693D02*
X116880000Y-46650000D01*
X101896500Y-109143693D02*
X99296500Y-111743693D01*
X114196500Y-114543693D02*
X113596500Y-113943693D01*
X116376500Y-102218193D02*
X116336500Y-102178193D01*
X113596500Y-113943693D02*
X113596500Y-109443693D01*
X89096500Y-113443693D02*
X89096500Y-113643693D01*
X99296500Y-111743693D02*
X90796500Y-111743693D01*
D21*
X188780000Y-110860000D02*
X190320000Y-112400000D01*
X187210000Y-110860000D02*
X188780000Y-110860000D01*
X190320000Y-117620000D02*
X190320000Y-112400000D01*
X172710000Y-135690000D02*
X172750000Y-135690000D01*
X172750000Y-135690000D02*
X173850000Y-134590000D01*
D18*
X153700000Y-111710000D02*
X153700000Y-102840000D01*
D21*
X168140000Y-126150000D02*
X168070000Y-126150000D01*
D18*
X168140000Y-126150000D02*
X167090000Y-125100000D01*
X167090000Y-125100000D02*
X153700000Y-111710000D01*
D21*
X140770000Y-111830000D02*
X139690000Y-110750000D01*
X145287961Y-74657963D02*
X150700000Y-69245924D01*
X139690000Y-110750000D02*
X139690000Y-106170000D01*
X144640000Y-113940000D02*
X144640000Y-113030000D01*
X141980000Y-77965924D02*
X145287961Y-74657963D01*
X139690000Y-106170000D02*
X141980000Y-103880000D01*
X141980000Y-103880000D02*
X141980000Y-77965924D01*
X143440000Y-111830000D02*
X140770000Y-111830000D01*
X144640000Y-113030000D02*
X143440000Y-111830000D01*
X150700000Y-69245924D02*
X150700000Y-65720000D01*
X129360000Y-132450000D02*
X152693568Y-132450000D01*
X158203568Y-126940000D02*
X181300000Y-126940000D01*
X181300000Y-126940000D02*
X181950000Y-126290000D01*
X152693568Y-132450000D02*
X158203568Y-126940000D01*
X173521016Y-127425000D02*
X173696016Y-127600000D01*
X158298396Y-127425000D02*
X173521016Y-127425000D01*
X129690366Y-134541013D02*
X151182383Y-134541013D01*
X173696016Y-127600000D02*
X180825000Y-127600000D01*
X151182383Y-134541013D02*
X158298396Y-127425000D01*
D19*
X87725776Y-130391312D02*
X89100468Y-130391312D01*
X93291400Y-129288593D02*
X93447500Y-129444693D01*
X93447500Y-129444693D02*
X93697500Y-129444693D01*
X90203187Y-129288593D02*
X93291400Y-129288593D01*
X89100468Y-130391312D02*
X90203187Y-129288593D01*
X94008199Y-131343693D02*
X94411205Y-130940687D01*
X87846500Y-131343693D02*
X94008199Y-131343693D01*
D21*
X182680000Y-46750000D02*
X182680000Y-71657968D01*
X182680000Y-71657968D02*
X144440000Y-109897968D01*
X144440000Y-109897968D02*
X144440000Y-110310000D01*
X180140000Y-46750000D02*
X180140000Y-72560000D01*
X180140000Y-72560000D02*
X142540000Y-110160000D01*
X177600000Y-73050000D02*
X140570000Y-110080000D01*
X177600000Y-46750000D02*
X177600000Y-73050000D01*
X157190047Y-51969953D02*
X171970047Y-51969953D01*
X138730000Y-110080000D02*
X138730000Y-70430000D01*
X175060000Y-48880000D02*
X175060000Y-46750000D01*
X138730000Y-70430000D02*
X157190047Y-51969953D01*
X171970047Y-51969953D02*
X175060000Y-48880000D01*
D18*
X167970000Y-123000000D02*
X169640000Y-124670000D01*
X167660000Y-91930000D02*
X167970000Y-92240000D01*
X169640000Y-124670000D02*
X171860000Y-124670000D01*
X172660000Y-126170000D02*
X172660000Y-125470000D01*
X167970000Y-92240000D02*
X167970000Y-123000000D01*
X171860000Y-124670000D02*
X172660000Y-125470000D01*
X180470000Y-100520000D02*
X191840000Y-89150000D01*
X191840000Y-89150000D02*
X191840000Y-87050000D01*
X180470000Y-100520000D02*
X173690000Y-107300000D01*
X173690000Y-107300000D02*
X173690000Y-126010000D01*
D21*
X156420000Y-100410000D02*
X155183891Y-100410000D01*
X184850000Y-71980000D02*
X156750000Y-100080000D01*
X156750000Y-100080000D02*
X156420000Y-100410000D01*
X146410000Y-109183891D02*
X146410000Y-110270000D01*
X185220000Y-71980000D02*
X184850000Y-71980000D01*
X155183891Y-100410000D02*
X146410000Y-109183891D01*
X185220000Y-46780000D02*
X185220000Y-71980000D01*
G04 #@! TA.AperFunction,Conductor*
G36*
X102419350Y-125527695D02*
G01*
X102465843Y-125581351D01*
X102476310Y-125618506D01*
X102483359Y-125676564D01*
X102543679Y-125835618D01*
X102543681Y-125835622D01*
X102607575Y-125928187D01*
X102640317Y-125975622D01*
X102767648Y-126088427D01*
X102918275Y-126167483D01*
X102918276Y-126167483D01*
X102918278Y-126167484D01*
X103074961Y-126206102D01*
X103083444Y-126208193D01*
X103083447Y-126208193D01*
X103253553Y-126208193D01*
X103253556Y-126208193D01*
X103418725Y-126167483D01*
X103569352Y-126088427D01*
X103696683Y-125975622D01*
X103696686Y-125975616D01*
X103701740Y-125969914D01*
X103704017Y-125971931D01*
X103748249Y-125936027D01*
X103818812Y-125928187D01*
X103882411Y-125959741D01*
X103885976Y-125963169D01*
X103893595Y-125970788D01*
X103927621Y-126033100D01*
X103930500Y-126059883D01*
X103930500Y-132086875D01*
X103910498Y-132154996D01*
X103856842Y-132201489D01*
X103786568Y-132211593D01*
X103774347Y-132209214D01*
X103633302Y-132174450D01*
X103633299Y-132174450D01*
X103463187Y-132174450D01*
X103463183Y-132174450D01*
X103298021Y-132215158D01*
X103298017Y-132215160D01*
X103147391Y-132294215D01*
X103147385Y-132294220D01*
X103020061Y-132407019D01*
X103020059Y-132407021D01*
X102923424Y-132547020D01*
X102923422Y-132547024D01*
X102863102Y-132706078D01*
X102842598Y-132874947D01*
X102842598Y-132874952D01*
X102863102Y-133043821D01*
X102923422Y-133202875D01*
X102923424Y-133202879D01*
X102923425Y-133202880D01*
X103020060Y-133342879D01*
X103147391Y-133455684D01*
X103279701Y-133525126D01*
X103330723Y-133574494D01*
X103346955Y-133643610D01*
X103323243Y-133710530D01*
X103267116Y-133754007D01*
X103221145Y-133762693D01*
X96608690Y-133762693D01*
X96540569Y-133742691D01*
X96519595Y-133725788D01*
X96093405Y-133299598D01*
X96059379Y-133237286D01*
X96056500Y-133210503D01*
X96056500Y-132521125D01*
X96076502Y-132453004D01*
X96078804Y-132449549D01*
X96108159Y-132407021D01*
X96173318Y-132312623D01*
X96233640Y-132153565D01*
X96254145Y-131984693D01*
X96233640Y-131815821D01*
X96173318Y-131656763D01*
X96078804Y-131519836D01*
X96056568Y-131452411D01*
X96056500Y-131448260D01*
X96056500Y-128872546D01*
X96058362Y-128857268D01*
X96057468Y-128857160D01*
X96078891Y-128680724D01*
X96078891Y-128680719D01*
X96057468Y-128504286D01*
X96058353Y-128504178D01*
X96056500Y-128488899D01*
X96056500Y-126059883D01*
X96076502Y-125991762D01*
X96093405Y-125970788D01*
X96519595Y-125544598D01*
X96581907Y-125510572D01*
X96608690Y-125507693D01*
X102351229Y-125507693D01*
X102419350Y-125527695D01*
G37*
G04 #@! TD.AperFunction*
M02*
