G04 #@! TF.GenerationSoftware,KiCad,Pcbnew,7.0.9-7.0.9~ubuntu22.04.1*
G04 #@! TF.CreationDate,2024-04-13T14:40:37+02:00*
G04 #@! TF.ProjectId,v7-kaleido,76372d6b-616c-4656-9964-6f2e6b696361,1.1*
G04 #@! TF.SameCoordinates,Original*
G04 #@! TF.FileFunction,Paste,Top*
G04 #@! TF.FilePolarity,Positive*
%FSLAX46Y46*%
G04 Gerber Fmt 4.6, Leading zero omitted, Abs format (unit mm)*
G04 Created by KiCad (PCBNEW 7.0.9-7.0.9~ubuntu22.04.1) date 2024-04-13 14:40:37*
%MOMM*%
%LPD*%
G01*
G04 APERTURE LIST*
G04 Aperture macros list*
%AMRoundRect*
0 Rectangle with rounded corners*
0 $1 Rounding radius*
0 $2 $3 $4 $5 $6 $7 $8 $9 X,Y pos of 4 corners*
0 Add a 4 corners polygon primitive as box body*
4,1,4,$2,$3,$4,$5,$6,$7,$8,$9,$2,$3,0*
0 Add four circle primitives for the rounded corners*
1,1,$1+$1,$2,$3*
1,1,$1+$1,$4,$5*
1,1,$1+$1,$6,$7*
1,1,$1+$1,$8,$9*
0 Add four rect primitives between the rounded corners*
20,1,$1+$1,$2,$3,$4,$5,0*
20,1,$1+$1,$4,$5,$6,$7,0*
20,1,$1+$1,$6,$7,$8,$9,0*
20,1,$1+$1,$8,$9,$2,$3,0*%
G04 Aperture macros list end*
%ADD10C,0.152400*%
%ADD11RoundRect,0.200000X-0.200000X-0.275000X0.200000X-0.275000X0.200000X0.275000X-0.200000X0.275000X0*%
%ADD12RoundRect,0.150000X0.150000X-0.587500X0.150000X0.587500X-0.150000X0.587500X-0.150000X-0.587500X0*%
%ADD13RoundRect,0.200000X-0.275000X0.200000X-0.275000X-0.200000X0.275000X-0.200000X0.275000X0.200000X0*%
%ADD14RoundRect,0.200000X0.275000X-0.200000X0.275000X0.200000X-0.275000X0.200000X-0.275000X-0.200000X0*%
%ADD15RoundRect,0.150000X-0.150000X0.587500X-0.150000X-0.587500X0.150000X-0.587500X0.150000X0.587500X0*%
%ADD16RoundRect,0.250000X0.250000X0.475000X-0.250000X0.475000X-0.250000X-0.475000X0.250000X-0.475000X0*%
%ADD17RoundRect,0.250000X-0.475000X0.250000X-0.475000X-0.250000X0.475000X-0.250000X0.475000X0.250000X0*%
%ADD18RoundRect,0.243750X-0.456250X0.243750X-0.456250X-0.243750X0.456250X-0.243750X0.456250X0.243750X0*%
%ADD19RoundRect,0.250000X0.475000X-0.250000X0.475000X0.250000X-0.475000X0.250000X-0.475000X-0.250000X0*%
%ADD20RoundRect,0.250000X0.650000X-0.325000X0.650000X0.325000X-0.650000X0.325000X-0.650000X-0.325000X0*%
%ADD21RoundRect,0.250000X-0.250000X-0.475000X0.250000X-0.475000X0.250000X0.475000X-0.250000X0.475000X0*%
%ADD22RoundRect,0.250000X-0.325000X-0.650000X0.325000X-0.650000X0.325000X0.650000X-0.325000X0.650000X0*%
%ADD23RoundRect,0.200000X0.200000X0.275000X-0.200000X0.275000X-0.200000X-0.275000X0.200000X-0.275000X0*%
%ADD24RoundRect,0.100000X-0.100000X0.637500X-0.100000X-0.637500X0.100000X-0.637500X0.100000X0.637500X0*%
%ADD25RoundRect,0.250000X0.925000X-0.412500X0.925000X0.412500X-0.925000X0.412500X-0.925000X-0.412500X0*%
%ADD26R,3.900000X2.200000*%
%ADD27R,4.200000X2.400000*%
%ADD28R,0.850000X0.200000*%
%ADD29R,0.200000X0.850000*%
%ADD30R,4.399999X4.399999*%
%ADD31RoundRect,0.225000X-0.375000X0.225000X-0.375000X-0.225000X0.375000X-0.225000X0.375000X0.225000X0*%
%ADD32RoundRect,0.225000X0.375000X-0.225000X0.375000X0.225000X-0.375000X0.225000X-0.375000X-0.225000X0*%
%ADD33R,0.650000X1.500000*%
%ADD34R,3.600000X2.700000*%
%ADD35R,0.800000X0.230000*%
%ADD36R,1.200000X0.700000*%
%ADD37RoundRect,0.150000X0.512500X0.150000X-0.512500X0.150000X-0.512500X-0.150000X0.512500X-0.150000X0*%
%ADD38R,0.500000X0.375000*%
%ADD39R,0.650000X0.300000*%
%ADD40R,1.257300X4.013200*%
%ADD41R,1.600000X2.800000*%
%ADD42R,0.250000X1.300000*%
%ADD43RoundRect,0.150000X-0.587500X-0.150000X0.587500X-0.150000X0.587500X0.150000X-0.587500X0.150000X0*%
%ADD44R,1.070000X0.530000*%
%ADD45R,0.355600X0.838200*%
%ADD46R,0.406400X0.838200*%
%ADD47RoundRect,0.150000X-0.150000X0.825000X-0.150000X-0.825000X0.150000X-0.825000X0.150000X0.825000X0*%
%ADD48R,0.800000X0.300000*%
%ADD49R,0.800000X0.400000*%
%ADD50RoundRect,0.150000X-0.150000X0.512500X-0.150000X-0.512500X0.150000X-0.512500X0.150000X0.512500X0*%
%ADD51R,1.550000X0.600000*%
%ADD52R,1.800000X1.200000*%
%ADD53R,1.500000X0.900000*%
%ADD54R,0.900000X1.500000*%
%ADD55R,0.900000X0.900000*%
%ADD56R,0.609600X0.355600*%
%ADD57RoundRect,0.150000X-0.825000X-0.150000X0.825000X-0.150000X0.825000X0.150000X-0.825000X0.150000X0*%
%ADD58R,1.450000X0.600000*%
%ADD59R,1.450000X0.300000*%
%ADD60R,1.600000X0.700000*%
%ADD61R,1.500000X1.600000*%
%ADD62R,2.200000X1.200000*%
%ADD63R,1.000000X1.800000*%
G04 APERTURE END LIST*
D10*
X103495500Y-131846692D02*
X103495500Y-131696693D01*
X103495500Y-131696693D02*
X102695501Y-131696693D01*
X103495500Y-131446693D02*
X103495500Y-131296693D01*
X103495500Y-131296693D02*
X102695501Y-131296693D01*
X103495500Y-131046694D02*
X103495500Y-130896694D01*
X103495500Y-130896694D02*
X102695501Y-130896694D01*
X103495500Y-130646692D02*
X103495500Y-130496692D01*
X103495500Y-130496692D02*
X102695501Y-130496692D01*
X103495500Y-130246693D02*
X103495500Y-130096693D01*
X103495500Y-130096693D02*
X102695501Y-130096693D01*
X103495500Y-129846694D02*
X103495500Y-129696694D01*
X103495500Y-129696694D02*
X102695501Y-129696694D01*
X103495500Y-129446692D02*
X103495500Y-129296692D01*
X103495500Y-129296692D02*
X102695501Y-129296692D01*
X103495500Y-129046693D02*
X103495500Y-128896693D01*
X103495500Y-128896693D02*
X102695501Y-128896693D01*
X103495500Y-128646694D02*
X103495500Y-128496694D01*
X103495500Y-128496694D02*
X102695501Y-128496694D01*
X103495500Y-128246694D02*
X103495500Y-128096692D01*
X103495500Y-128096692D02*
X102695501Y-128096692D01*
X103495500Y-127846693D02*
X103495500Y-127696693D01*
X103495500Y-127696693D02*
X102695501Y-127696693D01*
X103495500Y-127446693D02*
X103495500Y-127296694D01*
X103495500Y-127296694D02*
X102695501Y-127296694D01*
X102695501Y-131846692D02*
X103495500Y-131846692D01*
X102695501Y-131696693D02*
X102695501Y-131846692D01*
X102695501Y-131446693D02*
X103495500Y-131446693D01*
X102695501Y-131296693D02*
X102695501Y-131446693D01*
X102695501Y-131046694D02*
X103495500Y-131046694D01*
X102695501Y-130896694D02*
X102695501Y-131046694D01*
X102695501Y-130646692D02*
X103495500Y-130646692D01*
X102695501Y-130496692D02*
X102695501Y-130646692D01*
X102695501Y-130246693D02*
X103495500Y-130246693D01*
X102695501Y-130096693D02*
X102695501Y-130246693D01*
X102695501Y-129846694D02*
X103495500Y-129846694D01*
X102695501Y-129696694D02*
X102695501Y-129846694D01*
X102695501Y-129446692D02*
X103495500Y-129446692D01*
X102695501Y-129296692D02*
X102695501Y-129446692D01*
X102695501Y-129046693D02*
X103495500Y-129046693D01*
X102695501Y-128896693D02*
X102695501Y-129046693D01*
X102695501Y-128646694D02*
X103495500Y-128646694D01*
X102695501Y-128496694D02*
X102695501Y-128646694D01*
X102695501Y-128246694D02*
X103495500Y-128246694D01*
X102695501Y-128096692D02*
X102695501Y-128246694D01*
X102695501Y-127846693D02*
X103495500Y-127846693D01*
X102695501Y-127696693D02*
X102695501Y-127846693D01*
X102695501Y-127446693D02*
X103495500Y-127446693D01*
X102695501Y-127296694D02*
X102695501Y-127446693D01*
X102395499Y-132946693D02*
X102395499Y-132146694D01*
X102395499Y-132146694D02*
X102245500Y-132146694D01*
X102395499Y-126996692D02*
X102395499Y-126196693D01*
X102395499Y-126196693D02*
X102245500Y-126196693D01*
X102245569Y-131696762D02*
X102245569Y-131246493D01*
X102245569Y-131246493D02*
X101936721Y-131246493D01*
X102245569Y-131046493D02*
X102245569Y-130459093D01*
X102245569Y-130459093D02*
X101936721Y-130459093D01*
X102245569Y-130259093D02*
X102245569Y-129671693D01*
X102245569Y-129671693D02*
X101936721Y-129671693D01*
X102245569Y-129471693D02*
X102245569Y-128884293D01*
X102245569Y-128884293D02*
X101936721Y-128884293D01*
X102245569Y-128684293D02*
X102245569Y-128096893D01*
X102245569Y-128096893D02*
X101936721Y-128096893D01*
X102245569Y-127896893D02*
X102245569Y-127446624D01*
X102245569Y-127446624D02*
X101795300Y-127446624D01*
X102245500Y-132946693D02*
X102395499Y-132946693D01*
X102245500Y-132146694D02*
X102245500Y-132946693D01*
X102245500Y-126996692D02*
X102395499Y-126996692D01*
X102245500Y-126196693D02*
X102245500Y-126996692D01*
X101995500Y-132946693D02*
X101995500Y-132146694D01*
X101995500Y-132146694D02*
X101845500Y-132146694D01*
X101995500Y-126996692D02*
X101995500Y-126196693D01*
X101995500Y-126196693D02*
X101845500Y-126196693D01*
X101936721Y-131246493D02*
X101936721Y-131246493D01*
X101936721Y-131246493D02*
X101795300Y-131387914D01*
X101936721Y-131046493D02*
X102245569Y-131046493D01*
X101936721Y-131046493D02*
X101936721Y-131046493D01*
X101936721Y-130459093D02*
X101936721Y-130459093D01*
X101936721Y-130459093D02*
X101795300Y-130600514D01*
X101936721Y-130259093D02*
X102245569Y-130259093D01*
X101936721Y-130259093D02*
X101936721Y-130259093D01*
X101936721Y-129671693D02*
X101936721Y-129671693D01*
X101936721Y-129671693D02*
X101795300Y-129813114D01*
X101936721Y-129471693D02*
X102245569Y-129471693D01*
X101936721Y-129471693D02*
X101936721Y-129471693D01*
X101936721Y-128884293D02*
X101936721Y-128884293D01*
X101936721Y-128884293D02*
X101795300Y-129025714D01*
X101936721Y-128684293D02*
X102245569Y-128684293D01*
X101936721Y-128684293D02*
X101936721Y-128684293D01*
X101936721Y-128096893D02*
X101936721Y-128096893D01*
X101936721Y-128096893D02*
X101795300Y-128238314D01*
X101936721Y-127896893D02*
X102245569Y-127896893D01*
X101936721Y-127896893D02*
X101936721Y-127896893D01*
X101845500Y-132946693D02*
X101995500Y-132946693D01*
X101845500Y-132146694D02*
X101845500Y-132946693D01*
X101845500Y-126996692D02*
X101995500Y-126996692D01*
X101845500Y-126196693D02*
X101845500Y-126996692D01*
X101795300Y-131696762D02*
X102245569Y-131696762D01*
X101795300Y-131387914D02*
X101795300Y-131696762D01*
X101795300Y-131387914D02*
X101795300Y-131387914D01*
X101795300Y-130905072D02*
X101936721Y-131046493D01*
X101795300Y-130905072D02*
X101795300Y-130905072D01*
X101795300Y-130600514D02*
X101795300Y-130905072D01*
X101795300Y-130600514D02*
X101795300Y-130600514D01*
X101795300Y-130117672D02*
X101936721Y-130259093D01*
X101795300Y-130117672D02*
X101795300Y-130117672D01*
X101795300Y-129813114D02*
X101795300Y-130117672D01*
X101795300Y-129813114D02*
X101795300Y-129813114D01*
X101795300Y-129330272D02*
X101936721Y-129471693D01*
X101795300Y-129330272D02*
X101795300Y-129330272D01*
X101795300Y-129025714D02*
X101795300Y-129330272D01*
X101795300Y-129025714D02*
X101795300Y-129025714D01*
X101795300Y-128542872D02*
X101936721Y-128684293D01*
X101795300Y-128542872D02*
X101795300Y-128542872D01*
X101795300Y-128238314D02*
X101795300Y-128542872D01*
X101795300Y-128238314D02*
X101795300Y-128238314D01*
X101795300Y-127755472D02*
X101936721Y-127896893D01*
X101795300Y-127755472D02*
X101795300Y-127755472D01*
X101795300Y-127446624D02*
X101795300Y-127755472D01*
X101595501Y-132946693D02*
X101595501Y-132146694D01*
X101595501Y-132146694D02*
X101445499Y-132146694D01*
X101595501Y-126996692D02*
X101595501Y-126196693D01*
X101595501Y-126196693D02*
X101445501Y-126196693D01*
X101595300Y-131696762D02*
X101595300Y-131387914D01*
X101595300Y-131387914D02*
X101595300Y-131387914D01*
X101595300Y-131387914D02*
X101453879Y-131246493D01*
X101595300Y-130905072D02*
X101595300Y-130905072D01*
X101595300Y-130905072D02*
X101595300Y-130600514D01*
X101595300Y-130600514D02*
X101595300Y-130600514D01*
X101595300Y-130600514D02*
X101453879Y-130459093D01*
X101595300Y-130117672D02*
X101595300Y-130117672D01*
X101595300Y-130117672D02*
X101595300Y-129813114D01*
X101595300Y-129813114D02*
X101595300Y-129813114D01*
X101595300Y-129813114D02*
X101453879Y-129671693D01*
X101595300Y-129330272D02*
X101595300Y-129330272D01*
X101595300Y-129330272D02*
X101595300Y-129025714D01*
X101595300Y-129025714D02*
X101595300Y-129025714D01*
X101595300Y-129025714D02*
X101453879Y-128884293D01*
X101595300Y-128542872D02*
X101595300Y-128542872D01*
X101595300Y-128542872D02*
X101595300Y-128238314D01*
X101595300Y-128238314D02*
X101595300Y-128238314D01*
X101595300Y-128238314D02*
X101453879Y-128096893D01*
X101595300Y-127755472D02*
X101595300Y-127755472D01*
X101595300Y-127755472D02*
X101595300Y-127446624D01*
X101595300Y-127446624D02*
X101007900Y-127446624D01*
X101453879Y-131246493D02*
X101453879Y-131246493D01*
X101453879Y-131246493D02*
X101149321Y-131246493D01*
X101453879Y-131046493D02*
X101595300Y-130905072D01*
X101453879Y-131046493D02*
X101453879Y-131046493D01*
X101453879Y-130459093D02*
X101453879Y-130459093D01*
X101453879Y-130459093D02*
X101149321Y-130459093D01*
X101453879Y-130259093D02*
X101595300Y-130117672D01*
X101453879Y-130259093D02*
X101453879Y-130259093D01*
X101453879Y-129671693D02*
X101453879Y-129671693D01*
X101453879Y-129671693D02*
X101149321Y-129671693D01*
X101453879Y-129471693D02*
X101595300Y-129330272D01*
X101453879Y-129471693D02*
X101453879Y-129471693D01*
X101453879Y-128884293D02*
X101453879Y-128884293D01*
X101453879Y-128884293D02*
X101149321Y-128884293D01*
X101453879Y-128684293D02*
X101595300Y-128542872D01*
X101453879Y-128684293D02*
X101453879Y-128684293D01*
X101453879Y-128096893D02*
X101453879Y-128096893D01*
X101453879Y-128096893D02*
X101149321Y-128096893D01*
X101453879Y-127896893D02*
X101595300Y-127755472D01*
X101453879Y-127896893D02*
X101453879Y-127896893D01*
X101445501Y-126996692D02*
X101595501Y-126996692D01*
X101445501Y-126196693D02*
X101445501Y-126996692D01*
X101445499Y-132946693D02*
X101595501Y-132946693D01*
X101445499Y-132146694D02*
X101445499Y-132946693D01*
X101195499Y-132946693D02*
X101195499Y-132146694D01*
X101195499Y-132146694D02*
X101045499Y-132146694D01*
X101195499Y-126996692D02*
X101195499Y-126196693D01*
X101195499Y-126196693D02*
X101045499Y-126196693D01*
X101149321Y-131246493D02*
X101149321Y-131246493D01*
X101149321Y-131246493D02*
X101007900Y-131387914D01*
X101149321Y-131046493D02*
X101453879Y-131046493D01*
X101149321Y-131046493D02*
X101149321Y-131046493D01*
X101149321Y-130459093D02*
X101149321Y-130459093D01*
X101149321Y-130459093D02*
X101007900Y-130600514D01*
X101149321Y-130259093D02*
X101453879Y-130259093D01*
X101149321Y-130259093D02*
X101149321Y-130259093D01*
X101149321Y-129671693D02*
X101149321Y-129671693D01*
X101149321Y-129671693D02*
X101007900Y-129813114D01*
X101149321Y-129471693D02*
X101453879Y-129471693D01*
X101149321Y-129471693D02*
X101149321Y-129471693D01*
X101149321Y-128884293D02*
X101149321Y-128884293D01*
X101149321Y-128884293D02*
X101007900Y-129025714D01*
X101149321Y-128684293D02*
X101453879Y-128684293D01*
X101149321Y-128684293D02*
X101149321Y-128684293D01*
X101149321Y-128096893D02*
X101149321Y-128096893D01*
X101149321Y-128096893D02*
X101007900Y-128238314D01*
X101149321Y-127896893D02*
X101453879Y-127896893D01*
X101149321Y-127896893D02*
X101149321Y-127896893D01*
X101045499Y-132946693D02*
X101195499Y-132946693D01*
X101045499Y-132146694D02*
X101045499Y-132946693D01*
X101045499Y-126996692D02*
X101195499Y-126996692D01*
X101045499Y-126196693D02*
X101045499Y-126996692D01*
X101007900Y-131696762D02*
X101595300Y-131696762D01*
X101007900Y-131387914D02*
X101007900Y-131696762D01*
X101007900Y-131387914D02*
X101007900Y-131387914D01*
X101007900Y-130905072D02*
X101149321Y-131046493D01*
X101007900Y-130905072D02*
X101007900Y-130905072D01*
X101007900Y-130600514D02*
X101007900Y-130905072D01*
X101007900Y-130600514D02*
X101007900Y-130600514D01*
X101007900Y-130117672D02*
X101149321Y-130259093D01*
X101007900Y-130117672D02*
X101007900Y-130117672D01*
X101007900Y-129813114D02*
X101007900Y-130117672D01*
X101007900Y-129813114D02*
X101007900Y-129813114D01*
X101007900Y-129330272D02*
X101149321Y-129471693D01*
X101007900Y-129330272D02*
X101007900Y-129330272D01*
X101007900Y-129025714D02*
X101007900Y-129330272D01*
X101007900Y-129025714D02*
X101007900Y-129025714D01*
X101007900Y-128542872D02*
X101149321Y-128684293D01*
X101007900Y-128542872D02*
X101007900Y-128542872D01*
X101007900Y-128238314D02*
X101007900Y-128542872D01*
X101007900Y-128238314D02*
X101007900Y-128238314D01*
X101007900Y-127755472D02*
X101149321Y-127896893D01*
X101007900Y-127755472D02*
X101007900Y-127755472D01*
X101007900Y-127446624D02*
X101007900Y-127755472D01*
X100807900Y-131696762D02*
X100807900Y-131387914D01*
X100807900Y-131387914D02*
X100807900Y-131387914D01*
X100807900Y-131387914D02*
X100666479Y-131246493D01*
X100807900Y-130905072D02*
X100807900Y-130905072D01*
X100807900Y-130905072D02*
X100807900Y-130600514D01*
X100807900Y-130600514D02*
X100807900Y-130600514D01*
X100807900Y-130600514D02*
X100666479Y-130459093D01*
X100807900Y-130117672D02*
X100807900Y-130117672D01*
X100807900Y-130117672D02*
X100807900Y-129813114D01*
X100807900Y-129813114D02*
X100807900Y-129813114D01*
X100807900Y-129813114D02*
X100666479Y-129671693D01*
X100807900Y-129330272D02*
X100807900Y-129330272D01*
X100807900Y-129330272D02*
X100807900Y-129025714D01*
X100807900Y-129025714D02*
X100807900Y-129025714D01*
X100807900Y-129025714D02*
X100666479Y-128884293D01*
X100807900Y-128542872D02*
X100807900Y-128542872D01*
X100807900Y-128542872D02*
X100807900Y-128238314D01*
X100807900Y-128238314D02*
X100807900Y-128238314D01*
X100807900Y-128238314D02*
X100666479Y-128096893D01*
X100807900Y-127755472D02*
X100807900Y-127755472D01*
X100807900Y-127755472D02*
X100807900Y-127446624D01*
X100807900Y-127446624D02*
X100220500Y-127446624D01*
X100795500Y-132946693D02*
X100795500Y-132146694D01*
X100795500Y-132146694D02*
X100645500Y-132146694D01*
X100795500Y-126996692D02*
X100795500Y-126196693D01*
X100795500Y-126196693D02*
X100645500Y-126196693D01*
X100666479Y-131246493D02*
X100666479Y-131246493D01*
X100666479Y-131246493D02*
X100361921Y-131246493D01*
X100666479Y-131046493D02*
X100807900Y-130905072D01*
X100666479Y-131046493D02*
X100666479Y-131046493D01*
X100666479Y-130459093D02*
X100666479Y-130459093D01*
X100666479Y-130459093D02*
X100361921Y-130459093D01*
X100666479Y-130259093D02*
X100807900Y-130117672D01*
X100666479Y-130259093D02*
X100666479Y-130259093D01*
X100666479Y-129671693D02*
X100666479Y-129671693D01*
X100666479Y-129671693D02*
X100361921Y-129671693D01*
X100666479Y-129471693D02*
X100807900Y-129330272D01*
X100666479Y-129471693D02*
X100666479Y-129471693D01*
X100666479Y-128884293D02*
X100666479Y-128884293D01*
X100666479Y-128884293D02*
X100361921Y-128884293D01*
X100666479Y-128684293D02*
X100807900Y-128542872D01*
X100666479Y-128684293D02*
X100666479Y-128684293D01*
X100666479Y-128096893D02*
X100666479Y-128096893D01*
X100666479Y-128096893D02*
X100361921Y-128096893D01*
X100666479Y-127896893D02*
X100807900Y-127755472D01*
X100666479Y-127896893D02*
X100666479Y-127896893D01*
X100645500Y-132946693D02*
X100795500Y-132946693D01*
X100645500Y-132146694D02*
X100645500Y-132946693D01*
X100645500Y-126996692D02*
X100795500Y-126996692D01*
X100645500Y-126196693D02*
X100645500Y-126996692D01*
X100395501Y-132946693D02*
X100395501Y-132146694D01*
X100395501Y-132146694D02*
X100245501Y-132146694D01*
X100395501Y-126996692D02*
X100395501Y-126196693D01*
X100395501Y-126196693D02*
X100245501Y-126196693D01*
X100361921Y-131246493D02*
X100361921Y-131246493D01*
X100361921Y-131246493D02*
X100220500Y-131387914D01*
X100361921Y-131046493D02*
X100666479Y-131046493D01*
X100361921Y-131046493D02*
X100361921Y-131046493D01*
X100361921Y-130459093D02*
X100361921Y-130459093D01*
X100361921Y-130459093D02*
X100220500Y-130600514D01*
X100361921Y-130259093D02*
X100666479Y-130259093D01*
X100361921Y-130259093D02*
X100361921Y-130259093D01*
X100361921Y-129671693D02*
X100361921Y-129671693D01*
X100361921Y-129671693D02*
X100220500Y-129813114D01*
X100361921Y-129471693D02*
X100666479Y-129471693D01*
X100361921Y-129471693D02*
X100361921Y-129471693D01*
X100361921Y-128884293D02*
X100361921Y-128884293D01*
X100361921Y-128884293D02*
X100220500Y-129025714D01*
X100361921Y-128684293D02*
X100666479Y-128684293D01*
X100361921Y-128684293D02*
X100361921Y-128684293D01*
X100361921Y-128096893D02*
X100361921Y-128096893D01*
X100361921Y-128096893D02*
X100220500Y-128238314D01*
X100361921Y-127896893D02*
X100666479Y-127896893D01*
X100361921Y-127896893D02*
X100361921Y-127896893D01*
X100245501Y-132946693D02*
X100395501Y-132946693D01*
X100245501Y-132146694D02*
X100245501Y-132946693D01*
X100245501Y-126996692D02*
X100395501Y-126996692D01*
X100245501Y-126196693D02*
X100245501Y-126996692D01*
X100220500Y-131696762D02*
X100807900Y-131696762D01*
X100220500Y-131387914D02*
X100220500Y-131696762D01*
X100220500Y-131387914D02*
X100220500Y-131387914D01*
X100220500Y-130905072D02*
X100361921Y-131046493D01*
X100220500Y-130905072D02*
X100220500Y-130905072D01*
X100220500Y-130600514D02*
X100220500Y-130905072D01*
X100220500Y-130600514D02*
X100220500Y-130600514D01*
X100220500Y-130117672D02*
X100361921Y-130259093D01*
X100220500Y-130117672D02*
X100220500Y-130117672D01*
X100220500Y-129813114D02*
X100220500Y-130117672D01*
X100220500Y-129813114D02*
X100220500Y-129813114D01*
X100220500Y-129330272D02*
X100361921Y-129471693D01*
X100220500Y-129330272D02*
X100220500Y-129330272D01*
X100220500Y-129025714D02*
X100220500Y-129330272D01*
X100220500Y-129025714D02*
X100220500Y-129025714D01*
X100220500Y-128542872D02*
X100361921Y-128684293D01*
X100220500Y-128542872D02*
X100220500Y-128542872D01*
X100220500Y-128238314D02*
X100220500Y-128542872D01*
X100220500Y-128238314D02*
X100220500Y-128238314D01*
X100220500Y-127755472D02*
X100361921Y-127896893D01*
X100220500Y-127755472D02*
X100220500Y-127755472D01*
X100220500Y-127446624D02*
X100220500Y-127755472D01*
X100020500Y-131696762D02*
X100020500Y-131387914D01*
X100020500Y-131387914D02*
X100020500Y-131387914D01*
X100020500Y-131387914D02*
X99879079Y-131246493D01*
X100020500Y-130905072D02*
X100020500Y-130905072D01*
X100020500Y-130905072D02*
X100020500Y-130600514D01*
X100020500Y-130600514D02*
X100020500Y-130600514D01*
X100020500Y-130600514D02*
X99879079Y-130459093D01*
X100020500Y-130117672D02*
X100020500Y-130117672D01*
X100020500Y-130117672D02*
X100020500Y-129813114D01*
X100020500Y-129813114D02*
X100020500Y-129813114D01*
X100020500Y-129813114D02*
X99879079Y-129671693D01*
X100020500Y-129330272D02*
X100020500Y-129330272D01*
X100020500Y-129330272D02*
X100020500Y-129025714D01*
X100020500Y-129025714D02*
X100020500Y-129025714D01*
X100020500Y-129025714D02*
X99879079Y-128884293D01*
X100020500Y-128542872D02*
X100020500Y-128542872D01*
X100020500Y-128542872D02*
X100020500Y-128238314D01*
X100020500Y-128238314D02*
X100020500Y-128238314D01*
X100020500Y-128238314D02*
X99879079Y-128096893D01*
X100020500Y-127755472D02*
X100020500Y-127755472D01*
X100020500Y-127755472D02*
X100020500Y-127446624D01*
X100020500Y-127446624D02*
X99433100Y-127446624D01*
X99995499Y-132946693D02*
X99995499Y-132146694D01*
X99995499Y-132146694D02*
X99845499Y-132146694D01*
X99995499Y-126996692D02*
X99995499Y-126196693D01*
X99995499Y-126196693D02*
X99845499Y-126196693D01*
X99879079Y-131246493D02*
X99879079Y-131246493D01*
X99879079Y-131246493D02*
X99574521Y-131246493D01*
X99879079Y-131046493D02*
X100020500Y-130905072D01*
X99879079Y-131046493D02*
X99879079Y-131046493D01*
X99879079Y-130459093D02*
X99879079Y-130459093D01*
X99879079Y-130459093D02*
X99574521Y-130459093D01*
X99879079Y-130259093D02*
X100020500Y-130117672D01*
X99879079Y-130259093D02*
X99879079Y-130259093D01*
X99879079Y-129671693D02*
X99879079Y-129671693D01*
X99879079Y-129671693D02*
X99574521Y-129671693D01*
X99879079Y-129471693D02*
X100020500Y-129330272D01*
X99879079Y-129471693D02*
X99879079Y-129471693D01*
X99879079Y-128884293D02*
X99879079Y-128884293D01*
X99879079Y-128884293D02*
X99574521Y-128884293D01*
X99879079Y-128684293D02*
X100020500Y-128542872D01*
X99879079Y-128684293D02*
X99879079Y-128684293D01*
X99879079Y-128096893D02*
X99879079Y-128096893D01*
X99879079Y-128096893D02*
X99574521Y-128096893D01*
X99879079Y-127896893D02*
X100020500Y-127755472D01*
X99879079Y-127896893D02*
X99879079Y-127896893D01*
X99845499Y-132946693D02*
X99995499Y-132946693D01*
X99845499Y-132146694D02*
X99845499Y-132946693D01*
X99845499Y-126996692D02*
X99995499Y-126996692D01*
X99845499Y-126196693D02*
X99845499Y-126996692D01*
X99595500Y-132946693D02*
X99595500Y-132146694D01*
X99595500Y-132146694D02*
X99445500Y-132146694D01*
X99595500Y-126996692D02*
X99595500Y-126196693D01*
X99595500Y-126196693D02*
X99445500Y-126196693D01*
X99574521Y-131246493D02*
X99574521Y-131246493D01*
X99574521Y-131246493D02*
X99433100Y-131387914D01*
X99574521Y-131046493D02*
X99879079Y-131046493D01*
X99574521Y-131046493D02*
X99574521Y-131046493D01*
X99574521Y-130459093D02*
X99574521Y-130459093D01*
X99574521Y-130459093D02*
X99433100Y-130600514D01*
X99574521Y-130259093D02*
X99879079Y-130259093D01*
X99574521Y-130259093D02*
X99574521Y-130259093D01*
X99574521Y-129671693D02*
X99574521Y-129671693D01*
X99574521Y-129671693D02*
X99433100Y-129813114D01*
X99574521Y-129471693D02*
X99879079Y-129471693D01*
X99574521Y-129471693D02*
X99574521Y-129471693D01*
X99574521Y-128884293D02*
X99574521Y-128884293D01*
X99574521Y-128884293D02*
X99433100Y-129025714D01*
X99574521Y-128684293D02*
X99879079Y-128684293D01*
X99574521Y-128684293D02*
X99574521Y-128684293D01*
X99574521Y-128096893D02*
X99574521Y-128096893D01*
X99574521Y-128096893D02*
X99433100Y-128238314D01*
X99574521Y-127896893D02*
X99879079Y-127896893D01*
X99574521Y-127896893D02*
X99574521Y-127896893D01*
X99445500Y-132946693D02*
X99595500Y-132946693D01*
X99445500Y-132146694D02*
X99445500Y-132946693D01*
X99445500Y-126996692D02*
X99595500Y-126996692D01*
X99445500Y-126196693D02*
X99445500Y-126996692D01*
X99433100Y-131696762D02*
X100020500Y-131696762D01*
X99433100Y-131387914D02*
X99433100Y-131696762D01*
X99433100Y-131387914D02*
X99433100Y-131387914D01*
X99433100Y-130905072D02*
X99574521Y-131046493D01*
X99433100Y-130905072D02*
X99433100Y-130905072D01*
X99433100Y-130600514D02*
X99433100Y-130905072D01*
X99433100Y-130600514D02*
X99433100Y-130600514D01*
X99433100Y-130117672D02*
X99574521Y-130259093D01*
X99433100Y-130117672D02*
X99433100Y-130117672D01*
X99433100Y-129813114D02*
X99433100Y-130117672D01*
X99433100Y-129813114D02*
X99433100Y-129813114D01*
X99433100Y-129330272D02*
X99574521Y-129471693D01*
X99433100Y-129330272D02*
X99433100Y-129330272D01*
X99433100Y-129025714D02*
X99433100Y-129330272D01*
X99433100Y-129025714D02*
X99433100Y-129025714D01*
X99433100Y-128542872D02*
X99574521Y-128684293D01*
X99433100Y-128542872D02*
X99433100Y-128542872D01*
X99433100Y-128238314D02*
X99433100Y-128542872D01*
X99433100Y-128238314D02*
X99433100Y-128238314D01*
X99433100Y-127755472D02*
X99574521Y-127896893D01*
X99433100Y-127755472D02*
X99433100Y-127755472D01*
X99433100Y-127446624D02*
X99433100Y-127755472D01*
X99233100Y-131696762D02*
X99233100Y-131387914D01*
X99233100Y-131387914D02*
X99233100Y-131387914D01*
X99233100Y-131387914D02*
X99091679Y-131246493D01*
X99233100Y-130905072D02*
X99233100Y-130905072D01*
X99233100Y-130905072D02*
X99233100Y-130600514D01*
X99233100Y-130600514D02*
X99233100Y-130600514D01*
X99233100Y-130600514D02*
X99091679Y-130459093D01*
X99233100Y-130117672D02*
X99233100Y-130117672D01*
X99233100Y-130117672D02*
X99233100Y-129813114D01*
X99233100Y-129813114D02*
X99233100Y-129813114D01*
X99233100Y-129813114D02*
X99091679Y-129671693D01*
X99233100Y-129330272D02*
X99233100Y-129330272D01*
X99233100Y-129330272D02*
X99233100Y-129025714D01*
X99233100Y-129025714D02*
X99233100Y-129025714D01*
X99233100Y-129025714D02*
X99091679Y-128884293D01*
X99233100Y-128542872D02*
X99233100Y-128542872D01*
X99233100Y-128542872D02*
X99233100Y-128238314D01*
X99233100Y-128238314D02*
X99233100Y-128238314D01*
X99233100Y-128238314D02*
X99091679Y-128096893D01*
X99233100Y-127755472D02*
X99233100Y-127755472D01*
X99233100Y-127755472D02*
X99233100Y-127446624D01*
X99233100Y-127446624D02*
X98645700Y-127446624D01*
X99195501Y-132946693D02*
X99195501Y-132146694D01*
X99195501Y-132146694D02*
X99045501Y-132146694D01*
X99195501Y-126996692D02*
X99195501Y-126196693D01*
X99195501Y-126196693D02*
X99045501Y-126196693D01*
X99091679Y-131246493D02*
X99091679Y-131246493D01*
X99091679Y-131246493D02*
X98787121Y-131246493D01*
X99091679Y-131046493D02*
X99233100Y-130905072D01*
X99091679Y-131046493D02*
X99091679Y-131046493D01*
X99091679Y-130459093D02*
X99091679Y-130459093D01*
X99091679Y-130459093D02*
X98787121Y-130459093D01*
X99091679Y-130259093D02*
X99233100Y-130117672D01*
X99091679Y-130259093D02*
X99091679Y-130259093D01*
X99091679Y-129671693D02*
X99091679Y-129671693D01*
X99091679Y-129671693D02*
X98787121Y-129671693D01*
X99091679Y-129471693D02*
X99233100Y-129330272D01*
X99091679Y-129471693D02*
X99091679Y-129471693D01*
X99091679Y-128884293D02*
X99091679Y-128884293D01*
X99091679Y-128884293D02*
X98787121Y-128884293D01*
X99091679Y-128684293D02*
X99233100Y-128542872D01*
X99091679Y-128684293D02*
X99091679Y-128684293D01*
X99091679Y-128096893D02*
X99091679Y-128096893D01*
X99091679Y-128096893D02*
X98787121Y-128096893D01*
X99091679Y-127896893D02*
X99233100Y-127755472D01*
X99091679Y-127896893D02*
X99091679Y-127896893D01*
X99045501Y-132946693D02*
X99195501Y-132946693D01*
X99045501Y-132146694D02*
X99045501Y-132946693D01*
X99045501Y-126996692D02*
X99195501Y-126996692D01*
X99045501Y-126196693D02*
X99045501Y-126996692D01*
X98795501Y-126996692D02*
X98795501Y-126196693D01*
X98795501Y-126196693D02*
X98645499Y-126196693D01*
X98795499Y-132946693D02*
X98795499Y-132146694D01*
X98795499Y-132146694D02*
X98645499Y-132146694D01*
X98787121Y-131246493D02*
X98787121Y-131246493D01*
X98787121Y-131246493D02*
X98645700Y-131387914D01*
X98787121Y-131046493D02*
X99091679Y-131046493D01*
X98787121Y-131046493D02*
X98787121Y-131046493D01*
X98787121Y-130459093D02*
X98787121Y-130459093D01*
X98787121Y-130459093D02*
X98645700Y-130600514D01*
X98787121Y-130259093D02*
X99091679Y-130259093D01*
X98787121Y-130259093D02*
X98787121Y-130259093D01*
X98787121Y-129671693D02*
X98787121Y-129671693D01*
X98787121Y-129671693D02*
X98645700Y-129813114D01*
X98787121Y-129471693D02*
X99091679Y-129471693D01*
X98787121Y-129471693D02*
X98787121Y-129471693D01*
X98787121Y-128884293D02*
X98787121Y-128884293D01*
X98787121Y-128884293D02*
X98645700Y-129025714D01*
X98787121Y-128684293D02*
X99091679Y-128684293D01*
X98787121Y-128684293D02*
X98787121Y-128684293D01*
X98787121Y-128096893D02*
X98787121Y-128096893D01*
X98787121Y-128096893D02*
X98645700Y-128238314D01*
X98787121Y-127896893D02*
X99091679Y-127896893D01*
X98787121Y-127896893D02*
X98787121Y-127896893D01*
X98645700Y-131696762D02*
X99233100Y-131696762D01*
X98645700Y-131387914D02*
X98645700Y-131696762D01*
X98645700Y-131387914D02*
X98645700Y-131387914D01*
X98645700Y-130905072D02*
X98787121Y-131046493D01*
X98645700Y-130905072D02*
X98645700Y-130905072D01*
X98645700Y-130600514D02*
X98645700Y-130905072D01*
X98645700Y-130600514D02*
X98645700Y-130600514D01*
X98645700Y-130117672D02*
X98787121Y-130259093D01*
X98645700Y-130117672D02*
X98645700Y-130117672D01*
X98645700Y-129813114D02*
X98645700Y-130117672D01*
X98645700Y-129813114D02*
X98645700Y-129813114D01*
X98645700Y-129330272D02*
X98787121Y-129471693D01*
X98645700Y-129330272D02*
X98645700Y-129330272D01*
X98645700Y-129025714D02*
X98645700Y-129330272D01*
X98645700Y-129025714D02*
X98645700Y-129025714D01*
X98645700Y-128542872D02*
X98787121Y-128684293D01*
X98645700Y-128542872D02*
X98645700Y-128542872D01*
X98645700Y-128238314D02*
X98645700Y-128542872D01*
X98645700Y-128238314D02*
X98645700Y-128238314D01*
X98645700Y-127755472D02*
X98787121Y-127896893D01*
X98645700Y-127755472D02*
X98645700Y-127755472D01*
X98645700Y-127446624D02*
X98645700Y-127755472D01*
X98645499Y-132946693D02*
X98795499Y-132946693D01*
X98645499Y-132146694D02*
X98645499Y-132946693D01*
X98645499Y-126996692D02*
X98795501Y-126996692D01*
X98645499Y-126196693D02*
X98645499Y-126996692D01*
X98445700Y-131696762D02*
X98445700Y-131387914D01*
X98445700Y-131387914D02*
X98445700Y-131387914D01*
X98445700Y-131387914D02*
X98304279Y-131246493D01*
X98445700Y-130905072D02*
X98445700Y-130905072D01*
X98445700Y-130905072D02*
X98445700Y-130600514D01*
X98445700Y-130600514D02*
X98445700Y-130600514D01*
X98445700Y-130600514D02*
X98304279Y-130459093D01*
X98445700Y-130117672D02*
X98445700Y-130117672D01*
X98445700Y-130117672D02*
X98445700Y-129813114D01*
X98445700Y-129813114D02*
X98445700Y-129813114D01*
X98445700Y-129813114D02*
X98304279Y-129671693D01*
X98445700Y-129330272D02*
X98445700Y-129330272D01*
X98445700Y-129330272D02*
X98445700Y-129025714D01*
X98445700Y-129025714D02*
X98445700Y-129025714D01*
X98445700Y-129025714D02*
X98304279Y-128884293D01*
X98445700Y-128542872D02*
X98445700Y-128542872D01*
X98445700Y-128542872D02*
X98445700Y-128238314D01*
X98445700Y-128238314D02*
X98445700Y-128238314D01*
X98445700Y-128238314D02*
X98304279Y-128096893D01*
X98445700Y-127755472D02*
X98445700Y-127755472D01*
X98445700Y-127755472D02*
X98445700Y-127446624D01*
X98445700Y-127446624D02*
X97995431Y-127446624D01*
X98395500Y-132946693D02*
X98395500Y-132146694D01*
X98395500Y-132146694D02*
X98245500Y-132146694D01*
X98395500Y-126996692D02*
X98395500Y-126196693D01*
X98395500Y-126196693D02*
X98245500Y-126196693D01*
X98304279Y-131246493D02*
X98304279Y-131246493D01*
X98304279Y-131246493D02*
X97995431Y-131246493D01*
X98304279Y-131046493D02*
X98445700Y-130905072D01*
X98304279Y-131046493D02*
X98304279Y-131046493D01*
X98304279Y-130459093D02*
X98304279Y-130459093D01*
X98304279Y-130459093D02*
X97995431Y-130459093D01*
X98304279Y-130259093D02*
X98445700Y-130117672D01*
X98304279Y-130259093D02*
X98304279Y-130259093D01*
X98304279Y-129671693D02*
X98304279Y-129671693D01*
X98304279Y-129671693D02*
X97995431Y-129671693D01*
X98304279Y-129471693D02*
X98445700Y-129330272D01*
X98304279Y-129471693D02*
X98304279Y-129471693D01*
X98304279Y-128884293D02*
X98304279Y-128884293D01*
X98304279Y-128884293D02*
X97995431Y-128884293D01*
X98304279Y-128684293D02*
X98445700Y-128542872D01*
X98304279Y-128684293D02*
X98304279Y-128684293D01*
X98304279Y-128096893D02*
X98304279Y-128096893D01*
X98304279Y-128096893D02*
X97995431Y-128096893D01*
X98304279Y-127896893D02*
X98445700Y-127755472D01*
X98304279Y-127896893D02*
X98304279Y-127896893D01*
X98245500Y-132946693D02*
X98395500Y-132946693D01*
X98245500Y-132146694D02*
X98245500Y-132946693D01*
X98245500Y-126996692D02*
X98395500Y-126996692D01*
X98245500Y-126196693D02*
X98245500Y-126996692D01*
X97995500Y-132946693D02*
X97995500Y-132146694D01*
X97995500Y-132146694D02*
X97845501Y-132146694D01*
X97995500Y-126996692D02*
X97995500Y-126196693D01*
X97995500Y-126196693D02*
X97845501Y-126196693D01*
X97995431Y-131696762D02*
X98445700Y-131696762D01*
X97995431Y-131246493D02*
X97995431Y-131696762D01*
X97995431Y-131046493D02*
X98304279Y-131046493D01*
X97995431Y-130459093D02*
X97995431Y-131046493D01*
X97995431Y-130259093D02*
X98304279Y-130259093D01*
X97995431Y-129671693D02*
X97995431Y-130259093D01*
X97995431Y-129471693D02*
X98304279Y-129471693D01*
X97995431Y-128884293D02*
X97995431Y-129471693D01*
X97995431Y-128684293D02*
X98304279Y-128684293D01*
X97995431Y-128096893D02*
X97995431Y-128684293D01*
X97995431Y-127896893D02*
X98304279Y-127896893D01*
X97995431Y-127446624D02*
X97995431Y-127896893D01*
X97845501Y-132946693D02*
X97995500Y-132946693D01*
X97845501Y-132146694D02*
X97845501Y-132946693D01*
X97845501Y-126996692D02*
X97995500Y-126996692D01*
X97845501Y-126196693D02*
X97845501Y-126996692D01*
X97545499Y-131846692D02*
X97545499Y-131696693D01*
X97545499Y-131696693D02*
X96745500Y-131696693D01*
X97545499Y-131446693D02*
X97545499Y-131296693D01*
X97545499Y-131296693D02*
X96745500Y-131296693D01*
X97545499Y-131046694D02*
X97545499Y-130896692D01*
X97545499Y-130896692D02*
X96745500Y-130896692D01*
X97545499Y-130646692D02*
X97545499Y-130496692D01*
X97545499Y-130496692D02*
X96745500Y-130496692D01*
X97545499Y-130246693D02*
X97545499Y-130096693D01*
X97545499Y-130096693D02*
X96745500Y-130096693D01*
X97545499Y-129846694D02*
X97545499Y-129696694D01*
X97545499Y-129696694D02*
X96745500Y-129696694D01*
X97545499Y-129446692D02*
X97545499Y-129296692D01*
X97545499Y-129296692D02*
X96745500Y-129296692D01*
X97545499Y-129046693D02*
X97545499Y-128896693D01*
X97545499Y-128896693D02*
X96745500Y-128896693D01*
X97545499Y-128646694D02*
X97545499Y-128496694D01*
X97545499Y-128496694D02*
X96745500Y-128496694D01*
X97545499Y-128246692D02*
X97545499Y-128096692D01*
X97545499Y-128096692D02*
X96745500Y-128096692D01*
X97545499Y-127846693D02*
X97545499Y-127696693D01*
X97545499Y-127696693D02*
X96745500Y-127696693D01*
X97545499Y-127446693D02*
X97545499Y-127296694D01*
X97545499Y-127296694D02*
X96745500Y-127296694D01*
X96745500Y-131846692D02*
X97545499Y-131846692D01*
X96745500Y-131696693D02*
X96745500Y-131846692D01*
X96745500Y-131446693D02*
X97545499Y-131446693D01*
X96745500Y-131296693D02*
X96745500Y-131446693D01*
X96745500Y-131046694D02*
X97545499Y-131046694D01*
X96745500Y-130896692D02*
X96745500Y-131046694D01*
X96745500Y-130646692D02*
X97545499Y-130646692D01*
X96745500Y-130496692D02*
X96745500Y-130646692D01*
X96745500Y-130246693D02*
X97545499Y-130246693D01*
X96745500Y-130096693D02*
X96745500Y-130246693D01*
X96745500Y-129846694D02*
X97545499Y-129846694D01*
X96745500Y-129696694D02*
X96745500Y-129846694D01*
X96745500Y-129446692D02*
X97545499Y-129446692D01*
X96745500Y-129296692D02*
X96745500Y-129446692D01*
X96745500Y-129046693D02*
X97545499Y-129046693D01*
X96745500Y-128896693D02*
X96745500Y-129046693D01*
X96745500Y-128646694D02*
X97545499Y-128646694D01*
X96745500Y-128496694D02*
X96745500Y-128646694D01*
X96745500Y-128246692D02*
X97545499Y-128246692D01*
X96745500Y-128096692D02*
X96745500Y-128246692D01*
X96745500Y-127846693D02*
X97545499Y-127846693D01*
X96745500Y-127696693D02*
X96745500Y-127846693D01*
X96745500Y-127446693D02*
X97545499Y-127446693D01*
X96745500Y-127296694D02*
X96745500Y-127446693D01*
D11*
X108171500Y-108443693D03*
X109821500Y-108443693D03*
D12*
X85946500Y-106506193D03*
X87846500Y-106506193D03*
X86896500Y-104631193D03*
D13*
X85996500Y-108243693D03*
X85996500Y-109893693D03*
D14*
X87596500Y-109893693D03*
X87596500Y-108243693D03*
D15*
X87746500Y-111606193D03*
X85846500Y-111606193D03*
X86796500Y-113481193D03*
D16*
X114796500Y-130143693D03*
X112896500Y-130143693D03*
D17*
X69696500Y-139143693D03*
X69696500Y-141043693D03*
D18*
X74554500Y-143005693D03*
X74554500Y-144880693D03*
D13*
X72246500Y-139518693D03*
X72246500Y-141168693D03*
X74554500Y-139518693D03*
X74554500Y-141168693D03*
D18*
X72141500Y-143005693D03*
X72141500Y-144880693D03*
D19*
X148296500Y-144193693D03*
X148296500Y-142293693D03*
X69696500Y-144843693D03*
X69696500Y-142943693D03*
D16*
X109706500Y-135413693D03*
X107806500Y-135413693D03*
D19*
X166690000Y-132880000D03*
X166690000Y-130980000D03*
D20*
X194955000Y-130750000D03*
X194955000Y-127800000D03*
D21*
X170062000Y-124520000D03*
X171962000Y-124520000D03*
D22*
X172890000Y-116490000D03*
X175840000Y-116490000D03*
D21*
X194030000Y-117880000D03*
X195930000Y-117880000D03*
D23*
X95321500Y-106743693D03*
X93671500Y-106743693D03*
D14*
X107177700Y-140015293D03*
X107177700Y-138365293D03*
X196955000Y-130100000D03*
X196955000Y-128450000D03*
D11*
X170365000Y-122590000D03*
X172015000Y-122590000D03*
X172840000Y-118690000D03*
X174490000Y-118690000D03*
X194405000Y-115848000D03*
X196055000Y-115848000D03*
D13*
X109209700Y-138365293D03*
X109209700Y-140015293D03*
D24*
X105321500Y-106443693D03*
X104671500Y-106443693D03*
X104021500Y-106443693D03*
X103371500Y-106443693D03*
X102721500Y-106443693D03*
X102071500Y-106443693D03*
X101421500Y-106443693D03*
X100771500Y-106443693D03*
X100121500Y-106443693D03*
X99471500Y-106443693D03*
X98821500Y-106443693D03*
X98171500Y-106443693D03*
X98171500Y-112168693D03*
X98821500Y-112168693D03*
X99471500Y-112168693D03*
X100121500Y-112168693D03*
X100771500Y-112168693D03*
X101421500Y-112168693D03*
X102071500Y-112168693D03*
X102721500Y-112168693D03*
X103371500Y-112168693D03*
X104021500Y-112168693D03*
X104671500Y-112168693D03*
X105321500Y-112168693D03*
D17*
X106216500Y-120239693D03*
X106216500Y-122139693D03*
D25*
X150596500Y-140081193D03*
X150596500Y-137006193D03*
D21*
X107806500Y-123983693D03*
X109706500Y-123983693D03*
D23*
X88753500Y-129825693D03*
X87103500Y-129825693D03*
D26*
X95802500Y-140996693D03*
X95802500Y-137196693D03*
D27*
X92754500Y-122677693D03*
X92754500Y-118177693D03*
D23*
X85451500Y-132111693D03*
X83801500Y-132111693D03*
X88753500Y-132111693D03*
X87103500Y-132111693D03*
X85451500Y-129825693D03*
X83801500Y-129825693D03*
D19*
X99358500Y-143602693D03*
X99358500Y-141702693D03*
X104184500Y-138649693D03*
X104184500Y-136749693D03*
D16*
X92434500Y-128809693D03*
X90534500Y-128809693D03*
D21*
X90534500Y-131603693D03*
X92434500Y-131603693D03*
D17*
X147796500Y-137793693D03*
X147796500Y-139693693D03*
D28*
X103095500Y-131771694D03*
X103095500Y-131371692D03*
X103095500Y-130971693D03*
X103095500Y-130571694D03*
X103095500Y-130171692D03*
X103095500Y-129771693D03*
X103095500Y-129371693D03*
X103095500Y-128971694D03*
X103095500Y-128571692D03*
X103095500Y-128171693D03*
X103095500Y-127771694D03*
X103095500Y-127371692D03*
D29*
X102320501Y-126596693D03*
X101920499Y-126596693D03*
X101520500Y-126596693D03*
X101120501Y-126596693D03*
X100720499Y-126596693D03*
X100320500Y-126596693D03*
X99920500Y-126596693D03*
X99520501Y-126596693D03*
X99120499Y-126596693D03*
X98720500Y-126596693D03*
X98320501Y-126596693D03*
X97920499Y-126596693D03*
D28*
X97145500Y-127371692D03*
X97145500Y-127771694D03*
X97145500Y-128171693D03*
X97145500Y-128571692D03*
X97145500Y-128971694D03*
X97145500Y-129371693D03*
X97145500Y-129771693D03*
X97145500Y-130171692D03*
X97145500Y-130571694D03*
X97145500Y-130971693D03*
X97145500Y-131371692D03*
X97145500Y-131771694D03*
D29*
X97920499Y-132546693D03*
X98320501Y-132546693D03*
X98720500Y-132546693D03*
X99120499Y-132546693D03*
X99520501Y-132546693D03*
X99920500Y-132546693D03*
X100320500Y-132546693D03*
X100720499Y-132546693D03*
X101120501Y-132546693D03*
X101520500Y-132546693D03*
X101920499Y-132546693D03*
X102320501Y-132546693D03*
D30*
X100120500Y-129571693D03*
D16*
X109706500Y-133127693D03*
X107806500Y-133127693D03*
D19*
X96818500Y-123155693D03*
X96818500Y-121255693D03*
D16*
X109706500Y-126269693D03*
X107806500Y-126269693D03*
D31*
X85896500Y-134017693D03*
X85896500Y-137317693D03*
D32*
X88436500Y-137317693D03*
X88436500Y-134017693D03*
D31*
X85896500Y-124873693D03*
X85896500Y-128173693D03*
D32*
X88436500Y-128173693D03*
X88436500Y-124873693D03*
D21*
X81644500Y-127793693D03*
X83544500Y-127793693D03*
D19*
X101644500Y-122139693D03*
X101644500Y-120239693D03*
D21*
X107806500Y-130841693D03*
X109706500Y-130841693D03*
X90534500Y-126396693D03*
X92434500Y-126396693D03*
D19*
X103930500Y-122139693D03*
X103930500Y-120239693D03*
D21*
X90534500Y-134016693D03*
X92434500Y-134016693D03*
D16*
X83544500Y-134143693D03*
X81644500Y-134143693D03*
X109706500Y-128568393D03*
X107806500Y-128568393D03*
D19*
X102025500Y-138649693D03*
X102025500Y-136749693D03*
D32*
X99485500Y-139984693D03*
X99485500Y-136684693D03*
D21*
X112946500Y-123243693D03*
X114846500Y-123243693D03*
X186280000Y-114330000D03*
X188180000Y-114330000D03*
D11*
X186630000Y-112430000D03*
X188280000Y-112430000D03*
D31*
X99358500Y-119031693D03*
X99358500Y-122331693D03*
D13*
X67717500Y-143018693D03*
X67717500Y-144668693D03*
X67717500Y-139744693D03*
X67717500Y-141394693D03*
D17*
X86846500Y-118393693D03*
X86846500Y-120293693D03*
D19*
X91738500Y-138649693D03*
X91738500Y-136749693D03*
D21*
X108046500Y-113943693D03*
X109946500Y-113943693D03*
D13*
X145796500Y-138118693D03*
X145796500Y-139768693D03*
D23*
X109821500Y-111943693D03*
X108171500Y-111943693D03*
X109821500Y-110143693D03*
X108171500Y-110143693D03*
D11*
X93671500Y-109943693D03*
X95321500Y-109943693D03*
X93671500Y-108343693D03*
X95321500Y-108343693D03*
D33*
X72401500Y-130784693D03*
X71131500Y-130784693D03*
X69861500Y-130784693D03*
X68591500Y-130784693D03*
X68591500Y-136184693D03*
X69861500Y-136184693D03*
X71131500Y-136184693D03*
X72401500Y-136184693D03*
D34*
X70496500Y-133484693D03*
D32*
X70796500Y-126193693D03*
X70796500Y-122893693D03*
D23*
X72271500Y-128493693D03*
X70621500Y-128493693D03*
D35*
X191780000Y-52960000D03*
X188380000Y-52960000D03*
X191780000Y-52560000D03*
X188380000Y-52560000D03*
X191780000Y-52160000D03*
X188380000Y-52160000D03*
X191780000Y-51760000D03*
X188380000Y-51760000D03*
X191780000Y-51360000D03*
X188380000Y-51360000D03*
D36*
X191580000Y-53910000D03*
X188580000Y-53910000D03*
X188580000Y-50410000D03*
X191580000Y-50410000D03*
D37*
X78434000Y-123093693D03*
X78434000Y-121193693D03*
X76159000Y-122143693D03*
D38*
X72646500Y-111806193D03*
D39*
X72571500Y-112343693D03*
D38*
X72646500Y-112881193D03*
X74346500Y-112881193D03*
D39*
X74421500Y-112343693D03*
D38*
X74346500Y-111806193D03*
D21*
X72546500Y-115843693D03*
X74446500Y-115843693D03*
D40*
X160025150Y-98340000D03*
X163974850Y-98340000D03*
D41*
X174700000Y-123710000D03*
X195200000Y-123710000D03*
D42*
X176700000Y-120710000D03*
X177200000Y-120710000D03*
X177700000Y-120710000D03*
X178200000Y-120710000D03*
X178700000Y-120710000D03*
X179200000Y-120710000D03*
X179700000Y-120710000D03*
X180200000Y-120710000D03*
X180700000Y-120710000D03*
X181200000Y-120710000D03*
X181700000Y-120710000D03*
X182200000Y-120710000D03*
X182700000Y-120710000D03*
X183200000Y-120710000D03*
X183700000Y-120710000D03*
X184200000Y-120710000D03*
X184700000Y-120710000D03*
X185200000Y-120710000D03*
X185700000Y-120710000D03*
X186200000Y-120710000D03*
X186700000Y-120710000D03*
X187200000Y-120710000D03*
X187700000Y-120710000D03*
X188200000Y-120710000D03*
X188700000Y-120710000D03*
X189200000Y-120710000D03*
X189700000Y-120710000D03*
X190200000Y-120710000D03*
X190700000Y-120710000D03*
X191200000Y-120710000D03*
X191700000Y-120710000D03*
X192200000Y-120710000D03*
X192700000Y-120710000D03*
X193200000Y-120710000D03*
D43*
X66109000Y-124843693D03*
X66109000Y-126743693D03*
X67984000Y-125793693D03*
D14*
X164670000Y-92425000D03*
X164670000Y-90775000D03*
D17*
X123396500Y-104393693D03*
X123396500Y-106293693D03*
D44*
X175810000Y-92700000D03*
X175810000Y-91750000D03*
X175810000Y-90800000D03*
X173510000Y-90800000D03*
X173510000Y-91750000D03*
X173510000Y-92700000D03*
D45*
X144899496Y-70240000D03*
X145399622Y-70240000D03*
X145899748Y-70240000D03*
X146399874Y-70240000D03*
X146900000Y-70240000D03*
X147400126Y-70240000D03*
X147900252Y-70240000D03*
X148400378Y-70240000D03*
D46*
X149399937Y-67780000D03*
X143899937Y-67780000D03*
D47*
X122151500Y-109468693D03*
X120881500Y-109468693D03*
X119611500Y-109468693D03*
X118341500Y-109468693D03*
X118341500Y-114418693D03*
X119611500Y-114418693D03*
X120881500Y-114418693D03*
X122151500Y-114418693D03*
D14*
X72696500Y-109168693D03*
X72696500Y-107518693D03*
D11*
X80085000Y-83030000D03*
X81735000Y-83030000D03*
D48*
X171870000Y-127770000D03*
X171870000Y-128270000D03*
X171870000Y-128770000D03*
X171870000Y-129270000D03*
X171870000Y-129770000D03*
X171870000Y-130270000D03*
D49*
X174370000Y-126770000D03*
X174370000Y-131270000D03*
D23*
X66171500Y-122243693D03*
X64521500Y-122243693D03*
X109821500Y-106693693D03*
X108171500Y-106693693D03*
D50*
X114846500Y-125606193D03*
X113896500Y-125606193D03*
X112946500Y-125606193D03*
X112946500Y-127881193D03*
X114846500Y-127881193D03*
D14*
X178520000Y-92425000D03*
X178520000Y-90775000D03*
D51*
X64885000Y-68850000D03*
X64885000Y-69850000D03*
X64885000Y-70850000D03*
X64885000Y-71850000D03*
D52*
X61010000Y-67550000D03*
X61010000Y-73150000D03*
D17*
X116896500Y-104393693D03*
X116896500Y-106293693D03*
D31*
X157280000Y-91742500D03*
X157280000Y-95042500D03*
D13*
X116596500Y-110993693D03*
X116596500Y-112643693D03*
D16*
X78346500Y-125043693D03*
X76446500Y-125043693D03*
D19*
X65696500Y-141743693D03*
X65696500Y-139843693D03*
D40*
X173515150Y-98340000D03*
X177464850Y-98340000D03*
D13*
X72696500Y-118818693D03*
X72696500Y-120468693D03*
D21*
X156810000Y-88890000D03*
X158710000Y-88890000D03*
D53*
X140571500Y-140053693D03*
X140571500Y-138783693D03*
X140571500Y-137513693D03*
X140571500Y-136243693D03*
X140571500Y-134973693D03*
X140571500Y-133703693D03*
X140571500Y-132433693D03*
X140571500Y-131163693D03*
X140571500Y-129893693D03*
X140571500Y-128623693D03*
X140571500Y-127353693D03*
X140571500Y-126083693D03*
X140571500Y-124813693D03*
X140571500Y-123543693D03*
D54*
X138806500Y-122293693D03*
X137536500Y-122293693D03*
X136266500Y-122293693D03*
X134996500Y-122293693D03*
X133726500Y-122293693D03*
X132456500Y-122293693D03*
X131186500Y-122293693D03*
X129916500Y-122293693D03*
X128646500Y-122293693D03*
X127376500Y-122293693D03*
X126106500Y-122293693D03*
X124836500Y-122293693D03*
D53*
X123071500Y-123543693D03*
X123071500Y-124813693D03*
X123071500Y-126083693D03*
X123071500Y-127353693D03*
X123071500Y-128623693D03*
X123071500Y-129893693D03*
X123071500Y-131163693D03*
X123071500Y-132433693D03*
X123071500Y-133703693D03*
X123071500Y-134973693D03*
X123071500Y-136243693D03*
X123071500Y-137513693D03*
X123071500Y-138783693D03*
X123071500Y-140053693D03*
D55*
X134721500Y-133733693D03*
X134721500Y-132333693D03*
X134721500Y-130933693D03*
X133321500Y-133733693D03*
X133321500Y-132333693D03*
X133321500Y-130933693D03*
X131921500Y-133733693D03*
X131921500Y-132333693D03*
X131921500Y-130933693D03*
D21*
X169680000Y-98340000D03*
X171580000Y-98340000D03*
D23*
X81745000Y-90720000D03*
X80095000Y-90720000D03*
D31*
X170790000Y-91720000D03*
X170790000Y-95020000D03*
D23*
X147725000Y-75650000D03*
X146075000Y-75650000D03*
D44*
X162320000Y-92700000D03*
X162320000Y-91750000D03*
X162320000Y-90800000D03*
X160020000Y-90800000D03*
X160020000Y-91750000D03*
X160020000Y-92700000D03*
D56*
X80133000Y-85820000D03*
X80133000Y-86320126D03*
X80133000Y-86820252D03*
X80133000Y-87320378D03*
X81530000Y-87320378D03*
X81530000Y-86820252D03*
X81530000Y-86320126D03*
X81530000Y-85820000D03*
D45*
X149409118Y-63117800D03*
X149909244Y-63117800D03*
X150409370Y-63117800D03*
X150909496Y-63117800D03*
X151409622Y-63117800D03*
X151909748Y-63117800D03*
X152409874Y-63117800D03*
X152910000Y-63117800D03*
D46*
X153909559Y-60657800D03*
X148409559Y-60657800D03*
D17*
X124496500Y-112793693D03*
X124496500Y-114693693D03*
D21*
X170050000Y-88890000D03*
X171950000Y-88890000D03*
D57*
X77521500Y-106098693D03*
X77521500Y-107368693D03*
X77521500Y-108638693D03*
X77521500Y-109908693D03*
X77521500Y-111178693D03*
X77521500Y-112448693D03*
X77521500Y-113718693D03*
X77521500Y-114988693D03*
X82471500Y-114988693D03*
X82471500Y-113718693D03*
X82471500Y-112448693D03*
X82471500Y-111178693D03*
X82471500Y-109908693D03*
X82471500Y-108638693D03*
X82471500Y-107368693D03*
X82471500Y-106098693D03*
D58*
X68281500Y-110393693D03*
X68281500Y-111193693D03*
D59*
X68281500Y-112393693D03*
X68281500Y-113393693D03*
X68281500Y-113893693D03*
X68281500Y-114893693D03*
D58*
X68281500Y-116093693D03*
X68281500Y-116893693D03*
X68281500Y-116893693D03*
X68281500Y-116093693D03*
D59*
X68281500Y-115393693D03*
X68281500Y-114393693D03*
X68281500Y-112893693D03*
X68281500Y-111893693D03*
D58*
X68281500Y-111193693D03*
X68281500Y-110393693D03*
D21*
X156250000Y-98340000D03*
X158150000Y-98340000D03*
X76346500Y-119243693D03*
X78246500Y-119243693D03*
D32*
X63596500Y-127593693D03*
X63596500Y-124293693D03*
D60*
X75270000Y-90720000D03*
X75270000Y-89620000D03*
X75270000Y-88520000D03*
X75270000Y-87420000D03*
X75270000Y-86320000D03*
X75270000Y-85220000D03*
X75270000Y-84120000D03*
X75270000Y-83020000D03*
X75270000Y-81920000D03*
D61*
X74220000Y-95320000D03*
D62*
X64670000Y-96220000D03*
X64670000Y-80720000D03*
D52*
X73970000Y-80720000D03*
D63*
X121396500Y-105893693D03*
X118896500Y-105893693D03*
M02*
