%TF.GenerationSoftware,KiCad,Pcbnew,7.0.9-7.0.9~ubuntu22.04.1*%
%TF.CreationDate,2024-04-13T14:39:48+02:00*%
%TF.ProjectId,v7-kaleido,76372d6b-616c-4656-9964-6f2e6b696361,1.1*%
%TF.SameCoordinates,Original*%
%TF.FileFunction,Drillmap*%
%TF.FilePolarity,Positive*%
%FSLAX45Y45*%
G04 Gerber Fmt 4.5, Leading zero omitted, Abs format (unit mm)*
G04 Created by KiCad (PCBNEW 7.0.9-7.0.9~ubuntu22.04.1) date 2024-04-13 14:39:48*
%MOMM*%
%LPD*%
G01*
G04 APERTURE LIST*
%ADD10C,0.050000*%
%ADD11C,0.200000*%
%ADD12C,0.100000*%
G04 APERTURE END LIST*
D10*
X5987950Y-14860600D02*
X5987950Y-4400000D01*
X5987950Y-14860000D02*
X11565000Y-14860000D01*
X19800000Y-4400000D02*
X19800000Y-13500000D01*
X5987950Y-4400000D02*
X13920000Y-4400000D01*
X11965000Y-14150000D02*
G75*
G03*
X11765000Y-14350000I0J-200000D01*
G01*
X17318000Y-4945000D02*
X17240000Y-4945000D01*
X19800000Y-14122000D02*
X19800000Y-14860000D01*
X17240000Y-4945000D02*
X17240000Y-4400000D01*
X19430000Y-13500000D02*
X19430000Y-14123000D01*
X11765000Y-14660289D02*
X11765000Y-14350000D01*
X11565000Y-14860290D02*
G75*
G03*
X11765000Y-14660289I0J200000D01*
G01*
X14501620Y-14660000D02*
G75*
G03*
X14701621Y-14860000I200000J0D01*
G01*
X17318000Y-4400000D02*
X19800000Y-4400000D01*
X13920000Y-4400000D02*
X13920000Y-4945000D01*
X14501621Y-14660289D02*
X14503579Y-14350422D01*
X14701621Y-14860000D02*
X17600000Y-14860000D01*
X14503578Y-14350422D02*
G75*
G03*
X14303579Y-14150422I-199998J2D01*
G01*
X19420000Y-14776000D02*
X17600000Y-14776000D01*
X19430000Y-14123000D02*
X19800000Y-14122000D01*
X19420000Y-14860000D02*
X19800000Y-14860000D01*
X14303579Y-14150000D02*
X11965000Y-14150000D01*
X17318000Y-4945000D02*
X17318000Y-4400000D01*
X16920000Y-4945000D02*
X16920000Y-4400000D01*
X19420000Y-14860000D02*
X19420000Y-14776000D01*
X17600000Y-14776000D02*
X17600000Y-14860000D01*
X19800000Y-13500000D02*
X19430000Y-13500000D01*
X17240000Y-4400000D02*
X16920000Y-4400000D01*
X13920000Y-4945000D02*
X16920000Y-4945000D01*
D11*
D12*
X9841870Y-12786989D02*
X9867270Y-12812389D01*
X9867270Y-12786989D02*
X9841870Y-12812389D01*
X9841870Y-12865729D02*
X9867270Y-12891129D01*
X9867270Y-12865729D02*
X9841870Y-12891129D01*
X9841870Y-12944469D02*
X9867270Y-12969869D01*
X9867270Y-12944469D02*
X9841870Y-12969869D01*
X9841870Y-13023209D02*
X9867270Y-13048609D01*
X9867270Y-13023209D02*
X9841870Y-13048609D01*
X9841870Y-13101949D02*
X9867270Y-13127349D01*
X9867270Y-13101949D02*
X9841870Y-13127349D01*
X9920610Y-12786989D02*
X9946010Y-12812389D01*
X9946010Y-12786989D02*
X9920610Y-12812389D01*
X9920610Y-12865729D02*
X9946010Y-12891129D01*
X9946010Y-12865729D02*
X9920610Y-12891129D01*
X9920610Y-12944469D02*
X9946010Y-12969869D01*
X9946010Y-12944469D02*
X9920610Y-12969869D01*
X9920610Y-13023209D02*
X9946010Y-13048609D01*
X9946010Y-13023209D02*
X9920610Y-13048609D01*
X9920610Y-13101949D02*
X9946010Y-13127349D01*
X9946010Y-13101949D02*
X9920610Y-13127349D01*
X9999350Y-12786989D02*
X10024750Y-12812389D01*
X10024750Y-12786989D02*
X9999350Y-12812389D01*
X9999350Y-12865729D02*
X10024750Y-12891129D01*
X10024750Y-12865729D02*
X9999350Y-12891129D01*
X9999350Y-12944469D02*
X10024750Y-12969869D01*
X10024750Y-12944469D02*
X9999350Y-12969869D01*
X9999350Y-13023209D02*
X10024750Y-13048609D01*
X10024750Y-13023209D02*
X9999350Y-13048609D01*
X9999350Y-13101949D02*
X10024750Y-13127349D01*
X10024750Y-13101949D02*
X9999350Y-13127349D01*
X10078090Y-12786989D02*
X10103490Y-12812389D01*
X10103490Y-12786989D02*
X10078090Y-12812389D01*
X10078090Y-12865729D02*
X10103490Y-12891129D01*
X10103490Y-12865729D02*
X10078090Y-12891129D01*
X10078090Y-12944469D02*
X10103490Y-12969869D01*
X10103490Y-12944469D02*
X10078090Y-12969869D01*
X10078090Y-13023209D02*
X10103490Y-13048609D01*
X10103490Y-13023209D02*
X10078090Y-13048609D01*
X10078090Y-13101949D02*
X10103490Y-13127349D01*
X10103490Y-13101949D02*
X10078090Y-13127349D01*
X10156830Y-12786989D02*
X10182230Y-12812389D01*
X10182230Y-12786989D02*
X10156830Y-12812389D01*
X10156830Y-12865729D02*
X10182230Y-12891129D01*
X10182230Y-12865729D02*
X10156830Y-12891129D01*
X10156830Y-12944469D02*
X10182230Y-12969869D01*
X10182230Y-12944469D02*
X10156830Y-12969869D01*
X10156830Y-13023209D02*
X10182230Y-13048609D01*
X10182230Y-13023209D02*
X10156830Y-13048609D01*
X10156830Y-13101949D02*
X10182230Y-13127349D01*
X10182230Y-13101949D02*
X10156830Y-13127349D01*
X12951000Y-13245000D02*
G75*
G03*
X12951000Y-13245000I-15000J0D01*
G01*
X17286000Y-13569000D02*
G75*
G03*
X17286000Y-13569000I-15000J0D01*
G01*
X17400000Y-13459000D02*
G75*
G03*
X17400000Y-13459000I-15000J0D01*
G01*
X17984000Y-11949000D02*
G75*
G03*
X17984000Y-11949000I-15000J0D01*
G01*
X18086000Y-11951000D02*
G75*
G03*
X18086000Y-11951000I-15000J0D01*
G01*
X18097500Y-12760000D02*
G75*
G03*
X18097500Y-12760000I-15000J0D01*
G01*
X18210000Y-12629000D02*
G75*
G03*
X18210000Y-12629000I-15000J0D01*
G01*
X18934000Y-12185000D02*
G75*
G03*
X18934000Y-12185000I-15000J0D01*
G01*
X19047000Y-11762000D02*
G75*
G03*
X19047000Y-11762000I-15000J0D01*
G01*
X19110000Y-11812000D02*
G75*
G03*
X19110000Y-11812000I-15000J0D01*
G01*
X19257000Y-12190000D02*
G75*
G03*
X19257000Y-12190000I-15000J0D01*
G01*
X6359650Y-12194369D02*
X6359650Y-12234369D01*
X6339650Y-12214369D02*
X6379650Y-12214369D01*
X6569650Y-14264369D02*
X6569650Y-14304369D01*
X6549650Y-14284369D02*
X6589650Y-14284369D01*
X6637000Y-7167000D02*
X6637000Y-7207000D01*
X6617000Y-7187000D02*
X6657000Y-7187000D01*
X6674650Y-14439369D02*
X6674650Y-14479369D01*
X6654650Y-14459369D02*
X6694650Y-14459369D01*
X6874650Y-13814369D02*
X6874650Y-13854369D01*
X6854650Y-13834369D02*
X6894650Y-13834369D01*
X6939650Y-11704369D02*
X6939650Y-11744369D01*
X6919650Y-11724369D02*
X6959650Y-11724369D01*
X6969650Y-10994369D02*
X6969650Y-11034369D01*
X6949650Y-11014369D02*
X6989650Y-11014369D01*
X6969650Y-12904369D02*
X6969650Y-12944369D01*
X6949650Y-12924369D02*
X6989650Y-12924369D01*
X7005000Y-8337000D02*
X7005000Y-8377000D01*
X6985000Y-8357000D02*
X7025000Y-8357000D01*
X7073044Y-14380814D02*
X7073044Y-14420814D01*
X7053044Y-14400814D02*
X7093044Y-14400814D01*
X7074650Y-14514369D02*
X7074650Y-14554369D01*
X7054650Y-14534369D02*
X7094650Y-14534369D01*
X7079650Y-11094369D02*
X7079650Y-11134369D01*
X7059650Y-11114369D02*
X7099650Y-11114369D01*
X7079650Y-11594369D02*
X7079650Y-11634369D01*
X7059650Y-11614369D02*
X7099650Y-11614369D01*
X7100000Y-8798000D02*
X7100000Y-8838000D01*
X7080000Y-8818000D02*
X7120000Y-8818000D01*
X7180508Y-11245170D02*
X7180508Y-11285170D01*
X7160508Y-11265170D02*
X7200508Y-11265170D01*
X7236000Y-8902000D02*
X7236000Y-8942000D01*
X7216000Y-8922000D02*
X7256000Y-8922000D01*
X7259650Y-11424369D02*
X7259650Y-11464369D01*
X7239650Y-11444369D02*
X7279650Y-11444369D01*
X7269650Y-10624369D02*
X7269650Y-10664369D01*
X7249650Y-10644369D02*
X7289650Y-10644369D01*
X7269650Y-12134369D02*
X7269650Y-12174369D01*
X7249650Y-12154369D02*
X7289650Y-12154369D01*
X7319650Y-13054369D02*
X7319650Y-13094369D01*
X7299650Y-13074369D02*
X7339650Y-13074369D01*
X7336000Y-8801000D02*
X7336000Y-8841000D01*
X7316000Y-8821000D02*
X7356000Y-8821000D01*
X7489650Y-10714369D02*
X7489650Y-10754369D01*
X7469650Y-10734369D02*
X7509650Y-10734369D01*
X7529650Y-11894369D02*
X7529650Y-11934369D01*
X7509650Y-11914369D02*
X7549650Y-11914369D01*
X7556284Y-11201003D02*
X7556284Y-11241003D01*
X7536284Y-11221003D02*
X7576284Y-11221003D01*
X7569650Y-10844369D02*
X7569650Y-10884369D01*
X7549650Y-10864369D02*
X7589650Y-10864369D01*
X7681000Y-8501000D02*
X7681000Y-8541000D01*
X7661000Y-8521000D02*
X7701000Y-8521000D01*
X7691000Y-8733000D02*
X7691000Y-8773000D01*
X7671000Y-8753000D02*
X7711000Y-8753000D01*
X7749650Y-10484369D02*
X7749650Y-10524369D01*
X7729650Y-10504369D02*
X7769650Y-10504369D01*
X7847000Y-10416000D02*
X7847000Y-10456000D01*
X7827000Y-10436000D02*
X7867000Y-10436000D01*
X7949650Y-12484369D02*
X7949650Y-12524369D01*
X7929650Y-12504369D02*
X7969650Y-12504369D01*
X7969650Y-12304369D02*
X7969650Y-12344369D01*
X7949650Y-12324369D02*
X7989650Y-12324369D01*
X8049650Y-12764369D02*
X8049650Y-12804369D01*
X8029650Y-12784369D02*
X8069650Y-12784369D01*
X8055000Y-8186000D02*
X8055000Y-8226000D01*
X8035000Y-8206000D02*
X8075000Y-8206000D01*
X8059650Y-13389369D02*
X8059650Y-13429369D01*
X8039650Y-13409369D02*
X8079650Y-13409369D01*
X8173500Y-8423000D02*
X8173500Y-8463000D01*
X8153500Y-8443000D02*
X8193500Y-8443000D01*
X8434650Y-13039369D02*
X8434650Y-13079369D01*
X8414650Y-13059369D02*
X8454650Y-13059369D01*
X8434650Y-13264369D02*
X8434650Y-13304369D01*
X8414650Y-13284369D02*
X8454650Y-13284369D01*
X8609650Y-11714369D02*
X8609650Y-11754369D01*
X8589650Y-11734369D02*
X8629650Y-11734369D01*
X8709650Y-12114369D02*
X8709650Y-12154369D01*
X8689650Y-12134369D02*
X8729650Y-12134369D01*
X8734650Y-11714369D02*
X8734650Y-11754369D01*
X8714650Y-11734369D02*
X8754650Y-11734369D01*
X8772578Y-13019131D02*
X8772578Y-13059131D01*
X8752578Y-13039131D02*
X8792578Y-13039131D01*
X8784650Y-13114369D02*
X8784650Y-13154369D01*
X8764650Y-13134369D02*
X8804650Y-13134369D01*
X8809650Y-12064369D02*
X8809650Y-12104369D01*
X8789650Y-12084369D02*
X8829650Y-12084369D01*
X8809650Y-12898369D02*
X8809650Y-12938369D01*
X8789650Y-12918369D02*
X8829650Y-12918369D01*
X8859650Y-13280769D02*
X8859650Y-13320769D01*
X8839650Y-13300769D02*
X8879650Y-13300769D01*
X8889650Y-11634369D02*
X8889650Y-11674369D01*
X8869650Y-11654369D02*
X8909650Y-11654369D01*
X8889650Y-11874369D02*
X8889650Y-11914369D01*
X8869650Y-11894369D02*
X8909650Y-11894369D01*
X8909650Y-11344369D02*
X8909650Y-11384369D01*
X8889650Y-11364369D02*
X8929650Y-11364369D01*
X8909650Y-14239369D02*
X8909650Y-14279369D01*
X8889650Y-14259369D02*
X8929650Y-14259369D01*
X8949319Y-12874779D02*
X8949319Y-12914779D01*
X8929319Y-12894779D02*
X8969319Y-12894779D01*
X8949650Y-11514369D02*
X8949650Y-11554369D01*
X8929650Y-11534369D02*
X8969650Y-11534369D01*
X8949650Y-11754369D02*
X8949650Y-11794369D01*
X8929650Y-11774369D02*
X8969650Y-11774369D01*
X9034650Y-13814369D02*
X9034650Y-13854369D01*
X9014650Y-13834369D02*
X9054650Y-13834369D01*
X9034650Y-13914369D02*
X9034650Y-13954369D01*
X9014650Y-13934369D02*
X9054650Y-13934369D01*
X9042514Y-11296376D02*
X9042514Y-11336376D01*
X9022514Y-11316376D02*
X9062514Y-11316376D01*
X9053450Y-12995569D02*
X9053450Y-13035569D01*
X9033450Y-13015569D02*
X9073450Y-13015569D01*
X9069650Y-11454369D02*
X9069650Y-11494369D01*
X9049650Y-11474369D02*
X9089650Y-11474369D01*
X9189650Y-11514369D02*
X9189650Y-11554369D01*
X9169650Y-11534369D02*
X9209650Y-11534369D01*
X9209650Y-14014369D02*
X9209650Y-14054369D01*
X9189650Y-14034369D02*
X9229650Y-14034369D01*
X9209650Y-14114369D02*
X9209650Y-14154369D01*
X9189650Y-14134369D02*
X9229650Y-14134369D01*
X9269650Y-10814369D02*
X9269650Y-10854369D01*
X9249650Y-10834369D02*
X9289650Y-10834369D01*
X9269650Y-10974369D02*
X9269650Y-11014369D01*
X9249650Y-10994369D02*
X9289650Y-10994369D01*
X9289650Y-11454369D02*
X9289650Y-11494369D01*
X9269650Y-11474369D02*
X9309650Y-11474369D01*
X9334650Y-14014369D02*
X9334650Y-14054369D01*
X9314650Y-14034369D02*
X9354650Y-14034369D01*
X9334650Y-14114369D02*
X9334650Y-14154369D01*
X9314650Y-14134369D02*
X9354650Y-14134369D01*
X9334650Y-14214369D02*
X9334650Y-14254369D01*
X9314650Y-14234369D02*
X9354650Y-14234369D01*
X9359328Y-13023810D02*
X9359328Y-13063810D01*
X9339328Y-13043810D02*
X9379328Y-13043810D01*
X9369650Y-10544369D02*
X9369650Y-10584369D01*
X9349650Y-10564369D02*
X9389650Y-10564369D01*
X9369750Y-12924469D02*
X9369750Y-12964469D01*
X9349750Y-12944469D02*
X9389750Y-12944469D01*
X9389650Y-11514369D02*
X9389650Y-11554369D01*
X9369650Y-11534369D02*
X9409650Y-11534369D01*
X9438000Y-10416000D02*
X9438000Y-10456000D01*
X9418000Y-10436000D02*
X9458000Y-10436000D01*
X9441121Y-13074069D02*
X9441121Y-13114069D01*
X9421121Y-13094069D02*
X9461121Y-13094069D01*
X9459650Y-14239369D02*
X9459650Y-14279369D01*
X9439650Y-14259369D02*
X9479650Y-14259369D01*
X9537325Y-12848072D02*
X9537325Y-12888072D01*
X9517325Y-12868072D02*
X9557325Y-12868072D01*
X9542276Y-12670344D02*
X9542276Y-12710344D01*
X9522276Y-12690344D02*
X9562276Y-12690344D01*
X9554850Y-13178469D02*
X9554850Y-13218469D01*
X9534850Y-13198469D02*
X9574850Y-13198469D01*
X9559650Y-12289369D02*
X9559650Y-12329369D01*
X9539650Y-12309369D02*
X9579650Y-12309369D01*
X9569650Y-11774369D02*
X9569650Y-11814369D01*
X9549650Y-11794369D02*
X9589650Y-11794369D01*
X9584650Y-12214369D02*
X9584650Y-12254369D01*
X9564650Y-12234369D02*
X9604650Y-12234369D01*
X9584650Y-14239369D02*
X9584650Y-14279369D01*
X9564650Y-14259369D02*
X9604650Y-14259369D01*
X9629650Y-11654369D02*
X9629650Y-11694369D01*
X9609650Y-11674369D02*
X9649650Y-11674369D01*
X9684650Y-12214369D02*
X9684650Y-12254369D01*
X9664650Y-12234369D02*
X9704650Y-12234369D01*
X9711203Y-11990923D02*
X9711203Y-12030923D01*
X9691203Y-12010923D02*
X9731203Y-12010923D01*
X9734650Y-14239369D02*
X9734650Y-14279369D01*
X9714650Y-14259369D02*
X9754650Y-14259369D01*
X9784650Y-14339369D02*
X9784650Y-14379369D01*
X9764650Y-14359369D02*
X9804650Y-14359369D01*
X9789650Y-10474369D02*
X9789650Y-10514369D01*
X9769650Y-10494369D02*
X9809650Y-10494369D01*
X9802429Y-12201693D02*
X9802429Y-12241693D01*
X9782429Y-12221693D02*
X9822429Y-12221693D01*
X9809650Y-14039369D02*
X9809650Y-14079369D01*
X9789650Y-14059369D02*
X9829650Y-14059369D01*
X9809650Y-14164369D02*
X9809650Y-14204369D01*
X9789650Y-14184369D02*
X9829650Y-14184369D01*
X9816000Y-11048000D02*
X9816000Y-11088000D01*
X9796000Y-11068000D02*
X9836000Y-11068000D01*
X9895050Y-12003969D02*
X9895050Y-12043969D01*
X9875050Y-12023969D02*
X9915050Y-12023969D01*
X9909650Y-12089369D02*
X9909650Y-12129369D01*
X9889650Y-12109369D02*
X9929650Y-12109369D01*
X9929650Y-11044369D02*
X9929650Y-11084369D01*
X9909650Y-11064369D02*
X9949650Y-11064369D01*
X9946378Y-13472836D02*
X9946378Y-13512836D01*
X9926378Y-13492836D02*
X9966378Y-13492836D01*
X9997286Y-12323770D02*
X9997286Y-12363770D01*
X9977286Y-12343770D02*
X10017286Y-12343770D01*
X10009650Y-11464369D02*
X10009650Y-11504369D01*
X9989650Y-11484369D02*
X10029650Y-11484369D01*
X10022049Y-12416469D02*
X10022049Y-12456469D01*
X10002049Y-12436469D02*
X10042049Y-12436469D01*
X10059650Y-14139369D02*
X10059650Y-14179369D01*
X10039650Y-14159369D02*
X10079650Y-14159369D01*
X10059650Y-14339369D02*
X10059650Y-14379369D01*
X10039650Y-14359369D02*
X10079650Y-14359369D01*
X10092416Y-12337135D02*
X10092416Y-12377135D01*
X10072416Y-12357135D02*
X10112416Y-12357135D01*
X10184650Y-13964369D02*
X10184650Y-14004369D01*
X10164650Y-13984369D02*
X10204650Y-13984369D01*
X10189175Y-12333644D02*
X10189175Y-12373644D01*
X10169175Y-12353644D02*
X10209175Y-12353644D01*
X10209650Y-11394369D02*
X10209650Y-11434369D01*
X10189650Y-11414369D02*
X10229650Y-11414369D01*
X10234650Y-14164369D02*
X10234650Y-14204369D01*
X10214650Y-14184369D02*
X10254650Y-14184369D01*
X10270050Y-12003969D02*
X10270050Y-12043969D01*
X10250050Y-12023969D02*
X10290050Y-12023969D01*
X10284650Y-11889369D02*
X10284650Y-11929369D01*
X10264650Y-11909369D02*
X10304650Y-11909369D01*
X10284650Y-14064369D02*
X10284650Y-14104369D01*
X10264650Y-14084369D02*
X10304650Y-14084369D01*
X10299650Y-10814369D02*
X10299650Y-10854369D01*
X10279650Y-10834369D02*
X10319650Y-10834369D01*
X10304050Y-13844969D02*
X10304050Y-13884969D01*
X10284050Y-13864969D02*
X10324050Y-13864969D01*
X10304150Y-13447669D02*
X10304150Y-13487669D01*
X10284150Y-13467669D02*
X10324150Y-13467669D01*
X10316850Y-12530769D02*
X10316850Y-12570769D01*
X10296850Y-12550769D02*
X10336850Y-12550769D01*
X10334650Y-12114369D02*
X10334650Y-12154369D01*
X10314650Y-12134369D02*
X10354650Y-12134369D01*
X10354824Y-13267495D02*
X10354824Y-13307495D01*
X10334824Y-13287495D02*
X10374824Y-13287495D01*
X10359650Y-11889369D02*
X10359650Y-11929369D01*
X10339650Y-11909369D02*
X10379650Y-11909369D01*
X10363650Y-12259469D02*
X10363650Y-12299469D01*
X10343650Y-12279469D02*
X10383650Y-12279469D01*
X10375550Y-13964369D02*
X10375550Y-14004369D01*
X10355550Y-13984369D02*
X10395550Y-13984369D01*
X10399650Y-10874369D02*
X10399650Y-10914369D01*
X10379650Y-10894369D02*
X10419650Y-10894369D01*
X10399650Y-11734369D02*
X10399650Y-11774369D01*
X10379650Y-11754369D02*
X10419650Y-11754369D01*
X10405600Y-10474369D02*
X10405600Y-10514369D01*
X10385600Y-10494369D02*
X10425600Y-10494369D01*
X10409650Y-11514369D02*
X10409650Y-11554369D01*
X10389650Y-11534369D02*
X10429650Y-11534369D01*
X10469481Y-11414539D02*
X10469481Y-11454539D01*
X10449481Y-11434539D02*
X10489481Y-11434539D01*
X10479650Y-11664369D02*
X10479650Y-11704369D01*
X10459650Y-11684369D02*
X10499650Y-11684369D01*
X10509650Y-10484369D02*
X10509650Y-10524369D01*
X10489650Y-10504369D02*
X10529650Y-10504369D01*
X10561016Y-11613516D02*
X10561016Y-11653516D01*
X10541016Y-11633516D02*
X10581016Y-11633516D01*
X10608950Y-12916569D02*
X10608950Y-12956569D01*
X10588950Y-12936569D02*
X10628950Y-12936569D01*
X10608950Y-13064169D02*
X10608950Y-13104169D01*
X10588950Y-13084169D02*
X10628950Y-13084169D01*
X10619650Y-10574369D02*
X10619650Y-10614369D01*
X10599650Y-10594369D02*
X10639650Y-10594369D01*
X10619650Y-13254369D02*
X10619650Y-13294369D01*
X10599650Y-13274369D02*
X10639650Y-13274369D01*
X10629359Y-12512936D02*
X10629359Y-12552936D01*
X10609359Y-12532936D02*
X10649359Y-12532936D01*
X10639650Y-11914369D02*
X10639650Y-11954369D01*
X10619650Y-11934369D02*
X10659650Y-11934369D01*
X10647050Y-12754569D02*
X10647050Y-12794569D01*
X10627050Y-12774569D02*
X10667050Y-12774569D01*
X10648444Y-12606969D02*
X10648444Y-12646969D01*
X10628444Y-12626969D02*
X10668444Y-12626969D01*
X10699650Y-11064369D02*
X10699650Y-11104369D01*
X10679650Y-11084369D02*
X10719650Y-11084369D01*
X10706413Y-12948594D02*
X10706413Y-12988594D01*
X10686413Y-12968594D02*
X10726413Y-12968594D01*
X10709650Y-10124369D02*
X10709650Y-10164369D01*
X10689650Y-10144369D02*
X10729650Y-10144369D01*
X10718876Y-12309014D02*
X10718876Y-12349014D01*
X10698876Y-12329014D02*
X10738876Y-12329014D01*
X10719650Y-10544369D02*
X10719650Y-10584369D01*
X10699650Y-10564369D02*
X10739650Y-10564369D01*
X10719650Y-11294369D02*
X10719650Y-11334369D01*
X10699650Y-11314369D02*
X10739650Y-11314369D01*
X10738000Y-12193000D02*
X10738000Y-12233000D01*
X10718000Y-12213000D02*
X10758000Y-12213000D01*
X10759650Y-12064369D02*
X10759650Y-12104369D01*
X10739650Y-12084369D02*
X10779650Y-12084369D01*
X10809650Y-14018369D02*
X10809650Y-14058369D01*
X10789650Y-14038369D02*
X10829650Y-14038369D01*
X10818000Y-13688000D02*
X10818000Y-13728000D01*
X10798000Y-13708000D02*
X10838000Y-13708000D01*
X10859650Y-12164369D02*
X10859650Y-12204369D01*
X10839650Y-12184369D02*
X10879650Y-12184369D01*
X10899650Y-11634369D02*
X10899650Y-11674369D01*
X10879650Y-11654369D02*
X10919650Y-11654369D01*
X10913100Y-10824369D02*
X10913100Y-10864369D01*
X10893100Y-10844369D02*
X10933100Y-10844369D01*
X10926000Y-9589000D02*
X10926000Y-9629000D01*
X10906000Y-9609000D02*
X10946000Y-9609000D01*
X10948000Y-12714369D02*
X10948000Y-12754369D01*
X10928000Y-12734369D02*
X10968000Y-12734369D01*
X10959650Y-12939369D02*
X10959650Y-12979369D01*
X10939650Y-12959369D02*
X10979650Y-12959369D01*
X10959650Y-13164369D02*
X10959650Y-13204369D01*
X10939650Y-13184369D02*
X10979650Y-13184369D01*
X11009650Y-10554369D02*
X11009650Y-10594369D01*
X10989650Y-10574369D02*
X11029650Y-10574369D01*
X11012199Y-14174199D02*
X11012199Y-14214199D01*
X10992199Y-14194199D02*
X11032199Y-14194199D01*
X11054540Y-13939369D02*
X11054540Y-13979369D01*
X11034540Y-13959369D02*
X11074540Y-13959369D01*
X11079650Y-11174369D02*
X11079650Y-11214369D01*
X11059650Y-11194369D02*
X11099650Y-11194369D01*
X11080200Y-10994369D02*
X11080200Y-11034369D01*
X11060200Y-11014369D02*
X11100200Y-11014369D01*
X11080200Y-11407771D02*
X11080200Y-11447771D01*
X11060200Y-11427771D02*
X11100200Y-11427771D01*
X11089650Y-11644369D02*
X11089650Y-11684369D01*
X11069650Y-11664369D02*
X11109650Y-11664369D01*
X11109650Y-12514369D02*
X11109650Y-12554369D01*
X11089650Y-12534369D02*
X11129650Y-12534369D01*
X11109650Y-12739369D02*
X11109650Y-12779369D01*
X11089650Y-12759369D02*
X11129650Y-12759369D01*
X11109650Y-12964369D02*
X11109650Y-13004369D01*
X11089650Y-12984369D02*
X11129650Y-12984369D01*
X11109650Y-13189369D02*
X11109650Y-13229369D01*
X11089650Y-13209369D02*
X11129650Y-13209369D01*
X11109650Y-13364369D02*
X11109650Y-13404369D01*
X11089650Y-13384369D02*
X11129650Y-13384369D01*
X11139878Y-12316605D02*
X11139878Y-12356605D01*
X11119878Y-12336605D02*
X11159878Y-12336605D01*
X11169650Y-11584369D02*
X11169650Y-11624369D01*
X11149650Y-11604369D02*
X11189650Y-11604369D01*
X11186262Y-13831881D02*
X11186262Y-13871881D01*
X11166262Y-13851881D02*
X11206262Y-13851881D01*
X11209650Y-13289369D02*
X11209650Y-13329369D01*
X11189650Y-13309369D02*
X11229650Y-13309369D01*
X11233287Y-13738000D02*
X11233287Y-13778000D01*
X11213287Y-13758000D02*
X11253287Y-13758000D01*
X11241000Y-14309000D02*
X11241000Y-14349000D01*
X11221000Y-14329000D02*
X11261000Y-14329000D01*
X11355600Y-11844369D02*
X11355600Y-11884369D01*
X11335600Y-11864369D02*
X11375600Y-11864369D01*
X11359650Y-10924369D02*
X11359650Y-10964369D01*
X11339650Y-10944369D02*
X11379650Y-10944369D01*
X11383650Y-14444369D02*
X11383650Y-14484369D01*
X11363650Y-14464369D02*
X11403650Y-14464369D01*
X11389650Y-12624369D02*
X11389650Y-12664369D01*
X11369650Y-12644369D02*
X11409650Y-12644369D01*
X11399650Y-12734369D02*
X11399650Y-12774369D01*
X11379650Y-12754369D02*
X11419650Y-12754369D01*
X11419650Y-11492819D02*
X11419650Y-11532819D01*
X11399650Y-11512819D02*
X11439650Y-11512819D01*
X11426974Y-11908496D02*
X11426974Y-11948496D01*
X11406974Y-11928496D02*
X11446974Y-11928496D01*
X11429650Y-14114000D02*
X11429650Y-14154000D01*
X11409650Y-14134000D02*
X11449650Y-14134000D01*
X11481200Y-11254369D02*
X11481200Y-11294369D01*
X11461200Y-11274369D02*
X11501200Y-11274369D01*
X11559650Y-12734369D02*
X11559650Y-12774369D01*
X11539650Y-12754369D02*
X11579650Y-12754369D01*
X11559650Y-12889369D02*
X11559650Y-12929369D01*
X11539650Y-12909369D02*
X11579650Y-12909369D01*
X11563650Y-12989369D02*
X11563650Y-13029369D01*
X11543650Y-13009369D02*
X11583650Y-13009369D01*
X11563856Y-9931000D02*
X11563856Y-9971000D01*
X11543856Y-9951000D02*
X11583856Y-9951000D01*
X11589650Y-12324369D02*
X11589650Y-12364369D01*
X11569650Y-12344369D02*
X11609650Y-12344369D01*
X11637650Y-10201819D02*
X11637650Y-10241819D01*
X11617650Y-10221819D02*
X11657650Y-10221819D01*
X11679650Y-11784369D02*
X11679650Y-11824369D01*
X11659650Y-11804369D02*
X11699650Y-11804369D01*
X11699650Y-10304369D02*
X11699650Y-10344369D01*
X11679650Y-10324369D02*
X11719650Y-10324369D01*
X11709200Y-10814369D02*
X11709200Y-10854369D01*
X11689200Y-10834369D02*
X11729200Y-10834369D01*
X11709650Y-10974369D02*
X11709650Y-11014369D01*
X11689650Y-10994369D02*
X11729650Y-10994369D01*
X11839650Y-12923419D02*
X11839650Y-12963419D01*
X11819650Y-12943419D02*
X11859650Y-12943419D01*
X11977747Y-12350064D02*
X11977747Y-12390064D01*
X11957747Y-12370064D02*
X11997747Y-12370064D01*
X12050000Y-9755000D02*
X12050000Y-9795000D01*
X12030000Y-9775000D02*
X12070000Y-9775000D01*
X12071323Y-12328854D02*
X12071323Y-12368854D01*
X12051323Y-12348854D02*
X12091323Y-12348854D01*
X12083000Y-6078000D02*
X12083000Y-6118000D01*
X12063000Y-6098000D02*
X12103000Y-6098000D01*
X12109650Y-13974369D02*
X12109650Y-14014369D01*
X12089650Y-13994369D02*
X12129650Y-13994369D01*
X12164523Y-12306046D02*
X12164523Y-12346046D01*
X12144523Y-12326046D02*
X12184523Y-12326046D01*
X12419650Y-10494369D02*
X12419650Y-10534369D01*
X12399650Y-10514369D02*
X12439650Y-10514369D01*
X12478100Y-11539000D02*
X12478100Y-11579000D01*
X12458100Y-11559000D02*
X12498100Y-11559000D01*
X12479650Y-12374369D02*
X12479650Y-12414369D01*
X12459650Y-12394369D02*
X12499650Y-12394369D01*
X12489650Y-11144369D02*
X12489650Y-11184369D01*
X12469650Y-11164369D02*
X12509650Y-11164369D01*
X12499650Y-10874369D02*
X12499650Y-10914369D01*
X12479650Y-10894369D02*
X12519650Y-10894369D01*
X12539650Y-12474369D02*
X12539650Y-12514369D01*
X12519650Y-12494369D02*
X12559650Y-12494369D01*
X12592527Y-12567246D02*
X12592527Y-12607246D01*
X12572527Y-12587246D02*
X12612527Y-12587246D01*
X12666773Y-12641492D02*
X12666773Y-12681492D01*
X12646773Y-12661492D02*
X12686773Y-12661492D01*
X12838123Y-13437507D02*
X12838123Y-13477507D01*
X12818123Y-13457507D02*
X12858123Y-13457507D01*
X12969037Y-13434101D02*
X12969037Y-13474101D01*
X12949037Y-13454101D02*
X12989037Y-13454101D01*
X13079650Y-13354369D02*
X13079650Y-13394369D01*
X13059650Y-13374369D02*
X13099650Y-13374369D01*
X13119650Y-13004369D02*
X13119650Y-13044369D01*
X13099650Y-13024369D02*
X13139650Y-13024369D01*
X13549650Y-12994369D02*
X13549650Y-13034369D01*
X13529650Y-13014369D02*
X13569650Y-13014369D01*
X13579650Y-13354369D02*
X13579650Y-13394369D01*
X13559650Y-13374369D02*
X13599650Y-13374369D01*
X13873000Y-10988000D02*
X13873000Y-11028000D01*
X13853000Y-11008000D02*
X13893000Y-11008000D01*
X13950500Y-10416270D02*
X13950500Y-10456270D01*
X13930500Y-10436270D02*
X13970500Y-10436270D01*
X14057000Y-10988000D02*
X14057000Y-11028000D01*
X14037000Y-11008000D02*
X14077000Y-11008000D01*
X14097000Y-10219000D02*
X14097000Y-10259000D01*
X14077000Y-10239000D02*
X14117000Y-10239000D01*
X14254000Y-10996000D02*
X14254000Y-11036000D01*
X14234000Y-11016000D02*
X14274000Y-11016000D01*
X14269650Y-13974369D02*
X14269650Y-14014369D01*
X14249650Y-13994369D02*
X14289650Y-13994369D01*
X14444000Y-11011000D02*
X14444000Y-11051000D01*
X14424000Y-11031000D02*
X14464000Y-11031000D01*
X14454000Y-7129000D02*
X14454000Y-7169000D01*
X14434000Y-7149000D02*
X14474000Y-7149000D01*
X14464000Y-11374000D02*
X14464000Y-11414000D01*
X14444000Y-11394000D02*
X14484000Y-11394000D01*
X14528796Y-7445796D02*
X14528796Y-7485796D01*
X14508796Y-7465796D02*
X14548796Y-7465796D01*
X14641000Y-11007000D02*
X14641000Y-11047000D01*
X14621000Y-11027000D02*
X14661000Y-11027000D01*
X14699650Y-14204369D02*
X14699650Y-14244369D01*
X14679650Y-14224369D02*
X14719650Y-14224369D01*
X14806153Y-13959540D02*
X14806153Y-13999540D01*
X14786153Y-13979540D02*
X14826153Y-13979540D01*
X14829650Y-14494369D02*
X14829650Y-14534369D01*
X14809650Y-14514369D02*
X14849650Y-14514369D01*
X14840000Y-6913000D02*
X14840000Y-6953000D01*
X14820000Y-6933000D02*
X14860000Y-6933000D01*
X14897000Y-6526000D02*
X14897000Y-6566000D01*
X14877000Y-6546000D02*
X14917000Y-6546000D01*
X14974699Y-6596077D02*
X14974699Y-6636077D01*
X14954699Y-6616077D02*
X14994699Y-6616077D01*
X15057410Y-13959000D02*
X15057410Y-13999000D01*
X15037410Y-13979000D02*
X15077410Y-13979000D01*
X15059650Y-13874369D02*
X15059650Y-13914369D01*
X15039650Y-13894369D02*
X15079650Y-13894369D01*
X15070000Y-6552000D02*
X15070000Y-6592000D01*
X15050000Y-6572000D02*
X15090000Y-6572000D01*
X15370000Y-10264000D02*
X15370000Y-10304000D01*
X15350000Y-10284000D02*
X15390000Y-10284000D01*
X15406931Y-13343500D02*
X15406931Y-13383500D01*
X15386931Y-13363500D02*
X15426931Y-13363500D01*
X15594792Y-13271792D02*
X15594792Y-13311792D01*
X15574792Y-13291792D02*
X15614792Y-13291792D01*
X15655699Y-9867699D02*
X15655699Y-9907699D01*
X15635699Y-9887699D02*
X15675699Y-9887699D01*
X15837000Y-10001000D02*
X15837000Y-10041000D01*
X15817000Y-10021000D02*
X15857000Y-10021000D01*
X15854292Y-13012292D02*
X15854292Y-13052292D01*
X15834292Y-13032292D02*
X15874292Y-13032292D01*
X15980000Y-8870000D02*
X15980000Y-8910000D01*
X15960000Y-8890000D02*
X16000000Y-8890000D01*
X16525000Y-13173000D02*
X16525000Y-13213000D01*
X16505000Y-13193000D02*
X16545000Y-13193000D01*
X16588301Y-9238301D02*
X16588301Y-9278301D01*
X16568301Y-9258301D02*
X16608301Y-9258301D01*
X16654000Y-8595000D02*
X16654000Y-8635000D01*
X16634000Y-8615000D02*
X16674000Y-8615000D01*
X16694000Y-10061000D02*
X16694000Y-10101000D01*
X16674000Y-10081000D02*
X16714000Y-10081000D01*
X16766000Y-9173000D02*
X16766000Y-9213000D01*
X16746000Y-9193000D02*
X16786000Y-9193000D01*
X16814000Y-12595000D02*
X16814000Y-12635000D01*
X16794000Y-12615000D02*
X16834000Y-12615000D01*
X16851000Y-8595000D02*
X16851000Y-8635000D01*
X16831000Y-8615000D02*
X16871000Y-8615000D01*
X16946000Y-12591000D02*
X16946000Y-12631000D01*
X16926000Y-12611000D02*
X16966000Y-12611000D01*
X17054000Y-9934000D02*
X17054000Y-9974000D01*
X17034000Y-9954000D02*
X17074000Y-9954000D01*
X17195000Y-9964000D02*
X17195000Y-10004000D01*
X17175000Y-9984000D02*
X17215000Y-9984000D01*
X17256300Y-12330000D02*
X17256300Y-12370000D01*
X17236300Y-12350000D02*
X17276300Y-12350000D01*
X17266000Y-12597000D02*
X17266000Y-12637000D01*
X17246000Y-12617000D02*
X17286000Y-12617000D01*
X17278000Y-11996000D02*
X17278000Y-12036000D01*
X17258000Y-12016000D02*
X17298000Y-12016000D01*
X17301000Y-8870000D02*
X17301000Y-8910000D01*
X17281000Y-8890000D02*
X17321000Y-8890000D01*
X17369000Y-12581000D02*
X17369000Y-12621000D01*
X17349000Y-12601000D02*
X17389000Y-12601000D01*
X17583000Y-11493500D02*
X17583000Y-11533500D01*
X17563000Y-11513500D02*
X17603000Y-11513500D01*
X17791000Y-12183000D02*
X17791000Y-12223000D01*
X17771000Y-12203000D02*
X17811000Y-12203000D01*
X17854000Y-11538000D02*
X17854000Y-11578000D01*
X17834000Y-11558000D02*
X17874000Y-11558000D01*
X17958000Y-9221000D02*
X17958000Y-9261000D01*
X17938000Y-9241000D02*
X17978000Y-9241000D01*
X18047000Y-10032000D02*
X18047000Y-10072000D01*
X18027000Y-10052000D02*
X18067000Y-10052000D01*
X18554000Y-12890000D02*
X18554000Y-12930000D01*
X18534000Y-12910000D02*
X18574000Y-12910000D01*
X18618000Y-10986000D02*
X18618000Y-11026000D01*
X18598000Y-11006000D02*
X18638000Y-11006000D01*
X18721000Y-11066000D02*
X18721000Y-11106000D01*
X18701000Y-11086000D02*
X18741000Y-11086000D01*
X18739000Y-8590000D02*
X18739000Y-8630000D01*
X18719000Y-8610000D02*
X18759000Y-8610000D01*
X18830000Y-13486000D02*
X18830000Y-13526000D01*
X18810000Y-13506000D02*
X18850000Y-13506000D01*
X18893000Y-11300900D02*
X18893000Y-11340900D01*
X18873000Y-11320900D02*
X18913000Y-11320900D01*
X18893000Y-11510900D02*
X18893000Y-11550900D01*
X18873000Y-11530900D02*
X18913000Y-11530900D01*
X18947000Y-8385000D02*
X18947000Y-8425000D01*
X18927000Y-8405000D02*
X18967000Y-8405000D01*
X19184000Y-8685000D02*
X19184000Y-8725000D01*
X19164000Y-8705000D02*
X19204000Y-8705000D01*
X19412000Y-11908000D02*
X19412000Y-11948000D01*
X19392000Y-11928000D02*
X19432000Y-11928000D01*
X19621000Y-12760000D02*
X19621000Y-12800000D01*
X19601000Y-12780000D02*
X19641000Y-12780000D01*
X19643000Y-11882300D02*
X19643000Y-11922300D01*
X19623000Y-11902300D02*
X19663000Y-11902300D01*
X19653000Y-11642300D02*
X19653000Y-11682300D01*
X19633000Y-11662300D02*
X19673000Y-11662300D01*
X6339863Y-10953583D02*
X6339863Y-10911156D01*
X6297437Y-10911156D01*
X6297437Y-10953583D01*
X6339863Y-10953583D01*
X6348650Y-10902369D02*
X6288650Y-10902369D01*
X6288650Y-10902369D02*
G75*
G03*
X6288650Y-10962369I0J-30000D01*
G01*
X6288650Y-10962369D02*
X6348650Y-10962369D01*
X6348650Y-10962369D02*
G75*
G03*
X6348650Y-10902369I0J30000D01*
G01*
X6339863Y-11817583D02*
X6339863Y-11775156D01*
X6297437Y-11775156D01*
X6297437Y-11817583D01*
X6339863Y-11817583D01*
X6348650Y-11766369D02*
X6288650Y-11766369D01*
X6288650Y-11766369D02*
G75*
G03*
X6288650Y-11826369I0J-30000D01*
G01*
X6288650Y-11826369D02*
X6348650Y-11826369D01*
X6348650Y-11826369D02*
G75*
G03*
X6348650Y-11766369I0J30000D01*
G01*
X6757863Y-10953583D02*
X6757863Y-10911156D01*
X6715437Y-10911156D01*
X6715437Y-10953583D01*
X6757863Y-10953583D01*
X6791650Y-10902369D02*
X6681650Y-10902369D01*
X6681650Y-10902369D02*
G75*
G03*
X6681650Y-10962369I0J-30000D01*
G01*
X6681650Y-10962369D02*
X6791650Y-10962369D01*
X6791650Y-10962369D02*
G75*
G03*
X6791650Y-10902369I0J30000D01*
G01*
X6757863Y-11817583D02*
X6757863Y-11775156D01*
X6715437Y-11775156D01*
X6715437Y-11817583D01*
X6757863Y-11817583D01*
X6791650Y-11766369D02*
X6681650Y-11766369D01*
X6681650Y-11766369D02*
G75*
G03*
X6681650Y-11826369I0J-30000D01*
G01*
X6681650Y-11826369D02*
X6791650Y-11826369D01*
X6791650Y-11826369D02*
G75*
G03*
X6791650Y-11766369I0J30000D01*
G01*
X6219650Y-10167869D02*
X6269650Y-10117869D01*
X6219650Y-10067869D01*
X6169650Y-10117869D01*
X6219650Y-10167869D01*
X6219650Y-10421869D02*
X6269650Y-10371869D01*
X6219650Y-10321869D01*
X6169650Y-10371869D01*
X6219650Y-10421869D01*
X6244650Y-13311869D02*
X6294650Y-13261869D01*
X6244650Y-13211869D01*
X6194650Y-13261869D01*
X6244650Y-13311869D01*
X6244650Y-13565869D02*
X6294650Y-13515869D01*
X6244650Y-13465869D01*
X6194650Y-13515869D01*
X6244650Y-13565869D01*
X6751500Y-4715000D02*
X6801500Y-4665000D01*
X6751500Y-4615000D01*
X6701500Y-4665000D01*
X6751500Y-4715000D01*
X7005500Y-4715000D02*
X7055500Y-4665000D01*
X7005500Y-4615000D01*
X6955500Y-4665000D01*
X7005500Y-4715000D01*
X7259500Y-4715000D02*
X7309500Y-4665000D01*
X7259500Y-4615000D01*
X7209500Y-4665000D01*
X7259500Y-4715000D01*
X7513500Y-4715000D02*
X7563500Y-4665000D01*
X7513500Y-4615000D01*
X7463500Y-4665000D01*
X7513500Y-4715000D01*
X7767500Y-4715000D02*
X7817500Y-4665000D01*
X7767500Y-4615000D01*
X7717500Y-4665000D01*
X7767500Y-4715000D01*
X8021500Y-4715000D02*
X8071500Y-4665000D01*
X8021500Y-4615000D01*
X7971500Y-4665000D01*
X8021500Y-4715000D01*
X8275500Y-4715000D02*
X8325500Y-4665000D01*
X8275500Y-4615000D01*
X8225500Y-4665000D01*
X8275500Y-4715000D01*
X8529500Y-4715000D02*
X8579500Y-4665000D01*
X8529500Y-4615000D01*
X8479500Y-4665000D01*
X8529500Y-4715000D01*
X8783500Y-4715000D02*
X8833500Y-4665000D01*
X8783500Y-4615000D01*
X8733500Y-4665000D01*
X8783500Y-4715000D01*
X9037500Y-4715000D02*
X9087500Y-4665000D01*
X9037500Y-4615000D01*
X8987500Y-4665000D01*
X9037500Y-4715000D01*
X9291500Y-4715000D02*
X9341500Y-4665000D01*
X9291500Y-4615000D01*
X9241500Y-4665000D01*
X9291500Y-4715000D01*
X9545500Y-4715000D02*
X9595500Y-4665000D01*
X9545500Y-4615000D01*
X9495500Y-4665000D01*
X9545500Y-4715000D01*
X9799500Y-4715000D02*
X9849500Y-4665000D01*
X9799500Y-4615000D01*
X9749500Y-4665000D01*
X9799500Y-4715000D01*
X10164000Y-4715000D02*
X10214000Y-4665000D01*
X10164000Y-4615000D01*
X10114000Y-4665000D01*
X10164000Y-4715000D01*
X10418000Y-4715000D02*
X10468000Y-4665000D01*
X10418000Y-4615000D01*
X10368000Y-4665000D01*
X10418000Y-4715000D01*
X10672000Y-4715000D02*
X10722000Y-4665000D01*
X10672000Y-4615000D01*
X10622000Y-4665000D01*
X10672000Y-4715000D01*
X10926000Y-4715000D02*
X10976000Y-4665000D01*
X10926000Y-4615000D01*
X10876000Y-4665000D01*
X10926000Y-4715000D01*
X11180000Y-4715000D02*
X11230000Y-4665000D01*
X11180000Y-4615000D01*
X11130000Y-4665000D01*
X11180000Y-4715000D01*
X11434000Y-4715000D02*
X11484000Y-4665000D01*
X11434000Y-4615000D01*
X11384000Y-4665000D01*
X11434000Y-4715000D01*
X11688000Y-4715000D02*
X11738000Y-4665000D01*
X11688000Y-4615000D01*
X11638000Y-4665000D01*
X11688000Y-4715000D01*
X11942000Y-4715000D02*
X11992000Y-4665000D01*
X11942000Y-4615000D01*
X11892000Y-4665000D01*
X11942000Y-4715000D01*
X12196000Y-4715000D02*
X12246000Y-4665000D01*
X12196000Y-4615000D01*
X12146000Y-4665000D01*
X12196000Y-4715000D01*
X12450000Y-4715000D02*
X12500000Y-4665000D01*
X12450000Y-4615000D01*
X12400000Y-4665000D01*
X12450000Y-4715000D01*
X12704000Y-4715000D02*
X12754000Y-4665000D01*
X12704000Y-4615000D01*
X12654000Y-4665000D01*
X12704000Y-4715000D01*
X12958000Y-4715000D02*
X13008000Y-4665000D01*
X12958000Y-4615000D01*
X12908000Y-4665000D01*
X12958000Y-4715000D01*
X17506000Y-4728000D02*
X17556000Y-4678000D01*
X17506000Y-4628000D01*
X17456000Y-4678000D01*
X17506000Y-4728000D01*
X17760000Y-4728000D02*
X17810000Y-4678000D01*
X17760000Y-4628000D01*
X17710000Y-4678000D01*
X17760000Y-4728000D01*
X18014000Y-4728000D02*
X18064000Y-4678000D01*
X18014000Y-4628000D01*
X17964000Y-4678000D01*
X18014000Y-4728000D01*
X18268000Y-4728000D02*
X18318000Y-4678000D01*
X18268000Y-4628000D01*
X18218000Y-4678000D01*
X18268000Y-4728000D01*
X18522000Y-4728000D02*
X18572000Y-4678000D01*
X18522000Y-4628000D01*
X18472000Y-4678000D01*
X18522000Y-4728000D01*
D11*
X6246227Y-15174584D02*
X6246227Y-14974584D01*
X6246227Y-14974584D02*
X6293846Y-14974584D01*
X6293846Y-14974584D02*
X6322417Y-14984108D01*
X6322417Y-14984108D02*
X6341465Y-15003155D01*
X6341465Y-15003155D02*
X6350989Y-15022203D01*
X6350989Y-15022203D02*
X6360512Y-15060298D01*
X6360512Y-15060298D02*
X6360512Y-15088869D01*
X6360512Y-15088869D02*
X6350989Y-15126965D01*
X6350989Y-15126965D02*
X6341465Y-15146012D01*
X6341465Y-15146012D02*
X6322417Y-15165060D01*
X6322417Y-15165060D02*
X6293846Y-15174584D01*
X6293846Y-15174584D02*
X6246227Y-15174584D01*
X6446227Y-15174584D02*
X6446227Y-15041250D01*
X6446227Y-15079346D02*
X6455751Y-15060298D01*
X6455751Y-15060298D02*
X6465274Y-15050774D01*
X6465274Y-15050774D02*
X6484322Y-15041250D01*
X6484322Y-15041250D02*
X6503370Y-15041250D01*
X6570036Y-15174584D02*
X6570036Y-15041250D01*
X6570036Y-14974584D02*
X6560512Y-14984108D01*
X6560512Y-14984108D02*
X6570036Y-14993631D01*
X6570036Y-14993631D02*
X6579560Y-14984108D01*
X6579560Y-14984108D02*
X6570036Y-14974584D01*
X6570036Y-14974584D02*
X6570036Y-14993631D01*
X6693846Y-15174584D02*
X6674798Y-15165060D01*
X6674798Y-15165060D02*
X6665274Y-15146012D01*
X6665274Y-15146012D02*
X6665274Y-14974584D01*
X6798608Y-15174584D02*
X6779560Y-15165060D01*
X6779560Y-15165060D02*
X6770036Y-15146012D01*
X6770036Y-15146012D02*
X6770036Y-14974584D01*
X7027179Y-15174584D02*
X7027179Y-14974584D01*
X7027179Y-14974584D02*
X7093846Y-15117441D01*
X7093846Y-15117441D02*
X7160512Y-14974584D01*
X7160512Y-14974584D02*
X7160512Y-15174584D01*
X7341465Y-15174584D02*
X7341465Y-15069822D01*
X7341465Y-15069822D02*
X7331941Y-15050774D01*
X7331941Y-15050774D02*
X7312893Y-15041250D01*
X7312893Y-15041250D02*
X7274798Y-15041250D01*
X7274798Y-15041250D02*
X7255751Y-15050774D01*
X7341465Y-15165060D02*
X7322417Y-15174584D01*
X7322417Y-15174584D02*
X7274798Y-15174584D01*
X7274798Y-15174584D02*
X7255751Y-15165060D01*
X7255751Y-15165060D02*
X7246227Y-15146012D01*
X7246227Y-15146012D02*
X7246227Y-15126965D01*
X7246227Y-15126965D02*
X7255751Y-15107917D01*
X7255751Y-15107917D02*
X7274798Y-15098393D01*
X7274798Y-15098393D02*
X7322417Y-15098393D01*
X7322417Y-15098393D02*
X7341465Y-15088869D01*
X7436703Y-15041250D02*
X7436703Y-15241250D01*
X7436703Y-15050774D02*
X7455751Y-15041250D01*
X7455751Y-15041250D02*
X7493846Y-15041250D01*
X7493846Y-15041250D02*
X7512893Y-15050774D01*
X7512893Y-15050774D02*
X7522417Y-15060298D01*
X7522417Y-15060298D02*
X7531941Y-15079346D01*
X7531941Y-15079346D02*
X7531941Y-15136488D01*
X7531941Y-15136488D02*
X7522417Y-15155536D01*
X7522417Y-15155536D02*
X7512893Y-15165060D01*
X7512893Y-15165060D02*
X7493846Y-15174584D01*
X7493846Y-15174584D02*
X7455751Y-15174584D01*
X7455751Y-15174584D02*
X7436703Y-15165060D01*
X7617655Y-15155536D02*
X7627179Y-15165060D01*
X7627179Y-15165060D02*
X7617655Y-15174584D01*
X7617655Y-15174584D02*
X7608132Y-15165060D01*
X7608132Y-15165060D02*
X7617655Y-15155536D01*
X7617655Y-15155536D02*
X7617655Y-15174584D01*
X7617655Y-15050774D02*
X7627179Y-15060298D01*
X7627179Y-15060298D02*
X7617655Y-15069822D01*
X7617655Y-15069822D02*
X7608132Y-15060298D01*
X7608132Y-15060298D02*
X7617655Y-15050774D01*
X7617655Y-15050774D02*
X7617655Y-15069822D01*
D12*
X5960050Y-15490400D02*
X5985450Y-15515800D01*
X5985450Y-15490400D02*
X5960050Y-15515800D01*
D11*
X6284322Y-15394584D02*
X6303370Y-15394584D01*
X6303370Y-15394584D02*
X6322417Y-15404108D01*
X6322417Y-15404108D02*
X6331941Y-15413631D01*
X6331941Y-15413631D02*
X6341465Y-15432679D01*
X6341465Y-15432679D02*
X6350989Y-15470774D01*
X6350989Y-15470774D02*
X6350989Y-15518393D01*
X6350989Y-15518393D02*
X6341465Y-15556488D01*
X6341465Y-15556488D02*
X6331941Y-15575536D01*
X6331941Y-15575536D02*
X6322417Y-15585060D01*
X6322417Y-15585060D02*
X6303370Y-15594584D01*
X6303370Y-15594584D02*
X6284322Y-15594584D01*
X6284322Y-15594584D02*
X6265274Y-15585060D01*
X6265274Y-15585060D02*
X6255751Y-15575536D01*
X6255751Y-15575536D02*
X6246227Y-15556488D01*
X6246227Y-15556488D02*
X6236703Y-15518393D01*
X6236703Y-15518393D02*
X6236703Y-15470774D01*
X6236703Y-15470774D02*
X6246227Y-15432679D01*
X6246227Y-15432679D02*
X6255751Y-15413631D01*
X6255751Y-15413631D02*
X6265274Y-15404108D01*
X6265274Y-15404108D02*
X6284322Y-15394584D01*
X6436703Y-15575536D02*
X6446227Y-15585060D01*
X6446227Y-15585060D02*
X6436703Y-15594584D01*
X6436703Y-15594584D02*
X6427179Y-15585060D01*
X6427179Y-15585060D02*
X6436703Y-15575536D01*
X6436703Y-15575536D02*
X6436703Y-15594584D01*
X6522417Y-15413631D02*
X6531941Y-15404108D01*
X6531941Y-15404108D02*
X6550989Y-15394584D01*
X6550989Y-15394584D02*
X6598608Y-15394584D01*
X6598608Y-15394584D02*
X6617655Y-15404108D01*
X6617655Y-15404108D02*
X6627179Y-15413631D01*
X6627179Y-15413631D02*
X6636703Y-15432679D01*
X6636703Y-15432679D02*
X6636703Y-15451727D01*
X6636703Y-15451727D02*
X6627179Y-15480298D01*
X6627179Y-15480298D02*
X6512893Y-15594584D01*
X6512893Y-15594584D02*
X6636703Y-15594584D01*
X6817655Y-15394584D02*
X6722417Y-15394584D01*
X6722417Y-15394584D02*
X6712893Y-15489822D01*
X6712893Y-15489822D02*
X6722417Y-15480298D01*
X6722417Y-15480298D02*
X6741465Y-15470774D01*
X6741465Y-15470774D02*
X6789084Y-15470774D01*
X6789084Y-15470774D02*
X6808132Y-15480298D01*
X6808132Y-15480298D02*
X6817655Y-15489822D01*
X6817655Y-15489822D02*
X6827179Y-15508869D01*
X6827179Y-15508869D02*
X6827179Y-15556488D01*
X6827179Y-15556488D02*
X6817655Y-15575536D01*
X6817655Y-15575536D02*
X6808132Y-15585060D01*
X6808132Y-15585060D02*
X6789084Y-15594584D01*
X6789084Y-15594584D02*
X6741465Y-15594584D01*
X6741465Y-15594584D02*
X6722417Y-15585060D01*
X6722417Y-15585060D02*
X6712893Y-15575536D01*
X6998608Y-15461250D02*
X6998608Y-15594584D01*
X6950989Y-15385060D02*
X6903370Y-15527917D01*
X6903370Y-15527917D02*
X7027179Y-15527917D01*
X7103370Y-15594584D02*
X7103370Y-15461250D01*
X7103370Y-15480298D02*
X7112893Y-15470774D01*
X7112893Y-15470774D02*
X7131941Y-15461250D01*
X7131941Y-15461250D02*
X7160513Y-15461250D01*
X7160513Y-15461250D02*
X7179560Y-15470774D01*
X7179560Y-15470774D02*
X7189084Y-15489822D01*
X7189084Y-15489822D02*
X7189084Y-15594584D01*
X7189084Y-15489822D02*
X7198608Y-15470774D01*
X7198608Y-15470774D02*
X7217655Y-15461250D01*
X7217655Y-15461250D02*
X7246227Y-15461250D01*
X7246227Y-15461250D02*
X7265274Y-15470774D01*
X7265274Y-15470774D02*
X7274798Y-15489822D01*
X7274798Y-15489822D02*
X7274798Y-15594584D01*
X7370036Y-15594584D02*
X7370036Y-15461250D01*
X7370036Y-15480298D02*
X7379560Y-15470774D01*
X7379560Y-15470774D02*
X7398608Y-15461250D01*
X7398608Y-15461250D02*
X7427179Y-15461250D01*
X7427179Y-15461250D02*
X7446227Y-15470774D01*
X7446227Y-15470774D02*
X7455751Y-15489822D01*
X7455751Y-15489822D02*
X7455751Y-15594584D01*
X7455751Y-15489822D02*
X7465274Y-15470774D01*
X7465274Y-15470774D02*
X7484322Y-15461250D01*
X7484322Y-15461250D02*
X7512893Y-15461250D01*
X7512893Y-15461250D02*
X7531941Y-15470774D01*
X7531941Y-15470774D02*
X7541465Y-15489822D01*
X7541465Y-15489822D02*
X7541465Y-15594584D01*
X7931941Y-15385060D02*
X7760513Y-15642203D01*
X8189084Y-15394584D02*
X8208132Y-15394584D01*
X8208132Y-15394584D02*
X8227179Y-15404108D01*
X8227179Y-15404108D02*
X8236703Y-15413631D01*
X8236703Y-15413631D02*
X8246227Y-15432679D01*
X8246227Y-15432679D02*
X8255751Y-15470774D01*
X8255751Y-15470774D02*
X8255751Y-15518393D01*
X8255751Y-15518393D02*
X8246227Y-15556488D01*
X8246227Y-15556488D02*
X8236703Y-15575536D01*
X8236703Y-15575536D02*
X8227179Y-15585060D01*
X8227179Y-15585060D02*
X8208132Y-15594584D01*
X8208132Y-15594584D02*
X8189084Y-15594584D01*
X8189084Y-15594584D02*
X8170036Y-15585060D01*
X8170036Y-15585060D02*
X8160513Y-15575536D01*
X8160513Y-15575536D02*
X8150989Y-15556488D01*
X8150989Y-15556488D02*
X8141465Y-15518393D01*
X8141465Y-15518393D02*
X8141465Y-15470774D01*
X8141465Y-15470774D02*
X8150989Y-15432679D01*
X8150989Y-15432679D02*
X8160513Y-15413631D01*
X8160513Y-15413631D02*
X8170036Y-15404108D01*
X8170036Y-15404108D02*
X8189084Y-15394584D01*
X8341465Y-15575536D02*
X8350989Y-15585060D01*
X8350989Y-15585060D02*
X8341465Y-15594584D01*
X8341465Y-15594584D02*
X8331941Y-15585060D01*
X8331941Y-15585060D02*
X8341465Y-15575536D01*
X8341465Y-15575536D02*
X8341465Y-15594584D01*
X8474798Y-15394584D02*
X8493846Y-15394584D01*
X8493846Y-15394584D02*
X8512894Y-15404108D01*
X8512894Y-15404108D02*
X8522418Y-15413631D01*
X8522418Y-15413631D02*
X8531941Y-15432679D01*
X8531941Y-15432679D02*
X8541465Y-15470774D01*
X8541465Y-15470774D02*
X8541465Y-15518393D01*
X8541465Y-15518393D02*
X8531941Y-15556488D01*
X8531941Y-15556488D02*
X8522418Y-15575536D01*
X8522418Y-15575536D02*
X8512894Y-15585060D01*
X8512894Y-15585060D02*
X8493846Y-15594584D01*
X8493846Y-15594584D02*
X8474798Y-15594584D01*
X8474798Y-15594584D02*
X8455751Y-15585060D01*
X8455751Y-15585060D02*
X8446227Y-15575536D01*
X8446227Y-15575536D02*
X8436703Y-15556488D01*
X8436703Y-15556488D02*
X8427179Y-15518393D01*
X8427179Y-15518393D02*
X8427179Y-15470774D01*
X8427179Y-15470774D02*
X8436703Y-15432679D01*
X8436703Y-15432679D02*
X8446227Y-15413631D01*
X8446227Y-15413631D02*
X8455751Y-15404108D01*
X8455751Y-15404108D02*
X8474798Y-15394584D01*
X8731941Y-15594584D02*
X8617656Y-15594584D01*
X8674798Y-15594584D02*
X8674798Y-15394584D01*
X8674798Y-15394584D02*
X8655751Y-15423155D01*
X8655751Y-15423155D02*
X8636703Y-15442203D01*
X8636703Y-15442203D02*
X8617656Y-15451727D01*
X8855751Y-15394584D02*
X8874799Y-15394584D01*
X8874799Y-15394584D02*
X8893846Y-15404108D01*
X8893846Y-15404108D02*
X8903370Y-15413631D01*
X8903370Y-15413631D02*
X8912894Y-15432679D01*
X8912894Y-15432679D02*
X8922418Y-15470774D01*
X8922418Y-15470774D02*
X8922418Y-15518393D01*
X8922418Y-15518393D02*
X8912894Y-15556488D01*
X8912894Y-15556488D02*
X8903370Y-15575536D01*
X8903370Y-15575536D02*
X8893846Y-15585060D01*
X8893846Y-15585060D02*
X8874799Y-15594584D01*
X8874799Y-15594584D02*
X8855751Y-15594584D01*
X8855751Y-15594584D02*
X8836703Y-15585060D01*
X8836703Y-15585060D02*
X8827179Y-15575536D01*
X8827179Y-15575536D02*
X8817656Y-15556488D01*
X8817656Y-15556488D02*
X8808132Y-15518393D01*
X8808132Y-15518393D02*
X8808132Y-15470774D01*
X8808132Y-15470774D02*
X8817656Y-15432679D01*
X8817656Y-15432679D02*
X8827179Y-15413631D01*
X8827179Y-15413631D02*
X8836703Y-15404108D01*
X8836703Y-15404108D02*
X8855751Y-15394584D01*
X9046227Y-15394584D02*
X9065275Y-15394584D01*
X9065275Y-15394584D02*
X9084322Y-15404108D01*
X9084322Y-15404108D02*
X9093846Y-15413631D01*
X9093846Y-15413631D02*
X9103370Y-15432679D01*
X9103370Y-15432679D02*
X9112894Y-15470774D01*
X9112894Y-15470774D02*
X9112894Y-15518393D01*
X9112894Y-15518393D02*
X9103370Y-15556488D01*
X9103370Y-15556488D02*
X9093846Y-15575536D01*
X9093846Y-15575536D02*
X9084322Y-15585060D01*
X9084322Y-15585060D02*
X9065275Y-15594584D01*
X9065275Y-15594584D02*
X9046227Y-15594584D01*
X9046227Y-15594584D02*
X9027179Y-15585060D01*
X9027179Y-15585060D02*
X9017656Y-15575536D01*
X9017656Y-15575536D02*
X9008132Y-15556488D01*
X9008132Y-15556488D02*
X8998608Y-15518393D01*
X8998608Y-15518393D02*
X8998608Y-15470774D01*
X8998608Y-15470774D02*
X9008132Y-15432679D01*
X9008132Y-15432679D02*
X9017656Y-15413631D01*
X9017656Y-15413631D02*
X9027179Y-15404108D01*
X9027179Y-15404108D02*
X9046227Y-15394584D01*
X9189084Y-15394584D02*
X9189084Y-15432679D01*
X9265275Y-15394584D02*
X9265275Y-15432679D01*
X9560513Y-15670774D02*
X9550989Y-15661250D01*
X9550989Y-15661250D02*
X9531941Y-15632679D01*
X9531941Y-15632679D02*
X9522418Y-15613631D01*
X9522418Y-15613631D02*
X9512894Y-15585060D01*
X9512894Y-15585060D02*
X9503370Y-15537441D01*
X9503370Y-15537441D02*
X9503370Y-15499346D01*
X9503370Y-15499346D02*
X9512894Y-15451727D01*
X9512894Y-15451727D02*
X9522418Y-15423155D01*
X9522418Y-15423155D02*
X9531941Y-15404108D01*
X9531941Y-15404108D02*
X9550989Y-15375536D01*
X9550989Y-15375536D02*
X9560513Y-15366012D01*
X9627180Y-15413631D02*
X9636703Y-15404108D01*
X9636703Y-15404108D02*
X9655751Y-15394584D01*
X9655751Y-15394584D02*
X9703370Y-15394584D01*
X9703370Y-15394584D02*
X9722418Y-15404108D01*
X9722418Y-15404108D02*
X9731941Y-15413631D01*
X9731941Y-15413631D02*
X9741465Y-15432679D01*
X9741465Y-15432679D02*
X9741465Y-15451727D01*
X9741465Y-15451727D02*
X9731941Y-15480298D01*
X9731941Y-15480298D02*
X9617656Y-15594584D01*
X9617656Y-15594584D02*
X9741465Y-15594584D01*
X9922418Y-15394584D02*
X9827180Y-15394584D01*
X9827180Y-15394584D02*
X9817656Y-15489822D01*
X9817656Y-15489822D02*
X9827180Y-15480298D01*
X9827180Y-15480298D02*
X9846227Y-15470774D01*
X9846227Y-15470774D02*
X9893846Y-15470774D01*
X9893846Y-15470774D02*
X9912894Y-15480298D01*
X9912894Y-15480298D02*
X9922418Y-15489822D01*
X9922418Y-15489822D02*
X9931941Y-15508869D01*
X9931941Y-15508869D02*
X9931941Y-15556488D01*
X9931941Y-15556488D02*
X9922418Y-15575536D01*
X9922418Y-15575536D02*
X9912894Y-15585060D01*
X9912894Y-15585060D02*
X9893846Y-15594584D01*
X9893846Y-15594584D02*
X9846227Y-15594584D01*
X9846227Y-15594584D02*
X9827180Y-15585060D01*
X9827180Y-15585060D02*
X9817656Y-15575536D01*
X10170037Y-15594584D02*
X10170037Y-15394584D01*
X10255751Y-15594584D02*
X10255751Y-15489822D01*
X10255751Y-15489822D02*
X10246227Y-15470774D01*
X10246227Y-15470774D02*
X10227180Y-15461250D01*
X10227180Y-15461250D02*
X10198608Y-15461250D01*
X10198608Y-15461250D02*
X10179561Y-15470774D01*
X10179561Y-15470774D02*
X10170037Y-15480298D01*
X10379561Y-15594584D02*
X10360513Y-15585060D01*
X10360513Y-15585060D02*
X10350989Y-15575536D01*
X10350989Y-15575536D02*
X10341465Y-15556488D01*
X10341465Y-15556488D02*
X10341465Y-15499346D01*
X10341465Y-15499346D02*
X10350989Y-15480298D01*
X10350989Y-15480298D02*
X10360513Y-15470774D01*
X10360513Y-15470774D02*
X10379561Y-15461250D01*
X10379561Y-15461250D02*
X10408132Y-15461250D01*
X10408132Y-15461250D02*
X10427180Y-15470774D01*
X10427180Y-15470774D02*
X10436703Y-15480298D01*
X10436703Y-15480298D02*
X10446227Y-15499346D01*
X10446227Y-15499346D02*
X10446227Y-15556488D01*
X10446227Y-15556488D02*
X10436703Y-15575536D01*
X10436703Y-15575536D02*
X10427180Y-15585060D01*
X10427180Y-15585060D02*
X10408132Y-15594584D01*
X10408132Y-15594584D02*
X10379561Y-15594584D01*
X10560513Y-15594584D02*
X10541465Y-15585060D01*
X10541465Y-15585060D02*
X10531942Y-15566012D01*
X10531942Y-15566012D02*
X10531942Y-15394584D01*
X10712894Y-15585060D02*
X10693846Y-15594584D01*
X10693846Y-15594584D02*
X10655751Y-15594584D01*
X10655751Y-15594584D02*
X10636703Y-15585060D01*
X10636703Y-15585060D02*
X10627180Y-15566012D01*
X10627180Y-15566012D02*
X10627180Y-15489822D01*
X10627180Y-15489822D02*
X10636703Y-15470774D01*
X10636703Y-15470774D02*
X10655751Y-15461250D01*
X10655751Y-15461250D02*
X10693846Y-15461250D01*
X10693846Y-15461250D02*
X10712894Y-15470774D01*
X10712894Y-15470774D02*
X10722418Y-15489822D01*
X10722418Y-15489822D02*
X10722418Y-15508869D01*
X10722418Y-15508869D02*
X10627180Y-15527917D01*
X10798608Y-15585060D02*
X10817656Y-15594584D01*
X10817656Y-15594584D02*
X10855751Y-15594584D01*
X10855751Y-15594584D02*
X10874799Y-15585060D01*
X10874799Y-15585060D02*
X10884323Y-15566012D01*
X10884323Y-15566012D02*
X10884323Y-15556488D01*
X10884323Y-15556488D02*
X10874799Y-15537441D01*
X10874799Y-15537441D02*
X10855751Y-15527917D01*
X10855751Y-15527917D02*
X10827180Y-15527917D01*
X10827180Y-15527917D02*
X10808132Y-15518393D01*
X10808132Y-15518393D02*
X10798608Y-15499346D01*
X10798608Y-15499346D02*
X10798608Y-15489822D01*
X10798608Y-15489822D02*
X10808132Y-15470774D01*
X10808132Y-15470774D02*
X10827180Y-15461250D01*
X10827180Y-15461250D02*
X10855751Y-15461250D01*
X10855751Y-15461250D02*
X10874799Y-15470774D01*
X10950989Y-15670774D02*
X10960513Y-15661250D01*
X10960513Y-15661250D02*
X10979561Y-15632679D01*
X10979561Y-15632679D02*
X10989084Y-15613631D01*
X10989084Y-15613631D02*
X10998608Y-15585060D01*
X10998608Y-15585060D02*
X11008132Y-15537441D01*
X11008132Y-15537441D02*
X11008132Y-15499346D01*
X11008132Y-15499346D02*
X10998608Y-15451727D01*
X10998608Y-15451727D02*
X10989084Y-15423155D01*
X10989084Y-15423155D02*
X10979561Y-15404108D01*
X10979561Y-15404108D02*
X10960513Y-15375536D01*
X10960513Y-15375536D02*
X10950989Y-15366012D01*
D12*
X5985450Y-15767100D02*
G75*
G03*
X5985450Y-15767100I-15000J0D01*
G01*
D11*
X6284322Y-15658584D02*
X6303370Y-15658584D01*
X6303370Y-15658584D02*
X6322417Y-15668108D01*
X6322417Y-15668108D02*
X6331941Y-15677631D01*
X6331941Y-15677631D02*
X6341465Y-15696679D01*
X6341465Y-15696679D02*
X6350989Y-15734774D01*
X6350989Y-15734774D02*
X6350989Y-15782393D01*
X6350989Y-15782393D02*
X6341465Y-15820488D01*
X6341465Y-15820488D02*
X6331941Y-15839536D01*
X6331941Y-15839536D02*
X6322417Y-15849060D01*
X6322417Y-15849060D02*
X6303370Y-15858584D01*
X6303370Y-15858584D02*
X6284322Y-15858584D01*
X6284322Y-15858584D02*
X6265274Y-15849060D01*
X6265274Y-15849060D02*
X6255751Y-15839536D01*
X6255751Y-15839536D02*
X6246227Y-15820488D01*
X6246227Y-15820488D02*
X6236703Y-15782393D01*
X6236703Y-15782393D02*
X6236703Y-15734774D01*
X6236703Y-15734774D02*
X6246227Y-15696679D01*
X6246227Y-15696679D02*
X6255751Y-15677631D01*
X6255751Y-15677631D02*
X6265274Y-15668108D01*
X6265274Y-15668108D02*
X6284322Y-15658584D01*
X6436703Y-15839536D02*
X6446227Y-15849060D01*
X6446227Y-15849060D02*
X6436703Y-15858584D01*
X6436703Y-15858584D02*
X6427179Y-15849060D01*
X6427179Y-15849060D02*
X6436703Y-15839536D01*
X6436703Y-15839536D02*
X6436703Y-15858584D01*
X6512893Y-15658584D02*
X6636703Y-15658584D01*
X6636703Y-15658584D02*
X6570036Y-15734774D01*
X6570036Y-15734774D02*
X6598608Y-15734774D01*
X6598608Y-15734774D02*
X6617655Y-15744298D01*
X6617655Y-15744298D02*
X6627179Y-15753822D01*
X6627179Y-15753822D02*
X6636703Y-15772869D01*
X6636703Y-15772869D02*
X6636703Y-15820488D01*
X6636703Y-15820488D02*
X6627179Y-15839536D01*
X6627179Y-15839536D02*
X6617655Y-15849060D01*
X6617655Y-15849060D02*
X6598608Y-15858584D01*
X6598608Y-15858584D02*
X6541465Y-15858584D01*
X6541465Y-15858584D02*
X6522417Y-15849060D01*
X6522417Y-15849060D02*
X6512893Y-15839536D01*
X6760512Y-15658584D02*
X6779560Y-15658584D01*
X6779560Y-15658584D02*
X6798608Y-15668108D01*
X6798608Y-15668108D02*
X6808132Y-15677631D01*
X6808132Y-15677631D02*
X6817655Y-15696679D01*
X6817655Y-15696679D02*
X6827179Y-15734774D01*
X6827179Y-15734774D02*
X6827179Y-15782393D01*
X6827179Y-15782393D02*
X6817655Y-15820488D01*
X6817655Y-15820488D02*
X6808132Y-15839536D01*
X6808132Y-15839536D02*
X6798608Y-15849060D01*
X6798608Y-15849060D02*
X6779560Y-15858584D01*
X6779560Y-15858584D02*
X6760512Y-15858584D01*
X6760512Y-15858584D02*
X6741465Y-15849060D01*
X6741465Y-15849060D02*
X6731941Y-15839536D01*
X6731941Y-15839536D02*
X6722417Y-15820488D01*
X6722417Y-15820488D02*
X6712893Y-15782393D01*
X6712893Y-15782393D02*
X6712893Y-15734774D01*
X6712893Y-15734774D02*
X6722417Y-15696679D01*
X6722417Y-15696679D02*
X6731941Y-15677631D01*
X6731941Y-15677631D02*
X6741465Y-15668108D01*
X6741465Y-15668108D02*
X6760512Y-15658584D01*
X6950989Y-15658584D02*
X6970036Y-15658584D01*
X6970036Y-15658584D02*
X6989084Y-15668108D01*
X6989084Y-15668108D02*
X6998608Y-15677631D01*
X6998608Y-15677631D02*
X7008132Y-15696679D01*
X7008132Y-15696679D02*
X7017655Y-15734774D01*
X7017655Y-15734774D02*
X7017655Y-15782393D01*
X7017655Y-15782393D02*
X7008132Y-15820488D01*
X7008132Y-15820488D02*
X6998608Y-15839536D01*
X6998608Y-15839536D02*
X6989084Y-15849060D01*
X6989084Y-15849060D02*
X6970036Y-15858584D01*
X6970036Y-15858584D02*
X6950989Y-15858584D01*
X6950989Y-15858584D02*
X6931941Y-15849060D01*
X6931941Y-15849060D02*
X6922417Y-15839536D01*
X6922417Y-15839536D02*
X6912893Y-15820488D01*
X6912893Y-15820488D02*
X6903370Y-15782393D01*
X6903370Y-15782393D02*
X6903370Y-15734774D01*
X6903370Y-15734774D02*
X6912893Y-15696679D01*
X6912893Y-15696679D02*
X6922417Y-15677631D01*
X6922417Y-15677631D02*
X6931941Y-15668108D01*
X6931941Y-15668108D02*
X6950989Y-15658584D01*
X7103370Y-15858584D02*
X7103370Y-15725250D01*
X7103370Y-15744298D02*
X7112893Y-15734774D01*
X7112893Y-15734774D02*
X7131941Y-15725250D01*
X7131941Y-15725250D02*
X7160513Y-15725250D01*
X7160513Y-15725250D02*
X7179560Y-15734774D01*
X7179560Y-15734774D02*
X7189084Y-15753822D01*
X7189084Y-15753822D02*
X7189084Y-15858584D01*
X7189084Y-15753822D02*
X7198608Y-15734774D01*
X7198608Y-15734774D02*
X7217655Y-15725250D01*
X7217655Y-15725250D02*
X7246227Y-15725250D01*
X7246227Y-15725250D02*
X7265274Y-15734774D01*
X7265274Y-15734774D02*
X7274798Y-15753822D01*
X7274798Y-15753822D02*
X7274798Y-15858584D01*
X7370036Y-15858584D02*
X7370036Y-15725250D01*
X7370036Y-15744298D02*
X7379560Y-15734774D01*
X7379560Y-15734774D02*
X7398608Y-15725250D01*
X7398608Y-15725250D02*
X7427179Y-15725250D01*
X7427179Y-15725250D02*
X7446227Y-15734774D01*
X7446227Y-15734774D02*
X7455751Y-15753822D01*
X7455751Y-15753822D02*
X7455751Y-15858584D01*
X7455751Y-15753822D02*
X7465274Y-15734774D01*
X7465274Y-15734774D02*
X7484322Y-15725250D01*
X7484322Y-15725250D02*
X7512893Y-15725250D01*
X7512893Y-15725250D02*
X7531941Y-15734774D01*
X7531941Y-15734774D02*
X7541465Y-15753822D01*
X7541465Y-15753822D02*
X7541465Y-15858584D01*
X7931941Y-15649060D02*
X7760513Y-15906203D01*
X8189084Y-15658584D02*
X8208132Y-15658584D01*
X8208132Y-15658584D02*
X8227179Y-15668108D01*
X8227179Y-15668108D02*
X8236703Y-15677631D01*
X8236703Y-15677631D02*
X8246227Y-15696679D01*
X8246227Y-15696679D02*
X8255751Y-15734774D01*
X8255751Y-15734774D02*
X8255751Y-15782393D01*
X8255751Y-15782393D02*
X8246227Y-15820488D01*
X8246227Y-15820488D02*
X8236703Y-15839536D01*
X8236703Y-15839536D02*
X8227179Y-15849060D01*
X8227179Y-15849060D02*
X8208132Y-15858584D01*
X8208132Y-15858584D02*
X8189084Y-15858584D01*
X8189084Y-15858584D02*
X8170036Y-15849060D01*
X8170036Y-15849060D02*
X8160513Y-15839536D01*
X8160513Y-15839536D02*
X8150989Y-15820488D01*
X8150989Y-15820488D02*
X8141465Y-15782393D01*
X8141465Y-15782393D02*
X8141465Y-15734774D01*
X8141465Y-15734774D02*
X8150989Y-15696679D01*
X8150989Y-15696679D02*
X8160513Y-15677631D01*
X8160513Y-15677631D02*
X8170036Y-15668108D01*
X8170036Y-15668108D02*
X8189084Y-15658584D01*
X8341465Y-15839536D02*
X8350989Y-15849060D01*
X8350989Y-15849060D02*
X8341465Y-15858584D01*
X8341465Y-15858584D02*
X8331941Y-15849060D01*
X8331941Y-15849060D02*
X8341465Y-15839536D01*
X8341465Y-15839536D02*
X8341465Y-15858584D01*
X8474798Y-15658584D02*
X8493846Y-15658584D01*
X8493846Y-15658584D02*
X8512894Y-15668108D01*
X8512894Y-15668108D02*
X8522418Y-15677631D01*
X8522418Y-15677631D02*
X8531941Y-15696679D01*
X8531941Y-15696679D02*
X8541465Y-15734774D01*
X8541465Y-15734774D02*
X8541465Y-15782393D01*
X8541465Y-15782393D02*
X8531941Y-15820488D01*
X8531941Y-15820488D02*
X8522418Y-15839536D01*
X8522418Y-15839536D02*
X8512894Y-15849060D01*
X8512894Y-15849060D02*
X8493846Y-15858584D01*
X8493846Y-15858584D02*
X8474798Y-15858584D01*
X8474798Y-15858584D02*
X8455751Y-15849060D01*
X8455751Y-15849060D02*
X8446227Y-15839536D01*
X8446227Y-15839536D02*
X8436703Y-15820488D01*
X8436703Y-15820488D02*
X8427179Y-15782393D01*
X8427179Y-15782393D02*
X8427179Y-15734774D01*
X8427179Y-15734774D02*
X8436703Y-15696679D01*
X8436703Y-15696679D02*
X8446227Y-15677631D01*
X8446227Y-15677631D02*
X8455751Y-15668108D01*
X8455751Y-15668108D02*
X8474798Y-15658584D01*
X8731941Y-15858584D02*
X8617656Y-15858584D01*
X8674798Y-15858584D02*
X8674798Y-15658584D01*
X8674798Y-15658584D02*
X8655751Y-15687155D01*
X8655751Y-15687155D02*
X8636703Y-15706203D01*
X8636703Y-15706203D02*
X8617656Y-15715727D01*
X8922418Y-15858584D02*
X8808132Y-15858584D01*
X8865275Y-15858584D02*
X8865275Y-15658584D01*
X8865275Y-15658584D02*
X8846227Y-15687155D01*
X8846227Y-15687155D02*
X8827179Y-15706203D01*
X8827179Y-15706203D02*
X8808132Y-15715727D01*
X9036703Y-15744298D02*
X9017656Y-15734774D01*
X9017656Y-15734774D02*
X9008132Y-15725250D01*
X9008132Y-15725250D02*
X8998608Y-15706203D01*
X8998608Y-15706203D02*
X8998608Y-15696679D01*
X8998608Y-15696679D02*
X9008132Y-15677631D01*
X9008132Y-15677631D02*
X9017656Y-15668108D01*
X9017656Y-15668108D02*
X9036703Y-15658584D01*
X9036703Y-15658584D02*
X9074799Y-15658584D01*
X9074799Y-15658584D02*
X9093846Y-15668108D01*
X9093846Y-15668108D02*
X9103370Y-15677631D01*
X9103370Y-15677631D02*
X9112894Y-15696679D01*
X9112894Y-15696679D02*
X9112894Y-15706203D01*
X9112894Y-15706203D02*
X9103370Y-15725250D01*
X9103370Y-15725250D02*
X9093846Y-15734774D01*
X9093846Y-15734774D02*
X9074799Y-15744298D01*
X9074799Y-15744298D02*
X9036703Y-15744298D01*
X9036703Y-15744298D02*
X9017656Y-15753822D01*
X9017656Y-15753822D02*
X9008132Y-15763346D01*
X9008132Y-15763346D02*
X8998608Y-15782393D01*
X8998608Y-15782393D02*
X8998608Y-15820488D01*
X8998608Y-15820488D02*
X9008132Y-15839536D01*
X9008132Y-15839536D02*
X9017656Y-15849060D01*
X9017656Y-15849060D02*
X9036703Y-15858584D01*
X9036703Y-15858584D02*
X9074799Y-15858584D01*
X9074799Y-15858584D02*
X9093846Y-15849060D01*
X9093846Y-15849060D02*
X9103370Y-15839536D01*
X9103370Y-15839536D02*
X9112894Y-15820488D01*
X9112894Y-15820488D02*
X9112894Y-15782393D01*
X9112894Y-15782393D02*
X9103370Y-15763346D01*
X9103370Y-15763346D02*
X9093846Y-15753822D01*
X9093846Y-15753822D02*
X9074799Y-15744298D01*
X9189084Y-15658584D02*
X9189084Y-15696679D01*
X9265275Y-15658584D02*
X9265275Y-15696679D01*
X9560513Y-15934774D02*
X9550989Y-15925250D01*
X9550989Y-15925250D02*
X9531941Y-15896679D01*
X9531941Y-15896679D02*
X9522418Y-15877631D01*
X9522418Y-15877631D02*
X9512894Y-15849060D01*
X9512894Y-15849060D02*
X9503370Y-15801441D01*
X9503370Y-15801441D02*
X9503370Y-15763346D01*
X9503370Y-15763346D02*
X9512894Y-15715727D01*
X9512894Y-15715727D02*
X9522418Y-15687155D01*
X9522418Y-15687155D02*
X9531941Y-15668108D01*
X9531941Y-15668108D02*
X9550989Y-15639536D01*
X9550989Y-15639536D02*
X9560513Y-15630012D01*
X9741465Y-15858584D02*
X9627180Y-15858584D01*
X9684322Y-15858584D02*
X9684322Y-15658584D01*
X9684322Y-15658584D02*
X9665275Y-15687155D01*
X9665275Y-15687155D02*
X9646227Y-15706203D01*
X9646227Y-15706203D02*
X9627180Y-15715727D01*
X9931941Y-15858584D02*
X9817656Y-15858584D01*
X9874799Y-15858584D02*
X9874799Y-15658584D01*
X9874799Y-15658584D02*
X9855751Y-15687155D01*
X9855751Y-15687155D02*
X9836703Y-15706203D01*
X9836703Y-15706203D02*
X9817656Y-15715727D01*
X10170037Y-15858584D02*
X10170037Y-15658584D01*
X10255751Y-15858584D02*
X10255751Y-15753822D01*
X10255751Y-15753822D02*
X10246227Y-15734774D01*
X10246227Y-15734774D02*
X10227180Y-15725250D01*
X10227180Y-15725250D02*
X10198608Y-15725250D01*
X10198608Y-15725250D02*
X10179561Y-15734774D01*
X10179561Y-15734774D02*
X10170037Y-15744298D01*
X10379561Y-15858584D02*
X10360513Y-15849060D01*
X10360513Y-15849060D02*
X10350989Y-15839536D01*
X10350989Y-15839536D02*
X10341465Y-15820488D01*
X10341465Y-15820488D02*
X10341465Y-15763346D01*
X10341465Y-15763346D02*
X10350989Y-15744298D01*
X10350989Y-15744298D02*
X10360513Y-15734774D01*
X10360513Y-15734774D02*
X10379561Y-15725250D01*
X10379561Y-15725250D02*
X10408132Y-15725250D01*
X10408132Y-15725250D02*
X10427180Y-15734774D01*
X10427180Y-15734774D02*
X10436703Y-15744298D01*
X10436703Y-15744298D02*
X10446227Y-15763346D01*
X10446227Y-15763346D02*
X10446227Y-15820488D01*
X10446227Y-15820488D02*
X10436703Y-15839536D01*
X10436703Y-15839536D02*
X10427180Y-15849060D01*
X10427180Y-15849060D02*
X10408132Y-15858584D01*
X10408132Y-15858584D02*
X10379561Y-15858584D01*
X10560513Y-15858584D02*
X10541465Y-15849060D01*
X10541465Y-15849060D02*
X10531942Y-15830012D01*
X10531942Y-15830012D02*
X10531942Y-15658584D01*
X10712894Y-15849060D02*
X10693846Y-15858584D01*
X10693846Y-15858584D02*
X10655751Y-15858584D01*
X10655751Y-15858584D02*
X10636703Y-15849060D01*
X10636703Y-15849060D02*
X10627180Y-15830012D01*
X10627180Y-15830012D02*
X10627180Y-15753822D01*
X10627180Y-15753822D02*
X10636703Y-15734774D01*
X10636703Y-15734774D02*
X10655751Y-15725250D01*
X10655751Y-15725250D02*
X10693846Y-15725250D01*
X10693846Y-15725250D02*
X10712894Y-15734774D01*
X10712894Y-15734774D02*
X10722418Y-15753822D01*
X10722418Y-15753822D02*
X10722418Y-15772869D01*
X10722418Y-15772869D02*
X10627180Y-15791917D01*
X10798608Y-15849060D02*
X10817656Y-15858584D01*
X10817656Y-15858584D02*
X10855751Y-15858584D01*
X10855751Y-15858584D02*
X10874799Y-15849060D01*
X10874799Y-15849060D02*
X10884323Y-15830012D01*
X10884323Y-15830012D02*
X10884323Y-15820488D01*
X10884323Y-15820488D02*
X10874799Y-15801441D01*
X10874799Y-15801441D02*
X10855751Y-15791917D01*
X10855751Y-15791917D02*
X10827180Y-15791917D01*
X10827180Y-15791917D02*
X10808132Y-15782393D01*
X10808132Y-15782393D02*
X10798608Y-15763346D01*
X10798608Y-15763346D02*
X10798608Y-15753822D01*
X10798608Y-15753822D02*
X10808132Y-15734774D01*
X10808132Y-15734774D02*
X10827180Y-15725250D01*
X10827180Y-15725250D02*
X10855751Y-15725250D01*
X10855751Y-15725250D02*
X10874799Y-15734774D01*
X10950989Y-15934774D02*
X10960513Y-15925250D01*
X10960513Y-15925250D02*
X10979561Y-15896679D01*
X10979561Y-15896679D02*
X10989084Y-15877631D01*
X10989084Y-15877631D02*
X10998608Y-15849060D01*
X10998608Y-15849060D02*
X11008132Y-15801441D01*
X11008132Y-15801441D02*
X11008132Y-15763346D01*
X11008132Y-15763346D02*
X10998608Y-15715727D01*
X10998608Y-15715727D02*
X10989084Y-15687155D01*
X10989084Y-15687155D02*
X10979561Y-15668108D01*
X10979561Y-15668108D02*
X10960513Y-15639536D01*
X10960513Y-15639536D02*
X10950989Y-15630012D01*
D12*
X5965450Y-16011100D02*
X5965450Y-16051100D01*
X5945450Y-16031100D02*
X5985450Y-16031100D01*
D11*
X6284322Y-15922584D02*
X6303370Y-15922584D01*
X6303370Y-15922584D02*
X6322417Y-15932108D01*
X6322417Y-15932108D02*
X6331941Y-15941631D01*
X6331941Y-15941631D02*
X6341465Y-15960679D01*
X6341465Y-15960679D02*
X6350989Y-15998774D01*
X6350989Y-15998774D02*
X6350989Y-16046393D01*
X6350989Y-16046393D02*
X6341465Y-16084488D01*
X6341465Y-16084488D02*
X6331941Y-16103536D01*
X6331941Y-16103536D02*
X6322417Y-16113060D01*
X6322417Y-16113060D02*
X6303370Y-16122584D01*
X6303370Y-16122584D02*
X6284322Y-16122584D01*
X6284322Y-16122584D02*
X6265274Y-16113060D01*
X6265274Y-16113060D02*
X6255751Y-16103536D01*
X6255751Y-16103536D02*
X6246227Y-16084488D01*
X6246227Y-16084488D02*
X6236703Y-16046393D01*
X6236703Y-16046393D02*
X6236703Y-15998774D01*
X6236703Y-15998774D02*
X6246227Y-15960679D01*
X6246227Y-15960679D02*
X6255751Y-15941631D01*
X6255751Y-15941631D02*
X6265274Y-15932108D01*
X6265274Y-15932108D02*
X6284322Y-15922584D01*
X6436703Y-16103536D02*
X6446227Y-16113060D01*
X6446227Y-16113060D02*
X6436703Y-16122584D01*
X6436703Y-16122584D02*
X6427179Y-16113060D01*
X6427179Y-16113060D02*
X6436703Y-16103536D01*
X6436703Y-16103536D02*
X6436703Y-16122584D01*
X6617655Y-15989250D02*
X6617655Y-16122584D01*
X6570036Y-15913060D02*
X6522417Y-16055917D01*
X6522417Y-16055917D02*
X6646227Y-16055917D01*
X6760512Y-15922584D02*
X6779560Y-15922584D01*
X6779560Y-15922584D02*
X6798608Y-15932108D01*
X6798608Y-15932108D02*
X6808132Y-15941631D01*
X6808132Y-15941631D02*
X6817655Y-15960679D01*
X6817655Y-15960679D02*
X6827179Y-15998774D01*
X6827179Y-15998774D02*
X6827179Y-16046393D01*
X6827179Y-16046393D02*
X6817655Y-16084488D01*
X6817655Y-16084488D02*
X6808132Y-16103536D01*
X6808132Y-16103536D02*
X6798608Y-16113060D01*
X6798608Y-16113060D02*
X6779560Y-16122584D01*
X6779560Y-16122584D02*
X6760512Y-16122584D01*
X6760512Y-16122584D02*
X6741465Y-16113060D01*
X6741465Y-16113060D02*
X6731941Y-16103536D01*
X6731941Y-16103536D02*
X6722417Y-16084488D01*
X6722417Y-16084488D02*
X6712893Y-16046393D01*
X6712893Y-16046393D02*
X6712893Y-15998774D01*
X6712893Y-15998774D02*
X6722417Y-15960679D01*
X6722417Y-15960679D02*
X6731941Y-15941631D01*
X6731941Y-15941631D02*
X6741465Y-15932108D01*
X6741465Y-15932108D02*
X6760512Y-15922584D01*
X6950989Y-15922584D02*
X6970036Y-15922584D01*
X6970036Y-15922584D02*
X6989084Y-15932108D01*
X6989084Y-15932108D02*
X6998608Y-15941631D01*
X6998608Y-15941631D02*
X7008132Y-15960679D01*
X7008132Y-15960679D02*
X7017655Y-15998774D01*
X7017655Y-15998774D02*
X7017655Y-16046393D01*
X7017655Y-16046393D02*
X7008132Y-16084488D01*
X7008132Y-16084488D02*
X6998608Y-16103536D01*
X6998608Y-16103536D02*
X6989084Y-16113060D01*
X6989084Y-16113060D02*
X6970036Y-16122584D01*
X6970036Y-16122584D02*
X6950989Y-16122584D01*
X6950989Y-16122584D02*
X6931941Y-16113060D01*
X6931941Y-16113060D02*
X6922417Y-16103536D01*
X6922417Y-16103536D02*
X6912893Y-16084488D01*
X6912893Y-16084488D02*
X6903370Y-16046393D01*
X6903370Y-16046393D02*
X6903370Y-15998774D01*
X6903370Y-15998774D02*
X6912893Y-15960679D01*
X6912893Y-15960679D02*
X6922417Y-15941631D01*
X6922417Y-15941631D02*
X6931941Y-15932108D01*
X6931941Y-15932108D02*
X6950989Y-15922584D01*
X7103370Y-16122584D02*
X7103370Y-15989250D01*
X7103370Y-16008298D02*
X7112893Y-15998774D01*
X7112893Y-15998774D02*
X7131941Y-15989250D01*
X7131941Y-15989250D02*
X7160513Y-15989250D01*
X7160513Y-15989250D02*
X7179560Y-15998774D01*
X7179560Y-15998774D02*
X7189084Y-16017822D01*
X7189084Y-16017822D02*
X7189084Y-16122584D01*
X7189084Y-16017822D02*
X7198608Y-15998774D01*
X7198608Y-15998774D02*
X7217655Y-15989250D01*
X7217655Y-15989250D02*
X7246227Y-15989250D01*
X7246227Y-15989250D02*
X7265274Y-15998774D01*
X7265274Y-15998774D02*
X7274798Y-16017822D01*
X7274798Y-16017822D02*
X7274798Y-16122584D01*
X7370036Y-16122584D02*
X7370036Y-15989250D01*
X7370036Y-16008298D02*
X7379560Y-15998774D01*
X7379560Y-15998774D02*
X7398608Y-15989250D01*
X7398608Y-15989250D02*
X7427179Y-15989250D01*
X7427179Y-15989250D02*
X7446227Y-15998774D01*
X7446227Y-15998774D02*
X7455751Y-16017822D01*
X7455751Y-16017822D02*
X7455751Y-16122584D01*
X7455751Y-16017822D02*
X7465274Y-15998774D01*
X7465274Y-15998774D02*
X7484322Y-15989250D01*
X7484322Y-15989250D02*
X7512893Y-15989250D01*
X7512893Y-15989250D02*
X7531941Y-15998774D01*
X7531941Y-15998774D02*
X7541465Y-16017822D01*
X7541465Y-16017822D02*
X7541465Y-16122584D01*
X7931941Y-15913060D02*
X7760513Y-16170203D01*
X8189084Y-15922584D02*
X8208132Y-15922584D01*
X8208132Y-15922584D02*
X8227179Y-15932108D01*
X8227179Y-15932108D02*
X8236703Y-15941631D01*
X8236703Y-15941631D02*
X8246227Y-15960679D01*
X8246227Y-15960679D02*
X8255751Y-15998774D01*
X8255751Y-15998774D02*
X8255751Y-16046393D01*
X8255751Y-16046393D02*
X8246227Y-16084488D01*
X8246227Y-16084488D02*
X8236703Y-16103536D01*
X8236703Y-16103536D02*
X8227179Y-16113060D01*
X8227179Y-16113060D02*
X8208132Y-16122584D01*
X8208132Y-16122584D02*
X8189084Y-16122584D01*
X8189084Y-16122584D02*
X8170036Y-16113060D01*
X8170036Y-16113060D02*
X8160513Y-16103536D01*
X8160513Y-16103536D02*
X8150989Y-16084488D01*
X8150989Y-16084488D02*
X8141465Y-16046393D01*
X8141465Y-16046393D02*
X8141465Y-15998774D01*
X8141465Y-15998774D02*
X8150989Y-15960679D01*
X8150989Y-15960679D02*
X8160513Y-15941631D01*
X8160513Y-15941631D02*
X8170036Y-15932108D01*
X8170036Y-15932108D02*
X8189084Y-15922584D01*
X8341465Y-16103536D02*
X8350989Y-16113060D01*
X8350989Y-16113060D02*
X8341465Y-16122584D01*
X8341465Y-16122584D02*
X8331941Y-16113060D01*
X8331941Y-16113060D02*
X8341465Y-16103536D01*
X8341465Y-16103536D02*
X8341465Y-16122584D01*
X8474798Y-15922584D02*
X8493846Y-15922584D01*
X8493846Y-15922584D02*
X8512894Y-15932108D01*
X8512894Y-15932108D02*
X8522418Y-15941631D01*
X8522418Y-15941631D02*
X8531941Y-15960679D01*
X8531941Y-15960679D02*
X8541465Y-15998774D01*
X8541465Y-15998774D02*
X8541465Y-16046393D01*
X8541465Y-16046393D02*
X8531941Y-16084488D01*
X8531941Y-16084488D02*
X8522418Y-16103536D01*
X8522418Y-16103536D02*
X8512894Y-16113060D01*
X8512894Y-16113060D02*
X8493846Y-16122584D01*
X8493846Y-16122584D02*
X8474798Y-16122584D01*
X8474798Y-16122584D02*
X8455751Y-16113060D01*
X8455751Y-16113060D02*
X8446227Y-16103536D01*
X8446227Y-16103536D02*
X8436703Y-16084488D01*
X8436703Y-16084488D02*
X8427179Y-16046393D01*
X8427179Y-16046393D02*
X8427179Y-15998774D01*
X8427179Y-15998774D02*
X8436703Y-15960679D01*
X8436703Y-15960679D02*
X8446227Y-15941631D01*
X8446227Y-15941631D02*
X8455751Y-15932108D01*
X8455751Y-15932108D02*
X8474798Y-15922584D01*
X8731941Y-16122584D02*
X8617656Y-16122584D01*
X8674798Y-16122584D02*
X8674798Y-15922584D01*
X8674798Y-15922584D02*
X8655751Y-15951155D01*
X8655751Y-15951155D02*
X8636703Y-15970203D01*
X8636703Y-15970203D02*
X8617656Y-15979727D01*
X8912894Y-15922584D02*
X8817656Y-15922584D01*
X8817656Y-15922584D02*
X8808132Y-16017822D01*
X8808132Y-16017822D02*
X8817656Y-16008298D01*
X8817656Y-16008298D02*
X8836703Y-15998774D01*
X8836703Y-15998774D02*
X8884322Y-15998774D01*
X8884322Y-15998774D02*
X8903370Y-16008298D01*
X8903370Y-16008298D02*
X8912894Y-16017822D01*
X8912894Y-16017822D02*
X8922418Y-16036869D01*
X8922418Y-16036869D02*
X8922418Y-16084488D01*
X8922418Y-16084488D02*
X8912894Y-16103536D01*
X8912894Y-16103536D02*
X8903370Y-16113060D01*
X8903370Y-16113060D02*
X8884322Y-16122584D01*
X8884322Y-16122584D02*
X8836703Y-16122584D01*
X8836703Y-16122584D02*
X8817656Y-16113060D01*
X8817656Y-16113060D02*
X8808132Y-16103536D01*
X8989084Y-15922584D02*
X9122418Y-15922584D01*
X9122418Y-15922584D02*
X9036703Y-16122584D01*
X9189084Y-15922584D02*
X9189084Y-15960679D01*
X9265275Y-15922584D02*
X9265275Y-15960679D01*
X9560513Y-16198774D02*
X9550989Y-16189250D01*
X9550989Y-16189250D02*
X9531941Y-16160679D01*
X9531941Y-16160679D02*
X9522418Y-16141631D01*
X9522418Y-16141631D02*
X9512894Y-16113060D01*
X9512894Y-16113060D02*
X9503370Y-16065441D01*
X9503370Y-16065441D02*
X9503370Y-16027346D01*
X9503370Y-16027346D02*
X9512894Y-15979727D01*
X9512894Y-15979727D02*
X9522418Y-15951155D01*
X9522418Y-15951155D02*
X9531941Y-15932108D01*
X9531941Y-15932108D02*
X9550989Y-15903536D01*
X9550989Y-15903536D02*
X9560513Y-15894012D01*
X9627180Y-15941631D02*
X9636703Y-15932108D01*
X9636703Y-15932108D02*
X9655751Y-15922584D01*
X9655751Y-15922584D02*
X9703370Y-15922584D01*
X9703370Y-15922584D02*
X9722418Y-15932108D01*
X9722418Y-15932108D02*
X9731941Y-15941631D01*
X9731941Y-15941631D02*
X9741465Y-15960679D01*
X9741465Y-15960679D02*
X9741465Y-15979727D01*
X9741465Y-15979727D02*
X9731941Y-16008298D01*
X9731941Y-16008298D02*
X9617656Y-16122584D01*
X9617656Y-16122584D02*
X9741465Y-16122584D01*
X9912894Y-15922584D02*
X9874799Y-15922584D01*
X9874799Y-15922584D02*
X9855751Y-15932108D01*
X9855751Y-15932108D02*
X9846227Y-15941631D01*
X9846227Y-15941631D02*
X9827180Y-15970203D01*
X9827180Y-15970203D02*
X9817656Y-16008298D01*
X9817656Y-16008298D02*
X9817656Y-16084488D01*
X9817656Y-16084488D02*
X9827180Y-16103536D01*
X9827180Y-16103536D02*
X9836703Y-16113060D01*
X9836703Y-16113060D02*
X9855751Y-16122584D01*
X9855751Y-16122584D02*
X9893846Y-16122584D01*
X9893846Y-16122584D02*
X9912894Y-16113060D01*
X9912894Y-16113060D02*
X9922418Y-16103536D01*
X9922418Y-16103536D02*
X9931941Y-16084488D01*
X9931941Y-16084488D02*
X9931941Y-16036869D01*
X9931941Y-16036869D02*
X9922418Y-16017822D01*
X9922418Y-16017822D02*
X9912894Y-16008298D01*
X9912894Y-16008298D02*
X9893846Y-15998774D01*
X9893846Y-15998774D02*
X9855751Y-15998774D01*
X9855751Y-15998774D02*
X9836703Y-16008298D01*
X9836703Y-16008298D02*
X9827180Y-16017822D01*
X9827180Y-16017822D02*
X9817656Y-16036869D01*
X9998608Y-15922584D02*
X10131941Y-15922584D01*
X10131941Y-15922584D02*
X10046227Y-16122584D01*
X10360513Y-16122584D02*
X10360513Y-15922584D01*
X10446227Y-16122584D02*
X10446227Y-16017822D01*
X10446227Y-16017822D02*
X10436703Y-15998774D01*
X10436703Y-15998774D02*
X10417656Y-15989250D01*
X10417656Y-15989250D02*
X10389084Y-15989250D01*
X10389084Y-15989250D02*
X10370037Y-15998774D01*
X10370037Y-15998774D02*
X10360513Y-16008298D01*
X10570037Y-16122584D02*
X10550989Y-16113060D01*
X10550989Y-16113060D02*
X10541465Y-16103536D01*
X10541465Y-16103536D02*
X10531942Y-16084488D01*
X10531942Y-16084488D02*
X10531942Y-16027346D01*
X10531942Y-16027346D02*
X10541465Y-16008298D01*
X10541465Y-16008298D02*
X10550989Y-15998774D01*
X10550989Y-15998774D02*
X10570037Y-15989250D01*
X10570037Y-15989250D02*
X10598608Y-15989250D01*
X10598608Y-15989250D02*
X10617656Y-15998774D01*
X10617656Y-15998774D02*
X10627180Y-16008298D01*
X10627180Y-16008298D02*
X10636703Y-16027346D01*
X10636703Y-16027346D02*
X10636703Y-16084488D01*
X10636703Y-16084488D02*
X10627180Y-16103536D01*
X10627180Y-16103536D02*
X10617656Y-16113060D01*
X10617656Y-16113060D02*
X10598608Y-16122584D01*
X10598608Y-16122584D02*
X10570037Y-16122584D01*
X10750989Y-16122584D02*
X10731942Y-16113060D01*
X10731942Y-16113060D02*
X10722418Y-16094012D01*
X10722418Y-16094012D02*
X10722418Y-15922584D01*
X10903370Y-16113060D02*
X10884323Y-16122584D01*
X10884323Y-16122584D02*
X10846227Y-16122584D01*
X10846227Y-16122584D02*
X10827180Y-16113060D01*
X10827180Y-16113060D02*
X10817656Y-16094012D01*
X10817656Y-16094012D02*
X10817656Y-16017822D01*
X10817656Y-16017822D02*
X10827180Y-15998774D01*
X10827180Y-15998774D02*
X10846227Y-15989250D01*
X10846227Y-15989250D02*
X10884323Y-15989250D01*
X10884323Y-15989250D02*
X10903370Y-15998774D01*
X10903370Y-15998774D02*
X10912894Y-16017822D01*
X10912894Y-16017822D02*
X10912894Y-16036869D01*
X10912894Y-16036869D02*
X10817656Y-16055917D01*
X10989084Y-16113060D02*
X11008132Y-16122584D01*
X11008132Y-16122584D02*
X11046227Y-16122584D01*
X11046227Y-16122584D02*
X11065275Y-16113060D01*
X11065275Y-16113060D02*
X11074799Y-16094012D01*
X11074799Y-16094012D02*
X11074799Y-16084488D01*
X11074799Y-16084488D02*
X11065275Y-16065441D01*
X11065275Y-16065441D02*
X11046227Y-16055917D01*
X11046227Y-16055917D02*
X11017656Y-16055917D01*
X11017656Y-16055917D02*
X10998608Y-16046393D01*
X10998608Y-16046393D02*
X10989084Y-16027346D01*
X10989084Y-16027346D02*
X10989084Y-16017822D01*
X10989084Y-16017822D02*
X10998608Y-15998774D01*
X10998608Y-15998774D02*
X11017656Y-15989250D01*
X11017656Y-15989250D02*
X11046227Y-15989250D01*
X11046227Y-15989250D02*
X11065275Y-15998774D01*
X11141465Y-16198774D02*
X11150989Y-16189250D01*
X11150989Y-16189250D02*
X11170037Y-16160679D01*
X11170037Y-16160679D02*
X11179561Y-16141631D01*
X11179561Y-16141631D02*
X11189084Y-16113060D01*
X11189084Y-16113060D02*
X11198608Y-16065441D01*
X11198608Y-16065441D02*
X11198608Y-16027346D01*
X11198608Y-16027346D02*
X11189084Y-15979727D01*
X11189084Y-15979727D02*
X11179561Y-15951155D01*
X11179561Y-15951155D02*
X11170037Y-15932108D01*
X11170037Y-15932108D02*
X11150989Y-15903536D01*
X11150989Y-15903536D02*
X11141465Y-15894012D01*
D12*
X5976663Y-16316313D02*
X5976663Y-16273887D01*
X5934237Y-16273887D01*
X5934237Y-16316313D01*
X5976663Y-16316313D01*
D11*
X6284322Y-16186584D02*
X6303370Y-16186584D01*
X6303370Y-16186584D02*
X6322417Y-16196108D01*
X6322417Y-16196108D02*
X6331941Y-16205631D01*
X6331941Y-16205631D02*
X6341465Y-16224679D01*
X6341465Y-16224679D02*
X6350989Y-16262774D01*
X6350989Y-16262774D02*
X6350989Y-16310393D01*
X6350989Y-16310393D02*
X6341465Y-16348488D01*
X6341465Y-16348488D02*
X6331941Y-16367536D01*
X6331941Y-16367536D02*
X6322417Y-16377060D01*
X6322417Y-16377060D02*
X6303370Y-16386584D01*
X6303370Y-16386584D02*
X6284322Y-16386584D01*
X6284322Y-16386584D02*
X6265274Y-16377060D01*
X6265274Y-16377060D02*
X6255751Y-16367536D01*
X6255751Y-16367536D02*
X6246227Y-16348488D01*
X6246227Y-16348488D02*
X6236703Y-16310393D01*
X6236703Y-16310393D02*
X6236703Y-16262774D01*
X6236703Y-16262774D02*
X6246227Y-16224679D01*
X6246227Y-16224679D02*
X6255751Y-16205631D01*
X6255751Y-16205631D02*
X6265274Y-16196108D01*
X6265274Y-16196108D02*
X6284322Y-16186584D01*
X6436703Y-16367536D02*
X6446227Y-16377060D01*
X6446227Y-16377060D02*
X6436703Y-16386584D01*
X6436703Y-16386584D02*
X6427179Y-16377060D01*
X6427179Y-16377060D02*
X6436703Y-16367536D01*
X6436703Y-16367536D02*
X6436703Y-16386584D01*
X6617655Y-16186584D02*
X6579560Y-16186584D01*
X6579560Y-16186584D02*
X6560512Y-16196108D01*
X6560512Y-16196108D02*
X6550989Y-16205631D01*
X6550989Y-16205631D02*
X6531941Y-16234203D01*
X6531941Y-16234203D02*
X6522417Y-16272298D01*
X6522417Y-16272298D02*
X6522417Y-16348488D01*
X6522417Y-16348488D02*
X6531941Y-16367536D01*
X6531941Y-16367536D02*
X6541465Y-16377060D01*
X6541465Y-16377060D02*
X6560512Y-16386584D01*
X6560512Y-16386584D02*
X6598608Y-16386584D01*
X6598608Y-16386584D02*
X6617655Y-16377060D01*
X6617655Y-16377060D02*
X6627179Y-16367536D01*
X6627179Y-16367536D02*
X6636703Y-16348488D01*
X6636703Y-16348488D02*
X6636703Y-16300869D01*
X6636703Y-16300869D02*
X6627179Y-16281822D01*
X6627179Y-16281822D02*
X6617655Y-16272298D01*
X6617655Y-16272298D02*
X6598608Y-16262774D01*
X6598608Y-16262774D02*
X6560512Y-16262774D01*
X6560512Y-16262774D02*
X6541465Y-16272298D01*
X6541465Y-16272298D02*
X6531941Y-16281822D01*
X6531941Y-16281822D02*
X6522417Y-16300869D01*
X6760512Y-16186584D02*
X6779560Y-16186584D01*
X6779560Y-16186584D02*
X6798608Y-16196108D01*
X6798608Y-16196108D02*
X6808132Y-16205631D01*
X6808132Y-16205631D02*
X6817655Y-16224679D01*
X6817655Y-16224679D02*
X6827179Y-16262774D01*
X6827179Y-16262774D02*
X6827179Y-16310393D01*
X6827179Y-16310393D02*
X6817655Y-16348488D01*
X6817655Y-16348488D02*
X6808132Y-16367536D01*
X6808132Y-16367536D02*
X6798608Y-16377060D01*
X6798608Y-16377060D02*
X6779560Y-16386584D01*
X6779560Y-16386584D02*
X6760512Y-16386584D01*
X6760512Y-16386584D02*
X6741465Y-16377060D01*
X6741465Y-16377060D02*
X6731941Y-16367536D01*
X6731941Y-16367536D02*
X6722417Y-16348488D01*
X6722417Y-16348488D02*
X6712893Y-16310393D01*
X6712893Y-16310393D02*
X6712893Y-16262774D01*
X6712893Y-16262774D02*
X6722417Y-16224679D01*
X6722417Y-16224679D02*
X6731941Y-16205631D01*
X6731941Y-16205631D02*
X6741465Y-16196108D01*
X6741465Y-16196108D02*
X6760512Y-16186584D01*
X6950989Y-16186584D02*
X6970036Y-16186584D01*
X6970036Y-16186584D02*
X6989084Y-16196108D01*
X6989084Y-16196108D02*
X6998608Y-16205631D01*
X6998608Y-16205631D02*
X7008132Y-16224679D01*
X7008132Y-16224679D02*
X7017655Y-16262774D01*
X7017655Y-16262774D02*
X7017655Y-16310393D01*
X7017655Y-16310393D02*
X7008132Y-16348488D01*
X7008132Y-16348488D02*
X6998608Y-16367536D01*
X6998608Y-16367536D02*
X6989084Y-16377060D01*
X6989084Y-16377060D02*
X6970036Y-16386584D01*
X6970036Y-16386584D02*
X6950989Y-16386584D01*
X6950989Y-16386584D02*
X6931941Y-16377060D01*
X6931941Y-16377060D02*
X6922417Y-16367536D01*
X6922417Y-16367536D02*
X6912893Y-16348488D01*
X6912893Y-16348488D02*
X6903370Y-16310393D01*
X6903370Y-16310393D02*
X6903370Y-16262774D01*
X6903370Y-16262774D02*
X6912893Y-16224679D01*
X6912893Y-16224679D02*
X6922417Y-16205631D01*
X6922417Y-16205631D02*
X6931941Y-16196108D01*
X6931941Y-16196108D02*
X6950989Y-16186584D01*
X7103370Y-16386584D02*
X7103370Y-16253250D01*
X7103370Y-16272298D02*
X7112893Y-16262774D01*
X7112893Y-16262774D02*
X7131941Y-16253250D01*
X7131941Y-16253250D02*
X7160513Y-16253250D01*
X7160513Y-16253250D02*
X7179560Y-16262774D01*
X7179560Y-16262774D02*
X7189084Y-16281822D01*
X7189084Y-16281822D02*
X7189084Y-16386584D01*
X7189084Y-16281822D02*
X7198608Y-16262774D01*
X7198608Y-16262774D02*
X7217655Y-16253250D01*
X7217655Y-16253250D02*
X7246227Y-16253250D01*
X7246227Y-16253250D02*
X7265274Y-16262774D01*
X7265274Y-16262774D02*
X7274798Y-16281822D01*
X7274798Y-16281822D02*
X7274798Y-16386584D01*
X7370036Y-16386584D02*
X7370036Y-16253250D01*
X7370036Y-16272298D02*
X7379560Y-16262774D01*
X7379560Y-16262774D02*
X7398608Y-16253250D01*
X7398608Y-16253250D02*
X7427179Y-16253250D01*
X7427179Y-16253250D02*
X7446227Y-16262774D01*
X7446227Y-16262774D02*
X7455751Y-16281822D01*
X7455751Y-16281822D02*
X7455751Y-16386584D01*
X7455751Y-16281822D02*
X7465274Y-16262774D01*
X7465274Y-16262774D02*
X7484322Y-16253250D01*
X7484322Y-16253250D02*
X7512893Y-16253250D01*
X7512893Y-16253250D02*
X7531941Y-16262774D01*
X7531941Y-16262774D02*
X7541465Y-16281822D01*
X7541465Y-16281822D02*
X7541465Y-16386584D01*
X7931941Y-16177060D02*
X7760513Y-16434203D01*
X8189084Y-16186584D02*
X8208132Y-16186584D01*
X8208132Y-16186584D02*
X8227179Y-16196108D01*
X8227179Y-16196108D02*
X8236703Y-16205631D01*
X8236703Y-16205631D02*
X8246227Y-16224679D01*
X8246227Y-16224679D02*
X8255751Y-16262774D01*
X8255751Y-16262774D02*
X8255751Y-16310393D01*
X8255751Y-16310393D02*
X8246227Y-16348488D01*
X8246227Y-16348488D02*
X8236703Y-16367536D01*
X8236703Y-16367536D02*
X8227179Y-16377060D01*
X8227179Y-16377060D02*
X8208132Y-16386584D01*
X8208132Y-16386584D02*
X8189084Y-16386584D01*
X8189084Y-16386584D02*
X8170036Y-16377060D01*
X8170036Y-16377060D02*
X8160513Y-16367536D01*
X8160513Y-16367536D02*
X8150989Y-16348488D01*
X8150989Y-16348488D02*
X8141465Y-16310393D01*
X8141465Y-16310393D02*
X8141465Y-16262774D01*
X8141465Y-16262774D02*
X8150989Y-16224679D01*
X8150989Y-16224679D02*
X8160513Y-16205631D01*
X8160513Y-16205631D02*
X8170036Y-16196108D01*
X8170036Y-16196108D02*
X8189084Y-16186584D01*
X8341465Y-16367536D02*
X8350989Y-16377060D01*
X8350989Y-16377060D02*
X8341465Y-16386584D01*
X8341465Y-16386584D02*
X8331941Y-16377060D01*
X8331941Y-16377060D02*
X8341465Y-16367536D01*
X8341465Y-16367536D02*
X8341465Y-16386584D01*
X8474798Y-16186584D02*
X8493846Y-16186584D01*
X8493846Y-16186584D02*
X8512894Y-16196108D01*
X8512894Y-16196108D02*
X8522418Y-16205631D01*
X8522418Y-16205631D02*
X8531941Y-16224679D01*
X8531941Y-16224679D02*
X8541465Y-16262774D01*
X8541465Y-16262774D02*
X8541465Y-16310393D01*
X8541465Y-16310393D02*
X8531941Y-16348488D01*
X8531941Y-16348488D02*
X8522418Y-16367536D01*
X8522418Y-16367536D02*
X8512894Y-16377060D01*
X8512894Y-16377060D02*
X8493846Y-16386584D01*
X8493846Y-16386584D02*
X8474798Y-16386584D01*
X8474798Y-16386584D02*
X8455751Y-16377060D01*
X8455751Y-16377060D02*
X8446227Y-16367536D01*
X8446227Y-16367536D02*
X8436703Y-16348488D01*
X8436703Y-16348488D02*
X8427179Y-16310393D01*
X8427179Y-16310393D02*
X8427179Y-16262774D01*
X8427179Y-16262774D02*
X8436703Y-16224679D01*
X8436703Y-16224679D02*
X8446227Y-16205631D01*
X8446227Y-16205631D02*
X8455751Y-16196108D01*
X8455751Y-16196108D02*
X8474798Y-16186584D01*
X8617656Y-16205631D02*
X8627179Y-16196108D01*
X8627179Y-16196108D02*
X8646227Y-16186584D01*
X8646227Y-16186584D02*
X8693846Y-16186584D01*
X8693846Y-16186584D02*
X8712894Y-16196108D01*
X8712894Y-16196108D02*
X8722418Y-16205631D01*
X8722418Y-16205631D02*
X8731941Y-16224679D01*
X8731941Y-16224679D02*
X8731941Y-16243727D01*
X8731941Y-16243727D02*
X8722418Y-16272298D01*
X8722418Y-16272298D02*
X8608132Y-16386584D01*
X8608132Y-16386584D02*
X8731941Y-16386584D01*
X8798608Y-16186584D02*
X8922418Y-16186584D01*
X8922418Y-16186584D02*
X8855751Y-16262774D01*
X8855751Y-16262774D02*
X8884322Y-16262774D01*
X8884322Y-16262774D02*
X8903370Y-16272298D01*
X8903370Y-16272298D02*
X8912894Y-16281822D01*
X8912894Y-16281822D02*
X8922418Y-16300869D01*
X8922418Y-16300869D02*
X8922418Y-16348488D01*
X8922418Y-16348488D02*
X8912894Y-16367536D01*
X8912894Y-16367536D02*
X8903370Y-16377060D01*
X8903370Y-16377060D02*
X8884322Y-16386584D01*
X8884322Y-16386584D02*
X8827179Y-16386584D01*
X8827179Y-16386584D02*
X8808132Y-16377060D01*
X8808132Y-16377060D02*
X8798608Y-16367536D01*
X9093846Y-16186584D02*
X9055751Y-16186584D01*
X9055751Y-16186584D02*
X9036703Y-16196108D01*
X9036703Y-16196108D02*
X9027179Y-16205631D01*
X9027179Y-16205631D02*
X9008132Y-16234203D01*
X9008132Y-16234203D02*
X8998608Y-16272298D01*
X8998608Y-16272298D02*
X8998608Y-16348488D01*
X8998608Y-16348488D02*
X9008132Y-16367536D01*
X9008132Y-16367536D02*
X9017656Y-16377060D01*
X9017656Y-16377060D02*
X9036703Y-16386584D01*
X9036703Y-16386584D02*
X9074799Y-16386584D01*
X9074799Y-16386584D02*
X9093846Y-16377060D01*
X9093846Y-16377060D02*
X9103370Y-16367536D01*
X9103370Y-16367536D02*
X9112894Y-16348488D01*
X9112894Y-16348488D02*
X9112894Y-16300869D01*
X9112894Y-16300869D02*
X9103370Y-16281822D01*
X9103370Y-16281822D02*
X9093846Y-16272298D01*
X9093846Y-16272298D02*
X9074799Y-16262774D01*
X9074799Y-16262774D02*
X9036703Y-16262774D01*
X9036703Y-16262774D02*
X9017656Y-16272298D01*
X9017656Y-16272298D02*
X9008132Y-16281822D01*
X9008132Y-16281822D02*
X8998608Y-16300869D01*
X9189084Y-16186584D02*
X9189084Y-16224679D01*
X9265275Y-16186584D02*
X9265275Y-16224679D01*
X9560513Y-16462774D02*
X9550989Y-16453250D01*
X9550989Y-16453250D02*
X9531941Y-16424679D01*
X9531941Y-16424679D02*
X9522418Y-16405631D01*
X9522418Y-16405631D02*
X9512894Y-16377060D01*
X9512894Y-16377060D02*
X9503370Y-16329441D01*
X9503370Y-16329441D02*
X9503370Y-16291346D01*
X9503370Y-16291346D02*
X9512894Y-16243727D01*
X9512894Y-16243727D02*
X9522418Y-16215155D01*
X9522418Y-16215155D02*
X9531941Y-16196108D01*
X9531941Y-16196108D02*
X9550989Y-16167536D01*
X9550989Y-16167536D02*
X9560513Y-16158012D01*
X9674799Y-16186584D02*
X9693846Y-16186584D01*
X9693846Y-16186584D02*
X9712894Y-16196108D01*
X9712894Y-16196108D02*
X9722418Y-16205631D01*
X9722418Y-16205631D02*
X9731941Y-16224679D01*
X9731941Y-16224679D02*
X9741465Y-16262774D01*
X9741465Y-16262774D02*
X9741465Y-16310393D01*
X9741465Y-16310393D02*
X9731941Y-16348488D01*
X9731941Y-16348488D02*
X9722418Y-16367536D01*
X9722418Y-16367536D02*
X9712894Y-16377060D01*
X9712894Y-16377060D02*
X9693846Y-16386584D01*
X9693846Y-16386584D02*
X9674799Y-16386584D01*
X9674799Y-16386584D02*
X9655751Y-16377060D01*
X9655751Y-16377060D02*
X9646227Y-16367536D01*
X9646227Y-16367536D02*
X9636703Y-16348488D01*
X9636703Y-16348488D02*
X9627180Y-16310393D01*
X9627180Y-16310393D02*
X9627180Y-16262774D01*
X9627180Y-16262774D02*
X9636703Y-16224679D01*
X9636703Y-16224679D02*
X9646227Y-16205631D01*
X9646227Y-16205631D02*
X9655751Y-16196108D01*
X9655751Y-16196108D02*
X9674799Y-16186584D01*
X9979561Y-16386584D02*
X9979561Y-16186584D01*
X10065275Y-16386584D02*
X10065275Y-16281822D01*
X10065275Y-16281822D02*
X10055751Y-16262774D01*
X10055751Y-16262774D02*
X10036703Y-16253250D01*
X10036703Y-16253250D02*
X10008132Y-16253250D01*
X10008132Y-16253250D02*
X9989084Y-16262774D01*
X9989084Y-16262774D02*
X9979561Y-16272298D01*
X10189084Y-16386584D02*
X10170037Y-16377060D01*
X10170037Y-16377060D02*
X10160513Y-16367536D01*
X10160513Y-16367536D02*
X10150989Y-16348488D01*
X10150989Y-16348488D02*
X10150989Y-16291346D01*
X10150989Y-16291346D02*
X10160513Y-16272298D01*
X10160513Y-16272298D02*
X10170037Y-16262774D01*
X10170037Y-16262774D02*
X10189084Y-16253250D01*
X10189084Y-16253250D02*
X10217656Y-16253250D01*
X10217656Y-16253250D02*
X10236703Y-16262774D01*
X10236703Y-16262774D02*
X10246227Y-16272298D01*
X10246227Y-16272298D02*
X10255751Y-16291346D01*
X10255751Y-16291346D02*
X10255751Y-16348488D01*
X10255751Y-16348488D02*
X10246227Y-16367536D01*
X10246227Y-16367536D02*
X10236703Y-16377060D01*
X10236703Y-16377060D02*
X10217656Y-16386584D01*
X10217656Y-16386584D02*
X10189084Y-16386584D01*
X10370037Y-16386584D02*
X10350989Y-16377060D01*
X10350989Y-16377060D02*
X10341465Y-16358012D01*
X10341465Y-16358012D02*
X10341465Y-16186584D01*
X10522418Y-16377060D02*
X10503370Y-16386584D01*
X10503370Y-16386584D02*
X10465275Y-16386584D01*
X10465275Y-16386584D02*
X10446227Y-16377060D01*
X10446227Y-16377060D02*
X10436703Y-16358012D01*
X10436703Y-16358012D02*
X10436703Y-16281822D01*
X10436703Y-16281822D02*
X10446227Y-16262774D01*
X10446227Y-16262774D02*
X10465275Y-16253250D01*
X10465275Y-16253250D02*
X10503370Y-16253250D01*
X10503370Y-16253250D02*
X10522418Y-16262774D01*
X10522418Y-16262774D02*
X10531942Y-16281822D01*
X10531942Y-16281822D02*
X10531942Y-16300869D01*
X10531942Y-16300869D02*
X10436703Y-16319917D01*
X10608132Y-16377060D02*
X10627180Y-16386584D01*
X10627180Y-16386584D02*
X10665275Y-16386584D01*
X10665275Y-16386584D02*
X10684323Y-16377060D01*
X10684323Y-16377060D02*
X10693846Y-16358012D01*
X10693846Y-16358012D02*
X10693846Y-16348488D01*
X10693846Y-16348488D02*
X10684323Y-16329441D01*
X10684323Y-16329441D02*
X10665275Y-16319917D01*
X10665275Y-16319917D02*
X10636703Y-16319917D01*
X10636703Y-16319917D02*
X10617656Y-16310393D01*
X10617656Y-16310393D02*
X10608132Y-16291346D01*
X10608132Y-16291346D02*
X10608132Y-16281822D01*
X10608132Y-16281822D02*
X10617656Y-16262774D01*
X10617656Y-16262774D02*
X10636703Y-16253250D01*
X10636703Y-16253250D02*
X10665275Y-16253250D01*
X10665275Y-16253250D02*
X10684323Y-16262774D01*
X10931942Y-16310393D02*
X11084323Y-16310393D01*
X11008132Y-16386584D02*
X11008132Y-16234203D01*
X11417656Y-16253250D02*
X11417656Y-16386584D01*
X11370037Y-16177060D02*
X11322418Y-16319917D01*
X11322418Y-16319917D02*
X11446227Y-16319917D01*
X11665275Y-16377060D02*
X11684323Y-16386584D01*
X11684323Y-16386584D02*
X11722418Y-16386584D01*
X11722418Y-16386584D02*
X11741465Y-16377060D01*
X11741465Y-16377060D02*
X11750989Y-16358012D01*
X11750989Y-16358012D02*
X11750989Y-16348488D01*
X11750989Y-16348488D02*
X11741465Y-16329441D01*
X11741465Y-16329441D02*
X11722418Y-16319917D01*
X11722418Y-16319917D02*
X11693846Y-16319917D01*
X11693846Y-16319917D02*
X11674799Y-16310393D01*
X11674799Y-16310393D02*
X11665275Y-16291346D01*
X11665275Y-16291346D02*
X11665275Y-16281822D01*
X11665275Y-16281822D02*
X11674799Y-16262774D01*
X11674799Y-16262774D02*
X11693846Y-16253250D01*
X11693846Y-16253250D02*
X11722418Y-16253250D01*
X11722418Y-16253250D02*
X11741465Y-16262774D01*
X11865275Y-16386584D02*
X11846227Y-16377060D01*
X11846227Y-16377060D02*
X11836704Y-16358012D01*
X11836704Y-16358012D02*
X11836704Y-16186584D01*
X11970037Y-16386584D02*
X11950989Y-16377060D01*
X11950989Y-16377060D02*
X11941465Y-16367536D01*
X11941465Y-16367536D02*
X11931942Y-16348488D01*
X11931942Y-16348488D02*
X11931942Y-16291346D01*
X11931942Y-16291346D02*
X11941465Y-16272298D01*
X11941465Y-16272298D02*
X11950989Y-16262774D01*
X11950989Y-16262774D02*
X11970037Y-16253250D01*
X11970037Y-16253250D02*
X11998608Y-16253250D01*
X11998608Y-16253250D02*
X12017656Y-16262774D01*
X12017656Y-16262774D02*
X12027180Y-16272298D01*
X12027180Y-16272298D02*
X12036704Y-16291346D01*
X12036704Y-16291346D02*
X12036704Y-16348488D01*
X12036704Y-16348488D02*
X12027180Y-16367536D01*
X12027180Y-16367536D02*
X12017656Y-16377060D01*
X12017656Y-16377060D02*
X11998608Y-16386584D01*
X11998608Y-16386584D02*
X11970037Y-16386584D01*
X12093846Y-16253250D02*
X12170037Y-16253250D01*
X12122418Y-16186584D02*
X12122418Y-16358012D01*
X12122418Y-16358012D02*
X12131942Y-16377060D01*
X12131942Y-16377060D02*
X12150989Y-16386584D01*
X12150989Y-16386584D02*
X12170037Y-16386584D01*
X12227180Y-16377060D02*
X12246227Y-16386584D01*
X12246227Y-16386584D02*
X12284323Y-16386584D01*
X12284323Y-16386584D02*
X12303370Y-16377060D01*
X12303370Y-16377060D02*
X12312894Y-16358012D01*
X12312894Y-16358012D02*
X12312894Y-16348488D01*
X12312894Y-16348488D02*
X12303370Y-16329441D01*
X12303370Y-16329441D02*
X12284323Y-16319917D01*
X12284323Y-16319917D02*
X12255751Y-16319917D01*
X12255751Y-16319917D02*
X12236704Y-16310393D01*
X12236704Y-16310393D02*
X12227180Y-16291346D01*
X12227180Y-16291346D02*
X12227180Y-16281822D01*
X12227180Y-16281822D02*
X12236704Y-16262774D01*
X12236704Y-16262774D02*
X12255751Y-16253250D01*
X12255751Y-16253250D02*
X12284323Y-16253250D01*
X12284323Y-16253250D02*
X12303370Y-16262774D01*
X12379561Y-16462774D02*
X12389085Y-16453250D01*
X12389085Y-16453250D02*
X12408132Y-16424679D01*
X12408132Y-16424679D02*
X12417656Y-16405631D01*
X12417656Y-16405631D02*
X12427180Y-16377060D01*
X12427180Y-16377060D02*
X12436704Y-16329441D01*
X12436704Y-16329441D02*
X12436704Y-16291346D01*
X12436704Y-16291346D02*
X12427180Y-16243727D01*
X12427180Y-16243727D02*
X12417656Y-16215155D01*
X12417656Y-16215155D02*
X12408132Y-16196108D01*
X12408132Y-16196108D02*
X12389085Y-16167536D01*
X12389085Y-16167536D02*
X12379561Y-16158012D01*
D12*
X5935450Y-16609100D02*
X5985450Y-16559100D01*
X5935450Y-16509100D01*
X5885450Y-16559100D01*
X5935450Y-16609100D01*
D11*
X6350989Y-16650584D02*
X6236703Y-16650584D01*
X6293846Y-16650584D02*
X6293846Y-16450584D01*
X6293846Y-16450584D02*
X6274798Y-16479155D01*
X6274798Y-16479155D02*
X6255751Y-16498203D01*
X6255751Y-16498203D02*
X6236703Y-16507727D01*
X6436703Y-16631536D02*
X6446227Y-16641060D01*
X6446227Y-16641060D02*
X6436703Y-16650584D01*
X6436703Y-16650584D02*
X6427179Y-16641060D01*
X6427179Y-16641060D02*
X6436703Y-16631536D01*
X6436703Y-16631536D02*
X6436703Y-16650584D01*
X6570036Y-16450584D02*
X6589084Y-16450584D01*
X6589084Y-16450584D02*
X6608132Y-16460108D01*
X6608132Y-16460108D02*
X6617655Y-16469631D01*
X6617655Y-16469631D02*
X6627179Y-16488679D01*
X6627179Y-16488679D02*
X6636703Y-16526774D01*
X6636703Y-16526774D02*
X6636703Y-16574393D01*
X6636703Y-16574393D02*
X6627179Y-16612488D01*
X6627179Y-16612488D02*
X6617655Y-16631536D01*
X6617655Y-16631536D02*
X6608132Y-16641060D01*
X6608132Y-16641060D02*
X6589084Y-16650584D01*
X6589084Y-16650584D02*
X6570036Y-16650584D01*
X6570036Y-16650584D02*
X6550989Y-16641060D01*
X6550989Y-16641060D02*
X6541465Y-16631536D01*
X6541465Y-16631536D02*
X6531941Y-16612488D01*
X6531941Y-16612488D02*
X6522417Y-16574393D01*
X6522417Y-16574393D02*
X6522417Y-16526774D01*
X6522417Y-16526774D02*
X6531941Y-16488679D01*
X6531941Y-16488679D02*
X6541465Y-16469631D01*
X6541465Y-16469631D02*
X6550989Y-16460108D01*
X6550989Y-16460108D02*
X6570036Y-16450584D01*
X6760512Y-16450584D02*
X6779560Y-16450584D01*
X6779560Y-16450584D02*
X6798608Y-16460108D01*
X6798608Y-16460108D02*
X6808132Y-16469631D01*
X6808132Y-16469631D02*
X6817655Y-16488679D01*
X6817655Y-16488679D02*
X6827179Y-16526774D01*
X6827179Y-16526774D02*
X6827179Y-16574393D01*
X6827179Y-16574393D02*
X6817655Y-16612488D01*
X6817655Y-16612488D02*
X6808132Y-16631536D01*
X6808132Y-16631536D02*
X6798608Y-16641060D01*
X6798608Y-16641060D02*
X6779560Y-16650584D01*
X6779560Y-16650584D02*
X6760512Y-16650584D01*
X6760512Y-16650584D02*
X6741465Y-16641060D01*
X6741465Y-16641060D02*
X6731941Y-16631536D01*
X6731941Y-16631536D02*
X6722417Y-16612488D01*
X6722417Y-16612488D02*
X6712893Y-16574393D01*
X6712893Y-16574393D02*
X6712893Y-16526774D01*
X6712893Y-16526774D02*
X6722417Y-16488679D01*
X6722417Y-16488679D02*
X6731941Y-16469631D01*
X6731941Y-16469631D02*
X6741465Y-16460108D01*
X6741465Y-16460108D02*
X6760512Y-16450584D01*
X6950989Y-16450584D02*
X6970036Y-16450584D01*
X6970036Y-16450584D02*
X6989084Y-16460108D01*
X6989084Y-16460108D02*
X6998608Y-16469631D01*
X6998608Y-16469631D02*
X7008132Y-16488679D01*
X7008132Y-16488679D02*
X7017655Y-16526774D01*
X7017655Y-16526774D02*
X7017655Y-16574393D01*
X7017655Y-16574393D02*
X7008132Y-16612488D01*
X7008132Y-16612488D02*
X6998608Y-16631536D01*
X6998608Y-16631536D02*
X6989084Y-16641060D01*
X6989084Y-16641060D02*
X6970036Y-16650584D01*
X6970036Y-16650584D02*
X6950989Y-16650584D01*
X6950989Y-16650584D02*
X6931941Y-16641060D01*
X6931941Y-16641060D02*
X6922417Y-16631536D01*
X6922417Y-16631536D02*
X6912893Y-16612488D01*
X6912893Y-16612488D02*
X6903370Y-16574393D01*
X6903370Y-16574393D02*
X6903370Y-16526774D01*
X6903370Y-16526774D02*
X6912893Y-16488679D01*
X6912893Y-16488679D02*
X6922417Y-16469631D01*
X6922417Y-16469631D02*
X6931941Y-16460108D01*
X6931941Y-16460108D02*
X6950989Y-16450584D01*
X7103370Y-16650584D02*
X7103370Y-16517250D01*
X7103370Y-16536298D02*
X7112893Y-16526774D01*
X7112893Y-16526774D02*
X7131941Y-16517250D01*
X7131941Y-16517250D02*
X7160513Y-16517250D01*
X7160513Y-16517250D02*
X7179560Y-16526774D01*
X7179560Y-16526774D02*
X7189084Y-16545822D01*
X7189084Y-16545822D02*
X7189084Y-16650584D01*
X7189084Y-16545822D02*
X7198608Y-16526774D01*
X7198608Y-16526774D02*
X7217655Y-16517250D01*
X7217655Y-16517250D02*
X7246227Y-16517250D01*
X7246227Y-16517250D02*
X7265274Y-16526774D01*
X7265274Y-16526774D02*
X7274798Y-16545822D01*
X7274798Y-16545822D02*
X7274798Y-16650584D01*
X7370036Y-16650584D02*
X7370036Y-16517250D01*
X7370036Y-16536298D02*
X7379560Y-16526774D01*
X7379560Y-16526774D02*
X7398608Y-16517250D01*
X7398608Y-16517250D02*
X7427179Y-16517250D01*
X7427179Y-16517250D02*
X7446227Y-16526774D01*
X7446227Y-16526774D02*
X7455751Y-16545822D01*
X7455751Y-16545822D02*
X7455751Y-16650584D01*
X7455751Y-16545822D02*
X7465274Y-16526774D01*
X7465274Y-16526774D02*
X7484322Y-16517250D01*
X7484322Y-16517250D02*
X7512893Y-16517250D01*
X7512893Y-16517250D02*
X7531941Y-16526774D01*
X7531941Y-16526774D02*
X7541465Y-16545822D01*
X7541465Y-16545822D02*
X7541465Y-16650584D01*
X7931941Y-16441060D02*
X7760513Y-16698203D01*
X8189084Y-16450584D02*
X8208132Y-16450584D01*
X8208132Y-16450584D02*
X8227179Y-16460108D01*
X8227179Y-16460108D02*
X8236703Y-16469631D01*
X8236703Y-16469631D02*
X8246227Y-16488679D01*
X8246227Y-16488679D02*
X8255751Y-16526774D01*
X8255751Y-16526774D02*
X8255751Y-16574393D01*
X8255751Y-16574393D02*
X8246227Y-16612488D01*
X8246227Y-16612488D02*
X8236703Y-16631536D01*
X8236703Y-16631536D02*
X8227179Y-16641060D01*
X8227179Y-16641060D02*
X8208132Y-16650584D01*
X8208132Y-16650584D02*
X8189084Y-16650584D01*
X8189084Y-16650584D02*
X8170036Y-16641060D01*
X8170036Y-16641060D02*
X8160513Y-16631536D01*
X8160513Y-16631536D02*
X8150989Y-16612488D01*
X8150989Y-16612488D02*
X8141465Y-16574393D01*
X8141465Y-16574393D02*
X8141465Y-16526774D01*
X8141465Y-16526774D02*
X8150989Y-16488679D01*
X8150989Y-16488679D02*
X8160513Y-16469631D01*
X8160513Y-16469631D02*
X8170036Y-16460108D01*
X8170036Y-16460108D02*
X8189084Y-16450584D01*
X8341465Y-16631536D02*
X8350989Y-16641060D01*
X8350989Y-16641060D02*
X8341465Y-16650584D01*
X8341465Y-16650584D02*
X8331941Y-16641060D01*
X8331941Y-16641060D02*
X8341465Y-16631536D01*
X8341465Y-16631536D02*
X8341465Y-16650584D01*
X8474798Y-16450584D02*
X8493846Y-16450584D01*
X8493846Y-16450584D02*
X8512894Y-16460108D01*
X8512894Y-16460108D02*
X8522418Y-16469631D01*
X8522418Y-16469631D02*
X8531941Y-16488679D01*
X8531941Y-16488679D02*
X8541465Y-16526774D01*
X8541465Y-16526774D02*
X8541465Y-16574393D01*
X8541465Y-16574393D02*
X8531941Y-16612488D01*
X8531941Y-16612488D02*
X8522418Y-16631536D01*
X8522418Y-16631536D02*
X8512894Y-16641060D01*
X8512894Y-16641060D02*
X8493846Y-16650584D01*
X8493846Y-16650584D02*
X8474798Y-16650584D01*
X8474798Y-16650584D02*
X8455751Y-16641060D01*
X8455751Y-16641060D02*
X8446227Y-16631536D01*
X8446227Y-16631536D02*
X8436703Y-16612488D01*
X8436703Y-16612488D02*
X8427179Y-16574393D01*
X8427179Y-16574393D02*
X8427179Y-16526774D01*
X8427179Y-16526774D02*
X8436703Y-16488679D01*
X8436703Y-16488679D02*
X8446227Y-16469631D01*
X8446227Y-16469631D02*
X8455751Y-16460108D01*
X8455751Y-16460108D02*
X8474798Y-16450584D01*
X8608132Y-16450584D02*
X8731941Y-16450584D01*
X8731941Y-16450584D02*
X8665275Y-16526774D01*
X8665275Y-16526774D02*
X8693846Y-16526774D01*
X8693846Y-16526774D02*
X8712894Y-16536298D01*
X8712894Y-16536298D02*
X8722418Y-16545822D01*
X8722418Y-16545822D02*
X8731941Y-16564869D01*
X8731941Y-16564869D02*
X8731941Y-16612488D01*
X8731941Y-16612488D02*
X8722418Y-16631536D01*
X8722418Y-16631536D02*
X8712894Y-16641060D01*
X8712894Y-16641060D02*
X8693846Y-16650584D01*
X8693846Y-16650584D02*
X8636703Y-16650584D01*
X8636703Y-16650584D02*
X8617656Y-16641060D01*
X8617656Y-16641060D02*
X8608132Y-16631536D01*
X8827179Y-16650584D02*
X8865275Y-16650584D01*
X8865275Y-16650584D02*
X8884322Y-16641060D01*
X8884322Y-16641060D02*
X8893846Y-16631536D01*
X8893846Y-16631536D02*
X8912894Y-16602965D01*
X8912894Y-16602965D02*
X8922418Y-16564869D01*
X8922418Y-16564869D02*
X8922418Y-16488679D01*
X8922418Y-16488679D02*
X8912894Y-16469631D01*
X8912894Y-16469631D02*
X8903370Y-16460108D01*
X8903370Y-16460108D02*
X8884322Y-16450584D01*
X8884322Y-16450584D02*
X8846227Y-16450584D01*
X8846227Y-16450584D02*
X8827179Y-16460108D01*
X8827179Y-16460108D02*
X8817656Y-16469631D01*
X8817656Y-16469631D02*
X8808132Y-16488679D01*
X8808132Y-16488679D02*
X8808132Y-16536298D01*
X8808132Y-16536298D02*
X8817656Y-16555346D01*
X8817656Y-16555346D02*
X8827179Y-16564869D01*
X8827179Y-16564869D02*
X8846227Y-16574393D01*
X8846227Y-16574393D02*
X8884322Y-16574393D01*
X8884322Y-16574393D02*
X8903370Y-16564869D01*
X8903370Y-16564869D02*
X8912894Y-16555346D01*
X8912894Y-16555346D02*
X8922418Y-16536298D01*
X9093846Y-16517250D02*
X9093846Y-16650584D01*
X9046227Y-16441060D02*
X8998608Y-16583917D01*
X8998608Y-16583917D02*
X9122418Y-16583917D01*
X9189084Y-16450584D02*
X9189084Y-16488679D01*
X9265275Y-16450584D02*
X9265275Y-16488679D01*
X9560513Y-16726774D02*
X9550989Y-16717250D01*
X9550989Y-16717250D02*
X9531941Y-16688679D01*
X9531941Y-16688679D02*
X9522418Y-16669631D01*
X9522418Y-16669631D02*
X9512894Y-16641060D01*
X9512894Y-16641060D02*
X9503370Y-16593441D01*
X9503370Y-16593441D02*
X9503370Y-16555346D01*
X9503370Y-16555346D02*
X9512894Y-16507727D01*
X9512894Y-16507727D02*
X9522418Y-16479155D01*
X9522418Y-16479155D02*
X9531941Y-16460108D01*
X9531941Y-16460108D02*
X9550989Y-16431536D01*
X9550989Y-16431536D02*
X9560513Y-16422012D01*
X9617656Y-16450584D02*
X9741465Y-16450584D01*
X9741465Y-16450584D02*
X9674799Y-16526774D01*
X9674799Y-16526774D02*
X9703370Y-16526774D01*
X9703370Y-16526774D02*
X9722418Y-16536298D01*
X9722418Y-16536298D02*
X9731941Y-16545822D01*
X9731941Y-16545822D02*
X9741465Y-16564869D01*
X9741465Y-16564869D02*
X9741465Y-16612488D01*
X9741465Y-16612488D02*
X9731941Y-16631536D01*
X9731941Y-16631536D02*
X9722418Y-16641060D01*
X9722418Y-16641060D02*
X9703370Y-16650584D01*
X9703370Y-16650584D02*
X9646227Y-16650584D01*
X9646227Y-16650584D02*
X9627180Y-16641060D01*
X9627180Y-16641060D02*
X9617656Y-16631536D01*
X9912894Y-16517250D02*
X9912894Y-16650584D01*
X9865275Y-16441060D02*
X9817656Y-16583917D01*
X9817656Y-16583917D02*
X9941465Y-16583917D01*
X10170037Y-16650584D02*
X10170037Y-16450584D01*
X10255751Y-16650584D02*
X10255751Y-16545822D01*
X10255751Y-16545822D02*
X10246227Y-16526774D01*
X10246227Y-16526774D02*
X10227180Y-16517250D01*
X10227180Y-16517250D02*
X10198608Y-16517250D01*
X10198608Y-16517250D02*
X10179561Y-16526774D01*
X10179561Y-16526774D02*
X10170037Y-16536298D01*
X10379561Y-16650584D02*
X10360513Y-16641060D01*
X10360513Y-16641060D02*
X10350989Y-16631536D01*
X10350989Y-16631536D02*
X10341465Y-16612488D01*
X10341465Y-16612488D02*
X10341465Y-16555346D01*
X10341465Y-16555346D02*
X10350989Y-16536298D01*
X10350989Y-16536298D02*
X10360513Y-16526774D01*
X10360513Y-16526774D02*
X10379561Y-16517250D01*
X10379561Y-16517250D02*
X10408132Y-16517250D01*
X10408132Y-16517250D02*
X10427180Y-16526774D01*
X10427180Y-16526774D02*
X10436703Y-16536298D01*
X10436703Y-16536298D02*
X10446227Y-16555346D01*
X10446227Y-16555346D02*
X10446227Y-16612488D01*
X10446227Y-16612488D02*
X10436703Y-16631536D01*
X10436703Y-16631536D02*
X10427180Y-16641060D01*
X10427180Y-16641060D02*
X10408132Y-16650584D01*
X10408132Y-16650584D02*
X10379561Y-16650584D01*
X10560513Y-16650584D02*
X10541465Y-16641060D01*
X10541465Y-16641060D02*
X10531942Y-16622012D01*
X10531942Y-16622012D02*
X10531942Y-16450584D01*
X10712894Y-16641060D02*
X10693846Y-16650584D01*
X10693846Y-16650584D02*
X10655751Y-16650584D01*
X10655751Y-16650584D02*
X10636703Y-16641060D01*
X10636703Y-16641060D02*
X10627180Y-16622012D01*
X10627180Y-16622012D02*
X10627180Y-16545822D01*
X10627180Y-16545822D02*
X10636703Y-16526774D01*
X10636703Y-16526774D02*
X10655751Y-16517250D01*
X10655751Y-16517250D02*
X10693846Y-16517250D01*
X10693846Y-16517250D02*
X10712894Y-16526774D01*
X10712894Y-16526774D02*
X10722418Y-16545822D01*
X10722418Y-16545822D02*
X10722418Y-16564869D01*
X10722418Y-16564869D02*
X10627180Y-16583917D01*
X10798608Y-16641060D02*
X10817656Y-16650584D01*
X10817656Y-16650584D02*
X10855751Y-16650584D01*
X10855751Y-16650584D02*
X10874799Y-16641060D01*
X10874799Y-16641060D02*
X10884323Y-16622012D01*
X10884323Y-16622012D02*
X10884323Y-16612488D01*
X10884323Y-16612488D02*
X10874799Y-16593441D01*
X10874799Y-16593441D02*
X10855751Y-16583917D01*
X10855751Y-16583917D02*
X10827180Y-16583917D01*
X10827180Y-16583917D02*
X10808132Y-16574393D01*
X10808132Y-16574393D02*
X10798608Y-16555346D01*
X10798608Y-16555346D02*
X10798608Y-16545822D01*
X10798608Y-16545822D02*
X10808132Y-16526774D01*
X10808132Y-16526774D02*
X10827180Y-16517250D01*
X10827180Y-16517250D02*
X10855751Y-16517250D01*
X10855751Y-16517250D02*
X10874799Y-16526774D01*
X10950989Y-16726774D02*
X10960513Y-16717250D01*
X10960513Y-16717250D02*
X10979561Y-16688679D01*
X10979561Y-16688679D02*
X10989084Y-16669631D01*
X10989084Y-16669631D02*
X10998608Y-16641060D01*
X10998608Y-16641060D02*
X11008132Y-16593441D01*
X11008132Y-16593441D02*
X11008132Y-16555346D01*
X11008132Y-16555346D02*
X10998608Y-16507727D01*
X10998608Y-16507727D02*
X10989084Y-16479155D01*
X10989084Y-16479155D02*
X10979561Y-16460108D01*
X10979561Y-16460108D02*
X10960513Y-16431536D01*
X10960513Y-16431536D02*
X10950989Y-16422012D01*
M02*
