G04 #@! TF.GenerationSoftware,KiCad,Pcbnew,7.0.9-7.0.9~ubuntu22.04.1*
G04 #@! TF.CreationDate,2024-04-13T14:40:37+02:00*
G04 #@! TF.ProjectId,v7-kaleido,76372d6b-616c-4656-9964-6f2e6b696361,1.1*
G04 #@! TF.SameCoordinates,Original*
G04 #@! TF.FileFunction,Soldermask,Bot*
G04 #@! TF.FilePolarity,Negative*
%FSLAX46Y46*%
G04 Gerber Fmt 4.6, Leading zero omitted, Abs format (unit mm)*
G04 Created by KiCad (PCBNEW 7.0.9-7.0.9~ubuntu22.04.1) date 2024-04-13 14:40:37*
%MOMM*%
%LPD*%
G01*
G04 APERTURE LIST*
%ADD10C,2.200000*%
%ADD11C,0.508000*%
%ADD12R,1.700000X1.700000*%
%ADD13O,1.700000X1.700000*%
%ADD14C,0.650000*%
%ADD15O,2.100000X1.000000*%
%ADD16O,1.600000X1.000000*%
%ADD17C,1.000000*%
G04 APERTURE END LIST*
D10*
X195000000Y-46910000D03*
D11*
X101695300Y-131146493D03*
X101695300Y-130359093D03*
X101695300Y-129571693D03*
X101695300Y-128784293D03*
X101695300Y-127996893D03*
X100907900Y-131146493D03*
X100907900Y-130359093D03*
X100907900Y-129571693D03*
X100907900Y-128784293D03*
X100907900Y-127996893D03*
X100120500Y-131146493D03*
X100120500Y-130359093D03*
X100120500Y-129571693D03*
X100120500Y-128784293D03*
X100120500Y-127996893D03*
X99333100Y-131146493D03*
X99333100Y-130359093D03*
X99333100Y-129571693D03*
X99333100Y-128784293D03*
X99333100Y-127996893D03*
X98545700Y-131146493D03*
X98545700Y-130359093D03*
X98545700Y-129571693D03*
X98545700Y-128784293D03*
X98545700Y-127996893D03*
D10*
X195000000Y-145343693D03*
X62596500Y-145343693D03*
D12*
X62446500Y-132618693D03*
D13*
X62446500Y-135158693D03*
D12*
X62196500Y-103718693D03*
D13*
X62196500Y-101178693D03*
D12*
X185220000Y-46780000D03*
D13*
X182680000Y-46780000D03*
X180140000Y-46780000D03*
X177600000Y-46780000D03*
X175060000Y-46780000D03*
D12*
X101640000Y-46650000D03*
D13*
X104180000Y-46650000D03*
X106720000Y-46650000D03*
X109260000Y-46650000D03*
X111800000Y-46650000D03*
X114340000Y-46650000D03*
X116880000Y-46650000D03*
X119420000Y-46650000D03*
X121960000Y-46650000D03*
X124500000Y-46650000D03*
X127040000Y-46650000D03*
X129580000Y-46650000D03*
D12*
X67515000Y-46650000D03*
D13*
X70055000Y-46650000D03*
X72595000Y-46650000D03*
X75135000Y-46650000D03*
X77675000Y-46650000D03*
X80215000Y-46650000D03*
X82755000Y-46650000D03*
X85295000Y-46650000D03*
X87835000Y-46650000D03*
X90375000Y-46650000D03*
X92915000Y-46650000D03*
X95455000Y-46650000D03*
X97995000Y-46650000D03*
D10*
X62670000Y-46910000D03*
D14*
X66836500Y-110753693D03*
X66836500Y-116533693D03*
D15*
X67366500Y-109323693D03*
D16*
X63186500Y-109323693D03*
D15*
X67366500Y-117963693D03*
D16*
X63186500Y-117963693D03*
D17*
X64270000Y-83520000D03*
X64270000Y-91520000D03*
M02*
