M48
; DRILL file {KiCad 7.0.11-7.0.11~ubuntu22.04.1} date Tue 10 Dec 2024 04:55:33 CET
; FORMAT={-:-/ absolute / metric / decimal}
; #@! TF.CreationDate,2024-12-10T04:55:33+01:00
; #@! TF.GenerationSoftware,Kicad,Pcbnew,7.0.11-7.0.11~ubuntu22.04.1
; #@! TF.FileFunction,Plated,1,2,PTH
FMAT,2
METRIC
; #@! TA.AperFunction,Plated,PTH,ViaDrill
T1C0.250
%
G90
G05
T1
X20.1Y-32.675
X21.3Y-28.0
X21.5Y-29.8
X24.15Y-23.15
X24.425Y-21.325
X31.4Y-29.875
X31.625Y-31.275
X33.275Y-22.975
X35.375Y-18.275
X35.675Y-14.775
X35.825Y-30.925
X36.05Y-15.85
X36.25Y-27.182
X36.502Y-22.616
X36.775Y-29.325
X36.818Y-15.893
X37.225Y-16.463
X37.262Y-17.269
X37.5Y-29.625
X38.075Y-23.75
X38.3Y-26.903
X38.325Y-22.5
X38.55Y-21.375
X38.65Y-25.44
X38.875Y-21.975
X38.878Y-26.102
X39.469Y-17.612
X40.163Y-17.525
X40.65Y-21.9
X40.668Y-17.999
X41.475Y-20.2
X41.811Y-17.545
X42.495Y-17.694
X43.35Y-21.925
X43.593Y-18.172
X45.7Y-18.4
X45.7Y-21.375
X46.1Y-24.35
X46.775Y-18.45
M30
