%TF.GenerationSoftware,KiCad,Pcbnew,7.0.11-7.0.11~ubuntu22.04.1*%
%TF.CreationDate,2024-12-09T17:56:16+01:00*%
%TF.ProjectId,40_to_WP27D-P050VA3,34305f74-6f5f-4575-9032-37442d503035,rev?*%
%TF.SameCoordinates,Original*%
%TF.FileFunction,Drillmap*%
%TF.FilePolarity,Positive*%
%FSLAX45Y45*%
G04 Gerber Fmt 4.5, Leading zero omitted, Abs format (unit mm)*
G04 Created by KiCad (PCBNEW 7.0.11-7.0.11~ubuntu22.04.1) date 2024-12-09 17:56:16*
%MOMM*%
%LPD*%
G01*
G04 APERTURE LIST*
%ADD10C,0.100000*%
%ADD11C,0.200000*%
G04 APERTURE END LIST*
D10*
X1405000Y-900000D02*
X5405000Y-900000D01*
X5405000Y-3900000D01*
X1405000Y-3900000D01*
X1405000Y-900000D01*
D11*
D10*
X1841500Y-2527500D02*
X1866500Y-2552500D01*
X1866500Y-2527500D02*
X1841500Y-2552500D01*
X1915000Y-2957500D02*
X1940000Y-2982500D01*
X1940000Y-2957500D02*
X1915000Y-2982500D01*
X1920500Y-1593500D02*
X1945500Y-1618500D01*
X1945500Y-1593500D02*
X1920500Y-1618500D01*
X1950500Y-3246500D02*
X1975500Y-3271500D01*
X1975500Y-3246500D02*
X1950500Y-3271500D01*
X1960000Y-2807500D02*
X1985000Y-2832500D01*
X1985000Y-2807500D02*
X1960000Y-2832500D01*
X1975000Y-3155000D02*
X2000000Y-3180000D01*
X2000000Y-3155000D02*
X1975000Y-3180000D01*
X1977500Y-2877500D02*
X2002500Y-2902500D01*
X2002500Y-2877500D02*
X1977500Y-2902500D01*
X1980000Y-2287825D02*
X2005000Y-2312825D01*
X2005000Y-2287825D02*
X1980000Y-2312825D01*
X2443500Y-3357500D02*
X2468500Y-3382500D01*
X2468500Y-3357500D02*
X2443500Y-3382500D01*
X2465000Y-1420000D02*
X2490000Y-1445000D01*
X2490000Y-1420000D02*
X2465000Y-1445000D01*
X2589500Y-2016500D02*
X2614500Y-2041500D01*
X2614500Y-2016500D02*
X2589500Y-2041500D01*
X2647000Y-2907500D02*
X2672000Y-2932500D01*
X2672000Y-2907500D02*
X2647000Y-2932500D01*
X2716000Y-2635548D02*
X2741000Y-2660548D01*
X2741000Y-2635548D02*
X2716000Y-2660548D01*
X2733500Y-2757500D02*
X2758500Y-2782500D01*
X2758500Y-2757500D02*
X2733500Y-2782500D01*
X2775500Y-1884500D02*
X2800500Y-1909500D01*
X2800500Y-1884500D02*
X2775500Y-1909500D01*
X2869000Y-2644500D02*
X2894000Y-2669500D01*
X2894000Y-2644500D02*
X2869000Y-2669500D01*
X2926500Y-2594907D02*
X2951500Y-2619907D01*
X2951500Y-2594907D02*
X2926500Y-2619907D01*
X3104612Y-2498112D02*
X3129612Y-2523112D01*
X3129612Y-2498112D02*
X3104612Y-2523112D01*
X3550500Y-1314500D02*
X3575500Y-1339500D01*
X3575500Y-1314500D02*
X3550500Y-1339500D01*
X3697649Y-1869232D02*
X3722649Y-1894232D01*
X3722649Y-1869232D02*
X3697649Y-1894232D01*
X3704400Y-1485785D02*
X3729400Y-1510785D01*
X3729400Y-1485785D02*
X3704400Y-1510785D01*
X3768032Y-1313653D02*
X3793032Y-1338653D01*
X3793032Y-1313653D02*
X3768032Y-1338653D01*
X3782500Y-1484500D02*
X3807500Y-1509500D01*
X3807500Y-1484500D02*
X3782500Y-1509500D01*
X3799374Y-1931628D02*
X3824374Y-1956628D01*
X3824374Y-1931628D02*
X3799374Y-1956628D01*
X3808744Y-2015552D02*
X3833744Y-2040552D01*
X3833744Y-2015552D02*
X3808744Y-2040552D01*
X3873500Y-1471500D02*
X3898500Y-1496500D01*
X3898500Y-1471500D02*
X3873500Y-1496500D01*
X3890401Y-2021851D02*
X3915401Y-2046851D01*
X3915401Y-2021851D02*
X3890401Y-2046851D01*
X3897002Y-1915318D02*
X3922002Y-1940318D01*
X3922002Y-1915318D02*
X3897002Y-1940318D01*
X3901409Y-1293091D02*
X3926409Y-1318091D01*
X3926409Y-1293091D02*
X3901409Y-1318091D01*
X3984701Y-2039751D02*
X4009701Y-2064751D01*
X4009701Y-2039751D02*
X3984701Y-2064751D01*
X4058996Y-2012994D02*
X4083996Y-2037994D01*
X4083996Y-2012994D02*
X4058996Y-2037994D01*
X4076500Y-2542500D02*
X4101500Y-2567500D01*
X4101500Y-2542500D02*
X4076500Y-2567500D01*
X4110435Y-1915032D02*
X4135435Y-1940032D01*
X4135435Y-1915032D02*
X4110435Y-1940032D01*
X4124500Y-1366500D02*
X4149500Y-1391500D01*
X4149500Y-1366500D02*
X4124500Y-1391500D01*
X4134500Y-1502500D02*
X4159500Y-1527500D01*
X4159500Y-1502500D02*
X4134500Y-1527500D01*
X4179500Y-2670500D02*
X4204500Y-2695500D01*
X4204500Y-2670500D02*
X4179500Y-2695500D01*
X4242500Y-1443500D02*
X4267500Y-1468500D01*
X4267500Y-1443500D02*
X4242500Y-1468500D01*
X4301500Y-1534500D02*
X4326500Y-1559500D01*
X4326500Y-1534500D02*
X4301500Y-1559500D01*
X4328598Y-1718090D02*
X4353598Y-1743090D01*
X4353598Y-1718090D02*
X4328598Y-1743090D01*
X4355500Y-1286500D02*
X4380500Y-1311500D01*
X4380500Y-1286500D02*
X4355500Y-1311500D01*
X4462500Y-1716500D02*
X4487500Y-1741500D01*
X4487500Y-1716500D02*
X4462500Y-1741500D01*
X3863000Y-1160000D02*
G75*
G03*
X3823000Y-1160000I-20000J0D01*
G01*
X3823000Y-1160000D02*
G75*
G03*
X3863000Y-1160000I20000J0D01*
G01*
X4421000Y-2169000D02*
G75*
G03*
X4381000Y-2169000I-20000J0D01*
G01*
X4381000Y-2169000D02*
G75*
G03*
X4421000Y-2169000I20000J0D01*
G01*
X4423000Y-2614000D02*
G75*
G03*
X4383000Y-2614000I-20000J0D01*
G01*
X4383000Y-2614000D02*
G75*
G03*
X4423000Y-2614000I20000J0D01*
G01*
D11*
X1660777Y-4216484D02*
X1660777Y-4016484D01*
X1660777Y-4016484D02*
X1708396Y-4016484D01*
X1708396Y-4016484D02*
X1736967Y-4026008D01*
X1736967Y-4026008D02*
X1756015Y-4045055D01*
X1756015Y-4045055D02*
X1765539Y-4064103D01*
X1765539Y-4064103D02*
X1775062Y-4102198D01*
X1775062Y-4102198D02*
X1775062Y-4130769D01*
X1775062Y-4130769D02*
X1765539Y-4168865D01*
X1765539Y-4168865D02*
X1756015Y-4187912D01*
X1756015Y-4187912D02*
X1736967Y-4206960D01*
X1736967Y-4206960D02*
X1708396Y-4216484D01*
X1708396Y-4216484D02*
X1660777Y-4216484D01*
X1860777Y-4216484D02*
X1860777Y-4083150D01*
X1860777Y-4121246D02*
X1870301Y-4102198D01*
X1870301Y-4102198D02*
X1879824Y-4092674D01*
X1879824Y-4092674D02*
X1898872Y-4083150D01*
X1898872Y-4083150D02*
X1917920Y-4083150D01*
X1984586Y-4216484D02*
X1984586Y-4083150D01*
X1984586Y-4016484D02*
X1975062Y-4026008D01*
X1975062Y-4026008D02*
X1984586Y-4035531D01*
X1984586Y-4035531D02*
X1994110Y-4026008D01*
X1994110Y-4026008D02*
X1984586Y-4016484D01*
X1984586Y-4016484D02*
X1984586Y-4035531D01*
X2108396Y-4216484D02*
X2089348Y-4206960D01*
X2089348Y-4206960D02*
X2079824Y-4187912D01*
X2079824Y-4187912D02*
X2079824Y-4016484D01*
X2213158Y-4216484D02*
X2194110Y-4206960D01*
X2194110Y-4206960D02*
X2184586Y-4187912D01*
X2184586Y-4187912D02*
X2184586Y-4016484D01*
X2441729Y-4216484D02*
X2441729Y-4016484D01*
X2441729Y-4016484D02*
X2508396Y-4159341D01*
X2508396Y-4159341D02*
X2575063Y-4016484D01*
X2575063Y-4016484D02*
X2575063Y-4216484D01*
X2756015Y-4216484D02*
X2756015Y-4111722D01*
X2756015Y-4111722D02*
X2746491Y-4092674D01*
X2746491Y-4092674D02*
X2727444Y-4083150D01*
X2727444Y-4083150D02*
X2689348Y-4083150D01*
X2689348Y-4083150D02*
X2670301Y-4092674D01*
X2756015Y-4206960D02*
X2736967Y-4216484D01*
X2736967Y-4216484D02*
X2689348Y-4216484D01*
X2689348Y-4216484D02*
X2670301Y-4206960D01*
X2670301Y-4206960D02*
X2660777Y-4187912D01*
X2660777Y-4187912D02*
X2660777Y-4168865D01*
X2660777Y-4168865D02*
X2670301Y-4149817D01*
X2670301Y-4149817D02*
X2689348Y-4140293D01*
X2689348Y-4140293D02*
X2736967Y-4140293D01*
X2736967Y-4140293D02*
X2756015Y-4130769D01*
X2851253Y-4083150D02*
X2851253Y-4283150D01*
X2851253Y-4092674D02*
X2870301Y-4083150D01*
X2870301Y-4083150D02*
X2908396Y-4083150D01*
X2908396Y-4083150D02*
X2927443Y-4092674D01*
X2927443Y-4092674D02*
X2936967Y-4102198D01*
X2936967Y-4102198D02*
X2946491Y-4121246D01*
X2946491Y-4121246D02*
X2946491Y-4178388D01*
X2946491Y-4178388D02*
X2936967Y-4197436D01*
X2936967Y-4197436D02*
X2927443Y-4206960D01*
X2927443Y-4206960D02*
X2908396Y-4216484D01*
X2908396Y-4216484D02*
X2870301Y-4216484D01*
X2870301Y-4216484D02*
X2851253Y-4206960D01*
X3032205Y-4197436D02*
X3041729Y-4206960D01*
X3041729Y-4206960D02*
X3032205Y-4216484D01*
X3032205Y-4216484D02*
X3022682Y-4206960D01*
X3022682Y-4206960D02*
X3032205Y-4197436D01*
X3032205Y-4197436D02*
X3032205Y-4216484D01*
X3032205Y-4092674D02*
X3041729Y-4102198D01*
X3041729Y-4102198D02*
X3032205Y-4111722D01*
X3032205Y-4111722D02*
X3022682Y-4102198D01*
X3022682Y-4102198D02*
X3032205Y-4092674D01*
X3032205Y-4092674D02*
X3032205Y-4111722D01*
D10*
X1375000Y-4532500D02*
X1400000Y-4557500D01*
X1400000Y-4532500D02*
X1375000Y-4557500D01*
D11*
X1698872Y-4436484D02*
X1717920Y-4436484D01*
X1717920Y-4436484D02*
X1736967Y-4446008D01*
X1736967Y-4446008D02*
X1746491Y-4455531D01*
X1746491Y-4455531D02*
X1756015Y-4474579D01*
X1756015Y-4474579D02*
X1765539Y-4512674D01*
X1765539Y-4512674D02*
X1765539Y-4560293D01*
X1765539Y-4560293D02*
X1756015Y-4598389D01*
X1756015Y-4598389D02*
X1746491Y-4617436D01*
X1746491Y-4617436D02*
X1736967Y-4626960D01*
X1736967Y-4626960D02*
X1717920Y-4636484D01*
X1717920Y-4636484D02*
X1698872Y-4636484D01*
X1698872Y-4636484D02*
X1679824Y-4626960D01*
X1679824Y-4626960D02*
X1670301Y-4617436D01*
X1670301Y-4617436D02*
X1660777Y-4598389D01*
X1660777Y-4598389D02*
X1651253Y-4560293D01*
X1651253Y-4560293D02*
X1651253Y-4512674D01*
X1651253Y-4512674D02*
X1660777Y-4474579D01*
X1660777Y-4474579D02*
X1670301Y-4455531D01*
X1670301Y-4455531D02*
X1679824Y-4446008D01*
X1679824Y-4446008D02*
X1698872Y-4436484D01*
X1851253Y-4617436D02*
X1860777Y-4626960D01*
X1860777Y-4626960D02*
X1851253Y-4636484D01*
X1851253Y-4636484D02*
X1841729Y-4626960D01*
X1841729Y-4626960D02*
X1851253Y-4617436D01*
X1851253Y-4617436D02*
X1851253Y-4636484D01*
X1936967Y-4455531D02*
X1946491Y-4446008D01*
X1946491Y-4446008D02*
X1965539Y-4436484D01*
X1965539Y-4436484D02*
X2013158Y-4436484D01*
X2013158Y-4436484D02*
X2032205Y-4446008D01*
X2032205Y-4446008D02*
X2041729Y-4455531D01*
X2041729Y-4455531D02*
X2051253Y-4474579D01*
X2051253Y-4474579D02*
X2051253Y-4493627D01*
X2051253Y-4493627D02*
X2041729Y-4522198D01*
X2041729Y-4522198D02*
X1927443Y-4636484D01*
X1927443Y-4636484D02*
X2051253Y-4636484D01*
X2232205Y-4436484D02*
X2136967Y-4436484D01*
X2136967Y-4436484D02*
X2127444Y-4531722D01*
X2127444Y-4531722D02*
X2136967Y-4522198D01*
X2136967Y-4522198D02*
X2156015Y-4512674D01*
X2156015Y-4512674D02*
X2203634Y-4512674D01*
X2203634Y-4512674D02*
X2222682Y-4522198D01*
X2222682Y-4522198D02*
X2232205Y-4531722D01*
X2232205Y-4531722D02*
X2241729Y-4550770D01*
X2241729Y-4550770D02*
X2241729Y-4598389D01*
X2241729Y-4598389D02*
X2232205Y-4617436D01*
X2232205Y-4617436D02*
X2222682Y-4626960D01*
X2222682Y-4626960D02*
X2203634Y-4636484D01*
X2203634Y-4636484D02*
X2156015Y-4636484D01*
X2156015Y-4636484D02*
X2136967Y-4626960D01*
X2136967Y-4626960D02*
X2127444Y-4617436D01*
X2365539Y-4436484D02*
X2384586Y-4436484D01*
X2384586Y-4436484D02*
X2403634Y-4446008D01*
X2403634Y-4446008D02*
X2413158Y-4455531D01*
X2413158Y-4455531D02*
X2422682Y-4474579D01*
X2422682Y-4474579D02*
X2432205Y-4512674D01*
X2432205Y-4512674D02*
X2432205Y-4560293D01*
X2432205Y-4560293D02*
X2422682Y-4598389D01*
X2422682Y-4598389D02*
X2413158Y-4617436D01*
X2413158Y-4617436D02*
X2403634Y-4626960D01*
X2403634Y-4626960D02*
X2384586Y-4636484D01*
X2384586Y-4636484D02*
X2365539Y-4636484D01*
X2365539Y-4636484D02*
X2346491Y-4626960D01*
X2346491Y-4626960D02*
X2336967Y-4617436D01*
X2336967Y-4617436D02*
X2327444Y-4598389D01*
X2327444Y-4598389D02*
X2317920Y-4560293D01*
X2317920Y-4560293D02*
X2317920Y-4512674D01*
X2317920Y-4512674D02*
X2327444Y-4474579D01*
X2327444Y-4474579D02*
X2336967Y-4455531D01*
X2336967Y-4455531D02*
X2346491Y-4446008D01*
X2346491Y-4446008D02*
X2365539Y-4436484D01*
X2517920Y-4636484D02*
X2517920Y-4503150D01*
X2517920Y-4522198D02*
X2527444Y-4512674D01*
X2527444Y-4512674D02*
X2546491Y-4503150D01*
X2546491Y-4503150D02*
X2575063Y-4503150D01*
X2575063Y-4503150D02*
X2594110Y-4512674D01*
X2594110Y-4512674D02*
X2603634Y-4531722D01*
X2603634Y-4531722D02*
X2603634Y-4636484D01*
X2603634Y-4531722D02*
X2613158Y-4512674D01*
X2613158Y-4512674D02*
X2632205Y-4503150D01*
X2632205Y-4503150D02*
X2660777Y-4503150D01*
X2660777Y-4503150D02*
X2679825Y-4512674D01*
X2679825Y-4512674D02*
X2689348Y-4531722D01*
X2689348Y-4531722D02*
X2689348Y-4636484D01*
X2784586Y-4636484D02*
X2784586Y-4503150D01*
X2784586Y-4522198D02*
X2794110Y-4512674D01*
X2794110Y-4512674D02*
X2813158Y-4503150D01*
X2813158Y-4503150D02*
X2841729Y-4503150D01*
X2841729Y-4503150D02*
X2860777Y-4512674D01*
X2860777Y-4512674D02*
X2870301Y-4531722D01*
X2870301Y-4531722D02*
X2870301Y-4636484D01*
X2870301Y-4531722D02*
X2879824Y-4512674D01*
X2879824Y-4512674D02*
X2898872Y-4503150D01*
X2898872Y-4503150D02*
X2927443Y-4503150D01*
X2927443Y-4503150D02*
X2946491Y-4512674D01*
X2946491Y-4512674D02*
X2956015Y-4531722D01*
X2956015Y-4531722D02*
X2956015Y-4636484D01*
X3346491Y-4426960D02*
X3175063Y-4684103D01*
X3603634Y-4436484D02*
X3622682Y-4436484D01*
X3622682Y-4436484D02*
X3641729Y-4446008D01*
X3641729Y-4446008D02*
X3651253Y-4455531D01*
X3651253Y-4455531D02*
X3660777Y-4474579D01*
X3660777Y-4474579D02*
X3670301Y-4512674D01*
X3670301Y-4512674D02*
X3670301Y-4560293D01*
X3670301Y-4560293D02*
X3660777Y-4598389D01*
X3660777Y-4598389D02*
X3651253Y-4617436D01*
X3651253Y-4617436D02*
X3641729Y-4626960D01*
X3641729Y-4626960D02*
X3622682Y-4636484D01*
X3622682Y-4636484D02*
X3603634Y-4636484D01*
X3603634Y-4636484D02*
X3584586Y-4626960D01*
X3584586Y-4626960D02*
X3575063Y-4617436D01*
X3575063Y-4617436D02*
X3565539Y-4598389D01*
X3565539Y-4598389D02*
X3556015Y-4560293D01*
X3556015Y-4560293D02*
X3556015Y-4512674D01*
X3556015Y-4512674D02*
X3565539Y-4474579D01*
X3565539Y-4474579D02*
X3575063Y-4455531D01*
X3575063Y-4455531D02*
X3584586Y-4446008D01*
X3584586Y-4446008D02*
X3603634Y-4436484D01*
X3756015Y-4617436D02*
X3765539Y-4626960D01*
X3765539Y-4626960D02*
X3756015Y-4636484D01*
X3756015Y-4636484D02*
X3746491Y-4626960D01*
X3746491Y-4626960D02*
X3756015Y-4617436D01*
X3756015Y-4617436D02*
X3756015Y-4636484D01*
X3889348Y-4436484D02*
X3908396Y-4436484D01*
X3908396Y-4436484D02*
X3927444Y-4446008D01*
X3927444Y-4446008D02*
X3936967Y-4455531D01*
X3936967Y-4455531D02*
X3946491Y-4474579D01*
X3946491Y-4474579D02*
X3956015Y-4512674D01*
X3956015Y-4512674D02*
X3956015Y-4560293D01*
X3956015Y-4560293D02*
X3946491Y-4598389D01*
X3946491Y-4598389D02*
X3936967Y-4617436D01*
X3936967Y-4617436D02*
X3927444Y-4626960D01*
X3927444Y-4626960D02*
X3908396Y-4636484D01*
X3908396Y-4636484D02*
X3889348Y-4636484D01*
X3889348Y-4636484D02*
X3870301Y-4626960D01*
X3870301Y-4626960D02*
X3860777Y-4617436D01*
X3860777Y-4617436D02*
X3851253Y-4598389D01*
X3851253Y-4598389D02*
X3841729Y-4560293D01*
X3841729Y-4560293D02*
X3841729Y-4512674D01*
X3841729Y-4512674D02*
X3851253Y-4474579D01*
X3851253Y-4474579D02*
X3860777Y-4455531D01*
X3860777Y-4455531D02*
X3870301Y-4446008D01*
X3870301Y-4446008D02*
X3889348Y-4436484D01*
X4079825Y-4436484D02*
X4098872Y-4436484D01*
X4098872Y-4436484D02*
X4117920Y-4446008D01*
X4117920Y-4446008D02*
X4127444Y-4455531D01*
X4127444Y-4455531D02*
X4136967Y-4474579D01*
X4136967Y-4474579D02*
X4146491Y-4512674D01*
X4146491Y-4512674D02*
X4146491Y-4560293D01*
X4146491Y-4560293D02*
X4136967Y-4598389D01*
X4136967Y-4598389D02*
X4127444Y-4617436D01*
X4127444Y-4617436D02*
X4117920Y-4626960D01*
X4117920Y-4626960D02*
X4098872Y-4636484D01*
X4098872Y-4636484D02*
X4079825Y-4636484D01*
X4079825Y-4636484D02*
X4060777Y-4626960D01*
X4060777Y-4626960D02*
X4051253Y-4617436D01*
X4051253Y-4617436D02*
X4041729Y-4598389D01*
X4041729Y-4598389D02*
X4032206Y-4560293D01*
X4032206Y-4560293D02*
X4032206Y-4512674D01*
X4032206Y-4512674D02*
X4041729Y-4474579D01*
X4041729Y-4474579D02*
X4051253Y-4455531D01*
X4051253Y-4455531D02*
X4060777Y-4446008D01*
X4060777Y-4446008D02*
X4079825Y-4436484D01*
X4241729Y-4636484D02*
X4279825Y-4636484D01*
X4279825Y-4636484D02*
X4298872Y-4626960D01*
X4298872Y-4626960D02*
X4308396Y-4617436D01*
X4308396Y-4617436D02*
X4327444Y-4588865D01*
X4327444Y-4588865D02*
X4336968Y-4550770D01*
X4336968Y-4550770D02*
X4336968Y-4474579D01*
X4336968Y-4474579D02*
X4327444Y-4455531D01*
X4327444Y-4455531D02*
X4317920Y-4446008D01*
X4317920Y-4446008D02*
X4298872Y-4436484D01*
X4298872Y-4436484D02*
X4260777Y-4436484D01*
X4260777Y-4436484D02*
X4241729Y-4446008D01*
X4241729Y-4446008D02*
X4232206Y-4455531D01*
X4232206Y-4455531D02*
X4222682Y-4474579D01*
X4222682Y-4474579D02*
X4222682Y-4522198D01*
X4222682Y-4522198D02*
X4232206Y-4541246D01*
X4232206Y-4541246D02*
X4241729Y-4550770D01*
X4241729Y-4550770D02*
X4260777Y-4560293D01*
X4260777Y-4560293D02*
X4298872Y-4560293D01*
X4298872Y-4560293D02*
X4317920Y-4550770D01*
X4317920Y-4550770D02*
X4327444Y-4541246D01*
X4327444Y-4541246D02*
X4336968Y-4522198D01*
X4451253Y-4522198D02*
X4432206Y-4512674D01*
X4432206Y-4512674D02*
X4422682Y-4503150D01*
X4422682Y-4503150D02*
X4413158Y-4484103D01*
X4413158Y-4484103D02*
X4413158Y-4474579D01*
X4413158Y-4474579D02*
X4422682Y-4455531D01*
X4422682Y-4455531D02*
X4432206Y-4446008D01*
X4432206Y-4446008D02*
X4451253Y-4436484D01*
X4451253Y-4436484D02*
X4489349Y-4436484D01*
X4489349Y-4436484D02*
X4508396Y-4446008D01*
X4508396Y-4446008D02*
X4517920Y-4455531D01*
X4517920Y-4455531D02*
X4527444Y-4474579D01*
X4527444Y-4474579D02*
X4527444Y-4484103D01*
X4527444Y-4484103D02*
X4517920Y-4503150D01*
X4517920Y-4503150D02*
X4508396Y-4512674D01*
X4508396Y-4512674D02*
X4489349Y-4522198D01*
X4489349Y-4522198D02*
X4451253Y-4522198D01*
X4451253Y-4522198D02*
X4432206Y-4531722D01*
X4432206Y-4531722D02*
X4422682Y-4541246D01*
X4422682Y-4541246D02*
X4413158Y-4560293D01*
X4413158Y-4560293D02*
X4413158Y-4598389D01*
X4413158Y-4598389D02*
X4422682Y-4617436D01*
X4422682Y-4617436D02*
X4432206Y-4626960D01*
X4432206Y-4626960D02*
X4451253Y-4636484D01*
X4451253Y-4636484D02*
X4489349Y-4636484D01*
X4489349Y-4636484D02*
X4508396Y-4626960D01*
X4508396Y-4626960D02*
X4517920Y-4617436D01*
X4517920Y-4617436D02*
X4527444Y-4598389D01*
X4527444Y-4598389D02*
X4527444Y-4560293D01*
X4527444Y-4560293D02*
X4517920Y-4541246D01*
X4517920Y-4541246D02*
X4508396Y-4531722D01*
X4508396Y-4531722D02*
X4489349Y-4522198D01*
X4603634Y-4436484D02*
X4603634Y-4474579D01*
X4679825Y-4436484D02*
X4679825Y-4474579D01*
X4975063Y-4712674D02*
X4965539Y-4703150D01*
X4965539Y-4703150D02*
X4946491Y-4674579D01*
X4946491Y-4674579D02*
X4936968Y-4655531D01*
X4936968Y-4655531D02*
X4927444Y-4626960D01*
X4927444Y-4626960D02*
X4917920Y-4579341D01*
X4917920Y-4579341D02*
X4917920Y-4541246D01*
X4917920Y-4541246D02*
X4927444Y-4493627D01*
X4927444Y-4493627D02*
X4936968Y-4465055D01*
X4936968Y-4465055D02*
X4946491Y-4446008D01*
X4946491Y-4446008D02*
X4965539Y-4417436D01*
X4965539Y-4417436D02*
X4975063Y-4407912D01*
X5136968Y-4503150D02*
X5136968Y-4636484D01*
X5089349Y-4426960D02*
X5041730Y-4569817D01*
X5041730Y-4569817D02*
X5165539Y-4569817D01*
X5346491Y-4636484D02*
X5232206Y-4636484D01*
X5289349Y-4636484D02*
X5289349Y-4436484D01*
X5289349Y-4436484D02*
X5270301Y-4465055D01*
X5270301Y-4465055D02*
X5251253Y-4484103D01*
X5251253Y-4484103D02*
X5232206Y-4493627D01*
X5584587Y-4636484D02*
X5584587Y-4436484D01*
X5670301Y-4636484D02*
X5670301Y-4531722D01*
X5670301Y-4531722D02*
X5660777Y-4512674D01*
X5660777Y-4512674D02*
X5641730Y-4503150D01*
X5641730Y-4503150D02*
X5613158Y-4503150D01*
X5613158Y-4503150D02*
X5594110Y-4512674D01*
X5594110Y-4512674D02*
X5584587Y-4522198D01*
X5794110Y-4636484D02*
X5775063Y-4626960D01*
X5775063Y-4626960D02*
X5765539Y-4617436D01*
X5765539Y-4617436D02*
X5756015Y-4598389D01*
X5756015Y-4598389D02*
X5756015Y-4541246D01*
X5756015Y-4541246D02*
X5765539Y-4522198D01*
X5765539Y-4522198D02*
X5775063Y-4512674D01*
X5775063Y-4512674D02*
X5794110Y-4503150D01*
X5794110Y-4503150D02*
X5822682Y-4503150D01*
X5822682Y-4503150D02*
X5841730Y-4512674D01*
X5841730Y-4512674D02*
X5851253Y-4522198D01*
X5851253Y-4522198D02*
X5860777Y-4541246D01*
X5860777Y-4541246D02*
X5860777Y-4598389D01*
X5860777Y-4598389D02*
X5851253Y-4617436D01*
X5851253Y-4617436D02*
X5841730Y-4626960D01*
X5841730Y-4626960D02*
X5822682Y-4636484D01*
X5822682Y-4636484D02*
X5794110Y-4636484D01*
X5975063Y-4636484D02*
X5956015Y-4626960D01*
X5956015Y-4626960D02*
X5946491Y-4607912D01*
X5946491Y-4607912D02*
X5946491Y-4436484D01*
X6127444Y-4626960D02*
X6108396Y-4636484D01*
X6108396Y-4636484D02*
X6070301Y-4636484D01*
X6070301Y-4636484D02*
X6051253Y-4626960D01*
X6051253Y-4626960D02*
X6041730Y-4607912D01*
X6041730Y-4607912D02*
X6041730Y-4531722D01*
X6041730Y-4531722D02*
X6051253Y-4512674D01*
X6051253Y-4512674D02*
X6070301Y-4503150D01*
X6070301Y-4503150D02*
X6108396Y-4503150D01*
X6108396Y-4503150D02*
X6127444Y-4512674D01*
X6127444Y-4512674D02*
X6136968Y-4531722D01*
X6136968Y-4531722D02*
X6136968Y-4550770D01*
X6136968Y-4550770D02*
X6041730Y-4569817D01*
X6213158Y-4626960D02*
X6232206Y-4636484D01*
X6232206Y-4636484D02*
X6270301Y-4636484D01*
X6270301Y-4636484D02*
X6289349Y-4626960D01*
X6289349Y-4626960D02*
X6298872Y-4607912D01*
X6298872Y-4607912D02*
X6298872Y-4598389D01*
X6298872Y-4598389D02*
X6289349Y-4579341D01*
X6289349Y-4579341D02*
X6270301Y-4569817D01*
X6270301Y-4569817D02*
X6241730Y-4569817D01*
X6241730Y-4569817D02*
X6222682Y-4560293D01*
X6222682Y-4560293D02*
X6213158Y-4541246D01*
X6213158Y-4541246D02*
X6213158Y-4531722D01*
X6213158Y-4531722D02*
X6222682Y-4512674D01*
X6222682Y-4512674D02*
X6241730Y-4503150D01*
X6241730Y-4503150D02*
X6270301Y-4503150D01*
X6270301Y-4503150D02*
X6289349Y-4512674D01*
X6365539Y-4712674D02*
X6375063Y-4703150D01*
X6375063Y-4703150D02*
X6394111Y-4674579D01*
X6394111Y-4674579D02*
X6403634Y-4655531D01*
X6403634Y-4655531D02*
X6413158Y-4626960D01*
X6413158Y-4626960D02*
X6422682Y-4579341D01*
X6422682Y-4579341D02*
X6422682Y-4541246D01*
X6422682Y-4541246D02*
X6413158Y-4493627D01*
X6413158Y-4493627D02*
X6403634Y-4465055D01*
X6403634Y-4465055D02*
X6394111Y-4446008D01*
X6394111Y-4446008D02*
X6375063Y-4417436D01*
X6375063Y-4417436D02*
X6365539Y-4407912D01*
D10*
X1400000Y-4809000D02*
G75*
G03*
X1360000Y-4809000I-20000J0D01*
G01*
X1360000Y-4809000D02*
G75*
G03*
X1400000Y-4809000I20000J0D01*
G01*
D11*
X1698872Y-4700484D02*
X1717920Y-4700484D01*
X1717920Y-4700484D02*
X1736967Y-4710008D01*
X1736967Y-4710008D02*
X1746491Y-4719531D01*
X1746491Y-4719531D02*
X1756015Y-4738579D01*
X1756015Y-4738579D02*
X1765539Y-4776674D01*
X1765539Y-4776674D02*
X1765539Y-4824293D01*
X1765539Y-4824293D02*
X1756015Y-4862389D01*
X1756015Y-4862389D02*
X1746491Y-4881436D01*
X1746491Y-4881436D02*
X1736967Y-4890960D01*
X1736967Y-4890960D02*
X1717920Y-4900484D01*
X1717920Y-4900484D02*
X1698872Y-4900484D01*
X1698872Y-4900484D02*
X1679824Y-4890960D01*
X1679824Y-4890960D02*
X1670301Y-4881436D01*
X1670301Y-4881436D02*
X1660777Y-4862389D01*
X1660777Y-4862389D02*
X1651253Y-4824293D01*
X1651253Y-4824293D02*
X1651253Y-4776674D01*
X1651253Y-4776674D02*
X1660777Y-4738579D01*
X1660777Y-4738579D02*
X1670301Y-4719531D01*
X1670301Y-4719531D02*
X1679824Y-4710008D01*
X1679824Y-4710008D02*
X1698872Y-4700484D01*
X1851253Y-4881436D02*
X1860777Y-4890960D01*
X1860777Y-4890960D02*
X1851253Y-4900484D01*
X1851253Y-4900484D02*
X1841729Y-4890960D01*
X1841729Y-4890960D02*
X1851253Y-4881436D01*
X1851253Y-4881436D02*
X1851253Y-4900484D01*
X2032205Y-4767150D02*
X2032205Y-4900484D01*
X1984586Y-4690960D02*
X1936967Y-4833817D01*
X1936967Y-4833817D02*
X2060777Y-4833817D01*
X2175063Y-4700484D02*
X2194110Y-4700484D01*
X2194110Y-4700484D02*
X2213158Y-4710008D01*
X2213158Y-4710008D02*
X2222682Y-4719531D01*
X2222682Y-4719531D02*
X2232205Y-4738579D01*
X2232205Y-4738579D02*
X2241729Y-4776674D01*
X2241729Y-4776674D02*
X2241729Y-4824293D01*
X2241729Y-4824293D02*
X2232205Y-4862389D01*
X2232205Y-4862389D02*
X2222682Y-4881436D01*
X2222682Y-4881436D02*
X2213158Y-4890960D01*
X2213158Y-4890960D02*
X2194110Y-4900484D01*
X2194110Y-4900484D02*
X2175063Y-4900484D01*
X2175063Y-4900484D02*
X2156015Y-4890960D01*
X2156015Y-4890960D02*
X2146491Y-4881436D01*
X2146491Y-4881436D02*
X2136967Y-4862389D01*
X2136967Y-4862389D02*
X2127444Y-4824293D01*
X2127444Y-4824293D02*
X2127444Y-4776674D01*
X2127444Y-4776674D02*
X2136967Y-4738579D01*
X2136967Y-4738579D02*
X2146491Y-4719531D01*
X2146491Y-4719531D02*
X2156015Y-4710008D01*
X2156015Y-4710008D02*
X2175063Y-4700484D01*
X2365539Y-4700484D02*
X2384586Y-4700484D01*
X2384586Y-4700484D02*
X2403634Y-4710008D01*
X2403634Y-4710008D02*
X2413158Y-4719531D01*
X2413158Y-4719531D02*
X2422682Y-4738579D01*
X2422682Y-4738579D02*
X2432205Y-4776674D01*
X2432205Y-4776674D02*
X2432205Y-4824293D01*
X2432205Y-4824293D02*
X2422682Y-4862389D01*
X2422682Y-4862389D02*
X2413158Y-4881436D01*
X2413158Y-4881436D02*
X2403634Y-4890960D01*
X2403634Y-4890960D02*
X2384586Y-4900484D01*
X2384586Y-4900484D02*
X2365539Y-4900484D01*
X2365539Y-4900484D02*
X2346491Y-4890960D01*
X2346491Y-4890960D02*
X2336967Y-4881436D01*
X2336967Y-4881436D02*
X2327444Y-4862389D01*
X2327444Y-4862389D02*
X2317920Y-4824293D01*
X2317920Y-4824293D02*
X2317920Y-4776674D01*
X2317920Y-4776674D02*
X2327444Y-4738579D01*
X2327444Y-4738579D02*
X2336967Y-4719531D01*
X2336967Y-4719531D02*
X2346491Y-4710008D01*
X2346491Y-4710008D02*
X2365539Y-4700484D01*
X2517920Y-4900484D02*
X2517920Y-4767150D01*
X2517920Y-4786198D02*
X2527444Y-4776674D01*
X2527444Y-4776674D02*
X2546491Y-4767150D01*
X2546491Y-4767150D02*
X2575063Y-4767150D01*
X2575063Y-4767150D02*
X2594110Y-4776674D01*
X2594110Y-4776674D02*
X2603634Y-4795722D01*
X2603634Y-4795722D02*
X2603634Y-4900484D01*
X2603634Y-4795722D02*
X2613158Y-4776674D01*
X2613158Y-4776674D02*
X2632205Y-4767150D01*
X2632205Y-4767150D02*
X2660777Y-4767150D01*
X2660777Y-4767150D02*
X2679825Y-4776674D01*
X2679825Y-4776674D02*
X2689348Y-4795722D01*
X2689348Y-4795722D02*
X2689348Y-4900484D01*
X2784586Y-4900484D02*
X2784586Y-4767150D01*
X2784586Y-4786198D02*
X2794110Y-4776674D01*
X2794110Y-4776674D02*
X2813158Y-4767150D01*
X2813158Y-4767150D02*
X2841729Y-4767150D01*
X2841729Y-4767150D02*
X2860777Y-4776674D01*
X2860777Y-4776674D02*
X2870301Y-4795722D01*
X2870301Y-4795722D02*
X2870301Y-4900484D01*
X2870301Y-4795722D02*
X2879824Y-4776674D01*
X2879824Y-4776674D02*
X2898872Y-4767150D01*
X2898872Y-4767150D02*
X2927443Y-4767150D01*
X2927443Y-4767150D02*
X2946491Y-4776674D01*
X2946491Y-4776674D02*
X2956015Y-4795722D01*
X2956015Y-4795722D02*
X2956015Y-4900484D01*
X3346491Y-4690960D02*
X3175063Y-4948103D01*
X3603634Y-4700484D02*
X3622682Y-4700484D01*
X3622682Y-4700484D02*
X3641729Y-4710008D01*
X3641729Y-4710008D02*
X3651253Y-4719531D01*
X3651253Y-4719531D02*
X3660777Y-4738579D01*
X3660777Y-4738579D02*
X3670301Y-4776674D01*
X3670301Y-4776674D02*
X3670301Y-4824293D01*
X3670301Y-4824293D02*
X3660777Y-4862389D01*
X3660777Y-4862389D02*
X3651253Y-4881436D01*
X3651253Y-4881436D02*
X3641729Y-4890960D01*
X3641729Y-4890960D02*
X3622682Y-4900484D01*
X3622682Y-4900484D02*
X3603634Y-4900484D01*
X3603634Y-4900484D02*
X3584586Y-4890960D01*
X3584586Y-4890960D02*
X3575063Y-4881436D01*
X3575063Y-4881436D02*
X3565539Y-4862389D01*
X3565539Y-4862389D02*
X3556015Y-4824293D01*
X3556015Y-4824293D02*
X3556015Y-4776674D01*
X3556015Y-4776674D02*
X3565539Y-4738579D01*
X3565539Y-4738579D02*
X3575063Y-4719531D01*
X3575063Y-4719531D02*
X3584586Y-4710008D01*
X3584586Y-4710008D02*
X3603634Y-4700484D01*
X3756015Y-4881436D02*
X3765539Y-4890960D01*
X3765539Y-4890960D02*
X3756015Y-4900484D01*
X3756015Y-4900484D02*
X3746491Y-4890960D01*
X3746491Y-4890960D02*
X3756015Y-4881436D01*
X3756015Y-4881436D02*
X3756015Y-4900484D01*
X3889348Y-4700484D02*
X3908396Y-4700484D01*
X3908396Y-4700484D02*
X3927444Y-4710008D01*
X3927444Y-4710008D02*
X3936967Y-4719531D01*
X3936967Y-4719531D02*
X3946491Y-4738579D01*
X3946491Y-4738579D02*
X3956015Y-4776674D01*
X3956015Y-4776674D02*
X3956015Y-4824293D01*
X3956015Y-4824293D02*
X3946491Y-4862389D01*
X3946491Y-4862389D02*
X3936967Y-4881436D01*
X3936967Y-4881436D02*
X3927444Y-4890960D01*
X3927444Y-4890960D02*
X3908396Y-4900484D01*
X3908396Y-4900484D02*
X3889348Y-4900484D01*
X3889348Y-4900484D02*
X3870301Y-4890960D01*
X3870301Y-4890960D02*
X3860777Y-4881436D01*
X3860777Y-4881436D02*
X3851253Y-4862389D01*
X3851253Y-4862389D02*
X3841729Y-4824293D01*
X3841729Y-4824293D02*
X3841729Y-4776674D01*
X3841729Y-4776674D02*
X3851253Y-4738579D01*
X3851253Y-4738579D02*
X3860777Y-4719531D01*
X3860777Y-4719531D02*
X3870301Y-4710008D01*
X3870301Y-4710008D02*
X3889348Y-4700484D01*
X4146491Y-4900484D02*
X4032206Y-4900484D01*
X4089348Y-4900484D02*
X4089348Y-4700484D01*
X4089348Y-4700484D02*
X4070301Y-4729055D01*
X4070301Y-4729055D02*
X4051253Y-4748103D01*
X4051253Y-4748103D02*
X4032206Y-4757627D01*
X4327444Y-4700484D02*
X4232206Y-4700484D01*
X4232206Y-4700484D02*
X4222682Y-4795722D01*
X4222682Y-4795722D02*
X4232206Y-4786198D01*
X4232206Y-4786198D02*
X4251253Y-4776674D01*
X4251253Y-4776674D02*
X4298872Y-4776674D01*
X4298872Y-4776674D02*
X4317920Y-4786198D01*
X4317920Y-4786198D02*
X4327444Y-4795722D01*
X4327444Y-4795722D02*
X4336968Y-4814770D01*
X4336968Y-4814770D02*
X4336968Y-4862389D01*
X4336968Y-4862389D02*
X4327444Y-4881436D01*
X4327444Y-4881436D02*
X4317920Y-4890960D01*
X4317920Y-4890960D02*
X4298872Y-4900484D01*
X4298872Y-4900484D02*
X4251253Y-4900484D01*
X4251253Y-4900484D02*
X4232206Y-4890960D01*
X4232206Y-4890960D02*
X4222682Y-4881436D01*
X4403634Y-4700484D02*
X4536968Y-4700484D01*
X4536968Y-4700484D02*
X4451253Y-4900484D01*
X4603634Y-4700484D02*
X4603634Y-4738579D01*
X4679825Y-4700484D02*
X4679825Y-4738579D01*
X4975063Y-4976674D02*
X4965539Y-4967150D01*
X4965539Y-4967150D02*
X4946491Y-4938579D01*
X4946491Y-4938579D02*
X4936968Y-4919531D01*
X4936968Y-4919531D02*
X4927444Y-4890960D01*
X4927444Y-4890960D02*
X4917920Y-4843341D01*
X4917920Y-4843341D02*
X4917920Y-4805246D01*
X4917920Y-4805246D02*
X4927444Y-4757627D01*
X4927444Y-4757627D02*
X4936968Y-4729055D01*
X4936968Y-4729055D02*
X4946491Y-4710008D01*
X4946491Y-4710008D02*
X4965539Y-4681436D01*
X4965539Y-4681436D02*
X4975063Y-4671912D01*
X5032206Y-4700484D02*
X5156015Y-4700484D01*
X5156015Y-4700484D02*
X5089349Y-4776674D01*
X5089349Y-4776674D02*
X5117920Y-4776674D01*
X5117920Y-4776674D02*
X5136968Y-4786198D01*
X5136968Y-4786198D02*
X5146491Y-4795722D01*
X5146491Y-4795722D02*
X5156015Y-4814770D01*
X5156015Y-4814770D02*
X5156015Y-4862389D01*
X5156015Y-4862389D02*
X5146491Y-4881436D01*
X5146491Y-4881436D02*
X5136968Y-4890960D01*
X5136968Y-4890960D02*
X5117920Y-4900484D01*
X5117920Y-4900484D02*
X5060777Y-4900484D01*
X5060777Y-4900484D02*
X5041730Y-4890960D01*
X5041730Y-4890960D02*
X5032206Y-4881436D01*
X5394111Y-4900484D02*
X5394111Y-4700484D01*
X5479825Y-4900484D02*
X5479825Y-4795722D01*
X5479825Y-4795722D02*
X5470301Y-4776674D01*
X5470301Y-4776674D02*
X5451253Y-4767150D01*
X5451253Y-4767150D02*
X5422682Y-4767150D01*
X5422682Y-4767150D02*
X5403634Y-4776674D01*
X5403634Y-4776674D02*
X5394111Y-4786198D01*
X5603634Y-4900484D02*
X5584587Y-4890960D01*
X5584587Y-4890960D02*
X5575063Y-4881436D01*
X5575063Y-4881436D02*
X5565539Y-4862389D01*
X5565539Y-4862389D02*
X5565539Y-4805246D01*
X5565539Y-4805246D02*
X5575063Y-4786198D01*
X5575063Y-4786198D02*
X5584587Y-4776674D01*
X5584587Y-4776674D02*
X5603634Y-4767150D01*
X5603634Y-4767150D02*
X5632206Y-4767150D01*
X5632206Y-4767150D02*
X5651253Y-4776674D01*
X5651253Y-4776674D02*
X5660777Y-4786198D01*
X5660777Y-4786198D02*
X5670301Y-4805246D01*
X5670301Y-4805246D02*
X5670301Y-4862389D01*
X5670301Y-4862389D02*
X5660777Y-4881436D01*
X5660777Y-4881436D02*
X5651253Y-4890960D01*
X5651253Y-4890960D02*
X5632206Y-4900484D01*
X5632206Y-4900484D02*
X5603634Y-4900484D01*
X5784587Y-4900484D02*
X5765539Y-4890960D01*
X5765539Y-4890960D02*
X5756015Y-4871912D01*
X5756015Y-4871912D02*
X5756015Y-4700484D01*
X5936968Y-4890960D02*
X5917920Y-4900484D01*
X5917920Y-4900484D02*
X5879825Y-4900484D01*
X5879825Y-4900484D02*
X5860777Y-4890960D01*
X5860777Y-4890960D02*
X5851253Y-4871912D01*
X5851253Y-4871912D02*
X5851253Y-4795722D01*
X5851253Y-4795722D02*
X5860777Y-4776674D01*
X5860777Y-4776674D02*
X5879825Y-4767150D01*
X5879825Y-4767150D02*
X5917920Y-4767150D01*
X5917920Y-4767150D02*
X5936968Y-4776674D01*
X5936968Y-4776674D02*
X5946491Y-4795722D01*
X5946491Y-4795722D02*
X5946491Y-4814770D01*
X5946491Y-4814770D02*
X5851253Y-4833817D01*
X6022682Y-4890960D02*
X6041730Y-4900484D01*
X6041730Y-4900484D02*
X6079825Y-4900484D01*
X6079825Y-4900484D02*
X6098872Y-4890960D01*
X6098872Y-4890960D02*
X6108396Y-4871912D01*
X6108396Y-4871912D02*
X6108396Y-4862389D01*
X6108396Y-4862389D02*
X6098872Y-4843341D01*
X6098872Y-4843341D02*
X6079825Y-4833817D01*
X6079825Y-4833817D02*
X6051253Y-4833817D01*
X6051253Y-4833817D02*
X6032206Y-4824293D01*
X6032206Y-4824293D02*
X6022682Y-4805246D01*
X6022682Y-4805246D02*
X6022682Y-4795722D01*
X6022682Y-4795722D02*
X6032206Y-4776674D01*
X6032206Y-4776674D02*
X6051253Y-4767150D01*
X6051253Y-4767150D02*
X6079825Y-4767150D01*
X6079825Y-4767150D02*
X6098872Y-4776674D01*
X6175063Y-4976674D02*
X6184587Y-4967150D01*
X6184587Y-4967150D02*
X6203634Y-4938579D01*
X6203634Y-4938579D02*
X6213158Y-4919531D01*
X6213158Y-4919531D02*
X6222682Y-4890960D01*
X6222682Y-4890960D02*
X6232206Y-4843341D01*
X6232206Y-4843341D02*
X6232206Y-4805246D01*
X6232206Y-4805246D02*
X6222682Y-4757627D01*
X6222682Y-4757627D02*
X6213158Y-4729055D01*
X6213158Y-4729055D02*
X6203634Y-4710008D01*
X6203634Y-4710008D02*
X6184587Y-4681436D01*
X6184587Y-4681436D02*
X6175063Y-4671912D01*
M02*
