%TF.GenerationSoftware,KiCad,Pcbnew,7.0.11-7.0.11~ubuntu22.04.1*%
%TF.CreationDate,2024-12-10T04:55:39+01:00*%
%TF.ProjectId,40_to_WP27D-P050VA3,34305f74-6f5f-4575-9032-37442d503035,rev?*%
%TF.SameCoordinates,Original*%
%TF.FileFunction,Legend,Top*%
%TF.FilePolarity,Positive*%
%FSLAX46Y46*%
G04 Gerber Fmt 4.6, Leading zero omitted, Abs format (unit mm)*
G04 Created by KiCad (PCBNEW 7.0.11-7.0.11~ubuntu22.04.1) date 2024-12-10 04:55:39*
%MOMM*%
%LPD*%
G01*
G04 APERTURE LIST*
G04 Aperture macros list*
%AMRoundRect*
0 Rectangle with rounded corners*
0 $1 Rounding radius*
0 $2 $3 $4 $5 $6 $7 $8 $9 X,Y pos of 4 corners*
0 Add a 4 corners polygon primitive as box body*
4,1,4,$2,$3,$4,$5,$6,$7,$8,$9,$2,$3,0*
0 Add four circle primitives for the rounded corners*
1,1,$1+$1,$2,$3*
1,1,$1+$1,$4,$5*
1,1,$1+$1,$6,$7*
1,1,$1+$1,$8,$9*
0 Add four rect primitives between the rounded corners*
20,1,$1+$1,$2,$3,$4,$5,0*
20,1,$1+$1,$4,$5,$6,$7,0*
20,1,$1+$1,$6,$7,$8,$9,0*
20,1,$1+$1,$8,$9,$2,$3,0*%
G04 Aperture macros list end*
%ADD10C,0.140000*%
%ADD11C,0.150000*%
%ADD12C,0.120000*%
%ADD13R,1.000000X1.000000*%
%ADD14RoundRect,0.200000X0.200000X0.275000X-0.200000X0.275000X-0.200000X-0.275000X0.200000X-0.275000X0*%
%ADD15R,0.150000X0.400000*%
%ADD16R,0.600000X0.300000*%
%ADD17R,1.300000X0.300000*%
%ADD18R,2.200000X1.800000*%
G04 APERTURE END LIST*
D10*
X44066390Y-27314815D02*
X44599724Y-28114815D01*
X44599724Y-27314815D02*
X44066390Y-28114815D01*
X45056867Y-27314815D02*
X45209248Y-27314815D01*
X45209248Y-27314815D02*
X45285438Y-27352910D01*
X45285438Y-27352910D02*
X45361629Y-27429100D01*
X45361629Y-27429100D02*
X45399724Y-27581481D01*
X45399724Y-27581481D02*
X45399724Y-27848148D01*
X45399724Y-27848148D02*
X45361629Y-28000529D01*
X45361629Y-28000529D02*
X45285438Y-28076720D01*
X45285438Y-28076720D02*
X45209248Y-28114815D01*
X45209248Y-28114815D02*
X45056867Y-28114815D01*
X45056867Y-28114815D02*
X44980676Y-28076720D01*
X44980676Y-28076720D02*
X44904486Y-28000529D01*
X44904486Y-28000529D02*
X44866390Y-27848148D01*
X44866390Y-27848148D02*
X44866390Y-27581481D01*
X44866390Y-27581481D02*
X44904486Y-27429100D01*
X44904486Y-27429100D02*
X44980676Y-27352910D01*
X44980676Y-27352910D02*
X45056867Y-27314815D01*
X45742581Y-28114815D02*
X45742581Y-27314815D01*
X45742581Y-27314815D02*
X46199724Y-28114815D01*
X46199724Y-28114815D02*
X46199724Y-27314815D01*
X37753533Y-17494815D02*
X37372581Y-17494815D01*
X37372581Y-17494815D02*
X37334485Y-17875767D01*
X37334485Y-17875767D02*
X37372581Y-17837672D01*
X37372581Y-17837672D02*
X37448771Y-17799577D01*
X37448771Y-17799577D02*
X37639247Y-17799577D01*
X37639247Y-17799577D02*
X37715438Y-17837672D01*
X37715438Y-17837672D02*
X37753533Y-17875767D01*
X37753533Y-17875767D02*
X37791628Y-17951958D01*
X37791628Y-17951958D02*
X37791628Y-18142434D01*
X37791628Y-18142434D02*
X37753533Y-18218624D01*
X37753533Y-18218624D02*
X37715438Y-18256720D01*
X37715438Y-18256720D02*
X37639247Y-18294815D01*
X37639247Y-18294815D02*
X37448771Y-18294815D01*
X37448771Y-18294815D02*
X37372581Y-18256720D01*
X37372581Y-18256720D02*
X37334485Y-18218624D01*
X38286867Y-17494815D02*
X38363057Y-17494815D01*
X38363057Y-17494815D02*
X38439248Y-17532910D01*
X38439248Y-17532910D02*
X38477343Y-17571005D01*
X38477343Y-17571005D02*
X38515438Y-17647196D01*
X38515438Y-17647196D02*
X38553533Y-17799577D01*
X38553533Y-17799577D02*
X38553533Y-17990053D01*
X38553533Y-17990053D02*
X38515438Y-18142434D01*
X38515438Y-18142434D02*
X38477343Y-18218624D01*
X38477343Y-18218624D02*
X38439248Y-18256720D01*
X38439248Y-18256720D02*
X38363057Y-18294815D01*
X38363057Y-18294815D02*
X38286867Y-18294815D01*
X38286867Y-18294815D02*
X38210676Y-18256720D01*
X38210676Y-18256720D02*
X38172581Y-18218624D01*
X38172581Y-18218624D02*
X38134486Y-18142434D01*
X38134486Y-18142434D02*
X38096390Y-17990053D01*
X38096390Y-17990053D02*
X38096390Y-17799577D01*
X38096390Y-17799577D02*
X38134486Y-17647196D01*
X38134486Y-17647196D02*
X38172581Y-17571005D01*
X38172581Y-17571005D02*
X38210676Y-17532910D01*
X38210676Y-17532910D02*
X38286867Y-17494815D01*
X38041628Y-22444815D02*
X37584485Y-22444815D01*
X37813057Y-22444815D02*
X37813057Y-21644815D01*
X37813057Y-21644815D02*
X37736866Y-21759100D01*
X37736866Y-21759100D02*
X37660676Y-21835291D01*
X37660676Y-21835291D02*
X37584485Y-21873386D01*
D11*
X49079523Y-20229580D02*
X49031904Y-20277200D01*
X49031904Y-20277200D02*
X48889047Y-20324819D01*
X48889047Y-20324819D02*
X48793809Y-20324819D01*
X48793809Y-20324819D02*
X48650952Y-20277200D01*
X48650952Y-20277200D02*
X48555714Y-20181961D01*
X48555714Y-20181961D02*
X48508095Y-20086723D01*
X48508095Y-20086723D02*
X48460476Y-19896247D01*
X48460476Y-19896247D02*
X48460476Y-19753390D01*
X48460476Y-19753390D02*
X48508095Y-19562914D01*
X48508095Y-19562914D02*
X48555714Y-19467676D01*
X48555714Y-19467676D02*
X48650952Y-19372438D01*
X48650952Y-19372438D02*
X48793809Y-19324819D01*
X48793809Y-19324819D02*
X48889047Y-19324819D01*
X48889047Y-19324819D02*
X49031904Y-19372438D01*
X49031904Y-19372438D02*
X49079523Y-19420057D01*
X49508095Y-20324819D02*
X49508095Y-19324819D01*
X49508095Y-19324819D02*
X50079523Y-20324819D01*
X50079523Y-20324819D02*
X50079523Y-19324819D01*
X51079523Y-20324819D02*
X50508095Y-20324819D01*
X50793809Y-20324819D02*
X50793809Y-19324819D01*
X50793809Y-19324819D02*
X50698571Y-19467676D01*
X50698571Y-19467676D02*
X50603333Y-19562914D01*
X50603333Y-19562914D02*
X50508095Y-19610533D01*
X23904819Y-24801904D02*
X24714342Y-24801904D01*
X24714342Y-24801904D02*
X24809580Y-24754285D01*
X24809580Y-24754285D02*
X24857200Y-24706666D01*
X24857200Y-24706666D02*
X24904819Y-24611428D01*
X24904819Y-24611428D02*
X24904819Y-24420952D01*
X24904819Y-24420952D02*
X24857200Y-24325714D01*
X24857200Y-24325714D02*
X24809580Y-24278095D01*
X24809580Y-24278095D02*
X24714342Y-24230476D01*
X24714342Y-24230476D02*
X23904819Y-24230476D01*
X24904819Y-23230476D02*
X24904819Y-23801904D01*
X24904819Y-23516190D02*
X23904819Y-23516190D01*
X23904819Y-23516190D02*
X24047676Y-23611428D01*
X24047676Y-23611428D02*
X24142914Y-23706666D01*
X24142914Y-23706666D02*
X24190533Y-23801904D01*
D12*
%TO.C,TP1*%
X43650000Y-26890000D02*
X43650000Y-25490000D01*
X45050000Y-25490000D02*
X45050000Y-26890000D01*
X43650000Y-25490000D02*
X45050000Y-25490000D01*
X45050000Y-26890000D02*
X43650000Y-26890000D01*
%TO.C,R1*%
X43597258Y-23827500D02*
X43122742Y-23827500D01*
X43597258Y-24872500D02*
X43122742Y-24872500D01*
D11*
%TO.C,CN1*%
X36530000Y-18930000D02*
X36560000Y-18930000D01*
X36530000Y-20830000D02*
X36530000Y-18930000D01*
X36560000Y-20830000D02*
X36530000Y-20830000D01*
X37520000Y-18930000D02*
X37710000Y-18930000D01*
X37710000Y-20830000D02*
X37520000Y-20830000D01*
X46670000Y-18930000D02*
X46860000Y-18930000D01*
X46860000Y-20830000D02*
X46670000Y-20830000D01*
X47820000Y-18930000D02*
X47850000Y-18930000D01*
X47850000Y-18930000D02*
X47850000Y-20830000D01*
X47850000Y-20830000D02*
X47820000Y-20830000D01*
D12*
%TO.C,U1*%
X22050000Y-12390000D02*
X20710000Y-12390000D01*
X16250000Y-12390000D02*
X17990000Y-12390000D01*
X22050000Y-13880000D02*
X22050000Y-12390000D01*
X22050000Y-34200000D02*
X23250000Y-34200000D01*
X22050000Y-34200000D02*
X22050000Y-35690000D01*
X22050000Y-35690000D02*
X20710000Y-35690000D01*
X17990000Y-35690000D02*
X16250000Y-35690000D01*
X16250000Y-35690000D02*
X16250000Y-12390000D01*
%TD*%
%LPC*%
D13*
%TO.C,TP1*%
X44350000Y-26190000D03*
%TD*%
D14*
%TO.C,R1*%
X44185000Y-24350000D03*
X42535000Y-24350000D03*
%TD*%
D15*
%TO.C,CN1*%
X37990000Y-20790000D03*
X38340000Y-20790000D03*
X38690000Y-20790000D03*
X39040000Y-20790000D03*
X39390000Y-20790000D03*
X39740000Y-20790000D03*
X40090000Y-20790000D03*
X40440000Y-20790000D03*
X40790000Y-20790000D03*
X41140000Y-20790000D03*
X41490000Y-20790000D03*
X41840000Y-20790000D03*
X42190000Y-20790000D03*
X42540000Y-20790000D03*
X42890000Y-20790000D03*
X43240000Y-20790000D03*
X43590000Y-20790000D03*
X43940000Y-20790000D03*
X44290000Y-20790000D03*
X44640000Y-20790000D03*
X44990000Y-20790000D03*
X45340000Y-20790000D03*
X45690000Y-20790000D03*
X46040000Y-20790000D03*
X46390000Y-20790000D03*
X46390000Y-18970000D03*
X46040000Y-18970000D03*
X45690000Y-18970000D03*
X45340000Y-18970000D03*
X44990000Y-18970000D03*
X44640000Y-18970000D03*
X44290000Y-18970000D03*
X43940000Y-18970000D03*
X43590000Y-18970000D03*
X43240000Y-18970000D03*
X42890000Y-18970000D03*
X42540000Y-18970000D03*
X42190000Y-18970000D03*
X41840000Y-18970000D03*
X41490000Y-18970000D03*
X41140000Y-18970000D03*
X40790000Y-18970000D03*
X40440000Y-18970000D03*
X40090000Y-18970000D03*
X39740000Y-18970000D03*
X39390000Y-18970000D03*
X39040000Y-18970000D03*
X38690000Y-18970000D03*
X38340000Y-18970000D03*
X37990000Y-18970000D03*
D16*
X47340000Y-18990000D03*
X47340000Y-20770000D03*
X37040000Y-20770000D03*
X37040000Y-18990000D03*
%TD*%
D17*
%TO.C,U1*%
X22600000Y-33790000D03*
X22600000Y-33290000D03*
X22600000Y-32790000D03*
X22600000Y-32290000D03*
X22600000Y-31790000D03*
X22600000Y-31290000D03*
X22600000Y-30790000D03*
X22600000Y-30290000D03*
X22600000Y-29790000D03*
X22600000Y-29290000D03*
X22600000Y-28790000D03*
X22600000Y-28290000D03*
X22600000Y-27790000D03*
X22600000Y-27290000D03*
X22600000Y-26790000D03*
X22600000Y-26290000D03*
X22600000Y-25790000D03*
X22600000Y-25290000D03*
X22600000Y-24790000D03*
X22600000Y-24290000D03*
X22600000Y-23790000D03*
X22600000Y-23290000D03*
X22600000Y-22790000D03*
X22600000Y-22290000D03*
X22600000Y-21790000D03*
X22600000Y-21290000D03*
X22600000Y-20790000D03*
X22600000Y-20290000D03*
X22600000Y-19790000D03*
X22600000Y-19290000D03*
X22600000Y-18790000D03*
X22600000Y-18290000D03*
X22600000Y-17790000D03*
X22600000Y-17290000D03*
X22600000Y-16790000D03*
X22600000Y-16290000D03*
X22600000Y-15790000D03*
X22600000Y-15290000D03*
X22600000Y-14790000D03*
X22600000Y-14290000D03*
D18*
X19350000Y-12390000D03*
X19350000Y-35690000D03*
%TD*%
%LPD*%
M02*
