%TF.GenerationSoftware,KiCad,Pcbnew,7.0.11-7.0.11~ubuntu22.04.1*%
%TF.CreationDate,2024-12-09T17:56:29+01:00*%
%TF.ProjectId,40_to_WP27D-P050VA3,34305f74-6f5f-4575-9032-37442d503035,rev?*%
%TF.SameCoordinates,Original*%
%TF.FileFunction,Copper,L2,Bot*%
%TF.FilePolarity,Positive*%
%FSLAX46Y46*%
G04 Gerber Fmt 4.6, Leading zero omitted, Abs format (unit mm)*
G04 Created by KiCad (PCBNEW 7.0.11-7.0.11~ubuntu22.04.1) date 2024-12-09 17:56:29*
%MOMM*%
%LPD*%
G01*
G04 APERTURE LIST*
%TA.AperFunction,ViaPad*%
%ADD10C,0.450000*%
%TD*%
%TA.AperFunction,ViaPad*%
%ADD11C,0.800000*%
%TD*%
%TA.AperFunction,ViaPad*%
%ADD12C,0.500000*%
%TD*%
%TA.AperFunction,Conductor*%
%ADD13C,0.200000*%
%TD*%
%TA.AperFunction,Conductor*%
%ADD14C,0.300000*%
%TD*%
G04 APERTURE END LIST*
D10*
%TO.N,/XLE*%
X41370000Y-13790000D03*
%TO.N,/CKV*%
X38860000Y-14840000D03*
%TO.N,/VCOM*%
X37950000Y-14970000D03*
D11*
%TO.N,GND*%
X38430000Y-11600000D03*
D10*
%TO.N,/D2*%
X37805323Y-13261533D03*
%TO.N,/D0*%
X35630000Y-13270000D03*
%TO.N,/XLE*%
X39139087Y-13055913D03*
%TO.N,/CKV*%
X43680000Y-12990000D03*
%TO.N,/SPV*%
X40890000Y-25550000D03*
X39095019Y-19278179D03*
%TO.N,/MODE*%
X41920000Y-26830000D03*
X38118744Y-19441280D03*
%TO.N,GND*%
X37101493Y-18817320D03*
X42550000Y-14560000D03*
%TO.N,/VGL*%
X26020000Y-20290000D03*
X24560000Y-33700000D03*
%TO.N,/XCL*%
X41470000Y-15150000D03*
X27460000Y-27700000D03*
%TO.N,GND*%
X37168997Y-14982854D03*
%TO.N,/VCOM*%
X26595000Y-29200000D03*
%TO.N,/D0*%
X18540000Y-25400000D03*
%TO.N,/D1*%
X28815000Y-26570000D03*
X38212443Y-20280516D03*
%TO.N,/D2*%
X27285000Y-26480480D03*
%TO.N,/D3*%
X39029007Y-20343509D03*
X29390000Y-26074074D03*
%TO.N,/D5*%
X39972013Y-20522506D03*
X31171124Y-25106124D03*
%TO.N,/VGH*%
X19330000Y-16060000D03*
X19630000Y-32590000D03*
%TO.N,/XSTL*%
X41229349Y-19275318D03*
X40714957Y-20254936D03*
%TO.N,/BRD*%
X27880000Y-18970000D03*
D11*
%TO.N,VDD*%
X44030000Y-26140000D03*
X44010000Y-21690000D03*
D10*
%TO.N,GND*%
X44750000Y-17290000D03*
X43410979Y-17305900D03*
X43140000Y-15470000D03*
D12*
X19925000Y-23003248D03*
X19725000Y-28200000D03*
X19275000Y-29700000D03*
D10*
%TO.N,VDD*%
X19900000Y-28900000D03*
X19875000Y-31675000D03*
%TO.N,/BRD*%
X24775000Y-14325000D03*
%TD*%
D13*
%TO.N,/XLE*%
X41370000Y-13790000D02*
X40635913Y-13055913D01*
X40635913Y-13055913D02*
X39139087Y-13055913D01*
%TO.N,/CKV*%
X38860000Y-14840000D02*
X41071752Y-14840000D01*
X41230876Y-14680876D02*
X42921752Y-12990000D01*
X41071752Y-14840000D02*
X41230876Y-14680876D01*
X42921752Y-12990000D02*
X43680000Y-12990000D01*
%TO.N,GND*%
X38430000Y-11600000D02*
X38430000Y-13670000D01*
X38430000Y-13670000D02*
X37168997Y-14931003D01*
X37168997Y-14931003D02*
X37168997Y-14982854D01*
%TO.N,/VCOM*%
X37950000Y-14970000D02*
X37950000Y-15015025D01*
X37950000Y-15015025D02*
X34970025Y-17995000D01*
%TO.N,/D2*%
X36428467Y-13261533D02*
X37805323Y-13261533D01*
X27285000Y-24360000D02*
X27285000Y-22405000D01*
X27285000Y-22405000D02*
X36428467Y-13261533D01*
X27285000Y-24360000D02*
X27285000Y-26480480D01*
%TO.N,/D0*%
X33830000Y-13900000D02*
X34460000Y-13270000D01*
X34460000Y-13270000D02*
X35630000Y-13270000D01*
%TO.N,/VGL*%
X26020000Y-32240000D02*
X24560000Y-33700000D01*
%TO.N,/VCOM*%
X27770000Y-26855026D02*
X27500026Y-27125000D01*
X27221827Y-27125000D02*
X26595000Y-27751827D01*
%TO.N,/XCL*%
X36791827Y-18345000D02*
X35755000Y-18345000D01*
%TO.N,/VCOM*%
X27500026Y-27125000D02*
X27221827Y-27125000D01*
%TO.N,/XCL*%
X37286827Y-17850000D02*
X36791827Y-18345000D01*
%TO.N,/VCOM*%
X27770000Y-25195025D02*
X27770000Y-26855026D01*
%TO.N,/XCL*%
X41470000Y-15150000D02*
X41264314Y-15150000D01*
X35755000Y-18345000D02*
X28240000Y-25860000D01*
%TO.N,/VCOM*%
X34970025Y-17995000D02*
X27770000Y-25195025D01*
%TO.N,/VGL*%
X26020000Y-20290000D02*
X26020000Y-32240000D01*
%TO.N,/XCL*%
X41264314Y-15150000D02*
X38564314Y-17850000D01*
X38564314Y-17850000D02*
X37286827Y-17850000D01*
X28240000Y-25860000D02*
X28240000Y-26920000D01*
%TO.N,/VCOM*%
X26595000Y-27751827D02*
X26595000Y-29200000D01*
%TO.N,/XCL*%
X28240000Y-26920000D02*
X27460000Y-27700000D01*
%TO.N,/SPV*%
X41550318Y-18800318D02*
X40639682Y-18800318D01*
X41340000Y-25100000D02*
X41340000Y-24530000D01*
%TO.N,/MODE*%
X40737818Y-17330000D02*
X40345686Y-17330000D01*
%TO.N,/SPV*%
X41704349Y-18954349D02*
X41550318Y-18800318D01*
%TO.N,/MODE*%
X40345686Y-17330000D02*
X38458365Y-19217320D01*
D14*
%TO.N,GND*%
X40180000Y-16930000D02*
X40440000Y-16930000D01*
D13*
%TO.N,/D5*%
X31171124Y-25106124D02*
X35983824Y-25106124D01*
D14*
%TO.N,GND*%
X42550000Y-14820000D02*
X42550000Y-14560000D01*
D13*
%TO.N,/SPV*%
X40639682Y-18800318D02*
X40161821Y-19278179D01*
D14*
%TO.N,GND*%
X37101493Y-18817320D02*
X38292680Y-18817320D01*
D13*
%TO.N,/SPV*%
X41340000Y-24530000D02*
X41704349Y-24165651D01*
%TO.N,/D5*%
X39972013Y-21117935D02*
X39972013Y-20522506D01*
%TO.N,/MODE*%
X41920000Y-24780000D02*
X42200000Y-24500000D01*
%TO.N,/SPV*%
X40890000Y-25550000D02*
X41340000Y-25100000D01*
%TO.N,/MODE*%
X42200000Y-18792182D02*
X40737818Y-17330000D01*
%TO.N,/SPV*%
X40161821Y-19278179D02*
X39095019Y-19278179D01*
%TO.N,/MODE*%
X38458365Y-19217320D02*
X38342704Y-19217320D01*
X38342704Y-19217320D02*
X38118744Y-19441280D01*
%TO.N,/D5*%
X35983824Y-25106124D02*
X39972013Y-21117935D01*
%TO.N,/SPV*%
X41704349Y-24165651D02*
X41704349Y-18954349D01*
%TO.N,/MODE*%
X42200000Y-24500000D02*
X42200000Y-18792182D01*
X41920000Y-26830000D02*
X41920000Y-24780000D01*
D14*
%TO.N,GND*%
X38292680Y-18817320D02*
X40180000Y-16930000D01*
X40440000Y-16930000D02*
X42550000Y-14820000D01*
D13*
%TO.N,/XSTL*%
X40714957Y-20254936D02*
X40714957Y-19789710D01*
X40714957Y-19789710D02*
X41229349Y-19275318D01*
%TO.N,/D3*%
X29390000Y-26074074D02*
X31154074Y-24310000D01*
%TO.N,/D1*%
X28815000Y-25779974D02*
X34314458Y-20280516D01*
%TO.N,/D3*%
X39029007Y-21565967D02*
X39029007Y-20343509D01*
X36284974Y-24310000D02*
X39029007Y-21565967D01*
%TO.N,/D1*%
X34314458Y-20280516D02*
X38212443Y-20280516D01*
%TO.N,/D3*%
X31154074Y-24310000D02*
X36284974Y-24310000D01*
%TO.N,/D1*%
X28815000Y-26570000D02*
X28815000Y-25779974D01*
%TO.N,/D0*%
X33830000Y-13900000D02*
X28300000Y-19430000D01*
X28170000Y-19560000D02*
X20260000Y-19560000D01*
X28300000Y-19430000D02*
X28170000Y-19560000D01*
X18540000Y-21280000D02*
X18540000Y-25400000D01*
X20260000Y-19560000D02*
X18540000Y-21280000D01*
D14*
%TO.N,/VGH*%
X17790000Y-30750000D02*
X19630000Y-32590000D01*
X17790000Y-17600000D02*
X17790000Y-30750000D01*
X19330000Y-16060000D02*
X17790000Y-17600000D01*
D13*
%TO.N,/BRD*%
X27880000Y-17430000D02*
X24775000Y-14325000D01*
X27880000Y-18970000D02*
X27880000Y-17430000D01*
%TO.N,VDD*%
X44030000Y-26140000D02*
X44030000Y-21710000D01*
X44030000Y-21710000D02*
X44010000Y-21690000D01*
X19875000Y-28925000D02*
X19900000Y-28900000D01*
X19875000Y-31675000D02*
X19875000Y-28925000D01*
%TD*%
%TA.AperFunction,Conductor*%
%TO.N,GND*%
G36*
X38635221Y-13589965D02*
G01*
X38642779Y-13596931D01*
X38678863Y-13633015D01*
X38787568Y-13701318D01*
X38818820Y-13720955D01*
X38974835Y-13775547D01*
X39139087Y-13794054D01*
X39303339Y-13775547D01*
X39459354Y-13720955D01*
X39518604Y-13683726D01*
X39585640Y-13664413D01*
X40331674Y-13664413D01*
X40399795Y-13684415D01*
X40420769Y-13701318D01*
X40617795Y-13898344D01*
X40645502Y-13948457D01*
X40648029Y-13947574D01*
X40688728Y-14063885D01*
X40692348Y-14134789D01*
X40657059Y-14196394D01*
X40594065Y-14229141D01*
X40569799Y-14231500D01*
X39306553Y-14231500D01*
X39239517Y-14212187D01*
X39180269Y-14174959D01*
X39180267Y-14174958D01*
X39139657Y-14160748D01*
X39024252Y-14120366D01*
X38860000Y-14101859D01*
X38695748Y-14120366D01*
X38695745Y-14120366D01*
X38695745Y-14120367D01*
X38539732Y-14174958D01*
X38539730Y-14174959D01*
X38399779Y-14262896D01*
X38399778Y-14262896D01*
X38391024Y-14271650D01*
X38328709Y-14305670D01*
X38260320Y-14301477D01*
X38150066Y-14262898D01*
X38114252Y-14250366D01*
X37984526Y-14235749D01*
X37958557Y-14232823D01*
X37893104Y-14205319D01*
X37883336Y-14191096D01*
X37868044Y-14216573D01*
X37804396Y-14248028D01*
X37796768Y-14249124D01*
X37785751Y-14250365D01*
X37785745Y-14250366D01*
X37629732Y-14304958D01*
X37629730Y-14304959D01*
X37489776Y-14392897D01*
X37372897Y-14509776D01*
X37284959Y-14649730D01*
X37284958Y-14649732D01*
X37230367Y-14805742D01*
X37230365Y-14805755D01*
X37226620Y-14838983D01*
X37199115Y-14904435D01*
X37190508Y-14913966D01*
X34567953Y-17536523D01*
X28108595Y-23995881D01*
X28046283Y-24029907D01*
X27975468Y-24024842D01*
X27918632Y-23982295D01*
X27893821Y-23915775D01*
X27893500Y-23906786D01*
X27893500Y-22709239D01*
X27913502Y-22641118D01*
X27930405Y-22620144D01*
X36643611Y-13906938D01*
X36705923Y-13872912D01*
X36732706Y-13870033D01*
X37358770Y-13870033D01*
X37425806Y-13889346D01*
X37453804Y-13906938D01*
X37485056Y-13926575D01*
X37641071Y-13981167D01*
X37796767Y-13998710D01*
X37862218Y-14026213D01*
X37871985Y-14040435D01*
X37887278Y-14014959D01*
X37950927Y-13983504D01*
X37958533Y-13982411D01*
X37969575Y-13981167D01*
X38125590Y-13926575D01*
X38265546Y-13838635D01*
X38382425Y-13721756D01*
X38446997Y-13618989D01*
X38500175Y-13571952D01*
X38570342Y-13561132D01*
X38635221Y-13589965D01*
G37*
%TD.AperFunction*%
%TA.AperFunction,Conductor*%
G36*
X38028756Y-18478502D02*
G01*
X38075249Y-18532158D01*
X38085353Y-18602432D01*
X38055859Y-18667012D01*
X38044546Y-18676993D01*
X38044589Y-18677036D01*
X38041652Y-18679972D01*
X38029276Y-18690824D01*
X38022855Y-18695751D01*
X37960267Y-18720995D01*
X37954492Y-18721646D01*
X37954488Y-18721646D01*
X37798476Y-18776238D01*
X37798474Y-18776239D01*
X37658520Y-18864177D01*
X37541641Y-18981056D01*
X37453703Y-19121010D01*
X37453702Y-19121012D01*
X37438741Y-19163768D01*
X37399110Y-19277028D01*
X37380603Y-19441280D01*
X37390814Y-19531909D01*
X37378566Y-19601840D01*
X37330453Y-19654048D01*
X37265607Y-19672016D01*
X35592722Y-19672016D01*
X35524601Y-19652014D01*
X35478108Y-19598358D01*
X35468004Y-19528084D01*
X35497498Y-19463504D01*
X35503627Y-19456921D01*
X35970143Y-18990405D01*
X36032455Y-18956379D01*
X36059238Y-18953500D01*
X36743690Y-18953500D01*
X36760135Y-18954577D01*
X36791827Y-18958750D01*
X36831707Y-18953500D01*
X36831712Y-18953500D01*
X36920649Y-18941790D01*
X36931284Y-18940391D01*
X36931284Y-18940392D01*
X36931288Y-18940390D01*
X36950678Y-18937838D01*
X37098703Y-18876524D01*
X37193899Y-18803477D01*
X37193899Y-18803476D01*
X37202118Y-18797170D01*
X37202127Y-18797162D01*
X37208617Y-18792182D01*
X37225814Y-18778987D01*
X37245281Y-18753616D01*
X37256133Y-18741241D01*
X37501972Y-18495404D01*
X37564284Y-18461379D01*
X37591067Y-18458500D01*
X37960635Y-18458500D01*
X38028756Y-18478502D01*
G37*
%TD.AperFunction*%
%TA.AperFunction,Conductor*%
G36*
X53991621Y-9020502D02*
G01*
X54038114Y-9074158D01*
X54049500Y-9126500D01*
X54049500Y-38873500D01*
X54029498Y-38941621D01*
X53975842Y-38988114D01*
X53923500Y-38999500D01*
X14176500Y-38999500D01*
X14108379Y-38979498D01*
X14061886Y-38925842D01*
X14050500Y-38873500D01*
X14050500Y-17579152D01*
X17126594Y-17579152D01*
X17130941Y-17625138D01*
X17131500Y-17636996D01*
X17131500Y-30663389D01*
X17129708Y-30679620D01*
X17129958Y-30679644D01*
X17129211Y-30687536D01*
X17131438Y-30758369D01*
X17131500Y-30762327D01*
X17131500Y-30791432D01*
X17132056Y-30795833D01*
X17132986Y-30807655D01*
X17134437Y-30853829D01*
X17134438Y-30853832D01*
X17140421Y-30874429D01*
X17144428Y-30893780D01*
X17147117Y-30915060D01*
X17147117Y-30915061D01*
X17164124Y-30958018D01*
X17167967Y-30969244D01*
X17180853Y-31013597D01*
X17180853Y-31013598D01*
X17191771Y-31032058D01*
X17200468Y-31049811D01*
X17208364Y-31069755D01*
X17208368Y-31069761D01*
X17235514Y-31107123D01*
X17242033Y-31117047D01*
X17265547Y-31156807D01*
X17280714Y-31171974D01*
X17293552Y-31187005D01*
X17306158Y-31204356D01*
X17341751Y-31233801D01*
X17350531Y-31241791D01*
X18915528Y-32806788D01*
X18945362Y-32854266D01*
X18964959Y-32910270D01*
X19052897Y-33050223D01*
X19169776Y-33167102D01*
X19285437Y-33239776D01*
X19309733Y-33255042D01*
X19465748Y-33309634D01*
X19630000Y-33328141D01*
X19794252Y-33309634D01*
X19950267Y-33255042D01*
X20090223Y-33167102D01*
X20207102Y-33050223D01*
X20295042Y-32910267D01*
X20349634Y-32754252D01*
X20368141Y-32590000D01*
X20349634Y-32425748D01*
X20327034Y-32361164D01*
X20323415Y-32290262D01*
X20356866Y-32230458D01*
X20452102Y-32135223D01*
X20540042Y-31995267D01*
X20594634Y-31839252D01*
X20613141Y-31675000D01*
X20594634Y-31510748D01*
X20540042Y-31354733D01*
X20537165Y-31350154D01*
X20502812Y-31295479D01*
X20483500Y-31228445D01*
X20483500Y-29386339D01*
X20502812Y-29319304D01*
X20565042Y-29220267D01*
X20619634Y-29064252D01*
X20638141Y-28900000D01*
X20619634Y-28735748D01*
X20565042Y-28579733D01*
X20503703Y-28482112D01*
X20477102Y-28439776D01*
X20360223Y-28322897D01*
X20220269Y-28234959D01*
X20220267Y-28234958D01*
X20064252Y-28180366D01*
X19900000Y-28161859D01*
X19735748Y-28180366D01*
X19735745Y-28180366D01*
X19735745Y-28180367D01*
X19579732Y-28234958D01*
X19579730Y-28234959D01*
X19439776Y-28322897D01*
X19322897Y-28439776D01*
X19234959Y-28579730D01*
X19234958Y-28579732D01*
X19234958Y-28579733D01*
X19180366Y-28735748D01*
X19161859Y-28900000D01*
X19180366Y-29064252D01*
X19234958Y-29220267D01*
X19247186Y-29239728D01*
X19266500Y-29306765D01*
X19266500Y-30991050D01*
X19246498Y-31059171D01*
X19192842Y-31105664D01*
X19122568Y-31115768D01*
X19057988Y-31086274D01*
X19051405Y-31080145D01*
X18485405Y-30514145D01*
X18451379Y-30451833D01*
X18448500Y-30425050D01*
X18448500Y-26261050D01*
X18468502Y-26192929D01*
X18522158Y-26146436D01*
X18560385Y-26135844D01*
X18704252Y-26119634D01*
X18860267Y-26065042D01*
X19000223Y-25977102D01*
X19117102Y-25860223D01*
X19205042Y-25720267D01*
X19259634Y-25564252D01*
X19278141Y-25400000D01*
X19259634Y-25235748D01*
X19205042Y-25079733D01*
X19202165Y-25075154D01*
X19167812Y-25020479D01*
X19148500Y-24953445D01*
X19148500Y-21584239D01*
X19168502Y-21516118D01*
X19185405Y-21495144D01*
X20475144Y-20205405D01*
X20537456Y-20171379D01*
X20564239Y-20168500D01*
X25155859Y-20168500D01*
X25223980Y-20188502D01*
X25270473Y-20242158D01*
X25279391Y-20283156D01*
X25281067Y-20282968D01*
X25281859Y-20289998D01*
X25281859Y-20290000D01*
X25300366Y-20454252D01*
X25300367Y-20454254D01*
X25354957Y-20610266D01*
X25354958Y-20610267D01*
X25392187Y-20669517D01*
X25411500Y-20736552D01*
X25411500Y-31935760D01*
X25391498Y-32003881D01*
X25374595Y-32024855D01*
X24451654Y-32947796D01*
X24401539Y-32975494D01*
X24402426Y-32978029D01*
X24239732Y-33034958D01*
X24239730Y-33034959D01*
X24099776Y-33122897D01*
X23982897Y-33239776D01*
X23894959Y-33379730D01*
X23894958Y-33379732D01*
X23894958Y-33379733D01*
X23840366Y-33535748D01*
X23821859Y-33700000D01*
X23840366Y-33864252D01*
X23840367Y-33864254D01*
X23894958Y-34020267D01*
X23894959Y-34020269D01*
X23982897Y-34160223D01*
X24099776Y-34277102D01*
X24218081Y-34351437D01*
X24239733Y-34365042D01*
X24395748Y-34419634D01*
X24560000Y-34438141D01*
X24724252Y-34419634D01*
X24880267Y-34365042D01*
X25020223Y-34277102D01*
X25137102Y-34160223D01*
X25225042Y-34020267D01*
X25260688Y-33918393D01*
X25281972Y-33857572D01*
X25284515Y-33858462D01*
X25312203Y-33808344D01*
X26416235Y-32704312D01*
X26428620Y-32693451D01*
X26453987Y-32673987D01*
X26473235Y-32648901D01*
X26473241Y-32648895D01*
X26478476Y-32642072D01*
X26478478Y-32642071D01*
X26551524Y-32546876D01*
X26612838Y-32398851D01*
X26622376Y-32326400D01*
X26628500Y-32279885D01*
X26628500Y-32279879D01*
X26633750Y-32240000D01*
X26629577Y-32208308D01*
X26628500Y-32191863D01*
X26628500Y-30046967D01*
X26648502Y-29978846D01*
X26702158Y-29932353D01*
X26740394Y-29921759D01*
X26750202Y-29920653D01*
X26759252Y-29919634D01*
X26915267Y-29865042D01*
X27055223Y-29777102D01*
X27172102Y-29660223D01*
X27260042Y-29520267D01*
X27314634Y-29364252D01*
X27333141Y-29200000D01*
X27314634Y-29035748D01*
X27260042Y-28879733D01*
X27257165Y-28875154D01*
X27222812Y-28820479D01*
X27203500Y-28753445D01*
X27203500Y-28550233D01*
X27223502Y-28482112D01*
X27277158Y-28435619D01*
X27343602Y-28425026D01*
X27460000Y-28438141D01*
X27624252Y-28419634D01*
X27780267Y-28365042D01*
X27920223Y-28277102D01*
X28037102Y-28160223D01*
X28125042Y-28020267D01*
X28160688Y-27918393D01*
X28181972Y-27857572D01*
X28184515Y-27858462D01*
X28212203Y-27808344D01*
X28636235Y-27384312D01*
X28648620Y-27373451D01*
X28673987Y-27353987D01*
X28674249Y-27353644D01*
X28674548Y-27353426D01*
X28679828Y-27348147D01*
X28680650Y-27348969D01*
X28731583Y-27311775D01*
X28788322Y-27305135D01*
X28815000Y-27308141D01*
X28979252Y-27289634D01*
X29135267Y-27235042D01*
X29275223Y-27147102D01*
X29392102Y-27030223D01*
X29480042Y-26890267D01*
X29488149Y-26867099D01*
X29529527Y-26809407D01*
X29565463Y-26789785D01*
X29710267Y-26739116D01*
X29850223Y-26651176D01*
X29967102Y-26534297D01*
X30055042Y-26394341D01*
X30101683Y-26261050D01*
X30111972Y-26231646D01*
X30114512Y-26232535D01*
X30142203Y-26182418D01*
X30597167Y-25727454D01*
X30659478Y-25693431D01*
X30730294Y-25698496D01*
X30753296Y-25709864D01*
X30850857Y-25771166D01*
X31006872Y-25825758D01*
X31171124Y-25844265D01*
X31335376Y-25825758D01*
X31491391Y-25771166D01*
X31550641Y-25733937D01*
X31617677Y-25714624D01*
X35935687Y-25714624D01*
X35952132Y-25715701D01*
X35983824Y-25719874D01*
X36023704Y-25714624D01*
X36023709Y-25714624D01*
X36112646Y-25702914D01*
X36123281Y-25701515D01*
X36123281Y-25701516D01*
X36123285Y-25701514D01*
X36142675Y-25698962D01*
X36290700Y-25637648D01*
X36385896Y-25564601D01*
X36385896Y-25564600D01*
X36394115Y-25558294D01*
X36394124Y-25558286D01*
X36404923Y-25550000D01*
X36417811Y-25540111D01*
X36437281Y-25514735D01*
X36448133Y-25502362D01*
X40368248Y-21582247D01*
X40380633Y-21571386D01*
X40406000Y-21551922D01*
X40424175Y-21528235D01*
X40424183Y-21528226D01*
X40433474Y-21516118D01*
X40503537Y-21424811D01*
X40564851Y-21276786D01*
X40570810Y-21231523D01*
X40580513Y-21157820D01*
X40580513Y-21157814D01*
X40585763Y-21117935D01*
X40585762Y-21117933D01*
X40586841Y-21109745D01*
X40588441Y-21109955D01*
X40605765Y-21050956D01*
X40659421Y-21004463D01*
X40707929Y-20993910D01*
X40707925Y-20993869D01*
X40708333Y-20993822D01*
X40711763Y-20993077D01*
X40714954Y-20993077D01*
X40714955Y-20993076D01*
X40714957Y-20993077D01*
X40879209Y-20974570D01*
X40928235Y-20957414D01*
X40999137Y-20953795D01*
X41060743Y-20989084D01*
X41093490Y-21052077D01*
X41095849Y-21076344D01*
X41095849Y-23861410D01*
X41075847Y-23929531D01*
X41058944Y-23950506D01*
X40943763Y-24065686D01*
X40931376Y-24076549D01*
X40906013Y-24096012D01*
X40880370Y-24129428D01*
X40880229Y-24129614D01*
X40808473Y-24223127D01*
X40748474Y-24367982D01*
X40748471Y-24367991D01*
X40747161Y-24371151D01*
X40738252Y-24438821D01*
X40731500Y-24490115D01*
X40731500Y-24490120D01*
X40731500Y-24490121D01*
X40726250Y-24529999D01*
X40726250Y-24530000D01*
X40730422Y-24561690D01*
X40731500Y-24578136D01*
X40731500Y-24738951D01*
X40711498Y-24807072D01*
X40657842Y-24853565D01*
X40647116Y-24857880D01*
X40569730Y-24884959D01*
X40429776Y-24972897D01*
X40312897Y-25089776D01*
X40224959Y-25229730D01*
X40224958Y-25229732D01*
X40224958Y-25229733D01*
X40170366Y-25385748D01*
X40151859Y-25550000D01*
X40170366Y-25714252D01*
X40190281Y-25771165D01*
X40224958Y-25870267D01*
X40224959Y-25870269D01*
X40312897Y-26010223D01*
X40429776Y-26127102D01*
X40517809Y-26182416D01*
X40569733Y-26215042D01*
X40725748Y-26269634D01*
X40890000Y-26288141D01*
X41054252Y-26269634D01*
X41143885Y-26238269D01*
X41214789Y-26234650D01*
X41276394Y-26269940D01*
X41309141Y-26332933D01*
X41311500Y-26357199D01*
X41311500Y-26383445D01*
X41292188Y-26450479D01*
X41254959Y-26509730D01*
X41254957Y-26509733D01*
X41205465Y-26651176D01*
X41200366Y-26665748D01*
X41181859Y-26830000D01*
X41200366Y-26994252D01*
X41212953Y-27030223D01*
X41254958Y-27150267D01*
X41254959Y-27150269D01*
X41342897Y-27290223D01*
X41459776Y-27407102D01*
X41578081Y-27481437D01*
X41599733Y-27495042D01*
X41755748Y-27549634D01*
X41920000Y-27568141D01*
X42084252Y-27549634D01*
X42240267Y-27495042D01*
X42380223Y-27407102D01*
X42497102Y-27290223D01*
X42585042Y-27150267D01*
X42639634Y-26994252D01*
X42658141Y-26830000D01*
X42639634Y-26665748D01*
X42585042Y-26509733D01*
X42582165Y-26505154D01*
X42547812Y-26450479D01*
X42528500Y-26383445D01*
X42528500Y-25084239D01*
X42548502Y-25016118D01*
X42565403Y-24995145D01*
X42570802Y-24989746D01*
X42596238Y-24964309D01*
X42608626Y-24953447D01*
X42619185Y-24945344D01*
X42633987Y-24933987D01*
X42653235Y-24908901D01*
X42653241Y-24908895D01*
X42658476Y-24902072D01*
X42658478Y-24902071D01*
X42731524Y-24806876D01*
X42792838Y-24658851D01*
X42803051Y-24581274D01*
X42808500Y-24539885D01*
X42808500Y-24539879D01*
X42813750Y-24500000D01*
X42809577Y-24468308D01*
X42808500Y-24451863D01*
X42808500Y-21690000D01*
X43096496Y-21690000D01*
X43116457Y-21879927D01*
X43146054Y-21971013D01*
X43175473Y-22061556D01*
X43175476Y-22061561D01*
X43270958Y-22226941D01*
X43270965Y-22226951D01*
X43389136Y-22358193D01*
X43419854Y-22422200D01*
X43421500Y-22442503D01*
X43421500Y-25409709D01*
X43401498Y-25477830D01*
X43389137Y-25494019D01*
X43290961Y-25603054D01*
X43290958Y-25603058D01*
X43195476Y-25768438D01*
X43195473Y-25768444D01*
X43194589Y-25771165D01*
X43136457Y-25950072D01*
X43116496Y-26140000D01*
X43136457Y-26329927D01*
X43153847Y-26383445D01*
X43195473Y-26511556D01*
X43195476Y-26511561D01*
X43290958Y-26676941D01*
X43290965Y-26676951D01*
X43418744Y-26818864D01*
X43449234Y-26841016D01*
X43573248Y-26931118D01*
X43747712Y-27008794D01*
X43934513Y-27048500D01*
X44125487Y-27048500D01*
X44312288Y-27008794D01*
X44486752Y-26931118D01*
X44641253Y-26818866D01*
X44641255Y-26818864D01*
X44769034Y-26676951D01*
X44769035Y-26676949D01*
X44769040Y-26676944D01*
X44864527Y-26511556D01*
X44923542Y-26329928D01*
X44943504Y-26140000D01*
X44923542Y-25950072D01*
X44864527Y-25768444D01*
X44769040Y-25603056D01*
X44670863Y-25494019D01*
X44640146Y-25430012D01*
X44638500Y-25409709D01*
X44638500Y-22398077D01*
X44658502Y-22329956D01*
X44670858Y-22313773D01*
X44749040Y-22226944D01*
X44844527Y-22061556D01*
X44903542Y-21879928D01*
X44923504Y-21690000D01*
X44903542Y-21500072D01*
X44844527Y-21318444D01*
X44749040Y-21153056D01*
X44749038Y-21153054D01*
X44749034Y-21153048D01*
X44621255Y-21011135D01*
X44466752Y-20898882D01*
X44292288Y-20821206D01*
X44105487Y-20781500D01*
X43914513Y-20781500D01*
X43727711Y-20821206D01*
X43553247Y-20898882D01*
X43398744Y-21011135D01*
X43270965Y-21153048D01*
X43270958Y-21153058D01*
X43199525Y-21276784D01*
X43175473Y-21318444D01*
X43164952Y-21350823D01*
X43116457Y-21500072D01*
X43096496Y-21690000D01*
X42808500Y-21690000D01*
X42808500Y-18840325D01*
X42809578Y-18823878D01*
X42811965Y-18805748D01*
X42813751Y-18792182D01*
X42807043Y-18741233D01*
X42792838Y-18633332D01*
X42789173Y-18624482D01*
X42731524Y-18485306D01*
X42726303Y-18478502D01*
X42655997Y-18386877D01*
X42655967Y-18386840D01*
X42633987Y-18358195D01*
X42608618Y-18338728D01*
X42596229Y-18327862D01*
X41202133Y-16933766D01*
X41191265Y-16921374D01*
X41171805Y-16896013D01*
X41139892Y-16871525D01*
X41139892Y-16871524D01*
X41044700Y-16798480D01*
X41044692Y-16798475D01*
X40896669Y-16737162D01*
X40877276Y-16734607D01*
X40877276Y-16734608D01*
X40832779Y-16728750D01*
X40767852Y-16700028D01*
X40728760Y-16640763D01*
X40727915Y-16569771D01*
X40760127Y-16514734D01*
X41352249Y-15922612D01*
X41414560Y-15888589D01*
X41455453Y-15886502D01*
X41469996Y-15888141D01*
X41469997Y-15888141D01*
X41469998Y-15888140D01*
X41470000Y-15888141D01*
X41634252Y-15869634D01*
X41790267Y-15815042D01*
X41930223Y-15727102D01*
X42047102Y-15610223D01*
X42135042Y-15470267D01*
X42189634Y-15314252D01*
X42208141Y-15150000D01*
X42189634Y-14985748D01*
X42135042Y-14829733D01*
X42114228Y-14796608D01*
X42094923Y-14728289D01*
X42115618Y-14660375D01*
X42131811Y-14640488D01*
X43136898Y-13635402D01*
X43199208Y-13601379D01*
X43225991Y-13598500D01*
X43233447Y-13598500D01*
X43300483Y-13617813D01*
X43324677Y-13633015D01*
X43359733Y-13655042D01*
X43515748Y-13709634D01*
X43680000Y-13728141D01*
X43844252Y-13709634D01*
X44000267Y-13655042D01*
X44140223Y-13567102D01*
X44257102Y-13450223D01*
X44345042Y-13310267D01*
X44399634Y-13154252D01*
X44418141Y-12990000D01*
X44399634Y-12825748D01*
X44345042Y-12669733D01*
X44298518Y-12595690D01*
X44257102Y-12529776D01*
X44140223Y-12412897D01*
X44000269Y-12324959D01*
X44000267Y-12324958D01*
X43844252Y-12270366D01*
X43680000Y-12251859D01*
X43515748Y-12270366D01*
X43515745Y-12270366D01*
X43515745Y-12270367D01*
X43359732Y-12324958D01*
X43359730Y-12324959D01*
X43300483Y-12362187D01*
X43233447Y-12381500D01*
X42969889Y-12381500D01*
X42953443Y-12380422D01*
X42921752Y-12376250D01*
X42921749Y-12376250D01*
X42886020Y-12380953D01*
X42885956Y-12380962D01*
X42881869Y-12381500D01*
X42881867Y-12381500D01*
X42810680Y-12390872D01*
X42792108Y-12393317D01*
X42762902Y-12397161D01*
X42614877Y-12458475D01*
X42614869Y-12458480D01*
X42520271Y-12531069D01*
X42520227Y-12531101D01*
X42520228Y-12531102D01*
X42487763Y-12556014D01*
X42468301Y-12581376D01*
X42457438Y-12593763D01*
X41906238Y-13144964D01*
X41843925Y-13178989D01*
X41773110Y-13173925D01*
X41750107Y-13162557D01*
X41690267Y-13124958D01*
X41527574Y-13068029D01*
X41528457Y-13065502D01*
X41478344Y-13037795D01*
X41100228Y-12659679D01*
X41089360Y-12647287D01*
X41069900Y-12621926D01*
X41037987Y-12597438D01*
X41037987Y-12597437D01*
X40942795Y-12524393D01*
X40942787Y-12524388D01*
X40794762Y-12463074D01*
X40765557Y-12459230D01*
X40759822Y-12458475D01*
X40675798Y-12447413D01*
X40675796Y-12447413D01*
X40671709Y-12446875D01*
X40671709Y-12446874D01*
X40671702Y-12446874D01*
X40635915Y-12442163D01*
X40635913Y-12442163D01*
X40604222Y-12446335D01*
X40587776Y-12447413D01*
X39585640Y-12447413D01*
X39518604Y-12428100D01*
X39459356Y-12390872D01*
X39459354Y-12390871D01*
X39429492Y-12380422D01*
X39303339Y-12336279D01*
X39139087Y-12317772D01*
X38974835Y-12336279D01*
X38974832Y-12336279D01*
X38974832Y-12336280D01*
X38818819Y-12390871D01*
X38818817Y-12390872D01*
X38678863Y-12478810D01*
X38561987Y-12595686D01*
X38497412Y-12698456D01*
X38444233Y-12745493D01*
X38374065Y-12756313D01*
X38309187Y-12727480D01*
X38301630Y-12720514D01*
X38265546Y-12684430D01*
X38125592Y-12596492D01*
X38125590Y-12596491D01*
X38117794Y-12593763D01*
X37969575Y-12541899D01*
X37805323Y-12523392D01*
X37641071Y-12541899D01*
X37641068Y-12541899D01*
X37641068Y-12541900D01*
X37485055Y-12596491D01*
X37485053Y-12596492D01*
X37425806Y-12633720D01*
X37358770Y-12653033D01*
X36476604Y-12653033D01*
X36460158Y-12651955D01*
X36428467Y-12647783D01*
X36428464Y-12647783D01*
X36392735Y-12652486D01*
X36392671Y-12652495D01*
X36388584Y-12653033D01*
X36388582Y-12653033D01*
X36324269Y-12661500D01*
X36298823Y-12664850D01*
X36269618Y-12668694D01*
X36198417Y-12698186D01*
X36127827Y-12705774D01*
X36083165Y-12688463D01*
X35950269Y-12604959D01*
X35950267Y-12604958D01*
X35928770Y-12597436D01*
X35794252Y-12550366D01*
X35630000Y-12531859D01*
X35465748Y-12550366D01*
X35465745Y-12550366D01*
X35465745Y-12550367D01*
X35309732Y-12604958D01*
X35309730Y-12604959D01*
X35250483Y-12642187D01*
X35183447Y-12661500D01*
X34508144Y-12661500D01*
X34491698Y-12660422D01*
X34460000Y-12656249D01*
X34301150Y-12677161D01*
X34153125Y-12738475D01*
X34153117Y-12738480D01*
X34058519Y-12811069D01*
X34058475Y-12811101D01*
X34058476Y-12811102D01*
X34026011Y-12836014D01*
X34006549Y-12861376D01*
X33995686Y-12873763D01*
X33427928Y-13441523D01*
X33427927Y-13441523D01*
X28703595Y-18165856D01*
X28641283Y-18199882D01*
X28570468Y-18194817D01*
X28513632Y-18152270D01*
X28488821Y-18085750D01*
X28488500Y-18076761D01*
X28488500Y-17478136D01*
X28489578Y-17461690D01*
X28493750Y-17430000D01*
X28493750Y-17429999D01*
X28488685Y-17391525D01*
X28488500Y-17390120D01*
X28488500Y-17390115D01*
X28472838Y-17271150D01*
X28445271Y-17204595D01*
X28431417Y-17171148D01*
X28431417Y-17171147D01*
X28411526Y-17123128D01*
X28411521Y-17123120D01*
X28385020Y-17088583D01*
X28338477Y-17027928D01*
X28338474Y-17027925D01*
X28335966Y-17024656D01*
X28335966Y-17024655D01*
X28335957Y-17024644D01*
X28313988Y-16996014D01*
X28288618Y-16976546D01*
X28276229Y-16965680D01*
X25527204Y-14216655D01*
X25499505Y-14166540D01*
X25496971Y-14167427D01*
X25494633Y-14160745D01*
X25440042Y-14004733D01*
X25390931Y-13926573D01*
X25352102Y-13864776D01*
X25235223Y-13747897D01*
X25095269Y-13659959D01*
X25095267Y-13659958D01*
X25081212Y-13655040D01*
X24939252Y-13605366D01*
X24775000Y-13586859D01*
X24610748Y-13605366D01*
X24610745Y-13605366D01*
X24610745Y-13605367D01*
X24454732Y-13659958D01*
X24454730Y-13659959D01*
X24314776Y-13747897D01*
X24197897Y-13864776D01*
X24109959Y-14004730D01*
X24109958Y-14004732D01*
X24102442Y-14026213D01*
X24055366Y-14160748D01*
X24036859Y-14325000D01*
X24055366Y-14489252D01*
X24055367Y-14489254D01*
X24109958Y-14645267D01*
X24109959Y-14645269D01*
X24197897Y-14785223D01*
X24314776Y-14902102D01*
X24333658Y-14913966D01*
X24454733Y-14990042D01*
X24610748Y-15044634D01*
X24617427Y-15046971D01*
X24616540Y-15049505D01*
X24666655Y-15077204D01*
X27234595Y-17645144D01*
X27268621Y-17707456D01*
X27271500Y-17734239D01*
X27271500Y-18523445D01*
X27252188Y-18590479D01*
X27214959Y-18649730D01*
X27214957Y-18649733D01*
X27160367Y-18805744D01*
X27160366Y-18805748D01*
X27156551Y-18839610D01*
X27129046Y-18905062D01*
X27070522Y-18945254D01*
X27031343Y-18951500D01*
X20308136Y-18951500D01*
X20291690Y-18950422D01*
X20260000Y-18946250D01*
X20259998Y-18946250D01*
X20224212Y-18950961D01*
X20224203Y-18950961D01*
X20224204Y-18950962D01*
X20220117Y-18951500D01*
X20220115Y-18951500D01*
X20190638Y-18955380D01*
X20101151Y-18967161D01*
X19953125Y-19028475D01*
X19949681Y-19030776D01*
X19946575Y-19033501D01*
X19859595Y-19100243D01*
X19859594Y-19100242D01*
X19859588Y-19100248D01*
X19826011Y-19126013D01*
X19806545Y-19151381D01*
X19795681Y-19163768D01*
X18663595Y-20295855D01*
X18601283Y-20329880D01*
X18530468Y-20324816D01*
X18473632Y-20282269D01*
X18448821Y-20215749D01*
X18448500Y-20206760D01*
X18448500Y-17924949D01*
X18468502Y-17856828D01*
X18485400Y-17835858D01*
X19546789Y-16774469D01*
X19594266Y-16744637D01*
X19650267Y-16725042D01*
X19790223Y-16637102D01*
X19907102Y-16520223D01*
X19995042Y-16380267D01*
X20049634Y-16224252D01*
X20068141Y-16060000D01*
X20049634Y-15895748D01*
X19995042Y-15739733D01*
X19981437Y-15718081D01*
X19907102Y-15599776D01*
X19790223Y-15482897D01*
X19650269Y-15394959D01*
X19650267Y-15394958D01*
X19494252Y-15340366D01*
X19330000Y-15321859D01*
X19165748Y-15340366D01*
X19165745Y-15340366D01*
X19165745Y-15340367D01*
X19009732Y-15394958D01*
X19009730Y-15394959D01*
X18869776Y-15482897D01*
X18752897Y-15599776D01*
X18664957Y-15739732D01*
X18664956Y-15739736D01*
X18645361Y-15795732D01*
X18615528Y-15843210D01*
X17385611Y-17073127D01*
X17372865Y-17083340D01*
X17373025Y-17083533D01*
X17366920Y-17088583D01*
X17318395Y-17140256D01*
X17315643Y-17143096D01*
X17295074Y-17163665D01*
X17295073Y-17163667D01*
X17292344Y-17167184D01*
X17284650Y-17176191D01*
X17253029Y-17209865D01*
X17253027Y-17209867D01*
X17242691Y-17228667D01*
X17231843Y-17245180D01*
X17218699Y-17262126D01*
X17218694Y-17262135D01*
X17200350Y-17304524D01*
X17195131Y-17315178D01*
X17172877Y-17355661D01*
X17172873Y-17355670D01*
X17167541Y-17376436D01*
X17161139Y-17395136D01*
X17152620Y-17414820D01*
X17152620Y-17414823D01*
X17145393Y-17460452D01*
X17142986Y-17472072D01*
X17131500Y-17516810D01*
X17131500Y-17538258D01*
X17129949Y-17557967D01*
X17126594Y-17579150D01*
X17126594Y-17579152D01*
X14050500Y-17579152D01*
X14050500Y-9126500D01*
X14070502Y-9058379D01*
X14124158Y-9011886D01*
X14176500Y-9000500D01*
X53923500Y-9000500D01*
X53991621Y-9020502D01*
G37*
%TD.AperFunction*%
%TD*%
M02*
