%TF.GenerationSoftware,KiCad,Pcbnew,7.0.11-7.0.11~ubuntu22.04.1*%
%TF.CreationDate,2024-12-10T04:55:39+01:00*%
%TF.ProjectId,40_to_WP27D-P050VA3,34305f74-6f5f-4575-9032-37442d503035,rev?*%
%TF.SameCoordinates,Original*%
%TF.FileFunction,Paste,Top*%
%TF.FilePolarity,Positive*%
%FSLAX46Y46*%
G04 Gerber Fmt 4.6, Leading zero omitted, Abs format (unit mm)*
G04 Created by KiCad (PCBNEW 7.0.11-7.0.11~ubuntu22.04.1) date 2024-12-10 04:55:39*
%MOMM*%
%LPD*%
G01*
G04 APERTURE LIST*
G04 Aperture macros list*
%AMRoundRect*
0 Rectangle with rounded corners*
0 $1 Rounding radius*
0 $2 $3 $4 $5 $6 $7 $8 $9 X,Y pos of 4 corners*
0 Add a 4 corners polygon primitive as box body*
4,1,4,$2,$3,$4,$5,$6,$7,$8,$9,$2,$3,0*
0 Add four circle primitives for the rounded corners*
1,1,$1+$1,$2,$3*
1,1,$1+$1,$4,$5*
1,1,$1+$1,$6,$7*
1,1,$1+$1,$8,$9*
0 Add four rect primitives between the rounded corners*
20,1,$1+$1,$2,$3,$4,$5,0*
20,1,$1+$1,$4,$5,$6,$7,0*
20,1,$1+$1,$6,$7,$8,$9,0*
20,1,$1+$1,$8,$9,$2,$3,0*%
G04 Aperture macros list end*
%ADD10RoundRect,0.200000X0.200000X0.275000X-0.200000X0.275000X-0.200000X-0.275000X0.200000X-0.275000X0*%
%ADD11R,0.150000X0.400000*%
%ADD12R,0.600000X0.300000*%
%ADD13R,1.300000X0.300000*%
%ADD14R,2.200000X1.800000*%
G04 APERTURE END LIST*
D10*
%TO.C,R1*%
X44185000Y-24350000D03*
X42535000Y-24350000D03*
%TD*%
D11*
%TO.C,CN1*%
X37990000Y-20790000D03*
X38340000Y-20790000D03*
X38690000Y-20790000D03*
X39040000Y-20790000D03*
X39390000Y-20790000D03*
X39740000Y-20790000D03*
X40090000Y-20790000D03*
X40440000Y-20790000D03*
X40790000Y-20790000D03*
X41140000Y-20790000D03*
X41490000Y-20790000D03*
X41840000Y-20790000D03*
X42190000Y-20790000D03*
X42540000Y-20790000D03*
X42890000Y-20790000D03*
X43240000Y-20790000D03*
X43590000Y-20790000D03*
X43940000Y-20790000D03*
X44290000Y-20790000D03*
X44640000Y-20790000D03*
X44990000Y-20790000D03*
X45340000Y-20790000D03*
X45690000Y-20790000D03*
X46040000Y-20790000D03*
X46390000Y-20790000D03*
X46390000Y-18970000D03*
X46040000Y-18970000D03*
X45690000Y-18970000D03*
X45340000Y-18970000D03*
X44990000Y-18970000D03*
X44640000Y-18970000D03*
X44290000Y-18970000D03*
X43940000Y-18970000D03*
X43590000Y-18970000D03*
X43240000Y-18970000D03*
X42890000Y-18970000D03*
X42540000Y-18970000D03*
X42190000Y-18970000D03*
X41840000Y-18970000D03*
X41490000Y-18970000D03*
X41140000Y-18970000D03*
X40790000Y-18970000D03*
X40440000Y-18970000D03*
X40090000Y-18970000D03*
X39740000Y-18970000D03*
X39390000Y-18970000D03*
X39040000Y-18970000D03*
X38690000Y-18970000D03*
X38340000Y-18970000D03*
X37990000Y-18970000D03*
D12*
X47340000Y-18990000D03*
X47340000Y-20770000D03*
X37040000Y-20770000D03*
X37040000Y-18990000D03*
%TD*%
D13*
%TO.C,U1*%
X22600000Y-33790000D03*
X22600000Y-33290000D03*
X22600000Y-32790000D03*
X22600000Y-32290000D03*
X22600000Y-31790000D03*
X22600000Y-31290000D03*
X22600000Y-30790000D03*
X22600000Y-30290000D03*
X22600000Y-29790000D03*
X22600000Y-29290000D03*
X22600000Y-28790000D03*
X22600000Y-28290000D03*
X22600000Y-27790000D03*
X22600000Y-27290000D03*
X22600000Y-26790000D03*
X22600000Y-26290000D03*
X22600000Y-25790000D03*
X22600000Y-25290000D03*
X22600000Y-24790000D03*
X22600000Y-24290000D03*
X22600000Y-23790000D03*
X22600000Y-23290000D03*
X22600000Y-22790000D03*
X22600000Y-22290000D03*
X22600000Y-21790000D03*
X22600000Y-21290000D03*
X22600000Y-20790000D03*
X22600000Y-20290000D03*
X22600000Y-19790000D03*
X22600000Y-19290000D03*
X22600000Y-18790000D03*
X22600000Y-18290000D03*
X22600000Y-17790000D03*
X22600000Y-17290000D03*
X22600000Y-16790000D03*
X22600000Y-16290000D03*
X22600000Y-15790000D03*
X22600000Y-15290000D03*
X22600000Y-14790000D03*
X22600000Y-14290000D03*
D14*
X19350000Y-12390000D03*
X19350000Y-35690000D03*
%TD*%
M02*
