%TF.GenerationSoftware,KiCad,Pcbnew,7.0.11-7.0.11~ubuntu22.04.1*%
%TF.CreationDate,2024-12-09T17:56:16+01:00*%
%TF.ProjectId,40_to_WP27D-P050VA3,34305f74-6f5f-4575-9032-37442d503035,rev?*%
%TF.SameCoordinates,Original*%
%TF.FileFunction,Drillmap*%
%TF.FilePolarity,Positive*%
%FSLAX45Y45*%
G04 Gerber Fmt 4.5, Leading zero omitted, Abs format (unit mm)*
G04 Created by KiCad (PCBNEW 7.0.11-7.0.11~ubuntu22.04.1) date 2024-12-09 17:56:16*
%MOMM*%
%LPD*%
G01*
G04 APERTURE LIST*
%ADD10C,0.100000*%
%ADD11C,0.200000*%
G04 APERTURE END LIST*
D10*
X1405000Y-900000D02*
X5405000Y-900000D01*
X5405000Y-3900000D01*
X1405000Y-3900000D01*
X1405000Y-900000D01*
D11*
X1660777Y-4216484D02*
X1660777Y-4016484D01*
X1660777Y-4016484D02*
X1708396Y-4016484D01*
X1708396Y-4016484D02*
X1736967Y-4026008D01*
X1736967Y-4026008D02*
X1756015Y-4045055D01*
X1756015Y-4045055D02*
X1765539Y-4064103D01*
X1765539Y-4064103D02*
X1775062Y-4102198D01*
X1775062Y-4102198D02*
X1775062Y-4130769D01*
X1775062Y-4130769D02*
X1765539Y-4168865D01*
X1765539Y-4168865D02*
X1756015Y-4187912D01*
X1756015Y-4187912D02*
X1736967Y-4206960D01*
X1736967Y-4206960D02*
X1708396Y-4216484D01*
X1708396Y-4216484D02*
X1660777Y-4216484D01*
X1860777Y-4216484D02*
X1860777Y-4083150D01*
X1860777Y-4121246D02*
X1870301Y-4102198D01*
X1870301Y-4102198D02*
X1879824Y-4092674D01*
X1879824Y-4092674D02*
X1898872Y-4083150D01*
X1898872Y-4083150D02*
X1917920Y-4083150D01*
X1984586Y-4216484D02*
X1984586Y-4083150D01*
X1984586Y-4016484D02*
X1975062Y-4026008D01*
X1975062Y-4026008D02*
X1984586Y-4035531D01*
X1984586Y-4035531D02*
X1994110Y-4026008D01*
X1994110Y-4026008D02*
X1984586Y-4016484D01*
X1984586Y-4016484D02*
X1984586Y-4035531D01*
X2108396Y-4216484D02*
X2089348Y-4206960D01*
X2089348Y-4206960D02*
X2079824Y-4187912D01*
X2079824Y-4187912D02*
X2079824Y-4016484D01*
X2213158Y-4216484D02*
X2194110Y-4206960D01*
X2194110Y-4206960D02*
X2184586Y-4187912D01*
X2184586Y-4187912D02*
X2184586Y-4016484D01*
X2441729Y-4216484D02*
X2441729Y-4016484D01*
X2441729Y-4016484D02*
X2508396Y-4159341D01*
X2508396Y-4159341D02*
X2575063Y-4016484D01*
X2575063Y-4016484D02*
X2575063Y-4216484D01*
X2756015Y-4216484D02*
X2756015Y-4111722D01*
X2756015Y-4111722D02*
X2746491Y-4092674D01*
X2746491Y-4092674D02*
X2727444Y-4083150D01*
X2727444Y-4083150D02*
X2689348Y-4083150D01*
X2689348Y-4083150D02*
X2670301Y-4092674D01*
X2756015Y-4206960D02*
X2736967Y-4216484D01*
X2736967Y-4216484D02*
X2689348Y-4216484D01*
X2689348Y-4216484D02*
X2670301Y-4206960D01*
X2670301Y-4206960D02*
X2660777Y-4187912D01*
X2660777Y-4187912D02*
X2660777Y-4168865D01*
X2660777Y-4168865D02*
X2670301Y-4149817D01*
X2670301Y-4149817D02*
X2689348Y-4140293D01*
X2689348Y-4140293D02*
X2736967Y-4140293D01*
X2736967Y-4140293D02*
X2756015Y-4130769D01*
X2851253Y-4083150D02*
X2851253Y-4283150D01*
X2851253Y-4092674D02*
X2870301Y-4083150D01*
X2870301Y-4083150D02*
X2908396Y-4083150D01*
X2908396Y-4083150D02*
X2927443Y-4092674D01*
X2927443Y-4092674D02*
X2936967Y-4102198D01*
X2936967Y-4102198D02*
X2946491Y-4121246D01*
X2946491Y-4121246D02*
X2946491Y-4178388D01*
X2946491Y-4178388D02*
X2936967Y-4197436D01*
X2936967Y-4197436D02*
X2927443Y-4206960D01*
X2927443Y-4206960D02*
X2908396Y-4216484D01*
X2908396Y-4216484D02*
X2870301Y-4216484D01*
X2870301Y-4216484D02*
X2851253Y-4206960D01*
X3032205Y-4197436D02*
X3041729Y-4206960D01*
X3041729Y-4206960D02*
X3032205Y-4216484D01*
X3032205Y-4216484D02*
X3022682Y-4206960D01*
X3022682Y-4206960D02*
X3032205Y-4197436D01*
X3032205Y-4197436D02*
X3032205Y-4216484D01*
X3032205Y-4092674D02*
X3041729Y-4102198D01*
X3041729Y-4102198D02*
X3032205Y-4111722D01*
X3032205Y-4111722D02*
X3022682Y-4102198D01*
X3022682Y-4102198D02*
X3032205Y-4092674D01*
X3032205Y-4092674D02*
X3032205Y-4111722D01*
M02*
