M48
; DRILL file {KiCad 7.0.11-7.0.11~ubuntu22.04.1} date Mon 09 Dec 2024 17:56:25 CET
; FORMAT={-:-/ absolute / metric / decimal}
; #@! TF.CreationDate,2024-12-09T17:56:25+01:00
; #@! TF.GenerationSoftware,Kicad,Pcbnew,7.0.11-7.0.11~ubuntu22.04.1
; #@! TF.FileFunction,Plated,1,2,PTH
FMAT,2
METRIC
; #@! TA.AperFunction,Plated,PTH,ViaDrill
T1C0.250
; #@! TA.AperFunction,Plated,PTH,ViaDrill
T2C0.400
%
G90
G05
T1
X18.54Y-25.4
X19.275Y-29.7
X19.33Y-16.06
X19.63Y-32.59
X19.725Y-28.2
X19.875Y-31.675
X19.9Y-28.9
X19.925Y-23.003
X24.56Y-33.7
X24.775Y-14.325
X26.02Y-20.29
X26.595Y-29.2
X27.285Y-26.48
X27.46Y-27.7
X27.88Y-18.97
X28.815Y-26.57
X29.39Y-26.074
X31.171Y-25.106
X35.63Y-13.27
X37.101Y-18.817
X37.169Y-14.983
X37.805Y-13.262
X37.95Y-14.97
X38.119Y-19.441
X38.212Y-20.281
X38.86Y-14.84
X39.029Y-20.344
X39.095Y-19.278
X39.139Y-13.056
X39.972Y-20.523
X40.715Y-20.255
X40.89Y-25.55
X41.229Y-19.275
X41.37Y-13.79
X41.47Y-15.15
X41.92Y-26.83
X42.55Y-14.56
X43.14Y-15.47
X43.411Y-17.306
X43.68Y-12.99
X44.75Y-17.29
T2
X38.43Y-11.6
X44.01Y-21.69
X44.03Y-26.14
M30
