%TF.GenerationSoftware,KiCad,Pcbnew,7.0.11-7.0.11~ubuntu22.04.1*%
%TF.CreationDate,2024-12-09T17:56:29+01:00*%
%TF.ProjectId,40_to_WP27D-P050VA3,34305f74-6f5f-4575-9032-37442d503035,rev?*%
%TF.SameCoordinates,Original*%
%TF.FileFunction,Copper,L1,Top*%
%TF.FilePolarity,Positive*%
%FSLAX46Y46*%
G04 Gerber Fmt 4.6, Leading zero omitted, Abs format (unit mm)*
G04 Created by KiCad (PCBNEW 7.0.11-7.0.11~ubuntu22.04.1) date 2024-12-09 17:56:29*
%MOMM*%
%LPD*%
G01*
G04 APERTURE LIST*
G04 Aperture macros list*
%AMRoundRect*
0 Rectangle with rounded corners*
0 $1 Rounding radius*
0 $2 $3 $4 $5 $6 $7 $8 $9 X,Y pos of 4 corners*
0 Add a 4 corners polygon primitive as box body*
4,1,4,$2,$3,$4,$5,$6,$7,$8,$9,$2,$3,0*
0 Add four circle primitives for the rounded corners*
1,1,$1+$1,$2,$3*
1,1,$1+$1,$4,$5*
1,1,$1+$1,$6,$7*
1,1,$1+$1,$8,$9*
0 Add four rect primitives between the rounded corners*
20,1,$1+$1,$2,$3,$4,$5,0*
20,1,$1+$1,$4,$5,$6,$7,0*
20,1,$1+$1,$6,$7,$8,$9,0*
20,1,$1+$1,$8,$9,$2,$3,0*%
G04 Aperture macros list end*
%TA.AperFunction,SMDPad,CuDef*%
%ADD10R,1.000000X1.000000*%
%TD*%
%TA.AperFunction,SMDPad,CuDef*%
%ADD11RoundRect,0.200000X-0.200000X-0.275000X0.200000X-0.275000X0.200000X0.275000X-0.200000X0.275000X0*%
%TD*%
%TA.AperFunction,SMDPad,CuDef*%
%ADD12R,1.300000X0.300000*%
%TD*%
%TA.AperFunction,SMDPad,CuDef*%
%ADD13R,2.200000X1.800000*%
%TD*%
%TA.AperFunction,SMDPad,CuDef*%
%ADD14R,0.150000X0.400000*%
%TD*%
%TA.AperFunction,SMDPad,CuDef*%
%ADD15R,0.600000X0.300000*%
%TD*%
%TA.AperFunction,ViaPad*%
%ADD16C,0.450000*%
%TD*%
%TA.AperFunction,ViaPad*%
%ADD17C,0.800000*%
%TD*%
%TA.AperFunction,ViaPad*%
%ADD18C,0.500000*%
%TD*%
%TA.AperFunction,Conductor*%
%ADD19C,0.200000*%
%TD*%
%TA.AperFunction,Conductor*%
%ADD20C,0.300000*%
%TD*%
G04 APERTURE END LIST*
D10*
%TO.P,TP1,1,1*%
%TO.N,Net-(CN1-Pad36)*%
X42560000Y-22620000D03*
%TD*%
D11*
%TO.P,R1,1*%
%TO.N,Net-(CN1-Pad36)*%
X42285000Y-20560000D03*
%TO.P,R1,2*%
%TO.N,VDD*%
X43935000Y-20560000D03*
%TD*%
D12*
%TO.P,U1,1,VGL*%
%TO.N,/VGL*%
X21050000Y-33700000D03*
%TO.P,U1,2,NC*%
%TO.N,unconnected-(U1-NC-Pad2)*%
X21050000Y-33200000D03*
%TO.P,U1,3,VGH*%
%TO.N,/VGH*%
X21050000Y-32700000D03*
%TO.P,U1,4,NC*%
%TO.N,unconnected-(U1-NC-Pad4)*%
X21050000Y-32200000D03*
%TO.P,U1,5,VDD*%
%TO.N,VDD*%
X21050000Y-31700000D03*
%TO.P,U1,6,Mode*%
%TO.N,/MODE*%
X21050000Y-31200000D03*
%TO.P,U1,7,CKV*%
%TO.N,/CKV*%
X21050000Y-30700000D03*
%TO.P,U1,8,SPV*%
%TO.N,/SPV*%
X21050000Y-30200000D03*
%TO.P,U1,9,VSS*%
%TO.N,GND*%
X21050000Y-29700000D03*
%TO.P,U1,10,VCOM*%
%TO.N,/VCOM*%
X21050000Y-29200000D03*
%TO.P,U1,11,VDD*%
%TO.N,VDD*%
X21050000Y-28700000D03*
%TO.P,U1,12,VSS*%
%TO.N,GND*%
X21050000Y-28200000D03*
%TO.P,U1,13,XCL*%
%TO.N,/XCL*%
X21050000Y-27700000D03*
%TO.P,U1,14,D0*%
%TO.N,/D0*%
X21050000Y-27200000D03*
%TO.P,U1,15,D1*%
%TO.N,/D1*%
X21050000Y-26700000D03*
%TO.P,U1,16,D2*%
%TO.N,/D2*%
X21050000Y-26200000D03*
%TO.P,U1,17,D3*%
%TO.N,/D3*%
X21050000Y-25700000D03*
%TO.P,U1,18,D4*%
%TO.N,/D4*%
X21050000Y-25200000D03*
%TO.P,U1,19,D5*%
%TO.N,/D5*%
X21050000Y-24700000D03*
%TO.P,U1,20,D6*%
%TO.N,/D6*%
X21050000Y-24200000D03*
%TO.P,U1,21,D7*%
%TO.N,/D7*%
X21050000Y-23700000D03*
%TO.P,U1,22,VSS*%
%TO.N,GND*%
X21050000Y-23200000D03*
%TO.P,U1,23,D8*%
%TO.N,unconnected-(U1-D8-Pad23)*%
X21050000Y-22700000D03*
%TO.P,U1,24,D9*%
%TO.N,unconnected-(U1-D9-Pad24)*%
X21050000Y-22200000D03*
%TO.P,U1,25,D10*%
%TO.N,unconnected-(U1-D10-Pad25)*%
X21050000Y-21700000D03*
%TO.P,U1,26,D11*%
%TO.N,unconnected-(U1-D11-Pad26)*%
X21050000Y-21200000D03*
%TO.P,U1,27,D12*%
%TO.N,unconnected-(U1-D12-Pad27)*%
X21050000Y-20700000D03*
%TO.P,U1,28,D13*%
%TO.N,unconnected-(U1-D13-Pad28)*%
X21050000Y-20200000D03*
%TO.P,U1,29,D14*%
%TO.N,unconnected-(U1-D14-Pad29)*%
X21050000Y-19700000D03*
%TO.P,U1,30,D15*%
%TO.N,unconnected-(U1-D15-Pad30)*%
X21050000Y-19200000D03*
%TO.P,U1,31,XSTL*%
%TO.N,/XSTL*%
X21050000Y-18700000D03*
%TO.P,U1,32,XLE*%
%TO.N,/XLE*%
X21050000Y-18200000D03*
%TO.P,U1,33,XOE*%
%TO.N,/XOE*%
X21050000Y-17700000D03*
%TO.P,U1,34,TEST*%
%TO.N,/TEST*%
X21050000Y-17200000D03*
%TO.P,U1,35,NC*%
%TO.N,unconnected-(U1-NC-Pad35)*%
X21050000Y-16700000D03*
%TO.P,U1,36,VPOS*%
%TO.N,/VPOS*%
X21050000Y-16200000D03*
%TO.P,U1,37,NC*%
%TO.N,unconnected-(U1-NC-Pad37)*%
X21050000Y-15700000D03*
%TO.P,U1,38,VNEG*%
%TO.N,/VNEG*%
X21050000Y-15200000D03*
%TO.P,U1,39,NC*%
%TO.N,unconnected-(U1-NC-Pad39)*%
X21050000Y-14700000D03*
%TO.P,U1,40,BORDER*%
%TO.N,/BRD*%
X21050000Y-14200000D03*
D13*
%TO.P,U1,MP*%
%TO.N,N/C*%
X17800000Y-12300000D03*
X17800000Y-35600000D03*
%TD*%
D14*
%TO.P,CN1,1,1*%
%TO.N,/VGH*%
X37360000Y-16060000D03*
%TO.P,CN1,2,2*%
X37710000Y-16060000D03*
%TO.P,CN1,3,3*%
%TO.N,GND*%
X38060000Y-16060000D03*
%TO.P,CN1,4,4*%
%TO.N,/VCOM*%
X38410000Y-16060000D03*
%TO.P,CN1,5,5*%
%TO.N,unconnected-(CN1-Pad5)*%
X38760000Y-16060000D03*
%TO.P,CN1,6,6*%
%TO.N,/CKV*%
X39110000Y-16060000D03*
%TO.P,CN1,7,7*%
%TO.N,/D0*%
X39460000Y-16060000D03*
%TO.P,CN1,8,8*%
%TO.N,/D2*%
X39810000Y-16060000D03*
%TO.P,CN1,9,9*%
%TO.N,/D4*%
X40160000Y-16060000D03*
%TO.P,CN1,10,10*%
%TO.N,/D6*%
X40510000Y-16060000D03*
%TO.P,CN1,11,11*%
%TO.N,/XLE*%
X40860000Y-16060000D03*
%TO.P,CN1,12,12*%
%TO.N,/XCL*%
X41210000Y-16060000D03*
%TO.P,CN1,13,13*%
%TO.N,GND*%
X41560000Y-16060000D03*
%TO.P,CN1,14,14*%
%TO.N,VDD*%
X41910000Y-16060000D03*
%TO.P,CN1,15,15*%
X42260000Y-16060000D03*
%TO.P,CN1,16,16*%
%TO.N,GND*%
X42610000Y-16060000D03*
%TO.P,CN1,17,17*%
%TO.N,/VNEG*%
X42960000Y-16060000D03*
%TO.P,CN1,18,18*%
X43310000Y-16060000D03*
%TO.P,CN1,19,19*%
%TO.N,GND*%
X43660000Y-16060000D03*
%TO.P,CN1,20,20*%
%TO.N,unconnected-(CN1-Pad20)*%
X44010000Y-16060000D03*
%TO.P,CN1,21,21*%
%TO.N,unconnected-(CN1-Pad21)*%
X44360000Y-16060000D03*
%TO.P,CN1,22,22*%
%TO.N,unconnected-(CN1-Pad22)*%
X44710000Y-16060000D03*
%TO.P,CN1,23,23*%
%TO.N,GND*%
X45060000Y-16060000D03*
%TO.P,CN1,24,24*%
%TO.N,unconnected-(CN1-Pad24)*%
X45410000Y-16060000D03*
%TO.P,CN1,25,25*%
%TO.N,unconnected-(CN1-Pad25)*%
X45760000Y-16060000D03*
%TO.P,CN1,26,26*%
%TO.N,unconnected-(CN1-Pad26)*%
X45760000Y-17880000D03*
%TO.P,CN1,27,27*%
%TO.N,unconnected-(CN1-Pad27)*%
X45410000Y-17880000D03*
%TO.P,CN1,28,28*%
%TO.N,GND*%
X45060000Y-17880000D03*
%TO.P,CN1,29,29*%
%TO.N,unconnected-(CN1-Pad29)*%
X44710000Y-17880000D03*
%TO.P,CN1,30,30*%
%TO.N,unconnected-(CN1-Pad30)*%
X44360000Y-17880000D03*
%TO.P,CN1,31,31*%
%TO.N,unconnected-(CN1-Pad31)*%
X44010000Y-17880000D03*
%TO.P,CN1,32,32*%
%TO.N,GND*%
X43660000Y-17880000D03*
%TO.P,CN1,33,33*%
%TO.N,/VPOS*%
X43310000Y-17880000D03*
%TO.P,CN1,34,34*%
X42960000Y-17880000D03*
%TO.P,CN1,35,35*%
%TO.N,GND*%
X42610000Y-17880000D03*
%TO.P,CN1,36,36*%
%TO.N,Net-(CN1-Pad36)*%
X42260000Y-17880000D03*
%TO.P,CN1,37,37*%
%TO.N,unconnected-(CN1-Pad37)*%
X41910000Y-17880000D03*
%TO.P,CN1,38,38*%
%TO.N,unconnected-(CN1-Pad38)*%
X41560000Y-17880000D03*
%TO.P,CN1,39,39*%
%TO.N,/XOE*%
X41210000Y-17880000D03*
%TO.P,CN1,40,40*%
%TO.N,/XSTL*%
X40860000Y-17880000D03*
%TO.P,CN1,41,41*%
%TO.N,/D7*%
X40510000Y-17880000D03*
%TO.P,CN1,42,42*%
%TO.N,/D5*%
X40160000Y-17880000D03*
%TO.P,CN1,43,43*%
%TO.N,/D3*%
X39810000Y-17880000D03*
%TO.P,CN1,44,44*%
%TO.N,/D1*%
X39460000Y-17880000D03*
%TO.P,CN1,45,45*%
%TO.N,/SPV*%
X39110000Y-17880000D03*
%TO.P,CN1,46,46*%
%TO.N,/MODE*%
X38760000Y-17880000D03*
%TO.P,CN1,47,47*%
%TO.N,/BRD*%
X38410000Y-17880000D03*
%TO.P,CN1,48,48*%
%TO.N,GND*%
X38060000Y-17880000D03*
%TO.P,CN1,49,49*%
%TO.N,/VGL*%
X37710000Y-17880000D03*
%TO.P,CN1,50,50*%
X37360000Y-17880000D03*
D15*
%TO.P,CN1,51,51*%
%TO.N,unconnected-(CN1-Pad51)*%
X46710000Y-16080000D03*
%TO.P,CN1,52,52*%
%TO.N,unconnected-(CN1-Pad52)*%
X46710000Y-17860000D03*
%TO.P,CN1,53,53*%
%TO.N,unconnected-(CN1-Pad53)*%
X36410000Y-17860000D03*
%TO.P,CN1,54,54*%
%TO.N,unconnected-(CN1-Pad54)*%
X36410000Y-16080000D03*
%TD*%
D16*
%TO.N,/XLE*%
X41370000Y-13790000D03*
%TO.N,/CKV*%
X38860000Y-14840000D03*
%TO.N,/VCOM*%
X37950000Y-14970000D03*
D17*
%TO.N,GND*%
X38430000Y-11600000D03*
D16*
%TO.N,/D2*%
X37805323Y-13261533D03*
%TO.N,/D0*%
X35630000Y-13270000D03*
%TO.N,/XLE*%
X39139087Y-13055913D03*
%TO.N,/CKV*%
X43680000Y-12990000D03*
%TO.N,/SPV*%
X40890000Y-25550000D03*
X39095019Y-19278179D03*
%TO.N,/MODE*%
X41920000Y-26830000D03*
X38118744Y-19441280D03*
%TO.N,GND*%
X37101493Y-18817320D03*
X42550000Y-14560000D03*
%TO.N,/VGL*%
X26020000Y-20290000D03*
X24560000Y-33700000D03*
%TO.N,/XCL*%
X41470000Y-15150000D03*
X27460000Y-27700000D03*
%TO.N,GND*%
X37168997Y-14982854D03*
%TO.N,/VCOM*%
X26595000Y-29200000D03*
%TO.N,/D0*%
X18540000Y-25400000D03*
%TO.N,/D1*%
X28815000Y-26570000D03*
X38212443Y-20280516D03*
%TO.N,/D2*%
X27285000Y-26480480D03*
%TO.N,/D3*%
X39029007Y-20343509D03*
X29390000Y-26074074D03*
%TO.N,/D5*%
X39972013Y-20522506D03*
X31171124Y-25106124D03*
%TO.N,/VGH*%
X19330000Y-16060000D03*
X19630000Y-32590000D03*
%TO.N,/XSTL*%
X41229349Y-19275318D03*
X40714957Y-20254936D03*
%TO.N,/BRD*%
X27880000Y-18970000D03*
D17*
%TO.N,VDD*%
X44030000Y-26140000D03*
X44010000Y-21690000D03*
D16*
%TO.N,GND*%
X44750000Y-17290000D03*
X43410979Y-17305900D03*
X43140000Y-15470000D03*
D18*
X19925000Y-23003248D03*
X19725000Y-28200000D03*
X19275000Y-29700000D03*
D16*
%TO.N,VDD*%
X19900000Y-28900000D03*
X19875000Y-31675000D03*
%TO.N,/BRD*%
X24775000Y-14325000D03*
%TD*%
D19*
%TO.N,/D2*%
X37805323Y-13261533D02*
X38098790Y-13555000D01*
%TO.N,/D6*%
X46464975Y-13490000D02*
X41883173Y-13490000D01*
%TO.N,/XLE*%
X40860000Y-14300000D02*
X41370000Y-13790000D01*
X40860000Y-16060000D02*
X40860000Y-14300000D01*
%TO.N,/D2*%
X39700000Y-14869999D02*
X39800000Y-14970000D01*
%TO.N,/D4*%
X40160000Y-15469949D02*
X40160000Y-16060000D01*
%TO.N,/D2*%
X39700000Y-13965025D02*
X39700000Y-14869999D01*
%TO.N,/D0*%
X39350000Y-14330000D02*
X38925000Y-13905000D01*
%TO.N,/D4*%
X40150000Y-13253653D02*
X40150000Y-15459948D01*
%TO.N,/D2*%
X38098790Y-13555000D02*
X39289975Y-13555000D01*
%TO.N,/D0*%
X36265000Y-13905000D02*
X35630000Y-13270000D01*
%TO.N,/CKV*%
X38860000Y-14840000D02*
X38860000Y-15410000D01*
%TO.N,/D2*%
X39800000Y-14970000D02*
X39800000Y-15604922D01*
%TO.N,/D0*%
X39460000Y-15759897D02*
X39450000Y-15749896D01*
%TO.N,/D2*%
X39810000Y-15614923D02*
X39810000Y-16060000D01*
%TO.N,/D6*%
X41131827Y-13215000D02*
X40510000Y-13836827D01*
%TO.N,/D2*%
X39289975Y-13555000D02*
X39700000Y-13965025D01*
%TO.N,/D4*%
X21050000Y-25200000D02*
X20200000Y-25200000D01*
%TO.N,/D0*%
X39349999Y-15014972D02*
X39350000Y-14330000D01*
%TO.N,/D4*%
X20165026Y-12410000D02*
X39306347Y-12410000D01*
X18320000Y-23320000D02*
X18320000Y-14255025D01*
%TO.N,/CKV*%
X38860000Y-15410000D02*
X39085000Y-15635000D01*
%TO.N,/D0*%
X39450000Y-15749896D02*
X39450000Y-15114974D01*
X39460000Y-16060000D02*
X39460000Y-15759897D01*
%TO.N,/D4*%
X20200000Y-25200000D02*
X18320000Y-23320000D01*
%TO.N,/D0*%
X38925000Y-13905000D02*
X36265000Y-13905000D01*
%TO.N,/D2*%
X39800000Y-15604922D02*
X39810000Y-15614923D01*
%TO.N,/D6*%
X49020000Y-16045025D02*
X46464975Y-13490000D01*
%TO.N,/D4*%
X40150000Y-15459948D02*
X40160000Y-15469949D01*
%TO.N,/D6*%
X21050000Y-24200000D02*
X48855026Y-24200000D01*
X40510000Y-13836827D02*
X40510000Y-16060000D01*
%TO.N,/CKV*%
X39085000Y-15635000D02*
X39085000Y-16035000D01*
%TO.N,/D4*%
X39306347Y-12410000D02*
X40150000Y-13253653D01*
%TO.N,/D6*%
X48855026Y-24200000D02*
X49020000Y-24035026D01*
X49020000Y-24035026D02*
X49020000Y-16045025D01*
X41883173Y-13490000D02*
X41608173Y-13215000D01*
%TO.N,/D0*%
X39450000Y-15114974D02*
X39349999Y-15014972D01*
%TO.N,/D6*%
X41608173Y-13215000D02*
X41131827Y-13215000D01*
%TO.N,/CKV*%
X39085000Y-16035000D02*
X39110000Y-16060000D01*
%TO.N,/D4*%
X18320000Y-14255025D02*
X20165026Y-12410000D01*
%TO.N,/XLE*%
X18670000Y-14400000D02*
X20290000Y-12780000D01*
X18670000Y-16670000D02*
X18670000Y-14400000D01*
X38863174Y-12780000D02*
X39139087Y-13055913D01*
X20290000Y-12780000D02*
X38863174Y-12780000D01*
X21050000Y-18200000D02*
X20200000Y-18200000D01*
X20200000Y-18200000D02*
X18670000Y-16670000D01*
%TO.N,/VCOM*%
X37970000Y-14970000D02*
X37950000Y-14970000D01*
%TO.N,GND*%
X38060000Y-16060000D02*
X38060000Y-15758042D01*
%TO.N,/VCOM*%
X38350000Y-15350000D02*
X37970000Y-14970000D01*
%TO.N,GND*%
X38060000Y-15758042D02*
X37284812Y-14982854D01*
X37284812Y-14982854D02*
X37168997Y-14982854D01*
%TO.N,/XCL*%
X21050000Y-27700000D02*
X27460000Y-27700000D01*
%TO.N,/D1*%
X28393312Y-26991688D02*
X28815000Y-26570000D01*
%TO.N,/D2*%
X27004520Y-26200000D02*
X27285000Y-26480480D01*
%TO.N,/D1*%
X21050000Y-26700000D02*
X26820039Y-26700000D01*
%TO.N,/D2*%
X21050000Y-26200000D02*
X27004520Y-26200000D01*
%TO.N,/D1*%
X26820039Y-26700000D02*
X27111727Y-26991688D01*
X27111727Y-26991688D02*
X28393312Y-26991688D01*
%TO.N,/D7*%
X40720019Y-18605083D02*
X40510000Y-18395065D01*
%TO.N,/XSTL*%
X41070019Y-18460108D02*
X41070019Y-19115988D01*
%TO.N,/D1*%
X39670019Y-19516352D02*
X39333192Y-19853179D01*
%TO.N,/D7*%
X38102666Y-23700000D02*
X41289957Y-20512709D01*
%TO.N,/D3*%
X40020019Y-18895032D02*
X40020019Y-19661326D01*
X39248090Y-20203179D02*
X39107760Y-20343509D01*
%TO.N,/XSTL*%
X40547013Y-20530603D02*
X40714957Y-20362659D01*
%TO.N,/D5*%
X40160000Y-20334519D02*
X39972013Y-20522506D01*
%TO.N,/MODE*%
X38118744Y-19222296D02*
X38118744Y-19441280D01*
%TO.N,/XSTL*%
X40860000Y-17880000D02*
X40860000Y-18250090D01*
%TO.N,/D5*%
X40160000Y-18540039D02*
X40370019Y-18750058D01*
%TO.N,/D7*%
X41289957Y-20512709D02*
X41289957Y-20016763D01*
X40510000Y-18395065D02*
X40510000Y-17880000D01*
%TO.N,/D5*%
X40370019Y-18750058D02*
X40370019Y-19806300D01*
%TO.N,/D1*%
X39460000Y-17880000D02*
X39460000Y-18829987D01*
%TO.N,/XSTL*%
X21050000Y-18700000D02*
X23616827Y-18700000D01*
%TO.N,/D1*%
X39047163Y-19867476D02*
X38625483Y-19867476D01*
%TO.N,/MODE*%
X38760000Y-17880000D02*
X38760000Y-18594948D01*
%TO.N,/D7*%
X21050000Y-23700000D02*
X38102666Y-23700000D01*
%TO.N,/XSTL*%
X41070019Y-19115988D02*
X41229349Y-19275318D01*
%TO.N,/D1*%
X39670019Y-19040006D02*
X39670019Y-19516352D01*
%TO.N,/D3*%
X39810000Y-18685013D02*
X40020019Y-18895032D01*
%TO.N,/XSTL*%
X40210186Y-21097506D02*
X40547013Y-20760679D01*
%TO.N,/D3*%
X39810000Y-17880000D02*
X39810000Y-18685013D01*
%TO.N,/XSTL*%
X23616827Y-18700000D02*
X26014333Y-21097506D01*
%TO.N,/MODE*%
X38324948Y-19030000D02*
X38311040Y-19030000D01*
%TO.N,/D1*%
X39333192Y-19853179D02*
X39061460Y-19853179D01*
%TO.N,/SPV*%
X39110000Y-17880000D02*
X39110000Y-19263198D01*
%TO.N,/D1*%
X39061460Y-19853179D02*
X39047163Y-19867476D01*
X39460000Y-18829987D02*
X39670019Y-19040006D01*
%TO.N,/MODE*%
X38311040Y-19030000D02*
X38118744Y-19222296D01*
%TO.N,/D5*%
X40160000Y-20016319D02*
X40160000Y-20334519D01*
%TO.N,/XSTL*%
X40547013Y-20760679D02*
X40547013Y-20530603D01*
%TO.N,/D5*%
X40370019Y-19806300D02*
X40160000Y-20016319D01*
%TO.N,/D7*%
X41289957Y-20016763D02*
X40720019Y-19446825D01*
%TO.N,/XSTL*%
X26014333Y-21097506D02*
X40210186Y-21097506D01*
X40714957Y-20362659D02*
X40714957Y-20254936D01*
%TO.N,/D7*%
X40720019Y-19446825D02*
X40720019Y-18605083D01*
%TO.N,/D3*%
X39478166Y-20203179D02*
X39248090Y-20203179D01*
%TO.N,/SPV*%
X39110000Y-19263198D02*
X39095019Y-19278179D01*
%TO.N,/D5*%
X40160000Y-17880000D02*
X40160000Y-18540039D01*
%TO.N,/MODE*%
X38760000Y-18594948D02*
X38324948Y-19030000D01*
%TO.N,/D3*%
X39107760Y-20343509D02*
X39029007Y-20343509D01*
%TO.N,/D1*%
X38625483Y-19867476D02*
X38212443Y-20280516D01*
%TO.N,/D3*%
X40020019Y-19661326D02*
X39478166Y-20203179D01*
%TO.N,/XSTL*%
X40860000Y-18250090D02*
X41070019Y-18460108D01*
%TO.N,VDD*%
X43935000Y-20560000D02*
X46490000Y-20560000D01*
X46490000Y-20560000D02*
X48670000Y-18380000D01*
X48670000Y-18380000D02*
X48670000Y-16189999D01*
%TO.N,/CKV*%
X49370000Y-24180000D02*
X49370000Y-15900050D01*
X42580000Y-24990000D02*
X48560000Y-24990000D01*
X46459950Y-12990000D02*
X43680000Y-12990000D01*
X49370000Y-15900050D02*
X46459950Y-12990000D01*
%TO.N,VDD*%
X42820000Y-14966727D02*
X42260000Y-15526726D01*
%TO.N,/CKV*%
X48560000Y-24990000D02*
X49370000Y-24180000D01*
%TO.N,VDD*%
X47446729Y-14966727D02*
X42820000Y-14966727D01*
X42260000Y-15526726D02*
X42260000Y-16060000D01*
X48670000Y-16189999D02*
X47446729Y-14966727D01*
%TO.N,/SPV*%
X40890000Y-25550000D02*
X36240000Y-30200000D01*
X36240000Y-30200000D02*
X21050000Y-30200000D01*
%TO.N,GND*%
X37753484Y-18330000D02*
X37723484Y-18360000D01*
%TO.N,/BRD*%
X38410000Y-17880000D02*
X38410000Y-18449974D01*
X38135478Y-18680000D02*
X38125000Y-18690478D01*
X37988487Y-18690478D02*
X37248965Y-19430000D01*
X38410000Y-18449974D02*
X38179974Y-18680000D01*
X28340000Y-19430000D02*
X27880000Y-18970000D01*
X37248965Y-19430000D02*
X28340000Y-19430000D01*
X38125000Y-18690478D02*
X37988487Y-18690478D01*
X38179974Y-18680000D02*
X38135478Y-18680000D01*
%TO.N,GND*%
X38060000Y-17880000D02*
X38060000Y-18305000D01*
X38035000Y-18330000D02*
X37753484Y-18330000D01*
X37550000Y-18360000D02*
X37101493Y-18808507D01*
X38060000Y-18305000D02*
X38035000Y-18330000D01*
X37723484Y-18360000D02*
X37550000Y-18360000D01*
X37101493Y-18808507D02*
X37101493Y-18817320D01*
%TO.N,/MODE*%
X41920000Y-26830000D02*
X37550000Y-31200000D01*
%TO.N,/CKV*%
X21050000Y-30700000D02*
X36870000Y-30700000D01*
X36870000Y-30700000D02*
X42580000Y-24990000D01*
%TO.N,/MODE*%
X37550000Y-31200000D02*
X21050000Y-31200000D01*
%TO.N,/VGL*%
X27000000Y-18450000D02*
X26020000Y-19430000D01*
X36519046Y-18450000D02*
X27000000Y-18450000D01*
X26020000Y-19430000D02*
X26020000Y-20290000D01*
X37360000Y-17880000D02*
X36980000Y-18260000D01*
X36980000Y-18260000D02*
X36709046Y-18260000D01*
X36709046Y-18260000D02*
X36519046Y-18450000D01*
%TO.N,GND*%
X41560000Y-16060000D02*
X41560000Y-15630000D01*
X41661752Y-15630000D02*
X42550000Y-14741752D01*
X42550000Y-14741752D02*
X42550000Y-14560000D01*
%TO.N,VDD*%
X41910000Y-16060000D02*
X42260000Y-16060000D01*
%TO.N,GND*%
X42824974Y-15470000D02*
X43140000Y-15470000D01*
X42610000Y-15684974D02*
X42824974Y-15470000D01*
X42610000Y-16060000D02*
X42610000Y-15684974D01*
%TO.N,/VGL*%
X21050000Y-33700000D02*
X24560000Y-33700000D01*
%TO.N,/VCOM*%
X21050000Y-29200000D02*
X26595000Y-29200000D01*
%TO.N,/VGL*%
X37710000Y-17880000D02*
X37360000Y-17880000D01*
%TO.N,/XCL*%
X41210000Y-15410000D02*
X41470000Y-15150000D01*
%TO.N,/D5*%
X21050000Y-24700000D02*
X30765000Y-24700000D01*
%TO.N,/XCL*%
X41210000Y-16060000D02*
X41210000Y-15410000D01*
%TO.N,/D3*%
X21050000Y-25700000D02*
X29015926Y-25700000D01*
X29015926Y-25700000D02*
X29390000Y-26074074D01*
%TO.N,/D5*%
X30765000Y-24700000D02*
X31171124Y-25106124D01*
%TO.N,/VCOM*%
X38410000Y-16060000D02*
X38410000Y-15410000D01*
X38410000Y-15410000D02*
X38350000Y-15350000D01*
%TO.N,/D0*%
X18540000Y-25400000D02*
X18540000Y-26360000D01*
X18540000Y-26360000D02*
X19380000Y-27200000D01*
X19380000Y-27200000D02*
X21050000Y-27200000D01*
D20*
%TO.N,/VGH*%
X37360000Y-16060000D02*
X34640000Y-13340000D01*
X34640000Y-13340000D02*
X20610000Y-13340000D01*
X20610000Y-13340000D02*
X19330000Y-14620000D01*
X19330000Y-14620000D02*
X19330000Y-16060000D01*
X19740000Y-32700000D02*
X21050000Y-32700000D01*
X19630000Y-32590000D02*
X19740000Y-32700000D01*
D19*
X37710000Y-16060000D02*
X37360000Y-16060000D01*
%TO.N,VDD*%
X32850000Y-31700000D02*
X20325000Y-31700000D01*
X32850000Y-31700000D02*
X38470000Y-31700000D01*
X44010000Y-21690000D02*
X44010000Y-20635000D01*
X38470000Y-31700000D02*
X44030000Y-26140000D01*
X44010000Y-20635000D02*
X43935000Y-20560000D01*
%TO.N,Net-(CN1-Pad36)*%
X42285000Y-20560000D02*
X42285000Y-22345000D01*
X42285000Y-22345000D02*
X42560000Y-22620000D01*
X42260000Y-17880000D02*
X42260000Y-20535000D01*
X42260000Y-20535000D02*
X42285000Y-20560000D01*
%TO.N,GND*%
X42610000Y-17880000D02*
X42610000Y-18305000D01*
X42610000Y-18305000D02*
X42725000Y-18420000D01*
X42725000Y-18420000D02*
X43545000Y-18420000D01*
X43545000Y-18420000D02*
X43660000Y-18305000D01*
X43660000Y-18305000D02*
X43660000Y-17880000D01*
X45060000Y-17880000D02*
X45060000Y-17600000D01*
X45060000Y-17600000D02*
X44750000Y-17290000D01*
X43660000Y-17880000D02*
X43660000Y-17554921D01*
X43660000Y-17554921D02*
X43410979Y-17305900D01*
X45060000Y-16060000D02*
X45060000Y-15635000D01*
X45060000Y-15635000D02*
X44855000Y-15430000D01*
X44855000Y-15430000D02*
X43865000Y-15430000D01*
X43865000Y-15430000D02*
X43660000Y-15635000D01*
X43140000Y-15470000D02*
X43495000Y-15470000D01*
X43495000Y-15470000D02*
X43660000Y-15635000D01*
X43660000Y-15635000D02*
X43660000Y-16060000D01*
X21050000Y-29700000D02*
X19275000Y-29700000D01*
X21050000Y-28200000D02*
X19725000Y-28200000D01*
X21050000Y-23200000D02*
X20121752Y-23200000D01*
X20121752Y-23200000D02*
X19925000Y-23003248D01*
%TO.N,VDD*%
X19900000Y-31700000D02*
X19875000Y-31675000D01*
X19900000Y-28900000D02*
X20100000Y-28700000D01*
X20325000Y-31700000D02*
X21050000Y-31700000D01*
X20100000Y-28700000D02*
X21050000Y-28700000D01*
X20325000Y-31700000D02*
X19900000Y-31700000D01*
%TO.N,/XOE*%
X41210000Y-17455000D02*
X41210000Y-17880000D01*
X35620000Y-17700000D02*
X35860000Y-17460000D01*
X41185000Y-17430000D02*
X41210000Y-17455000D01*
X21050000Y-17700000D02*
X35620000Y-17700000D01*
X37035000Y-17430000D02*
X41185000Y-17430000D01*
X35860000Y-17460000D02*
X37005000Y-17460000D01*
X37005000Y-17460000D02*
X37035000Y-17430000D01*
%TO.N,/VPOS*%
X31180000Y-16200000D02*
X32220000Y-17240000D01*
X42960000Y-17455000D02*
X42960000Y-17880000D01*
X42960000Y-17455000D02*
X42960000Y-17530000D01*
X35715026Y-17110000D02*
X36860025Y-17110000D01*
X36860025Y-17110000D02*
X36890026Y-17080000D01*
X35585025Y-17240000D02*
X35715026Y-17110000D01*
X21050000Y-16200000D02*
X31180000Y-16200000D01*
X41329974Y-17080000D02*
X41489975Y-17240000D01*
X36890026Y-17080000D02*
X41329974Y-17080000D01*
X42960000Y-17530000D02*
X43310000Y-17880000D01*
X32220000Y-17240000D02*
X35585025Y-17240000D01*
X41489975Y-17240000D02*
X42745000Y-17240000D01*
X42745000Y-17240000D02*
X42960000Y-17455000D01*
%TO.N,/VNEG*%
X30750000Y-15200000D02*
X32440000Y-16890000D01*
X43310000Y-16410000D02*
X42960000Y-16060000D01*
X32440000Y-16890000D02*
X35440051Y-16890000D01*
X35440051Y-16890000D02*
X35770051Y-16560000D01*
X43310000Y-16560000D02*
X43310000Y-16060000D01*
X21050000Y-15200000D02*
X30750000Y-15200000D01*
X35770051Y-16560000D02*
X43310000Y-16560000D01*
X43310000Y-16560000D02*
X43310000Y-16410000D01*
%TO.N,/BRD*%
X24775000Y-14325000D02*
X24650000Y-14200000D01*
X24650000Y-14200000D02*
X21050000Y-14200000D01*
%TD*%
%TA.AperFunction,Conductor*%
%TO.N,GND*%
G36*
X19137012Y-17998015D02*
G01*
X19143595Y-18004144D01*
X19735681Y-18596230D01*
X19746548Y-18608620D01*
X19766013Y-18633987D01*
X19794641Y-18655954D01*
X19794666Y-18655975D01*
X19821250Y-18676372D01*
X19842203Y-18692450D01*
X19884071Y-18749787D01*
X19891500Y-18792413D01*
X19891500Y-18898630D01*
X19891501Y-18898654D01*
X19895573Y-18936534D01*
X19895573Y-18963466D01*
X19891501Y-19001345D01*
X19891500Y-19001369D01*
X19891500Y-19398630D01*
X19891501Y-19398654D01*
X19895573Y-19436534D01*
X19895573Y-19463466D01*
X19891501Y-19501345D01*
X19891500Y-19501369D01*
X19891500Y-19898630D01*
X19891501Y-19898654D01*
X19895573Y-19936534D01*
X19895573Y-19963466D01*
X19891501Y-20001345D01*
X19891500Y-20001369D01*
X19891500Y-20398630D01*
X19891501Y-20398654D01*
X19895573Y-20436534D01*
X19895573Y-20463466D01*
X19891501Y-20501345D01*
X19891500Y-20501369D01*
X19891500Y-20898630D01*
X19891501Y-20898654D01*
X19895573Y-20936534D01*
X19895573Y-20963466D01*
X19891501Y-21001345D01*
X19891500Y-21001369D01*
X19891500Y-21398630D01*
X19891501Y-21398654D01*
X19895573Y-21436534D01*
X19895573Y-21463466D01*
X19891501Y-21501345D01*
X19891500Y-21501369D01*
X19891500Y-21898630D01*
X19891501Y-21898654D01*
X19895573Y-21936534D01*
X19895573Y-21963466D01*
X19891501Y-22001345D01*
X19891500Y-22001369D01*
X19891500Y-22398630D01*
X19891501Y-22398654D01*
X19895573Y-22436534D01*
X19895573Y-22463466D01*
X19891501Y-22501345D01*
X19891500Y-22501369D01*
X19891500Y-22898649D01*
X19895826Y-22938881D01*
X19895826Y-22965817D01*
X19892000Y-23001398D01*
X19892000Y-23050001D01*
X19908853Y-23066854D01*
X19919573Y-23070002D01*
X19952321Y-23100492D01*
X19955588Y-23104856D01*
X19970288Y-23124494D01*
X19995096Y-23191015D01*
X19980003Y-23260389D01*
X19970288Y-23275506D01*
X19952321Y-23299506D01*
X19913218Y-23328780D01*
X19892000Y-23349999D01*
X19892000Y-23398601D01*
X19895826Y-23434181D01*
X19895826Y-23461116D01*
X19891501Y-23501348D01*
X19891500Y-23501369D01*
X19891500Y-23726761D01*
X19871498Y-23794882D01*
X19817842Y-23841375D01*
X19747568Y-23851479D01*
X19682988Y-23821985D01*
X19676405Y-23815856D01*
X18965405Y-23104856D01*
X18931379Y-23042544D01*
X18928500Y-23015761D01*
X18928500Y-18093239D01*
X18948502Y-18025118D01*
X19002158Y-17978625D01*
X19072432Y-17968521D01*
X19137012Y-17998015D01*
G37*
%TD.AperFunction*%
%TA.AperFunction,Conductor*%
G36*
X47727012Y-16108013D02*
G01*
X47733595Y-16114142D01*
X48024595Y-16405142D01*
X48058621Y-16467454D01*
X48061500Y-16494237D01*
X48061500Y-18075761D01*
X48041498Y-18143882D01*
X48024595Y-18164856D01*
X46274856Y-19914595D01*
X46212544Y-19948621D01*
X46185761Y-19951500D01*
X44832356Y-19951500D01*
X44764235Y-19931498D01*
X44724528Y-19890685D01*
X44696820Y-19844851D01*
X44696818Y-19844848D01*
X44696816Y-19844845D01*
X44696813Y-19844842D01*
X44696810Y-19844838D01*
X44575160Y-19723188D01*
X44575155Y-19723184D01*
X44523522Y-19691971D01*
X44427913Y-19634173D01*
X44427912Y-19634172D01*
X44427911Y-19634172D01*
X44427906Y-19634170D01*
X44263646Y-19582986D01*
X44211723Y-19578268D01*
X44192265Y-19576500D01*
X44192262Y-19576500D01*
X43677738Y-19576500D01*
X43606353Y-19582986D01*
X43606352Y-19582986D01*
X43442093Y-19634170D01*
X43442088Y-19634172D01*
X43294844Y-19723184D01*
X43199094Y-19818934D01*
X43136782Y-19852959D01*
X43065966Y-19847893D01*
X43020904Y-19818933D01*
X42925155Y-19723184D01*
X42919150Y-19718479D01*
X42920786Y-19716390D01*
X42881358Y-19673322D01*
X42868500Y-19617870D01*
X42868500Y-18714500D01*
X42888502Y-18646379D01*
X42942158Y-18599886D01*
X42994500Y-18588500D01*
X43083634Y-18588500D01*
X43083638Y-18588500D01*
X43121532Y-18584426D01*
X43148468Y-18584426D01*
X43186362Y-18588500D01*
X43186366Y-18588500D01*
X43433633Y-18588500D01*
X43433638Y-18588500D01*
X43473886Y-18584173D01*
X43500821Y-18584173D01*
X43536406Y-18587999D01*
X43536413Y-18588000D01*
X43783587Y-18588000D01*
X43783593Y-18587999D01*
X43819177Y-18584173D01*
X43846114Y-18584173D01*
X43886362Y-18588500D01*
X43886367Y-18588500D01*
X44133634Y-18588500D01*
X44133638Y-18588500D01*
X44171532Y-18584426D01*
X44198468Y-18584426D01*
X44236362Y-18588500D01*
X44236366Y-18588500D01*
X44483634Y-18588500D01*
X44483638Y-18588500D01*
X44521532Y-18584426D01*
X44548468Y-18584426D01*
X44586362Y-18588500D01*
X44586366Y-18588500D01*
X44833633Y-18588500D01*
X44833638Y-18588500D01*
X44873886Y-18584173D01*
X44900821Y-18584173D01*
X44936406Y-18587999D01*
X44936413Y-18588000D01*
X45183587Y-18588000D01*
X45183593Y-18587999D01*
X45219177Y-18584173D01*
X45246114Y-18584173D01*
X45286362Y-18588500D01*
X45286367Y-18588500D01*
X45533634Y-18588500D01*
X45533638Y-18588500D01*
X45571532Y-18584426D01*
X45598468Y-18584426D01*
X45636362Y-18588500D01*
X45636366Y-18588500D01*
X45883632Y-18588500D01*
X45883638Y-18588500D01*
X45883645Y-18588499D01*
X45883649Y-18588499D01*
X45944196Y-18581990D01*
X45944197Y-18581989D01*
X45944201Y-18581989D01*
X46081204Y-18530889D01*
X46116004Y-18504836D01*
X46182521Y-18480026D01*
X46235543Y-18487649D01*
X46300799Y-18511989D01*
X46300801Y-18511989D01*
X46300803Y-18511990D01*
X46361350Y-18518499D01*
X46361355Y-18518499D01*
X46361362Y-18518500D01*
X46361368Y-18518500D01*
X47058632Y-18518500D01*
X47058638Y-18518500D01*
X47058645Y-18518499D01*
X47058649Y-18518499D01*
X47119196Y-18511990D01*
X47119199Y-18511989D01*
X47119201Y-18511989D01*
X47256204Y-18460889D01*
X47373261Y-18373261D01*
X47460889Y-18256204D01*
X47511989Y-18119201D01*
X47518500Y-18058638D01*
X47518500Y-17661362D01*
X47518499Y-17661350D01*
X47511990Y-17600803D01*
X47511988Y-17600795D01*
X47460889Y-17463797D01*
X47460887Y-17463792D01*
X47373261Y-17346738D01*
X47256207Y-17259112D01*
X47256202Y-17259110D01*
X47119204Y-17208011D01*
X47119196Y-17208009D01*
X47058649Y-17201500D01*
X47058638Y-17201500D01*
X46361362Y-17201500D01*
X46361350Y-17201500D01*
X46300803Y-17208009D01*
X46300799Y-17208010D01*
X46199881Y-17245651D01*
X46129065Y-17250715D01*
X46089537Y-17232664D01*
X46089118Y-17233432D01*
X46081202Y-17229110D01*
X45944204Y-17178011D01*
X45944196Y-17178009D01*
X45883649Y-17171500D01*
X45883638Y-17171500D01*
X45636362Y-17171500D01*
X45636357Y-17171500D01*
X45636345Y-17171501D01*
X45598466Y-17175573D01*
X45571534Y-17175573D01*
X45533654Y-17171501D01*
X45533642Y-17171500D01*
X45533638Y-17171500D01*
X45286362Y-17171500D01*
X45286356Y-17171500D01*
X45286348Y-17171501D01*
X45246116Y-17175826D01*
X45219181Y-17175826D01*
X45183601Y-17172000D01*
X44936398Y-17172000D01*
X44900817Y-17175826D01*
X44873881Y-17175826D01*
X44833649Y-17171500D01*
X44833638Y-17171500D01*
X44586362Y-17171500D01*
X44586357Y-17171500D01*
X44586345Y-17171501D01*
X44548466Y-17175573D01*
X44521534Y-17175573D01*
X44483654Y-17171501D01*
X44483642Y-17171500D01*
X44483638Y-17171500D01*
X44236362Y-17171500D01*
X44236357Y-17171500D01*
X44236345Y-17171501D01*
X44198466Y-17175573D01*
X44171534Y-17175573D01*
X44133654Y-17171501D01*
X44133642Y-17171500D01*
X44133638Y-17171500D01*
X43886362Y-17171500D01*
X43886357Y-17171500D01*
X43886345Y-17171501D01*
X43875277Y-17172691D01*
X43805409Y-17160084D01*
X43753448Y-17111704D01*
X43735891Y-17042913D01*
X43758314Y-16975550D01*
X43761850Y-16970708D01*
X43841520Y-16866881D01*
X43841524Y-16866876D01*
X43850054Y-16846283D01*
X43894601Y-16791002D01*
X43961964Y-16768580D01*
X43966463Y-16768500D01*
X44133634Y-16768500D01*
X44133638Y-16768500D01*
X44171532Y-16764426D01*
X44198468Y-16764426D01*
X44236362Y-16768500D01*
X44236366Y-16768500D01*
X44483634Y-16768500D01*
X44483638Y-16768500D01*
X44521532Y-16764426D01*
X44548468Y-16764426D01*
X44586362Y-16768500D01*
X44586366Y-16768500D01*
X44833633Y-16768500D01*
X44833638Y-16768500D01*
X44873886Y-16764173D01*
X44900821Y-16764173D01*
X44936406Y-16767999D01*
X44936413Y-16768000D01*
X45183587Y-16768000D01*
X45183593Y-16767999D01*
X45219177Y-16764173D01*
X45246114Y-16764173D01*
X45286362Y-16768500D01*
X45286367Y-16768500D01*
X45533634Y-16768500D01*
X45533638Y-16768500D01*
X45571532Y-16764426D01*
X45598468Y-16764426D01*
X45636362Y-16768500D01*
X45636366Y-16768500D01*
X45883632Y-16768500D01*
X45883638Y-16768500D01*
X45883645Y-16768499D01*
X45883649Y-16768499D01*
X45944196Y-16761990D01*
X45944199Y-16761989D01*
X45944201Y-16761989D01*
X46007180Y-16738499D01*
X46081201Y-16710890D01*
X46081200Y-16710890D01*
X46081204Y-16710889D01*
X46081207Y-16710886D01*
X46089113Y-16706570D01*
X46089882Y-16707978D01*
X46146844Y-16686725D01*
X46199879Y-16694347D01*
X46300799Y-16731989D01*
X46300801Y-16731989D01*
X46300803Y-16731990D01*
X46361350Y-16738499D01*
X46361355Y-16738499D01*
X46361362Y-16738500D01*
X46361368Y-16738500D01*
X47058632Y-16738500D01*
X47058638Y-16738500D01*
X47058645Y-16738499D01*
X47058649Y-16738499D01*
X47119196Y-16731990D01*
X47119199Y-16731989D01*
X47119201Y-16731989D01*
X47256204Y-16680889D01*
X47314697Y-16637102D01*
X47373261Y-16593261D01*
X47460887Y-16476207D01*
X47460887Y-16476206D01*
X47460889Y-16476204D01*
X47511989Y-16339201D01*
X47518193Y-16281500D01*
X47518499Y-16278649D01*
X47518500Y-16278632D01*
X47518500Y-16203237D01*
X47538502Y-16135116D01*
X47592158Y-16088623D01*
X47662432Y-16078519D01*
X47727012Y-16108013D01*
G37*
%TD.AperFunction*%
%TA.AperFunction,Conductor*%
G36*
X46228857Y-14118502D02*
G01*
X46249831Y-14135405D01*
X46257558Y-14143132D01*
X46291584Y-14205444D01*
X46286519Y-14276259D01*
X46243972Y-14333095D01*
X46177452Y-14357906D01*
X46168463Y-14358227D01*
X42868138Y-14358227D01*
X42851692Y-14357149D01*
X42820001Y-14352977D01*
X42819999Y-14352977D01*
X42784212Y-14357688D01*
X42784203Y-14357688D01*
X42784204Y-14357689D01*
X42780117Y-14358227D01*
X42780115Y-14358227D01*
X42665495Y-14373317D01*
X42661151Y-14373888D01*
X42513126Y-14435202D01*
X42513119Y-14435207D01*
X42418475Y-14507828D01*
X42418476Y-14507829D01*
X42386013Y-14532739D01*
X42366547Y-14558107D01*
X42355682Y-14570494D01*
X42230784Y-14695392D01*
X42168472Y-14729418D01*
X42097657Y-14724353D01*
X42054107Y-14692778D01*
X42052106Y-14694780D01*
X41930223Y-14572897D01*
X41876208Y-14538958D01*
X41829170Y-14485780D01*
X41818350Y-14415613D01*
X41847183Y-14350734D01*
X41854137Y-14343187D01*
X41947102Y-14250223D01*
X41969146Y-14215140D01*
X42005387Y-14157464D01*
X42058566Y-14110426D01*
X42112074Y-14098500D01*
X46160736Y-14098500D01*
X46228857Y-14118502D01*
G37*
%TD.AperFunction*%
%TA.AperFunction,Conductor*%
G36*
X53991621Y-9020502D02*
G01*
X54038114Y-9074158D01*
X54049500Y-9126500D01*
X54049500Y-38873500D01*
X54029498Y-38941621D01*
X53975842Y-38988114D01*
X53923500Y-38999500D01*
X14176500Y-38999500D01*
X14108379Y-38979498D01*
X14061886Y-38925842D01*
X14050500Y-38873500D01*
X14050500Y-36548649D01*
X16191500Y-36548649D01*
X16198009Y-36609196D01*
X16198011Y-36609204D01*
X16249110Y-36746202D01*
X16249112Y-36746207D01*
X16336738Y-36863261D01*
X16453792Y-36950887D01*
X16453794Y-36950888D01*
X16453796Y-36950889D01*
X16512875Y-36972924D01*
X16590795Y-37001988D01*
X16590803Y-37001990D01*
X16651350Y-37008499D01*
X16651355Y-37008499D01*
X16651362Y-37008500D01*
X16651368Y-37008500D01*
X18948632Y-37008500D01*
X18948638Y-37008500D01*
X18948645Y-37008499D01*
X18948649Y-37008499D01*
X19009196Y-37001990D01*
X19009199Y-37001989D01*
X19009201Y-37001989D01*
X19146204Y-36950889D01*
X19263261Y-36863261D01*
X19350889Y-36746204D01*
X19401989Y-36609201D01*
X19408500Y-36548638D01*
X19408500Y-34651362D01*
X19408499Y-34651350D01*
X19401990Y-34590803D01*
X19401988Y-34590795D01*
X19350889Y-34453797D01*
X19350887Y-34453792D01*
X19263261Y-34336738D01*
X19146207Y-34249112D01*
X19146202Y-34249110D01*
X19009204Y-34198011D01*
X19009196Y-34198009D01*
X18948649Y-34191500D01*
X18948638Y-34191500D01*
X16651362Y-34191500D01*
X16651350Y-34191500D01*
X16590803Y-34198009D01*
X16590795Y-34198011D01*
X16453797Y-34249110D01*
X16453792Y-34249112D01*
X16336738Y-34336738D01*
X16249112Y-34453792D01*
X16249110Y-34453797D01*
X16198011Y-34590795D01*
X16198009Y-34590803D01*
X16191500Y-34651350D01*
X16191500Y-36548649D01*
X14050500Y-36548649D01*
X14050500Y-13248649D01*
X16191500Y-13248649D01*
X16198009Y-13309196D01*
X16198011Y-13309204D01*
X16249110Y-13446202D01*
X16249112Y-13446207D01*
X16336738Y-13563261D01*
X16453792Y-13650887D01*
X16453794Y-13650888D01*
X16453796Y-13650889D01*
X16512875Y-13672924D01*
X16590795Y-13701988D01*
X16590803Y-13701990D01*
X16651350Y-13708499D01*
X16651355Y-13708499D01*
X16651362Y-13708500D01*
X17716863Y-13708500D01*
X17784984Y-13728502D01*
X17831477Y-13782158D01*
X17841581Y-13852432D01*
X17816825Y-13911203D01*
X17800174Y-13932902D01*
X17788474Y-13948151D01*
X17728429Y-14093116D01*
X17727163Y-14096170D01*
X17727160Y-14096181D01*
X17721997Y-14135405D01*
X17711500Y-14215140D01*
X17711500Y-14215145D01*
X17711500Y-14215146D01*
X17706250Y-14255024D01*
X17706250Y-14255025D01*
X17710422Y-14286715D01*
X17711500Y-14303161D01*
X17711500Y-23271863D01*
X17710422Y-23288309D01*
X17706250Y-23319999D01*
X17706250Y-23320003D01*
X17710959Y-23355776D01*
X17710961Y-23355795D01*
X17724607Y-23459451D01*
X17727162Y-23478851D01*
X17788475Y-23626874D01*
X17788480Y-23626882D01*
X17861524Y-23722074D01*
X17861525Y-23722074D01*
X17886014Y-23753988D01*
X17911378Y-23773451D01*
X17923769Y-23784318D01*
X18589840Y-24450389D01*
X18623866Y-24512701D01*
X18618801Y-24583516D01*
X18576254Y-24640352D01*
X18514854Y-24664692D01*
X18464550Y-24670360D01*
X18375748Y-24680366D01*
X18375745Y-24680366D01*
X18375744Y-24680367D01*
X18219732Y-24734958D01*
X18219730Y-24734959D01*
X18079776Y-24822897D01*
X17962897Y-24939776D01*
X17874959Y-25079730D01*
X17874958Y-25079732D01*
X17871443Y-25089777D01*
X17820366Y-25235748D01*
X17801859Y-25400000D01*
X17820366Y-25564252D01*
X17833944Y-25603056D01*
X17874957Y-25720266D01*
X17874958Y-25720267D01*
X17912187Y-25779517D01*
X17931500Y-25846552D01*
X17931500Y-26311863D01*
X17930422Y-26328309D01*
X17926250Y-26359999D01*
X17926250Y-26360002D01*
X17930961Y-26395789D01*
X17930962Y-26395797D01*
X17939309Y-26459201D01*
X17947161Y-26518849D01*
X18008475Y-26666874D01*
X18008480Y-26666882D01*
X18081524Y-26762074D01*
X18081525Y-26762074D01*
X18106014Y-26793988D01*
X18131378Y-26813451D01*
X18143769Y-26824318D01*
X18915681Y-27596230D01*
X18926547Y-27608619D01*
X18946013Y-27633987D01*
X18974658Y-27655967D01*
X18974695Y-27655997D01*
X19032041Y-27700000D01*
X19073118Y-27731519D01*
X19073125Y-27731524D01*
X19221150Y-27792838D01*
X19340115Y-27808500D01*
X19340122Y-27808500D01*
X19380000Y-27813750D01*
X19411691Y-27809577D01*
X19428137Y-27808500D01*
X19768629Y-27808500D01*
X19836750Y-27828502D01*
X19883243Y-27882158D01*
X19893907Y-27921031D01*
X19895826Y-27938880D01*
X19895826Y-27965817D01*
X19892000Y-28001398D01*
X19892000Y-28043329D01*
X19871998Y-28111450D01*
X19818342Y-28157943D01*
X19814217Y-28159738D01*
X19791564Y-28169121D01*
X19757458Y-28177919D01*
X19735754Y-28180364D01*
X19735741Y-28180367D01*
X19579732Y-28234958D01*
X19579730Y-28234959D01*
X19439776Y-28322897D01*
X19322897Y-28439776D01*
X19234959Y-28579730D01*
X19234958Y-28579732D01*
X19219854Y-28622897D01*
X19180366Y-28735748D01*
X19161859Y-28900000D01*
X19180366Y-29064252D01*
X19180367Y-29064254D01*
X19234958Y-29220267D01*
X19234959Y-29220269D01*
X19322897Y-29360223D01*
X19439776Y-29477102D01*
X19558081Y-29551437D01*
X19579733Y-29565042D01*
X19735748Y-29619634D01*
X19823221Y-29629490D01*
X19888672Y-29656993D01*
X19928865Y-29715517D01*
X19931037Y-29786480D01*
X19898207Y-29843791D01*
X19892000Y-29849998D01*
X19892000Y-29898601D01*
X19895826Y-29934181D01*
X19895826Y-29961116D01*
X19891501Y-30001348D01*
X19891500Y-30001369D01*
X19891500Y-30398630D01*
X19891501Y-30398654D01*
X19895573Y-30436534D01*
X19895573Y-30463466D01*
X19891501Y-30501345D01*
X19891500Y-30501369D01*
X19891500Y-30822399D01*
X19871498Y-30890520D01*
X19817842Y-30937013D01*
X19779609Y-30947607D01*
X19766737Y-30949057D01*
X19710748Y-30955366D01*
X19710745Y-30955366D01*
X19710744Y-30955367D01*
X19554732Y-31009958D01*
X19554730Y-31009959D01*
X19414776Y-31097897D01*
X19297897Y-31214776D01*
X19209959Y-31354730D01*
X19209958Y-31354732D01*
X19209958Y-31354733D01*
X19155366Y-31510748D01*
X19136859Y-31675000D01*
X19155366Y-31839252D01*
X19155367Y-31839254D01*
X19177964Y-31903833D01*
X19181584Y-31974737D01*
X19148131Y-32034543D01*
X19052897Y-32129777D01*
X18964959Y-32269730D01*
X18964958Y-32269732D01*
X18919852Y-32398638D01*
X18910366Y-32425748D01*
X18891859Y-32590000D01*
X18910366Y-32754252D01*
X18910367Y-32754254D01*
X18964958Y-32910267D01*
X18964959Y-32910269D01*
X19052897Y-33050223D01*
X19169776Y-33167102D01*
X19285437Y-33239776D01*
X19309733Y-33255042D01*
X19406346Y-33288848D01*
X19465744Y-33309633D01*
X19472645Y-33311208D01*
X19472574Y-33311518D01*
X19487931Y-33315351D01*
X19487983Y-33315152D01*
X19495662Y-33317123D01*
X19495663Y-33317124D01*
X19516437Y-33322457D01*
X19535135Y-33328859D01*
X19554823Y-33337379D01*
X19600454Y-33344606D01*
X19612050Y-33347006D01*
X19656812Y-33358500D01*
X19678258Y-33358500D01*
X19697968Y-33360050D01*
X19719151Y-33363406D01*
X19754622Y-33360052D01*
X19824319Y-33373553D01*
X19875657Y-33422594D01*
X19892331Y-33491605D01*
X19891759Y-33498942D01*
X19891501Y-33501340D01*
X19891500Y-33501369D01*
X19891500Y-33898649D01*
X19898009Y-33959196D01*
X19898011Y-33959204D01*
X19949110Y-34096202D01*
X19949112Y-34096207D01*
X20036738Y-34213261D01*
X20153792Y-34300887D01*
X20153794Y-34300888D01*
X20153796Y-34300889D01*
X20174202Y-34308500D01*
X20290795Y-34351988D01*
X20290803Y-34351990D01*
X20351350Y-34358499D01*
X20351355Y-34358499D01*
X20351362Y-34358500D01*
X20351368Y-34358500D01*
X21748632Y-34358500D01*
X21748638Y-34358500D01*
X21748645Y-34358499D01*
X21748649Y-34358499D01*
X21809196Y-34351990D01*
X21809199Y-34351989D01*
X21809201Y-34351989D01*
X21850088Y-34336739D01*
X21904497Y-34316445D01*
X21948530Y-34308500D01*
X24113447Y-34308500D01*
X24180483Y-34327813D01*
X24239733Y-34365042D01*
X24395748Y-34419634D01*
X24560000Y-34438141D01*
X24724252Y-34419634D01*
X24880267Y-34365042D01*
X25020223Y-34277102D01*
X25137102Y-34160223D01*
X25225042Y-34020267D01*
X25279634Y-33864252D01*
X25298141Y-33700000D01*
X25279634Y-33535748D01*
X25225042Y-33379733D01*
X25180996Y-33309634D01*
X25137102Y-33239776D01*
X25020223Y-33122897D01*
X24880269Y-33034959D01*
X24880267Y-33034958D01*
X24784255Y-33001362D01*
X24724252Y-32980366D01*
X24560000Y-32961859D01*
X24395748Y-32980366D01*
X24395745Y-32980366D01*
X24395745Y-32980367D01*
X24239732Y-33034958D01*
X24239730Y-33034959D01*
X24180483Y-33072187D01*
X24113447Y-33091500D01*
X22331371Y-33091500D01*
X22263250Y-33071498D01*
X22216757Y-33017842D01*
X22206093Y-32978973D01*
X22205882Y-32977013D01*
X22204426Y-32963468D01*
X22204426Y-32936530D01*
X22208500Y-32898638D01*
X22208500Y-32501362D01*
X22204426Y-32463468D01*
X22204426Y-32436531D01*
X22206093Y-32421027D01*
X22233265Y-32355435D01*
X22291585Y-32314946D01*
X22331371Y-32308500D01*
X32810115Y-32308500D01*
X38421863Y-32308500D01*
X38438308Y-32309577D01*
X38470000Y-32313750D01*
X38509880Y-32308500D01*
X38509885Y-32308500D01*
X38626154Y-32293193D01*
X38626154Y-32293196D01*
X38626167Y-32293191D01*
X38628851Y-32292838D01*
X38776876Y-32231524D01*
X38872072Y-32158477D01*
X38872072Y-32158476D01*
X38880291Y-32152170D01*
X38880300Y-32152162D01*
X38903987Y-32133987D01*
X38923457Y-32108611D01*
X38934309Y-32096238D01*
X43945144Y-27085405D01*
X44007456Y-27051379D01*
X44034239Y-27048500D01*
X44125487Y-27048500D01*
X44312288Y-27008794D01*
X44486752Y-26931118D01*
X44641253Y-26818866D01*
X44663654Y-26793987D01*
X44769034Y-26676951D01*
X44769035Y-26676949D01*
X44769040Y-26676944D01*
X44864527Y-26511556D01*
X44923542Y-26329928D01*
X44943504Y-26140000D01*
X44923542Y-25950072D01*
X44864527Y-25768444D01*
X44864526Y-25768443D01*
X44862900Y-25763437D01*
X44860872Y-25692469D01*
X44897535Y-25631671D01*
X44961247Y-25600345D01*
X44982733Y-25598500D01*
X48511863Y-25598500D01*
X48528308Y-25599577D01*
X48560000Y-25603750D01*
X48599880Y-25598500D01*
X48599885Y-25598500D01*
X48688822Y-25586790D01*
X48699457Y-25585391D01*
X48699457Y-25585392D01*
X48699461Y-25585390D01*
X48718851Y-25582838D01*
X48866876Y-25521524D01*
X48962072Y-25448477D01*
X48962072Y-25448476D01*
X48970286Y-25442174D01*
X48970293Y-25442167D01*
X48993987Y-25423987D01*
X49013461Y-25398607D01*
X49024304Y-25386244D01*
X49766238Y-24644309D01*
X49778624Y-24633448D01*
X49803987Y-24613987D01*
X49822162Y-24590300D01*
X49822170Y-24590291D01*
X49828477Y-24582072D01*
X49901524Y-24486876D01*
X49962838Y-24338851D01*
X49967836Y-24300889D01*
X49978500Y-24219885D01*
X49978500Y-24219879D01*
X49983750Y-24180000D01*
X49979577Y-24148308D01*
X49978500Y-24131863D01*
X49978500Y-15948185D01*
X49979578Y-15931738D01*
X49983750Y-15900050D01*
X49978500Y-15860172D01*
X49978500Y-15860165D01*
X49962838Y-15741200D01*
X49918866Y-15635042D01*
X49918866Y-15635041D01*
X49901525Y-15593174D01*
X49825966Y-15494705D01*
X49825957Y-15494694D01*
X49803988Y-15466064D01*
X49778618Y-15446596D01*
X49766229Y-15435730D01*
X46924265Y-12593766D01*
X46913397Y-12581374D01*
X46893937Y-12556013D01*
X46862024Y-12531525D01*
X46862024Y-12531524D01*
X46766832Y-12458480D01*
X46766824Y-12458475D01*
X46618799Y-12397161D01*
X46589594Y-12393317D01*
X46499835Y-12381500D01*
X46499833Y-12381500D01*
X46495746Y-12380962D01*
X46495746Y-12380961D01*
X46495739Y-12380961D01*
X46459952Y-12376250D01*
X46459950Y-12376250D01*
X46428259Y-12380422D01*
X46411813Y-12381500D01*
X44126553Y-12381500D01*
X44059517Y-12362187D01*
X44000269Y-12324959D01*
X44000267Y-12324958D01*
X43946022Y-12305977D01*
X43844252Y-12270366D01*
X43680000Y-12251859D01*
X43515748Y-12270366D01*
X43515745Y-12270366D01*
X43515745Y-12270367D01*
X43359732Y-12324958D01*
X43359730Y-12324959D01*
X43219776Y-12412897D01*
X43102897Y-12529776D01*
X43014959Y-12669730D01*
X43014958Y-12669732D01*
X42970385Y-12797115D01*
X42929007Y-12854807D01*
X42863007Y-12880969D01*
X42851456Y-12881500D01*
X42187412Y-12881500D01*
X42119291Y-12861498D01*
X42098317Y-12844595D01*
X42072488Y-12818766D01*
X42061620Y-12806374D01*
X42054515Y-12797115D01*
X42042160Y-12781013D01*
X42010247Y-12756525D01*
X42010247Y-12756524D01*
X41915055Y-12683480D01*
X41915047Y-12683475D01*
X41767024Y-12622162D01*
X41747631Y-12619607D01*
X41747631Y-12619608D01*
X41643976Y-12605962D01*
X41643949Y-12605959D01*
X41608176Y-12601250D01*
X41608173Y-12601250D01*
X41576482Y-12605422D01*
X41560036Y-12606500D01*
X41179963Y-12606500D01*
X41163517Y-12605422D01*
X41131827Y-12601250D01*
X41131825Y-12601250D01*
X41096039Y-12605961D01*
X41096030Y-12605961D01*
X41096031Y-12605962D01*
X41091944Y-12606500D01*
X41091942Y-12606500D01*
X41062465Y-12610380D01*
X40972978Y-12622161D01*
X40896495Y-12653842D01*
X40896494Y-12653842D01*
X40824954Y-12683473D01*
X40731441Y-12755229D01*
X40731255Y-12755370D01*
X40695014Y-12783181D01*
X40628794Y-12808784D01*
X40559245Y-12794521D01*
X40529212Y-12772316D01*
X39770662Y-12013766D01*
X39759794Y-12001374D01*
X39740334Y-11976013D01*
X39708421Y-11951525D01*
X39708421Y-11951524D01*
X39613229Y-11878480D01*
X39613221Y-11878475D01*
X39465198Y-11817162D01*
X39445805Y-11814607D01*
X39445805Y-11814608D01*
X39342150Y-11800962D01*
X39342123Y-11800959D01*
X39306350Y-11796250D01*
X39306347Y-11796250D01*
X39274656Y-11800422D01*
X39258210Y-11801500D01*
X20213163Y-11801500D01*
X20196717Y-11800422D01*
X20165026Y-11796250D01*
X20165023Y-11796250D01*
X20129249Y-11800959D01*
X20129225Y-11800961D01*
X20025567Y-11814608D01*
X20025566Y-11814607D01*
X20006177Y-11817161D01*
X20006173Y-11817162D01*
X19858151Y-11878475D01*
X19858143Y-11878480D01*
X19777793Y-11940135D01*
X19777794Y-11940136D01*
X19731037Y-11976014D01*
X19711568Y-12001385D01*
X19700705Y-12013772D01*
X19623593Y-12090883D01*
X19561284Y-12124907D01*
X19490468Y-12119843D01*
X19433632Y-12077297D01*
X19408821Y-12010777D01*
X19408500Y-12001787D01*
X19408500Y-11351367D01*
X19408499Y-11351350D01*
X19401990Y-11290803D01*
X19401988Y-11290795D01*
X19350889Y-11153797D01*
X19350887Y-11153792D01*
X19263261Y-11036738D01*
X19146207Y-10949112D01*
X19146202Y-10949110D01*
X19009204Y-10898011D01*
X19009196Y-10898009D01*
X18948649Y-10891500D01*
X18948638Y-10891500D01*
X16651362Y-10891500D01*
X16651350Y-10891500D01*
X16590803Y-10898009D01*
X16590795Y-10898011D01*
X16453797Y-10949110D01*
X16453792Y-10949112D01*
X16336738Y-11036738D01*
X16249112Y-11153792D01*
X16249110Y-11153797D01*
X16198011Y-11290795D01*
X16198009Y-11290803D01*
X16191500Y-11351350D01*
X16191500Y-13248649D01*
X14050500Y-13248649D01*
X14050500Y-9126500D01*
X14070502Y-9058379D01*
X14124158Y-9011886D01*
X14176500Y-9000500D01*
X53923500Y-9000500D01*
X53991621Y-9020502D01*
G37*
%TD.AperFunction*%
%TD*%
M02*
