%TF.GenerationSoftware,KiCad,Pcbnew,7.0.11-7.0.11~ubuntu22.04.1*%
%TF.CreationDate,2024-12-10T04:55:34+01:00*%
%TF.ProjectId,40_to_WP27D-P050VA3,34305f74-6f5f-4575-9032-37442d503035,rev?*%
%TF.SameCoordinates,Original*%
%TF.FileFunction,Drillmap*%
%TF.FilePolarity,Positive*%
%FSLAX45Y45*%
G04 Gerber Fmt 4.5, Leading zero omitted, Abs format (unit mm)*
G04 Created by KiCad (PCBNEW 7.0.11-7.0.11~ubuntu22.04.1) date 2024-12-10 04:55:34*
%MOMM*%
%LPD*%
G01*
G04 APERTURE LIST*
%ADD10C,0.100000*%
%ADD11C,0.200000*%
G04 APERTURE END LIST*
D10*
X1405000Y-900000D02*
X5405000Y-900000D01*
X5405000Y-3900000D01*
X1405000Y-3900000D01*
X1405000Y-900000D01*
D11*
D10*
X1997500Y-3255000D02*
X2022500Y-3280000D01*
X2022500Y-3255000D02*
X1997500Y-3280000D01*
X2117500Y-2787500D02*
X2142500Y-2812500D01*
X2142500Y-2787500D02*
X2117500Y-2812500D01*
X2137500Y-2967500D02*
X2162500Y-2992500D01*
X2162500Y-2967500D02*
X2137500Y-2992500D01*
X2402500Y-2302500D02*
X2427500Y-2327500D01*
X2427500Y-2302500D02*
X2402500Y-2327500D01*
X2430000Y-2120000D02*
X2455000Y-2145000D01*
X2455000Y-2120000D02*
X2430000Y-2145000D01*
X3127500Y-2975000D02*
X3152500Y-3000000D01*
X3152500Y-2975000D02*
X3127500Y-3000000D01*
X3150000Y-3115000D02*
X3175000Y-3140000D01*
X3175000Y-3115000D02*
X3150000Y-3140000D01*
X3315000Y-2285000D02*
X3340000Y-2310000D01*
X3340000Y-2285000D02*
X3315000Y-2310000D01*
X3525000Y-1815000D02*
X3550000Y-1840000D01*
X3550000Y-1815000D02*
X3525000Y-1840000D01*
X3555000Y-1465000D02*
X3580000Y-1490000D01*
X3580000Y-1465000D02*
X3555000Y-1490000D01*
X3570000Y-3080000D02*
X3595000Y-3105000D01*
X3595000Y-3080000D02*
X3570000Y-3105000D01*
X3592500Y-1572500D02*
X3617500Y-1597500D01*
X3617500Y-1572500D02*
X3592500Y-1597500D01*
X3612500Y-2705655D02*
X3637500Y-2730655D01*
X3637500Y-2705655D02*
X3612500Y-2730655D01*
X3637653Y-2249130D02*
X3662653Y-2274130D01*
X3662653Y-2249130D02*
X3637653Y-2274130D01*
X3665000Y-2920000D02*
X3690000Y-2945000D01*
X3690000Y-2920000D02*
X3665000Y-2945000D01*
X3669298Y-1576824D02*
X3694298Y-1601824D01*
X3694298Y-1576824D02*
X3669298Y-1601824D01*
X3710000Y-1633775D02*
X3735000Y-1658775D01*
X3735000Y-1633775D02*
X3710000Y-1658775D01*
X3713735Y-1714356D02*
X3738735Y-1739356D01*
X3738735Y-1714356D02*
X3713735Y-1739356D01*
X3737500Y-2950000D02*
X3762500Y-2975000D01*
X3762500Y-2950000D02*
X3737500Y-2975000D01*
X3795000Y-2362500D02*
X3820000Y-2387500D01*
X3820000Y-2362500D02*
X3795000Y-2387500D01*
X3817500Y-2677779D02*
X3842500Y-2702779D01*
X3842500Y-2677779D02*
X3817500Y-2702779D01*
X3820000Y-2237500D02*
X3845000Y-2262500D01*
X3845000Y-2237500D02*
X3820000Y-2262500D01*
X3842500Y-2125000D02*
X3867500Y-2150000D01*
X3867500Y-2125000D02*
X3842500Y-2150000D01*
X3852500Y-2531500D02*
X3877500Y-2556500D01*
X3877500Y-2531500D02*
X3852500Y-2556500D01*
X3875000Y-2185000D02*
X3900000Y-2210000D01*
X3900000Y-2185000D02*
X3875000Y-2210000D01*
X3875319Y-2597676D02*
X3900319Y-2622676D01*
X3900319Y-2597676D02*
X3875319Y-2622676D01*
X3934388Y-1748703D02*
X3959388Y-1773703D01*
X3959388Y-1748703D02*
X3934388Y-1773703D01*
X4003844Y-1739987D02*
X4028844Y-1764987D01*
X4028844Y-1739987D02*
X4003844Y-1764987D01*
X4052500Y-2177500D02*
X4077500Y-2202500D01*
X4077500Y-2177500D02*
X4052500Y-2202500D01*
X4054277Y-1787386D02*
X4079277Y-1812386D01*
X4079277Y-1787386D02*
X4054277Y-1812386D01*
X4135000Y-2007500D02*
X4160000Y-2032500D01*
X4160000Y-2007500D02*
X4135000Y-2032500D01*
X4168622Y-1741961D02*
X4193622Y-1766961D01*
X4193622Y-1741961D02*
X4168622Y-1766961D01*
X4237011Y-1756891D02*
X4262011Y-1781891D01*
X4262011Y-1756891D02*
X4237011Y-1781891D01*
X4322500Y-2180000D02*
X4347500Y-2205000D01*
X4347500Y-2180000D02*
X4322500Y-2205000D01*
X4346775Y-1804682D02*
X4371775Y-1829682D01*
X4371775Y-1804682D02*
X4346775Y-1829682D01*
X4557500Y-1827500D02*
X4582500Y-1852500D01*
X4582500Y-1827500D02*
X4557500Y-1852500D01*
X4557500Y-2125000D02*
X4582500Y-2150000D01*
X4582500Y-2125000D02*
X4557500Y-2150000D01*
X4597500Y-2422500D02*
X4622500Y-2447500D01*
X4622500Y-2422500D02*
X4597500Y-2447500D01*
X4665000Y-1832500D02*
X4690000Y-1857500D01*
X4690000Y-1832500D02*
X4665000Y-1857500D01*
D11*
X1660777Y-4216484D02*
X1660777Y-4016484D01*
X1660777Y-4016484D02*
X1708396Y-4016484D01*
X1708396Y-4016484D02*
X1736967Y-4026008D01*
X1736967Y-4026008D02*
X1756015Y-4045055D01*
X1756015Y-4045055D02*
X1765539Y-4064103D01*
X1765539Y-4064103D02*
X1775062Y-4102198D01*
X1775062Y-4102198D02*
X1775062Y-4130769D01*
X1775062Y-4130769D02*
X1765539Y-4168865D01*
X1765539Y-4168865D02*
X1756015Y-4187912D01*
X1756015Y-4187912D02*
X1736967Y-4206960D01*
X1736967Y-4206960D02*
X1708396Y-4216484D01*
X1708396Y-4216484D02*
X1660777Y-4216484D01*
X1860777Y-4216484D02*
X1860777Y-4083150D01*
X1860777Y-4121246D02*
X1870301Y-4102198D01*
X1870301Y-4102198D02*
X1879824Y-4092674D01*
X1879824Y-4092674D02*
X1898872Y-4083150D01*
X1898872Y-4083150D02*
X1917920Y-4083150D01*
X1984586Y-4216484D02*
X1984586Y-4083150D01*
X1984586Y-4016484D02*
X1975062Y-4026008D01*
X1975062Y-4026008D02*
X1984586Y-4035531D01*
X1984586Y-4035531D02*
X1994110Y-4026008D01*
X1994110Y-4026008D02*
X1984586Y-4016484D01*
X1984586Y-4016484D02*
X1984586Y-4035531D01*
X2108396Y-4216484D02*
X2089348Y-4206960D01*
X2089348Y-4206960D02*
X2079824Y-4187912D01*
X2079824Y-4187912D02*
X2079824Y-4016484D01*
X2213158Y-4216484D02*
X2194110Y-4206960D01*
X2194110Y-4206960D02*
X2184586Y-4187912D01*
X2184586Y-4187912D02*
X2184586Y-4016484D01*
X2441729Y-4216484D02*
X2441729Y-4016484D01*
X2441729Y-4016484D02*
X2508396Y-4159341D01*
X2508396Y-4159341D02*
X2575063Y-4016484D01*
X2575063Y-4016484D02*
X2575063Y-4216484D01*
X2756015Y-4216484D02*
X2756015Y-4111722D01*
X2756015Y-4111722D02*
X2746491Y-4092674D01*
X2746491Y-4092674D02*
X2727444Y-4083150D01*
X2727444Y-4083150D02*
X2689348Y-4083150D01*
X2689348Y-4083150D02*
X2670301Y-4092674D01*
X2756015Y-4206960D02*
X2736967Y-4216484D01*
X2736967Y-4216484D02*
X2689348Y-4216484D01*
X2689348Y-4216484D02*
X2670301Y-4206960D01*
X2670301Y-4206960D02*
X2660777Y-4187912D01*
X2660777Y-4187912D02*
X2660777Y-4168865D01*
X2660777Y-4168865D02*
X2670301Y-4149817D01*
X2670301Y-4149817D02*
X2689348Y-4140293D01*
X2689348Y-4140293D02*
X2736967Y-4140293D01*
X2736967Y-4140293D02*
X2756015Y-4130769D01*
X2851253Y-4083150D02*
X2851253Y-4283150D01*
X2851253Y-4092674D02*
X2870301Y-4083150D01*
X2870301Y-4083150D02*
X2908396Y-4083150D01*
X2908396Y-4083150D02*
X2927443Y-4092674D01*
X2927443Y-4092674D02*
X2936967Y-4102198D01*
X2936967Y-4102198D02*
X2946491Y-4121246D01*
X2946491Y-4121246D02*
X2946491Y-4178388D01*
X2946491Y-4178388D02*
X2936967Y-4197436D01*
X2936967Y-4197436D02*
X2927443Y-4206960D01*
X2927443Y-4206960D02*
X2908396Y-4216484D01*
X2908396Y-4216484D02*
X2870301Y-4216484D01*
X2870301Y-4216484D02*
X2851253Y-4206960D01*
X3032205Y-4197436D02*
X3041729Y-4206960D01*
X3041729Y-4206960D02*
X3032205Y-4216484D01*
X3032205Y-4216484D02*
X3022682Y-4206960D01*
X3022682Y-4206960D02*
X3032205Y-4197436D01*
X3032205Y-4197436D02*
X3032205Y-4216484D01*
X3032205Y-4092674D02*
X3041729Y-4102198D01*
X3041729Y-4102198D02*
X3032205Y-4111722D01*
X3032205Y-4111722D02*
X3022682Y-4102198D01*
X3022682Y-4102198D02*
X3032205Y-4092674D01*
X3032205Y-4092674D02*
X3032205Y-4111722D01*
D10*
X1375000Y-4532500D02*
X1400000Y-4557500D01*
X1400000Y-4532500D02*
X1375000Y-4557500D01*
D11*
X1698872Y-4436484D02*
X1717920Y-4436484D01*
X1717920Y-4436484D02*
X1736967Y-4446008D01*
X1736967Y-4446008D02*
X1746491Y-4455531D01*
X1746491Y-4455531D02*
X1756015Y-4474579D01*
X1756015Y-4474579D02*
X1765539Y-4512674D01*
X1765539Y-4512674D02*
X1765539Y-4560293D01*
X1765539Y-4560293D02*
X1756015Y-4598389D01*
X1756015Y-4598389D02*
X1746491Y-4617436D01*
X1746491Y-4617436D02*
X1736967Y-4626960D01*
X1736967Y-4626960D02*
X1717920Y-4636484D01*
X1717920Y-4636484D02*
X1698872Y-4636484D01*
X1698872Y-4636484D02*
X1679824Y-4626960D01*
X1679824Y-4626960D02*
X1670301Y-4617436D01*
X1670301Y-4617436D02*
X1660777Y-4598389D01*
X1660777Y-4598389D02*
X1651253Y-4560293D01*
X1651253Y-4560293D02*
X1651253Y-4512674D01*
X1651253Y-4512674D02*
X1660777Y-4474579D01*
X1660777Y-4474579D02*
X1670301Y-4455531D01*
X1670301Y-4455531D02*
X1679824Y-4446008D01*
X1679824Y-4446008D02*
X1698872Y-4436484D01*
X1851253Y-4617436D02*
X1860777Y-4626960D01*
X1860777Y-4626960D02*
X1851253Y-4636484D01*
X1851253Y-4636484D02*
X1841729Y-4626960D01*
X1841729Y-4626960D02*
X1851253Y-4617436D01*
X1851253Y-4617436D02*
X1851253Y-4636484D01*
X1936967Y-4455531D02*
X1946491Y-4446008D01*
X1946491Y-4446008D02*
X1965539Y-4436484D01*
X1965539Y-4436484D02*
X2013158Y-4436484D01*
X2013158Y-4436484D02*
X2032205Y-4446008D01*
X2032205Y-4446008D02*
X2041729Y-4455531D01*
X2041729Y-4455531D02*
X2051253Y-4474579D01*
X2051253Y-4474579D02*
X2051253Y-4493627D01*
X2051253Y-4493627D02*
X2041729Y-4522198D01*
X2041729Y-4522198D02*
X1927443Y-4636484D01*
X1927443Y-4636484D02*
X2051253Y-4636484D01*
X2232205Y-4436484D02*
X2136967Y-4436484D01*
X2136967Y-4436484D02*
X2127444Y-4531722D01*
X2127444Y-4531722D02*
X2136967Y-4522198D01*
X2136967Y-4522198D02*
X2156015Y-4512674D01*
X2156015Y-4512674D02*
X2203634Y-4512674D01*
X2203634Y-4512674D02*
X2222682Y-4522198D01*
X2222682Y-4522198D02*
X2232205Y-4531722D01*
X2232205Y-4531722D02*
X2241729Y-4550770D01*
X2241729Y-4550770D02*
X2241729Y-4598389D01*
X2241729Y-4598389D02*
X2232205Y-4617436D01*
X2232205Y-4617436D02*
X2222682Y-4626960D01*
X2222682Y-4626960D02*
X2203634Y-4636484D01*
X2203634Y-4636484D02*
X2156015Y-4636484D01*
X2156015Y-4636484D02*
X2136967Y-4626960D01*
X2136967Y-4626960D02*
X2127444Y-4617436D01*
X2365539Y-4436484D02*
X2384586Y-4436484D01*
X2384586Y-4436484D02*
X2403634Y-4446008D01*
X2403634Y-4446008D02*
X2413158Y-4455531D01*
X2413158Y-4455531D02*
X2422682Y-4474579D01*
X2422682Y-4474579D02*
X2432205Y-4512674D01*
X2432205Y-4512674D02*
X2432205Y-4560293D01*
X2432205Y-4560293D02*
X2422682Y-4598389D01*
X2422682Y-4598389D02*
X2413158Y-4617436D01*
X2413158Y-4617436D02*
X2403634Y-4626960D01*
X2403634Y-4626960D02*
X2384586Y-4636484D01*
X2384586Y-4636484D02*
X2365539Y-4636484D01*
X2365539Y-4636484D02*
X2346491Y-4626960D01*
X2346491Y-4626960D02*
X2336967Y-4617436D01*
X2336967Y-4617436D02*
X2327444Y-4598389D01*
X2327444Y-4598389D02*
X2317920Y-4560293D01*
X2317920Y-4560293D02*
X2317920Y-4512674D01*
X2317920Y-4512674D02*
X2327444Y-4474579D01*
X2327444Y-4474579D02*
X2336967Y-4455531D01*
X2336967Y-4455531D02*
X2346491Y-4446008D01*
X2346491Y-4446008D02*
X2365539Y-4436484D01*
X2517920Y-4636484D02*
X2517920Y-4503150D01*
X2517920Y-4522198D02*
X2527444Y-4512674D01*
X2527444Y-4512674D02*
X2546491Y-4503150D01*
X2546491Y-4503150D02*
X2575063Y-4503150D01*
X2575063Y-4503150D02*
X2594110Y-4512674D01*
X2594110Y-4512674D02*
X2603634Y-4531722D01*
X2603634Y-4531722D02*
X2603634Y-4636484D01*
X2603634Y-4531722D02*
X2613158Y-4512674D01*
X2613158Y-4512674D02*
X2632205Y-4503150D01*
X2632205Y-4503150D02*
X2660777Y-4503150D01*
X2660777Y-4503150D02*
X2679825Y-4512674D01*
X2679825Y-4512674D02*
X2689348Y-4531722D01*
X2689348Y-4531722D02*
X2689348Y-4636484D01*
X2784586Y-4636484D02*
X2784586Y-4503150D01*
X2784586Y-4522198D02*
X2794110Y-4512674D01*
X2794110Y-4512674D02*
X2813158Y-4503150D01*
X2813158Y-4503150D02*
X2841729Y-4503150D01*
X2841729Y-4503150D02*
X2860777Y-4512674D01*
X2860777Y-4512674D02*
X2870301Y-4531722D01*
X2870301Y-4531722D02*
X2870301Y-4636484D01*
X2870301Y-4531722D02*
X2879824Y-4512674D01*
X2879824Y-4512674D02*
X2898872Y-4503150D01*
X2898872Y-4503150D02*
X2927443Y-4503150D01*
X2927443Y-4503150D02*
X2946491Y-4512674D01*
X2946491Y-4512674D02*
X2956015Y-4531722D01*
X2956015Y-4531722D02*
X2956015Y-4636484D01*
X3346491Y-4426960D02*
X3175063Y-4684103D01*
X3603634Y-4436484D02*
X3622682Y-4436484D01*
X3622682Y-4436484D02*
X3641729Y-4446008D01*
X3641729Y-4446008D02*
X3651253Y-4455531D01*
X3651253Y-4455531D02*
X3660777Y-4474579D01*
X3660777Y-4474579D02*
X3670301Y-4512674D01*
X3670301Y-4512674D02*
X3670301Y-4560293D01*
X3670301Y-4560293D02*
X3660777Y-4598389D01*
X3660777Y-4598389D02*
X3651253Y-4617436D01*
X3651253Y-4617436D02*
X3641729Y-4626960D01*
X3641729Y-4626960D02*
X3622682Y-4636484D01*
X3622682Y-4636484D02*
X3603634Y-4636484D01*
X3603634Y-4636484D02*
X3584586Y-4626960D01*
X3584586Y-4626960D02*
X3575063Y-4617436D01*
X3575063Y-4617436D02*
X3565539Y-4598389D01*
X3565539Y-4598389D02*
X3556015Y-4560293D01*
X3556015Y-4560293D02*
X3556015Y-4512674D01*
X3556015Y-4512674D02*
X3565539Y-4474579D01*
X3565539Y-4474579D02*
X3575063Y-4455531D01*
X3575063Y-4455531D02*
X3584586Y-4446008D01*
X3584586Y-4446008D02*
X3603634Y-4436484D01*
X3756015Y-4617436D02*
X3765539Y-4626960D01*
X3765539Y-4626960D02*
X3756015Y-4636484D01*
X3756015Y-4636484D02*
X3746491Y-4626960D01*
X3746491Y-4626960D02*
X3756015Y-4617436D01*
X3756015Y-4617436D02*
X3756015Y-4636484D01*
X3889348Y-4436484D02*
X3908396Y-4436484D01*
X3908396Y-4436484D02*
X3927444Y-4446008D01*
X3927444Y-4446008D02*
X3936967Y-4455531D01*
X3936967Y-4455531D02*
X3946491Y-4474579D01*
X3946491Y-4474579D02*
X3956015Y-4512674D01*
X3956015Y-4512674D02*
X3956015Y-4560293D01*
X3956015Y-4560293D02*
X3946491Y-4598389D01*
X3946491Y-4598389D02*
X3936967Y-4617436D01*
X3936967Y-4617436D02*
X3927444Y-4626960D01*
X3927444Y-4626960D02*
X3908396Y-4636484D01*
X3908396Y-4636484D02*
X3889348Y-4636484D01*
X3889348Y-4636484D02*
X3870301Y-4626960D01*
X3870301Y-4626960D02*
X3860777Y-4617436D01*
X3860777Y-4617436D02*
X3851253Y-4598389D01*
X3851253Y-4598389D02*
X3841729Y-4560293D01*
X3841729Y-4560293D02*
X3841729Y-4512674D01*
X3841729Y-4512674D02*
X3851253Y-4474579D01*
X3851253Y-4474579D02*
X3860777Y-4455531D01*
X3860777Y-4455531D02*
X3870301Y-4446008D01*
X3870301Y-4446008D02*
X3889348Y-4436484D01*
X4079825Y-4436484D02*
X4098872Y-4436484D01*
X4098872Y-4436484D02*
X4117920Y-4446008D01*
X4117920Y-4446008D02*
X4127444Y-4455531D01*
X4127444Y-4455531D02*
X4136967Y-4474579D01*
X4136967Y-4474579D02*
X4146491Y-4512674D01*
X4146491Y-4512674D02*
X4146491Y-4560293D01*
X4146491Y-4560293D02*
X4136967Y-4598389D01*
X4136967Y-4598389D02*
X4127444Y-4617436D01*
X4127444Y-4617436D02*
X4117920Y-4626960D01*
X4117920Y-4626960D02*
X4098872Y-4636484D01*
X4098872Y-4636484D02*
X4079825Y-4636484D01*
X4079825Y-4636484D02*
X4060777Y-4626960D01*
X4060777Y-4626960D02*
X4051253Y-4617436D01*
X4051253Y-4617436D02*
X4041729Y-4598389D01*
X4041729Y-4598389D02*
X4032206Y-4560293D01*
X4032206Y-4560293D02*
X4032206Y-4512674D01*
X4032206Y-4512674D02*
X4041729Y-4474579D01*
X4041729Y-4474579D02*
X4051253Y-4455531D01*
X4051253Y-4455531D02*
X4060777Y-4446008D01*
X4060777Y-4446008D02*
X4079825Y-4436484D01*
X4241729Y-4636484D02*
X4279825Y-4636484D01*
X4279825Y-4636484D02*
X4298872Y-4626960D01*
X4298872Y-4626960D02*
X4308396Y-4617436D01*
X4308396Y-4617436D02*
X4327444Y-4588865D01*
X4327444Y-4588865D02*
X4336968Y-4550770D01*
X4336968Y-4550770D02*
X4336968Y-4474579D01*
X4336968Y-4474579D02*
X4327444Y-4455531D01*
X4327444Y-4455531D02*
X4317920Y-4446008D01*
X4317920Y-4446008D02*
X4298872Y-4436484D01*
X4298872Y-4436484D02*
X4260777Y-4436484D01*
X4260777Y-4436484D02*
X4241729Y-4446008D01*
X4241729Y-4446008D02*
X4232206Y-4455531D01*
X4232206Y-4455531D02*
X4222682Y-4474579D01*
X4222682Y-4474579D02*
X4222682Y-4522198D01*
X4222682Y-4522198D02*
X4232206Y-4541246D01*
X4232206Y-4541246D02*
X4241729Y-4550770D01*
X4241729Y-4550770D02*
X4260777Y-4560293D01*
X4260777Y-4560293D02*
X4298872Y-4560293D01*
X4298872Y-4560293D02*
X4317920Y-4550770D01*
X4317920Y-4550770D02*
X4327444Y-4541246D01*
X4327444Y-4541246D02*
X4336968Y-4522198D01*
X4451253Y-4522198D02*
X4432206Y-4512674D01*
X4432206Y-4512674D02*
X4422682Y-4503150D01*
X4422682Y-4503150D02*
X4413158Y-4484103D01*
X4413158Y-4484103D02*
X4413158Y-4474579D01*
X4413158Y-4474579D02*
X4422682Y-4455531D01*
X4422682Y-4455531D02*
X4432206Y-4446008D01*
X4432206Y-4446008D02*
X4451253Y-4436484D01*
X4451253Y-4436484D02*
X4489349Y-4436484D01*
X4489349Y-4436484D02*
X4508396Y-4446008D01*
X4508396Y-4446008D02*
X4517920Y-4455531D01*
X4517920Y-4455531D02*
X4527444Y-4474579D01*
X4527444Y-4474579D02*
X4527444Y-4484103D01*
X4527444Y-4484103D02*
X4517920Y-4503150D01*
X4517920Y-4503150D02*
X4508396Y-4512674D01*
X4508396Y-4512674D02*
X4489349Y-4522198D01*
X4489349Y-4522198D02*
X4451253Y-4522198D01*
X4451253Y-4522198D02*
X4432206Y-4531722D01*
X4432206Y-4531722D02*
X4422682Y-4541246D01*
X4422682Y-4541246D02*
X4413158Y-4560293D01*
X4413158Y-4560293D02*
X4413158Y-4598389D01*
X4413158Y-4598389D02*
X4422682Y-4617436D01*
X4422682Y-4617436D02*
X4432206Y-4626960D01*
X4432206Y-4626960D02*
X4451253Y-4636484D01*
X4451253Y-4636484D02*
X4489349Y-4636484D01*
X4489349Y-4636484D02*
X4508396Y-4626960D01*
X4508396Y-4626960D02*
X4517920Y-4617436D01*
X4517920Y-4617436D02*
X4527444Y-4598389D01*
X4527444Y-4598389D02*
X4527444Y-4560293D01*
X4527444Y-4560293D02*
X4517920Y-4541246D01*
X4517920Y-4541246D02*
X4508396Y-4531722D01*
X4508396Y-4531722D02*
X4489349Y-4522198D01*
X4603634Y-4436484D02*
X4603634Y-4474579D01*
X4679825Y-4436484D02*
X4679825Y-4474579D01*
X4975063Y-4712674D02*
X4965539Y-4703150D01*
X4965539Y-4703150D02*
X4946491Y-4674579D01*
X4946491Y-4674579D02*
X4936968Y-4655531D01*
X4936968Y-4655531D02*
X4927444Y-4626960D01*
X4927444Y-4626960D02*
X4917920Y-4579341D01*
X4917920Y-4579341D02*
X4917920Y-4541246D01*
X4917920Y-4541246D02*
X4927444Y-4493627D01*
X4927444Y-4493627D02*
X4936968Y-4465055D01*
X4936968Y-4465055D02*
X4946491Y-4446008D01*
X4946491Y-4446008D02*
X4965539Y-4417436D01*
X4965539Y-4417436D02*
X4975063Y-4407912D01*
X5032206Y-4436484D02*
X5156015Y-4436484D01*
X5156015Y-4436484D02*
X5089349Y-4512674D01*
X5089349Y-4512674D02*
X5117920Y-4512674D01*
X5117920Y-4512674D02*
X5136968Y-4522198D01*
X5136968Y-4522198D02*
X5146491Y-4531722D01*
X5146491Y-4531722D02*
X5156015Y-4550770D01*
X5156015Y-4550770D02*
X5156015Y-4598389D01*
X5156015Y-4598389D02*
X5146491Y-4617436D01*
X5146491Y-4617436D02*
X5136968Y-4626960D01*
X5136968Y-4626960D02*
X5117920Y-4636484D01*
X5117920Y-4636484D02*
X5060777Y-4636484D01*
X5060777Y-4636484D02*
X5041730Y-4626960D01*
X5041730Y-4626960D02*
X5032206Y-4617436D01*
X5251253Y-4636484D02*
X5289349Y-4636484D01*
X5289349Y-4636484D02*
X5308396Y-4626960D01*
X5308396Y-4626960D02*
X5317920Y-4617436D01*
X5317920Y-4617436D02*
X5336968Y-4588865D01*
X5336968Y-4588865D02*
X5346491Y-4550770D01*
X5346491Y-4550770D02*
X5346491Y-4474579D01*
X5346491Y-4474579D02*
X5336968Y-4455531D01*
X5336968Y-4455531D02*
X5327444Y-4446008D01*
X5327444Y-4446008D02*
X5308396Y-4436484D01*
X5308396Y-4436484D02*
X5270301Y-4436484D01*
X5270301Y-4436484D02*
X5251253Y-4446008D01*
X5251253Y-4446008D02*
X5241730Y-4455531D01*
X5241730Y-4455531D02*
X5232206Y-4474579D01*
X5232206Y-4474579D02*
X5232206Y-4522198D01*
X5232206Y-4522198D02*
X5241730Y-4541246D01*
X5241730Y-4541246D02*
X5251253Y-4550770D01*
X5251253Y-4550770D02*
X5270301Y-4560293D01*
X5270301Y-4560293D02*
X5308396Y-4560293D01*
X5308396Y-4560293D02*
X5327444Y-4550770D01*
X5327444Y-4550770D02*
X5336968Y-4541246D01*
X5336968Y-4541246D02*
X5346491Y-4522198D01*
X5584587Y-4636484D02*
X5584587Y-4436484D01*
X5670301Y-4636484D02*
X5670301Y-4531722D01*
X5670301Y-4531722D02*
X5660777Y-4512674D01*
X5660777Y-4512674D02*
X5641730Y-4503150D01*
X5641730Y-4503150D02*
X5613158Y-4503150D01*
X5613158Y-4503150D02*
X5594110Y-4512674D01*
X5594110Y-4512674D02*
X5584587Y-4522198D01*
X5794110Y-4636484D02*
X5775063Y-4626960D01*
X5775063Y-4626960D02*
X5765539Y-4617436D01*
X5765539Y-4617436D02*
X5756015Y-4598389D01*
X5756015Y-4598389D02*
X5756015Y-4541246D01*
X5756015Y-4541246D02*
X5765539Y-4522198D01*
X5765539Y-4522198D02*
X5775063Y-4512674D01*
X5775063Y-4512674D02*
X5794110Y-4503150D01*
X5794110Y-4503150D02*
X5822682Y-4503150D01*
X5822682Y-4503150D02*
X5841730Y-4512674D01*
X5841730Y-4512674D02*
X5851253Y-4522198D01*
X5851253Y-4522198D02*
X5860777Y-4541246D01*
X5860777Y-4541246D02*
X5860777Y-4598389D01*
X5860777Y-4598389D02*
X5851253Y-4617436D01*
X5851253Y-4617436D02*
X5841730Y-4626960D01*
X5841730Y-4626960D02*
X5822682Y-4636484D01*
X5822682Y-4636484D02*
X5794110Y-4636484D01*
X5975063Y-4636484D02*
X5956015Y-4626960D01*
X5956015Y-4626960D02*
X5946491Y-4607912D01*
X5946491Y-4607912D02*
X5946491Y-4436484D01*
X6127444Y-4626960D02*
X6108396Y-4636484D01*
X6108396Y-4636484D02*
X6070301Y-4636484D01*
X6070301Y-4636484D02*
X6051253Y-4626960D01*
X6051253Y-4626960D02*
X6041730Y-4607912D01*
X6041730Y-4607912D02*
X6041730Y-4531722D01*
X6041730Y-4531722D02*
X6051253Y-4512674D01*
X6051253Y-4512674D02*
X6070301Y-4503150D01*
X6070301Y-4503150D02*
X6108396Y-4503150D01*
X6108396Y-4503150D02*
X6127444Y-4512674D01*
X6127444Y-4512674D02*
X6136968Y-4531722D01*
X6136968Y-4531722D02*
X6136968Y-4550770D01*
X6136968Y-4550770D02*
X6041730Y-4569817D01*
X6213158Y-4626960D02*
X6232206Y-4636484D01*
X6232206Y-4636484D02*
X6270301Y-4636484D01*
X6270301Y-4636484D02*
X6289349Y-4626960D01*
X6289349Y-4626960D02*
X6298872Y-4607912D01*
X6298872Y-4607912D02*
X6298872Y-4598389D01*
X6298872Y-4598389D02*
X6289349Y-4579341D01*
X6289349Y-4579341D02*
X6270301Y-4569817D01*
X6270301Y-4569817D02*
X6241730Y-4569817D01*
X6241730Y-4569817D02*
X6222682Y-4560293D01*
X6222682Y-4560293D02*
X6213158Y-4541246D01*
X6213158Y-4541246D02*
X6213158Y-4531722D01*
X6213158Y-4531722D02*
X6222682Y-4512674D01*
X6222682Y-4512674D02*
X6241730Y-4503150D01*
X6241730Y-4503150D02*
X6270301Y-4503150D01*
X6270301Y-4503150D02*
X6289349Y-4512674D01*
X6365539Y-4712674D02*
X6375063Y-4703150D01*
X6375063Y-4703150D02*
X6394111Y-4674579D01*
X6394111Y-4674579D02*
X6403634Y-4655531D01*
X6403634Y-4655531D02*
X6413158Y-4626960D01*
X6413158Y-4626960D02*
X6422682Y-4579341D01*
X6422682Y-4579341D02*
X6422682Y-4541246D01*
X6422682Y-4541246D02*
X6413158Y-4493627D01*
X6413158Y-4493627D02*
X6403634Y-4465055D01*
X6403634Y-4465055D02*
X6394111Y-4446008D01*
X6394111Y-4446008D02*
X6375063Y-4417436D01*
X6375063Y-4417436D02*
X6365539Y-4407912D01*
M02*
