G04 #@! TF.GenerationSoftware,KiCad,Pcbnew,7.0.9-7.0.9~ubuntu22.04.1*
G04 #@! TF.CreationDate,2023-12-22T22:10:03+01:00*
G04 #@! TF.ProjectId,v7-soc-8bit,76372d73-6f63-42d3-9862-69742e6b6963,rev?*
G04 #@! TF.SameCoordinates,Original*
G04 #@! TF.FileFunction,Legend,Top*
G04 #@! TF.FilePolarity,Positive*
%FSLAX46Y46*%
G04 Gerber Fmt 4.6, Leading zero omitted, Abs format (unit mm)*
G04 Created by KiCad (PCBNEW 7.0.9-7.0.9~ubuntu22.04.1) date 2023-12-22 22:10:03*
%MOMM*%
%LPD*%
G01*
G04 APERTURE LIST*
%ADD10C,0.000000*%
%ADD11C,0.034395*%
%ADD12C,0.400000*%
%ADD13C,0.150000*%
%ADD14C,0.140000*%
%ADD15C,0.254000*%
%ADD16C,0.120000*%
%ADD17C,0.200000*%
G04 APERTURE END LIST*
D10*
G36*
X89197415Y-43547011D02*
G01*
X89197415Y-42817570D01*
X89457420Y-42817570D01*
X89457420Y-43881096D01*
X89151112Y-43881096D01*
X88764310Y-43151655D01*
X88764310Y-43881096D01*
X88504305Y-43881096D01*
X88504305Y-42817570D01*
X88810613Y-42817570D01*
X89197415Y-43547011D01*
G37*
D11*
X91723015Y-45214016D02*
X91723015Y-41161578D01*
D10*
G36*
X84774433Y-43024861D02*
G01*
X84308561Y-43024861D01*
X84308561Y-43222892D01*
X84746652Y-43222892D01*
X84746652Y-43430182D01*
X84308561Y-43430182D01*
X84308561Y-43881096D01*
X84034309Y-43881096D01*
X84034309Y-42817570D01*
X84774433Y-42817570D01*
X84774433Y-43024861D01*
G37*
G36*
X87777595Y-44177724D02*
G01*
X87807564Y-44179383D01*
X87836687Y-44182149D01*
X87864964Y-44186021D01*
X87892396Y-44191000D01*
X87918981Y-44197084D01*
X87944720Y-44204276D01*
X87969613Y-44212573D01*
X87993660Y-44221977D01*
X88016861Y-44232487D01*
X88039216Y-44244104D01*
X88060725Y-44256827D01*
X88081388Y-44270656D01*
X88101205Y-44285592D01*
X88120176Y-44301634D01*
X88138301Y-44318783D01*
X88155449Y-44336926D01*
X88171492Y-44355954D01*
X88186427Y-44375866D01*
X88200257Y-44396662D01*
X88212980Y-44418341D01*
X88224597Y-44440905D01*
X88235107Y-44464353D01*
X88244511Y-44488685D01*
X88252809Y-44513900D01*
X88260000Y-44540000D01*
X88266085Y-44566984D01*
X88271064Y-44594851D01*
X88274936Y-44623603D01*
X88277702Y-44653239D01*
X88279362Y-44683758D01*
X88279915Y-44715162D01*
X88279359Y-44746482D01*
X88277691Y-44776923D01*
X88274912Y-44806486D01*
X88271021Y-44835170D01*
X88266018Y-44862975D01*
X88259903Y-44889902D01*
X88252676Y-44915950D01*
X88244338Y-44941120D01*
X88234888Y-44965411D01*
X88224326Y-44988823D01*
X88212652Y-45011357D01*
X88199866Y-45033012D01*
X88185969Y-45053789D01*
X88170960Y-45073687D01*
X88154839Y-45092706D01*
X88137606Y-45110847D01*
X88119484Y-45127996D01*
X88100522Y-45144038D01*
X88080718Y-45158974D01*
X88060074Y-45172803D01*
X88038590Y-45185526D01*
X88016265Y-45197143D01*
X87993099Y-45207653D01*
X87969093Y-45217057D01*
X87944246Y-45225354D01*
X87918558Y-45232546D01*
X87892030Y-45238630D01*
X87864661Y-45243609D01*
X87836451Y-45247481D01*
X87807401Y-45250247D01*
X87777511Y-45251906D01*
X87746779Y-45252459D01*
X87716045Y-45251906D01*
X87686146Y-45250247D01*
X87657083Y-45247481D01*
X87628854Y-45243609D01*
X87601461Y-45238630D01*
X87574903Y-45232546D01*
X87549180Y-45225354D01*
X87524292Y-45217057D01*
X87500240Y-45207653D01*
X87477023Y-45197143D01*
X87454640Y-45185526D01*
X87433094Y-45172803D01*
X87412382Y-45158974D01*
X87392505Y-45144038D01*
X87373464Y-45127996D01*
X87355258Y-45110847D01*
X87338109Y-45092706D01*
X87322067Y-45073687D01*
X87307131Y-45053789D01*
X87293302Y-45033012D01*
X87280578Y-45011357D01*
X87268962Y-44988823D01*
X87258451Y-44965411D01*
X87249047Y-44941120D01*
X87240749Y-44915950D01*
X87233558Y-44889902D01*
X87227473Y-44862975D01*
X87222494Y-44835170D01*
X87218622Y-44806486D01*
X87215856Y-44776923D01*
X87214197Y-44746482D01*
X87213644Y-44715162D01*
X87213644Y-44715158D01*
X87489931Y-44715158D01*
X87490180Y-44734438D01*
X87490929Y-44753230D01*
X87492176Y-44771534D01*
X87493922Y-44789350D01*
X87496168Y-44806677D01*
X87498912Y-44823517D01*
X87502155Y-44839868D01*
X87505897Y-44855731D01*
X87510138Y-44871107D01*
X87514878Y-44885993D01*
X87520117Y-44900392D01*
X87525855Y-44914303D01*
X87532092Y-44927726D01*
X87538828Y-44940660D01*
X87546062Y-44953107D01*
X87553796Y-44965065D01*
X87562116Y-44976414D01*
X87570934Y-44987030D01*
X87575530Y-44992063D01*
X87580251Y-44996914D01*
X87585097Y-45001581D01*
X87590067Y-45006066D01*
X87595163Y-45010367D01*
X87600383Y-45014485D01*
X87605727Y-45018421D01*
X87611197Y-45022173D01*
X87616791Y-45025742D01*
X87622510Y-45029128D01*
X87628353Y-45032332D01*
X87634322Y-45035352D01*
X87640415Y-45038189D01*
X87646633Y-45040843D01*
X87652975Y-45043314D01*
X87659443Y-45045602D01*
X87672752Y-45049629D01*
X87686559Y-45052923D01*
X87700866Y-45055486D01*
X87715672Y-45057316D01*
X87730977Y-45058414D01*
X87746780Y-45058781D01*
X87754961Y-45058680D01*
X87763018Y-45058379D01*
X87770949Y-45057878D01*
X87778756Y-45057175D01*
X87786438Y-45056272D01*
X87793996Y-45055169D01*
X87801428Y-45053864D01*
X87808736Y-45052360D01*
X87815920Y-45050654D01*
X87822978Y-45048748D01*
X87829912Y-45046641D01*
X87836721Y-45044333D01*
X87843405Y-45041825D01*
X87849965Y-45039116D01*
X87856399Y-45036207D01*
X87862709Y-45033096D01*
X87868881Y-45029804D01*
X87874901Y-45026350D01*
X87880769Y-45022733D01*
X87886485Y-45018952D01*
X87892049Y-45015010D01*
X87897462Y-45010904D01*
X87902723Y-45006636D01*
X87907831Y-45002205D01*
X87912788Y-44997611D01*
X87917593Y-44992855D01*
X87922247Y-44987936D01*
X87926748Y-44982854D01*
X87931097Y-44977610D01*
X87935295Y-44972202D01*
X87939341Y-44966632D01*
X87943235Y-44960900D01*
X87946993Y-44954944D01*
X87950632Y-44948881D01*
X87954152Y-44942709D01*
X87957552Y-44936428D01*
X87960833Y-44930039D01*
X87963995Y-44923542D01*
X87967038Y-44916936D01*
X87969961Y-44910222D01*
X87972765Y-44903399D01*
X87975449Y-44896468D01*
X87978014Y-44889428D01*
X87980460Y-44882281D01*
X87982787Y-44875024D01*
X87984994Y-44867659D01*
X87987082Y-44860186D01*
X87989050Y-44852609D01*
X87992630Y-44836946D01*
X87995732Y-44820849D01*
X87998357Y-44804319D01*
X88000505Y-44787354D01*
X88002175Y-44769956D01*
X88003368Y-44752124D01*
X88004084Y-44733858D01*
X88004323Y-44715158D01*
X88004084Y-44696458D01*
X88003368Y-44678193D01*
X88002175Y-44660360D01*
X88000505Y-44642962D01*
X87998357Y-44625997D01*
X87995732Y-44609467D01*
X87992630Y-44593370D01*
X87989050Y-44577708D01*
X87984994Y-44562501D01*
X87980460Y-44547771D01*
X87975449Y-44533518D01*
X87972764Y-44526571D01*
X87969960Y-44519743D01*
X87967037Y-44513034D01*
X87963995Y-44506445D01*
X87960833Y-44499975D01*
X87957552Y-44493625D01*
X87954151Y-44487394D01*
X87950632Y-44481282D01*
X87946993Y-44475290D01*
X87943234Y-44469417D01*
X87939340Y-44463600D01*
X87935295Y-44457952D01*
X87931097Y-44452472D01*
X87926747Y-44447160D01*
X87922246Y-44442016D01*
X87917593Y-44437040D01*
X87912788Y-44432233D01*
X87907831Y-44427593D01*
X87902722Y-44423121D01*
X87897461Y-44418818D01*
X87892049Y-44414682D01*
X87886485Y-44410715D01*
X87880768Y-44406916D01*
X87874900Y-44403284D01*
X87868880Y-44399821D01*
X87862709Y-44396526D01*
X87856399Y-44393415D01*
X87849964Y-44390506D01*
X87843405Y-44387797D01*
X87836720Y-44385289D01*
X87829911Y-44382981D01*
X87822978Y-44380874D01*
X87815919Y-44378968D01*
X87808736Y-44377262D01*
X87801428Y-44375758D01*
X87793995Y-44374453D01*
X87786438Y-44373350D01*
X87778756Y-44372447D01*
X87770949Y-44371744D01*
X87763017Y-44371243D01*
X87754961Y-44370942D01*
X87746780Y-44370841D01*
X87736042Y-44371020D01*
X87725520Y-44371557D01*
X87715216Y-44372452D01*
X87705128Y-44373705D01*
X87695258Y-44375316D01*
X87685604Y-44377285D01*
X87676168Y-44379612D01*
X87666948Y-44382296D01*
X87657945Y-44385339D01*
X87649160Y-44388740D01*
X87640591Y-44392498D01*
X87632239Y-44396615D01*
X87624104Y-44401089D01*
X87616186Y-44405921D01*
X87608485Y-44411112D01*
X87601000Y-44416660D01*
X87593836Y-44422419D01*
X87586921Y-44428417D01*
X87580256Y-44434654D01*
X87573840Y-44441129D01*
X87567674Y-44447843D01*
X87561757Y-44454796D01*
X87556090Y-44461987D01*
X87550672Y-44469417D01*
X87545503Y-44477086D01*
X87540585Y-44484993D01*
X87535915Y-44493139D01*
X87531495Y-44501523D01*
X87527324Y-44510146D01*
X87523403Y-44519008D01*
X87519732Y-44528109D01*
X87516310Y-44537448D01*
X87513115Y-44547009D01*
X87510127Y-44556776D01*
X87507345Y-44566750D01*
X87504769Y-44576930D01*
X87502399Y-44587315D01*
X87500235Y-44597907D01*
X87498277Y-44608705D01*
X87496526Y-44619709D01*
X87494980Y-44630919D01*
X87493640Y-44642335D01*
X87492507Y-44653957D01*
X87491579Y-44665786D01*
X87490343Y-44690060D01*
X87489931Y-44715158D01*
X87213644Y-44715158D01*
X87214197Y-44683842D01*
X87215856Y-44653401D01*
X87218622Y-44623838D01*
X87222494Y-44595154D01*
X87227473Y-44567349D01*
X87233558Y-44540422D01*
X87240749Y-44514374D01*
X87249047Y-44489204D01*
X87258451Y-44464913D01*
X87268962Y-44441501D01*
X87280578Y-44418967D01*
X87293302Y-44397312D01*
X87307131Y-44376536D01*
X87322067Y-44356638D01*
X87338109Y-44337618D01*
X87355258Y-44319477D01*
X87373464Y-44302245D01*
X87392505Y-44286124D01*
X87412382Y-44271115D01*
X87433094Y-44257218D01*
X87454640Y-44244433D01*
X87477023Y-44232760D01*
X87500240Y-44222198D01*
X87524292Y-44212748D01*
X87549180Y-44204409D01*
X87574903Y-44197183D01*
X87601461Y-44191068D01*
X87628854Y-44186065D01*
X87657083Y-44182174D01*
X87686146Y-44179394D01*
X87716045Y-44177726D01*
X87746779Y-44177170D01*
X87777595Y-44177724D01*
G37*
G36*
X91018361Y-44770066D02*
G01*
X91034072Y-44771291D01*
X91049555Y-44773309D01*
X91064789Y-44776099D01*
X91079757Y-44779642D01*
X91094437Y-44783918D01*
X91108812Y-44788906D01*
X91122860Y-44794587D01*
X91136564Y-44800941D01*
X91149903Y-44807948D01*
X91162859Y-44815588D01*
X91175410Y-44823841D01*
X91187539Y-44832688D01*
X91199226Y-44842107D01*
X91210451Y-44852080D01*
X91221195Y-44862586D01*
X91231439Y-44873605D01*
X91241162Y-44885118D01*
X91250346Y-44897105D01*
X91258972Y-44909545D01*
X91267018Y-44922418D01*
X91274467Y-44935706D01*
X91281299Y-44949387D01*
X91287495Y-44963442D01*
X91293034Y-44977851D01*
X91297898Y-44992594D01*
X91302067Y-45007651D01*
X91305521Y-45023002D01*
X91308242Y-45038627D01*
X91310209Y-45054506D01*
X91311404Y-45070620D01*
X91311806Y-45086948D01*
X91311404Y-45103276D01*
X91310209Y-45119390D01*
X91308242Y-45135270D01*
X91305521Y-45150895D01*
X91302067Y-45166246D01*
X91297898Y-45181303D01*
X91293035Y-45196046D01*
X91287495Y-45210455D01*
X91281300Y-45224510D01*
X91274468Y-45238191D01*
X91267019Y-45251478D01*
X91258972Y-45264352D01*
X91250347Y-45276792D01*
X91241163Y-45288778D01*
X91231440Y-45300291D01*
X91221196Y-45311311D01*
X91210452Y-45321817D01*
X91199227Y-45331789D01*
X91187541Y-45341209D01*
X91175412Y-45350055D01*
X91162860Y-45358308D01*
X91149905Y-45365948D01*
X91136565Y-45372955D01*
X91122862Y-45379309D01*
X91108813Y-45384991D01*
X91094439Y-45389979D01*
X91079758Y-45394255D01*
X91064791Y-45397798D01*
X91049557Y-45400588D01*
X91034074Y-45402606D01*
X91018363Y-45403831D01*
X91002444Y-45404244D01*
X90986524Y-45403831D01*
X90970813Y-45402606D01*
X90955330Y-45400588D01*
X90940096Y-45397798D01*
X90925128Y-45394255D01*
X90910448Y-45389979D01*
X90896073Y-45384991D01*
X90882025Y-45379309D01*
X90868321Y-45372955D01*
X90854982Y-45365948D01*
X90842026Y-45358308D01*
X90829475Y-45350055D01*
X90817345Y-45341209D01*
X90805659Y-45331789D01*
X90794434Y-45321817D01*
X90783689Y-45311311D01*
X90773446Y-45300291D01*
X90763723Y-45288778D01*
X90754539Y-45276792D01*
X90745913Y-45264352D01*
X90737867Y-45251478D01*
X90730417Y-45238191D01*
X90723585Y-45224510D01*
X90717390Y-45210455D01*
X90711851Y-45196046D01*
X90706987Y-45181303D01*
X90702818Y-45166246D01*
X90699364Y-45150895D01*
X90696643Y-45135270D01*
X90694676Y-45119390D01*
X90693481Y-45103276D01*
X90693079Y-45086948D01*
X90693481Y-45070620D01*
X90694676Y-45054506D01*
X90696643Y-45038627D01*
X90699364Y-45023002D01*
X90702818Y-45007651D01*
X90706987Y-44992594D01*
X90711851Y-44977851D01*
X90717390Y-44963442D01*
X90723585Y-44949387D01*
X90730417Y-44935706D01*
X90737866Y-44922418D01*
X90745913Y-44909545D01*
X90754538Y-44897105D01*
X90763722Y-44885118D01*
X90773445Y-44873605D01*
X90783689Y-44862586D01*
X90794433Y-44852080D01*
X90805658Y-44842107D01*
X90817344Y-44832688D01*
X90829474Y-44823841D01*
X90842025Y-44815588D01*
X90854981Y-44807948D01*
X90868320Y-44800941D01*
X90882023Y-44794587D01*
X90896072Y-44788906D01*
X90910446Y-44783918D01*
X90925127Y-44779642D01*
X90940094Y-44776099D01*
X90955328Y-44773309D01*
X90970811Y-44771291D01*
X90986522Y-44770066D01*
X91002442Y-44769653D01*
X91018361Y-44770066D01*
G37*
D11*
X91188816Y-45754523D02*
X91723015Y-45214016D01*
D10*
G36*
X85999674Y-43881096D02*
G01*
X85723997Y-43881096D01*
X85657037Y-43687338D01*
X85228207Y-43687338D01*
X85160534Y-43881096D01*
X84884857Y-43881096D01*
X85029711Y-43490017D01*
X85296592Y-43490017D01*
X85587940Y-43490017D01*
X85442622Y-43066886D01*
X85296592Y-43490017D01*
X85029711Y-43490017D01*
X85278783Y-42817570D01*
X85605748Y-42817570D01*
X85999674Y-43881096D01*
G37*
G36*
X89013263Y-44196222D02*
G01*
X89039642Y-44197166D01*
X89064980Y-44198738D01*
X89089277Y-44200940D01*
X89112532Y-44203771D01*
X89134746Y-44207231D01*
X89155919Y-44211320D01*
X89176050Y-44216038D01*
X89185723Y-44218628D01*
X89195130Y-44221364D01*
X89204271Y-44224246D01*
X89213146Y-44227275D01*
X89221756Y-44230450D01*
X89230099Y-44233772D01*
X89238177Y-44237240D01*
X89245990Y-44240854D01*
X89253536Y-44244615D01*
X89260817Y-44248523D01*
X89267832Y-44252577D01*
X89274581Y-44256777D01*
X89281065Y-44261124D01*
X89287283Y-44265617D01*
X89293235Y-44270257D01*
X89298921Y-44275043D01*
X89304374Y-44279949D01*
X89309627Y-44284947D01*
X89314679Y-44290037D01*
X89319530Y-44295219D01*
X89324180Y-44300494D01*
X89328630Y-44305860D01*
X89332879Y-44311319D01*
X89336928Y-44316869D01*
X89340776Y-44322512D01*
X89344423Y-44328247D01*
X89347870Y-44334075D01*
X89351115Y-44339994D01*
X89354161Y-44346006D01*
X89357005Y-44352109D01*
X89359649Y-44358305D01*
X89362092Y-44364593D01*
X89364446Y-44370908D01*
X89366648Y-44377360D01*
X89368698Y-44383946D01*
X89370596Y-44390668D01*
X89372342Y-44397526D01*
X89373937Y-44404520D01*
X89375379Y-44411649D01*
X89376670Y-44418913D01*
X89377809Y-44426313D01*
X89378796Y-44433849D01*
X89379632Y-44441520D01*
X89380315Y-44449327D01*
X89380846Y-44457269D01*
X89381226Y-44465347D01*
X89381454Y-44473560D01*
X89381530Y-44481910D01*
X89381530Y-44481914D01*
X89380752Y-44506788D01*
X89378417Y-44530561D01*
X89374526Y-44553233D01*
X89369078Y-44574804D01*
X89365770Y-44585177D01*
X89362074Y-44595274D01*
X89357988Y-44605096D01*
X89353513Y-44614643D01*
X89348649Y-44623915D01*
X89343396Y-44632911D01*
X89337753Y-44641633D01*
X89331722Y-44650079D01*
X89325301Y-44658250D01*
X89318492Y-44666145D01*
X89311293Y-44673766D01*
X89303705Y-44681111D01*
X89295728Y-44688181D01*
X89287362Y-44694975D01*
X89278607Y-44701495D01*
X89269462Y-44707739D01*
X89250006Y-44719402D01*
X89228993Y-44729964D01*
X89206424Y-44739425D01*
X89182298Y-44747785D01*
X89189777Y-44749653D01*
X89197115Y-44751787D01*
X89204311Y-44754187D01*
X89211367Y-44756853D01*
X89218282Y-44759784D01*
X89225056Y-44762981D01*
X89231688Y-44766444D01*
X89238180Y-44770172D01*
X89244531Y-44774167D01*
X89250740Y-44778427D01*
X89256809Y-44782953D01*
X89262737Y-44787744D01*
X89268524Y-44792801D01*
X89274169Y-44798124D01*
X89279674Y-44803713D01*
X89285038Y-44809568D01*
X89290407Y-44815682D01*
X89295754Y-44822052D01*
X89301080Y-44828677D01*
X89306384Y-44835556D01*
X89311666Y-44842690D01*
X89316927Y-44850080D01*
X89322166Y-44857724D01*
X89327383Y-44865623D01*
X89332579Y-44873777D01*
X89337752Y-44882186D01*
X89348035Y-44899768D01*
X89358231Y-44918371D01*
X89368340Y-44937993D01*
X89513425Y-45232329D01*
X89228808Y-45232329D01*
X89102467Y-44974785D01*
X89098025Y-44965840D01*
X89093551Y-44957225D01*
X89089044Y-44948941D01*
X89084504Y-44940988D01*
X89079933Y-44933365D01*
X89075328Y-44926074D01*
X89070691Y-44919113D01*
X89066022Y-44912482D01*
X89061320Y-44906183D01*
X89056585Y-44900215D01*
X89051818Y-44894577D01*
X89047018Y-44889270D01*
X89042186Y-44884294D01*
X89037321Y-44879648D01*
X89032424Y-44875334D01*
X89027494Y-44871350D01*
X89022521Y-44867568D01*
X89017320Y-44864029D01*
X89011891Y-44860734D01*
X89006235Y-44857684D01*
X89000350Y-44854877D01*
X88994238Y-44852315D01*
X88987898Y-44849996D01*
X88981331Y-44847922D01*
X88974535Y-44846091D01*
X88967512Y-44844505D01*
X88960261Y-44843163D01*
X88952782Y-44842064D01*
X88945076Y-44841210D01*
X88937141Y-44840600D01*
X88928979Y-44840234D01*
X88920589Y-44840112D01*
X88844923Y-44840112D01*
X88844923Y-45232329D01*
X88577661Y-45232329D01*
X88577661Y-44389587D01*
X88844924Y-44389587D01*
X88844924Y-44655458D01*
X88957382Y-44655458D01*
X88968025Y-44655331D01*
X88978262Y-44654949D01*
X88988091Y-44654311D01*
X88997514Y-44653419D01*
X89006531Y-44652272D01*
X89015140Y-44650871D01*
X89023343Y-44649214D01*
X89031139Y-44647302D01*
X89038528Y-44645136D01*
X89045511Y-44642714D01*
X89052087Y-44640038D01*
X89058256Y-44637106D01*
X89064018Y-44633920D01*
X89069374Y-44630479D01*
X89074323Y-44626783D01*
X89078865Y-44622831D01*
X89083152Y-44618612D01*
X89087162Y-44614110D01*
X89090896Y-44609327D01*
X89094354Y-44604261D01*
X89097535Y-44598914D01*
X89100439Y-44593285D01*
X89103066Y-44587373D01*
X89105417Y-44581180D01*
X89107492Y-44574705D01*
X89109290Y-44567947D01*
X89110811Y-44560908D01*
X89112056Y-44553586D01*
X89113024Y-44545983D01*
X89113715Y-44538097D01*
X89114130Y-44529929D01*
X89114268Y-44521483D01*
X89114119Y-44512542D01*
X89113671Y-44503943D01*
X89112925Y-44495686D01*
X89111881Y-44487770D01*
X89110539Y-44480197D01*
X89108899Y-44472964D01*
X89106960Y-44466074D01*
X89104723Y-44459525D01*
X89102187Y-44453318D01*
X89099354Y-44447453D01*
X89096222Y-44441929D01*
X89092791Y-44436747D01*
X89089063Y-44431907D01*
X89085036Y-44427409D01*
X89080711Y-44423252D01*
X89076088Y-44419437D01*
X89071150Y-44415822D01*
X89065881Y-44412441D01*
X89060281Y-44409292D01*
X89054351Y-44406377D01*
X89048090Y-44403696D01*
X89041498Y-44401247D01*
X89034575Y-44399032D01*
X89027321Y-44397049D01*
X89019737Y-44395300D01*
X89011821Y-44393784D01*
X89003575Y-44392502D01*
X88994998Y-44391452D01*
X88986090Y-44390636D01*
X88976852Y-44390053D01*
X88967282Y-44389703D01*
X88957382Y-44389587D01*
X88844924Y-44389587D01*
X88577661Y-44389587D01*
X88577661Y-44195908D01*
X88985843Y-44195908D01*
X89013263Y-44196222D01*
G37*
G36*
X88301988Y-43881096D02*
G01*
X88026312Y-43881096D01*
X87959351Y-43687338D01*
X87530521Y-43687338D01*
X87462849Y-43881096D01*
X87187172Y-43881096D01*
X87332026Y-43490017D01*
X87598906Y-43490017D01*
X87890254Y-43490017D01*
X87744936Y-43066886D01*
X87598906Y-43490017D01*
X87332026Y-43490017D01*
X87581097Y-42817570D01*
X87908063Y-42817570D01*
X88301988Y-43881096D01*
G37*
G36*
X90060785Y-43881096D02*
G01*
X89786533Y-43881096D01*
X89786533Y-42817570D01*
X90060785Y-42817570D01*
X90060785Y-43881096D01*
G37*
D11*
X83351015Y-41161578D02*
X83351015Y-45754523D01*
D10*
G36*
X90235427Y-44196243D02*
G01*
X90258479Y-44197235D01*
X90280874Y-44198889D01*
X90302614Y-44201205D01*
X90323697Y-44204183D01*
X90344124Y-44207822D01*
X90363895Y-44212122D01*
X90383009Y-44217085D01*
X90401467Y-44222709D01*
X90419269Y-44228994D01*
X90436415Y-44235942D01*
X90452905Y-44243550D01*
X90468738Y-44251821D01*
X90483916Y-44260753D01*
X90498437Y-44270346D01*
X90512301Y-44280602D01*
X90525499Y-44291516D01*
X90537845Y-44303086D01*
X90549340Y-44315313D01*
X90559983Y-44328196D01*
X90569775Y-44341735D01*
X90578716Y-44355930D01*
X90586804Y-44370782D01*
X90594042Y-44386290D01*
X90600428Y-44402454D01*
X90605962Y-44419275D01*
X90610645Y-44436752D01*
X90614477Y-44454885D01*
X90617457Y-44473674D01*
X90619586Y-44493120D01*
X90620863Y-44513222D01*
X90621289Y-44533980D01*
X90620863Y-44554740D01*
X90619586Y-44574850D01*
X90617457Y-44594308D01*
X90614477Y-44613116D01*
X90610645Y-44631274D01*
X90605962Y-44648780D01*
X90600428Y-44665636D01*
X90594042Y-44681840D01*
X90586804Y-44697394D01*
X90578716Y-44712298D01*
X90569775Y-44726551D01*
X90559983Y-44740152D01*
X90549340Y-44753104D01*
X90537845Y-44765404D01*
X90525499Y-44777054D01*
X90512301Y-44788053D01*
X90498355Y-44798308D01*
X90483764Y-44807902D01*
X90468527Y-44816834D01*
X90452645Y-44825104D01*
X90436117Y-44832713D01*
X90418944Y-44839660D01*
X90401126Y-44845946D01*
X90382662Y-44851570D01*
X90363553Y-44856532D01*
X90343798Y-44860833D01*
X90323398Y-44864472D01*
X90302353Y-44867449D01*
X90280663Y-44869765D01*
X90258327Y-44871419D01*
X90235345Y-44872412D01*
X90211718Y-44872743D01*
X90035395Y-44872743D01*
X90035395Y-45232333D01*
X89768133Y-45232333D01*
X89768133Y-44389587D01*
X90035395Y-44389587D01*
X90035395Y-44679064D01*
X90183257Y-44679064D01*
X90192753Y-44678920D01*
X90201978Y-44678489D01*
X90210932Y-44677770D01*
X90219615Y-44676764D01*
X90228027Y-44675471D01*
X90236167Y-44673890D01*
X90244036Y-44672022D01*
X90251634Y-44669866D01*
X90258961Y-44667423D01*
X90266017Y-44664692D01*
X90272802Y-44661674D01*
X90279315Y-44658368D01*
X90285557Y-44654775D01*
X90291528Y-44650895D01*
X90297228Y-44646727D01*
X90302657Y-44642271D01*
X90307869Y-44637455D01*
X90312745Y-44632379D01*
X90317284Y-44627043D01*
X90321487Y-44621446D01*
X90325354Y-44615589D01*
X90328884Y-44609471D01*
X90332079Y-44603094D01*
X90334937Y-44596455D01*
X90337459Y-44589557D01*
X90339644Y-44582398D01*
X90341494Y-44574979D01*
X90343007Y-44567300D01*
X90344184Y-44559361D01*
X90345024Y-44551161D01*
X90345529Y-44542701D01*
X90345697Y-44533980D01*
X90345529Y-44525262D01*
X90345024Y-44516809D01*
X90344184Y-44508623D01*
X90343007Y-44500702D01*
X90341494Y-44493047D01*
X90339644Y-44485657D01*
X90337459Y-44478534D01*
X90334937Y-44471676D01*
X90332079Y-44465084D01*
X90328884Y-44458758D01*
X90325354Y-44452697D01*
X90321487Y-44446902D01*
X90317284Y-44441373D01*
X90312745Y-44436109D01*
X90307869Y-44431112D01*
X90302657Y-44426379D01*
X90297228Y-44421924D01*
X90291528Y-44417756D01*
X90285557Y-44413875D01*
X90279315Y-44410282D01*
X90272802Y-44406977D01*
X90266017Y-44403958D01*
X90258961Y-44401228D01*
X90251634Y-44398784D01*
X90244036Y-44396629D01*
X90236167Y-44394760D01*
X90228027Y-44393180D01*
X90219615Y-44391886D01*
X90210932Y-44390880D01*
X90201978Y-44390162D01*
X90192753Y-44389731D01*
X90183257Y-44389587D01*
X90035395Y-44389587D01*
X89768133Y-44389587D01*
X89768133Y-44195912D01*
X90211718Y-44195912D01*
X90235427Y-44196243D01*
G37*
D11*
X83351015Y-45754523D02*
X91188816Y-45754523D01*
D10*
G36*
X86657565Y-44177471D02*
G01*
X86678800Y-44178374D01*
X86699845Y-44179879D01*
X86720701Y-44181986D01*
X86741366Y-44184695D01*
X86761842Y-44188006D01*
X86782128Y-44191919D01*
X86802224Y-44196434D01*
X86822131Y-44201551D01*
X86841847Y-44207270D01*
X86861374Y-44213591D01*
X86880711Y-44220514D01*
X86899858Y-44228039D01*
X86918815Y-44236167D01*
X86937583Y-44244896D01*
X86956160Y-44254227D01*
X86956160Y-44468730D01*
X86938073Y-44456877D01*
X86919911Y-44445789D01*
X86901672Y-44435466D01*
X86883357Y-44425907D01*
X86864967Y-44417113D01*
X86846500Y-44409084D01*
X86827958Y-44401819D01*
X86809340Y-44395320D01*
X86790646Y-44389584D01*
X86771875Y-44384614D01*
X86753029Y-44380408D01*
X86734107Y-44376967D01*
X86715110Y-44374290D01*
X86696036Y-44372379D01*
X86676886Y-44371232D01*
X86657660Y-44370849D01*
X86639693Y-44371213D01*
X86622235Y-44372303D01*
X86605287Y-44374120D01*
X86588849Y-44376663D01*
X86572921Y-44379934D01*
X86557502Y-44383931D01*
X86542594Y-44388655D01*
X86528195Y-44394105D01*
X86514306Y-44400282D01*
X86500926Y-44407186D01*
X86488057Y-44414817D01*
X86475697Y-44423174D01*
X86463847Y-44432258D01*
X86452507Y-44442069D01*
X86441676Y-44452606D01*
X86431356Y-44463870D01*
X86421605Y-44475672D01*
X86412482Y-44487994D01*
X86403990Y-44500836D01*
X86396126Y-44514200D01*
X86388891Y-44528083D01*
X86382285Y-44542488D01*
X86376309Y-44557413D01*
X86370962Y-44572859D01*
X86366243Y-44588825D01*
X86362154Y-44605312D01*
X86358694Y-44622319D01*
X86355863Y-44639847D01*
X86353661Y-44657896D01*
X86352088Y-44676466D01*
X86351145Y-44695555D01*
X86350830Y-44715166D01*
X86351145Y-44734777D01*
X86352088Y-44753867D01*
X86353661Y-44772436D01*
X86355863Y-44790485D01*
X86358694Y-44808013D01*
X86362154Y-44825020D01*
X86366243Y-44841507D01*
X86370962Y-44857474D01*
X86376309Y-44872919D01*
X86382285Y-44887844D01*
X86388891Y-44902249D01*
X86396126Y-44916133D01*
X86403990Y-44929496D01*
X86412482Y-44942338D01*
X86421605Y-44954660D01*
X86431356Y-44966462D01*
X86441676Y-44977642D01*
X86452507Y-44988101D01*
X86463847Y-44997839D01*
X86475697Y-45006855D01*
X86488057Y-45015150D01*
X86500926Y-45022724D01*
X86514306Y-45029576D01*
X86528195Y-45035707D01*
X86542594Y-45041117D01*
X86557502Y-45045805D01*
X86572921Y-45049772D01*
X86588849Y-45053018D01*
X86605287Y-45055543D01*
X86622235Y-45057346D01*
X86639693Y-45058428D01*
X86657660Y-45058789D01*
X86657659Y-45058781D01*
X86677048Y-45058398D01*
X86696338Y-45057251D01*
X86715532Y-45055339D01*
X86734627Y-45052663D01*
X86753625Y-45049222D01*
X86772525Y-45045016D01*
X86791328Y-45040046D01*
X86810033Y-45034310D01*
X86828641Y-45027810D01*
X86847151Y-45020546D01*
X86865563Y-45012517D01*
X86883877Y-45003723D01*
X86902094Y-44994164D01*
X86920214Y-44983841D01*
X86938236Y-44972752D01*
X86956160Y-44960900D01*
X86956160Y-45175403D01*
X86937582Y-45184734D01*
X86918815Y-45193463D01*
X86899857Y-45201591D01*
X86880710Y-45209116D01*
X86861373Y-45216039D01*
X86841847Y-45222360D01*
X86822130Y-45228079D01*
X86802224Y-45233196D01*
X86782128Y-45237711D01*
X86761842Y-45241624D01*
X86741366Y-45244935D01*
X86720700Y-45247644D01*
X86699845Y-45249751D01*
X86678800Y-45251256D01*
X86657565Y-45252158D01*
X86636140Y-45252459D01*
X86604028Y-45251898D01*
X86572774Y-45250214D01*
X86542376Y-45247408D01*
X86512835Y-45243479D01*
X86484151Y-45238427D01*
X86456324Y-45232253D01*
X86429354Y-45224956D01*
X86403240Y-45216536D01*
X86377984Y-45206994D01*
X86353584Y-45196329D01*
X86330042Y-45184542D01*
X86307356Y-45171632D01*
X86285527Y-45157599D01*
X86264555Y-45142443D01*
X86244440Y-45126165D01*
X86225181Y-45108764D01*
X86206940Y-45090306D01*
X86189876Y-45071030D01*
X86173988Y-45050934D01*
X86159277Y-45030019D01*
X86145743Y-45008285D01*
X86133386Y-44985732D01*
X86122206Y-44962360D01*
X86112203Y-44938170D01*
X86103376Y-44913160D01*
X86095727Y-44887331D01*
X86089254Y-44860684D01*
X86083958Y-44833217D01*
X86079839Y-44804932D01*
X86076897Y-44775828D01*
X86075131Y-44745904D01*
X86074543Y-44715162D01*
X86075129Y-44684420D01*
X86076886Y-44654497D01*
X86079814Y-44625392D01*
X86083915Y-44597107D01*
X86089186Y-44569640D01*
X86095629Y-44542993D01*
X86103243Y-44517164D01*
X86112029Y-44492155D01*
X86121986Y-44467964D01*
X86133115Y-44444592D01*
X86145415Y-44422039D01*
X86158887Y-44400305D01*
X86173530Y-44379391D01*
X86189344Y-44359295D01*
X86206330Y-44340018D01*
X86224488Y-44321560D01*
X86243748Y-44304075D01*
X86263872Y-44287719D01*
X86284857Y-44272490D01*
X86306705Y-44258390D01*
X86329415Y-44245418D01*
X86352988Y-44233573D01*
X86377423Y-44222857D01*
X86402720Y-44213268D01*
X86428879Y-44204808D01*
X86455901Y-44197476D01*
X86483785Y-44191271D01*
X86512532Y-44186195D01*
X86542140Y-44182247D01*
X86572611Y-44179427D01*
X86603945Y-44177734D01*
X86636140Y-44177170D01*
X86657565Y-44177471D01*
G37*
G36*
X86614727Y-42799160D02*
G01*
X86659760Y-42801631D01*
X86705372Y-42805750D01*
X86751563Y-42811515D01*
X86798333Y-42818928D01*
X86845681Y-42827988D01*
X86893608Y-42838695D01*
X86942115Y-42851050D01*
X86942115Y-43076150D01*
X86920129Y-43066575D01*
X86898339Y-43057618D01*
X86876743Y-43049279D01*
X86855342Y-43041557D01*
X86834136Y-43034453D01*
X86813125Y-43027967D01*
X86792308Y-43022099D01*
X86771686Y-43016848D01*
X86751259Y-43012216D01*
X86731027Y-43008200D01*
X86710990Y-43004803D01*
X86691147Y-43002023D01*
X86671499Y-42999862D01*
X86652046Y-42998317D01*
X86632788Y-42997391D01*
X86613725Y-42997082D01*
X86588659Y-42997538D01*
X86576828Y-42998109D01*
X86565464Y-42998907D01*
X86554567Y-42999934D01*
X86544138Y-43001189D01*
X86534176Y-43002672D01*
X86524682Y-43004384D01*
X86515655Y-43006323D01*
X86507096Y-43008491D01*
X86499004Y-43010887D01*
X86491380Y-43013511D01*
X86484223Y-43016363D01*
X86477534Y-43019444D01*
X86471312Y-43022752D01*
X86465558Y-43026289D01*
X86460209Y-43029948D01*
X86455206Y-43033802D01*
X86452834Y-43035802D01*
X86450548Y-43037851D01*
X86448349Y-43039948D01*
X86446235Y-43042094D01*
X86444208Y-43044289D01*
X86442267Y-43046532D01*
X86440413Y-43048824D01*
X86438644Y-43051165D01*
X86436962Y-43053555D01*
X86435366Y-43055993D01*
X86433857Y-43058480D01*
X86432434Y-43061016D01*
X86431097Y-43063600D01*
X86429846Y-43066233D01*
X86428681Y-43068915D01*
X86427603Y-43071645D01*
X86426611Y-43074425D01*
X86425705Y-43077252D01*
X86424886Y-43080129D01*
X86424153Y-43083054D01*
X86423506Y-43086028D01*
X86422945Y-43089051D01*
X86422082Y-43095242D01*
X86421565Y-43101628D01*
X86421392Y-43108210D01*
X86421526Y-43113736D01*
X86421927Y-43119095D01*
X86422594Y-43124287D01*
X86423529Y-43129312D01*
X86424731Y-43134171D01*
X86426201Y-43138862D01*
X86427937Y-43143386D01*
X86429940Y-43147744D01*
X86432211Y-43151935D01*
X86434749Y-43155958D01*
X86437554Y-43159815D01*
X86440626Y-43163505D01*
X86443965Y-43167027D01*
X86447571Y-43170383D01*
X86451444Y-43173572D01*
X86455585Y-43176594D01*
X86460031Y-43179418D01*
X86464823Y-43182193D01*
X86469960Y-43184917D01*
X86475441Y-43187591D01*
X86481268Y-43190215D01*
X86487440Y-43192789D01*
X86493957Y-43195312D01*
X86500819Y-43197786D01*
X86508026Y-43200209D01*
X86515577Y-43202583D01*
X86523474Y-43204906D01*
X86531716Y-43207179D01*
X86540303Y-43209402D01*
X86549236Y-43211575D01*
X86558513Y-43213698D01*
X86568135Y-43215771D01*
X86684959Y-43239277D01*
X86705964Y-43243698D01*
X86726241Y-43248415D01*
X86745789Y-43253427D01*
X86764607Y-43258733D01*
X86782697Y-43264335D01*
X86800058Y-43270231D01*
X86816689Y-43276422D01*
X86832592Y-43282908D01*
X86847765Y-43289689D01*
X86862209Y-43296765D01*
X86875925Y-43304136D01*
X86888911Y-43311802D01*
X86901168Y-43319763D01*
X86912697Y-43328018D01*
X86923496Y-43336568D01*
X86933566Y-43345414D01*
X86943055Y-43354577D01*
X86951931Y-43364258D01*
X86960196Y-43374457D01*
X86967848Y-43385172D01*
X86974888Y-43396406D01*
X86981316Y-43408157D01*
X86987131Y-43420425D01*
X86992335Y-43433211D01*
X86996926Y-43446514D01*
X87000905Y-43460335D01*
X87004272Y-43474674D01*
X87007027Y-43489530D01*
X87009169Y-43504903D01*
X87010700Y-43520794D01*
X87011618Y-43537202D01*
X87011924Y-43554128D01*
X87011501Y-43576534D01*
X87010232Y-43598160D01*
X87008117Y-43619007D01*
X87005157Y-43639076D01*
X87001350Y-43658365D01*
X86996698Y-43676874D01*
X86991199Y-43694605D01*
X86984855Y-43711557D01*
X86977665Y-43727729D01*
X86969629Y-43743122D01*
X86960747Y-43757736D01*
X86951019Y-43771571D01*
X86940445Y-43784627D01*
X86929025Y-43796904D01*
X86916759Y-43808401D01*
X86903648Y-43819119D01*
X86889729Y-43829125D01*
X86875043Y-43838485D01*
X86859588Y-43847200D01*
X86843366Y-43855270D01*
X86826375Y-43862693D01*
X86808617Y-43869472D01*
X86790090Y-43875604D01*
X86770796Y-43881092D01*
X86750733Y-43885933D01*
X86729903Y-43890129D01*
X86708305Y-43893680D01*
X86685938Y-43896585D01*
X86662804Y-43898845D01*
X86638901Y-43900458D01*
X86614231Y-43901427D01*
X86588792Y-43901750D01*
X86563579Y-43901452D01*
X86538339Y-43900559D01*
X86513070Y-43899070D01*
X86487773Y-43896986D01*
X86462449Y-43894306D01*
X86437097Y-43891031D01*
X86411717Y-43887161D01*
X86386309Y-43882695D01*
X86360873Y-43877633D01*
X86335410Y-43871977D01*
X86309918Y-43865724D01*
X86284399Y-43858876D01*
X86258852Y-43851433D01*
X86233278Y-43843394D01*
X86207675Y-43834760D01*
X86182045Y-43825530D01*
X86182045Y-43594019D01*
X86207739Y-43607218D01*
X86233177Y-43619564D01*
X86258360Y-43631059D01*
X86283286Y-43641703D01*
X86307957Y-43651495D01*
X86332371Y-43660435D01*
X86356530Y-43668524D01*
X86380432Y-43675762D01*
X86404079Y-43682148D01*
X86427469Y-43687682D01*
X86450603Y-43692366D01*
X86473482Y-43696197D01*
X86496104Y-43699177D01*
X86518471Y-43701306D01*
X86540581Y-43702583D01*
X86562435Y-43703009D01*
X86576226Y-43702842D01*
X86589460Y-43702341D01*
X86602137Y-43701506D01*
X86614258Y-43700337D01*
X86625822Y-43698834D01*
X86636830Y-43696997D01*
X86647282Y-43694826D01*
X86657177Y-43692321D01*
X86661993Y-43690868D01*
X86666649Y-43689359D01*
X86671143Y-43687795D01*
X86675475Y-43686175D01*
X86679646Y-43684500D01*
X86683656Y-43682769D01*
X86687504Y-43680982D01*
X86691191Y-43679140D01*
X86694717Y-43677242D01*
X86698081Y-43675289D01*
X86701284Y-43673280D01*
X86704325Y-43671216D01*
X86707205Y-43669096D01*
X86709923Y-43666921D01*
X86712481Y-43664690D01*
X86714876Y-43662404D01*
X86717147Y-43660005D01*
X86719329Y-43657618D01*
X86721421Y-43655241D01*
X86723425Y-43652876D01*
X86725339Y-43650522D01*
X86727164Y-43648179D01*
X86728901Y-43645847D01*
X86730548Y-43643527D01*
X86732106Y-43641217D01*
X86733575Y-43638919D01*
X86734956Y-43636631D01*
X86736247Y-43634355D01*
X86737449Y-43632090D01*
X86738562Y-43629836D01*
X86739586Y-43627593D01*
X86740521Y-43625361D01*
X86741384Y-43623126D01*
X86742191Y-43620875D01*
X86742942Y-43618607D01*
X86743638Y-43616322D01*
X86744278Y-43614021D01*
X86744862Y-43611703D01*
X86745391Y-43609369D01*
X86745864Y-43607017D01*
X86746281Y-43604649D01*
X86746643Y-43602265D01*
X86746949Y-43599864D01*
X86747200Y-43597446D01*
X86747394Y-43595012D01*
X86747533Y-43592560D01*
X86747617Y-43590093D01*
X86747645Y-43587608D01*
X86747500Y-43581036D01*
X86747066Y-43574676D01*
X86746343Y-43568526D01*
X86745330Y-43562589D01*
X86744027Y-43556862D01*
X86742436Y-43551347D01*
X86740555Y-43546043D01*
X86738384Y-43540951D01*
X86735925Y-43536070D01*
X86733175Y-43531401D01*
X86730137Y-43526943D01*
X86726809Y-43522697D01*
X86723191Y-43518662D01*
X86719284Y-43514838D01*
X86715088Y-43511227D01*
X86710603Y-43507826D01*
X86705858Y-43504559D01*
X86700708Y-43501348D01*
X86695151Y-43498193D01*
X86689188Y-43495093D01*
X86682818Y-43492049D01*
X86676043Y-43489061D01*
X86668861Y-43486128D01*
X86661273Y-43483251D01*
X86653279Y-43480430D01*
X86644878Y-43477664D01*
X86636071Y-43474954D01*
X86626858Y-43472300D01*
X86617239Y-43469701D01*
X86607213Y-43467158D01*
X86596781Y-43464670D01*
X86585943Y-43462238D01*
X86479804Y-43438732D01*
X86461127Y-43434397D01*
X86443029Y-43429761D01*
X86425510Y-43424825D01*
X86408569Y-43419588D01*
X86392208Y-43414051D01*
X86376425Y-43408213D01*
X86361221Y-43402074D01*
X86346595Y-43395635D01*
X86332549Y-43388896D01*
X86319081Y-43381856D01*
X86306192Y-43374516D01*
X86293882Y-43366875D01*
X86282151Y-43358933D01*
X86270998Y-43350691D01*
X86260424Y-43342148D01*
X86250429Y-43333305D01*
X86241027Y-43324073D01*
X86232231Y-43314361D01*
X86224042Y-43304172D01*
X86216459Y-43293503D01*
X86209483Y-43282356D01*
X86203114Y-43270731D01*
X86197351Y-43258626D01*
X86192195Y-43246043D01*
X86187646Y-43232982D01*
X86183703Y-43219442D01*
X86180366Y-43205423D01*
X86177637Y-43190926D01*
X86175514Y-43175949D01*
X86173997Y-43160495D01*
X86173087Y-43144561D01*
X86172784Y-43128149D01*
X86173196Y-43107900D01*
X86174431Y-43088292D01*
X86176490Y-43069323D01*
X86179373Y-43050994D01*
X86183079Y-43033305D01*
X86187610Y-43016256D01*
X86192963Y-42999847D01*
X86199141Y-42984078D01*
X86206142Y-42968949D01*
X86213966Y-42954460D01*
X86222614Y-42940611D01*
X86232086Y-42927402D01*
X86242382Y-42914834D01*
X86253501Y-42902905D01*
X86265444Y-42891616D01*
X86278211Y-42880967D01*
X86291706Y-42870962D01*
X86305836Y-42861601D01*
X86320600Y-42852886D01*
X86335999Y-42844817D01*
X86352033Y-42837393D01*
X86368700Y-42830615D01*
X86386002Y-42824482D01*
X86403939Y-42818995D01*
X86422510Y-42814153D01*
X86441716Y-42809957D01*
X86461555Y-42806406D01*
X86482030Y-42803501D01*
X86503138Y-42801242D01*
X86524882Y-42799628D01*
X86547259Y-42798660D01*
X86570271Y-42798337D01*
X86570272Y-42798337D01*
X86614727Y-42799160D01*
G37*
D11*
X91723015Y-41161578D02*
X83351015Y-41161578D01*
D12*
G36*
X56905673Y-42562097D02*
G01*
X56905199Y-42589380D01*
X56903777Y-42616273D01*
X56901407Y-42642777D01*
X56898089Y-42668892D01*
X56893823Y-42694618D01*
X56888609Y-42719954D01*
X56882448Y-42744902D01*
X56875338Y-42769459D01*
X56867280Y-42793628D01*
X56858275Y-42817407D01*
X56848321Y-42840797D01*
X56837419Y-42863798D01*
X56825570Y-42886410D01*
X56812772Y-42908632D01*
X56799027Y-42930465D01*
X56784333Y-42951909D01*
X56768921Y-42972771D01*
X56752872Y-42993006D01*
X56736186Y-43012613D01*
X56718864Y-43031593D01*
X56700905Y-43049946D01*
X56682310Y-43067671D01*
X56663078Y-43084768D01*
X56643210Y-43101239D01*
X56622705Y-43117082D01*
X56601563Y-43132297D01*
X56579785Y-43146886D01*
X56557370Y-43160846D01*
X56534319Y-43174180D01*
X56510631Y-43186886D01*
X56486307Y-43198964D01*
X56461346Y-43210415D01*
X56435962Y-43221205D01*
X56410220Y-43231298D01*
X56384121Y-43240695D01*
X56357665Y-43249397D01*
X56330852Y-43257402D01*
X56303681Y-43264711D01*
X56276154Y-43271323D01*
X56248269Y-43277240D01*
X56220027Y-43282461D01*
X56191427Y-43286986D01*
X56162471Y-43290814D01*
X56133157Y-43293946D01*
X56103486Y-43296383D01*
X56073458Y-43298123D01*
X56043073Y-43299167D01*
X56012330Y-43299515D01*
X55979500Y-43299268D01*
X55947175Y-43298526D01*
X55915354Y-43297290D01*
X55884039Y-43295558D01*
X55853228Y-43293333D01*
X55822922Y-43290613D01*
X55793121Y-43287398D01*
X55763825Y-43283688D01*
X55735034Y-43279484D01*
X55706748Y-43274786D01*
X55688171Y-43271378D01*
X55660960Y-43265933D01*
X55634501Y-43260147D01*
X55608794Y-43254021D01*
X55583840Y-43247556D01*
X55559637Y-43240750D01*
X55536187Y-43233604D01*
X55513489Y-43226118D01*
X55484395Y-43215608D01*
X55456639Y-43204493D01*
X55436699Y-43195761D01*
X55411117Y-43183442D01*
X55386250Y-43170518D01*
X55362098Y-43156990D01*
X55338660Y-43142858D01*
X55315936Y-43128121D01*
X55293927Y-43112779D01*
X55272632Y-43096833D01*
X55252051Y-43080283D01*
X55232322Y-43063219D01*
X55213583Y-43046028D01*
X55195833Y-43028708D01*
X55179071Y-43011260D01*
X55163299Y-42993683D01*
X55144975Y-42971533D01*
X55128197Y-42949182D01*
X55121919Y-42940185D01*
X55106946Y-42917199D01*
X55092804Y-42893668D01*
X55079492Y-42869594D01*
X55067010Y-42844976D01*
X55055358Y-42819814D01*
X55044536Y-42794109D01*
X55040439Y-42783674D01*
X55030851Y-42757723D01*
X55022235Y-42732257D01*
X55014593Y-42707279D01*
X55007924Y-42682787D01*
X55002228Y-42658781D01*
X54997506Y-42635262D01*
X54995889Y-42625991D01*
X54992300Y-42602655D01*
X54989226Y-42579177D01*
X54986667Y-42555555D01*
X54984624Y-42531790D01*
X54983095Y-42507882D01*
X54982082Y-42483830D01*
X54981821Y-42474170D01*
X55377494Y-42474170D01*
X55380416Y-42498167D01*
X55384199Y-42521504D01*
X55390138Y-42549748D01*
X55397422Y-42576962D01*
X55406052Y-42603146D01*
X55416027Y-42628299D01*
X55424975Y-42647680D01*
X55437340Y-42670792D01*
X55450621Y-42692502D01*
X55464817Y-42712810D01*
X55479930Y-42731715D01*
X55495958Y-42749217D01*
X55516401Y-42768369D01*
X55519937Y-42771364D01*
X55541403Y-42788435D01*
X55563159Y-42804475D01*
X55585202Y-42819484D01*
X55607534Y-42833463D01*
X55630155Y-42846412D01*
X55637759Y-42850499D01*
X55660971Y-42862012D01*
X55684883Y-42872371D01*
X55709496Y-42881576D01*
X55734809Y-42889627D01*
X55760823Y-42896524D01*
X55769651Y-42898566D01*
X55795569Y-42903931D01*
X55820126Y-42908595D01*
X55843324Y-42912559D01*
X55868669Y-42916298D01*
X55892163Y-42919083D01*
X55918285Y-42921391D01*
X55944480Y-42923039D01*
X55970748Y-42924028D01*
X55997090Y-42924358D01*
X56026376Y-42923978D01*
X56054883Y-42922838D01*
X56082613Y-42920937D01*
X56109563Y-42918277D01*
X56135735Y-42914856D01*
X56161129Y-42910674D01*
X56185744Y-42905733D01*
X56209581Y-42900032D01*
X56232639Y-42893570D01*
X56265766Y-42882452D01*
X56297142Y-42869623D01*
X56326766Y-42855084D01*
X56354638Y-42838835D01*
X56372247Y-42827052D01*
X56396864Y-42808321D01*
X56419061Y-42788838D01*
X56438836Y-42768602D01*
X56456190Y-42747615D01*
X56471122Y-42725875D01*
X56483633Y-42703383D01*
X56493722Y-42680139D01*
X56501390Y-42656143D01*
X56506636Y-42631394D01*
X56509461Y-42605894D01*
X56510000Y-42588475D01*
X56509377Y-42562830D01*
X56507508Y-42539236D01*
X56503917Y-42515145D01*
X56500034Y-42498203D01*
X56491287Y-42474985D01*
X56479108Y-42454480D01*
X56462848Y-42434346D01*
X56454312Y-42425517D01*
X56436287Y-42408261D01*
X56417383Y-42392251D01*
X56397599Y-42377486D01*
X56376936Y-42363967D01*
X56356456Y-42352515D01*
X56335284Y-42342431D01*
X56310775Y-42332099D01*
X56287800Y-42323301D01*
X56262506Y-42314331D01*
X56246217Y-42308866D01*
X56223915Y-42301548D01*
X56201557Y-42294248D01*
X56179145Y-42286967D01*
X56156678Y-42279704D01*
X56134156Y-42272459D01*
X56111578Y-42265232D01*
X56088946Y-42258024D01*
X56066259Y-42250834D01*
X56042601Y-42243333D01*
X56016763Y-42235190D01*
X55988746Y-42226407D01*
X55966302Y-42219398D01*
X55942632Y-42212029D01*
X55917736Y-42204300D01*
X55891613Y-42196209D01*
X55864265Y-42187758D01*
X55835690Y-42178947D01*
X55815959Y-42172872D01*
X55784339Y-42163726D01*
X55754108Y-42154902D01*
X55725263Y-42146397D01*
X55697807Y-42138214D01*
X55671737Y-42130351D01*
X55647056Y-42122808D01*
X55623762Y-42115586D01*
X55591423Y-42105354D01*
X55562206Y-42095844D01*
X55536111Y-42087054D01*
X55513138Y-42078986D01*
X55487365Y-42069351D01*
X55476559Y-42065014D01*
X55441255Y-42049959D01*
X55407591Y-42034102D01*
X55375566Y-42017444D01*
X55345181Y-41999984D01*
X55316435Y-41981724D01*
X55289329Y-41962661D01*
X55263862Y-41942797D01*
X55240034Y-41922132D01*
X55217846Y-41900665D01*
X55197298Y-41878397D01*
X55178389Y-41855328D01*
X55161120Y-41831457D01*
X55145490Y-41806785D01*
X55131499Y-41781311D01*
X55119148Y-41755036D01*
X55108436Y-41727959D01*
X55100331Y-41704008D01*
X55093306Y-41679342D01*
X55087361Y-41653963D01*
X55082498Y-41627868D01*
X55078715Y-41601060D01*
X55076013Y-41573536D01*
X55074392Y-41545299D01*
X55073852Y-41516347D01*
X55074795Y-41477560D01*
X55077625Y-41439749D01*
X55082342Y-41402914D01*
X55088946Y-41367054D01*
X55097436Y-41332169D01*
X55107814Y-41298260D01*
X55120078Y-41265326D01*
X55134228Y-41233367D01*
X55150266Y-41202384D01*
X55168190Y-41172377D01*
X55188002Y-41143345D01*
X55209699Y-41115288D01*
X55233284Y-41088207D01*
X55258756Y-41062101D01*
X55286114Y-41036971D01*
X55315359Y-41012816D01*
X55346042Y-40989888D01*
X55377714Y-40968440D01*
X55410375Y-40948471D01*
X55444026Y-40929981D01*
X55478666Y-40912970D01*
X55514295Y-40897439D01*
X55550913Y-40883386D01*
X55588520Y-40870813D01*
X55627117Y-40859719D01*
X55666702Y-40850104D01*
X55707277Y-40841969D01*
X55748841Y-40835312D01*
X55791394Y-40830135D01*
X55834937Y-40826437D01*
X55879468Y-40824219D01*
X55924989Y-40823479D01*
X55949662Y-40823670D01*
X55974002Y-40824244D01*
X55998008Y-40825200D01*
X56021682Y-40826538D01*
X56068029Y-40830362D01*
X56113044Y-40835715D01*
X56156726Y-40842599D01*
X56199075Y-40851011D01*
X56240092Y-40860953D01*
X56279776Y-40872425D01*
X56318128Y-40885427D01*
X56355146Y-40899957D01*
X56390833Y-40916018D01*
X56425186Y-40933608D01*
X56458207Y-40952728D01*
X56489895Y-40973377D01*
X56520251Y-40995556D01*
X56549274Y-41019264D01*
X56577035Y-41044374D01*
X56603459Y-41070756D01*
X56628546Y-41098412D01*
X56652295Y-41127341D01*
X56674708Y-41157544D01*
X56695783Y-41189019D01*
X56715521Y-41221767D01*
X56733921Y-41255789D01*
X56750985Y-41291083D01*
X56766711Y-41327651D01*
X56781100Y-41365492D01*
X56794152Y-41404606D01*
X56805866Y-41444993D01*
X56816243Y-41486653D01*
X56825283Y-41529587D01*
X56832986Y-41573793D01*
X56437313Y-41573793D01*
X56430852Y-41540777D01*
X56422681Y-41509214D01*
X56412800Y-41479104D01*
X56401208Y-41450447D01*
X56387905Y-41423243D01*
X56372892Y-41397492D01*
X56356169Y-41373193D01*
X56337735Y-41350347D01*
X56317591Y-41328955D01*
X56295736Y-41309015D01*
X56280216Y-41296528D01*
X56255692Y-41279034D01*
X56229603Y-41263260D01*
X56201947Y-41249207D01*
X56172725Y-41236875D01*
X56141936Y-41226264D01*
X56109582Y-41217373D01*
X56075661Y-41210203D01*
X56052177Y-41206379D01*
X56027997Y-41203320D01*
X56003121Y-41201026D01*
X55977549Y-41199496D01*
X55951280Y-41198732D01*
X55937885Y-41198636D01*
X55913364Y-41198924D01*
X55889333Y-41199790D01*
X55865791Y-41201233D01*
X55831398Y-41204478D01*
X55798108Y-41209022D01*
X55765920Y-41214865D01*
X55734835Y-41222005D01*
X55704852Y-41230444D01*
X55675971Y-41240182D01*
X55648193Y-41251217D01*
X55621518Y-41263551D01*
X55604347Y-41272495D01*
X55580253Y-41287008D01*
X55558529Y-41302851D01*
X55539174Y-41320022D01*
X55522190Y-41338523D01*
X55507575Y-41358353D01*
X55495331Y-41379512D01*
X55485456Y-41402001D01*
X55477951Y-41425818D01*
X55472817Y-41450965D01*
X55470052Y-41477441D01*
X55469525Y-41495831D01*
X55470627Y-41520706D01*
X55473935Y-41544335D01*
X55481775Y-41573901D01*
X55493536Y-41601250D01*
X55509216Y-41626382D01*
X55528816Y-41649298D01*
X55552337Y-41669998D01*
X55572550Y-41684068D01*
X55594968Y-41696891D01*
X55622095Y-41709847D01*
X55644187Y-41719446D01*
X55669484Y-41729814D01*
X55697987Y-41740951D01*
X55729696Y-41752858D01*
X55764611Y-41765534D01*
X55802731Y-41778980D01*
X55844057Y-41793195D01*
X55888588Y-41808179D01*
X55912056Y-41815960D01*
X55936326Y-41823933D01*
X55961396Y-41832098D01*
X55987269Y-41840456D01*
X56013942Y-41849006D01*
X56041417Y-41857748D01*
X56069694Y-41866683D01*
X56098772Y-41875810D01*
X56128651Y-41885129D01*
X56159332Y-41894641D01*
X56190814Y-41904345D01*
X56223097Y-41914242D01*
X56256182Y-41924330D01*
X56269078Y-41929020D01*
X56296149Y-41937767D01*
X56321675Y-41946056D01*
X56345654Y-41953887D01*
X56368088Y-41961260D01*
X56392969Y-41969503D01*
X56415624Y-41977087D01*
X56437943Y-41984574D01*
X56461374Y-41992969D01*
X56485918Y-42002270D01*
X56511575Y-42012478D01*
X56533806Y-42021677D01*
X56547515Y-42027498D01*
X56570092Y-42037236D01*
X56595372Y-42048996D01*
X56618672Y-42060839D01*
X56639995Y-42072764D01*
X56662370Y-42086781D01*
X56668269Y-42090806D01*
X56688697Y-42105384D01*
X56709462Y-42121421D01*
X56730563Y-42138916D01*
X56748918Y-42155072D01*
X56764403Y-42169355D01*
X56782483Y-42187208D01*
X56798914Y-42205597D01*
X56813697Y-42224522D01*
X56826831Y-42243983D01*
X56840071Y-42267365D01*
X56841779Y-42270764D01*
X56853384Y-42295540D01*
X56862616Y-42318250D01*
X56871189Y-42342320D01*
X56879102Y-42367751D01*
X56886356Y-42394541D01*
X56887501Y-42399138D01*
X56892736Y-42422591D01*
X56897084Y-42446789D01*
X56900544Y-42471730D01*
X56903118Y-42497416D01*
X56904803Y-42523845D01*
X56905602Y-42551019D01*
X56905673Y-42562097D01*
G37*
G36*
X58793768Y-42527512D02*
G01*
X58792859Y-42568479D01*
X58790132Y-42608580D01*
X58785586Y-42647815D01*
X58779223Y-42686185D01*
X58771042Y-42723689D01*
X58761042Y-42760328D01*
X58749225Y-42796101D01*
X58735589Y-42831009D01*
X58720135Y-42865051D01*
X58702864Y-42898227D01*
X58683774Y-42930538D01*
X58662866Y-42961984D01*
X58640140Y-42992564D01*
X58615596Y-43022278D01*
X58589234Y-43051127D01*
X58561053Y-43079110D01*
X58531579Y-43105800D01*
X58501189Y-43130768D01*
X58469883Y-43154014D01*
X58437662Y-43175538D01*
X58404524Y-43195340D01*
X58370471Y-43213420D01*
X58335501Y-43229778D01*
X58299616Y-43244414D01*
X58262814Y-43257328D01*
X58225097Y-43268521D01*
X58186464Y-43277991D01*
X58146915Y-43285740D01*
X58106450Y-43291767D01*
X58065069Y-43296071D01*
X58022773Y-43298654D01*
X57979560Y-43299515D01*
X57950662Y-43299052D01*
X57922002Y-43297660D01*
X57893578Y-43295342D01*
X57865392Y-43292096D01*
X57837442Y-43287923D01*
X57809729Y-43282823D01*
X57782254Y-43276795D01*
X57755015Y-43269840D01*
X57728014Y-43261957D01*
X57701249Y-43253147D01*
X57683538Y-43246759D01*
X57657379Y-43236417D01*
X57631880Y-43225395D01*
X57607041Y-43213693D01*
X57582861Y-43201311D01*
X57559340Y-43188249D01*
X57536479Y-43174507D01*
X57514277Y-43160085D01*
X57492735Y-43144983D01*
X57471852Y-43129200D01*
X57451629Y-43112738D01*
X57438513Y-43101385D01*
X57419425Y-43083764D01*
X57401068Y-43065411D01*
X57383443Y-43046326D01*
X57366550Y-43026510D01*
X57350388Y-43005962D01*
X57334958Y-42984682D01*
X57320259Y-42962671D01*
X57306292Y-42939929D01*
X57293057Y-42916454D01*
X57280553Y-42892249D01*
X57272623Y-42875705D01*
X57261624Y-42850355D01*
X57251706Y-42824645D01*
X57242871Y-42798574D01*
X57235117Y-42772143D01*
X57228445Y-42745351D01*
X57222855Y-42718198D01*
X57218347Y-42690685D01*
X57214921Y-42662811D01*
X57212577Y-42634576D01*
X57211315Y-42605981D01*
X57211074Y-42586717D01*
X57606748Y-42586717D01*
X57611283Y-42613746D01*
X57617416Y-42639879D01*
X57625145Y-42665115D01*
X57634472Y-42689455D01*
X57645396Y-42712898D01*
X57657917Y-42735445D01*
X57672035Y-42757095D01*
X57687751Y-42777849D01*
X57705063Y-42797707D01*
X57723973Y-42816668D01*
X57737466Y-42828810D01*
X57758529Y-42845886D01*
X57779953Y-42861282D01*
X57801738Y-42874998D01*
X57823883Y-42887035D01*
X57846388Y-42897392D01*
X57869254Y-42906070D01*
X57892481Y-42913068D01*
X57916069Y-42918386D01*
X57940017Y-42922025D01*
X57964326Y-42923985D01*
X57980732Y-42924358D01*
X58004734Y-42923919D01*
X58039517Y-42921610D01*
X58072836Y-42917324D01*
X58104693Y-42911059D01*
X58135086Y-42902816D01*
X58164016Y-42892594D01*
X58191483Y-42880394D01*
X58217487Y-42866216D01*
X58242028Y-42850060D01*
X58265105Y-42831924D01*
X58286720Y-42811811D01*
X58306624Y-42790150D01*
X58324570Y-42767593D01*
X58340558Y-42744140D01*
X58354589Y-42719790D01*
X58366661Y-42694543D01*
X58376777Y-42668400D01*
X58384934Y-42641361D01*
X58391133Y-42613425D01*
X58395375Y-42584593D01*
X58397659Y-42554864D01*
X58398094Y-42534547D01*
X58396976Y-42505376D01*
X58393622Y-42477215D01*
X58388033Y-42450064D01*
X58380207Y-42423923D01*
X58370145Y-42398791D01*
X58357847Y-42374670D01*
X58343313Y-42351558D01*
X58326543Y-42329456D01*
X58307538Y-42308364D01*
X58286296Y-42288281D01*
X58270893Y-42275454D01*
X58246596Y-42257331D01*
X58221186Y-42240990D01*
X58194664Y-42226433D01*
X58167028Y-42213657D01*
X58138280Y-42202665D01*
X58108419Y-42193455D01*
X58077446Y-42186027D01*
X58045359Y-42180382D01*
X58012159Y-42176520D01*
X57977847Y-42174440D01*
X57954354Y-42174044D01*
X57929624Y-42174602D01*
X57904895Y-42176277D01*
X57880165Y-42179067D01*
X57855436Y-42182974D01*
X57830706Y-42187997D01*
X57805976Y-42194137D01*
X57796085Y-42196905D01*
X57796085Y-41798887D01*
X57829653Y-41798136D01*
X57861920Y-41796762D01*
X57892887Y-41794766D01*
X57922554Y-41792146D01*
X57950919Y-41788904D01*
X57977984Y-41785039D01*
X58003749Y-41780551D01*
X58028213Y-41775440D01*
X58051376Y-41769706D01*
X58083683Y-41759938D01*
X58113063Y-41748769D01*
X58139517Y-41736198D01*
X58163044Y-41722225D01*
X58177103Y-41712132D01*
X58196274Y-41695524D01*
X58213559Y-41677133D01*
X58228958Y-41656959D01*
X58242472Y-41635003D01*
X58254100Y-41611265D01*
X58263843Y-41585743D01*
X58271699Y-41558439D01*
X58277670Y-41529353D01*
X58281756Y-41498484D01*
X58283956Y-41465832D01*
X58284375Y-41443074D01*
X58281913Y-41414223D01*
X58274529Y-41386288D01*
X58265077Y-41364599D01*
X58252474Y-41343496D01*
X58236720Y-41322980D01*
X58217816Y-41303050D01*
X58195761Y-41283706D01*
X58183551Y-41274254D01*
X58158355Y-41256531D01*
X58132883Y-41241171D01*
X58107137Y-41228174D01*
X58081116Y-41217540D01*
X58054820Y-41209270D01*
X58028250Y-41203362D01*
X58001404Y-41199817D01*
X57974284Y-41198636D01*
X57948742Y-41199347D01*
X57923994Y-41201480D01*
X57900039Y-41205035D01*
X57876877Y-41210012D01*
X57847229Y-41218859D01*
X57818992Y-41230235D01*
X57792165Y-41244138D01*
X57766748Y-41260570D01*
X57742742Y-41279529D01*
X57720696Y-41300650D01*
X57701160Y-41323566D01*
X57684133Y-41348277D01*
X57669616Y-41374784D01*
X57657608Y-41403086D01*
X57650249Y-41425490D01*
X57644302Y-41448904D01*
X57639767Y-41473328D01*
X57636643Y-41498762D01*
X57240969Y-41498762D01*
X57241787Y-41463222D01*
X57244239Y-41428410D01*
X57248327Y-41394327D01*
X57254049Y-41360972D01*
X57261406Y-41328345D01*
X57270398Y-41296446D01*
X57281025Y-41265275D01*
X57293286Y-41234833D01*
X57307183Y-41205118D01*
X57322715Y-41176132D01*
X57339881Y-41147874D01*
X57358682Y-41120344D01*
X57379119Y-41093542D01*
X57401190Y-41067468D01*
X57424896Y-41042123D01*
X57450237Y-41017505D01*
X57476782Y-40994010D01*
X57504101Y-40972030D01*
X57532195Y-40951567D01*
X57561062Y-40932619D01*
X57590703Y-40915187D01*
X57621118Y-40899271D01*
X57652307Y-40884870D01*
X57684270Y-40871986D01*
X57717007Y-40860617D01*
X57750518Y-40850764D01*
X57784803Y-40842427D01*
X57819862Y-40835606D01*
X57855694Y-40830300D01*
X57892301Y-40826511D01*
X57929682Y-40824237D01*
X57967836Y-40823479D01*
X58005542Y-40824166D01*
X58042455Y-40826227D01*
X58078577Y-40829661D01*
X58113906Y-40834470D01*
X58148442Y-40840652D01*
X58182187Y-40848209D01*
X58215139Y-40857139D01*
X58247299Y-40867443D01*
X58278667Y-40879120D01*
X58309242Y-40892172D01*
X58339025Y-40906598D01*
X58368016Y-40922397D01*
X58396214Y-40939571D01*
X58423621Y-40958118D01*
X58450235Y-40978039D01*
X58476057Y-40999334D01*
X58500759Y-41021632D01*
X58523867Y-41044708D01*
X58545382Y-41068563D01*
X58565303Y-41093196D01*
X58583630Y-41118608D01*
X58600364Y-41144799D01*
X58615504Y-41171768D01*
X58629050Y-41199515D01*
X58641003Y-41228041D01*
X58651362Y-41257346D01*
X58660127Y-41287429D01*
X58667299Y-41318290D01*
X58672877Y-41349931D01*
X58676861Y-41382349D01*
X58679252Y-41415546D01*
X58680048Y-41449522D01*
X58679796Y-41475335D01*
X58679041Y-41500456D01*
X58677781Y-41524886D01*
X58676018Y-41548624D01*
X58672429Y-41582934D01*
X58667706Y-41615689D01*
X58661850Y-41646888D01*
X58654861Y-41676531D01*
X58646738Y-41704618D01*
X58637481Y-41731149D01*
X58627092Y-41756124D01*
X58615568Y-41779543D01*
X58602887Y-41801497D01*
X58588805Y-41822298D01*
X58573322Y-41841944D01*
X58556437Y-41860436D01*
X58538151Y-41877775D01*
X58518463Y-41893959D01*
X58497375Y-41908989D01*
X58474884Y-41922865D01*
X58450993Y-41935587D01*
X58425700Y-41947155D01*
X58408060Y-41954226D01*
X58431790Y-41958548D01*
X58454766Y-41963746D01*
X58498460Y-41976775D01*
X58539140Y-41993312D01*
X58576807Y-42013357D01*
X58611460Y-42036909D01*
X58643101Y-42063970D01*
X58671727Y-42094539D01*
X58697341Y-42128615D01*
X58719941Y-42166199D01*
X58739528Y-42207292D01*
X58748191Y-42229153D01*
X58756101Y-42251892D01*
X58763258Y-42275508D01*
X58769661Y-42300000D01*
X58775311Y-42325370D01*
X58780208Y-42351616D01*
X58784351Y-42378740D01*
X58787741Y-42406740D01*
X58790378Y-42435618D01*
X58792261Y-42465372D01*
X58793391Y-42496004D01*
X58793768Y-42527512D01*
G37*
D13*
X47792055Y-38347030D02*
X46892055Y-38347030D01*
X46892055Y-37747030D02*
X46892055Y-37575602D01*
X46892055Y-37575602D02*
X46934912Y-37489887D01*
X46934912Y-37489887D02*
X47020626Y-37404173D01*
X47020626Y-37404173D02*
X47192055Y-37361316D01*
X47192055Y-37361316D02*
X47492055Y-37361316D01*
X47492055Y-37361316D02*
X47663483Y-37404173D01*
X47663483Y-37404173D02*
X47749198Y-37489887D01*
X47749198Y-37489887D02*
X47792055Y-37575602D01*
X47792055Y-37575602D02*
X47792055Y-37747030D01*
X47792055Y-37747030D02*
X47749198Y-37832745D01*
X47749198Y-37832745D02*
X47663483Y-37918459D01*
X47663483Y-37918459D02*
X47492055Y-37961316D01*
X47492055Y-37961316D02*
X47192055Y-37961316D01*
X47192055Y-37961316D02*
X47020626Y-37918459D01*
X47020626Y-37918459D02*
X46934912Y-37832745D01*
X46934912Y-37832745D02*
X46892055Y-37747030D01*
X47192055Y-36589888D02*
X47792055Y-36589888D01*
X46849198Y-36804173D02*
X47492055Y-37018459D01*
X47492055Y-37018459D02*
X47492055Y-36461316D01*
X36074398Y-48942057D02*
X36588684Y-48942057D01*
X36331541Y-49842057D02*
X36331541Y-48942057D01*
X36802969Y-48942057D02*
X37402969Y-49842057D01*
X37402969Y-48942057D02*
X36802969Y-49842057D01*
X85194914Y-38445601D02*
X85152057Y-38531316D01*
X85152057Y-38531316D02*
X85152057Y-38659887D01*
X85152057Y-38659887D02*
X85194914Y-38788458D01*
X85194914Y-38788458D02*
X85280628Y-38874173D01*
X85280628Y-38874173D02*
X85366342Y-38917030D01*
X85366342Y-38917030D02*
X85537771Y-38959887D01*
X85537771Y-38959887D02*
X85666342Y-38959887D01*
X85666342Y-38959887D02*
X85837771Y-38917030D01*
X85837771Y-38917030D02*
X85923485Y-38874173D01*
X85923485Y-38874173D02*
X86009200Y-38788458D01*
X86009200Y-38788458D02*
X86052057Y-38659887D01*
X86052057Y-38659887D02*
X86052057Y-38574173D01*
X86052057Y-38574173D02*
X86009200Y-38445601D01*
X86009200Y-38445601D02*
X85966342Y-38402744D01*
X85966342Y-38402744D02*
X85666342Y-38402744D01*
X85666342Y-38402744D02*
X85666342Y-38574173D01*
X86052057Y-38017030D02*
X85152057Y-38017030D01*
X85152057Y-38017030D02*
X86052057Y-37502744D01*
X86052057Y-37502744D02*
X85152057Y-37502744D01*
X86052057Y-37074173D02*
X85152057Y-37074173D01*
X85152057Y-37074173D02*
X85152057Y-36859887D01*
X85152057Y-36859887D02*
X85194914Y-36731316D01*
X85194914Y-36731316D02*
X85280628Y-36645601D01*
X85280628Y-36645601D02*
X85366342Y-36602744D01*
X85366342Y-36602744D02*
X85537771Y-36559887D01*
X85537771Y-36559887D02*
X85666342Y-36559887D01*
X85666342Y-36559887D02*
X85837771Y-36602744D01*
X85837771Y-36602744D02*
X85923485Y-36645601D01*
X85923485Y-36645601D02*
X86009200Y-36731316D01*
X86009200Y-36731316D02*
X86052057Y-36859887D01*
X86052057Y-36859887D02*
X86052057Y-37074173D01*
X52865387Y-38347030D02*
X51965387Y-38347030D01*
X51965387Y-37747030D02*
X51965387Y-37575602D01*
X51965387Y-37575602D02*
X52008244Y-37489887D01*
X52008244Y-37489887D02*
X52093958Y-37404173D01*
X52093958Y-37404173D02*
X52265387Y-37361316D01*
X52265387Y-37361316D02*
X52565387Y-37361316D01*
X52565387Y-37361316D02*
X52736815Y-37404173D01*
X52736815Y-37404173D02*
X52822530Y-37489887D01*
X52822530Y-37489887D02*
X52865387Y-37575602D01*
X52865387Y-37575602D02*
X52865387Y-37747030D01*
X52865387Y-37747030D02*
X52822530Y-37832745D01*
X52822530Y-37832745D02*
X52736815Y-37918459D01*
X52736815Y-37918459D02*
X52565387Y-37961316D01*
X52565387Y-37961316D02*
X52265387Y-37961316D01*
X52265387Y-37961316D02*
X52093958Y-37918459D01*
X52093958Y-37918459D02*
X52008244Y-37832745D01*
X52008244Y-37832745D02*
X51965387Y-37747030D01*
X51965387Y-36589888D02*
X51965387Y-36761316D01*
X51965387Y-36761316D02*
X52008244Y-36847030D01*
X52008244Y-36847030D02*
X52051101Y-36889888D01*
X52051101Y-36889888D02*
X52179672Y-36975602D01*
X52179672Y-36975602D02*
X52351101Y-37018459D01*
X52351101Y-37018459D02*
X52693958Y-37018459D01*
X52693958Y-37018459D02*
X52779672Y-36975602D01*
X52779672Y-36975602D02*
X52822530Y-36932745D01*
X52822530Y-36932745D02*
X52865387Y-36847030D01*
X52865387Y-36847030D02*
X52865387Y-36675602D01*
X52865387Y-36675602D02*
X52822530Y-36589888D01*
X52822530Y-36589888D02*
X52779672Y-36547030D01*
X52779672Y-36547030D02*
X52693958Y-36504173D01*
X52693958Y-36504173D02*
X52479672Y-36504173D01*
X52479672Y-36504173D02*
X52393958Y-36547030D01*
X52393958Y-36547030D02*
X52351101Y-36589888D01*
X52351101Y-36589888D02*
X52308244Y-36675602D01*
X52308244Y-36675602D02*
X52308244Y-36847030D01*
X52308244Y-36847030D02*
X52351101Y-36932745D01*
X52351101Y-36932745D02*
X52393958Y-36975602D01*
X52393958Y-36975602D02*
X52479672Y-37018459D01*
D14*
X76094485Y-53161005D02*
X76132581Y-53122910D01*
X76132581Y-53122910D02*
X76208771Y-53084815D01*
X76208771Y-53084815D02*
X76399247Y-53084815D01*
X76399247Y-53084815D02*
X76475438Y-53122910D01*
X76475438Y-53122910D02*
X76513533Y-53161005D01*
X76513533Y-53161005D02*
X76551628Y-53237196D01*
X76551628Y-53237196D02*
X76551628Y-53313386D01*
X76551628Y-53313386D02*
X76513533Y-53427672D01*
X76513533Y-53427672D02*
X76056390Y-53884815D01*
X76056390Y-53884815D02*
X76551628Y-53884815D01*
X76894486Y-53808624D02*
X76932581Y-53846720D01*
X76932581Y-53846720D02*
X76894486Y-53884815D01*
X76894486Y-53884815D02*
X76856390Y-53846720D01*
X76856390Y-53846720D02*
X76894486Y-53808624D01*
X76894486Y-53808624D02*
X76894486Y-53884815D01*
X77199247Y-53084815D02*
X77732581Y-53084815D01*
X77732581Y-53084815D02*
X77389723Y-53884815D01*
X78037343Y-53351481D02*
X78037343Y-53884815D01*
X78037343Y-53427672D02*
X78075438Y-53389577D01*
X78075438Y-53389577D02*
X78151628Y-53351481D01*
X78151628Y-53351481D02*
X78265914Y-53351481D01*
X78265914Y-53351481D02*
X78342105Y-53389577D01*
X78342105Y-53389577D02*
X78380200Y-53465767D01*
X78380200Y-53465767D02*
X78380200Y-53884815D01*
X78761153Y-53884815D02*
X78761153Y-53084815D01*
X78761153Y-53465767D02*
X79218296Y-53465767D01*
X79218296Y-53884815D02*
X79218296Y-53084815D01*
D13*
X82652057Y-38822744D02*
X82652057Y-38265601D01*
X82652057Y-38265601D02*
X82994914Y-38565601D01*
X82994914Y-38565601D02*
X82994914Y-38437030D01*
X82994914Y-38437030D02*
X83037771Y-38351316D01*
X83037771Y-38351316D02*
X83080628Y-38308458D01*
X83080628Y-38308458D02*
X83166342Y-38265601D01*
X83166342Y-38265601D02*
X83380628Y-38265601D01*
X83380628Y-38265601D02*
X83466342Y-38308458D01*
X83466342Y-38308458D02*
X83509200Y-38351316D01*
X83509200Y-38351316D02*
X83552057Y-38437030D01*
X83552057Y-38437030D02*
X83552057Y-38694173D01*
X83552057Y-38694173D02*
X83509200Y-38779887D01*
X83509200Y-38779887D02*
X83466342Y-38822744D01*
X82652057Y-38008458D02*
X83552057Y-37708458D01*
X83552057Y-37708458D02*
X82652057Y-37408458D01*
X82652057Y-37194172D02*
X82652057Y-36637029D01*
X82652057Y-36637029D02*
X82994914Y-36937029D01*
X82994914Y-36937029D02*
X82994914Y-36808458D01*
X82994914Y-36808458D02*
X83037771Y-36722744D01*
X83037771Y-36722744D02*
X83080628Y-36679886D01*
X83080628Y-36679886D02*
X83166342Y-36637029D01*
X83166342Y-36637029D02*
X83380628Y-36637029D01*
X83380628Y-36637029D02*
X83466342Y-36679886D01*
X83466342Y-36679886D02*
X83509200Y-36722744D01*
X83509200Y-36722744D02*
X83552057Y-36808458D01*
X83552057Y-36808458D02*
X83552057Y-37065601D01*
X83552057Y-37065601D02*
X83509200Y-37151315D01*
X83509200Y-37151315D02*
X83466342Y-37194172D01*
X68302057Y-39187030D02*
X67402057Y-39187030D01*
X67402057Y-38587030D02*
X67402057Y-38415602D01*
X67402057Y-38415602D02*
X67444914Y-38329887D01*
X67444914Y-38329887D02*
X67530628Y-38244173D01*
X67530628Y-38244173D02*
X67702057Y-38201316D01*
X67702057Y-38201316D02*
X68002057Y-38201316D01*
X68002057Y-38201316D02*
X68173485Y-38244173D01*
X68173485Y-38244173D02*
X68259200Y-38329887D01*
X68259200Y-38329887D02*
X68302057Y-38415602D01*
X68302057Y-38415602D02*
X68302057Y-38587030D01*
X68302057Y-38587030D02*
X68259200Y-38672745D01*
X68259200Y-38672745D02*
X68173485Y-38758459D01*
X68173485Y-38758459D02*
X68002057Y-38801316D01*
X68002057Y-38801316D02*
X67702057Y-38801316D01*
X67702057Y-38801316D02*
X67530628Y-38758459D01*
X67530628Y-38758459D02*
X67444914Y-38672745D01*
X67444914Y-38672745D02*
X67402057Y-38587030D01*
X68302057Y-37344173D02*
X68302057Y-37858459D01*
X68302057Y-37601316D02*
X67402057Y-37601316D01*
X67402057Y-37601316D02*
X67530628Y-37687030D01*
X67530628Y-37687030D02*
X67616342Y-37772745D01*
X67616342Y-37772745D02*
X67659200Y-37858459D01*
X67402057Y-37044173D02*
X67402057Y-36487030D01*
X67402057Y-36487030D02*
X67744914Y-36787030D01*
X67744914Y-36787030D02*
X67744914Y-36658459D01*
X67744914Y-36658459D02*
X67787771Y-36572745D01*
X67787771Y-36572745D02*
X67830628Y-36529887D01*
X67830628Y-36529887D02*
X67916342Y-36487030D01*
X67916342Y-36487030D02*
X68130628Y-36487030D01*
X68130628Y-36487030D02*
X68216342Y-36529887D01*
X68216342Y-36529887D02*
X68259200Y-36572745D01*
X68259200Y-36572745D02*
X68302057Y-36658459D01*
X68302057Y-36658459D02*
X68302057Y-36915602D01*
X68302057Y-36915602D02*
X68259200Y-37001316D01*
X68259200Y-37001316D02*
X68216342Y-37044173D01*
X78214398Y-37352057D02*
X77700112Y-37352057D01*
X77957255Y-37352057D02*
X77957255Y-36452057D01*
X77957255Y-36452057D02*
X77871541Y-36580628D01*
X77871541Y-36580628D02*
X77785826Y-36666342D01*
X77785826Y-36666342D02*
X77700112Y-36709200D01*
X78728684Y-36837771D02*
X78642969Y-36794914D01*
X78642969Y-36794914D02*
X78600112Y-36752057D01*
X78600112Y-36752057D02*
X78557255Y-36666342D01*
X78557255Y-36666342D02*
X78557255Y-36623485D01*
X78557255Y-36623485D02*
X78600112Y-36537771D01*
X78600112Y-36537771D02*
X78642969Y-36494914D01*
X78642969Y-36494914D02*
X78728684Y-36452057D01*
X78728684Y-36452057D02*
X78900112Y-36452057D01*
X78900112Y-36452057D02*
X78985827Y-36494914D01*
X78985827Y-36494914D02*
X79028684Y-36537771D01*
X79028684Y-36537771D02*
X79071541Y-36623485D01*
X79071541Y-36623485D02*
X79071541Y-36666342D01*
X79071541Y-36666342D02*
X79028684Y-36752057D01*
X79028684Y-36752057D02*
X78985827Y-36794914D01*
X78985827Y-36794914D02*
X78900112Y-36837771D01*
X78900112Y-36837771D02*
X78728684Y-36837771D01*
X78728684Y-36837771D02*
X78642969Y-36880628D01*
X78642969Y-36880628D02*
X78600112Y-36923485D01*
X78600112Y-36923485D02*
X78557255Y-37009200D01*
X78557255Y-37009200D02*
X78557255Y-37180628D01*
X78557255Y-37180628D02*
X78600112Y-37266342D01*
X78600112Y-37266342D02*
X78642969Y-37309200D01*
X78642969Y-37309200D02*
X78728684Y-37352057D01*
X78728684Y-37352057D02*
X78900112Y-37352057D01*
X78900112Y-37352057D02*
X78985827Y-37309200D01*
X78985827Y-37309200D02*
X79028684Y-37266342D01*
X79028684Y-37266342D02*
X79071541Y-37180628D01*
X79071541Y-37180628D02*
X79071541Y-37009200D01*
X79071541Y-37009200D02*
X79028684Y-36923485D01*
X79028684Y-36923485D02*
X78985827Y-36880628D01*
X78985827Y-36880628D02*
X78900112Y-36837771D01*
D12*
G36*
X60268394Y-42810362D02*
G01*
X60267748Y-42837355D01*
X60265807Y-42863623D01*
X60262573Y-42889165D01*
X60258045Y-42913982D01*
X60252223Y-42938075D01*
X60245107Y-42961442D01*
X60236698Y-42984084D01*
X60226995Y-43006001D01*
X60215999Y-43027193D01*
X60203708Y-43047660D01*
X60190124Y-43067401D01*
X60175246Y-43086418D01*
X60159075Y-43104709D01*
X60141610Y-43122276D01*
X60122851Y-43139117D01*
X60102798Y-43155233D01*
X60081741Y-43170495D01*
X60059971Y-43184771D01*
X60037488Y-43198064D01*
X60014290Y-43210371D01*
X59990379Y-43221694D01*
X59965755Y-43232032D01*
X59940416Y-43241386D01*
X59914364Y-43249755D01*
X59887599Y-43257140D01*
X59860120Y-43263540D01*
X59831927Y-43268955D01*
X59803020Y-43273386D01*
X59773400Y-43276832D01*
X59743066Y-43279293D01*
X59712019Y-43280770D01*
X59680258Y-43281263D01*
X59653701Y-43280966D01*
X59627702Y-43280078D01*
X59602261Y-43278596D01*
X59577378Y-43276523D01*
X59553053Y-43273857D01*
X59529287Y-43270598D01*
X59506079Y-43266747D01*
X59483428Y-43262303D01*
X59461336Y-43257267D01*
X59439803Y-43251639D01*
X59425757Y-43247557D01*
X59405360Y-43241000D01*
X59385754Y-43234150D01*
X59366938Y-43227009D01*
X59343079Y-43217033D01*
X59320623Y-43206539D01*
X59299573Y-43195525D01*
X59279926Y-43183992D01*
X59261685Y-43171940D01*
X59248925Y-43162561D01*
X59232782Y-43149555D01*
X59217326Y-43135938D01*
X59202557Y-43121711D01*
X59188475Y-43106873D01*
X59175080Y-43091425D01*
X59162371Y-43075366D01*
X59150350Y-43058696D01*
X59139016Y-43041416D01*
X59128437Y-43023968D01*
X59118682Y-43006795D01*
X59107648Y-42985714D01*
X59097903Y-42965064D01*
X59089445Y-42944842D01*
X59082275Y-42925050D01*
X59077466Y-42909525D01*
X59072446Y-42890031D01*
X59068069Y-42870322D01*
X59064336Y-42850399D01*
X59061247Y-42830261D01*
X59058802Y-42809908D01*
X59057001Y-42789340D01*
X59056461Y-42781053D01*
X59358834Y-42781053D01*
X59362008Y-42800495D01*
X59368137Y-42825068D01*
X59376434Y-42848099D01*
X59386898Y-42869589D01*
X59399530Y-42889537D01*
X59414330Y-42907943D01*
X59431297Y-42924807D01*
X59450432Y-42940129D01*
X59455554Y-42943719D01*
X59477208Y-42956885D01*
X59500648Y-42968296D01*
X59519399Y-42975702D01*
X59539156Y-42982120D01*
X59559917Y-42987551D01*
X59581683Y-42991995D01*
X59604453Y-42995451D01*
X59628228Y-42997920D01*
X59653008Y-42999401D01*
X59678792Y-42999895D01*
X59703809Y-42999440D01*
X59727753Y-42998074D01*
X59750624Y-42995799D01*
X59772421Y-42992613D01*
X59793145Y-42988517D01*
X59812796Y-42983511D01*
X59837327Y-42975421D01*
X59859950Y-42965712D01*
X59880665Y-42954386D01*
X59890307Y-42948115D01*
X59908052Y-42935041D01*
X59923432Y-42921707D01*
X59939329Y-42904674D01*
X59951529Y-42887236D01*
X59960033Y-42869392D01*
X59965356Y-42847445D01*
X59966022Y-42836252D01*
X59965167Y-42816652D01*
X59962162Y-42796207D01*
X59956285Y-42775484D01*
X59952344Y-42765910D01*
X59943223Y-42748126D01*
X59931868Y-42731209D01*
X59919127Y-42717062D01*
X59903490Y-42704484D01*
X59884866Y-42693951D01*
X59866945Y-42686142D01*
X59859532Y-42683356D01*
X59839687Y-42676517D01*
X59820697Y-42670655D01*
X59800356Y-42665229D01*
X59785282Y-42661863D01*
X59764004Y-42657316D01*
X59744249Y-42653192D01*
X59725084Y-42649248D01*
X59703858Y-42644926D01*
X59688562Y-42641835D01*
X59667748Y-42637530D01*
X59647804Y-42633408D01*
X59624098Y-42628514D01*
X59601751Y-42623906D01*
X59580764Y-42619584D01*
X59561136Y-42615548D01*
X59546413Y-42612526D01*
X59524602Y-42607671D01*
X59502037Y-42602267D01*
X59482655Y-42597344D01*
X59462748Y-42592040D01*
X59442317Y-42586354D01*
X59421360Y-42580286D01*
X59400738Y-42573838D01*
X59381308Y-42567320D01*
X59359567Y-42559403D01*
X59339543Y-42551383D01*
X59321236Y-42543260D01*
X59309986Y-42537787D01*
X59291132Y-42527396D01*
X59272185Y-42515882D01*
X59255870Y-42505120D01*
X59239487Y-42493534D01*
X59223035Y-42481123D01*
X59207218Y-42468043D01*
X59192741Y-42454447D01*
X59177544Y-42437934D01*
X59164171Y-42420721D01*
X59154159Y-42405408D01*
X59143870Y-42386351D01*
X59134377Y-42365938D01*
X59126872Y-42347362D01*
X59119951Y-42327790D01*
X59113614Y-42307222D01*
X59108302Y-42285675D01*
X59104089Y-42263167D01*
X59101417Y-42243675D01*
X59099509Y-42223516D01*
X59098364Y-42202688D01*
X59097983Y-42181193D01*
X59098572Y-42157129D01*
X59100341Y-42133665D01*
X59103289Y-42110799D01*
X59107417Y-42088533D01*
X59112723Y-42066866D01*
X59119209Y-42045798D01*
X59126874Y-42025330D01*
X59135718Y-42005460D01*
X59145742Y-41986190D01*
X59156945Y-41967518D01*
X59169326Y-41949446D01*
X59182888Y-41931974D01*
X59197628Y-41915100D01*
X59213548Y-41898825D01*
X59230647Y-41883150D01*
X59248925Y-41868073D01*
X59268121Y-41853699D01*
X59287973Y-41840253D01*
X59308482Y-41827733D01*
X59329647Y-41816141D01*
X59351469Y-41805477D01*
X59373947Y-41795739D01*
X59397081Y-41786930D01*
X59420872Y-41779047D01*
X59445319Y-41772092D01*
X59470423Y-41766064D01*
X59496183Y-41760963D01*
X59522599Y-41756790D01*
X59549672Y-41753545D01*
X59577401Y-41751226D01*
X59605787Y-41749835D01*
X59634829Y-41749371D01*
X59660819Y-41749633D01*
X59686217Y-41750419D01*
X59711022Y-41751728D01*
X59735235Y-41753562D01*
X59758856Y-41755919D01*
X59781884Y-41758800D01*
X59804319Y-41762204D01*
X59826162Y-41766133D01*
X59847413Y-41770585D01*
X59868071Y-41775561D01*
X59881514Y-41779169D01*
X59901081Y-41784885D01*
X59919850Y-41790858D01*
X59943634Y-41799224D01*
X59965997Y-41808047D01*
X59986941Y-41817328D01*
X60006465Y-41827067D01*
X60024570Y-41837265D01*
X60041254Y-41847920D01*
X60049064Y-41853419D01*
X60067597Y-41867728D01*
X60085033Y-41882871D01*
X60101371Y-41898850D01*
X60116613Y-41915663D01*
X60130757Y-41933311D01*
X60143804Y-41951793D01*
X60148715Y-41959420D01*
X60160131Y-41978476D01*
X60170258Y-41997173D01*
X60179098Y-42015513D01*
X60188005Y-42037048D01*
X60195058Y-42058068D01*
X60199518Y-42075191D01*
X60203720Y-42095496D01*
X60207166Y-42116110D01*
X60209856Y-42137033D01*
X60211791Y-42158265D01*
X60212970Y-42179806D01*
X60213196Y-42187055D01*
X59911311Y-42187055D01*
X59906716Y-42159119D01*
X59898059Y-42133932D01*
X59885341Y-42111492D01*
X59868561Y-42091800D01*
X59847720Y-42074856D01*
X59822817Y-42060659D01*
X59803959Y-42052721D01*
X59783296Y-42046004D01*
X59760827Y-42040509D01*
X59736554Y-42036235D01*
X59710475Y-42033182D01*
X59682591Y-42031350D01*
X59652903Y-42030739D01*
X59628800Y-42031143D01*
X59605951Y-42032353D01*
X59584355Y-42034371D01*
X59564013Y-42037196D01*
X59538841Y-42042219D01*
X59515898Y-42048676D01*
X59495183Y-42056568D01*
X59476697Y-42065895D01*
X59460439Y-42076657D01*
X59442989Y-42091164D01*
X59428497Y-42106290D01*
X59415010Y-42125261D01*
X59405782Y-42145125D01*
X59400813Y-42165882D01*
X59399867Y-42180216D01*
X59400779Y-42200031D01*
X59404053Y-42220960D01*
X59409709Y-42240056D01*
X59418918Y-42259351D01*
X59431686Y-42276635D01*
X59446020Y-42290573D01*
X59463163Y-42303166D01*
X59480467Y-42313084D01*
X59498893Y-42321689D01*
X59517413Y-42329126D01*
X59536026Y-42335394D01*
X59557412Y-42341126D01*
X59565464Y-42342882D01*
X59585816Y-42347009D01*
X59605382Y-42350993D01*
X59626906Y-42355389D01*
X59646338Y-42359368D01*
X59667130Y-42363633D01*
X59680258Y-42366329D01*
X59700670Y-42370475D01*
X59720689Y-42374671D01*
X59740317Y-42378917D01*
X59759553Y-42383212D01*
X59796847Y-42391951D01*
X59832574Y-42400889D01*
X59866731Y-42410025D01*
X59899321Y-42419360D01*
X59930341Y-42428893D01*
X59959794Y-42438625D01*
X59987677Y-42448555D01*
X60013993Y-42458683D01*
X60038739Y-42469010D01*
X60061918Y-42479535D01*
X60083527Y-42490259D01*
X60103569Y-42501181D01*
X60122041Y-42512302D01*
X60138946Y-42523621D01*
X60154621Y-42535389D01*
X60176238Y-42554579D01*
X60195580Y-42575614D01*
X60212646Y-42598496D01*
X60227436Y-42623225D01*
X60239951Y-42649799D01*
X60247030Y-42668541D01*
X60253098Y-42688103D01*
X60258155Y-42708486D01*
X60262200Y-42729689D01*
X60265234Y-42751713D01*
X60267257Y-42774557D01*
X60268268Y-42798222D01*
X60268394Y-42810362D01*
G37*
G36*
X60535108Y-41561793D02*
G01*
X60535108Y-41217899D01*
X60825268Y-41217899D01*
X60825268Y-41561793D01*
X60535108Y-41561793D01*
G37*
G36*
X60528269Y-43250000D02*
G01*
X60528269Y-41780635D01*
X60830642Y-41780635D01*
X60830642Y-43250000D01*
X60528269Y-43250000D01*
G37*
G36*
X61144249Y-43250000D02*
G01*
X61144249Y-41217899D01*
X61446622Y-41217899D01*
X61446622Y-43250000D01*
X61144249Y-43250000D01*
G37*
G36*
X61777815Y-41561793D02*
G01*
X61777815Y-41217899D01*
X62067976Y-41217899D01*
X62067976Y-41561793D01*
X61777815Y-41561793D01*
G37*
G36*
X61770976Y-43250000D02*
G01*
X61770976Y-41780635D01*
X62073349Y-41780635D01*
X62073349Y-43250000D01*
X61770976Y-43250000D01*
G37*
G36*
X63003914Y-42999895D02*
G01*
X63030882Y-42999277D01*
X63056648Y-42997422D01*
X63081212Y-42994331D01*
X63104573Y-42990003D01*
X63126732Y-42984439D01*
X63147689Y-42977638D01*
X63167444Y-42969601D01*
X63185997Y-42960327D01*
X63203348Y-42949817D01*
X63219497Y-42938071D01*
X63229595Y-42929553D01*
X63243763Y-42915663D01*
X63256591Y-42900553D01*
X63268080Y-42884224D01*
X63278230Y-42866676D01*
X63287040Y-42847908D01*
X63294510Y-42827921D01*
X63300641Y-42806715D01*
X63305432Y-42784289D01*
X63308884Y-42760645D01*
X63310996Y-42735781D01*
X63311660Y-42718527D01*
X63614033Y-42718527D01*
X63612965Y-42743091D01*
X63611228Y-42767139D01*
X63608821Y-42790672D01*
X63605744Y-42813690D01*
X63601997Y-42836193D01*
X63597581Y-42858181D01*
X63592495Y-42879653D01*
X63586739Y-42900610D01*
X63580313Y-42921052D01*
X63573218Y-42940979D01*
X63568115Y-42953977D01*
X63560062Y-42972838D01*
X63551658Y-42990951D01*
X63539903Y-43013941D01*
X63527523Y-43035602D01*
X63514517Y-43055935D01*
X63500886Y-43074940D01*
X63486628Y-43092617D01*
X63471744Y-43108966D01*
X63464068Y-43116643D01*
X63448352Y-43131221D01*
X63431980Y-43145158D01*
X63414952Y-43158454D01*
X63397267Y-43171109D01*
X63378926Y-43183123D01*
X63359929Y-43194495D01*
X63340275Y-43205227D01*
X63319965Y-43215317D01*
X63299433Y-43224575D01*
X63279115Y-43233055D01*
X63259011Y-43240756D01*
X63239120Y-43247679D01*
X63219443Y-43253823D01*
X63199980Y-43259189D01*
X63180731Y-43263776D01*
X63161695Y-43267585D01*
X63137939Y-43271525D01*
X63113992Y-43274798D01*
X63089853Y-43277402D01*
X63065525Y-43279339D01*
X63045924Y-43280408D01*
X63026202Y-43281049D01*
X63006357Y-43281263D01*
X62969211Y-43280459D01*
X62933000Y-43278049D01*
X62897724Y-43274033D01*
X62863383Y-43268409D01*
X62829977Y-43261179D01*
X62797506Y-43252343D01*
X62765970Y-43241899D01*
X62735369Y-43229849D01*
X62705703Y-43216193D01*
X62676972Y-43200930D01*
X62649176Y-43184060D01*
X62622315Y-43165583D01*
X62596389Y-43145500D01*
X62571398Y-43123810D01*
X62547342Y-43100513D01*
X62524221Y-43075610D01*
X62502276Y-43049379D01*
X62481746Y-43022098D01*
X62462632Y-42993768D01*
X62444934Y-42964388D01*
X62428652Y-42933959D01*
X62413785Y-42902480D01*
X62400335Y-42869952D01*
X62388300Y-42836374D01*
X62377681Y-42801747D01*
X62368478Y-42766070D01*
X62360691Y-42729344D01*
X62354320Y-42691569D01*
X62349365Y-42652744D01*
X62347418Y-42632938D01*
X62345825Y-42612869D01*
X62344586Y-42592538D01*
X62343701Y-42571945D01*
X62343170Y-42551090D01*
X62342993Y-42529972D01*
X62343162Y-42507826D01*
X62343667Y-42485962D01*
X62344509Y-42464381D01*
X62345688Y-42443082D01*
X62347203Y-42422066D01*
X62349055Y-42401332D01*
X62351245Y-42380880D01*
X62353770Y-42360711D01*
X62356633Y-42340825D01*
X62359833Y-42321220D01*
X62363369Y-42301898D01*
X62371452Y-42264102D01*
X62380882Y-42227435D01*
X62391659Y-42191898D01*
X62403783Y-42157490D01*
X62417255Y-42124212D01*
X62432074Y-42092063D01*
X62448239Y-42061044D01*
X62465752Y-42031155D01*
X62484613Y-42002396D01*
X62504820Y-41974766D01*
X62515429Y-41961374D01*
X62537559Y-41935702D01*
X62560843Y-41911686D01*
X62585278Y-41889326D01*
X62610867Y-41868623D01*
X62637607Y-41849576D01*
X62665501Y-41832185D01*
X62694546Y-41816450D01*
X62724745Y-41802372D01*
X62756096Y-41789950D01*
X62788599Y-41779184D01*
X62822255Y-41770075D01*
X62857063Y-41762622D01*
X62893024Y-41756825D01*
X62930138Y-41752684D01*
X62968404Y-41750200D01*
X62987969Y-41749578D01*
X63007822Y-41749371D01*
X63040952Y-41749957D01*
X63073295Y-41751715D01*
X63104852Y-41754644D01*
X63135622Y-41758744D01*
X63165607Y-41764016D01*
X63194805Y-41770460D01*
X63223218Y-41778076D01*
X63250844Y-41786863D01*
X63277684Y-41796821D01*
X63303738Y-41807952D01*
X63329005Y-41820253D01*
X63353487Y-41833727D01*
X63377182Y-41848372D01*
X63400092Y-41864188D01*
X63422215Y-41881177D01*
X63443551Y-41899337D01*
X63463841Y-41918344D01*
X63482821Y-41937996D01*
X63500493Y-41958293D01*
X63516855Y-41979234D01*
X63531908Y-42000821D01*
X63545653Y-42023053D01*
X63558088Y-42045930D01*
X63569214Y-42069452D01*
X63579032Y-42093618D01*
X63587540Y-42118430D01*
X63594740Y-42143887D01*
X63600630Y-42169988D01*
X63605212Y-42196735D01*
X63608484Y-42224126D01*
X63610448Y-42252163D01*
X63611102Y-42280844D01*
X63311660Y-42280844D01*
X63310626Y-42261099D01*
X63306882Y-42235747D01*
X63300436Y-42211510D01*
X63291288Y-42188387D01*
X63279439Y-42166378D01*
X63264887Y-42145484D01*
X63252201Y-42130545D01*
X63237994Y-42116232D01*
X63222267Y-42102547D01*
X63205528Y-42089714D01*
X63188281Y-42078143D01*
X63170529Y-42067835D01*
X63152269Y-42058789D01*
X63133503Y-42051005D01*
X63114230Y-42044484D01*
X63094451Y-42039224D01*
X63074165Y-42035227D01*
X63053372Y-42032492D01*
X63032073Y-42031020D01*
X63017592Y-42030739D01*
X62996969Y-42031228D01*
X62976864Y-42032693D01*
X62957279Y-42035136D01*
X62933528Y-42039562D01*
X62910587Y-42045516D01*
X62888457Y-42052996D01*
X62867138Y-42062002D01*
X62847010Y-42072225D01*
X62828145Y-42083354D01*
X62810545Y-42095390D01*
X62794209Y-42108332D01*
X62779137Y-42122180D01*
X62765329Y-42136935D01*
X62760160Y-42143091D01*
X62747824Y-42158938D01*
X62736156Y-42175644D01*
X62725155Y-42193208D01*
X62714822Y-42211632D01*
X62705158Y-42230913D01*
X62696161Y-42251054D01*
X62692749Y-42259351D01*
X62684759Y-42280216D01*
X62677579Y-42300986D01*
X62671211Y-42321661D01*
X62665653Y-42342240D01*
X62660907Y-42362724D01*
X62656971Y-42383113D01*
X62655624Y-42391242D01*
X62652669Y-42411592D01*
X62650214Y-42432038D01*
X62648261Y-42452579D01*
X62646808Y-42473216D01*
X62645857Y-42493948D01*
X62645406Y-42514775D01*
X62645366Y-42523133D01*
X62645725Y-42549439D01*
X62646801Y-42575111D01*
X62648594Y-42600149D01*
X62651106Y-42624555D01*
X62654334Y-42648326D01*
X62658280Y-42671465D01*
X62662944Y-42693969D01*
X62668325Y-42715840D01*
X62674423Y-42737078D01*
X62681239Y-42757682D01*
X62688772Y-42777653D01*
X62697023Y-42796990D01*
X62705992Y-42815694D01*
X62715677Y-42833764D01*
X62726080Y-42851201D01*
X62737201Y-42868004D01*
X62749062Y-42883975D01*
X62768056Y-42906000D01*
X62788492Y-42925706D01*
X62810371Y-42943094D01*
X62833692Y-42958164D01*
X62858456Y-42970915D01*
X62884663Y-42981348D01*
X62912312Y-42989462D01*
X62931546Y-42993584D01*
X62951421Y-42996675D01*
X62971938Y-42998736D01*
X62993095Y-42999766D01*
X63003914Y-42999895D01*
G37*
G36*
X64430234Y-41749567D02*
G01*
X64450393Y-41750154D01*
X64470252Y-41751132D01*
X64489812Y-41752501D01*
X64528032Y-41756413D01*
X64565054Y-41761889D01*
X64600877Y-41768930D01*
X64635502Y-41777536D01*
X64668929Y-41787706D01*
X64701158Y-41799441D01*
X64732188Y-41812741D01*
X64762020Y-41827605D01*
X64790654Y-41844035D01*
X64818089Y-41862028D01*
X64844326Y-41881587D01*
X64869365Y-41902710D01*
X64893205Y-41925398D01*
X64915847Y-41949651D01*
X64937261Y-41975271D01*
X64957292Y-42002186D01*
X64975943Y-42030394D01*
X64993211Y-42059896D01*
X65009099Y-42090691D01*
X65023604Y-42122781D01*
X65036728Y-42156164D01*
X65048471Y-42190840D01*
X65058832Y-42226811D01*
X65067812Y-42264075D01*
X65075410Y-42302633D01*
X65078692Y-42322397D01*
X65081627Y-42342485D01*
X65084218Y-42362896D01*
X65086462Y-42383630D01*
X65088362Y-42404688D01*
X65089916Y-42426069D01*
X65091125Y-42447774D01*
X65091988Y-42469802D01*
X65092507Y-42492154D01*
X65092679Y-42514829D01*
X65092507Y-42537474D01*
X65091988Y-42559800D01*
X65091125Y-42581804D01*
X65089916Y-42603489D01*
X65088362Y-42624852D01*
X65086462Y-42645895D01*
X65084218Y-42666618D01*
X65081627Y-42687020D01*
X65078692Y-42707101D01*
X65075410Y-42726862D01*
X65071784Y-42746302D01*
X65063495Y-42784221D01*
X65053825Y-42820857D01*
X65042773Y-42856211D01*
X65030339Y-42890283D01*
X65016524Y-42923073D01*
X65001328Y-42954580D01*
X64984750Y-42984805D01*
X64966790Y-43013748D01*
X64947449Y-43041408D01*
X64926727Y-43067787D01*
X64915847Y-43080495D01*
X64893205Y-43104807D01*
X64869365Y-43127550D01*
X64844326Y-43148725D01*
X64818089Y-43168331D01*
X64790654Y-43186369D01*
X64762020Y-43202838D01*
X64732188Y-43217738D01*
X64701158Y-43231071D01*
X64668929Y-43242834D01*
X64635502Y-43253030D01*
X64600877Y-43261656D01*
X64565054Y-43268715D01*
X64528032Y-43274204D01*
X64489812Y-43278126D01*
X64470252Y-43279498D01*
X64450393Y-43280478D01*
X64430234Y-43281067D01*
X64409776Y-43281263D01*
X64389317Y-43281067D01*
X64369156Y-43280482D01*
X64349292Y-43279507D01*
X64329726Y-43278141D01*
X64291486Y-43274239D01*
X64254438Y-43268776D01*
X64218580Y-43261752D01*
X64183913Y-43253167D01*
X64150436Y-43243021D01*
X64118150Y-43231315D01*
X64087055Y-43218048D01*
X64057151Y-43203219D01*
X64028437Y-43186830D01*
X64000914Y-43168880D01*
X63974581Y-43149370D01*
X63949439Y-43128298D01*
X63925488Y-43105665D01*
X63902728Y-43081472D01*
X63881256Y-43055788D01*
X63861169Y-43028807D01*
X63842467Y-43000528D01*
X63825150Y-42970952D01*
X63809219Y-42940078D01*
X63794673Y-42907907D01*
X63781513Y-42874438D01*
X63769738Y-42839672D01*
X63759348Y-42803608D01*
X63750343Y-42766246D01*
X63746361Y-42747079D01*
X63742724Y-42727587D01*
X63739434Y-42707771D01*
X63736490Y-42687630D01*
X63733893Y-42667165D01*
X63731642Y-42646376D01*
X63729737Y-42625263D01*
X63728178Y-42603825D01*
X63726966Y-42582062D01*
X63726100Y-42559975D01*
X63725581Y-42537564D01*
X63725408Y-42514829D01*
X64027780Y-42514829D01*
X64028153Y-42544671D01*
X64029273Y-42573567D01*
X64031138Y-42601515D01*
X64033749Y-42628516D01*
X64037106Y-42654569D01*
X64041210Y-42679675D01*
X64046059Y-42703834D01*
X64051655Y-42727045D01*
X64057997Y-42749309D01*
X64065085Y-42770625D01*
X64072919Y-42790994D01*
X64081499Y-42810416D01*
X64090825Y-42828890D01*
X64100897Y-42846417D01*
X64111715Y-42862996D01*
X64135590Y-42893313D01*
X64162449Y-42919840D01*
X64192292Y-42942577D01*
X64225120Y-42961525D01*
X64260932Y-42976684D01*
X64279957Y-42982842D01*
X64299729Y-42988052D01*
X64320246Y-42992316D01*
X64341509Y-42995632D01*
X64363519Y-42998000D01*
X64386274Y-42999421D01*
X64409776Y-42999895D01*
X64433188Y-42999421D01*
X64455856Y-42998000D01*
X64477781Y-42995632D01*
X64498963Y-42992316D01*
X64519402Y-42988052D01*
X64539097Y-42982842D01*
X64558049Y-42976684D01*
X64576258Y-42969578D01*
X64610446Y-42952525D01*
X64641662Y-42931682D01*
X64669904Y-42907050D01*
X64695174Y-42878628D01*
X64717471Y-42846417D01*
X64727504Y-42828890D01*
X64736794Y-42810416D01*
X64745342Y-42790994D01*
X64753145Y-42770625D01*
X64760206Y-42749309D01*
X64766523Y-42727045D01*
X64772098Y-42703834D01*
X64776929Y-42679675D01*
X64781016Y-42654569D01*
X64784361Y-42628516D01*
X64786962Y-42601515D01*
X64788820Y-42573567D01*
X64789935Y-42544671D01*
X64790307Y-42514829D01*
X64789935Y-42485046D01*
X64788820Y-42456208D01*
X64786962Y-42428316D01*
X64784361Y-42401370D01*
X64781016Y-42375369D01*
X64776929Y-42350314D01*
X64772098Y-42326204D01*
X64766523Y-42303039D01*
X64760206Y-42280821D01*
X64753145Y-42259547D01*
X64745342Y-42239219D01*
X64736794Y-42219837D01*
X64727504Y-42201400D01*
X64717471Y-42183908D01*
X64706694Y-42167362D01*
X64682911Y-42137106D01*
X64656155Y-42110633D01*
X64626426Y-42087941D01*
X64593724Y-42069031D01*
X64558049Y-42053904D01*
X64539097Y-42047758D01*
X64519402Y-42042558D01*
X64498963Y-42038303D01*
X64477781Y-42034994D01*
X64455856Y-42032630D01*
X64433188Y-42031212D01*
X64409776Y-42030739D01*
X64386274Y-42031212D01*
X64363519Y-42032630D01*
X64341509Y-42034994D01*
X64320246Y-42038303D01*
X64299729Y-42042558D01*
X64279957Y-42047758D01*
X64260932Y-42053904D01*
X64242653Y-42060995D01*
X64208333Y-42078014D01*
X64176997Y-42098814D01*
X64148646Y-42123397D01*
X64123279Y-42151762D01*
X64100897Y-42183908D01*
X64090825Y-42201400D01*
X64081499Y-42219837D01*
X64072919Y-42239219D01*
X64065085Y-42259547D01*
X64057997Y-42280821D01*
X64051655Y-42303039D01*
X64046059Y-42326204D01*
X64041210Y-42350314D01*
X64037106Y-42375369D01*
X64033749Y-42401370D01*
X64031138Y-42428316D01*
X64029273Y-42456208D01*
X64028153Y-42485046D01*
X64027780Y-42514829D01*
X63725408Y-42514829D01*
X63725581Y-42492154D01*
X63726100Y-42469802D01*
X63726966Y-42447774D01*
X63728178Y-42426069D01*
X63729737Y-42404688D01*
X63731642Y-42383630D01*
X63733893Y-42362896D01*
X63736490Y-42342485D01*
X63739434Y-42322397D01*
X63742724Y-42302633D01*
X63746361Y-42283192D01*
X63754673Y-42245281D01*
X63764370Y-42208664D01*
X63775452Y-42173340D01*
X63787920Y-42139310D01*
X63801773Y-42106574D01*
X63817012Y-42075132D01*
X63833635Y-42044983D01*
X63851645Y-42016128D01*
X63871039Y-41988567D01*
X63891819Y-41962299D01*
X63902728Y-41949651D01*
X63925488Y-41925398D01*
X63949439Y-41902710D01*
X63974581Y-41881587D01*
X64000914Y-41862028D01*
X64028437Y-41844035D01*
X64057151Y-41827605D01*
X64087055Y-41812741D01*
X64118150Y-41799441D01*
X64150436Y-41787706D01*
X64183913Y-41777536D01*
X64218580Y-41768930D01*
X64254438Y-41761889D01*
X64291486Y-41756413D01*
X64329726Y-41752501D01*
X64349292Y-41751132D01*
X64369156Y-41750154D01*
X64389317Y-41749567D01*
X64409776Y-41749371D01*
X64430234Y-41749567D01*
G37*
G36*
X66002728Y-42030739D02*
G01*
X65979484Y-42031347D01*
X65957076Y-42033172D01*
X65935502Y-42036213D01*
X65914762Y-42040471D01*
X65894858Y-42045945D01*
X65875789Y-42052635D01*
X65868394Y-42055652D01*
X65847386Y-42065509D01*
X65827957Y-42076397D01*
X65810108Y-42088316D01*
X65793839Y-42101264D01*
X65779150Y-42115243D01*
X65774605Y-42120132D01*
X65761679Y-42135336D01*
X65749647Y-42151639D01*
X65738507Y-42169042D01*
X65728260Y-42187543D01*
X65718906Y-42207144D01*
X65715987Y-42213921D01*
X65708059Y-42234438D01*
X65701126Y-42254954D01*
X65695190Y-42275471D01*
X65690250Y-42295987D01*
X65686306Y-42316503D01*
X65685212Y-42323342D01*
X65682390Y-42343967D01*
X65680152Y-42365176D01*
X65678498Y-42386969D01*
X65677427Y-42409346D01*
X65676941Y-42432307D01*
X65676908Y-42440090D01*
X65676908Y-43250000D01*
X65375024Y-43250000D01*
X65375024Y-41780635D01*
X65676908Y-41780635D01*
X65676908Y-41870027D01*
X65694234Y-41853923D01*
X65711774Y-41839070D01*
X65729527Y-41825468D01*
X65747494Y-41813119D01*
X65765675Y-41802021D01*
X65784070Y-41792175D01*
X65802678Y-41783581D01*
X65821500Y-41776238D01*
X65841070Y-41769941D01*
X65861922Y-41764484D01*
X65884057Y-41759866D01*
X65907473Y-41756088D01*
X65932172Y-41753150D01*
X65958154Y-41751051D01*
X65978481Y-41750027D01*
X65999530Y-41749476D01*
X66013963Y-41749371D01*
X66037441Y-41749693D01*
X66060429Y-41750659D01*
X66082927Y-41752269D01*
X66104936Y-41754523D01*
X66126456Y-41757421D01*
X66147486Y-41760963D01*
X66168027Y-41765149D01*
X66188078Y-41769979D01*
X66207640Y-41775453D01*
X66226712Y-41781571D01*
X66239155Y-41786008D01*
X66257400Y-41793070D01*
X66280645Y-41803088D01*
X66302654Y-41813793D01*
X66323426Y-41825185D01*
X66342962Y-41837263D01*
X66361261Y-41850029D01*
X66378323Y-41863481D01*
X66394150Y-41877620D01*
X66397913Y-41881263D01*
X66412484Y-41896123D01*
X66426398Y-41911640D01*
X66439656Y-41927814D01*
X66452257Y-41944644D01*
X66464202Y-41962130D01*
X66475491Y-41980273D01*
X66486123Y-41999072D01*
X66496099Y-42018527D01*
X66505365Y-42038280D01*
X66513867Y-42057972D01*
X66521607Y-42077603D01*
X66528583Y-42097173D01*
X66534796Y-42116682D01*
X66540245Y-42136130D01*
X66544932Y-42155517D01*
X66548855Y-42174842D01*
X66552290Y-42194115D01*
X66555266Y-42213586D01*
X66557785Y-42233255D01*
X66559846Y-42253122D01*
X66561449Y-42273188D01*
X66562594Y-42293453D01*
X66563281Y-42313916D01*
X66563510Y-42334577D01*
X66563510Y-43250000D01*
X66261137Y-43250000D01*
X66261137Y-42312595D01*
X66260557Y-42284622D01*
X66258819Y-42258219D01*
X66255921Y-42233388D01*
X66251863Y-42210128D01*
X66246647Y-42188439D01*
X66240271Y-42168322D01*
X66232737Y-42149777D01*
X66220887Y-42127493D01*
X66206977Y-42108003D01*
X66195191Y-42095219D01*
X66177759Y-42080107D01*
X66158433Y-42067009D01*
X66137214Y-42055927D01*
X66114103Y-42046859D01*
X66089098Y-42039807D01*
X66069103Y-42035840D01*
X66048043Y-42033006D01*
X66025918Y-42031306D01*
X66002728Y-42030739D01*
G37*
D13*
X40182057Y-38347030D02*
X39282057Y-38347030D01*
X39282057Y-37747030D02*
X39282057Y-37575602D01*
X39282057Y-37575602D02*
X39324914Y-37489887D01*
X39324914Y-37489887D02*
X39410628Y-37404173D01*
X39410628Y-37404173D02*
X39582057Y-37361316D01*
X39582057Y-37361316D02*
X39882057Y-37361316D01*
X39882057Y-37361316D02*
X40053485Y-37404173D01*
X40053485Y-37404173D02*
X40139200Y-37489887D01*
X40139200Y-37489887D02*
X40182057Y-37575602D01*
X40182057Y-37575602D02*
X40182057Y-37747030D01*
X40182057Y-37747030D02*
X40139200Y-37832745D01*
X40139200Y-37832745D02*
X40053485Y-37918459D01*
X40053485Y-37918459D02*
X39882057Y-37961316D01*
X39882057Y-37961316D02*
X39582057Y-37961316D01*
X39582057Y-37961316D02*
X39410628Y-37918459D01*
X39410628Y-37918459D02*
X39324914Y-37832745D01*
X39324914Y-37832745D02*
X39282057Y-37747030D01*
X40182057Y-36504173D02*
X40182057Y-37018459D01*
X40182057Y-36761316D02*
X39282057Y-36761316D01*
X39282057Y-36761316D02*
X39410628Y-36847030D01*
X39410628Y-36847030D02*
X39496342Y-36932745D01*
X39496342Y-36932745D02*
X39539200Y-37018459D01*
X36202969Y-52352057D02*
X36202969Y-51452057D01*
X36202969Y-51452057D02*
X36417255Y-51452057D01*
X36417255Y-51452057D02*
X36545826Y-51494914D01*
X36545826Y-51494914D02*
X36631541Y-51580628D01*
X36631541Y-51580628D02*
X36674398Y-51666342D01*
X36674398Y-51666342D02*
X36717255Y-51837771D01*
X36717255Y-51837771D02*
X36717255Y-51966342D01*
X36717255Y-51966342D02*
X36674398Y-52137771D01*
X36674398Y-52137771D02*
X36631541Y-52223485D01*
X36631541Y-52223485D02*
X36545826Y-52309200D01*
X36545826Y-52309200D02*
X36417255Y-52352057D01*
X36417255Y-52352057D02*
X36202969Y-52352057D01*
X36974398Y-51452057D02*
X37488684Y-51452057D01*
X37231541Y-52352057D02*
X37231541Y-51452057D01*
X38302969Y-52352057D02*
X38002969Y-51923485D01*
X37788683Y-52352057D02*
X37788683Y-51452057D01*
X37788683Y-51452057D02*
X38131540Y-51452057D01*
X38131540Y-51452057D02*
X38217255Y-51494914D01*
X38217255Y-51494914D02*
X38260112Y-51537771D01*
X38260112Y-51537771D02*
X38302969Y-51623485D01*
X38302969Y-51623485D02*
X38302969Y-51752057D01*
X38302969Y-51752057D02*
X38260112Y-51837771D01*
X38260112Y-51837771D02*
X38217255Y-51880628D01*
X38217255Y-51880628D02*
X38131540Y-51923485D01*
X38131540Y-51923485D02*
X37788683Y-51923485D01*
X42718723Y-38347030D02*
X41818723Y-38347030D01*
X41818723Y-37747030D02*
X41818723Y-37575602D01*
X41818723Y-37575602D02*
X41861580Y-37489887D01*
X41861580Y-37489887D02*
X41947294Y-37404173D01*
X41947294Y-37404173D02*
X42118723Y-37361316D01*
X42118723Y-37361316D02*
X42418723Y-37361316D01*
X42418723Y-37361316D02*
X42590151Y-37404173D01*
X42590151Y-37404173D02*
X42675866Y-37489887D01*
X42675866Y-37489887D02*
X42718723Y-37575602D01*
X42718723Y-37575602D02*
X42718723Y-37747030D01*
X42718723Y-37747030D02*
X42675866Y-37832745D01*
X42675866Y-37832745D02*
X42590151Y-37918459D01*
X42590151Y-37918459D02*
X42418723Y-37961316D01*
X42418723Y-37961316D02*
X42118723Y-37961316D01*
X42118723Y-37961316D02*
X41947294Y-37918459D01*
X41947294Y-37918459D02*
X41861580Y-37832745D01*
X41861580Y-37832745D02*
X41818723Y-37747030D01*
X41904437Y-37018459D02*
X41861580Y-36975602D01*
X41861580Y-36975602D02*
X41818723Y-36889888D01*
X41818723Y-36889888D02*
X41818723Y-36675602D01*
X41818723Y-36675602D02*
X41861580Y-36589888D01*
X41861580Y-36589888D02*
X41904437Y-36547030D01*
X41904437Y-36547030D02*
X41990151Y-36504173D01*
X41990151Y-36504173D02*
X42075866Y-36504173D01*
X42075866Y-36504173D02*
X42204437Y-36547030D01*
X42204437Y-36547030D02*
X42718723Y-37061316D01*
X42718723Y-37061316D02*
X42718723Y-36504173D01*
X65682057Y-38337030D02*
X64782057Y-38337030D01*
X64782057Y-37737030D02*
X64782057Y-37565602D01*
X64782057Y-37565602D02*
X64824914Y-37479887D01*
X64824914Y-37479887D02*
X64910628Y-37394173D01*
X64910628Y-37394173D02*
X65082057Y-37351316D01*
X65082057Y-37351316D02*
X65382057Y-37351316D01*
X65382057Y-37351316D02*
X65553485Y-37394173D01*
X65553485Y-37394173D02*
X65639200Y-37479887D01*
X65639200Y-37479887D02*
X65682057Y-37565602D01*
X65682057Y-37565602D02*
X65682057Y-37737030D01*
X65682057Y-37737030D02*
X65639200Y-37822745D01*
X65639200Y-37822745D02*
X65553485Y-37908459D01*
X65553485Y-37908459D02*
X65382057Y-37951316D01*
X65382057Y-37951316D02*
X65082057Y-37951316D01*
X65082057Y-37951316D02*
X64910628Y-37908459D01*
X64910628Y-37908459D02*
X64824914Y-37822745D01*
X64824914Y-37822745D02*
X64782057Y-37737030D01*
X65682057Y-36922745D02*
X65682057Y-36751316D01*
X65682057Y-36751316D02*
X65639200Y-36665602D01*
X65639200Y-36665602D02*
X65596342Y-36622745D01*
X65596342Y-36622745D02*
X65467771Y-36537030D01*
X65467771Y-36537030D02*
X65296342Y-36494173D01*
X65296342Y-36494173D02*
X64953485Y-36494173D01*
X64953485Y-36494173D02*
X64867771Y-36537030D01*
X64867771Y-36537030D02*
X64824914Y-36579888D01*
X64824914Y-36579888D02*
X64782057Y-36665602D01*
X64782057Y-36665602D02*
X64782057Y-36837030D01*
X64782057Y-36837030D02*
X64824914Y-36922745D01*
X64824914Y-36922745D02*
X64867771Y-36965602D01*
X64867771Y-36965602D02*
X64953485Y-37008459D01*
X64953485Y-37008459D02*
X65167771Y-37008459D01*
X65167771Y-37008459D02*
X65253485Y-36965602D01*
X65253485Y-36965602D02*
X65296342Y-36922745D01*
X65296342Y-36922745D02*
X65339200Y-36837030D01*
X65339200Y-36837030D02*
X65339200Y-36665602D01*
X65339200Y-36665602D02*
X65296342Y-36579888D01*
X65296342Y-36579888D02*
X65253485Y-36537030D01*
X65253485Y-36537030D02*
X65167771Y-36494173D01*
X80137771Y-37399887D02*
X80094914Y-37357030D01*
X80094914Y-37357030D02*
X80052057Y-37271316D01*
X80052057Y-37271316D02*
X80052057Y-37057030D01*
X80052057Y-37057030D02*
X80094914Y-36971316D01*
X80094914Y-36971316D02*
X80137771Y-36928458D01*
X80137771Y-36928458D02*
X80223485Y-36885601D01*
X80223485Y-36885601D02*
X80309200Y-36885601D01*
X80309200Y-36885601D02*
X80437771Y-36928458D01*
X80437771Y-36928458D02*
X80952057Y-37442744D01*
X80952057Y-37442744D02*
X80952057Y-36885601D01*
X80952057Y-36028458D02*
X80952057Y-36542744D01*
X80952057Y-36285601D02*
X80052057Y-36285601D01*
X80052057Y-36285601D02*
X80180628Y-36371315D01*
X80180628Y-36371315D02*
X80266342Y-36457030D01*
X80266342Y-36457030D02*
X80309200Y-36542744D01*
X39354398Y-56214914D02*
X39268684Y-56172057D01*
X39268684Y-56172057D02*
X39140112Y-56172057D01*
X39140112Y-56172057D02*
X39011541Y-56214914D01*
X39011541Y-56214914D02*
X38925826Y-56300628D01*
X38925826Y-56300628D02*
X38882969Y-56386342D01*
X38882969Y-56386342D02*
X38840112Y-56557771D01*
X38840112Y-56557771D02*
X38840112Y-56686342D01*
X38840112Y-56686342D02*
X38882969Y-56857771D01*
X38882969Y-56857771D02*
X38925826Y-56943485D01*
X38925826Y-56943485D02*
X39011541Y-57029200D01*
X39011541Y-57029200D02*
X39140112Y-57072057D01*
X39140112Y-57072057D02*
X39225826Y-57072057D01*
X39225826Y-57072057D02*
X39354398Y-57029200D01*
X39354398Y-57029200D02*
X39397255Y-56986342D01*
X39397255Y-56986342D02*
X39397255Y-56686342D01*
X39397255Y-56686342D02*
X39225826Y-56686342D01*
X39782969Y-57072057D02*
X39782969Y-56172057D01*
X39782969Y-56172057D02*
X40297255Y-57072057D01*
X40297255Y-57072057D02*
X40297255Y-56172057D01*
X40725826Y-57072057D02*
X40725826Y-56172057D01*
X40725826Y-56172057D02*
X40940112Y-56172057D01*
X40940112Y-56172057D02*
X41068683Y-56214914D01*
X41068683Y-56214914D02*
X41154398Y-56300628D01*
X41154398Y-56300628D02*
X41197255Y-56386342D01*
X41197255Y-56386342D02*
X41240112Y-56557771D01*
X41240112Y-56557771D02*
X41240112Y-56686342D01*
X41240112Y-56686342D02*
X41197255Y-56857771D01*
X41197255Y-56857771D02*
X41154398Y-56943485D01*
X41154398Y-56943485D02*
X41068683Y-57029200D01*
X41068683Y-57029200D02*
X40940112Y-57072057D01*
X40940112Y-57072057D02*
X40725826Y-57072057D01*
X55402053Y-38347030D02*
X54502053Y-38347030D01*
X54502053Y-37747030D02*
X54502053Y-37575602D01*
X54502053Y-37575602D02*
X54544910Y-37489887D01*
X54544910Y-37489887D02*
X54630624Y-37404173D01*
X54630624Y-37404173D02*
X54802053Y-37361316D01*
X54802053Y-37361316D02*
X55102053Y-37361316D01*
X55102053Y-37361316D02*
X55273481Y-37404173D01*
X55273481Y-37404173D02*
X55359196Y-37489887D01*
X55359196Y-37489887D02*
X55402053Y-37575602D01*
X55402053Y-37575602D02*
X55402053Y-37747030D01*
X55402053Y-37747030D02*
X55359196Y-37832745D01*
X55359196Y-37832745D02*
X55273481Y-37918459D01*
X55273481Y-37918459D02*
X55102053Y-37961316D01*
X55102053Y-37961316D02*
X54802053Y-37961316D01*
X54802053Y-37961316D02*
X54630624Y-37918459D01*
X54630624Y-37918459D02*
X54544910Y-37832745D01*
X54544910Y-37832745D02*
X54502053Y-37747030D01*
X54502053Y-37061316D02*
X54502053Y-36461316D01*
X54502053Y-36461316D02*
X55402053Y-36847030D01*
X36564398Y-43894914D02*
X36478684Y-43852057D01*
X36478684Y-43852057D02*
X36350112Y-43852057D01*
X36350112Y-43852057D02*
X36221541Y-43894914D01*
X36221541Y-43894914D02*
X36135826Y-43980628D01*
X36135826Y-43980628D02*
X36092969Y-44066342D01*
X36092969Y-44066342D02*
X36050112Y-44237771D01*
X36050112Y-44237771D02*
X36050112Y-44366342D01*
X36050112Y-44366342D02*
X36092969Y-44537771D01*
X36092969Y-44537771D02*
X36135826Y-44623485D01*
X36135826Y-44623485D02*
X36221541Y-44709200D01*
X36221541Y-44709200D02*
X36350112Y-44752057D01*
X36350112Y-44752057D02*
X36435826Y-44752057D01*
X36435826Y-44752057D02*
X36564398Y-44709200D01*
X36564398Y-44709200D02*
X36607255Y-44666342D01*
X36607255Y-44666342D02*
X36607255Y-44366342D01*
X36607255Y-44366342D02*
X36435826Y-44366342D01*
X39140112Y-49932057D02*
X39140112Y-49032057D01*
X39740112Y-49032057D02*
X39911540Y-49032057D01*
X39911540Y-49032057D02*
X39997255Y-49074914D01*
X39997255Y-49074914D02*
X40082969Y-49160628D01*
X40082969Y-49160628D02*
X40125826Y-49332057D01*
X40125826Y-49332057D02*
X40125826Y-49632057D01*
X40125826Y-49632057D02*
X40082969Y-49803485D01*
X40082969Y-49803485D02*
X39997255Y-49889200D01*
X39997255Y-49889200D02*
X39911540Y-49932057D01*
X39911540Y-49932057D02*
X39740112Y-49932057D01*
X39740112Y-49932057D02*
X39654398Y-49889200D01*
X39654398Y-49889200D02*
X39568683Y-49803485D01*
X39568683Y-49803485D02*
X39525826Y-49632057D01*
X39525826Y-49632057D02*
X39525826Y-49332057D01*
X39525826Y-49332057D02*
X39568683Y-49160628D01*
X39568683Y-49160628D02*
X39654398Y-49074914D01*
X39654398Y-49074914D02*
X39740112Y-49032057D01*
X40682969Y-49032057D02*
X40768683Y-49032057D01*
X40768683Y-49032057D02*
X40854397Y-49074914D01*
X40854397Y-49074914D02*
X40897255Y-49117771D01*
X40897255Y-49117771D02*
X40940112Y-49203485D01*
X40940112Y-49203485D02*
X40982969Y-49374914D01*
X40982969Y-49374914D02*
X40982969Y-49589200D01*
X40982969Y-49589200D02*
X40940112Y-49760628D01*
X40940112Y-49760628D02*
X40897255Y-49846342D01*
X40897255Y-49846342D02*
X40854397Y-49889200D01*
X40854397Y-49889200D02*
X40768683Y-49932057D01*
X40768683Y-49932057D02*
X40682969Y-49932057D01*
X40682969Y-49932057D02*
X40597255Y-49889200D01*
X40597255Y-49889200D02*
X40554397Y-49846342D01*
X40554397Y-49846342D02*
X40511540Y-49760628D01*
X40511540Y-49760628D02*
X40468683Y-49589200D01*
X40468683Y-49589200D02*
X40468683Y-49374914D01*
X40468683Y-49374914D02*
X40511540Y-49203485D01*
X40511540Y-49203485D02*
X40554397Y-49117771D01*
X40554397Y-49117771D02*
X40597255Y-49074914D01*
X40597255Y-49074914D02*
X40682969Y-49032057D01*
X36717255Y-47312057D02*
X36417255Y-46883485D01*
X36202969Y-47312057D02*
X36202969Y-46412057D01*
X36202969Y-46412057D02*
X36545826Y-46412057D01*
X36545826Y-46412057D02*
X36631541Y-46454914D01*
X36631541Y-46454914D02*
X36674398Y-46497771D01*
X36674398Y-46497771D02*
X36717255Y-46583485D01*
X36717255Y-46583485D02*
X36717255Y-46712057D01*
X36717255Y-46712057D02*
X36674398Y-46797771D01*
X36674398Y-46797771D02*
X36631541Y-46840628D01*
X36631541Y-46840628D02*
X36545826Y-46883485D01*
X36545826Y-46883485D02*
X36202969Y-46883485D01*
X37017255Y-46412057D02*
X37617255Y-47312057D01*
X37617255Y-46412057D02*
X37017255Y-47312057D01*
X73257057Y-39212030D02*
X72357057Y-39212030D01*
X72357057Y-38612030D02*
X72357057Y-38440602D01*
X72357057Y-38440602D02*
X72399914Y-38354887D01*
X72399914Y-38354887D02*
X72485628Y-38269173D01*
X72485628Y-38269173D02*
X72657057Y-38226316D01*
X72657057Y-38226316D02*
X72957057Y-38226316D01*
X72957057Y-38226316D02*
X73128485Y-38269173D01*
X73128485Y-38269173D02*
X73214200Y-38354887D01*
X73214200Y-38354887D02*
X73257057Y-38440602D01*
X73257057Y-38440602D02*
X73257057Y-38612030D01*
X73257057Y-38612030D02*
X73214200Y-38697745D01*
X73214200Y-38697745D02*
X73128485Y-38783459D01*
X73128485Y-38783459D02*
X72957057Y-38826316D01*
X72957057Y-38826316D02*
X72657057Y-38826316D01*
X72657057Y-38826316D02*
X72485628Y-38783459D01*
X72485628Y-38783459D02*
X72399914Y-38697745D01*
X72399914Y-38697745D02*
X72357057Y-38612030D01*
X73257057Y-37369173D02*
X73257057Y-37883459D01*
X73257057Y-37626316D02*
X72357057Y-37626316D01*
X72357057Y-37626316D02*
X72485628Y-37712030D01*
X72485628Y-37712030D02*
X72571342Y-37797745D01*
X72571342Y-37797745D02*
X72614200Y-37883459D01*
X72657057Y-36597745D02*
X73257057Y-36597745D01*
X72314200Y-36812030D02*
X72957057Y-37026316D01*
X72957057Y-37026316D02*
X72957057Y-36469173D01*
X75392057Y-37365601D02*
X75392057Y-37879887D01*
X75392057Y-37622744D02*
X74492057Y-37622744D01*
X74492057Y-37622744D02*
X74620628Y-37708458D01*
X74620628Y-37708458D02*
X74706342Y-37794173D01*
X74706342Y-37794173D02*
X74749200Y-37879887D01*
X74492057Y-37065601D02*
X74492057Y-36465601D01*
X74492057Y-36465601D02*
X75392057Y-36851315D01*
X60475385Y-39204173D02*
X59575385Y-39204173D01*
X59575385Y-38604173D02*
X59575385Y-38432745D01*
X59575385Y-38432745D02*
X59618242Y-38347030D01*
X59618242Y-38347030D02*
X59703956Y-38261316D01*
X59703956Y-38261316D02*
X59875385Y-38218459D01*
X59875385Y-38218459D02*
X60175385Y-38218459D01*
X60175385Y-38218459D02*
X60346813Y-38261316D01*
X60346813Y-38261316D02*
X60432528Y-38347030D01*
X60432528Y-38347030D02*
X60475385Y-38432745D01*
X60475385Y-38432745D02*
X60475385Y-38604173D01*
X60475385Y-38604173D02*
X60432528Y-38689888D01*
X60432528Y-38689888D02*
X60346813Y-38775602D01*
X60346813Y-38775602D02*
X60175385Y-38818459D01*
X60175385Y-38818459D02*
X59875385Y-38818459D01*
X59875385Y-38818459D02*
X59703956Y-38775602D01*
X59703956Y-38775602D02*
X59618242Y-38689888D01*
X59618242Y-38689888D02*
X59575385Y-38604173D01*
X60475385Y-37361316D02*
X60475385Y-37875602D01*
X60475385Y-37618459D02*
X59575385Y-37618459D01*
X59575385Y-37618459D02*
X59703956Y-37704173D01*
X59703956Y-37704173D02*
X59789670Y-37789888D01*
X59789670Y-37789888D02*
X59832528Y-37875602D01*
X60475385Y-36504173D02*
X60475385Y-37018459D01*
X60475385Y-36761316D02*
X59575385Y-36761316D01*
X59575385Y-36761316D02*
X59703956Y-36847030D01*
X59703956Y-36847030D02*
X59789670Y-36932745D01*
X59789670Y-36932745D02*
X59832528Y-37018459D01*
X63012051Y-39204173D02*
X62112051Y-39204173D01*
X62112051Y-38604173D02*
X62112051Y-38432745D01*
X62112051Y-38432745D02*
X62154908Y-38347030D01*
X62154908Y-38347030D02*
X62240622Y-38261316D01*
X62240622Y-38261316D02*
X62412051Y-38218459D01*
X62412051Y-38218459D02*
X62712051Y-38218459D01*
X62712051Y-38218459D02*
X62883479Y-38261316D01*
X62883479Y-38261316D02*
X62969194Y-38347030D01*
X62969194Y-38347030D02*
X63012051Y-38432745D01*
X63012051Y-38432745D02*
X63012051Y-38604173D01*
X63012051Y-38604173D02*
X62969194Y-38689888D01*
X62969194Y-38689888D02*
X62883479Y-38775602D01*
X62883479Y-38775602D02*
X62712051Y-38818459D01*
X62712051Y-38818459D02*
X62412051Y-38818459D01*
X62412051Y-38818459D02*
X62240622Y-38775602D01*
X62240622Y-38775602D02*
X62154908Y-38689888D01*
X62154908Y-38689888D02*
X62112051Y-38604173D01*
X63012051Y-37361316D02*
X63012051Y-37875602D01*
X63012051Y-37618459D02*
X62112051Y-37618459D01*
X62112051Y-37618459D02*
X62240622Y-37704173D01*
X62240622Y-37704173D02*
X62326336Y-37789888D01*
X62326336Y-37789888D02*
X62369194Y-37875602D01*
X62112051Y-36804173D02*
X62112051Y-36718459D01*
X62112051Y-36718459D02*
X62154908Y-36632745D01*
X62154908Y-36632745D02*
X62197765Y-36589888D01*
X62197765Y-36589888D02*
X62283479Y-36547030D01*
X62283479Y-36547030D02*
X62454908Y-36504173D01*
X62454908Y-36504173D02*
X62669194Y-36504173D01*
X62669194Y-36504173D02*
X62840622Y-36547030D01*
X62840622Y-36547030D02*
X62926336Y-36589888D01*
X62926336Y-36589888D02*
X62969194Y-36632745D01*
X62969194Y-36632745D02*
X63012051Y-36718459D01*
X63012051Y-36718459D02*
X63012051Y-36804173D01*
X63012051Y-36804173D02*
X62969194Y-36889888D01*
X62969194Y-36889888D02*
X62926336Y-36932745D01*
X62926336Y-36932745D02*
X62840622Y-36975602D01*
X62840622Y-36975602D02*
X62669194Y-37018459D01*
X62669194Y-37018459D02*
X62454908Y-37018459D01*
X62454908Y-37018459D02*
X62283479Y-36975602D01*
X62283479Y-36975602D02*
X62197765Y-36932745D01*
X62197765Y-36932745D02*
X62154908Y-36889888D01*
X62154908Y-36889888D02*
X62112051Y-36804173D01*
X57938719Y-38347030D02*
X57038719Y-38347030D01*
X57038719Y-37747030D02*
X57038719Y-37575602D01*
X57038719Y-37575602D02*
X57081576Y-37489887D01*
X57081576Y-37489887D02*
X57167290Y-37404173D01*
X57167290Y-37404173D02*
X57338719Y-37361316D01*
X57338719Y-37361316D02*
X57638719Y-37361316D01*
X57638719Y-37361316D02*
X57810147Y-37404173D01*
X57810147Y-37404173D02*
X57895862Y-37489887D01*
X57895862Y-37489887D02*
X57938719Y-37575602D01*
X57938719Y-37575602D02*
X57938719Y-37747030D01*
X57938719Y-37747030D02*
X57895862Y-37832745D01*
X57895862Y-37832745D02*
X57810147Y-37918459D01*
X57810147Y-37918459D02*
X57638719Y-37961316D01*
X57638719Y-37961316D02*
X57338719Y-37961316D01*
X57338719Y-37961316D02*
X57167290Y-37918459D01*
X57167290Y-37918459D02*
X57081576Y-37832745D01*
X57081576Y-37832745D02*
X57038719Y-37747030D01*
X57424433Y-36847030D02*
X57381576Y-36932745D01*
X57381576Y-36932745D02*
X57338719Y-36975602D01*
X57338719Y-36975602D02*
X57253004Y-37018459D01*
X57253004Y-37018459D02*
X57210147Y-37018459D01*
X57210147Y-37018459D02*
X57124433Y-36975602D01*
X57124433Y-36975602D02*
X57081576Y-36932745D01*
X57081576Y-36932745D02*
X57038719Y-36847030D01*
X57038719Y-36847030D02*
X57038719Y-36675602D01*
X57038719Y-36675602D02*
X57081576Y-36589888D01*
X57081576Y-36589888D02*
X57124433Y-36547030D01*
X57124433Y-36547030D02*
X57210147Y-36504173D01*
X57210147Y-36504173D02*
X57253004Y-36504173D01*
X57253004Y-36504173D02*
X57338719Y-36547030D01*
X57338719Y-36547030D02*
X57381576Y-36589888D01*
X57381576Y-36589888D02*
X57424433Y-36675602D01*
X57424433Y-36675602D02*
X57424433Y-36847030D01*
X57424433Y-36847030D02*
X57467290Y-36932745D01*
X57467290Y-36932745D02*
X57510147Y-36975602D01*
X57510147Y-36975602D02*
X57595862Y-37018459D01*
X57595862Y-37018459D02*
X57767290Y-37018459D01*
X57767290Y-37018459D02*
X57853004Y-36975602D01*
X57853004Y-36975602D02*
X57895862Y-36932745D01*
X57895862Y-36932745D02*
X57938719Y-36847030D01*
X57938719Y-36847030D02*
X57938719Y-36675602D01*
X57938719Y-36675602D02*
X57895862Y-36589888D01*
X57895862Y-36589888D02*
X57853004Y-36547030D01*
X57853004Y-36547030D02*
X57767290Y-36504173D01*
X57767290Y-36504173D02*
X57595862Y-36504173D01*
X57595862Y-36504173D02*
X57510147Y-36547030D01*
X57510147Y-36547030D02*
X57467290Y-36589888D01*
X57467290Y-36589888D02*
X57424433Y-36675602D01*
X36717255Y-54952057D02*
X36417255Y-54523485D01*
X36202969Y-54952057D02*
X36202969Y-54052057D01*
X36202969Y-54052057D02*
X36545826Y-54052057D01*
X36545826Y-54052057D02*
X36631541Y-54094914D01*
X36631541Y-54094914D02*
X36674398Y-54137771D01*
X36674398Y-54137771D02*
X36717255Y-54223485D01*
X36717255Y-54223485D02*
X36717255Y-54352057D01*
X36717255Y-54352057D02*
X36674398Y-54437771D01*
X36674398Y-54437771D02*
X36631541Y-54480628D01*
X36631541Y-54480628D02*
X36545826Y-54523485D01*
X36545826Y-54523485D02*
X36202969Y-54523485D01*
X36974398Y-54052057D02*
X37488684Y-54052057D01*
X37231541Y-54952057D02*
X37231541Y-54052057D01*
X37745826Y-54909200D02*
X37874398Y-54952057D01*
X37874398Y-54952057D02*
X38088683Y-54952057D01*
X38088683Y-54952057D02*
X38174398Y-54909200D01*
X38174398Y-54909200D02*
X38217255Y-54866342D01*
X38217255Y-54866342D02*
X38260112Y-54780628D01*
X38260112Y-54780628D02*
X38260112Y-54694914D01*
X38260112Y-54694914D02*
X38217255Y-54609200D01*
X38217255Y-54609200D02*
X38174398Y-54566342D01*
X38174398Y-54566342D02*
X38088683Y-54523485D01*
X38088683Y-54523485D02*
X37917255Y-54480628D01*
X37917255Y-54480628D02*
X37831540Y-54437771D01*
X37831540Y-54437771D02*
X37788683Y-54394914D01*
X37788683Y-54394914D02*
X37745826Y-54309200D01*
X37745826Y-54309200D02*
X37745826Y-54223485D01*
X37745826Y-54223485D02*
X37788683Y-54137771D01*
X37788683Y-54137771D02*
X37831540Y-54094914D01*
X37831540Y-54094914D02*
X37917255Y-54052057D01*
X37917255Y-54052057D02*
X38131540Y-54052057D01*
X38131540Y-54052057D02*
X38260112Y-54094914D01*
X36007255Y-41392057D02*
X36564398Y-41392057D01*
X36564398Y-41392057D02*
X36264398Y-41734914D01*
X36264398Y-41734914D02*
X36392969Y-41734914D01*
X36392969Y-41734914D02*
X36478684Y-41777771D01*
X36478684Y-41777771D02*
X36521541Y-41820628D01*
X36521541Y-41820628D02*
X36564398Y-41906342D01*
X36564398Y-41906342D02*
X36564398Y-42120628D01*
X36564398Y-42120628D02*
X36521541Y-42206342D01*
X36521541Y-42206342D02*
X36478684Y-42249200D01*
X36478684Y-42249200D02*
X36392969Y-42292057D01*
X36392969Y-42292057D02*
X36135826Y-42292057D01*
X36135826Y-42292057D02*
X36050112Y-42249200D01*
X36050112Y-42249200D02*
X36007255Y-42206342D01*
X36821541Y-41392057D02*
X37121541Y-42292057D01*
X37121541Y-42292057D02*
X37421541Y-41392057D01*
D14*
X70301628Y-36864815D02*
X69844485Y-36864815D01*
X70073057Y-36864815D02*
X70073057Y-36064815D01*
X70073057Y-36064815D02*
X69996866Y-36179100D01*
X69996866Y-36179100D02*
X69920676Y-36255291D01*
X69920676Y-36255291D02*
X69844485Y-36293386D01*
X70606390Y-36141005D02*
X70644486Y-36102910D01*
X70644486Y-36102910D02*
X70720676Y-36064815D01*
X70720676Y-36064815D02*
X70911152Y-36064815D01*
X70911152Y-36064815D02*
X70987343Y-36102910D01*
X70987343Y-36102910D02*
X71025438Y-36141005D01*
X71025438Y-36141005D02*
X71063533Y-36217196D01*
X71063533Y-36217196D02*
X71063533Y-36293386D01*
X71063533Y-36293386D02*
X71025438Y-36407672D01*
X71025438Y-36407672D02*
X70568295Y-36864815D01*
X70568295Y-36864815D02*
X71063533Y-36864815D01*
D13*
X50328721Y-38347030D02*
X49428721Y-38347030D01*
X49428721Y-37747030D02*
X49428721Y-37575602D01*
X49428721Y-37575602D02*
X49471578Y-37489887D01*
X49471578Y-37489887D02*
X49557292Y-37404173D01*
X49557292Y-37404173D02*
X49728721Y-37361316D01*
X49728721Y-37361316D02*
X50028721Y-37361316D01*
X50028721Y-37361316D02*
X50200149Y-37404173D01*
X50200149Y-37404173D02*
X50285864Y-37489887D01*
X50285864Y-37489887D02*
X50328721Y-37575602D01*
X50328721Y-37575602D02*
X50328721Y-37747030D01*
X50328721Y-37747030D02*
X50285864Y-37832745D01*
X50285864Y-37832745D02*
X50200149Y-37918459D01*
X50200149Y-37918459D02*
X50028721Y-37961316D01*
X50028721Y-37961316D02*
X49728721Y-37961316D01*
X49728721Y-37961316D02*
X49557292Y-37918459D01*
X49557292Y-37918459D02*
X49471578Y-37832745D01*
X49471578Y-37832745D02*
X49428721Y-37747030D01*
X49428721Y-36547030D02*
X49428721Y-36975602D01*
X49428721Y-36975602D02*
X49857292Y-37018459D01*
X49857292Y-37018459D02*
X49814435Y-36975602D01*
X49814435Y-36975602D02*
X49771578Y-36889888D01*
X49771578Y-36889888D02*
X49771578Y-36675602D01*
X49771578Y-36675602D02*
X49814435Y-36589888D01*
X49814435Y-36589888D02*
X49857292Y-36547030D01*
X49857292Y-36547030D02*
X49943006Y-36504173D01*
X49943006Y-36504173D02*
X50157292Y-36504173D01*
X50157292Y-36504173D02*
X50243006Y-36547030D01*
X50243006Y-36547030D02*
X50285864Y-36589888D01*
X50285864Y-36589888D02*
X50328721Y-36675602D01*
X50328721Y-36675602D02*
X50328721Y-36889888D01*
X50328721Y-36889888D02*
X50285864Y-36975602D01*
X50285864Y-36975602D02*
X50243006Y-37018459D01*
X45255389Y-38347030D02*
X44355389Y-38347030D01*
X44355389Y-37747030D02*
X44355389Y-37575602D01*
X44355389Y-37575602D02*
X44398246Y-37489887D01*
X44398246Y-37489887D02*
X44483960Y-37404173D01*
X44483960Y-37404173D02*
X44655389Y-37361316D01*
X44655389Y-37361316D02*
X44955389Y-37361316D01*
X44955389Y-37361316D02*
X45126817Y-37404173D01*
X45126817Y-37404173D02*
X45212532Y-37489887D01*
X45212532Y-37489887D02*
X45255389Y-37575602D01*
X45255389Y-37575602D02*
X45255389Y-37747030D01*
X45255389Y-37747030D02*
X45212532Y-37832745D01*
X45212532Y-37832745D02*
X45126817Y-37918459D01*
X45126817Y-37918459D02*
X44955389Y-37961316D01*
X44955389Y-37961316D02*
X44655389Y-37961316D01*
X44655389Y-37961316D02*
X44483960Y-37918459D01*
X44483960Y-37918459D02*
X44398246Y-37832745D01*
X44398246Y-37832745D02*
X44355389Y-37747030D01*
X44355389Y-37061316D02*
X44355389Y-36504173D01*
X44355389Y-36504173D02*
X44698246Y-36804173D01*
X44698246Y-36804173D02*
X44698246Y-36675602D01*
X44698246Y-36675602D02*
X44741103Y-36589888D01*
X44741103Y-36589888D02*
X44783960Y-36547030D01*
X44783960Y-36547030D02*
X44869674Y-36504173D01*
X44869674Y-36504173D02*
X45083960Y-36504173D01*
X45083960Y-36504173D02*
X45169674Y-36547030D01*
X45169674Y-36547030D02*
X45212532Y-36589888D01*
X45212532Y-36589888D02*
X45255389Y-36675602D01*
X45255389Y-36675602D02*
X45255389Y-36932745D01*
X45255389Y-36932745D02*
X45212532Y-37018459D01*
X45212532Y-37018459D02*
X45169674Y-37061316D01*
X48966666Y-47524819D02*
X48966666Y-48239104D01*
X48966666Y-48239104D02*
X48919047Y-48381961D01*
X48919047Y-48381961D02*
X48823809Y-48477200D01*
X48823809Y-48477200D02*
X48680952Y-48524819D01*
X48680952Y-48524819D02*
X48585714Y-48524819D01*
X49966666Y-48524819D02*
X49395238Y-48524819D01*
X49680952Y-48524819D02*
X49680952Y-47524819D01*
X49680952Y-47524819D02*
X49585714Y-47667676D01*
X49585714Y-47667676D02*
X49490476Y-47762914D01*
X49490476Y-47762914D02*
X49395238Y-47810533D01*
X77466667Y-44972295D02*
X77200000Y-44591342D01*
X77009524Y-44972295D02*
X77009524Y-44172295D01*
X77009524Y-44172295D02*
X77314286Y-44172295D01*
X77314286Y-44172295D02*
X77390476Y-44210390D01*
X77390476Y-44210390D02*
X77428571Y-44248485D01*
X77428571Y-44248485D02*
X77466667Y-44324676D01*
X77466667Y-44324676D02*
X77466667Y-44438961D01*
X77466667Y-44438961D02*
X77428571Y-44515152D01*
X77428571Y-44515152D02*
X77390476Y-44553247D01*
X77390476Y-44553247D02*
X77314286Y-44591342D01*
X77314286Y-44591342D02*
X77009524Y-44591342D01*
X77733333Y-44172295D02*
X78228571Y-44172295D01*
X78228571Y-44172295D02*
X77961905Y-44477057D01*
X77961905Y-44477057D02*
X78076190Y-44477057D01*
X78076190Y-44477057D02*
X78152381Y-44515152D01*
X78152381Y-44515152D02*
X78190476Y-44553247D01*
X78190476Y-44553247D02*
X78228571Y-44629438D01*
X78228571Y-44629438D02*
X78228571Y-44819914D01*
X78228571Y-44819914D02*
X78190476Y-44896104D01*
X78190476Y-44896104D02*
X78152381Y-44934200D01*
X78152381Y-44934200D02*
X78076190Y-44972295D01*
X78076190Y-44972295D02*
X77847619Y-44972295D01*
X77847619Y-44972295D02*
X77771428Y-44934200D01*
X77771428Y-44934200D02*
X77733333Y-44896104D01*
X68250477Y-53094818D02*
X68917143Y-54094818D01*
X68917143Y-53094818D02*
X68250477Y-54094818D01*
X69821905Y-54094818D02*
X69250477Y-54094818D01*
X69536191Y-54094818D02*
X69536191Y-53094818D01*
X69536191Y-53094818D02*
X69440953Y-53237675D01*
X69440953Y-53237675D02*
X69345715Y-53332913D01*
X69345715Y-53332913D02*
X69250477Y-53380532D01*
D14*
X41936667Y-46112815D02*
X41670000Y-45731862D01*
X41479524Y-46112815D02*
X41479524Y-45312815D01*
X41479524Y-45312815D02*
X41784286Y-45312815D01*
X41784286Y-45312815D02*
X41860476Y-45350910D01*
X41860476Y-45350910D02*
X41898571Y-45389005D01*
X41898571Y-45389005D02*
X41936667Y-45465196D01*
X41936667Y-45465196D02*
X41936667Y-45579481D01*
X41936667Y-45579481D02*
X41898571Y-45655672D01*
X41898571Y-45655672D02*
X41860476Y-45693767D01*
X41860476Y-45693767D02*
X41784286Y-45731862D01*
X41784286Y-45731862D02*
X41479524Y-45731862D01*
X42660476Y-45312815D02*
X42279524Y-45312815D01*
X42279524Y-45312815D02*
X42241428Y-45693767D01*
X42241428Y-45693767D02*
X42279524Y-45655672D01*
X42279524Y-45655672D02*
X42355714Y-45617577D01*
X42355714Y-45617577D02*
X42546190Y-45617577D01*
X42546190Y-45617577D02*
X42622381Y-45655672D01*
X42622381Y-45655672D02*
X42660476Y-45693767D01*
X42660476Y-45693767D02*
X42698571Y-45769958D01*
X42698571Y-45769958D02*
X42698571Y-45960434D01*
X42698571Y-45960434D02*
X42660476Y-46036624D01*
X42660476Y-46036624D02*
X42622381Y-46074720D01*
X42622381Y-46074720D02*
X42546190Y-46112815D01*
X42546190Y-46112815D02*
X42355714Y-46112815D01*
X42355714Y-46112815D02*
X42279524Y-46074720D01*
X42279524Y-46074720D02*
X42241428Y-46036624D01*
D13*
X66139580Y-53196666D02*
X66187200Y-53244285D01*
X66187200Y-53244285D02*
X66234819Y-53387142D01*
X66234819Y-53387142D02*
X66234819Y-53482380D01*
X66234819Y-53482380D02*
X66187200Y-53625237D01*
X66187200Y-53625237D02*
X66091961Y-53720475D01*
X66091961Y-53720475D02*
X65996723Y-53768094D01*
X65996723Y-53768094D02*
X65806247Y-53815713D01*
X65806247Y-53815713D02*
X65663390Y-53815713D01*
X65663390Y-53815713D02*
X65472914Y-53768094D01*
X65472914Y-53768094D02*
X65377676Y-53720475D01*
X65377676Y-53720475D02*
X65282438Y-53625237D01*
X65282438Y-53625237D02*
X65234819Y-53482380D01*
X65234819Y-53482380D02*
X65234819Y-53387142D01*
X65234819Y-53387142D02*
X65282438Y-53244285D01*
X65282438Y-53244285D02*
X65330057Y-53196666D01*
X65234819Y-52863332D02*
X65234819Y-52196666D01*
X65234819Y-52196666D02*
X66234819Y-52625237D01*
D14*
X44763809Y-41429005D02*
X44687619Y-41390910D01*
X44687619Y-41390910D02*
X44611428Y-41314720D01*
X44611428Y-41314720D02*
X44497142Y-41200434D01*
X44497142Y-41200434D02*
X44420952Y-41162339D01*
X44420952Y-41162339D02*
X44344761Y-41162339D01*
X44382857Y-41352815D02*
X44306666Y-41314720D01*
X44306666Y-41314720D02*
X44230476Y-41238529D01*
X44230476Y-41238529D02*
X44192380Y-41086148D01*
X44192380Y-41086148D02*
X44192380Y-40819481D01*
X44192380Y-40819481D02*
X44230476Y-40667100D01*
X44230476Y-40667100D02*
X44306666Y-40590910D01*
X44306666Y-40590910D02*
X44382857Y-40552815D01*
X44382857Y-40552815D02*
X44535238Y-40552815D01*
X44535238Y-40552815D02*
X44611428Y-40590910D01*
X44611428Y-40590910D02*
X44687619Y-40667100D01*
X44687619Y-40667100D02*
X44725714Y-40819481D01*
X44725714Y-40819481D02*
X44725714Y-41086148D01*
X44725714Y-41086148D02*
X44687619Y-41238529D01*
X44687619Y-41238529D02*
X44611428Y-41314720D01*
X44611428Y-41314720D02*
X44535238Y-41352815D01*
X44535238Y-41352815D02*
X44382857Y-41352815D01*
X45030475Y-40629005D02*
X45068571Y-40590910D01*
X45068571Y-40590910D02*
X45144761Y-40552815D01*
X45144761Y-40552815D02*
X45335237Y-40552815D01*
X45335237Y-40552815D02*
X45411428Y-40590910D01*
X45411428Y-40590910D02*
X45449523Y-40629005D01*
X45449523Y-40629005D02*
X45487618Y-40705196D01*
X45487618Y-40705196D02*
X45487618Y-40781386D01*
X45487618Y-40781386D02*
X45449523Y-40895672D01*
X45449523Y-40895672D02*
X44992380Y-41352815D01*
X44992380Y-41352815D02*
X45487618Y-41352815D01*
X82026667Y-40106624D02*
X81988571Y-40144720D01*
X81988571Y-40144720D02*
X81874286Y-40182815D01*
X81874286Y-40182815D02*
X81798095Y-40182815D01*
X81798095Y-40182815D02*
X81683809Y-40144720D01*
X81683809Y-40144720D02*
X81607619Y-40068529D01*
X81607619Y-40068529D02*
X81569524Y-39992339D01*
X81569524Y-39992339D02*
X81531428Y-39839958D01*
X81531428Y-39839958D02*
X81531428Y-39725672D01*
X81531428Y-39725672D02*
X81569524Y-39573291D01*
X81569524Y-39573291D02*
X81607619Y-39497100D01*
X81607619Y-39497100D02*
X81683809Y-39420910D01*
X81683809Y-39420910D02*
X81798095Y-39382815D01*
X81798095Y-39382815D02*
X81874286Y-39382815D01*
X81874286Y-39382815D02*
X81988571Y-39420910D01*
X81988571Y-39420910D02*
X82026667Y-39459005D01*
X82293333Y-39382815D02*
X82788571Y-39382815D01*
X82788571Y-39382815D02*
X82521905Y-39687577D01*
X82521905Y-39687577D02*
X82636190Y-39687577D01*
X82636190Y-39687577D02*
X82712381Y-39725672D01*
X82712381Y-39725672D02*
X82750476Y-39763767D01*
X82750476Y-39763767D02*
X82788571Y-39839958D01*
X82788571Y-39839958D02*
X82788571Y-40030434D01*
X82788571Y-40030434D02*
X82750476Y-40106624D01*
X82750476Y-40106624D02*
X82712381Y-40144720D01*
X82712381Y-40144720D02*
X82636190Y-40182815D01*
X82636190Y-40182815D02*
X82407619Y-40182815D01*
X82407619Y-40182815D02*
X82331428Y-40144720D01*
X82331428Y-40144720D02*
X82293333Y-40106624D01*
D13*
X55153333Y-51529580D02*
X55105714Y-51577200D01*
X55105714Y-51577200D02*
X54962857Y-51624819D01*
X54962857Y-51624819D02*
X54867619Y-51624819D01*
X54867619Y-51624819D02*
X54724762Y-51577200D01*
X54724762Y-51577200D02*
X54629524Y-51481961D01*
X54629524Y-51481961D02*
X54581905Y-51386723D01*
X54581905Y-51386723D02*
X54534286Y-51196247D01*
X54534286Y-51196247D02*
X54534286Y-51053390D01*
X54534286Y-51053390D02*
X54581905Y-50862914D01*
X54581905Y-50862914D02*
X54629524Y-50767676D01*
X54629524Y-50767676D02*
X54724762Y-50672438D01*
X54724762Y-50672438D02*
X54867619Y-50624819D01*
X54867619Y-50624819D02*
X54962857Y-50624819D01*
X54962857Y-50624819D02*
X55105714Y-50672438D01*
X55105714Y-50672438D02*
X55153333Y-50720057D01*
X56105714Y-51624819D02*
X55534286Y-51624819D01*
X55820000Y-51624819D02*
X55820000Y-50624819D01*
X55820000Y-50624819D02*
X55724762Y-50767676D01*
X55724762Y-50767676D02*
X55629524Y-50862914D01*
X55629524Y-50862914D02*
X55534286Y-50910533D01*
D14*
X82026667Y-41436624D02*
X81988571Y-41474720D01*
X81988571Y-41474720D02*
X81874286Y-41512815D01*
X81874286Y-41512815D02*
X81798095Y-41512815D01*
X81798095Y-41512815D02*
X81683809Y-41474720D01*
X81683809Y-41474720D02*
X81607619Y-41398529D01*
X81607619Y-41398529D02*
X81569524Y-41322339D01*
X81569524Y-41322339D02*
X81531428Y-41169958D01*
X81531428Y-41169958D02*
X81531428Y-41055672D01*
X81531428Y-41055672D02*
X81569524Y-40903291D01*
X81569524Y-40903291D02*
X81607619Y-40827100D01*
X81607619Y-40827100D02*
X81683809Y-40750910D01*
X81683809Y-40750910D02*
X81798095Y-40712815D01*
X81798095Y-40712815D02*
X81874286Y-40712815D01*
X81874286Y-40712815D02*
X81988571Y-40750910D01*
X81988571Y-40750910D02*
X82026667Y-40789005D01*
X82712381Y-40712815D02*
X82560000Y-40712815D01*
X82560000Y-40712815D02*
X82483809Y-40750910D01*
X82483809Y-40750910D02*
X82445714Y-40789005D01*
X82445714Y-40789005D02*
X82369524Y-40903291D01*
X82369524Y-40903291D02*
X82331428Y-41055672D01*
X82331428Y-41055672D02*
X82331428Y-41360434D01*
X82331428Y-41360434D02*
X82369524Y-41436624D01*
X82369524Y-41436624D02*
X82407619Y-41474720D01*
X82407619Y-41474720D02*
X82483809Y-41512815D01*
X82483809Y-41512815D02*
X82636190Y-41512815D01*
X82636190Y-41512815D02*
X82712381Y-41474720D01*
X82712381Y-41474720D02*
X82750476Y-41436624D01*
X82750476Y-41436624D02*
X82788571Y-41360434D01*
X82788571Y-41360434D02*
X82788571Y-41169958D01*
X82788571Y-41169958D02*
X82750476Y-41093767D01*
X82750476Y-41093767D02*
X82712381Y-41055672D01*
X82712381Y-41055672D02*
X82636190Y-41017577D01*
X82636190Y-41017577D02*
X82483809Y-41017577D01*
X82483809Y-41017577D02*
X82407619Y-41055672D01*
X82407619Y-41055672D02*
X82369524Y-41093767D01*
X82369524Y-41093767D02*
X82331428Y-41169958D01*
D13*
X75396104Y-54804285D02*
X75434200Y-54842381D01*
X75434200Y-54842381D02*
X75472295Y-54956666D01*
X75472295Y-54956666D02*
X75472295Y-55032857D01*
X75472295Y-55032857D02*
X75434200Y-55147143D01*
X75434200Y-55147143D02*
X75358009Y-55223333D01*
X75358009Y-55223333D02*
X75281819Y-55261428D01*
X75281819Y-55261428D02*
X75129438Y-55299524D01*
X75129438Y-55299524D02*
X75015152Y-55299524D01*
X75015152Y-55299524D02*
X74862771Y-55261428D01*
X74862771Y-55261428D02*
X74786580Y-55223333D01*
X74786580Y-55223333D02*
X74710390Y-55147143D01*
X74710390Y-55147143D02*
X74672295Y-55032857D01*
X74672295Y-55032857D02*
X74672295Y-54956666D01*
X74672295Y-54956666D02*
X74710390Y-54842381D01*
X74710390Y-54842381D02*
X74748485Y-54804285D01*
X75472295Y-54042381D02*
X75472295Y-54499524D01*
X75472295Y-54270952D02*
X74672295Y-54270952D01*
X74672295Y-54270952D02*
X74786580Y-54347143D01*
X74786580Y-54347143D02*
X74862771Y-54423333D01*
X74862771Y-54423333D02*
X74900866Y-54499524D01*
X74748485Y-53737619D02*
X74710390Y-53699523D01*
X74710390Y-53699523D02*
X74672295Y-53623333D01*
X74672295Y-53623333D02*
X74672295Y-53432857D01*
X74672295Y-53432857D02*
X74710390Y-53356666D01*
X74710390Y-53356666D02*
X74748485Y-53318571D01*
X74748485Y-53318571D02*
X74824676Y-53280476D01*
X74824676Y-53280476D02*
X74900866Y-53280476D01*
X74900866Y-53280476D02*
X75015152Y-53318571D01*
X75015152Y-53318571D02*
X75472295Y-53775714D01*
X75472295Y-53775714D02*
X75472295Y-53280476D01*
X74463809Y-42268628D02*
X74463809Y-42744819D01*
X74130476Y-41744819D02*
X74463809Y-42268628D01*
X74463809Y-42268628D02*
X74797142Y-41744819D01*
X75654285Y-42744819D02*
X75082857Y-42744819D01*
X75368571Y-42744819D02*
X75368571Y-41744819D01*
X75368571Y-41744819D02*
X75273333Y-41887676D01*
X75273333Y-41887676D02*
X75178095Y-41982914D01*
X75178095Y-41982914D02*
X75082857Y-42030533D01*
X77506666Y-49422295D02*
X77125714Y-49422295D01*
X77125714Y-49422295D02*
X77125714Y-48622295D01*
X77735237Y-48698485D02*
X77773333Y-48660390D01*
X77773333Y-48660390D02*
X77849523Y-48622295D01*
X77849523Y-48622295D02*
X78039999Y-48622295D01*
X78039999Y-48622295D02*
X78116190Y-48660390D01*
X78116190Y-48660390D02*
X78154285Y-48698485D01*
X78154285Y-48698485D02*
X78192380Y-48774676D01*
X78192380Y-48774676D02*
X78192380Y-48850866D01*
X78192380Y-48850866D02*
X78154285Y-48965152D01*
X78154285Y-48965152D02*
X77697142Y-49422295D01*
X77697142Y-49422295D02*
X78192380Y-49422295D01*
D15*
X67960237Y-43214318D02*
X67960237Y-41944318D01*
X69290714Y-43093365D02*
X69230238Y-43153842D01*
X69230238Y-43153842D02*
X69048809Y-43214318D01*
X69048809Y-43214318D02*
X68927857Y-43214318D01*
X68927857Y-43214318D02*
X68746428Y-43153842D01*
X68746428Y-43153842D02*
X68625476Y-43032889D01*
X68625476Y-43032889D02*
X68564999Y-42911937D01*
X68564999Y-42911937D02*
X68504523Y-42670032D01*
X68504523Y-42670032D02*
X68504523Y-42488603D01*
X68504523Y-42488603D02*
X68564999Y-42246699D01*
X68564999Y-42246699D02*
X68625476Y-42125746D01*
X68625476Y-42125746D02*
X68746428Y-42004794D01*
X68746428Y-42004794D02*
X68927857Y-41944318D01*
X68927857Y-41944318D02*
X69048809Y-41944318D01*
X69048809Y-41944318D02*
X69230238Y-42004794D01*
X69230238Y-42004794D02*
X69290714Y-42065270D01*
X70500238Y-43214318D02*
X69774523Y-43214318D01*
X70137380Y-43214318D02*
X70137380Y-41944318D01*
X70137380Y-41944318D02*
X70016428Y-42125746D01*
X70016428Y-42125746D02*
X69895476Y-42246699D01*
X69895476Y-42246699D02*
X69774523Y-42307175D01*
D14*
X41936667Y-41352815D02*
X41670000Y-40971862D01*
X41479524Y-41352815D02*
X41479524Y-40552815D01*
X41479524Y-40552815D02*
X41784286Y-40552815D01*
X41784286Y-40552815D02*
X41860476Y-40590910D01*
X41860476Y-40590910D02*
X41898571Y-40629005D01*
X41898571Y-40629005D02*
X41936667Y-40705196D01*
X41936667Y-40705196D02*
X41936667Y-40819481D01*
X41936667Y-40819481D02*
X41898571Y-40895672D01*
X41898571Y-40895672D02*
X41860476Y-40933767D01*
X41860476Y-40933767D02*
X41784286Y-40971862D01*
X41784286Y-40971862D02*
X41479524Y-40971862D01*
X42622381Y-40552815D02*
X42470000Y-40552815D01*
X42470000Y-40552815D02*
X42393809Y-40590910D01*
X42393809Y-40590910D02*
X42355714Y-40629005D01*
X42355714Y-40629005D02*
X42279524Y-40743291D01*
X42279524Y-40743291D02*
X42241428Y-40895672D01*
X42241428Y-40895672D02*
X42241428Y-41200434D01*
X42241428Y-41200434D02*
X42279524Y-41276624D01*
X42279524Y-41276624D02*
X42317619Y-41314720D01*
X42317619Y-41314720D02*
X42393809Y-41352815D01*
X42393809Y-41352815D02*
X42546190Y-41352815D01*
X42546190Y-41352815D02*
X42622381Y-41314720D01*
X42622381Y-41314720D02*
X42660476Y-41276624D01*
X42660476Y-41276624D02*
X42698571Y-41200434D01*
X42698571Y-41200434D02*
X42698571Y-41009958D01*
X42698571Y-41009958D02*
X42660476Y-40933767D01*
X42660476Y-40933767D02*
X42622381Y-40895672D01*
X42622381Y-40895672D02*
X42546190Y-40857577D01*
X42546190Y-40857577D02*
X42393809Y-40857577D01*
X42393809Y-40857577D02*
X42317619Y-40895672D01*
X42317619Y-40895672D02*
X42279524Y-40933767D01*
X42279524Y-40933767D02*
X42241428Y-41009958D01*
D13*
X52478095Y-44834819D02*
X52478095Y-45644342D01*
X52478095Y-45644342D02*
X52525714Y-45739580D01*
X52525714Y-45739580D02*
X52573333Y-45787200D01*
X52573333Y-45787200D02*
X52668571Y-45834819D01*
X52668571Y-45834819D02*
X52859047Y-45834819D01*
X52859047Y-45834819D02*
X52954285Y-45787200D01*
X52954285Y-45787200D02*
X53001904Y-45739580D01*
X53001904Y-45739580D02*
X53049523Y-45644342D01*
X53049523Y-45644342D02*
X53049523Y-44834819D01*
X54049523Y-45834819D02*
X53478095Y-45834819D01*
X53763809Y-45834819D02*
X53763809Y-44834819D01*
X53763809Y-44834819D02*
X53668571Y-44977676D01*
X53668571Y-44977676D02*
X53573333Y-45072914D01*
X53573333Y-45072914D02*
X53478095Y-45120533D01*
D14*
X80506624Y-54984285D02*
X80544720Y-55022381D01*
X80544720Y-55022381D02*
X80582815Y-55136666D01*
X80582815Y-55136666D02*
X80582815Y-55212857D01*
X80582815Y-55212857D02*
X80544720Y-55327143D01*
X80544720Y-55327143D02*
X80468529Y-55403333D01*
X80468529Y-55403333D02*
X80392339Y-55441428D01*
X80392339Y-55441428D02*
X80239958Y-55479524D01*
X80239958Y-55479524D02*
X80125672Y-55479524D01*
X80125672Y-55479524D02*
X79973291Y-55441428D01*
X79973291Y-55441428D02*
X79897100Y-55403333D01*
X79897100Y-55403333D02*
X79820910Y-55327143D01*
X79820910Y-55327143D02*
X79782815Y-55212857D01*
X79782815Y-55212857D02*
X79782815Y-55136666D01*
X79782815Y-55136666D02*
X79820910Y-55022381D01*
X79820910Y-55022381D02*
X79859005Y-54984285D01*
X80582815Y-54222381D02*
X80582815Y-54679524D01*
X80582815Y-54450952D02*
X79782815Y-54450952D01*
X79782815Y-54450952D02*
X79897100Y-54527143D01*
X79897100Y-54527143D02*
X79973291Y-54603333D01*
X79973291Y-54603333D02*
X80011386Y-54679524D01*
X79782815Y-53955714D02*
X79782815Y-53460476D01*
X79782815Y-53460476D02*
X80087577Y-53727142D01*
X80087577Y-53727142D02*
X80087577Y-53612857D01*
X80087577Y-53612857D02*
X80125672Y-53536666D01*
X80125672Y-53536666D02*
X80163767Y-53498571D01*
X80163767Y-53498571D02*
X80239958Y-53460476D01*
X80239958Y-53460476D02*
X80430434Y-53460476D01*
X80430434Y-53460476D02*
X80506624Y-53498571D01*
X80506624Y-53498571D02*
X80544720Y-53536666D01*
X80544720Y-53536666D02*
X80582815Y-53612857D01*
X80582815Y-53612857D02*
X80582815Y-53841428D01*
X80582815Y-53841428D02*
X80544720Y-53917619D01*
X80544720Y-53917619D02*
X80506624Y-53955714D01*
D15*
X84253809Y-53441461D02*
X84858571Y-53441461D01*
X84132857Y-53804318D02*
X84556190Y-52534318D01*
X84556190Y-52534318D02*
X84979524Y-53804318D01*
X85402856Y-53804318D02*
X85402856Y-52534318D01*
X85402856Y-52534318D02*
X86128571Y-53804318D01*
X86128571Y-53804318D02*
X86128571Y-52534318D01*
X86551904Y-52534318D02*
X87277618Y-52534318D01*
X86914761Y-53804318D02*
X86914761Y-52534318D01*
X88366190Y-53804318D02*
X87640475Y-53804318D01*
X88003332Y-53804318D02*
X88003332Y-52534318D01*
X88003332Y-52534318D02*
X87882380Y-52715746D01*
X87882380Y-52715746D02*
X87761428Y-52836699D01*
X87761428Y-52836699D02*
X87640475Y-52897175D01*
D13*
X48198095Y-47714819D02*
X48198095Y-48524342D01*
X48198095Y-48524342D02*
X48245714Y-48619580D01*
X48245714Y-48619580D02*
X48293333Y-48667200D01*
X48293333Y-48667200D02*
X48388571Y-48714819D01*
X48388571Y-48714819D02*
X48579047Y-48714819D01*
X48579047Y-48714819D02*
X48674285Y-48667200D01*
X48674285Y-48667200D02*
X48721904Y-48619580D01*
X48721904Y-48619580D02*
X48769523Y-48524342D01*
X48769523Y-48524342D02*
X48769523Y-47714819D01*
X49198095Y-47810057D02*
X49245714Y-47762438D01*
X49245714Y-47762438D02*
X49340952Y-47714819D01*
X49340952Y-47714819D02*
X49579047Y-47714819D01*
X49579047Y-47714819D02*
X49674285Y-47762438D01*
X49674285Y-47762438D02*
X49721904Y-47810057D01*
X49721904Y-47810057D02*
X49769523Y-47905295D01*
X49769523Y-47905295D02*
X49769523Y-48000533D01*
X49769523Y-48000533D02*
X49721904Y-48143390D01*
X49721904Y-48143390D02*
X49150476Y-48714819D01*
X49150476Y-48714819D02*
X49769523Y-48714819D01*
D16*
X38600000Y-35880000D02*
X38600000Y-34550000D01*
X39930000Y-35880000D02*
X38600000Y-35880000D01*
X41200000Y-35880000D02*
X86980000Y-35880000D01*
X41200000Y-35880000D02*
X41200000Y-33220000D01*
X86980000Y-35880000D02*
X86980000Y-33220000D01*
X41200000Y-33220000D02*
X86980000Y-33220000D01*
X43660000Y-52200000D02*
X43660000Y-54200000D01*
X43660000Y-56100000D02*
X43660000Y-58000000D01*
X43660000Y-58000000D02*
X53060000Y-58000000D01*
X53060000Y-52200000D02*
X53060000Y-54200000D01*
X53060000Y-56100000D02*
X53060000Y-58000000D01*
X76542500Y-45152742D02*
X76542500Y-45627258D01*
X75497500Y-45152742D02*
X75497500Y-45627258D01*
X50627500Y-46837258D02*
X50627500Y-46362742D01*
X51672500Y-46837258D02*
X51672500Y-46362742D01*
X41922742Y-43757500D02*
X42397258Y-43757500D01*
X41922742Y-44802500D02*
X42397258Y-44802500D01*
X64780000Y-52444420D02*
X64780000Y-52725580D01*
X63760000Y-52444420D02*
X63760000Y-52725580D01*
X79460000Y-41927221D02*
X79460000Y-42252779D01*
X78440000Y-41927221D02*
X78440000Y-42252779D01*
X46557500Y-46837258D02*
X46557500Y-46362742D01*
X47602500Y-46837258D02*
X47602500Y-46362742D01*
X45920000Y-41760000D02*
X44245000Y-41760000D01*
X45920000Y-41760000D02*
X46570000Y-41760000D01*
X45920000Y-44880000D02*
X45270000Y-44880000D01*
X45920000Y-44880000D02*
X46570000Y-44880000D01*
X81180000Y-38819420D02*
X81180000Y-39100580D01*
X80160000Y-38819420D02*
X80160000Y-39100580D01*
X55990000Y-48463748D02*
X55990000Y-48986252D01*
X54520000Y-48463748D02*
X54520000Y-48986252D01*
X80115000Y-42230580D02*
X80115000Y-41949420D01*
X81135000Y-42230580D02*
X81135000Y-41949420D01*
X70835000Y-38238748D02*
X70835000Y-38761252D01*
X69365000Y-38238748D02*
X69365000Y-38761252D01*
X66595000Y-55549420D02*
X66595000Y-55830580D01*
X65575000Y-55549420D02*
X65575000Y-55830580D01*
X74122500Y-55452742D02*
X74122500Y-55927258D01*
X73077500Y-55452742D02*
X73077500Y-55927258D01*
X75730000Y-51434420D02*
X75730000Y-51715580D01*
X74710000Y-51434420D02*
X74710000Y-51715580D01*
X77385000Y-38238748D02*
X77385000Y-38761252D01*
X75915000Y-38238748D02*
X75915000Y-38761252D01*
X72700000Y-39525000D02*
X74050000Y-39525000D01*
X72700000Y-41275000D02*
X74050000Y-41275000D01*
X77812779Y-51420000D02*
X77487221Y-51420000D01*
X77812779Y-50400000D02*
X77487221Y-50400000D01*
D17*
X73325000Y-51125000D02*
G75*
G03*
X73325000Y-51125000I-100000J0D01*
G01*
D16*
X42397258Y-42872500D02*
X41922742Y-42872500D01*
X42397258Y-41827500D02*
X41922742Y-41827500D01*
X50550000Y-42260000D02*
X50550000Y-44060000D01*
X50550000Y-42260000D02*
X50550000Y-41460000D01*
X53670000Y-42260000D02*
X53670000Y-43060000D01*
X53670000Y-42260000D02*
X53670000Y-41460000D01*
X80640000Y-51624420D02*
X80640000Y-51905580D01*
X79620000Y-51624420D02*
X79620000Y-51905580D01*
X38670000Y-50600000D02*
X40000000Y-50600000D01*
X38670000Y-51930000D02*
X38670000Y-50600000D01*
X38670000Y-53200000D02*
X38670000Y-55800000D01*
X38670000Y-53200000D02*
X41330000Y-53200000D01*
X38670000Y-55800000D02*
X41330000Y-55800000D01*
X41330000Y-53200000D02*
X41330000Y-55800000D01*
X48168748Y-39275000D02*
X48691252Y-39275000D01*
X48168748Y-40745000D02*
X48691252Y-40745000D01*
D17*
X83990000Y-49700000D02*
X83990000Y-52100000D01*
X83990000Y-52100000D02*
X87790000Y-52100000D01*
X87790000Y-49700000D02*
X83990000Y-49700000D01*
D16*
X77710000Y-41949420D02*
X77710000Y-42230580D01*
X76690000Y-41949420D02*
X76690000Y-42230580D01*
X32780000Y-40510000D02*
X34110000Y-40510000D01*
X32780000Y-41840000D02*
X32780000Y-40510000D01*
X32780000Y-43110000D02*
X32780000Y-55870000D01*
X32780000Y-43110000D02*
X35440000Y-43110000D01*
X32780000Y-55870000D02*
X35440000Y-55870000D01*
X35440000Y-43110000D02*
X35440000Y-55870000D01*
X79470000Y-38819420D02*
X79470000Y-39100580D01*
X78450000Y-38819420D02*
X78450000Y-39100580D01*
X38402500Y-44880000D02*
X40077500Y-44880000D01*
X38402500Y-44880000D02*
X37752500Y-44880000D01*
X38402500Y-41760000D02*
X39052500Y-41760000D01*
X38402500Y-41760000D02*
X37752500Y-41760000D01*
X76530000Y-48389420D02*
X76530000Y-48670580D01*
X75510000Y-48389420D02*
X75510000Y-48670580D01*
X71450000Y-55830580D02*
X71450000Y-55549420D01*
X72470000Y-55830580D02*
X72470000Y-55549420D01*
X63750000Y-55830580D02*
X63750000Y-55549420D01*
X64770000Y-55830580D02*
X64770000Y-55549420D01*
X49900000Y-46710000D02*
X49900000Y-45110000D01*
X48100000Y-45110000D02*
X48100000Y-47010000D01*
M02*
