G04 #@! TF.GenerationSoftware,KiCad,Pcbnew,7.0.9-7.0.9~ubuntu22.04.1*
G04 #@! TF.CreationDate,2024-01-30T16:06:37+01:00*
G04 #@! TF.ProjectId,v7-soc-8bit,76372d73-6f63-42d3-9862-69742e6b6963,rev?*
G04 #@! TF.SameCoordinates,Original*
G04 #@! TF.FileFunction,Copper,L4,Bot*
G04 #@! TF.FilePolarity,Positive*
%FSLAX46Y46*%
G04 Gerber Fmt 4.6, Leading zero omitted, Abs format (unit mm)*
G04 Created by KiCad (PCBNEW 7.0.9-7.0.9~ubuntu22.04.1) date 2024-01-30 16:06:37*
%MOMM*%
%LPD*%
G01*
G04 APERTURE LIST*
G04 #@! TA.AperFunction,ComponentPad*
%ADD10R,1.700000X1.700000*%
G04 #@! TD*
G04 #@! TA.AperFunction,ComponentPad*
%ADD11O,1.700000X1.700000*%
G04 #@! TD*
G04 #@! TA.AperFunction,ComponentPad*
%ADD12O,1.000000X2.100000*%
G04 #@! TD*
G04 #@! TA.AperFunction,ComponentPad*
%ADD13O,1.000000X1.600000*%
G04 #@! TD*
G04 #@! TA.AperFunction,ViaPad*
%ADD14C,0.400000*%
G04 #@! TD*
G04 #@! TA.AperFunction,ViaPad*
%ADD15C,0.600000*%
G04 #@! TD*
G04 #@! TA.AperFunction,ViaPad*
%ADD16C,0.800000*%
G04 #@! TD*
G04 #@! TA.AperFunction,Conductor*
%ADD17C,0.200000*%
G04 #@! TD*
G04 #@! TA.AperFunction,Conductor*
%ADD18C,0.400000*%
G04 #@! TD*
G04 APERTURE END LIST*
D10*
X39930000Y-34550000D03*
D11*
X42470000Y-34550000D03*
X45010000Y-34550000D03*
X47550000Y-34550000D03*
X50090000Y-34550000D03*
X52630000Y-34550000D03*
X55170000Y-34550000D03*
X57710000Y-34550000D03*
X60250000Y-34550000D03*
X62790000Y-34550000D03*
X65330000Y-34550000D03*
X67870000Y-34550000D03*
X70410000Y-34550000D03*
X72950000Y-34550000D03*
X75490000Y-34550000D03*
X78030000Y-34550000D03*
X80570000Y-34550000D03*
X83110000Y-34550000D03*
X85650000Y-34550000D03*
D12*
X44040000Y-50970000D03*
D13*
X44040000Y-55150000D03*
D12*
X52680000Y-50970000D03*
D13*
X52680000Y-55150000D03*
D10*
X40000000Y-51930000D03*
D11*
X40000000Y-54470000D03*
D10*
X34110000Y-41840000D03*
D11*
X34110000Y-44380000D03*
X34110000Y-46920000D03*
X34110000Y-49460000D03*
X34110000Y-52000000D03*
X34110000Y-54540000D03*
D14*
X76400000Y-41670000D03*
X79860000Y-38180000D03*
D15*
X53070000Y-44500000D03*
X49000000Y-44190000D03*
X45920000Y-48840000D03*
X51154065Y-44875500D03*
X50943786Y-48801991D03*
X92230000Y-47320000D03*
X81775000Y-41907500D03*
X89130715Y-38600000D03*
X83099285Y-46200000D03*
X81560000Y-55913630D03*
X83160000Y-38600000D03*
X81775000Y-42973750D03*
X81560000Y-52354541D03*
X78093332Y-52530000D03*
X86092145Y-38600000D03*
X43680000Y-48550000D03*
X87672140Y-47320000D03*
X84572860Y-38600000D03*
X79530000Y-49750000D03*
X77246666Y-52530000D03*
D16*
X54900000Y-46470000D03*
D15*
X81580000Y-47399089D03*
X81580000Y-45026363D03*
X63525331Y-51554669D03*
X92230000Y-41091428D03*
X71400000Y-37570000D03*
X86152855Y-47320000D03*
X90695710Y-46200000D03*
X81560000Y-53540904D03*
X46120000Y-45790000D03*
X81775000Y-44040000D03*
X81560000Y-54727267D03*
X92230000Y-44828570D03*
X78495000Y-49750000D03*
X52120000Y-45260000D03*
X84618570Y-46200000D03*
X80565000Y-49750000D03*
X92230000Y-42337142D03*
X92230000Y-43582856D03*
X81580000Y-46212726D03*
X86137855Y-46200000D03*
X81600000Y-49750000D03*
X63190000Y-56700000D03*
X92230000Y-39845714D03*
D14*
X75540000Y-38400000D03*
D15*
X89176425Y-46200000D03*
X78940000Y-52530000D03*
X90650000Y-38600000D03*
X89191425Y-47320000D03*
X82480000Y-39130000D03*
X46500000Y-40010000D03*
X92230000Y-46074284D03*
X87611430Y-38600000D03*
X81775000Y-40841250D03*
X54170000Y-50790000D03*
X83114285Y-47320000D03*
X81775000Y-39775000D03*
X77460000Y-49750000D03*
X84633570Y-47320000D03*
X81580000Y-48585452D03*
D14*
X75200000Y-48450000D03*
D15*
X76400000Y-52530000D03*
X69124402Y-48790000D03*
X90710710Y-47320000D03*
X92230000Y-38600000D03*
X87657140Y-46200000D03*
X81560000Y-57100000D03*
X70980000Y-56460000D03*
X66930000Y-54065000D03*
X72920000Y-52660000D03*
X56607281Y-47672719D03*
D14*
X70408248Y-41971752D03*
D15*
X75680000Y-40990000D03*
X50884620Y-38535380D03*
X76100000Y-42850000D03*
X74000000Y-49925000D03*
X37940000Y-45040000D03*
D14*
X74540000Y-49310000D03*
X71990000Y-48930000D03*
D15*
X48609241Y-42770809D03*
D14*
X41040000Y-36860000D03*
X74090000Y-43920000D03*
X43900000Y-37410000D03*
X73910000Y-44580000D03*
X73834633Y-47661863D03*
X48360000Y-40800000D03*
X71920000Y-47580000D03*
X47381091Y-37780000D03*
X73850000Y-47050000D03*
X53737972Y-41793940D03*
X71917956Y-46501608D03*
X54440000Y-41780000D03*
X55160000Y-41730000D03*
X73850000Y-46130000D03*
X71905590Y-45401608D03*
X57730000Y-41740000D03*
X66860000Y-37670000D03*
X72416989Y-42799121D03*
X66870000Y-38480000D03*
X72060000Y-43310000D03*
X71406091Y-42903909D03*
X66810000Y-39290000D03*
X68003568Y-40685750D03*
X70939092Y-43413909D03*
X66810000Y-40676430D03*
X70536664Y-45289989D03*
X74450000Y-41730000D03*
X68435918Y-41118099D03*
X67010000Y-43130000D03*
X36930000Y-50390000D03*
X69140000Y-53100000D03*
X36900000Y-46920000D03*
X69700000Y-52505404D03*
X35940000Y-53440000D03*
X35940000Y-42610000D03*
D17*
X69559326Y-49840000D02*
X68689477Y-49840000D01*
X72208333Y-49489485D02*
X69909842Y-49489485D01*
X69909842Y-49489485D02*
X69559326Y-49840000D01*
X68338962Y-49489485D02*
X42389485Y-49489485D01*
X68689477Y-49840000D02*
X68338962Y-49489485D01*
X72387818Y-49310000D02*
X72208333Y-49489485D01*
X74540000Y-49310000D02*
X72387818Y-49310000D01*
X42389485Y-49489485D02*
X37940000Y-45040000D01*
X68855163Y-49440000D02*
X68345163Y-48930000D01*
X49790000Y-44020761D02*
X48609241Y-42840002D01*
X54160761Y-48930000D02*
X49790000Y-44559239D01*
X69903641Y-48930000D02*
X69393641Y-49440000D01*
X48609241Y-42840002D02*
X48609241Y-42770809D01*
X71990000Y-48930000D02*
X69903641Y-48930000D01*
X68345163Y-48930000D02*
X54160761Y-48930000D01*
X49790000Y-44559239D02*
X49790000Y-44020761D01*
X69393641Y-49440000D02*
X68855163Y-49440000D01*
X67255686Y-36860000D02*
X41040000Y-36860000D01*
X73260000Y-43090000D02*
X73260000Y-42864314D01*
X74090000Y-43920000D02*
X73260000Y-43090000D01*
X73260000Y-42864314D02*
X67255686Y-36860000D01*
X73910000Y-44580000D02*
X71140000Y-44580000D01*
X51240000Y-39810000D02*
X48690000Y-37260000D01*
X67360000Y-40800000D02*
X67360000Y-40088817D01*
X48690000Y-37260000D02*
X44050000Y-37260000D01*
X44050000Y-37260000D02*
X43900000Y-37410000D01*
X67081183Y-39810000D02*
X51240000Y-39810000D01*
X71140000Y-44580000D02*
X67360000Y-40800000D01*
X67360000Y-40088817D02*
X67081183Y-39810000D01*
X50109265Y-42549265D02*
X50109265Y-43774340D01*
X73366496Y-48130000D02*
X73834633Y-47661863D01*
X54526316Y-43855076D02*
X58811240Y-48140000D01*
X50190000Y-43855076D02*
X54526316Y-43855076D01*
X58811240Y-48140000D02*
X71926611Y-48140000D01*
X71926611Y-48140000D02*
X71936610Y-48130000D01*
X71936610Y-48130000D02*
X73366496Y-48130000D01*
X50109265Y-43774340D02*
X50190000Y-43855076D01*
X48360000Y-40800000D02*
X50109265Y-42549265D01*
X58976925Y-47740000D02*
X71760925Y-47740000D01*
X47381091Y-37780000D02*
X49811091Y-40210000D01*
X51446925Y-40210000D02*
X58976925Y-47740000D01*
X71993055Y-47507870D02*
X71952130Y-47507870D01*
X71760925Y-47740000D02*
X71993055Y-47507870D01*
X49811091Y-40210000D02*
X51446925Y-40210000D01*
X53737972Y-41793940D02*
X53737972Y-41797972D01*
X71370000Y-47250000D02*
X59194032Y-47250000D01*
X73850000Y-47050000D02*
X71570000Y-47050000D01*
X71570000Y-47050000D02*
X71370000Y-47250000D01*
X59194032Y-47250000D02*
X53737972Y-41793940D01*
X59310000Y-46650000D02*
X71769564Y-46650000D01*
X54440000Y-41780000D02*
X59310000Y-46650000D01*
X71769564Y-46650000D02*
X71917956Y-46501608D01*
X72384155Y-46189989D02*
X72145774Y-45951608D01*
X59619989Y-46189989D02*
X55160000Y-41730000D01*
X71451757Y-46189989D02*
X59619989Y-46189989D01*
X73790011Y-46189989D02*
X72384155Y-46189989D01*
X71690138Y-45951608D02*
X71451757Y-46189989D01*
X72145774Y-45951608D02*
X71690138Y-45951608D01*
X73850000Y-46130000D02*
X73790011Y-46189989D01*
X71286071Y-45789989D02*
X71524453Y-45551608D01*
X57730000Y-41740000D02*
X61779989Y-45789989D01*
X61779989Y-45789989D02*
X71286071Y-45789989D01*
X71524453Y-45551608D02*
X71755590Y-45551608D01*
X71755590Y-45551608D02*
X71905590Y-45401608D01*
X72416989Y-42586989D02*
X72416989Y-42799121D01*
X66860000Y-37670000D02*
X67500000Y-37670000D01*
X67500000Y-37670000D02*
X72416989Y-42586989D01*
X72060000Y-43310000D02*
X71910000Y-43160000D01*
X67744314Y-38480000D02*
X66870000Y-38480000D01*
X71910000Y-43160000D02*
X71910000Y-42645686D01*
X71910000Y-42645686D02*
X67744314Y-38480000D01*
X69858248Y-41959619D02*
X69858248Y-42166876D01*
X69858248Y-42166876D02*
X70595281Y-42903909D01*
X66810000Y-39290000D02*
X67385636Y-39290000D01*
X67385636Y-39290000D02*
X68263735Y-40168099D01*
X69385918Y-40724596D02*
X69385918Y-41487289D01*
X70595281Y-42903909D02*
X71406091Y-42903909D01*
X69385918Y-41487289D02*
X69858248Y-41959619D01*
X68263735Y-40168099D02*
X68829422Y-40168099D01*
X68829422Y-40168099D02*
X69385918Y-40724596D01*
X68208100Y-40568099D02*
X68139350Y-40636849D01*
X68985918Y-41860232D02*
X68985918Y-40890281D01*
X68985918Y-40890281D02*
X68663736Y-40568099D01*
X68032450Y-40685750D02*
X68003568Y-40685750D01*
X68081351Y-40636849D02*
X68032450Y-40685750D01*
X70539595Y-43413909D02*
X68985918Y-41860232D01*
X70939092Y-43413909D02*
X70539595Y-43413909D01*
X68139350Y-40636849D02*
X68081351Y-40636849D01*
X68663736Y-40568099D02*
X68208100Y-40568099D01*
X66960000Y-41765686D02*
X66960000Y-40826430D01*
X66960000Y-40826430D02*
X66810000Y-40676430D01*
X70484303Y-45289989D02*
X66960000Y-41765686D01*
X70536664Y-45289989D02*
X70484303Y-45289989D01*
X72950000Y-40230000D02*
X72950000Y-34550000D01*
X74450000Y-41730000D02*
X72950000Y-40230000D01*
X40560000Y-56570000D02*
X44220000Y-52910000D01*
X38510000Y-56570000D02*
X40560000Y-56570000D01*
X36930000Y-50390000D02*
X36930000Y-54990000D01*
X68950000Y-52910000D02*
X69140000Y-53100000D01*
X36930000Y-54990000D02*
X38510000Y-56570000D01*
X44220000Y-52910000D02*
X68950000Y-52910000D01*
X43450000Y-52510000D02*
X69695404Y-52510000D01*
X37860000Y-46920000D02*
X43450000Y-52510000D01*
X69695404Y-52510000D02*
X69700000Y-52505404D01*
X36900000Y-46920000D02*
X37860000Y-46920000D01*
D18*
X35940000Y-42610000D02*
X35940000Y-53440000D01*
G04 #@! TA.AperFunction,Conductor*
G36*
X92842539Y-32520185D02*
G01*
X92888294Y-32572989D01*
X92899500Y-32624500D01*
X92899500Y-57525500D01*
X92879815Y-57592539D01*
X92827011Y-57638294D01*
X92775500Y-57649500D01*
X73821812Y-57649500D01*
X73754773Y-57629815D01*
X73709018Y-57577011D01*
X73697814Y-57526225D01*
X73697810Y-57525500D01*
X73671105Y-52958964D01*
X73678059Y-52917297D01*
X73705368Y-52839255D01*
X73725565Y-52660000D01*
X73705368Y-52480745D01*
X73674511Y-52392563D01*
X73667557Y-52352348D01*
X73658649Y-50829129D01*
X73677941Y-50761980D01*
X73730477Y-50715917D01*
X73799576Y-50705569D01*
X73813912Y-50709029D01*
X73813961Y-50708819D01*
X73820738Y-50710365D01*
X73820745Y-50710368D01*
X73820752Y-50710368D01*
X73820753Y-50710369D01*
X73999996Y-50730565D01*
X74000000Y-50730565D01*
X74000004Y-50730565D01*
X74179249Y-50710369D01*
X74179252Y-50710368D01*
X74179255Y-50710368D01*
X74349522Y-50650789D01*
X74502262Y-50554816D01*
X74629816Y-50427262D01*
X74725789Y-50274522D01*
X74785368Y-50104255D01*
X74793802Y-50029399D01*
X74820868Y-49964985D01*
X74859394Y-49933485D01*
X74940852Y-49890734D01*
X75068183Y-49777929D01*
X75164818Y-49637930D01*
X75225140Y-49478872D01*
X75226310Y-49469232D01*
X75253928Y-49405057D01*
X75311861Y-49365998D01*
X75350139Y-49360180D01*
X76990000Y-49370000D01*
X76950859Y-43724050D01*
X76970078Y-43656879D01*
X77022564Y-43610759D01*
X77074049Y-43599197D01*
X81590000Y-43570000D01*
X81611951Y-35455221D01*
X81631816Y-35388241D01*
X81634330Y-35384503D01*
X81738427Y-35235838D01*
X81793001Y-35192217D01*
X81862500Y-35185024D01*
X81924854Y-35216546D01*
X81941574Y-35235841D01*
X82071505Y-35421401D01*
X82238599Y-35588495D01*
X82274543Y-35613663D01*
X82432165Y-35724032D01*
X82432167Y-35724033D01*
X82432170Y-35724035D01*
X82646337Y-35823903D01*
X82874592Y-35885063D01*
X83062918Y-35901539D01*
X83109999Y-35905659D01*
X83110000Y-35905659D01*
X83110001Y-35905659D01*
X83149234Y-35902226D01*
X83345408Y-35885063D01*
X83573663Y-35823903D01*
X83787830Y-35724035D01*
X83981401Y-35588495D01*
X84148495Y-35421401D01*
X84278730Y-35235405D01*
X84333307Y-35191781D01*
X84402805Y-35184587D01*
X84465160Y-35216110D01*
X84481879Y-35235405D01*
X84611890Y-35421078D01*
X84778917Y-35588105D01*
X84972421Y-35723600D01*
X85186507Y-35823429D01*
X85186516Y-35823433D01*
X85400000Y-35880634D01*
X85400000Y-34985501D01*
X85507685Y-35034680D01*
X85614237Y-35050000D01*
X85685763Y-35050000D01*
X85792315Y-35034680D01*
X85900000Y-34985501D01*
X85900000Y-35880633D01*
X86113483Y-35823433D01*
X86113492Y-35823429D01*
X86327578Y-35723600D01*
X86521082Y-35588105D01*
X86688105Y-35421082D01*
X86823600Y-35227578D01*
X86859775Y-35150000D01*
X88944341Y-35150000D01*
X88964936Y-35385403D01*
X88964938Y-35385413D01*
X89026094Y-35613655D01*
X89026096Y-35613659D01*
X89026097Y-35613663D01*
X89076031Y-35720746D01*
X89125964Y-35827828D01*
X89125965Y-35827830D01*
X89261505Y-36021402D01*
X89428597Y-36188494D01*
X89622169Y-36324034D01*
X89622171Y-36324035D01*
X89836337Y-36423903D01*
X90064592Y-36485063D01*
X90241034Y-36500500D01*
X90358966Y-36500500D01*
X90535408Y-36485063D01*
X90763663Y-36423903D01*
X90977829Y-36324035D01*
X91171401Y-36188495D01*
X91338495Y-36021401D01*
X91474035Y-35827830D01*
X91573903Y-35613663D01*
X91635063Y-35385408D01*
X91655659Y-35150000D01*
X91635063Y-34914592D01*
X91573903Y-34686337D01*
X91474035Y-34472171D01*
X91474034Y-34472169D01*
X91338494Y-34278597D01*
X91171402Y-34111505D01*
X90977830Y-33975965D01*
X90977828Y-33975964D01*
X90870746Y-33926031D01*
X90763663Y-33876097D01*
X90763659Y-33876096D01*
X90763655Y-33876094D01*
X90535413Y-33814938D01*
X90535403Y-33814936D01*
X90358966Y-33799500D01*
X90241034Y-33799500D01*
X90064596Y-33814936D01*
X90064586Y-33814938D01*
X89836344Y-33876094D01*
X89836335Y-33876098D01*
X89622171Y-33975964D01*
X89622169Y-33975965D01*
X89428597Y-34111505D01*
X89261506Y-34278597D01*
X89261501Y-34278604D01*
X89125967Y-34472165D01*
X89125965Y-34472169D01*
X89026098Y-34686335D01*
X89026094Y-34686344D01*
X88964938Y-34914586D01*
X88964936Y-34914596D01*
X88944341Y-35149999D01*
X88944341Y-35150000D01*
X86859775Y-35150000D01*
X86923429Y-35013492D01*
X86923432Y-35013486D01*
X86980636Y-34800000D01*
X86083686Y-34800000D01*
X86109493Y-34759844D01*
X86150000Y-34621889D01*
X86150000Y-34478111D01*
X86109493Y-34340156D01*
X86083686Y-34300000D01*
X86980636Y-34300000D01*
X86980635Y-34299999D01*
X86923432Y-34086513D01*
X86923429Y-34086507D01*
X86823600Y-33872422D01*
X86823599Y-33872420D01*
X86688113Y-33678926D01*
X86688108Y-33678920D01*
X86521082Y-33511894D01*
X86327578Y-33376399D01*
X86113492Y-33276570D01*
X86113486Y-33276567D01*
X85900000Y-33219364D01*
X85900000Y-34114498D01*
X85792315Y-34065320D01*
X85685763Y-34050000D01*
X85614237Y-34050000D01*
X85507685Y-34065320D01*
X85400000Y-34114498D01*
X85400000Y-33219364D01*
X85399999Y-33219364D01*
X85186513Y-33276567D01*
X85186507Y-33276570D01*
X84972422Y-33376399D01*
X84972420Y-33376400D01*
X84778926Y-33511886D01*
X84778920Y-33511891D01*
X84611891Y-33678920D01*
X84611890Y-33678922D01*
X84481880Y-33864595D01*
X84427303Y-33908219D01*
X84357804Y-33915412D01*
X84295450Y-33883890D01*
X84278730Y-33864594D01*
X84148494Y-33678597D01*
X83981402Y-33511506D01*
X83981395Y-33511501D01*
X83787834Y-33375967D01*
X83787830Y-33375965D01*
X83787828Y-33375964D01*
X83573663Y-33276097D01*
X83573659Y-33276096D01*
X83573655Y-33276094D01*
X83345413Y-33214938D01*
X83345403Y-33214936D01*
X83110001Y-33194341D01*
X83109999Y-33194341D01*
X82874596Y-33214936D01*
X82874586Y-33214938D01*
X82646344Y-33276094D01*
X82646335Y-33276098D01*
X82432171Y-33375964D01*
X82432169Y-33375965D01*
X82238597Y-33511505D01*
X82071508Y-33678594D01*
X81941574Y-33864159D01*
X81886997Y-33907784D01*
X81817498Y-33914976D01*
X81755144Y-33883454D01*
X81738424Y-33864158D01*
X81703959Y-33814937D01*
X81639255Y-33722529D01*
X81616929Y-33656325D01*
X81616832Y-33651127D01*
X81619610Y-32624163D01*
X81639476Y-32557178D01*
X81692404Y-32511567D01*
X81743610Y-32500500D01*
X92775500Y-32500500D01*
X92842539Y-32520185D01*
G37*
G04 #@! TD.AperFunction*
M02*
