M48
; DRILL file {KiCad 7.0.9-7.0.9~ubuntu22.04.1} date Fri 22 Dec 2023 22:10:07 CET
; FORMAT={-:-/ absolute / metric / decimal}
; #@! TF.CreationDate,2023-12-22T22:10:07+01:00
; #@! TF.GenerationSoftware,Kicad,Pcbnew,7.0.9-7.0.9~ubuntu22.04.1
; #@! TF.FileFunction,Plated,1,4,PTH
FMAT,2
METRIC
; #@! TA.AperFunction,Plated,PTH,ViaDrill
T1C0.200
; #@! TA.AperFunction,Plated,PTH,ViaDrill
T2C0.400
; #@! TA.AperFunction,Plated,PTH,ComponentDrill
T3C0.600
; #@! TA.AperFunction,Plated,PTH,ComponentDrill
T4C1.000
%
G90
G05
T1
X35.94Y-42.61
X35.94Y-53.44
X36.9Y-46.92
X36.93Y-50.39
X41.04Y-36.86
X43.9Y-37.41
X47.381Y-37.78
X48.36Y-40.8
X53.738Y-41.794
X54.44Y-41.78
X55.16Y-41.73
X57.73Y-41.74
X66.81Y-39.29
X66.81Y-40.676
X66.86Y-37.67
X66.87Y-38.48
X67.01Y-43.13
X68.004Y-40.686
X68.436Y-41.118
X69.14Y-53.1
X69.7Y-52.505
X70.408Y-41.972
X70.537Y-45.29
X70.939Y-43.414
X71.406Y-42.904
X71.906Y-45.402
X71.918Y-46.502
X71.92Y-47.58
X71.99Y-48.93
X72.06Y-43.31
X72.417Y-42.799
X73.835Y-47.662
X73.85Y-46.13
X73.85Y-47.05
X73.91Y-44.58
X74.09Y-43.92
X74.45Y-41.73
X74.54Y-49.31
X75.2Y-48.45
X75.54Y-38.4
X78.1Y-38.02
T2
X37.94Y-45.04
X43.68Y-48.55
X45.92Y-48.84
X46.12Y-45.79
X46.5Y-40.01
X48.609Y-42.771
X49.0Y-44.19
X50.885Y-38.535
X50.944Y-48.802
X51.154Y-44.875
X52.12Y-45.26
X53.07Y-44.5
X54.17Y-50.79
X56.607Y-47.673
X63.19Y-56.7
X63.525Y-51.555
X66.93Y-54.065
X69.124Y-48.79
X70.98Y-56.46
X71.4Y-37.57
X72.92Y-52.66
X74.0Y-49.925
X75.68Y-40.99
X76.1Y-42.85
X76.4Y-52.53
X76.48Y-41.42
X77.247Y-52.53
X77.46Y-49.75
X78.093Y-52.53
X78.495Y-49.75
X78.94Y-52.53
X79.53Y-49.75
X80.565Y-49.75
X81.56Y-52.355
X81.56Y-53.541
X81.56Y-54.727
X81.56Y-55.914
X81.56Y-57.1
X81.58Y-45.026
X81.58Y-46.213
X81.58Y-47.399
X81.58Y-48.585
X81.6Y-49.75
X81.775Y-39.775
X81.775Y-40.841
X81.775Y-41.907
X81.775Y-42.974
X81.775Y-44.04
X82.48Y-39.13
X83.099Y-46.2
X83.114Y-47.32
X83.16Y-38.6
X84.573Y-38.6
X84.619Y-46.2
X84.634Y-47.32
X86.092Y-38.6
X86.138Y-46.2
X86.153Y-47.32
X87.611Y-38.6
X87.657Y-46.2
X87.672Y-47.32
X89.131Y-38.6
X89.176Y-46.2
X89.191Y-47.32
X90.65Y-38.6
X90.696Y-46.2
X90.711Y-47.32
X92.23Y-38.6
X92.23Y-39.846
X92.23Y-41.091
X92.23Y-42.337
X92.23Y-43.583
X92.23Y-44.829
X92.23Y-46.074
X92.23Y-47.32
T4
X34.11Y-41.84
X34.11Y-44.38
X34.11Y-46.92
X34.11Y-49.46
X34.11Y-52.0
X34.11Y-54.54
X39.93Y-34.55
X40.0Y-51.93
X40.0Y-54.47
X42.47Y-34.55
X45.01Y-34.55
X47.55Y-34.55
X50.09Y-34.55
X52.63Y-34.55
X55.17Y-34.55
X57.71Y-34.55
X60.25Y-34.55
X62.79Y-34.55
X65.33Y-34.55
X67.87Y-34.55
X70.41Y-34.55
X72.95Y-34.55
X75.49Y-34.55
X78.03Y-34.55
X80.57Y-34.55
X83.11Y-34.55
X85.65Y-34.55
T3
X44.04Y-50.42G85X44.04Y-51.52
G05
X44.04Y-54.85G85X44.04Y-55.45
G05
X52.68Y-50.42G85X52.68Y-51.52
G05
X52.68Y-54.85G85X52.68Y-55.45
G05
T0
M30
