%TF.GenerationSoftware,KiCad,Pcbnew,7.0.9-7.0.9~ubuntu22.04.1*%
%TF.CreationDate,2024-01-29T10:47:18+01:00*%
%TF.ProjectId,v7-soc-8bit,76372d73-6f63-42d3-9862-69742e6b6963,rev?*%
%TF.SameCoordinates,Original*%
%TF.FileFunction,Drillmap*%
%TF.FilePolarity,Positive*%
%FSLAX45Y45*%
G04 Gerber Fmt 4.5, Leading zero omitted, Abs format (unit mm)*
G04 Created by KiCad (PCBNEW 7.0.9-7.0.9~ubuntu22.04.1) date 2024-01-29 10:47:18*
%MOMM*%
%LPD*%
G01*
G04 APERTURE LIST*
%ADD10C,0.100000*%
%ADD11C,0.200000*%
%ADD12C,0.220000*%
G04 APERTURE END LIST*
D10*
X9290000Y-5765000D02*
X3200000Y-5765000D01*
X3200000Y-3250000D02*
X9290000Y-3250000D01*
X9290000Y-3250000D02*
X9290000Y-5765000D01*
X3200000Y-5765000D02*
X3200000Y-3250000D01*
D11*
D10*
X4514500Y-5117500D02*
X4579500Y-5182500D01*
X4579500Y-5117500D02*
X4514500Y-5182500D01*
X5092500Y-5117500D02*
X5157500Y-5182500D01*
X5157500Y-5117500D02*
X5092500Y-5182500D01*
D12*
X3570000Y-3515000D02*
G75*
G03*
X3570000Y-3515000I-110000J0D01*
G01*
X6007000Y-5515000D02*
G75*
G03*
X6007000Y-5515000I-110000J0D01*
G01*
X9140000Y-3515000D02*
G75*
G03*
X9140000Y-3515000I-110000J0D01*
G01*
D11*
X3455777Y-6081484D02*
X3455777Y-5881484D01*
X3455777Y-5881484D02*
X3503396Y-5881484D01*
X3503396Y-5881484D02*
X3531967Y-5891008D01*
X3531967Y-5891008D02*
X3551015Y-5910055D01*
X3551015Y-5910055D02*
X3560539Y-5929103D01*
X3560539Y-5929103D02*
X3570062Y-5967198D01*
X3570062Y-5967198D02*
X3570062Y-5995769D01*
X3570062Y-5995769D02*
X3560539Y-6033865D01*
X3560539Y-6033865D02*
X3551015Y-6052912D01*
X3551015Y-6052912D02*
X3531967Y-6071960D01*
X3531967Y-6071960D02*
X3503396Y-6081484D01*
X3503396Y-6081484D02*
X3455777Y-6081484D01*
X3655777Y-6081484D02*
X3655777Y-5948150D01*
X3655777Y-5986246D02*
X3665301Y-5967198D01*
X3665301Y-5967198D02*
X3674824Y-5957674D01*
X3674824Y-5957674D02*
X3693872Y-5948150D01*
X3693872Y-5948150D02*
X3712920Y-5948150D01*
X3779586Y-6081484D02*
X3779586Y-5948150D01*
X3779586Y-5881484D02*
X3770062Y-5891008D01*
X3770062Y-5891008D02*
X3779586Y-5900531D01*
X3779586Y-5900531D02*
X3789110Y-5891008D01*
X3789110Y-5891008D02*
X3779586Y-5881484D01*
X3779586Y-5881484D02*
X3779586Y-5900531D01*
X3903396Y-6081484D02*
X3884348Y-6071960D01*
X3884348Y-6071960D02*
X3874824Y-6052912D01*
X3874824Y-6052912D02*
X3874824Y-5881484D01*
X4008158Y-6081484D02*
X3989110Y-6071960D01*
X3989110Y-6071960D02*
X3979586Y-6052912D01*
X3979586Y-6052912D02*
X3979586Y-5881484D01*
X4236729Y-6081484D02*
X4236729Y-5881484D01*
X4236729Y-5881484D02*
X4303396Y-6024341D01*
X4303396Y-6024341D02*
X4370063Y-5881484D01*
X4370063Y-5881484D02*
X4370063Y-6081484D01*
X4551015Y-6081484D02*
X4551015Y-5976722D01*
X4551015Y-5976722D02*
X4541491Y-5957674D01*
X4541491Y-5957674D02*
X4522444Y-5948150D01*
X4522444Y-5948150D02*
X4484348Y-5948150D01*
X4484348Y-5948150D02*
X4465301Y-5957674D01*
X4551015Y-6071960D02*
X4531967Y-6081484D01*
X4531967Y-6081484D02*
X4484348Y-6081484D01*
X4484348Y-6081484D02*
X4465301Y-6071960D01*
X4465301Y-6071960D02*
X4455777Y-6052912D01*
X4455777Y-6052912D02*
X4455777Y-6033865D01*
X4455777Y-6033865D02*
X4465301Y-6014817D01*
X4465301Y-6014817D02*
X4484348Y-6005293D01*
X4484348Y-6005293D02*
X4531967Y-6005293D01*
X4531967Y-6005293D02*
X4551015Y-5995769D01*
X4646253Y-5948150D02*
X4646253Y-6148150D01*
X4646253Y-5957674D02*
X4665301Y-5948150D01*
X4665301Y-5948150D02*
X4703396Y-5948150D01*
X4703396Y-5948150D02*
X4722444Y-5957674D01*
X4722444Y-5957674D02*
X4731967Y-5967198D01*
X4731967Y-5967198D02*
X4741491Y-5986246D01*
X4741491Y-5986246D02*
X4741491Y-6043388D01*
X4741491Y-6043388D02*
X4731967Y-6062436D01*
X4731967Y-6062436D02*
X4722444Y-6071960D01*
X4722444Y-6071960D02*
X4703396Y-6081484D01*
X4703396Y-6081484D02*
X4665301Y-6081484D01*
X4665301Y-6081484D02*
X4646253Y-6071960D01*
X4827205Y-6062436D02*
X4836729Y-6071960D01*
X4836729Y-6071960D02*
X4827205Y-6081484D01*
X4827205Y-6081484D02*
X4817682Y-6071960D01*
X4817682Y-6071960D02*
X4827205Y-6062436D01*
X4827205Y-6062436D02*
X4827205Y-6081484D01*
X4827205Y-5957674D02*
X4836729Y-5967198D01*
X4836729Y-5967198D02*
X4827205Y-5976722D01*
X4827205Y-5976722D02*
X4817682Y-5967198D01*
X4817682Y-5967198D02*
X4827205Y-5957674D01*
X4827205Y-5957674D02*
X4827205Y-5976722D01*
D10*
X3130000Y-6377500D02*
X3195000Y-6442500D01*
X3195000Y-6377500D02*
X3130000Y-6442500D01*
D11*
X3493872Y-6301484D02*
X3512920Y-6301484D01*
X3512920Y-6301484D02*
X3531967Y-6311008D01*
X3531967Y-6311008D02*
X3541491Y-6320531D01*
X3541491Y-6320531D02*
X3551015Y-6339579D01*
X3551015Y-6339579D02*
X3560539Y-6377674D01*
X3560539Y-6377674D02*
X3560539Y-6425293D01*
X3560539Y-6425293D02*
X3551015Y-6463388D01*
X3551015Y-6463388D02*
X3541491Y-6482436D01*
X3541491Y-6482436D02*
X3531967Y-6491960D01*
X3531967Y-6491960D02*
X3512920Y-6501484D01*
X3512920Y-6501484D02*
X3493872Y-6501484D01*
X3493872Y-6501484D02*
X3474824Y-6491960D01*
X3474824Y-6491960D02*
X3465301Y-6482436D01*
X3465301Y-6482436D02*
X3455777Y-6463388D01*
X3455777Y-6463388D02*
X3446253Y-6425293D01*
X3446253Y-6425293D02*
X3446253Y-6377674D01*
X3446253Y-6377674D02*
X3455777Y-6339579D01*
X3455777Y-6339579D02*
X3465301Y-6320531D01*
X3465301Y-6320531D02*
X3474824Y-6311008D01*
X3474824Y-6311008D02*
X3493872Y-6301484D01*
X3646253Y-6482436D02*
X3655777Y-6491960D01*
X3655777Y-6491960D02*
X3646253Y-6501484D01*
X3646253Y-6501484D02*
X3636729Y-6491960D01*
X3636729Y-6491960D02*
X3646253Y-6482436D01*
X3646253Y-6482436D02*
X3646253Y-6501484D01*
X3827205Y-6301484D02*
X3789110Y-6301484D01*
X3789110Y-6301484D02*
X3770062Y-6311008D01*
X3770062Y-6311008D02*
X3760539Y-6320531D01*
X3760539Y-6320531D02*
X3741491Y-6349103D01*
X3741491Y-6349103D02*
X3731967Y-6387198D01*
X3731967Y-6387198D02*
X3731967Y-6463388D01*
X3731967Y-6463388D02*
X3741491Y-6482436D01*
X3741491Y-6482436D02*
X3751015Y-6491960D01*
X3751015Y-6491960D02*
X3770062Y-6501484D01*
X3770062Y-6501484D02*
X3808158Y-6501484D01*
X3808158Y-6501484D02*
X3827205Y-6491960D01*
X3827205Y-6491960D02*
X3836729Y-6482436D01*
X3836729Y-6482436D02*
X3846253Y-6463388D01*
X3846253Y-6463388D02*
X3846253Y-6415769D01*
X3846253Y-6415769D02*
X3836729Y-6396722D01*
X3836729Y-6396722D02*
X3827205Y-6387198D01*
X3827205Y-6387198D02*
X3808158Y-6377674D01*
X3808158Y-6377674D02*
X3770062Y-6377674D01*
X3770062Y-6377674D02*
X3751015Y-6387198D01*
X3751015Y-6387198D02*
X3741491Y-6396722D01*
X3741491Y-6396722D02*
X3731967Y-6415769D01*
X4027205Y-6301484D02*
X3931967Y-6301484D01*
X3931967Y-6301484D02*
X3922443Y-6396722D01*
X3922443Y-6396722D02*
X3931967Y-6387198D01*
X3931967Y-6387198D02*
X3951015Y-6377674D01*
X3951015Y-6377674D02*
X3998634Y-6377674D01*
X3998634Y-6377674D02*
X4017682Y-6387198D01*
X4017682Y-6387198D02*
X4027205Y-6396722D01*
X4027205Y-6396722D02*
X4036729Y-6415769D01*
X4036729Y-6415769D02*
X4036729Y-6463388D01*
X4036729Y-6463388D02*
X4027205Y-6482436D01*
X4027205Y-6482436D02*
X4017682Y-6491960D01*
X4017682Y-6491960D02*
X3998634Y-6501484D01*
X3998634Y-6501484D02*
X3951015Y-6501484D01*
X3951015Y-6501484D02*
X3931967Y-6491960D01*
X3931967Y-6491960D02*
X3922443Y-6482436D01*
X4160539Y-6301484D02*
X4179586Y-6301484D01*
X4179586Y-6301484D02*
X4198634Y-6311008D01*
X4198634Y-6311008D02*
X4208158Y-6320531D01*
X4208158Y-6320531D02*
X4217682Y-6339579D01*
X4217682Y-6339579D02*
X4227205Y-6377674D01*
X4227205Y-6377674D02*
X4227205Y-6425293D01*
X4227205Y-6425293D02*
X4217682Y-6463388D01*
X4217682Y-6463388D02*
X4208158Y-6482436D01*
X4208158Y-6482436D02*
X4198634Y-6491960D01*
X4198634Y-6491960D02*
X4179586Y-6501484D01*
X4179586Y-6501484D02*
X4160539Y-6501484D01*
X4160539Y-6501484D02*
X4141491Y-6491960D01*
X4141491Y-6491960D02*
X4131967Y-6482436D01*
X4131967Y-6482436D02*
X4122443Y-6463388D01*
X4122443Y-6463388D02*
X4112920Y-6425293D01*
X4112920Y-6425293D02*
X4112920Y-6377674D01*
X4112920Y-6377674D02*
X4122443Y-6339579D01*
X4122443Y-6339579D02*
X4131967Y-6320531D01*
X4131967Y-6320531D02*
X4141491Y-6311008D01*
X4141491Y-6311008D02*
X4160539Y-6301484D01*
X4312920Y-6501484D02*
X4312920Y-6368150D01*
X4312920Y-6387198D02*
X4322444Y-6377674D01*
X4322444Y-6377674D02*
X4341491Y-6368150D01*
X4341491Y-6368150D02*
X4370063Y-6368150D01*
X4370063Y-6368150D02*
X4389110Y-6377674D01*
X4389110Y-6377674D02*
X4398634Y-6396722D01*
X4398634Y-6396722D02*
X4398634Y-6501484D01*
X4398634Y-6396722D02*
X4408158Y-6377674D01*
X4408158Y-6377674D02*
X4427205Y-6368150D01*
X4427205Y-6368150D02*
X4455777Y-6368150D01*
X4455777Y-6368150D02*
X4474825Y-6377674D01*
X4474825Y-6377674D02*
X4484348Y-6396722D01*
X4484348Y-6396722D02*
X4484348Y-6501484D01*
X4579586Y-6501484D02*
X4579586Y-6368150D01*
X4579586Y-6387198D02*
X4589110Y-6377674D01*
X4589110Y-6377674D02*
X4608158Y-6368150D01*
X4608158Y-6368150D02*
X4636729Y-6368150D01*
X4636729Y-6368150D02*
X4655777Y-6377674D01*
X4655777Y-6377674D02*
X4665301Y-6396722D01*
X4665301Y-6396722D02*
X4665301Y-6501484D01*
X4665301Y-6396722D02*
X4674825Y-6377674D01*
X4674825Y-6377674D02*
X4693872Y-6368150D01*
X4693872Y-6368150D02*
X4722444Y-6368150D01*
X4722444Y-6368150D02*
X4741491Y-6377674D01*
X4741491Y-6377674D02*
X4751015Y-6396722D01*
X4751015Y-6396722D02*
X4751015Y-6501484D01*
X5141491Y-6291960D02*
X4970063Y-6549103D01*
X5398634Y-6301484D02*
X5417682Y-6301484D01*
X5417682Y-6301484D02*
X5436729Y-6311008D01*
X5436729Y-6311008D02*
X5446253Y-6320531D01*
X5446253Y-6320531D02*
X5455777Y-6339579D01*
X5455777Y-6339579D02*
X5465301Y-6377674D01*
X5465301Y-6377674D02*
X5465301Y-6425293D01*
X5465301Y-6425293D02*
X5455777Y-6463388D01*
X5455777Y-6463388D02*
X5446253Y-6482436D01*
X5446253Y-6482436D02*
X5436729Y-6491960D01*
X5436729Y-6491960D02*
X5417682Y-6501484D01*
X5417682Y-6501484D02*
X5398634Y-6501484D01*
X5398634Y-6501484D02*
X5379587Y-6491960D01*
X5379587Y-6491960D02*
X5370063Y-6482436D01*
X5370063Y-6482436D02*
X5360539Y-6463388D01*
X5360539Y-6463388D02*
X5351015Y-6425293D01*
X5351015Y-6425293D02*
X5351015Y-6377674D01*
X5351015Y-6377674D02*
X5360539Y-6339579D01*
X5360539Y-6339579D02*
X5370063Y-6320531D01*
X5370063Y-6320531D02*
X5379587Y-6311008D01*
X5379587Y-6311008D02*
X5398634Y-6301484D01*
X5551015Y-6482436D02*
X5560539Y-6491960D01*
X5560539Y-6491960D02*
X5551015Y-6501484D01*
X5551015Y-6501484D02*
X5541491Y-6491960D01*
X5541491Y-6491960D02*
X5551015Y-6482436D01*
X5551015Y-6482436D02*
X5551015Y-6501484D01*
X5684348Y-6301484D02*
X5703396Y-6301484D01*
X5703396Y-6301484D02*
X5722444Y-6311008D01*
X5722444Y-6311008D02*
X5731967Y-6320531D01*
X5731967Y-6320531D02*
X5741491Y-6339579D01*
X5741491Y-6339579D02*
X5751015Y-6377674D01*
X5751015Y-6377674D02*
X5751015Y-6425293D01*
X5751015Y-6425293D02*
X5741491Y-6463388D01*
X5741491Y-6463388D02*
X5731967Y-6482436D01*
X5731967Y-6482436D02*
X5722444Y-6491960D01*
X5722444Y-6491960D02*
X5703396Y-6501484D01*
X5703396Y-6501484D02*
X5684348Y-6501484D01*
X5684348Y-6501484D02*
X5665301Y-6491960D01*
X5665301Y-6491960D02*
X5655777Y-6482436D01*
X5655777Y-6482436D02*
X5646253Y-6463388D01*
X5646253Y-6463388D02*
X5636729Y-6425293D01*
X5636729Y-6425293D02*
X5636729Y-6377674D01*
X5636729Y-6377674D02*
X5646253Y-6339579D01*
X5646253Y-6339579D02*
X5655777Y-6320531D01*
X5655777Y-6320531D02*
X5665301Y-6311008D01*
X5665301Y-6311008D02*
X5684348Y-6301484D01*
X5827206Y-6320531D02*
X5836729Y-6311008D01*
X5836729Y-6311008D02*
X5855777Y-6301484D01*
X5855777Y-6301484D02*
X5903396Y-6301484D01*
X5903396Y-6301484D02*
X5922444Y-6311008D01*
X5922444Y-6311008D02*
X5931967Y-6320531D01*
X5931967Y-6320531D02*
X5941491Y-6339579D01*
X5941491Y-6339579D02*
X5941491Y-6358627D01*
X5941491Y-6358627D02*
X5931967Y-6387198D01*
X5931967Y-6387198D02*
X5817682Y-6501484D01*
X5817682Y-6501484D02*
X5941491Y-6501484D01*
X6122444Y-6301484D02*
X6027206Y-6301484D01*
X6027206Y-6301484D02*
X6017682Y-6396722D01*
X6017682Y-6396722D02*
X6027206Y-6387198D01*
X6027206Y-6387198D02*
X6046253Y-6377674D01*
X6046253Y-6377674D02*
X6093872Y-6377674D01*
X6093872Y-6377674D02*
X6112920Y-6387198D01*
X6112920Y-6387198D02*
X6122444Y-6396722D01*
X6122444Y-6396722D02*
X6131967Y-6415769D01*
X6131967Y-6415769D02*
X6131967Y-6463388D01*
X6131967Y-6463388D02*
X6122444Y-6482436D01*
X6122444Y-6482436D02*
X6112920Y-6491960D01*
X6112920Y-6491960D02*
X6093872Y-6501484D01*
X6093872Y-6501484D02*
X6046253Y-6501484D01*
X6046253Y-6501484D02*
X6027206Y-6491960D01*
X6027206Y-6491960D02*
X6017682Y-6482436D01*
X6303396Y-6301484D02*
X6265301Y-6301484D01*
X6265301Y-6301484D02*
X6246253Y-6311008D01*
X6246253Y-6311008D02*
X6236729Y-6320531D01*
X6236729Y-6320531D02*
X6217682Y-6349103D01*
X6217682Y-6349103D02*
X6208158Y-6387198D01*
X6208158Y-6387198D02*
X6208158Y-6463388D01*
X6208158Y-6463388D02*
X6217682Y-6482436D01*
X6217682Y-6482436D02*
X6227206Y-6491960D01*
X6227206Y-6491960D02*
X6246253Y-6501484D01*
X6246253Y-6501484D02*
X6284348Y-6501484D01*
X6284348Y-6501484D02*
X6303396Y-6491960D01*
X6303396Y-6491960D02*
X6312920Y-6482436D01*
X6312920Y-6482436D02*
X6322444Y-6463388D01*
X6322444Y-6463388D02*
X6322444Y-6415769D01*
X6322444Y-6415769D02*
X6312920Y-6396722D01*
X6312920Y-6396722D02*
X6303396Y-6387198D01*
X6303396Y-6387198D02*
X6284348Y-6377674D01*
X6284348Y-6377674D02*
X6246253Y-6377674D01*
X6246253Y-6377674D02*
X6227206Y-6387198D01*
X6227206Y-6387198D02*
X6217682Y-6396722D01*
X6217682Y-6396722D02*
X6208158Y-6415769D01*
X6398634Y-6301484D02*
X6398634Y-6339579D01*
X6474825Y-6301484D02*
X6474825Y-6339579D01*
X6770063Y-6577674D02*
X6760539Y-6568150D01*
X6760539Y-6568150D02*
X6741491Y-6539579D01*
X6741491Y-6539579D02*
X6731968Y-6520531D01*
X6731968Y-6520531D02*
X6722444Y-6491960D01*
X6722444Y-6491960D02*
X6712920Y-6444341D01*
X6712920Y-6444341D02*
X6712920Y-6406246D01*
X6712920Y-6406246D02*
X6722444Y-6358627D01*
X6722444Y-6358627D02*
X6731968Y-6330055D01*
X6731968Y-6330055D02*
X6741491Y-6311008D01*
X6741491Y-6311008D02*
X6760539Y-6282436D01*
X6760539Y-6282436D02*
X6770063Y-6272912D01*
X6836729Y-6320531D02*
X6846253Y-6311008D01*
X6846253Y-6311008D02*
X6865301Y-6301484D01*
X6865301Y-6301484D02*
X6912920Y-6301484D01*
X6912920Y-6301484D02*
X6931968Y-6311008D01*
X6931968Y-6311008D02*
X6941491Y-6320531D01*
X6941491Y-6320531D02*
X6951015Y-6339579D01*
X6951015Y-6339579D02*
X6951015Y-6358627D01*
X6951015Y-6358627D02*
X6941491Y-6387198D01*
X6941491Y-6387198D02*
X6827206Y-6501484D01*
X6827206Y-6501484D02*
X6951015Y-6501484D01*
X7189110Y-6501484D02*
X7189110Y-6301484D01*
X7274825Y-6501484D02*
X7274825Y-6396722D01*
X7274825Y-6396722D02*
X7265301Y-6377674D01*
X7265301Y-6377674D02*
X7246253Y-6368150D01*
X7246253Y-6368150D02*
X7217682Y-6368150D01*
X7217682Y-6368150D02*
X7198634Y-6377674D01*
X7198634Y-6377674D02*
X7189110Y-6387198D01*
X7398634Y-6501484D02*
X7379587Y-6491960D01*
X7379587Y-6491960D02*
X7370063Y-6482436D01*
X7370063Y-6482436D02*
X7360539Y-6463388D01*
X7360539Y-6463388D02*
X7360539Y-6406246D01*
X7360539Y-6406246D02*
X7370063Y-6387198D01*
X7370063Y-6387198D02*
X7379587Y-6377674D01*
X7379587Y-6377674D02*
X7398634Y-6368150D01*
X7398634Y-6368150D02*
X7427206Y-6368150D01*
X7427206Y-6368150D02*
X7446253Y-6377674D01*
X7446253Y-6377674D02*
X7455777Y-6387198D01*
X7455777Y-6387198D02*
X7465301Y-6406246D01*
X7465301Y-6406246D02*
X7465301Y-6463388D01*
X7465301Y-6463388D02*
X7455777Y-6482436D01*
X7455777Y-6482436D02*
X7446253Y-6491960D01*
X7446253Y-6491960D02*
X7427206Y-6501484D01*
X7427206Y-6501484D02*
X7398634Y-6501484D01*
X7579587Y-6501484D02*
X7560539Y-6491960D01*
X7560539Y-6491960D02*
X7551015Y-6472912D01*
X7551015Y-6472912D02*
X7551015Y-6301484D01*
X7731968Y-6491960D02*
X7712920Y-6501484D01*
X7712920Y-6501484D02*
X7674825Y-6501484D01*
X7674825Y-6501484D02*
X7655777Y-6491960D01*
X7655777Y-6491960D02*
X7646253Y-6472912D01*
X7646253Y-6472912D02*
X7646253Y-6396722D01*
X7646253Y-6396722D02*
X7655777Y-6377674D01*
X7655777Y-6377674D02*
X7674825Y-6368150D01*
X7674825Y-6368150D02*
X7712920Y-6368150D01*
X7712920Y-6368150D02*
X7731968Y-6377674D01*
X7731968Y-6377674D02*
X7741491Y-6396722D01*
X7741491Y-6396722D02*
X7741491Y-6415769D01*
X7741491Y-6415769D02*
X7646253Y-6434817D01*
X7817682Y-6491960D02*
X7836730Y-6501484D01*
X7836730Y-6501484D02*
X7874825Y-6501484D01*
X7874825Y-6501484D02*
X7893872Y-6491960D01*
X7893872Y-6491960D02*
X7903396Y-6472912D01*
X7903396Y-6472912D02*
X7903396Y-6463388D01*
X7903396Y-6463388D02*
X7893872Y-6444341D01*
X7893872Y-6444341D02*
X7874825Y-6434817D01*
X7874825Y-6434817D02*
X7846253Y-6434817D01*
X7846253Y-6434817D02*
X7827206Y-6425293D01*
X7827206Y-6425293D02*
X7817682Y-6406246D01*
X7817682Y-6406246D02*
X7817682Y-6396722D01*
X7817682Y-6396722D02*
X7827206Y-6377674D01*
X7827206Y-6377674D02*
X7846253Y-6368150D01*
X7846253Y-6368150D02*
X7874825Y-6368150D01*
X7874825Y-6368150D02*
X7893872Y-6377674D01*
X7970063Y-6577674D02*
X7979587Y-6568150D01*
X7979587Y-6568150D02*
X7998634Y-6539579D01*
X7998634Y-6539579D02*
X8008158Y-6520531D01*
X8008158Y-6520531D02*
X8017682Y-6491960D01*
X8017682Y-6491960D02*
X8027206Y-6444341D01*
X8027206Y-6444341D02*
X8027206Y-6406246D01*
X8027206Y-6406246D02*
X8017682Y-6358627D01*
X8017682Y-6358627D02*
X8008158Y-6330055D01*
X8008158Y-6330055D02*
X7998634Y-6311008D01*
X7998634Y-6311008D02*
X7979587Y-6282436D01*
X7979587Y-6282436D02*
X7970063Y-6272912D01*
X8331968Y-6577674D02*
X8322444Y-6568150D01*
X8322444Y-6568150D02*
X8303396Y-6539579D01*
X8303396Y-6539579D02*
X8293872Y-6520531D01*
X8293872Y-6520531D02*
X8284349Y-6491960D01*
X8284349Y-6491960D02*
X8274825Y-6444341D01*
X8274825Y-6444341D02*
X8274825Y-6406246D01*
X8274825Y-6406246D02*
X8284349Y-6358627D01*
X8284349Y-6358627D02*
X8293872Y-6330055D01*
X8293872Y-6330055D02*
X8303396Y-6311008D01*
X8303396Y-6311008D02*
X8322444Y-6282436D01*
X8322444Y-6282436D02*
X8331968Y-6272912D01*
X8408158Y-6368150D02*
X8408158Y-6501484D01*
X8408158Y-6387198D02*
X8417682Y-6377674D01*
X8417682Y-6377674D02*
X8436730Y-6368150D01*
X8436730Y-6368150D02*
X8465301Y-6368150D01*
X8465301Y-6368150D02*
X8484349Y-6377674D01*
X8484349Y-6377674D02*
X8493873Y-6396722D01*
X8493873Y-6396722D02*
X8493873Y-6501484D01*
X8617682Y-6501484D02*
X8598634Y-6491960D01*
X8598634Y-6491960D02*
X8589111Y-6482436D01*
X8589111Y-6482436D02*
X8579587Y-6463388D01*
X8579587Y-6463388D02*
X8579587Y-6406246D01*
X8579587Y-6406246D02*
X8589111Y-6387198D01*
X8589111Y-6387198D02*
X8598634Y-6377674D01*
X8598634Y-6377674D02*
X8617682Y-6368150D01*
X8617682Y-6368150D02*
X8646254Y-6368150D01*
X8646254Y-6368150D02*
X8665301Y-6377674D01*
X8665301Y-6377674D02*
X8674825Y-6387198D01*
X8674825Y-6387198D02*
X8684349Y-6406246D01*
X8684349Y-6406246D02*
X8684349Y-6463388D01*
X8684349Y-6463388D02*
X8674825Y-6482436D01*
X8674825Y-6482436D02*
X8665301Y-6491960D01*
X8665301Y-6491960D02*
X8646254Y-6501484D01*
X8646254Y-6501484D02*
X8617682Y-6501484D01*
X8741492Y-6368150D02*
X8817682Y-6368150D01*
X8770063Y-6301484D02*
X8770063Y-6472912D01*
X8770063Y-6472912D02*
X8779587Y-6491960D01*
X8779587Y-6491960D02*
X8798634Y-6501484D01*
X8798634Y-6501484D02*
X8817682Y-6501484D01*
X9036730Y-6368150D02*
X9036730Y-6568150D01*
X9036730Y-6377674D02*
X9055777Y-6368150D01*
X9055777Y-6368150D02*
X9093873Y-6368150D01*
X9093873Y-6368150D02*
X9112920Y-6377674D01*
X9112920Y-6377674D02*
X9122444Y-6387198D01*
X9122444Y-6387198D02*
X9131968Y-6406246D01*
X9131968Y-6406246D02*
X9131968Y-6463388D01*
X9131968Y-6463388D02*
X9122444Y-6482436D01*
X9122444Y-6482436D02*
X9112920Y-6491960D01*
X9112920Y-6491960D02*
X9093873Y-6501484D01*
X9093873Y-6501484D02*
X9055777Y-6501484D01*
X9055777Y-6501484D02*
X9036730Y-6491960D01*
X9246254Y-6501484D02*
X9227206Y-6491960D01*
X9227206Y-6491960D02*
X9217682Y-6472912D01*
X9217682Y-6472912D02*
X9217682Y-6301484D01*
X9408158Y-6501484D02*
X9408158Y-6396722D01*
X9408158Y-6396722D02*
X9398635Y-6377674D01*
X9398635Y-6377674D02*
X9379587Y-6368150D01*
X9379587Y-6368150D02*
X9341492Y-6368150D01*
X9341492Y-6368150D02*
X9322444Y-6377674D01*
X9408158Y-6491960D02*
X9389111Y-6501484D01*
X9389111Y-6501484D02*
X9341492Y-6501484D01*
X9341492Y-6501484D02*
X9322444Y-6491960D01*
X9322444Y-6491960D02*
X9312920Y-6472912D01*
X9312920Y-6472912D02*
X9312920Y-6453865D01*
X9312920Y-6453865D02*
X9322444Y-6434817D01*
X9322444Y-6434817D02*
X9341492Y-6425293D01*
X9341492Y-6425293D02*
X9389111Y-6425293D01*
X9389111Y-6425293D02*
X9408158Y-6415769D01*
X9474825Y-6368150D02*
X9551015Y-6368150D01*
X9503396Y-6301484D02*
X9503396Y-6472912D01*
X9503396Y-6472912D02*
X9512920Y-6491960D01*
X9512920Y-6491960D02*
X9531968Y-6501484D01*
X9531968Y-6501484D02*
X9551015Y-6501484D01*
X9693873Y-6491960D02*
X9674825Y-6501484D01*
X9674825Y-6501484D02*
X9636730Y-6501484D01*
X9636730Y-6501484D02*
X9617682Y-6491960D01*
X9617682Y-6491960D02*
X9608158Y-6472912D01*
X9608158Y-6472912D02*
X9608158Y-6396722D01*
X9608158Y-6396722D02*
X9617682Y-6377674D01*
X9617682Y-6377674D02*
X9636730Y-6368150D01*
X9636730Y-6368150D02*
X9674825Y-6368150D01*
X9674825Y-6368150D02*
X9693873Y-6377674D01*
X9693873Y-6377674D02*
X9703396Y-6396722D01*
X9703396Y-6396722D02*
X9703396Y-6415769D01*
X9703396Y-6415769D02*
X9608158Y-6434817D01*
X9874825Y-6501484D02*
X9874825Y-6301484D01*
X9874825Y-6491960D02*
X9855777Y-6501484D01*
X9855777Y-6501484D02*
X9817682Y-6501484D01*
X9817682Y-6501484D02*
X9798635Y-6491960D01*
X9798635Y-6491960D02*
X9789111Y-6482436D01*
X9789111Y-6482436D02*
X9779587Y-6463388D01*
X9779587Y-6463388D02*
X9779587Y-6406246D01*
X9779587Y-6406246D02*
X9789111Y-6387198D01*
X9789111Y-6387198D02*
X9798635Y-6377674D01*
X9798635Y-6377674D02*
X9817682Y-6368150D01*
X9817682Y-6368150D02*
X9855777Y-6368150D01*
X9855777Y-6368150D02*
X9874825Y-6377674D01*
X9951016Y-6577674D02*
X9960539Y-6568150D01*
X9960539Y-6568150D02*
X9979587Y-6539579D01*
X9979587Y-6539579D02*
X9989111Y-6520531D01*
X9989111Y-6520531D02*
X9998635Y-6491960D01*
X9998635Y-6491960D02*
X10008158Y-6444341D01*
X10008158Y-6444341D02*
X10008158Y-6406246D01*
X10008158Y-6406246D02*
X9998635Y-6358627D01*
X9998635Y-6358627D02*
X9989111Y-6330055D01*
X9989111Y-6330055D02*
X9979587Y-6311008D01*
X9979587Y-6311008D02*
X9960539Y-6282436D01*
X9960539Y-6282436D02*
X9951016Y-6272912D01*
X3195000Y-6674000D02*
G75*
G03*
X3195000Y-6674000I-100000J0D01*
G01*
X3446253Y-6584531D02*
X3455777Y-6575008D01*
X3455777Y-6575008D02*
X3474824Y-6565484D01*
X3474824Y-6565484D02*
X3522443Y-6565484D01*
X3522443Y-6565484D02*
X3541491Y-6575008D01*
X3541491Y-6575008D02*
X3551015Y-6584531D01*
X3551015Y-6584531D02*
X3560539Y-6603579D01*
X3560539Y-6603579D02*
X3560539Y-6622627D01*
X3560539Y-6622627D02*
X3551015Y-6651198D01*
X3551015Y-6651198D02*
X3436729Y-6765484D01*
X3436729Y-6765484D02*
X3560539Y-6765484D01*
X3646253Y-6746436D02*
X3655777Y-6755960D01*
X3655777Y-6755960D02*
X3646253Y-6765484D01*
X3646253Y-6765484D02*
X3636729Y-6755960D01*
X3636729Y-6755960D02*
X3646253Y-6746436D01*
X3646253Y-6746436D02*
X3646253Y-6765484D01*
X3731967Y-6584531D02*
X3741491Y-6575008D01*
X3741491Y-6575008D02*
X3760539Y-6565484D01*
X3760539Y-6565484D02*
X3808158Y-6565484D01*
X3808158Y-6565484D02*
X3827205Y-6575008D01*
X3827205Y-6575008D02*
X3836729Y-6584531D01*
X3836729Y-6584531D02*
X3846253Y-6603579D01*
X3846253Y-6603579D02*
X3846253Y-6622627D01*
X3846253Y-6622627D02*
X3836729Y-6651198D01*
X3836729Y-6651198D02*
X3722443Y-6765484D01*
X3722443Y-6765484D02*
X3846253Y-6765484D01*
X3970062Y-6565484D02*
X3989110Y-6565484D01*
X3989110Y-6565484D02*
X4008158Y-6575008D01*
X4008158Y-6575008D02*
X4017682Y-6584531D01*
X4017682Y-6584531D02*
X4027205Y-6603579D01*
X4027205Y-6603579D02*
X4036729Y-6641674D01*
X4036729Y-6641674D02*
X4036729Y-6689293D01*
X4036729Y-6689293D02*
X4027205Y-6727388D01*
X4027205Y-6727388D02*
X4017682Y-6746436D01*
X4017682Y-6746436D02*
X4008158Y-6755960D01*
X4008158Y-6755960D02*
X3989110Y-6765484D01*
X3989110Y-6765484D02*
X3970062Y-6765484D01*
X3970062Y-6765484D02*
X3951015Y-6755960D01*
X3951015Y-6755960D02*
X3941491Y-6746436D01*
X3941491Y-6746436D02*
X3931967Y-6727388D01*
X3931967Y-6727388D02*
X3922443Y-6689293D01*
X3922443Y-6689293D02*
X3922443Y-6641674D01*
X3922443Y-6641674D02*
X3931967Y-6603579D01*
X3931967Y-6603579D02*
X3941491Y-6584531D01*
X3941491Y-6584531D02*
X3951015Y-6575008D01*
X3951015Y-6575008D02*
X3970062Y-6565484D01*
X4160539Y-6565484D02*
X4179586Y-6565484D01*
X4179586Y-6565484D02*
X4198634Y-6575008D01*
X4198634Y-6575008D02*
X4208158Y-6584531D01*
X4208158Y-6584531D02*
X4217682Y-6603579D01*
X4217682Y-6603579D02*
X4227205Y-6641674D01*
X4227205Y-6641674D02*
X4227205Y-6689293D01*
X4227205Y-6689293D02*
X4217682Y-6727388D01*
X4217682Y-6727388D02*
X4208158Y-6746436D01*
X4208158Y-6746436D02*
X4198634Y-6755960D01*
X4198634Y-6755960D02*
X4179586Y-6765484D01*
X4179586Y-6765484D02*
X4160539Y-6765484D01*
X4160539Y-6765484D02*
X4141491Y-6755960D01*
X4141491Y-6755960D02*
X4131967Y-6746436D01*
X4131967Y-6746436D02*
X4122443Y-6727388D01*
X4122443Y-6727388D02*
X4112920Y-6689293D01*
X4112920Y-6689293D02*
X4112920Y-6641674D01*
X4112920Y-6641674D02*
X4122443Y-6603579D01*
X4122443Y-6603579D02*
X4131967Y-6584531D01*
X4131967Y-6584531D02*
X4141491Y-6575008D01*
X4141491Y-6575008D02*
X4160539Y-6565484D01*
X4312920Y-6765484D02*
X4312920Y-6632150D01*
X4312920Y-6651198D02*
X4322444Y-6641674D01*
X4322444Y-6641674D02*
X4341491Y-6632150D01*
X4341491Y-6632150D02*
X4370063Y-6632150D01*
X4370063Y-6632150D02*
X4389110Y-6641674D01*
X4389110Y-6641674D02*
X4398634Y-6660722D01*
X4398634Y-6660722D02*
X4398634Y-6765484D01*
X4398634Y-6660722D02*
X4408158Y-6641674D01*
X4408158Y-6641674D02*
X4427205Y-6632150D01*
X4427205Y-6632150D02*
X4455777Y-6632150D01*
X4455777Y-6632150D02*
X4474825Y-6641674D01*
X4474825Y-6641674D02*
X4484348Y-6660722D01*
X4484348Y-6660722D02*
X4484348Y-6765484D01*
X4579586Y-6765484D02*
X4579586Y-6632150D01*
X4579586Y-6651198D02*
X4589110Y-6641674D01*
X4589110Y-6641674D02*
X4608158Y-6632150D01*
X4608158Y-6632150D02*
X4636729Y-6632150D01*
X4636729Y-6632150D02*
X4655777Y-6641674D01*
X4655777Y-6641674D02*
X4665301Y-6660722D01*
X4665301Y-6660722D02*
X4665301Y-6765484D01*
X4665301Y-6660722D02*
X4674825Y-6641674D01*
X4674825Y-6641674D02*
X4693872Y-6632150D01*
X4693872Y-6632150D02*
X4722444Y-6632150D01*
X4722444Y-6632150D02*
X4741491Y-6641674D01*
X4741491Y-6641674D02*
X4751015Y-6660722D01*
X4751015Y-6660722D02*
X4751015Y-6765484D01*
X5141491Y-6555960D02*
X4970063Y-6813103D01*
X5398634Y-6565484D02*
X5417682Y-6565484D01*
X5417682Y-6565484D02*
X5436729Y-6575008D01*
X5436729Y-6575008D02*
X5446253Y-6584531D01*
X5446253Y-6584531D02*
X5455777Y-6603579D01*
X5455777Y-6603579D02*
X5465301Y-6641674D01*
X5465301Y-6641674D02*
X5465301Y-6689293D01*
X5465301Y-6689293D02*
X5455777Y-6727388D01*
X5455777Y-6727388D02*
X5446253Y-6746436D01*
X5446253Y-6746436D02*
X5436729Y-6755960D01*
X5436729Y-6755960D02*
X5417682Y-6765484D01*
X5417682Y-6765484D02*
X5398634Y-6765484D01*
X5398634Y-6765484D02*
X5379587Y-6755960D01*
X5379587Y-6755960D02*
X5370063Y-6746436D01*
X5370063Y-6746436D02*
X5360539Y-6727388D01*
X5360539Y-6727388D02*
X5351015Y-6689293D01*
X5351015Y-6689293D02*
X5351015Y-6641674D01*
X5351015Y-6641674D02*
X5360539Y-6603579D01*
X5360539Y-6603579D02*
X5370063Y-6584531D01*
X5370063Y-6584531D02*
X5379587Y-6575008D01*
X5379587Y-6575008D02*
X5398634Y-6565484D01*
X5551015Y-6746436D02*
X5560539Y-6755960D01*
X5560539Y-6755960D02*
X5551015Y-6765484D01*
X5551015Y-6765484D02*
X5541491Y-6755960D01*
X5541491Y-6755960D02*
X5551015Y-6746436D01*
X5551015Y-6746436D02*
X5551015Y-6765484D01*
X5684348Y-6565484D02*
X5703396Y-6565484D01*
X5703396Y-6565484D02*
X5722444Y-6575008D01*
X5722444Y-6575008D02*
X5731967Y-6584531D01*
X5731967Y-6584531D02*
X5741491Y-6603579D01*
X5741491Y-6603579D02*
X5751015Y-6641674D01*
X5751015Y-6641674D02*
X5751015Y-6689293D01*
X5751015Y-6689293D02*
X5741491Y-6727388D01*
X5741491Y-6727388D02*
X5731967Y-6746436D01*
X5731967Y-6746436D02*
X5722444Y-6755960D01*
X5722444Y-6755960D02*
X5703396Y-6765484D01*
X5703396Y-6765484D02*
X5684348Y-6765484D01*
X5684348Y-6765484D02*
X5665301Y-6755960D01*
X5665301Y-6755960D02*
X5655777Y-6746436D01*
X5655777Y-6746436D02*
X5646253Y-6727388D01*
X5646253Y-6727388D02*
X5636729Y-6689293D01*
X5636729Y-6689293D02*
X5636729Y-6641674D01*
X5636729Y-6641674D02*
X5646253Y-6603579D01*
X5646253Y-6603579D02*
X5655777Y-6584531D01*
X5655777Y-6584531D02*
X5665301Y-6575008D01*
X5665301Y-6575008D02*
X5684348Y-6565484D01*
X5865301Y-6651198D02*
X5846253Y-6641674D01*
X5846253Y-6641674D02*
X5836729Y-6632150D01*
X5836729Y-6632150D02*
X5827206Y-6613103D01*
X5827206Y-6613103D02*
X5827206Y-6603579D01*
X5827206Y-6603579D02*
X5836729Y-6584531D01*
X5836729Y-6584531D02*
X5846253Y-6575008D01*
X5846253Y-6575008D02*
X5865301Y-6565484D01*
X5865301Y-6565484D02*
X5903396Y-6565484D01*
X5903396Y-6565484D02*
X5922444Y-6575008D01*
X5922444Y-6575008D02*
X5931967Y-6584531D01*
X5931967Y-6584531D02*
X5941491Y-6603579D01*
X5941491Y-6603579D02*
X5941491Y-6613103D01*
X5941491Y-6613103D02*
X5931967Y-6632150D01*
X5931967Y-6632150D02*
X5922444Y-6641674D01*
X5922444Y-6641674D02*
X5903396Y-6651198D01*
X5903396Y-6651198D02*
X5865301Y-6651198D01*
X5865301Y-6651198D02*
X5846253Y-6660722D01*
X5846253Y-6660722D02*
X5836729Y-6670246D01*
X5836729Y-6670246D02*
X5827206Y-6689293D01*
X5827206Y-6689293D02*
X5827206Y-6727388D01*
X5827206Y-6727388D02*
X5836729Y-6746436D01*
X5836729Y-6746436D02*
X5846253Y-6755960D01*
X5846253Y-6755960D02*
X5865301Y-6765484D01*
X5865301Y-6765484D02*
X5903396Y-6765484D01*
X5903396Y-6765484D02*
X5922444Y-6755960D01*
X5922444Y-6755960D02*
X5931967Y-6746436D01*
X5931967Y-6746436D02*
X5941491Y-6727388D01*
X5941491Y-6727388D02*
X5941491Y-6689293D01*
X5941491Y-6689293D02*
X5931967Y-6670246D01*
X5931967Y-6670246D02*
X5922444Y-6660722D01*
X5922444Y-6660722D02*
X5903396Y-6651198D01*
X6112920Y-6565484D02*
X6074825Y-6565484D01*
X6074825Y-6565484D02*
X6055777Y-6575008D01*
X6055777Y-6575008D02*
X6046253Y-6584531D01*
X6046253Y-6584531D02*
X6027206Y-6613103D01*
X6027206Y-6613103D02*
X6017682Y-6651198D01*
X6017682Y-6651198D02*
X6017682Y-6727388D01*
X6017682Y-6727388D02*
X6027206Y-6746436D01*
X6027206Y-6746436D02*
X6036729Y-6755960D01*
X6036729Y-6755960D02*
X6055777Y-6765484D01*
X6055777Y-6765484D02*
X6093872Y-6765484D01*
X6093872Y-6765484D02*
X6112920Y-6755960D01*
X6112920Y-6755960D02*
X6122444Y-6746436D01*
X6122444Y-6746436D02*
X6131967Y-6727388D01*
X6131967Y-6727388D02*
X6131967Y-6679769D01*
X6131967Y-6679769D02*
X6122444Y-6660722D01*
X6122444Y-6660722D02*
X6112920Y-6651198D01*
X6112920Y-6651198D02*
X6093872Y-6641674D01*
X6093872Y-6641674D02*
X6055777Y-6641674D01*
X6055777Y-6641674D02*
X6036729Y-6651198D01*
X6036729Y-6651198D02*
X6027206Y-6660722D01*
X6027206Y-6660722D02*
X6017682Y-6679769D01*
X6303396Y-6565484D02*
X6265301Y-6565484D01*
X6265301Y-6565484D02*
X6246253Y-6575008D01*
X6246253Y-6575008D02*
X6236729Y-6584531D01*
X6236729Y-6584531D02*
X6217682Y-6613103D01*
X6217682Y-6613103D02*
X6208158Y-6651198D01*
X6208158Y-6651198D02*
X6208158Y-6727388D01*
X6208158Y-6727388D02*
X6217682Y-6746436D01*
X6217682Y-6746436D02*
X6227206Y-6755960D01*
X6227206Y-6755960D02*
X6246253Y-6765484D01*
X6246253Y-6765484D02*
X6284348Y-6765484D01*
X6284348Y-6765484D02*
X6303396Y-6755960D01*
X6303396Y-6755960D02*
X6312920Y-6746436D01*
X6312920Y-6746436D02*
X6322444Y-6727388D01*
X6322444Y-6727388D02*
X6322444Y-6679769D01*
X6322444Y-6679769D02*
X6312920Y-6660722D01*
X6312920Y-6660722D02*
X6303396Y-6651198D01*
X6303396Y-6651198D02*
X6284348Y-6641674D01*
X6284348Y-6641674D02*
X6246253Y-6641674D01*
X6246253Y-6641674D02*
X6227206Y-6651198D01*
X6227206Y-6651198D02*
X6217682Y-6660722D01*
X6217682Y-6660722D02*
X6208158Y-6679769D01*
X6398634Y-6565484D02*
X6398634Y-6603579D01*
X6474825Y-6565484D02*
X6474825Y-6603579D01*
X6770063Y-6841674D02*
X6760539Y-6832150D01*
X6760539Y-6832150D02*
X6741491Y-6803579D01*
X6741491Y-6803579D02*
X6731968Y-6784531D01*
X6731968Y-6784531D02*
X6722444Y-6755960D01*
X6722444Y-6755960D02*
X6712920Y-6708341D01*
X6712920Y-6708341D02*
X6712920Y-6670246D01*
X6712920Y-6670246D02*
X6722444Y-6622627D01*
X6722444Y-6622627D02*
X6731968Y-6594055D01*
X6731968Y-6594055D02*
X6741491Y-6575008D01*
X6741491Y-6575008D02*
X6760539Y-6546436D01*
X6760539Y-6546436D02*
X6770063Y-6536912D01*
X6827206Y-6565484D02*
X6951015Y-6565484D01*
X6951015Y-6565484D02*
X6884348Y-6641674D01*
X6884348Y-6641674D02*
X6912920Y-6641674D01*
X6912920Y-6641674D02*
X6931968Y-6651198D01*
X6931968Y-6651198D02*
X6941491Y-6660722D01*
X6941491Y-6660722D02*
X6951015Y-6679769D01*
X6951015Y-6679769D02*
X6951015Y-6727388D01*
X6951015Y-6727388D02*
X6941491Y-6746436D01*
X6941491Y-6746436D02*
X6931968Y-6755960D01*
X6931968Y-6755960D02*
X6912920Y-6765484D01*
X6912920Y-6765484D02*
X6855777Y-6765484D01*
X6855777Y-6765484D02*
X6836729Y-6755960D01*
X6836729Y-6755960D02*
X6827206Y-6746436D01*
X7189110Y-6765484D02*
X7189110Y-6565484D01*
X7274825Y-6765484D02*
X7274825Y-6660722D01*
X7274825Y-6660722D02*
X7265301Y-6641674D01*
X7265301Y-6641674D02*
X7246253Y-6632150D01*
X7246253Y-6632150D02*
X7217682Y-6632150D01*
X7217682Y-6632150D02*
X7198634Y-6641674D01*
X7198634Y-6641674D02*
X7189110Y-6651198D01*
X7398634Y-6765484D02*
X7379587Y-6755960D01*
X7379587Y-6755960D02*
X7370063Y-6746436D01*
X7370063Y-6746436D02*
X7360539Y-6727388D01*
X7360539Y-6727388D02*
X7360539Y-6670246D01*
X7360539Y-6670246D02*
X7370063Y-6651198D01*
X7370063Y-6651198D02*
X7379587Y-6641674D01*
X7379587Y-6641674D02*
X7398634Y-6632150D01*
X7398634Y-6632150D02*
X7427206Y-6632150D01*
X7427206Y-6632150D02*
X7446253Y-6641674D01*
X7446253Y-6641674D02*
X7455777Y-6651198D01*
X7455777Y-6651198D02*
X7465301Y-6670246D01*
X7465301Y-6670246D02*
X7465301Y-6727388D01*
X7465301Y-6727388D02*
X7455777Y-6746436D01*
X7455777Y-6746436D02*
X7446253Y-6755960D01*
X7446253Y-6755960D02*
X7427206Y-6765484D01*
X7427206Y-6765484D02*
X7398634Y-6765484D01*
X7579587Y-6765484D02*
X7560539Y-6755960D01*
X7560539Y-6755960D02*
X7551015Y-6736912D01*
X7551015Y-6736912D02*
X7551015Y-6565484D01*
X7731968Y-6755960D02*
X7712920Y-6765484D01*
X7712920Y-6765484D02*
X7674825Y-6765484D01*
X7674825Y-6765484D02*
X7655777Y-6755960D01*
X7655777Y-6755960D02*
X7646253Y-6736912D01*
X7646253Y-6736912D02*
X7646253Y-6660722D01*
X7646253Y-6660722D02*
X7655777Y-6641674D01*
X7655777Y-6641674D02*
X7674825Y-6632150D01*
X7674825Y-6632150D02*
X7712920Y-6632150D01*
X7712920Y-6632150D02*
X7731968Y-6641674D01*
X7731968Y-6641674D02*
X7741491Y-6660722D01*
X7741491Y-6660722D02*
X7741491Y-6679769D01*
X7741491Y-6679769D02*
X7646253Y-6698817D01*
X7817682Y-6755960D02*
X7836730Y-6765484D01*
X7836730Y-6765484D02*
X7874825Y-6765484D01*
X7874825Y-6765484D02*
X7893872Y-6755960D01*
X7893872Y-6755960D02*
X7903396Y-6736912D01*
X7903396Y-6736912D02*
X7903396Y-6727388D01*
X7903396Y-6727388D02*
X7893872Y-6708341D01*
X7893872Y-6708341D02*
X7874825Y-6698817D01*
X7874825Y-6698817D02*
X7846253Y-6698817D01*
X7846253Y-6698817D02*
X7827206Y-6689293D01*
X7827206Y-6689293D02*
X7817682Y-6670246D01*
X7817682Y-6670246D02*
X7817682Y-6660722D01*
X7817682Y-6660722D02*
X7827206Y-6641674D01*
X7827206Y-6641674D02*
X7846253Y-6632150D01*
X7846253Y-6632150D02*
X7874825Y-6632150D01*
X7874825Y-6632150D02*
X7893872Y-6641674D01*
X7970063Y-6841674D02*
X7979587Y-6832150D01*
X7979587Y-6832150D02*
X7998634Y-6803579D01*
X7998634Y-6803579D02*
X8008158Y-6784531D01*
X8008158Y-6784531D02*
X8017682Y-6755960D01*
X8017682Y-6755960D02*
X8027206Y-6708341D01*
X8027206Y-6708341D02*
X8027206Y-6670246D01*
X8027206Y-6670246D02*
X8017682Y-6622627D01*
X8017682Y-6622627D02*
X8008158Y-6594055D01*
X8008158Y-6594055D02*
X7998634Y-6575008D01*
X7998634Y-6575008D02*
X7979587Y-6546436D01*
X7979587Y-6546436D02*
X7970063Y-6536912D01*
X8331968Y-6841674D02*
X8322444Y-6832150D01*
X8322444Y-6832150D02*
X8303396Y-6803579D01*
X8303396Y-6803579D02*
X8293872Y-6784531D01*
X8293872Y-6784531D02*
X8284349Y-6755960D01*
X8284349Y-6755960D02*
X8274825Y-6708341D01*
X8274825Y-6708341D02*
X8274825Y-6670246D01*
X8274825Y-6670246D02*
X8284349Y-6622627D01*
X8284349Y-6622627D02*
X8293872Y-6594055D01*
X8293872Y-6594055D02*
X8303396Y-6575008D01*
X8303396Y-6575008D02*
X8322444Y-6546436D01*
X8322444Y-6546436D02*
X8331968Y-6536912D01*
X8408158Y-6632150D02*
X8408158Y-6765484D01*
X8408158Y-6651198D02*
X8417682Y-6641674D01*
X8417682Y-6641674D02*
X8436730Y-6632150D01*
X8436730Y-6632150D02*
X8465301Y-6632150D01*
X8465301Y-6632150D02*
X8484349Y-6641674D01*
X8484349Y-6641674D02*
X8493873Y-6660722D01*
X8493873Y-6660722D02*
X8493873Y-6765484D01*
X8617682Y-6765484D02*
X8598634Y-6755960D01*
X8598634Y-6755960D02*
X8589111Y-6746436D01*
X8589111Y-6746436D02*
X8579587Y-6727388D01*
X8579587Y-6727388D02*
X8579587Y-6670246D01*
X8579587Y-6670246D02*
X8589111Y-6651198D01*
X8589111Y-6651198D02*
X8598634Y-6641674D01*
X8598634Y-6641674D02*
X8617682Y-6632150D01*
X8617682Y-6632150D02*
X8646254Y-6632150D01*
X8646254Y-6632150D02*
X8665301Y-6641674D01*
X8665301Y-6641674D02*
X8674825Y-6651198D01*
X8674825Y-6651198D02*
X8684349Y-6670246D01*
X8684349Y-6670246D02*
X8684349Y-6727388D01*
X8684349Y-6727388D02*
X8674825Y-6746436D01*
X8674825Y-6746436D02*
X8665301Y-6755960D01*
X8665301Y-6755960D02*
X8646254Y-6765484D01*
X8646254Y-6765484D02*
X8617682Y-6765484D01*
X8741492Y-6632150D02*
X8817682Y-6632150D01*
X8770063Y-6565484D02*
X8770063Y-6736912D01*
X8770063Y-6736912D02*
X8779587Y-6755960D01*
X8779587Y-6755960D02*
X8798634Y-6765484D01*
X8798634Y-6765484D02*
X8817682Y-6765484D01*
X9036730Y-6632150D02*
X9036730Y-6832150D01*
X9036730Y-6641674D02*
X9055777Y-6632150D01*
X9055777Y-6632150D02*
X9093873Y-6632150D01*
X9093873Y-6632150D02*
X9112920Y-6641674D01*
X9112920Y-6641674D02*
X9122444Y-6651198D01*
X9122444Y-6651198D02*
X9131968Y-6670246D01*
X9131968Y-6670246D02*
X9131968Y-6727388D01*
X9131968Y-6727388D02*
X9122444Y-6746436D01*
X9122444Y-6746436D02*
X9112920Y-6755960D01*
X9112920Y-6755960D02*
X9093873Y-6765484D01*
X9093873Y-6765484D02*
X9055777Y-6765484D01*
X9055777Y-6765484D02*
X9036730Y-6755960D01*
X9246254Y-6765484D02*
X9227206Y-6755960D01*
X9227206Y-6755960D02*
X9217682Y-6736912D01*
X9217682Y-6736912D02*
X9217682Y-6565484D01*
X9408158Y-6765484D02*
X9408158Y-6660722D01*
X9408158Y-6660722D02*
X9398635Y-6641674D01*
X9398635Y-6641674D02*
X9379587Y-6632150D01*
X9379587Y-6632150D02*
X9341492Y-6632150D01*
X9341492Y-6632150D02*
X9322444Y-6641674D01*
X9408158Y-6755960D02*
X9389111Y-6765484D01*
X9389111Y-6765484D02*
X9341492Y-6765484D01*
X9341492Y-6765484D02*
X9322444Y-6755960D01*
X9322444Y-6755960D02*
X9312920Y-6736912D01*
X9312920Y-6736912D02*
X9312920Y-6717865D01*
X9312920Y-6717865D02*
X9322444Y-6698817D01*
X9322444Y-6698817D02*
X9341492Y-6689293D01*
X9341492Y-6689293D02*
X9389111Y-6689293D01*
X9389111Y-6689293D02*
X9408158Y-6679769D01*
X9474825Y-6632150D02*
X9551015Y-6632150D01*
X9503396Y-6565484D02*
X9503396Y-6736912D01*
X9503396Y-6736912D02*
X9512920Y-6755960D01*
X9512920Y-6755960D02*
X9531968Y-6765484D01*
X9531968Y-6765484D02*
X9551015Y-6765484D01*
X9693873Y-6755960D02*
X9674825Y-6765484D01*
X9674825Y-6765484D02*
X9636730Y-6765484D01*
X9636730Y-6765484D02*
X9617682Y-6755960D01*
X9617682Y-6755960D02*
X9608158Y-6736912D01*
X9608158Y-6736912D02*
X9608158Y-6660722D01*
X9608158Y-6660722D02*
X9617682Y-6641674D01*
X9617682Y-6641674D02*
X9636730Y-6632150D01*
X9636730Y-6632150D02*
X9674825Y-6632150D01*
X9674825Y-6632150D02*
X9693873Y-6641674D01*
X9693873Y-6641674D02*
X9703396Y-6660722D01*
X9703396Y-6660722D02*
X9703396Y-6679769D01*
X9703396Y-6679769D02*
X9608158Y-6698817D01*
X9874825Y-6765484D02*
X9874825Y-6565484D01*
X9874825Y-6755960D02*
X9855777Y-6765484D01*
X9855777Y-6765484D02*
X9817682Y-6765484D01*
X9817682Y-6765484D02*
X9798635Y-6755960D01*
X9798635Y-6755960D02*
X9789111Y-6746436D01*
X9789111Y-6746436D02*
X9779587Y-6727388D01*
X9779587Y-6727388D02*
X9779587Y-6670246D01*
X9779587Y-6670246D02*
X9789111Y-6651198D01*
X9789111Y-6651198D02*
X9798635Y-6641674D01*
X9798635Y-6641674D02*
X9817682Y-6632150D01*
X9817682Y-6632150D02*
X9855777Y-6632150D01*
X9855777Y-6632150D02*
X9874825Y-6641674D01*
X9951016Y-6841674D02*
X9960539Y-6832150D01*
X9960539Y-6832150D02*
X9979587Y-6803579D01*
X9979587Y-6803579D02*
X9989111Y-6784531D01*
X9989111Y-6784531D02*
X9998635Y-6755960D01*
X9998635Y-6755960D02*
X10008158Y-6708341D01*
X10008158Y-6708341D02*
X10008158Y-6670246D01*
X10008158Y-6670246D02*
X9998635Y-6622627D01*
X9998635Y-6622627D02*
X9989111Y-6594055D01*
X9989111Y-6594055D02*
X9979587Y-6575008D01*
X9979587Y-6575008D02*
X9960539Y-6546436D01*
X9960539Y-6546436D02*
X9951016Y-6536912D01*
M02*
