G04 #@! TF.GenerationSoftware,KiCad,Pcbnew,7.0.9-7.0.9~ubuntu22.04.1*
G04 #@! TF.CreationDate,2024-01-29T10:47:29+01:00*
G04 #@! TF.ProjectId,v7-soc-8bit,76372d73-6f63-42d3-9862-69742e6b6963,rev?*
G04 #@! TF.SameCoordinates,Original*
G04 #@! TF.FileFunction,Copper,L1,Top*
G04 #@! TF.FilePolarity,Positive*
%FSLAX46Y46*%
G04 Gerber Fmt 4.6, Leading zero omitted, Abs format (unit mm)*
G04 Created by KiCad (PCBNEW 7.0.9-7.0.9~ubuntu22.04.1) date 2024-01-29 10:47:29*
%MOMM*%
%LPD*%
G01*
G04 APERTURE LIST*
G04 Aperture macros list*
%AMRoundRect*
0 Rectangle with rounded corners*
0 $1 Rounding radius*
0 $2 $3 $4 $5 $6 $7 $8 $9 X,Y pos of 4 corners*
0 Add a 4 corners polygon primitive as box body*
4,1,4,$2,$3,$4,$5,$6,$7,$8,$9,$2,$3,0*
0 Add four circle primitives for the rounded corners*
1,1,$1+$1,$2,$3*
1,1,$1+$1,$4,$5*
1,1,$1+$1,$6,$7*
1,1,$1+$1,$8,$9*
0 Add four rect primitives between the rounded corners*
20,1,$1+$1,$2,$3,$4,$5,0*
20,1,$1+$1,$4,$5,$6,$7,0*
20,1,$1+$1,$6,$7,$8,$9,0*
20,1,$1+$1,$8,$9,$2,$3,0*%
G04 Aperture macros list end*
G04 #@! TA.AperFunction,SMDPad,CuDef*
%ADD10R,0.600000X1.450000*%
G04 #@! TD*
G04 #@! TA.AperFunction,SMDPad,CuDef*
%ADD11R,0.300000X1.450000*%
G04 #@! TD*
G04 #@! TA.AperFunction,ComponentPad*
%ADD12O,1.000000X2.100000*%
G04 #@! TD*
G04 #@! TA.AperFunction,ComponentPad*
%ADD13O,1.000000X1.600000*%
G04 #@! TD*
G04 #@! TA.AperFunction,ComponentPad*
%ADD14R,1.700000X1.700000*%
G04 #@! TD*
G04 #@! TA.AperFunction,ComponentPad*
%ADD15O,1.700000X1.700000*%
G04 #@! TD*
G04 #@! TA.AperFunction,SMDPad,CuDef*
%ADD16RoundRect,0.200000X-0.275000X0.200000X-0.275000X-0.200000X0.275000X-0.200000X0.275000X0.200000X0*%
G04 #@! TD*
G04 #@! TA.AperFunction,SMDPad,CuDef*
%ADD17R,1.193800X0.990600*%
G04 #@! TD*
G04 #@! TA.AperFunction,SMDPad,CuDef*
%ADD18RoundRect,0.200000X0.275000X-0.200000X0.275000X0.200000X-0.275000X0.200000X-0.275000X-0.200000X0*%
G04 #@! TD*
G04 #@! TA.AperFunction,SMDPad,CuDef*
%ADD19RoundRect,0.200000X-0.200000X-0.275000X0.200000X-0.275000X0.200000X0.275000X-0.200000X0.275000X0*%
G04 #@! TD*
G04 #@! TA.AperFunction,SMDPad,CuDef*
%ADD20R,0.533400X0.203200*%
G04 #@! TD*
G04 #@! TA.AperFunction,SMDPad,CuDef*
%ADD21RoundRect,0.225000X-0.250000X0.225000X-0.250000X-0.225000X0.250000X-0.225000X0.250000X0.225000X0*%
G04 #@! TD*
G04 #@! TA.AperFunction,SMDPad,CuDef*
%ADD22RoundRect,0.218750X-0.256250X0.218750X-0.256250X-0.218750X0.256250X-0.218750X0.256250X0.218750X0*%
G04 #@! TD*
G04 #@! TA.AperFunction,SMDPad,CuDef*
%ADD23RoundRect,0.150000X-0.587500X-0.150000X0.587500X-0.150000X0.587500X0.150000X-0.587500X0.150000X0*%
G04 #@! TD*
G04 #@! TA.AperFunction,SMDPad,CuDef*
%ADD24RoundRect,0.243750X-0.243750X-0.456250X0.243750X-0.456250X0.243750X0.456250X-0.243750X0.456250X0*%
G04 #@! TD*
G04 #@! TA.AperFunction,SMDPad,CuDef*
%ADD25RoundRect,0.250000X-0.475000X0.250000X-0.475000X-0.250000X0.475000X-0.250000X0.475000X0.250000X0*%
G04 #@! TD*
G04 #@! TA.AperFunction,SMDPad,CuDef*
%ADD26RoundRect,0.225000X0.250000X-0.225000X0.250000X0.225000X-0.250000X0.225000X-0.250000X-0.225000X0*%
G04 #@! TD*
G04 #@! TA.AperFunction,SMDPad,CuDef*
%ADD27R,1.000000X1.800000*%
G04 #@! TD*
G04 #@! TA.AperFunction,SMDPad,CuDef*
%ADD28RoundRect,0.218750X0.218750X0.256250X-0.218750X0.256250X-0.218750X-0.256250X0.218750X-0.256250X0*%
G04 #@! TD*
G04 #@! TA.AperFunction,SMDPad,CuDef*
%ADD29R,0.850000X0.200000*%
G04 #@! TD*
G04 #@! TA.AperFunction,SMDPad,CuDef*
%ADD30R,0.200000X0.850000*%
G04 #@! TD*
G04 #@! TA.AperFunction,SMDPad,CuDef*
%ADD31R,4.050000X4.050000*%
G04 #@! TD*
G04 #@! TA.AperFunction,SMDPad,CuDef*
%ADD32RoundRect,0.200000X0.200000X0.275000X-0.200000X0.275000X-0.200000X-0.275000X0.200000X-0.275000X0*%
G04 #@! TD*
G04 #@! TA.AperFunction,SMDPad,CuDef*
%ADD33RoundRect,0.150000X0.150000X-0.512500X0.150000X0.512500X-0.150000X0.512500X-0.150000X-0.512500X0*%
G04 #@! TD*
G04 #@! TA.AperFunction,SMDPad,CuDef*
%ADD34RoundRect,0.250000X-0.250000X-0.475000X0.250000X-0.475000X0.250000X0.475000X-0.250000X0.475000X0*%
G04 #@! TD*
G04 #@! TA.AperFunction,SMDPad,CuDef*
%ADD35R,1.500000X0.600000*%
G04 #@! TD*
G04 #@! TA.AperFunction,SMDPad,CuDef*
%ADD36RoundRect,0.150000X0.587500X0.150000X-0.587500X0.150000X-0.587500X-0.150000X0.587500X-0.150000X0*%
G04 #@! TD*
G04 #@! TA.AperFunction,SMDPad,CuDef*
%ADD37R,0.375000X0.500000*%
G04 #@! TD*
G04 #@! TA.AperFunction,SMDPad,CuDef*
%ADD38R,0.300000X0.650000*%
G04 #@! TD*
G04 #@! TA.AperFunction,ViaPad*
%ADD39C,0.600000*%
G04 #@! TD*
G04 #@! TA.AperFunction,ViaPad*
%ADD40C,0.800000*%
G04 #@! TD*
G04 #@! TA.AperFunction,ViaPad*
%ADD41C,0.400000*%
G04 #@! TD*
G04 #@! TA.AperFunction,Conductor*
%ADD42C,0.400000*%
G04 #@! TD*
G04 #@! TA.AperFunction,Conductor*
%ADD43C,0.250000*%
G04 #@! TD*
G04 #@! TA.AperFunction,Conductor*
%ADD44C,0.300000*%
G04 #@! TD*
G04 #@! TA.AperFunction,Conductor*
%ADD45C,0.200000*%
G04 #@! TD*
G04 APERTURE END LIST*
D10*
X45110000Y-50055000D03*
X45910000Y-50055000D03*
D11*
X47110000Y-50055000D03*
X48110000Y-50055000D03*
X48610000Y-50055000D03*
X49610000Y-50055000D03*
D10*
X50810000Y-50055000D03*
X51610000Y-50055000D03*
X51610000Y-50055000D03*
X50810000Y-50055000D03*
D11*
X50110000Y-50055000D03*
X49110000Y-50055000D03*
X47610000Y-50055000D03*
X46610000Y-50055000D03*
D10*
X45910000Y-50055000D03*
X45110000Y-50055000D03*
D12*
X44040000Y-50970000D03*
D13*
X44040000Y-55150000D03*
D12*
X52680000Y-50970000D03*
D13*
X52680000Y-55150000D03*
D14*
X39930000Y-34550000D03*
D15*
X42470000Y-34550000D03*
X45010000Y-34550000D03*
X47550000Y-34550000D03*
X50090000Y-34550000D03*
X52630000Y-34550000D03*
X55170000Y-34550000D03*
X57710000Y-34550000D03*
X60250000Y-34550000D03*
X62790000Y-34550000D03*
X65330000Y-34550000D03*
X67870000Y-34550000D03*
X70410000Y-34550000D03*
X72950000Y-34550000D03*
X75490000Y-34550000D03*
X78030000Y-34550000D03*
X80570000Y-34550000D03*
X83110000Y-34550000D03*
X85650000Y-34550000D03*
D16*
X76020000Y-44565000D03*
X76020000Y-46215000D03*
D17*
X68159999Y-56339999D03*
X69860001Y-56339999D03*
X69860001Y-55040001D03*
X68159999Y-55040001D03*
D18*
X51150000Y-47425000D03*
X51150000Y-45775000D03*
D19*
X41335000Y-44280000D03*
X42985000Y-44280000D03*
D20*
X62890000Y-49029998D03*
X62890000Y-49529999D03*
X62890000Y-50029999D03*
X62890000Y-50530000D03*
X64261600Y-50530000D03*
X64261600Y-50029999D03*
X64261600Y-49529999D03*
X64261600Y-49029998D03*
D21*
X64270000Y-51810000D03*
X64270000Y-53360000D03*
D22*
X78950000Y-41302500D03*
X78950000Y-42877500D03*
D18*
X47080000Y-47425000D03*
X47080000Y-45775000D03*
D23*
X44982500Y-42370000D03*
X44982500Y-44270000D03*
X46857500Y-43320000D03*
D24*
X58902500Y-48433332D03*
X60777500Y-48433332D03*
D21*
X80670000Y-38185000D03*
X80670000Y-39735000D03*
D25*
X55255000Y-47775000D03*
X55255000Y-49675000D03*
D26*
X80625000Y-42865000D03*
X80625000Y-41315000D03*
D25*
X70100000Y-37550000D03*
X70100000Y-39450000D03*
D21*
X66085000Y-54915000D03*
X66085000Y-56465000D03*
D16*
X73600000Y-54865000D03*
X73600000Y-56515000D03*
D21*
X75220000Y-50800000D03*
X75220000Y-52350000D03*
D25*
X76650000Y-37550000D03*
X76650000Y-39450000D03*
D27*
X74625000Y-40400000D03*
X72125000Y-40400000D03*
D28*
X78437500Y-50910000D03*
X76862500Y-50910000D03*
D29*
X72800000Y-50525000D03*
X72800000Y-50125000D03*
X72800000Y-49725000D03*
X72800000Y-49325000D03*
X72800000Y-48925000D03*
X72800000Y-48525000D03*
X72800000Y-48125000D03*
X72800000Y-47725000D03*
X72800000Y-47325000D03*
X72800000Y-46925000D03*
X72800000Y-46525000D03*
X72800000Y-46125000D03*
X72800000Y-45725000D03*
X72800000Y-45325000D03*
D30*
X71950000Y-44475000D03*
X71550000Y-44475000D03*
X71150000Y-44475000D03*
X70750000Y-44475000D03*
X70350000Y-44475000D03*
X69950000Y-44475000D03*
X69550000Y-44475000D03*
X69150000Y-44475000D03*
X68750000Y-44475000D03*
X68350000Y-44475000D03*
X67950000Y-44475000D03*
X67550000Y-44475000D03*
X67150000Y-44475000D03*
X66750000Y-44475000D03*
D29*
X65900000Y-45325000D03*
X65900000Y-45725000D03*
X65900000Y-46125000D03*
X65900000Y-46525000D03*
X65900000Y-46925000D03*
X65900000Y-47325000D03*
X65900000Y-47725000D03*
X65900000Y-48125000D03*
X65900000Y-48525000D03*
X65900000Y-48925000D03*
X65900000Y-49325000D03*
X65900000Y-49725000D03*
X65900000Y-50125000D03*
X65900000Y-50525000D03*
D30*
X66750000Y-51375000D03*
X67150000Y-51375000D03*
X67550000Y-51375000D03*
X67950000Y-51375000D03*
X68350000Y-51375000D03*
X68750000Y-51375000D03*
X69150000Y-51375000D03*
X69550000Y-51375000D03*
X69950000Y-51375000D03*
X70350000Y-51375000D03*
X70750000Y-51375000D03*
X71150000Y-51375000D03*
X71550000Y-51375000D03*
X71950000Y-51375000D03*
D31*
X69350000Y-47925000D03*
D24*
X58902500Y-50610000D03*
X60777500Y-50610000D03*
D32*
X42985000Y-42350000D03*
X41335000Y-42350000D03*
D33*
X51160000Y-43397500D03*
X52110000Y-43397500D03*
X53060000Y-43397500D03*
X53060000Y-41122500D03*
X51160000Y-41122500D03*
D21*
X80130000Y-50990000D03*
X80130000Y-52540000D03*
D24*
X58902500Y-44080000D03*
X60777500Y-44080000D03*
D14*
X40000000Y-51930000D03*
D15*
X40000000Y-54470000D03*
D24*
X58902500Y-46256666D03*
X60777500Y-46256666D03*
D34*
X47480000Y-40010000D03*
X49380000Y-40010000D03*
D21*
X77200000Y-41315000D03*
X77200000Y-42865000D03*
D14*
X34110000Y-41840000D03*
D15*
X34110000Y-44380000D03*
X34110000Y-46920000D03*
X34110000Y-49460000D03*
X34110000Y-52000000D03*
X34110000Y-54540000D03*
D35*
X84860000Y-50980000D03*
X88360000Y-50980000D03*
X88360000Y-49380000D03*
X84860000Y-49380000D03*
D21*
X78960000Y-38185000D03*
X78960000Y-39735000D03*
D36*
X39340000Y-44270000D03*
X39340000Y-42370000D03*
X37465000Y-43320000D03*
D21*
X76020000Y-47755000D03*
X76020000Y-49305000D03*
D26*
X71960000Y-56465000D03*
X71960000Y-54915000D03*
X64260000Y-56465000D03*
X64260000Y-54915000D03*
D37*
X48462500Y-46760000D03*
D38*
X49000000Y-46835000D03*
D37*
X49537500Y-46760000D03*
X49537500Y-45060000D03*
D38*
X49000000Y-44985000D03*
D37*
X48462500Y-45060000D03*
D39*
X53070000Y-44500000D03*
X49000000Y-44190000D03*
X45920000Y-48840000D03*
X51154065Y-44875500D03*
X50943786Y-48801991D03*
X92230000Y-47320000D03*
X81775000Y-41907500D03*
X89130715Y-38600000D03*
X83099285Y-46200000D03*
X81560000Y-55913630D03*
X83160000Y-38600000D03*
X81775000Y-42973750D03*
X81560000Y-52354541D03*
X78093332Y-52530000D03*
X86092145Y-38600000D03*
X43680000Y-48550000D03*
X87672140Y-47320000D03*
X84572860Y-38600000D03*
X79530000Y-49750000D03*
X77246666Y-52530000D03*
D40*
X54900000Y-46470000D03*
D39*
X81580000Y-47399089D03*
X81580000Y-45026363D03*
X63525331Y-51554669D03*
X92230000Y-41091428D03*
X71400000Y-37570000D03*
X86152855Y-47320000D03*
X90695710Y-46200000D03*
X81560000Y-53540904D03*
X46120000Y-45790000D03*
X81775000Y-44040000D03*
X81560000Y-54727267D03*
X92230000Y-44828570D03*
X78495000Y-49750000D03*
X52120000Y-45260000D03*
X84618570Y-46200000D03*
X80565000Y-49750000D03*
X92230000Y-42337142D03*
X92230000Y-43582856D03*
X81580000Y-46212726D03*
D41*
X78100000Y-38020000D03*
D39*
X86137855Y-46200000D03*
X81600000Y-49750000D03*
X63190000Y-56700000D03*
X92230000Y-39845714D03*
D41*
X75540000Y-38400000D03*
D39*
X89176425Y-46200000D03*
X78940000Y-52530000D03*
X90650000Y-38600000D03*
X89191425Y-47320000D03*
X82480000Y-39130000D03*
X46500000Y-40010000D03*
X92230000Y-46074284D03*
X87611430Y-38600000D03*
X81775000Y-40841250D03*
X54170000Y-50790000D03*
X83114285Y-47320000D03*
X81775000Y-39775000D03*
X76480331Y-41420331D03*
X77460000Y-49750000D03*
X84633570Y-47320000D03*
X81580000Y-48585452D03*
D41*
X75200000Y-48450000D03*
D39*
X76400000Y-52530000D03*
X69124402Y-48790000D03*
X90710710Y-47320000D03*
X92230000Y-38600000D03*
X87657140Y-46200000D03*
X81560000Y-57100000D03*
X70980000Y-56460000D03*
X66930000Y-54065000D03*
X72920000Y-52660000D03*
X56607281Y-47672719D03*
D41*
X70408248Y-41971752D03*
D39*
X75680000Y-40990000D03*
X50884620Y-38535380D03*
X76100000Y-42850000D03*
X74000000Y-49925000D03*
X37940000Y-45040000D03*
D41*
X74540000Y-49310000D03*
X71990000Y-48930000D03*
D39*
X48609241Y-42770809D03*
D41*
X41040000Y-36860000D03*
X74090000Y-43920000D03*
X43900000Y-37410000D03*
X73910000Y-44580000D03*
X73834633Y-47661863D03*
X48360000Y-40800000D03*
X71920000Y-47580000D03*
X47381091Y-37780000D03*
X73850000Y-47050000D03*
X53737972Y-41793940D03*
X71917956Y-46501608D03*
X54440000Y-41780000D03*
X55160000Y-41730000D03*
X73850000Y-46130000D03*
X71905590Y-45401608D03*
X57730000Y-41740000D03*
X66860000Y-37670000D03*
X72416989Y-42799121D03*
X66870000Y-38480000D03*
X72060000Y-43310000D03*
X71406091Y-42903909D03*
X66810000Y-39290000D03*
X68003568Y-40685750D03*
X70939092Y-43413909D03*
X66810000Y-40676430D03*
X70536664Y-45289989D03*
X74450000Y-41730000D03*
X68435918Y-41118099D03*
X67010000Y-43130000D03*
X36930000Y-50390000D03*
X69140000Y-53100000D03*
X36900000Y-46920000D03*
X69700000Y-52505404D03*
X35940000Y-53440000D03*
X35940000Y-42610000D03*
D42*
X45910000Y-50055000D02*
X45920000Y-48840000D01*
D43*
X49000000Y-44985000D02*
X49000000Y-44190000D01*
D42*
X50810000Y-50055000D02*
X50810000Y-48935777D01*
X53070000Y-44500000D02*
X53070000Y-43407500D01*
X50943786Y-48801991D02*
X54228009Y-48801991D01*
X45920000Y-48840000D02*
X45910000Y-48930000D01*
X51154065Y-44875500D02*
X51154065Y-43403435D01*
X53070000Y-43407500D02*
X53060000Y-43397500D01*
X50810000Y-48935777D02*
X50943786Y-48801991D01*
X54228009Y-48801991D02*
X55255000Y-47775000D01*
X51154065Y-43403435D02*
X51160000Y-43397500D01*
D44*
X76610000Y-52540000D02*
X77570000Y-52540000D01*
X77570000Y-52540000D02*
X77600000Y-52510000D01*
D42*
X77650000Y-37550000D02*
X76650000Y-37550000D01*
D43*
X76220000Y-52350000D02*
X76400000Y-52530000D01*
D42*
X51610000Y-50055000D02*
X51765000Y-50055000D01*
X63425000Y-56465000D02*
X63190000Y-56700000D01*
X64260000Y-56465000D02*
X64535000Y-56465000D01*
X68034998Y-54915000D02*
X68159999Y-55040001D01*
D44*
X58902500Y-46256666D02*
X55113334Y-46256666D01*
D43*
X75220000Y-52350000D02*
X76220000Y-52350000D01*
D44*
X78270000Y-52540000D02*
X78940000Y-52540000D01*
D42*
X52680000Y-50970000D02*
X53960000Y-50970000D01*
X54170000Y-50790000D02*
X54170000Y-50760000D01*
X76650000Y-37550000D02*
X76390000Y-37550000D01*
X54140000Y-50790000D02*
X54170000Y-50790000D01*
X52120000Y-45110000D02*
X52120000Y-45260000D01*
X52110000Y-45100000D02*
X52120000Y-45110000D01*
X70985000Y-56465000D02*
X70980000Y-56460000D01*
X76585662Y-41315000D02*
X76480331Y-41420331D01*
X52110000Y-43397500D02*
X52110000Y-45250000D01*
X64535000Y-56465000D02*
X66085000Y-54915000D01*
X51605000Y-45775000D02*
X52120000Y-45260000D01*
X54170000Y-50760000D02*
X55255000Y-49675000D01*
X78960000Y-38185000D02*
X80670000Y-38185000D01*
X71380000Y-37550000D02*
X71400000Y-37570000D01*
X45110000Y-50055000D02*
X44955000Y-50055000D01*
X70859999Y-56339999D02*
X70980000Y-56460000D01*
X47480000Y-40010000D02*
X46500000Y-40010000D01*
X69860001Y-56339999D02*
X70859999Y-56339999D01*
X43680000Y-48640000D02*
X43680000Y-48550000D01*
X81666250Y-42865000D02*
X81775000Y-42973750D01*
D43*
X49000000Y-46210000D02*
X48565000Y-45775000D01*
D42*
X78960000Y-38185000D02*
X78285000Y-38185000D01*
X46135000Y-45775000D02*
X46120000Y-45790000D01*
X43680000Y-48550000D02*
X43590000Y-48550000D01*
X51765000Y-50055000D02*
X52680000Y-50970000D01*
X64260000Y-56465000D02*
X63425000Y-56465000D01*
X71960000Y-56465000D02*
X70985000Y-56465000D01*
X66085000Y-54915000D02*
X68034998Y-54915000D01*
X63780662Y-51810000D02*
X63525331Y-51554669D01*
X77200000Y-41315000D02*
X76585662Y-41315000D01*
X76390000Y-37550000D02*
X75540000Y-38400000D01*
X80625000Y-42865000D02*
X81666250Y-42865000D01*
D44*
X58902500Y-46256666D02*
X58902500Y-48433332D01*
D42*
X78120000Y-38020000D02*
X78100000Y-38020000D01*
X78100000Y-38020000D02*
X78100000Y-38000000D01*
X44310000Y-49270000D02*
X43680000Y-48640000D01*
X78100000Y-38000000D02*
X77650000Y-37550000D01*
D44*
X77600000Y-52510000D02*
X77630000Y-52540000D01*
D42*
X43590000Y-48550000D02*
X43610000Y-48570000D01*
X64270000Y-51810000D02*
X63780662Y-51810000D01*
X51150000Y-45775000D02*
X51605000Y-45775000D01*
X70100000Y-37550000D02*
X71380000Y-37550000D01*
X78285000Y-38185000D02*
X78120000Y-38020000D01*
D44*
X55113334Y-46256666D02*
X54900000Y-46470000D01*
D42*
X44955000Y-50055000D02*
X44040000Y-50970000D01*
D43*
X48565000Y-45775000D02*
X47080000Y-45775000D01*
D44*
X58902500Y-44080000D02*
X58902500Y-46256666D01*
D42*
X44325000Y-49270000D02*
X44310000Y-49270000D01*
D45*
X75895000Y-47755000D02*
X75200000Y-48450000D01*
D44*
X78940000Y-52540000D02*
X80130000Y-52540000D01*
D45*
X76020000Y-47755000D02*
X75895000Y-47755000D01*
D42*
X52110000Y-45250000D02*
X52120000Y-45260000D01*
X53960000Y-50970000D02*
X54140000Y-50790000D01*
D44*
X58902500Y-50610000D02*
X58902500Y-48433332D01*
X77630000Y-52540000D02*
X78270000Y-52540000D01*
D42*
X47080000Y-45775000D02*
X46135000Y-45775000D01*
D43*
X49000000Y-46835000D02*
X49000000Y-46210000D01*
D42*
X45110000Y-50055000D02*
X44325000Y-49270000D01*
X67285000Y-54065000D02*
X67960000Y-53390000D01*
X64680000Y-53390000D02*
X64770000Y-53390000D01*
D45*
X70039999Y-42577459D02*
X70039999Y-42340001D01*
X70039999Y-42340001D02*
X70408248Y-41971752D01*
D42*
X76280000Y-40390000D02*
X75680000Y-40990000D01*
X65445000Y-54065000D02*
X66930000Y-54065000D01*
X49380000Y-40010000D02*
X50854620Y-38535380D01*
X76020000Y-44565000D02*
X75000000Y-43545000D01*
X67960000Y-53390000D02*
X67960000Y-52610000D01*
X64270000Y-53360000D02*
X64680000Y-53360000D01*
X78960000Y-39735000D02*
X80670000Y-39735000D01*
X83110000Y-37295000D02*
X83110000Y-34550000D01*
D45*
X71550000Y-51700000D02*
X72075000Y-52225000D01*
D42*
X78950000Y-41302500D02*
X78950000Y-39745000D01*
D45*
X67950000Y-52600000D02*
X67960000Y-52610000D01*
D42*
X64260000Y-54915000D02*
X64260000Y-53370000D01*
X78950000Y-41302500D02*
X78892500Y-41302500D01*
D45*
X71950000Y-52100000D02*
X72075000Y-52225000D01*
D42*
X72510000Y-52660000D02*
X72075000Y-52225000D01*
X80670000Y-39735000D02*
X83110000Y-37295000D01*
X80625000Y-39780000D02*
X80670000Y-39735000D01*
X57650000Y-51970000D02*
X56607281Y-50927281D01*
X49380000Y-40010000D02*
X50047500Y-40010000D01*
X63460000Y-53360000D02*
X62070000Y-51970000D01*
X34110000Y-41840000D02*
X35005000Y-41840000D01*
X56607281Y-50927281D02*
X56607281Y-47672719D01*
X80625000Y-41315000D02*
X80625000Y-39780000D01*
D45*
X71550000Y-51375000D02*
X71550000Y-51700000D01*
D42*
X77980000Y-40390000D02*
X76280000Y-40390000D01*
D45*
X69950000Y-43407062D02*
X69980004Y-43377058D01*
D42*
X72920000Y-52660000D02*
X72510000Y-52660000D01*
X78950000Y-39745000D02*
X78960000Y-39735000D01*
X64270000Y-53360000D02*
X63460000Y-53360000D01*
X62070000Y-51970000D02*
X57650000Y-51970000D01*
X78950000Y-41302500D02*
X80612500Y-41302500D01*
D45*
X69980004Y-43377058D02*
X69980004Y-42637455D01*
D42*
X75000000Y-42028529D02*
X75680000Y-41348529D01*
X35370000Y-41475000D02*
X47837500Y-41475000D01*
X78892500Y-41302500D02*
X77980000Y-40390000D01*
X50047500Y-40010000D02*
X51160000Y-41122500D01*
D45*
X71950000Y-51375000D02*
X71950000Y-52100000D01*
D42*
X35005000Y-41840000D02*
X35370000Y-41475000D01*
X47837500Y-41475000D02*
X47840000Y-41472500D01*
X75680000Y-41348529D02*
X75680000Y-40990000D01*
X64260000Y-53370000D02*
X64270000Y-53360000D01*
X47840000Y-41472500D02*
X50900000Y-41472500D01*
D45*
X69980004Y-42637455D02*
X70039999Y-42577459D01*
D42*
X64770000Y-53390000D02*
X65445000Y-54065000D01*
X75000000Y-43545000D02*
X75000000Y-42028529D01*
X80612500Y-41302500D02*
X80625000Y-41315000D01*
X50854620Y-38535380D02*
X50884620Y-38535380D01*
D45*
X69950000Y-44475000D02*
X69950000Y-43407062D01*
D42*
X66930000Y-54065000D02*
X67285000Y-54065000D01*
X64680000Y-53360000D02*
X64680000Y-53390000D01*
D45*
X67950000Y-51375000D02*
X67950000Y-52600000D01*
X73400000Y-49725000D02*
X73625000Y-49950000D01*
X72800000Y-49725000D02*
X73400000Y-49725000D01*
X73450000Y-50125000D02*
X73625000Y-49950000D01*
D42*
X76100000Y-42850000D02*
X77185000Y-42850000D01*
D45*
X72800000Y-50125000D02*
X73450000Y-50125000D01*
D42*
X77185000Y-42850000D02*
X77200000Y-42865000D01*
X73650000Y-49925000D02*
X74000000Y-49925000D01*
X73625000Y-49950000D02*
X73650000Y-49925000D01*
X77200000Y-42865000D02*
X78937500Y-42865000D01*
D44*
X76020000Y-46215000D02*
X76940000Y-47135000D01*
D45*
X72800000Y-49325000D02*
X74525000Y-49325000D01*
X74525000Y-49325000D02*
X74540000Y-49310000D01*
D44*
X76940000Y-47135000D02*
X76940000Y-48385000D01*
X74545000Y-49305000D02*
X74540000Y-49310000D01*
X76940000Y-48385000D02*
X76020000Y-49305000D01*
X37465000Y-44565000D02*
X37940000Y-45040000D01*
X37465000Y-43320000D02*
X37465000Y-44565000D01*
X76020000Y-49305000D02*
X74545000Y-49305000D01*
D45*
X74540000Y-49310000D02*
X74555000Y-49325000D01*
X69035000Y-57215000D02*
X68159999Y-56339999D01*
D42*
X66085000Y-56465000D02*
X68034998Y-56465000D01*
X68034998Y-56465000D02*
X68159999Y-56339999D01*
D45*
X73340000Y-56515000D02*
X72640000Y-57215000D01*
X72640000Y-57215000D02*
X69035000Y-57215000D01*
X71834999Y-55040001D02*
X71960000Y-54915000D01*
D42*
X69860001Y-55040001D02*
X71834999Y-55040001D01*
D45*
X70750000Y-51375000D02*
X70750000Y-52265685D01*
X70750000Y-52265685D02*
X70755685Y-52265685D01*
X71960000Y-53470000D02*
X71960000Y-54915000D01*
X70755685Y-52265685D02*
X71960000Y-53470000D01*
X75220000Y-50800000D02*
X76752500Y-50800000D01*
D44*
X75330000Y-50910000D02*
X75220000Y-50800000D01*
D45*
X72800000Y-50525000D02*
X74945000Y-50525000D01*
D44*
X80210000Y-50910000D02*
X80130000Y-50990000D01*
D43*
X78437500Y-50910000D02*
X80050000Y-50910000D01*
X80050000Y-50910000D02*
X80130000Y-50990000D01*
X84850000Y-50990000D02*
X84860000Y-50980000D01*
X80130000Y-50990000D02*
X84850000Y-50990000D01*
D45*
X70760000Y-41281091D02*
X71098909Y-41620000D01*
X69580002Y-42471771D02*
X69639999Y-42411773D01*
X70321091Y-41281091D02*
X70760000Y-41281091D01*
X69639999Y-42411773D02*
X69639999Y-41962183D01*
X69639999Y-41962183D02*
X70321091Y-41281091D01*
X69580002Y-43211374D02*
X69580002Y-42471771D01*
X75565000Y-39460000D02*
X76650000Y-39460000D01*
X71098909Y-41620000D02*
X73405000Y-41620000D01*
X74625000Y-40400000D02*
X75565000Y-39460000D01*
X69550000Y-44475000D02*
X69550000Y-43241376D01*
X69550000Y-43241376D02*
X69580002Y-43211374D01*
X73405000Y-41620000D02*
X74625000Y-40400000D01*
X69180002Y-42306086D02*
X69239999Y-42246088D01*
X69150000Y-43075690D02*
X69180002Y-43045688D01*
X69239999Y-42246088D02*
X69239999Y-41796497D01*
X69239999Y-41796497D02*
X70636496Y-40400000D01*
X71175000Y-39450000D02*
X72125000Y-40400000D01*
X70636496Y-40400000D02*
X72125000Y-40400000D01*
X70100000Y-39450000D02*
X71175000Y-39450000D01*
X69150000Y-44475000D02*
X69150000Y-43075690D01*
X69180002Y-43045688D02*
X69180002Y-42306086D01*
D44*
X40000000Y-50701262D02*
X40000000Y-51930000D01*
X46857500Y-43843762D02*
X40000000Y-50701262D01*
X48060050Y-43320000D02*
X48609241Y-42770809D01*
X39350000Y-51351262D02*
X39350000Y-51930000D01*
X46857500Y-43320000D02*
X48060050Y-43320000D01*
D45*
X72800000Y-48925000D02*
X71995000Y-48925000D01*
X71995000Y-48925000D02*
X71990000Y-48930000D01*
D44*
X46857500Y-43320000D02*
X46857500Y-43843762D01*
D45*
X74060000Y-48780000D02*
X75020000Y-47820000D01*
X75020000Y-47820000D02*
X75020000Y-44850000D01*
X73610000Y-48780000D02*
X74060000Y-48780000D01*
X73355000Y-48525000D02*
X73610000Y-48780000D01*
X39930000Y-36200000D02*
X39930000Y-34550000D01*
X72800000Y-48525000D02*
X73355000Y-48525000D01*
X40590000Y-36860000D02*
X39930000Y-36200000D01*
X75020000Y-44850000D02*
X74090000Y-43920000D01*
X41040000Y-36860000D02*
X40590000Y-36860000D01*
X74420128Y-47854186D02*
X74420128Y-45090128D01*
X43900000Y-35980000D02*
X43900000Y-37410000D01*
X72800000Y-48125000D02*
X73520686Y-48125000D01*
X73952001Y-48322313D02*
X74420128Y-47854186D01*
X73717998Y-48322313D02*
X73952001Y-48322313D01*
X74420128Y-45090128D02*
X73910000Y-44580000D01*
X73520686Y-48125000D02*
X73717998Y-48322313D01*
X42470000Y-34550000D02*
X43900000Y-35980000D01*
X48360000Y-40800000D02*
X48360000Y-39380256D01*
X73771496Y-47725000D02*
X73834633Y-47661863D01*
X47153273Y-38260000D02*
X45010000Y-36116727D01*
X72800000Y-47725000D02*
X73771496Y-47725000D01*
X45010000Y-36116727D02*
X45010000Y-34550000D01*
X47239744Y-38260000D02*
X47153273Y-38260000D01*
X48360000Y-39380256D02*
X47239744Y-38260000D01*
X47550000Y-37611091D02*
X47381091Y-37780000D01*
X47550000Y-34550000D02*
X47550000Y-37611091D01*
X72800000Y-47325000D02*
X72175925Y-47325000D01*
X72175925Y-47325000D02*
X71993055Y-47507870D01*
X53737972Y-39097972D02*
X51020000Y-36380000D01*
X72800000Y-46925000D02*
X73725000Y-46925000D01*
X51020000Y-35480000D02*
X50090000Y-34550000D01*
X73725000Y-46925000D02*
X73850000Y-47050000D01*
X51020000Y-36380000D02*
X51020000Y-35480000D01*
X53737972Y-41793940D02*
X53737972Y-39097972D01*
X72800000Y-46525000D02*
X71941348Y-46525000D01*
X54440000Y-38890000D02*
X52630000Y-37080000D01*
X54440000Y-41780000D02*
X54440000Y-38890000D01*
X71941348Y-46525000D02*
X71917956Y-46501608D01*
X52630000Y-37080000D02*
X52630000Y-34550000D01*
X55160000Y-41730000D02*
X55170000Y-41720000D01*
X55170000Y-41720000D02*
X55170000Y-34550000D01*
X72800000Y-46125000D02*
X73845000Y-46125000D01*
X73845000Y-46125000D02*
X73850000Y-46130000D01*
X57730000Y-41740000D02*
X57710000Y-41720000D01*
X72800000Y-45725000D02*
X72228982Y-45725000D01*
X72228982Y-45725000D02*
X71905590Y-45401608D01*
X57710000Y-41720000D02*
X57710000Y-34550000D01*
X72800000Y-43182132D02*
X72416989Y-42799121D01*
X66860000Y-37670000D02*
X66350000Y-37670000D01*
X66350000Y-37670000D02*
X65330000Y-36650000D01*
X72800000Y-45325000D02*
X72800000Y-43182132D01*
X65330000Y-36650000D02*
X65330000Y-34550000D01*
X63900000Y-38480000D02*
X62790000Y-37370000D01*
X62790000Y-37370000D02*
X62790000Y-34550000D01*
X71950000Y-43420000D02*
X72060000Y-43310000D01*
X66870000Y-38480000D02*
X63900000Y-38480000D01*
X71950000Y-44475000D02*
X71950000Y-43420000D01*
X60250000Y-37090000D02*
X60250000Y-34550000D01*
X62450000Y-39290000D02*
X60250000Y-37090000D01*
X66810000Y-39290000D02*
X62450000Y-39290000D01*
X71550000Y-43047818D02*
X71406091Y-42903909D01*
X71550000Y-44475000D02*
X71550000Y-43047818D01*
X70410000Y-34550000D02*
X68003568Y-36956432D01*
X71150000Y-44475000D02*
X71150000Y-43624817D01*
X68003568Y-36956432D02*
X68003568Y-40685750D01*
X71150000Y-43624817D02*
X70939092Y-43413909D01*
X67870000Y-34550000D02*
X67870000Y-36524314D01*
X67410000Y-40506785D02*
X67350220Y-40566565D01*
X66919865Y-40566565D02*
X66810000Y-40676430D01*
X70750000Y-45076653D02*
X70536664Y-45289989D01*
X67410000Y-36984314D02*
X67410000Y-40506785D01*
X67350220Y-40566565D02*
X66919865Y-40566565D01*
X70750000Y-44475000D02*
X70750000Y-45076653D01*
X67870000Y-36524314D02*
X67410000Y-36984314D01*
X70350000Y-44475000D02*
X70350000Y-43850000D01*
X70380007Y-42803137D02*
X71023144Y-42160000D01*
X71023144Y-42160000D02*
X74020000Y-42160000D01*
X70380007Y-43819993D02*
X70380007Y-42803137D01*
X74020000Y-42160000D02*
X74450000Y-41730000D01*
X70350000Y-43850000D02*
X70380007Y-43819993D01*
X68944668Y-41526142D02*
X68944668Y-39075332D01*
X68839999Y-42080403D02*
X68839999Y-41630811D01*
X68750000Y-42910004D02*
X68780002Y-42880002D01*
X69470000Y-38550000D02*
X71490000Y-38550000D01*
X68780002Y-42140401D02*
X68839999Y-42080403D01*
X68750000Y-44475000D02*
X68750000Y-42910004D01*
X68780002Y-42880002D02*
X68780002Y-42140401D01*
X71490000Y-38550000D02*
X75490000Y-34550000D01*
X68839999Y-41630811D02*
X68944668Y-41526142D01*
X68944668Y-39075332D02*
X69470000Y-38550000D01*
X68439999Y-41914719D02*
X68439999Y-41617157D01*
X68380000Y-42714318D02*
X68380000Y-42122846D01*
X68350000Y-42744318D02*
X68380000Y-42714318D01*
X68380002Y-41974716D02*
X68439999Y-41914719D01*
X68439999Y-41617157D02*
X68435918Y-41613076D01*
X68435918Y-41613076D02*
X68435918Y-41118099D01*
X68350000Y-44475000D02*
X68350000Y-42744318D01*
X68380002Y-42122844D02*
X68380002Y-41974716D01*
X68380000Y-42122846D02*
X68380002Y-42122844D01*
D44*
X64020000Y-42020000D02*
X63660000Y-42380000D01*
X48300000Y-44897500D02*
X48462500Y-45060000D01*
X48300000Y-43900050D02*
X48300000Y-44897500D01*
X48997168Y-43490000D02*
X48710050Y-43490000D01*
X48710050Y-43490000D02*
X48300000Y-43900050D01*
X67317107Y-42020000D02*
X64020000Y-42020000D01*
X50107168Y-42380000D02*
X48997168Y-43490000D01*
D45*
X67950000Y-44475000D02*
X67950000Y-42652893D01*
D44*
X67910000Y-42612893D02*
X67317107Y-42020000D01*
X63660000Y-42380000D02*
X50107168Y-42380000D01*
D45*
X67950000Y-42652893D02*
X67910000Y-42612893D01*
X67550000Y-42960000D02*
X67110000Y-42520000D01*
D44*
X50580000Y-46610000D02*
X51940000Y-46610000D01*
X64460000Y-42520000D02*
X67110000Y-42520000D01*
X49537500Y-45060000D02*
X50325000Y-45847500D01*
X50325000Y-45847500D02*
X50325000Y-46355000D01*
X49537500Y-45060000D02*
X49590000Y-45007500D01*
D45*
X67550000Y-44475000D02*
X67550000Y-42960000D01*
D44*
X64060000Y-42920000D02*
X64460000Y-42520000D01*
X50325000Y-46355000D02*
X50580000Y-46610000D01*
X51940000Y-46610000D02*
X55630000Y-42920000D01*
X55630000Y-42920000D02*
X64060000Y-42920000D01*
D45*
X67150000Y-43270000D02*
X67010000Y-43130000D01*
X67150000Y-44475000D02*
X67150000Y-43270000D01*
X62890000Y-50530000D02*
X60857500Y-50530000D01*
X60857500Y-50530000D02*
X60777500Y-50610000D01*
X61674168Y-50029999D02*
X60777500Y-49133331D01*
X60777500Y-49133331D02*
X60777500Y-48433332D01*
X62890000Y-50029999D02*
X61674168Y-50029999D01*
X62421701Y-49529999D02*
X61780000Y-48888298D01*
X62890000Y-49529999D02*
X62421701Y-49529999D01*
X61780000Y-48888298D02*
X61780000Y-47259166D01*
X61780000Y-47259166D02*
X60777500Y-46256666D01*
X62890000Y-46192500D02*
X60777500Y-44080000D01*
X62890000Y-49029998D02*
X62890000Y-46192500D01*
X36930000Y-50390000D02*
X36740000Y-50390000D01*
X69150000Y-53090000D02*
X69140000Y-53100000D01*
X69150000Y-51375000D02*
X69150000Y-53090000D01*
X36740000Y-50390000D02*
X35810000Y-49460000D01*
X35810000Y-49460000D02*
X34110000Y-49460000D01*
X69550000Y-51375000D02*
X69550000Y-52355404D01*
X69550000Y-52355404D02*
X69700000Y-52505404D01*
X36900000Y-46920000D02*
X34110000Y-46920000D01*
X71150000Y-51375000D02*
X71150000Y-52007107D01*
X73340000Y-54197107D02*
X73340000Y-54865000D01*
X71150000Y-52007107D02*
X73340000Y-54197107D01*
D44*
X47110000Y-47455000D02*
X47080000Y-47425000D01*
X47110000Y-50055000D02*
X47110000Y-47455000D01*
X50110000Y-50055000D02*
X50110000Y-48687106D01*
X50110000Y-48687106D02*
X51150000Y-47647106D01*
X51150000Y-47647106D02*
X51150000Y-47425000D01*
D42*
X44972500Y-44280000D02*
X44982500Y-44270000D01*
D44*
X42985000Y-45525000D02*
X42985000Y-44280000D01*
X36510000Y-52000000D02*
X42985000Y-45525000D01*
X34110000Y-52000000D02*
X36510000Y-52000000D01*
D42*
X42985000Y-44280000D02*
X44972500Y-44280000D01*
X35440000Y-54540000D02*
X34110000Y-54540000D01*
X41315000Y-42370000D02*
X41335000Y-42350000D01*
X36180000Y-42370000D02*
X35940000Y-42610000D01*
X35940000Y-54040000D02*
X35440000Y-54540000D01*
X39340000Y-42370000D02*
X36180000Y-42370000D01*
X35940000Y-53440000D02*
X35940000Y-54040000D01*
X39340000Y-42370000D02*
X41315000Y-42370000D01*
X41325000Y-44270000D02*
X41335000Y-44280000D01*
X39340000Y-44270000D02*
X41325000Y-44270000D01*
X42985000Y-42350000D02*
X44962500Y-42350000D01*
X44962500Y-42350000D02*
X44982500Y-42370000D01*
D44*
X48110000Y-51130000D02*
X48320000Y-51340000D01*
X49110000Y-51130000D02*
X49110000Y-50055000D01*
X48320000Y-51340000D02*
X48900000Y-51340000D01*
X49110000Y-50055000D02*
X49110000Y-48980000D01*
X49550000Y-46772500D02*
X49537500Y-46760000D01*
X49110000Y-48980000D02*
X49550000Y-48540000D01*
X49550000Y-48540000D02*
X49537500Y-48527500D01*
X48900000Y-51340000D02*
X49110000Y-51130000D01*
X48110000Y-50055000D02*
X48110000Y-51130000D01*
X49537500Y-48527500D02*
X49537500Y-46760000D01*
X47925000Y-48765000D02*
X47925000Y-47297500D01*
X48610000Y-50055000D02*
X48610000Y-49180000D01*
X47610000Y-50055000D02*
X47610000Y-49080000D01*
X47925000Y-48765000D02*
X47770000Y-48920000D01*
X47925000Y-47297500D02*
X48462500Y-46760000D01*
X47610000Y-49080000D02*
X47770000Y-48920000D01*
X47770000Y-48920000D02*
X48350000Y-48920000D01*
X48610000Y-49180000D02*
X48350000Y-48920000D01*
D45*
X65900000Y-49325000D02*
X65090586Y-49325000D01*
X65090586Y-49325000D02*
X64795584Y-49029998D01*
X64795584Y-49029998D02*
X64261600Y-49029998D01*
X65900000Y-49725000D02*
X64828300Y-49725000D01*
X64828300Y-49725000D02*
X64633299Y-49529999D01*
X64633299Y-49529999D02*
X64261600Y-49529999D01*
X64356601Y-50125000D02*
X64261600Y-50029999D01*
X65900000Y-50125000D02*
X64356601Y-50125000D01*
X64266600Y-50525000D02*
X64261600Y-50530000D01*
X65900000Y-50525000D02*
X64266600Y-50525000D01*
G04 #@! TA.AperFunction,Conductor*
G36*
X92741874Y-37849685D02*
G01*
X92787629Y-37902489D01*
X92798830Y-37955159D01*
X92691148Y-49477159D01*
X92670837Y-49544011D01*
X92617608Y-49589271D01*
X92567153Y-49600000D01*
X81890000Y-49600000D01*
X81911749Y-49947986D01*
X81896284Y-50016123D01*
X81846437Y-50065083D01*
X81787729Y-50079721D01*
X80630854Y-50077285D01*
X80592112Y-50070991D01*
X80527711Y-50049651D01*
X80428346Y-50039500D01*
X79831662Y-50039500D01*
X79831644Y-50039501D01*
X79732291Y-50049651D01*
X79674212Y-50068895D01*
X79634950Y-50075188D01*
X79121471Y-50074107D01*
X79056635Y-50055646D01*
X79051980Y-50052775D01*
X78992559Y-50016123D01*
X78962289Y-49997452D01*
X78962284Y-49997450D01*
X78960876Y-49996983D01*
X78802685Y-49944564D01*
X78802683Y-49944563D01*
X78704181Y-49934500D01*
X78704174Y-49934500D01*
X78170826Y-49934500D01*
X78170818Y-49934500D01*
X78072316Y-49944563D01*
X78072315Y-49944564D01*
X77993219Y-49970773D01*
X77912715Y-49997450D01*
X77912706Y-49997455D01*
X77823016Y-50052775D01*
X77757659Y-50071236D01*
X77541077Y-50070780D01*
X77476241Y-50052319D01*
X77455458Y-50039500D01*
X77417559Y-50016123D01*
X77387289Y-49997452D01*
X77387284Y-49997450D01*
X77384572Y-49996551D01*
X77254626Y-49953491D01*
X77197182Y-49913719D01*
X77170359Y-49849203D01*
X77169631Y-49835981D01*
X77169307Y-49630000D01*
X77168519Y-49130000D01*
X83610000Y-49130000D01*
X84610000Y-49130000D01*
X84610000Y-48580000D01*
X85110000Y-48580000D01*
X85110000Y-49130000D01*
X86110000Y-49130000D01*
X87110000Y-49130000D01*
X88110000Y-49130000D01*
X88110000Y-48580000D01*
X88610000Y-48580000D01*
X88610000Y-49130000D01*
X89610000Y-49130000D01*
X89610000Y-49032172D01*
X89609999Y-49032155D01*
X89603598Y-48972627D01*
X89603596Y-48972620D01*
X89553354Y-48837913D01*
X89553350Y-48837906D01*
X89467190Y-48722812D01*
X89467187Y-48722809D01*
X89352093Y-48636649D01*
X89352086Y-48636645D01*
X89217379Y-48586403D01*
X89217372Y-48586401D01*
X89157844Y-48580000D01*
X88610000Y-48580000D01*
X88110000Y-48580000D01*
X87562155Y-48580000D01*
X87502627Y-48586401D01*
X87502620Y-48586403D01*
X87367913Y-48636645D01*
X87367906Y-48636649D01*
X87252812Y-48722809D01*
X87252809Y-48722812D01*
X87166649Y-48837906D01*
X87166645Y-48837913D01*
X87116403Y-48972620D01*
X87116401Y-48972627D01*
X87110000Y-49032155D01*
X87110000Y-49130000D01*
X86110000Y-49130000D01*
X86110000Y-49032172D01*
X86109999Y-49032155D01*
X86103598Y-48972627D01*
X86103596Y-48972620D01*
X86053354Y-48837913D01*
X86053350Y-48837906D01*
X85967190Y-48722812D01*
X85967187Y-48722809D01*
X85852093Y-48636649D01*
X85852086Y-48636645D01*
X85717379Y-48586403D01*
X85717372Y-48586401D01*
X85657844Y-48580000D01*
X85110000Y-48580000D01*
X84610000Y-48580000D01*
X84062155Y-48580000D01*
X84002627Y-48586401D01*
X84002620Y-48586403D01*
X83867913Y-48636645D01*
X83867906Y-48636649D01*
X83752812Y-48722809D01*
X83752809Y-48722812D01*
X83666649Y-48837906D01*
X83666645Y-48837913D01*
X83616403Y-48972620D01*
X83616401Y-48972627D01*
X83610000Y-49032155D01*
X83610000Y-49130000D01*
X77168519Y-49130000D01*
X77168516Y-49127983D01*
X77188095Y-49060915D01*
X77204830Y-49040114D01*
X77339513Y-48905431D01*
X77352079Y-48895365D01*
X77351925Y-48895178D01*
X77357937Y-48890204D01*
X77357937Y-48890203D01*
X77357940Y-48890202D01*
X77407190Y-48837755D01*
X77428911Y-48816035D01*
X77433401Y-48810245D01*
X77437183Y-48805815D01*
X77470448Y-48770393D01*
X77480674Y-48751790D01*
X77491353Y-48735533D01*
X77504362Y-48718764D01*
X77523656Y-48674175D01*
X77526212Y-48668956D01*
X77549627Y-48626368D01*
X77554905Y-48605806D01*
X77561207Y-48587399D01*
X77569635Y-48567927D01*
X77577233Y-48519953D01*
X77578415Y-48514242D01*
X77590500Y-48467177D01*
X77590500Y-48445950D01*
X77592027Y-48426550D01*
X77595346Y-48405596D01*
X77590775Y-48357239D01*
X77590500Y-48351401D01*
X77590500Y-47220501D01*
X77592268Y-47204488D01*
X77592026Y-47204466D01*
X77592758Y-47196710D01*
X77592760Y-47196703D01*
X77590500Y-47124795D01*
X77590500Y-47094075D01*
X77589579Y-47086788D01*
X77589122Y-47080979D01*
X77587597Y-47032430D01*
X77581676Y-47012052D01*
X77577731Y-46993003D01*
X77575071Y-46971942D01*
X77557186Y-46926772D01*
X77555297Y-46921252D01*
X77541743Y-46874599D01*
X77530941Y-46856335D01*
X77522379Y-46838858D01*
X77521351Y-46836262D01*
X77514568Y-46819129D01*
X77486014Y-46779828D01*
X77482810Y-46774950D01*
X77458082Y-46733137D01*
X77458081Y-46733135D01*
X77443075Y-46718129D01*
X77430435Y-46703330D01*
X77417961Y-46686160D01*
X77380528Y-46655194D01*
X77376206Y-46651260D01*
X77200520Y-46475574D01*
X77167035Y-46414251D01*
X77164201Y-46388094D01*
X77160346Y-43939694D01*
X77179925Y-43872624D01*
X77232657Y-43826786D01*
X77284344Y-43815499D01*
X77498344Y-43815499D01*
X77498352Y-43815498D01*
X77498355Y-43815498D01*
X77552760Y-43809940D01*
X77597708Y-43805349D01*
X77758697Y-43752003D01*
X77772755Y-43743331D01*
X77780653Y-43738461D01*
X77845749Y-43720000D01*
X78299777Y-43720000D01*
X78364874Y-43738461D01*
X78387713Y-43752549D01*
X78547315Y-43805436D01*
X78645826Y-43815500D01*
X78645831Y-43815500D01*
X79254169Y-43815500D01*
X79254174Y-43815500D01*
X79352685Y-43805436D01*
X79512287Y-43752549D01*
X79535125Y-43738461D01*
X79600223Y-43720000D01*
X79980204Y-43720000D01*
X80045302Y-43738462D01*
X80066513Y-43751545D01*
X80227393Y-43804855D01*
X80326683Y-43814999D01*
X80374999Y-43814998D01*
X80375000Y-43814998D01*
X80375000Y-43720000D01*
X80875000Y-43720000D01*
X80875000Y-43814999D01*
X80923308Y-43814999D01*
X80923322Y-43814998D01*
X81022607Y-43804855D01*
X81183486Y-43751545D01*
X81204698Y-43738462D01*
X81269796Y-43720000D01*
X81570000Y-43720000D01*
X81575275Y-43300084D01*
X81581559Y-43262643D01*
X81589854Y-43237609D01*
X81589856Y-43237600D01*
X81599999Y-43138322D01*
X81600000Y-43138309D01*
X81600000Y-43115000D01*
X81577601Y-43115000D01*
X81583882Y-42615000D01*
X81599999Y-42615000D01*
X81599999Y-42591692D01*
X81599998Y-42591677D01*
X81589856Y-42492397D01*
X81588579Y-42486431D01*
X81585842Y-42458921D01*
X81596223Y-41632621D01*
X81596536Y-41627139D01*
X81600500Y-41588345D01*
X81600499Y-41292242D01*
X81614352Y-40189546D01*
X81620633Y-40152116D01*
X81635349Y-40107708D01*
X81645500Y-40008345D01*
X81645499Y-39801518D01*
X81665183Y-39734479D01*
X81681813Y-39713842D01*
X82790737Y-38604918D01*
X83553928Y-37864972D01*
X83615762Y-37832441D01*
X83640243Y-37830000D01*
X92674835Y-37830000D01*
X92741874Y-37849685D01*
G37*
G04 #@! TD.AperFunction*
G04 #@! TA.AperFunction,Conductor*
G36*
X77864503Y-51812634D02*
G01*
X77905356Y-51821787D01*
X77905857Y-51820277D01*
X77912712Y-51822548D01*
X77912713Y-51822549D01*
X78072315Y-51875436D01*
X78170826Y-51885500D01*
X78170831Y-51885500D01*
X78704169Y-51885500D01*
X78704174Y-51885500D01*
X78802685Y-51875436D01*
X78943741Y-51828694D01*
X78958316Y-51823865D01*
X78997856Y-51817572D01*
X79113054Y-51818074D01*
X79180004Y-51838049D01*
X79225528Y-51891052D01*
X79235171Y-51960253D01*
X79220800Y-51999638D01*
X79221507Y-51999968D01*
X79218452Y-52006518D01*
X79165144Y-52167393D01*
X79155000Y-52266677D01*
X79155000Y-52290000D01*
X81104999Y-52290000D01*
X81104999Y-52266692D01*
X81104998Y-52266677D01*
X81094855Y-52167392D01*
X81041547Y-52006518D01*
X81040076Y-52003363D01*
X81039715Y-52000991D01*
X81039275Y-51999661D01*
X81039502Y-51999585D01*
X81029586Y-51934285D01*
X81058108Y-51870502D01*
X81116586Y-51832264D01*
X81152993Y-51826962D01*
X81726540Y-51829462D01*
X81793494Y-51849439D01*
X81839018Y-51902442D01*
X81850000Y-51953461D01*
X81850000Y-57525500D01*
X81830315Y-57592539D01*
X81777511Y-57638294D01*
X81726000Y-57649500D01*
X77345188Y-57649500D01*
X77278149Y-57629815D01*
X77232394Y-57577011D01*
X77221191Y-57524658D01*
X77253344Y-52790000D01*
X79155001Y-52790000D01*
X79155001Y-52813322D01*
X79165144Y-52912607D01*
X79218452Y-53073481D01*
X79218457Y-53073492D01*
X79307424Y-53217728D01*
X79307427Y-53217732D01*
X79427267Y-53337572D01*
X79427271Y-53337575D01*
X79571507Y-53426542D01*
X79571518Y-53426547D01*
X79732393Y-53479855D01*
X79831683Y-53489999D01*
X79879999Y-53489998D01*
X79880000Y-53489998D01*
X79880000Y-52790000D01*
X80380000Y-52790000D01*
X80380000Y-53489999D01*
X80428308Y-53489999D01*
X80428322Y-53489998D01*
X80527607Y-53479855D01*
X80688481Y-53426547D01*
X80688492Y-53426542D01*
X80832728Y-53337575D01*
X80832732Y-53337572D01*
X80952572Y-53217732D01*
X80952575Y-53217728D01*
X81041542Y-53073492D01*
X81041547Y-53073481D01*
X81094855Y-52912606D01*
X81104999Y-52813322D01*
X81105000Y-52813309D01*
X81105000Y-52790000D01*
X80380000Y-52790000D01*
X79880000Y-52790000D01*
X79155001Y-52790000D01*
X77253344Y-52790000D01*
X77259023Y-51953748D01*
X77279162Y-51886847D01*
X77332276Y-51841451D01*
X77344011Y-51836888D01*
X77387287Y-51822549D01*
X77387306Y-51822537D01*
X77387579Y-51822411D01*
X77387948Y-51822329D01*
X77394144Y-51820277D01*
X77394358Y-51820922D01*
X77440536Y-51810786D01*
X77864503Y-51812634D01*
G37*
G04 #@! TD.AperFunction*
M02*
