G04 #@! TF.GenerationSoftware,KiCad,Pcbnew,7.0.9-7.0.9~ubuntu22.04.1*
G04 #@! TF.CreationDate,2024-01-29T10:47:29+01:00*
G04 #@! TF.ProjectId,v7-soc-8bit,76372d73-6f63-42d3-9862-69742e6b6963,rev?*
G04 #@! TF.SameCoordinates,Original*
G04 #@! TF.FileFunction,Copper,L3,Inr*
G04 #@! TF.FilePolarity,Positive*
%FSLAX46Y46*%
G04 Gerber Fmt 4.6, Leading zero omitted, Abs format (unit mm)*
G04 Created by KiCad (PCBNEW 7.0.9-7.0.9~ubuntu22.04.1) date 2024-01-29 10:47:29*
%MOMM*%
%LPD*%
G01*
G04 APERTURE LIST*
G04 #@! TA.AperFunction,ComponentPad*
%ADD10O,1.000000X2.100000*%
G04 #@! TD*
G04 #@! TA.AperFunction,ComponentPad*
%ADD11O,1.000000X1.600000*%
G04 #@! TD*
G04 #@! TA.AperFunction,ComponentPad*
%ADD12R,1.700000X1.700000*%
G04 #@! TD*
G04 #@! TA.AperFunction,ComponentPad*
%ADD13O,1.700000X1.700000*%
G04 #@! TD*
G04 #@! TA.AperFunction,ViaPad*
%ADD14C,0.600000*%
G04 #@! TD*
G04 #@! TA.AperFunction,ViaPad*
%ADD15C,0.800000*%
G04 #@! TD*
G04 #@! TA.AperFunction,ViaPad*
%ADD16C,0.400000*%
G04 #@! TD*
G04 #@! TA.AperFunction,Conductor*
%ADD17C,0.400000*%
G04 #@! TD*
G04 #@! TA.AperFunction,Conductor*
%ADD18C,0.200000*%
G04 #@! TD*
G04 APERTURE END LIST*
D10*
X44040000Y-50970000D03*
D11*
X44040000Y-55150000D03*
D10*
X52680000Y-50970000D03*
D11*
X52680000Y-55150000D03*
D12*
X39930000Y-34550000D03*
D13*
X42470000Y-34550000D03*
X45010000Y-34550000D03*
X47550000Y-34550000D03*
X50090000Y-34550000D03*
X52630000Y-34550000D03*
X55170000Y-34550000D03*
X57710000Y-34550000D03*
X60250000Y-34550000D03*
X62790000Y-34550000D03*
X65330000Y-34550000D03*
X67870000Y-34550000D03*
X70410000Y-34550000D03*
X72950000Y-34550000D03*
X75490000Y-34550000D03*
X78030000Y-34550000D03*
X80570000Y-34550000D03*
X83110000Y-34550000D03*
X85650000Y-34550000D03*
D12*
X40000000Y-51930000D03*
D13*
X40000000Y-54470000D03*
D12*
X34110000Y-41840000D03*
D13*
X34110000Y-44380000D03*
X34110000Y-46920000D03*
X34110000Y-49460000D03*
X34110000Y-52000000D03*
X34110000Y-54540000D03*
D14*
X53070000Y-44500000D03*
X49000000Y-44190000D03*
X45920000Y-48840000D03*
X51154065Y-44875500D03*
X50943786Y-48801991D03*
X92230000Y-47320000D03*
X81775000Y-41907500D03*
X89130715Y-38600000D03*
X83099285Y-46200000D03*
X81560000Y-55913630D03*
X83160000Y-38600000D03*
X81775000Y-42973750D03*
X81560000Y-52354541D03*
X78093332Y-52530000D03*
X86092145Y-38600000D03*
X43680000Y-48550000D03*
X87672140Y-47320000D03*
X84572860Y-38600000D03*
X79530000Y-49750000D03*
X77246666Y-52530000D03*
D15*
X54900000Y-46470000D03*
D14*
X81580000Y-47399089D03*
X81580000Y-45026363D03*
X63525331Y-51554669D03*
X92230000Y-41091428D03*
X71400000Y-37570000D03*
X86152855Y-47320000D03*
X90695710Y-46200000D03*
X81560000Y-53540904D03*
X46120000Y-45790000D03*
X81775000Y-44040000D03*
X81560000Y-54727267D03*
X92230000Y-44828570D03*
X78495000Y-49750000D03*
X52120000Y-45260000D03*
X84618570Y-46200000D03*
X80565000Y-49750000D03*
X92230000Y-42337142D03*
X92230000Y-43582856D03*
X81580000Y-46212726D03*
D16*
X78100000Y-38020000D03*
D14*
X86137855Y-46200000D03*
X81600000Y-49750000D03*
X63190000Y-56700000D03*
X92230000Y-39845714D03*
D16*
X75540000Y-38400000D03*
D14*
X89176425Y-46200000D03*
X78940000Y-52530000D03*
X90650000Y-38600000D03*
X89191425Y-47320000D03*
X82480000Y-39130000D03*
X46500000Y-40010000D03*
X92230000Y-46074284D03*
X87611430Y-38600000D03*
X81775000Y-40841250D03*
X54170000Y-50790000D03*
X83114285Y-47320000D03*
X81775000Y-39775000D03*
X76480331Y-41420331D03*
X77460000Y-49750000D03*
X84633570Y-47320000D03*
X81580000Y-48585452D03*
D16*
X75200000Y-48450000D03*
D14*
X76400000Y-52530000D03*
X69124402Y-48790000D03*
X90710710Y-47320000D03*
X92230000Y-38600000D03*
X87657140Y-46200000D03*
X81560000Y-57100000D03*
X70980000Y-56460000D03*
X66930000Y-54065000D03*
X72920000Y-52660000D03*
X56607281Y-47672719D03*
D16*
X70408248Y-41971752D03*
D14*
X75680000Y-40990000D03*
X50884620Y-38535380D03*
X76100000Y-42850000D03*
X74000000Y-49925000D03*
X37940000Y-45040000D03*
D16*
X74540000Y-49310000D03*
X71990000Y-48930000D03*
D14*
X48609241Y-42770809D03*
D16*
X41040000Y-36860000D03*
X74090000Y-43920000D03*
X43900000Y-37410000D03*
X73910000Y-44580000D03*
X73834633Y-47661863D03*
X48360000Y-40800000D03*
X71920000Y-47580000D03*
X47381091Y-37780000D03*
X73850000Y-47050000D03*
X53737972Y-41793940D03*
X71917956Y-46501608D03*
X54440000Y-41780000D03*
X55160000Y-41730000D03*
X73850000Y-46130000D03*
X71905590Y-45401608D03*
X57730000Y-41740000D03*
X66860000Y-37670000D03*
X72416989Y-42799121D03*
X66870000Y-38480000D03*
X72060000Y-43310000D03*
X71406091Y-42903909D03*
X66810000Y-39290000D03*
X68003568Y-40685750D03*
X70939092Y-43413909D03*
X66810000Y-40676430D03*
X70536664Y-45289989D03*
X74450000Y-41730000D03*
X68435918Y-41118099D03*
X67010000Y-43130000D03*
X36930000Y-50390000D03*
X69140000Y-53100000D03*
X36900000Y-46920000D03*
X69700000Y-52505404D03*
X35940000Y-53440000D03*
X35940000Y-42610000D03*
D17*
X50943786Y-48801991D02*
X50943786Y-48383786D01*
X53060000Y-44510000D02*
X53070000Y-44500000D01*
X46510000Y-48250000D02*
X48210000Y-48250000D01*
X48760000Y-47269565D02*
X48760000Y-47700000D01*
X50260000Y-47700000D02*
X48760000Y-47700000D01*
X51154065Y-44875500D02*
X48760000Y-47269565D01*
X45920000Y-48840000D02*
X46510000Y-48250000D01*
X50943786Y-48383786D02*
X50260000Y-47700000D01*
X48210000Y-48250000D02*
X48760000Y-47700000D01*
X51530000Y-44510000D02*
X53060000Y-44510000D01*
X51154065Y-44875500D02*
X50468565Y-44190000D01*
X51154065Y-44875500D02*
X51164500Y-44875500D01*
X50468565Y-44190000D02*
X49000000Y-44190000D01*
X51164500Y-44875500D02*
X51530000Y-44510000D01*
X73930761Y-42130000D02*
X70566496Y-42130000D01*
X73184633Y-43655367D02*
X74460000Y-42380000D01*
X56607281Y-47026521D02*
X52520000Y-42939240D01*
X73184633Y-51444633D02*
X73184633Y-52395367D01*
X74719239Y-42380000D02*
X75100000Y-41999239D01*
X72015000Y-54065000D02*
X66930000Y-54065000D01*
X52520000Y-39990000D02*
X51065380Y-38535380D01*
X74460000Y-42380000D02*
X74180761Y-42380000D01*
X73184633Y-52395367D02*
X72920000Y-52660000D01*
X70566496Y-42130000D02*
X70408248Y-41971752D01*
X73184633Y-51444633D02*
X73184633Y-43655367D01*
X52520000Y-42939240D02*
X52520000Y-39990000D01*
X51065380Y-38535380D02*
X50884620Y-38535380D01*
X75100000Y-41999239D02*
X75100000Y-41570000D01*
X72015000Y-54065000D02*
X72920000Y-53160000D01*
X72920000Y-53160000D02*
X72920000Y-52660000D01*
X74460000Y-42380000D02*
X74719239Y-42380000D01*
X75100000Y-41570000D02*
X75680000Y-40990000D01*
X74180761Y-42380000D02*
X73930761Y-42130000D01*
X56607281Y-47672719D02*
X56607281Y-47026521D01*
X73940000Y-48405025D02*
X74750000Y-47595025D01*
X74750000Y-43900000D02*
X75800000Y-42850000D01*
X75800000Y-42850000D02*
X76100000Y-42850000D01*
X73940000Y-49865000D02*
X73940000Y-48405025D01*
X74750000Y-47595025D02*
X74750000Y-43900000D01*
X74000000Y-49925000D02*
X73940000Y-49865000D01*
D18*
X68501901Y-41118099D02*
X68435918Y-41118099D01*
X70590000Y-39030000D02*
X68501901Y-41118099D01*
X73550000Y-39030000D02*
X70590000Y-39030000D01*
X78030000Y-34550000D02*
X73550000Y-39030000D01*
X70967818Y-39430000D02*
X75690000Y-39430000D01*
X67944009Y-42195991D02*
X68201827Y-42195991D01*
X67010000Y-43130000D02*
X67944009Y-42195991D01*
X75690000Y-39430000D02*
X80570000Y-34550000D01*
X68201827Y-42195991D02*
X70967818Y-39430000D01*
M02*
